<svg xmlns="http://www.w3.org/2000/svg" width="400" height="80" viewBox="0 0 400 80"><defs><style>.a{fill:#fff;}.b{fill:#26333b;}</style></defs><g transform="translate(-233.022 -854.701)"><path class="a" d="M629.36,910.886l-.073-1.86a.122.122,0,0,0-.025-.071l-.612-.775-.108-1.2a.123.123,0,0,0-.032-.074l-1.471-1.455v-1.2a.114.114,0,0,0-.041-.092c-.062-.049-.124-.1-.184-.151a2.616,2.616,0,0,0-.445-.322,1.364,1.364,0,0,0-.34-.11,1.072,1.072,0,0,1-.34-.12c-.163-.105-.215-.312-.182-.735q.03-.5.014-.995c0-.112-.005-.22-.005-.324l.141-.165c.441-.517.9-1.048.577-1.828l-.739-1.166.068-1.736.65-.824a.12.12,0,0,0,.026-.077V893.56l1.54-1.524a.124.124,0,0,0,.033-.087v-3.106l.736-1.019a.134.134,0,0,0,.023-.086c-.005-.113-.005-.227,0-.34a1.221,1.221,0,0,0-.1-.681c-.927-1.341-.927-1.341-.051-2.555a.417.417,0,0,0,.012-.315c-.007-.037-.014-.075-.018-.107a.116.116,0,0,0-.024-.064l-.551-.7v-1.808a.13.13,0,0,0-.021-.073l-.765-1.078v-.826a.153.153,0,0,0-.007-.042.911.911,0,0,0-.849-.636c-.3-.054-.56-.1-.695-.462V876.22a.134.134,0,0,0-.022-.074l-.7-.976v-3.786a.562.562,0,0,1,.463-.4.429.429,0,0,1,.1.011.833.833,0,0,0,.179.02.769.769,0,0,0,.732-.8,12.552,12.552,0,0,0,.026-1.315c-.005-.364-.011-.739.011-1.1a1.132,1.132,0,0,1,.2-.472c.04-.066.081-.132.116-.2h.722a.077.077,0,0,0,.061-.033l1.11-1.417a.124.124,0,0,0,.025-.077v-2.91a.129.129,0,0,0-.022-.073l-.694-.972a2.007,2.007,0,0,1-.01-.355,1.1,1.1,0,0,0-.319-.981,3.083,3.083,0,0,0-1.155-.189c-.181,0-.364.008-.544.016s-.365.015-.544.015a3.5,3.5,0,0,1-.383-.014c-.153-.012-.306-.018-.46-.018-.229,0-.458.011-.687.022s-.448.021-.671.021a3.67,3.67,0,0,1-1.109-.141l-.6-.76a.081.081,0,0,0-.061-.031.077.077,0,0,0-.056.025l-.8.857H614.4l-.756-.894a.078.078,0,0,0-.058-.029.08.08,0,0,0-.059.029l-.755.892H601.414l-.8-.855a.07.07,0,0,0-.056-.025.079.079,0,0,0-.06.032l-.589.746a1.155,1.155,0,0,1-.625.15c-.106,0-.211-.007-.317-.015s-.218-.014-.326-.014a1.375,1.375,0,0,0-.144.005q-.285.021-.571.021c-.19,0-.377-.006-.565-.021-.047,0-.095-.005-.144-.005-.109,0-.218.008-.327.014s-.211.015-.316.015a1.1,1.1,0,0,1-.643-.172l-.2-.265-.364-.462a.076.076,0,0,0-.061-.032h-1.548a.075.075,0,0,0-.057.027l-.771.86h-2.964l-.769-.908a.078.078,0,0,0-.059-.03h-2.262a.078.078,0,0,0-.059.03l-.769.9h-1.436l-.786-.861a.069.069,0,0,0-.028-.02.9.9,0,0,0-.367-.086,1.141,1.141,0,0,0-.824.556,1.128,1.128,0,0,1-.536.448h-2.261q-2.493,0-4.983-.008a.386.386,0,0,1-.18-.086c-.031-.021-.063-.044-.094-.062l-.57-.721a.074.074,0,0,0-.117-.006l-.779.842-.668.043-.788-.932a.077.077,0,0,0-.059-.029h-.737a.078.078,0,0,0-.058.028l-.77.9h-2.963l-.773-.845a.074.074,0,0,0-.056-.026h-1.553a.076.076,0,0,0-.061.032l-.566.716c-1.708.1-3.889.16-6.145.16-2.423,0-4.647-.065-6.267-.181l-.516-.654a.083.083,0,0,0-.052-.031l-.272-.039a7.638,7.638,0,0,0-1.1-.109c-.476,0-84.545.092-84.913.287a.077.077,0,0,0-.028.023l-.535.678h-1.46l-.769-.909a.08.08,0,0,0-.059-.029h-1.5a.073.073,0,0,0-.057.029l-.771.9h-6.05c-.548-.64-.853-.974-1.168-.974-.3,0-.581.308-1.044.853-2.279.136-4.583.211-6.493.211a15.7,15.7,0,0,1-3.632-.229,1.368,1.368,0,0,0-1.088-.8,1.192,1.192,0,0,0-.318.047.084.084,0,0,0-.038.025l-.774.87-.068.01a1.583,1.583,0,0,1-.237.024H423.809l-.79-.933a.073.073,0,0,0-.058-.029h-.736a.079.079,0,0,0-.059.028l-.769.9h-1.434l-.772-.814a.076.076,0,0,0-.055-.025.073.073,0,0,0-.054.023l-.838.855c-.124-.01-.247-.014-.368-.014-.152,0-.3.006-.451.012s-.282.011-.422.011a2.317,2.317,0,0,1-1-.185l-.563-.713a.079.079,0,0,0-.061-.032.083.083,0,0,0-.056.027l-.795.868h-2.946l-.772-.89a.073.073,0,0,0-.116,0l-.754.873h-3.76L406.1,860c-.068-.086-.13-.173-.194-.243a1.428,1.428,0,0,0-.884-.62,1.227,1.227,0,0,0-.8.557c-.166.2-.272.319-.356.319a.14.14,0,0,1-.087-.04l-.183-.234-.378-.479a.077.077,0,0,0-.061-.032.074.074,0,0,0-.056.026l-.794.874h-2.951l-.771-.886a.073.073,0,0,0-.116,0l-.771.887a.752.752,0,0,1-.295.069.959.959,0,0,1-.7-.54,1.073,1.073,0,0,0-.4-.405l-1.639-.005a.078.078,0,0,0-.06.032l-.581.735a3.017,3.017,0,0,1-.884.152,1.688,1.688,0,0,1-.815-.2l-.533-.675a.078.078,0,0,0-.053-.031l-.777-.086a.077.077,0,0,0-.058.028l-.812.93H324.269l-.772-.884a.075.075,0,0,0-.058-.029.076.076,0,0,0-.058.029l-.775.886a.725.725,0,0,1-.286.067.938.938,0,0,1-.644-.437,1.092,1.092,0,0,0-.571-.435h-.012a.072.072,0,0,0-.053.024l-.9.9a1.479,1.479,0,0,0-.648-.126c-.127,0-.255.01-.382.019s-.249.018-.373.018a1.276,1.276,0,0,1-.748-.2l-.219-.286-.335-.424a.079.079,0,0,0-.061-.032h-1.54a.075.075,0,0,0-.057.028l-.771.888H306.7l-.78-.911a.076.076,0,0,0-.058-.029h-.73a.075.075,0,0,0-.057.028l-.772.865H292.177l-.769-.795a.074.074,0,0,0-.108,0l-.9.9a1.155,1.155,0,0,0-.414-.065c-.076,0-.153,0-.229.008s-.145.009-.215.009a.764.764,0,0,1-.565-.2l-.53-.673a.088.088,0,0,0-.054-.032l-.776-.086a.077.077,0,0,0-.058.028l-.808.932h-2.961l-.78-.909a.08.08,0,0,0-.057-.029h-.728a.08.08,0,0,0-.058.029l-.772.874h-7.545l-.8-.825a.074.074,0,0,0-.054-.025.077.077,0,0,0-.061.033l-.592.748a3.3,3.3,0,0,1-1.037.136c-.174,0-.348-.007-.523-.013s-.352-.014-.527-.014h-.113q-.78.014-1.563.013c-.748,0-1.5-.007-2.253-.016a.371.371,0,0,1-.167-.1,1.2,1.2,0,0,0-.108-.086l-.315-.407-.23-.291a.075.075,0,0,0-.06-.032.077.077,0,0,0-.057.027l-.789.889h-8.3l-.816-.946a.077.077,0,0,0-.059-.029h-1.42l-.8-.871a.076.076,0,0,0-.056-.026.078.078,0,0,0-.06.031c-.06.074-.117.15-.173.224a1.265,1.265,0,0,1-.921.688.737.737,0,0,1-.115-.009,1.588,1.588,0,0,0-.228-.014,3.792,3.792,0,0,0-.541.05c-.1.014-.2.029-.3.037a.081.081,0,0,0-.057.034l-1.019,1.366a.133.133,0,0,0,0,.146l.7,1.044v.956c0,1.168,0,2.3,0,3.43a1.1,1.1,0,0,1-.057.275c-.016.057-.035.121-.052.2-.52.185-.588.75-.649,1.25a3.577,3.577,0,0,1-.108.6l-1.38,1.748a.125.125,0,0,0-.026.077v.876l-1.4,1.87a.12.12,0,0,0-.021.044l-.34,1.44h-1.433a.076.076,0,0,0-.06.032l-2.829,3.582a.129.129,0,0,0-.026.076v1.667l-.763,1.048a.128.128,0,0,0-.022.073v5.694l-.764,1.068a.123.123,0,0,0-.023.074v3.746l-.09.111a3.041,3.041,0,0,0-.192.249c-.634.935-.68,1.134-.033,2.116a1.994,1.994,0,0,1,.354,1.2c0,.318.021.636.052.952.01.117.02.227.027.329a.119.119,0,0,0,.024.068l.622.787v7.665l-.7.976a.129.129,0,0,0-.022.073v3.763l-.763,1.049a.13.13,0,0,0-.024.074v1.861a3.032,3.032,0,0,0-.854,2.008,1.44,1.44,0,0,1-.408.663,3.21,3.21,0,0,0-.227.276.137.137,0,0,0-.022.067c-.016.369-.009.726,0,1.072a7.476,7.476,0,0,1-.108,1.813,2.593,2.593,0,0,1-.224.27,1.181,1.181,0,0,0-.418.908,1.623,1.623,0,0,1-.5,1.238c-.073.091-.148.183-.219.281a.133.133,0,0,0,0,.146l.7,1v.845l-.718.983a.132.132,0,0,0-.023.074v5.791a.122.122,0,0,0,.026.076l1.107,1.4a.083.083,0,0,0,.062.032.076.076,0,0,0,.057-.029l.78-.9h1.428l.77.9a.076.076,0,0,0,.058.029h1.5a.079.079,0,0,0,.057-.027l.832-.9h3.111c3.445,0,6.861,0,10.279.006a.506.506,0,0,1,.2.066l.1.042c.523.612.79.9,1.081.9.258,0,.5-.247.85-.623a1.085,1.085,0,0,1,.894-.394h.078l.793.893a.076.076,0,0,0,.057.028.079.079,0,0,0,.058-.028l.766-.887h1.427l.79.889a.075.075,0,0,0,.057.028.076.076,0,0,0,.061-.032c.068-.086.128-.166.188-.246a4.7,4.7,0,0,1,.374-.458.655.655,0,0,1,.476-.221.768.768,0,0,1,.451.166,3.667,3.667,0,0,1,.565.575,3.028,3.028,0,0,0,.2.233.074.074,0,0,0,.056.026h1.05c.327,0,.643,0,.959-.011a.469.469,0,0,0,.261-.127.923.923,0,0,1,.094-.065l.181-.221.394-.5H270.7l.747.847a.08.08,0,0,0,.058.029.078.078,0,0,0,.058-.029l.77-.882h4.487l.771.861a.074.074,0,0,0,.057.026.077.077,0,0,0,.056-.025l.816-.876h1.527c.656,0,1.3,0,1.943.007a.492.492,0,0,1,.2.073c.031.016.062.032.093.046l.586.743a.078.078,0,0,0,.061.031.069.069,0,0,0,.054-.024l.8-.831h2.2l.77.881a.077.077,0,0,0,.059.029h1.495a.075.075,0,0,0,.058-.029l.779-.909h.666l.816.929a.079.079,0,0,0,.058.028h.009a5.023,5.023,0,0,0,1.682-1,7.672,7.672,0,0,0,.884.044c.248,0,.5-.008.748-.014s.5-.015.742-.015a6.285,6.285,0,0,1,1.254.1l.62.784a.077.077,0,0,0,.061.033.076.076,0,0,0,.054-.025l.8-.835h2.96l.771.886a.076.076,0,0,0,.058.029h.735a.077.077,0,0,0,.059-.029l.779-.909h1.423l.771.85a.072.072,0,0,0,.112,0l.824-.875c.181.015.361.019.539.019.227,0,.451-.008.673-.017s.428-.015.639-.015a4.247,4.247,0,0,1,1.115.122c.5.591.784.9,1.092.9s.618-.33,1.161-.965h3l.77.892a.077.077,0,0,0,.058.028h.739a.077.077,0,0,0,.059-.029l.791-.929H321.6a1.772,1.772,0,0,1,.24.022l.068.008.555.626a1.24,1.24,0,0,0,.666.246,1,1,0,0,0,.8-.585c.078-.118.152-.228.211-.245h60.713l.628.794a.076.076,0,0,0,.061.032.074.074,0,0,0,.054-.025l.8-.843h3.724l.77.9a.075.075,0,0,0,.058.029h1.485a.078.078,0,0,0,.059-.03l.769-.909h2.194l.8.865a.077.077,0,0,0,.056.026.083.083,0,0,0,.062-.032l.555-.7c1.941-.141,4.017-.222,5.7-.222a12.306,12.306,0,0,1,2.884.188l.524.663a.953.953,0,0,0,.544.2,1.524,1.524,0,0,0,1.045-.827l.108-.146h3.758l.755.882a.078.078,0,0,0,.059.03.074.074,0,0,0,.058-.03l.759-.891h1.434l.826.922a.079.079,0,0,0,.057.027l.733-.107a.069.069,0,0,0,.044-.024l.808-.842h2.342c1.671,0,3.316,0,4.962.007a.408.408,0,0,1,.186.087c.031.019.063.039.094.056l.528.668a.078.078,0,0,0,.047.03,3.093,3.093,0,0,0,.563.086c.374,0,.558-.227,1.088-.9h3.756l.755.887a.074.074,0,0,0,.117,0l.757-.892h8.309l.828.921a.075.075,0,0,0,.057.027l.732-.109a.084.084,0,0,0,.044-.024l.831-.865,1.377.082.647.818a.076.076,0,0,0,.061.032.071.071,0,0,0,.056-.025l.8-.854h1.433l.756.892a.073.073,0,0,0,.058.029.077.077,0,0,0,.059-.029l.754-.891h1.437l.772.853a.074.074,0,0,0,.057.026h1.495a.077.077,0,0,0,.055-.024l.883-.909,1.376.086.647.819a.076.076,0,0,0,.061.032.078.078,0,0,0,.056-.026l.8-.86h1.434l.768.908a.081.081,0,0,0,.059.03h.736a.075.075,0,0,0,.058-.029l.77-.9h2.963l.828.909a.079.079,0,0,0,.057.027h85.448c.836,0,1.66,0,2.485-.006a.6.6,0,0,0,.257-.078l.039-.019a.067.067,0,0,0,.031-.019l.85-.872,1.373.086.648.82a.073.073,0,0,0,.117.007l.8-.86h3.719l.76.893a.073.073,0,0,0,.116,0l.757-.882h3.724l.771.814a.078.078,0,0,0,.055.025.073.073,0,0,0,.055-.024l.859-.877,1.37.086.649.821a.076.076,0,0,0,.06.032.078.078,0,0,0,.057-.026l.794-.868h6l.773.891a.075.075,0,0,0,.057.028.077.077,0,0,0,.058-.028l.755-.874h2.2l.9.986a.074.074,0,0,0,.056.026h.021a2.026,2.026,0,0,1,.65-.086c.126,0,.251.005.376.012s.256.012.383.012a2.11,2.11,0,0,0,.834-.146.078.078,0,0,0,.034-.026l.591-.749c.128-.005.261-.022.4-.037a4.241,4.241,0,0,1,.519-.042,1.349,1.349,0,0,1,.714.178l.373.48.2.258a.079.079,0,0,0,.061.032h2.306a.079.079,0,0,0,.058-.028l.772-.875h3.716l.78.91a.077.077,0,0,0,.058.028h1.5a.077.077,0,0,0,.058-.028l.772-.889h7.578l.086.11a2.949,2.949,0,0,0,.2.243,1.424,1.424,0,0,0,.879.618,1.242,1.242,0,0,0,.8-.561c.164-.193.272-.317.352-.317a.139.139,0,0,1,.089.043l.561.712a.075.075,0,0,0,.06.032.072.072,0,0,0,.056-.027l.794-.876h6.77l.772.886a.077.077,0,0,0,.058.028.075.075,0,0,0,.057-.028l.748-.861h1.435l.772.829a.076.076,0,0,0,.056.026h1.558a.076.076,0,0,0,.061-.032l.68-.86h1.444c.711,0,1.445,0,2.179.009a.382.382,0,0,1,.171.1,1.253,1.253,0,0,0,.108.08l.072.1.445.563a.076.076,0,0,0,.053.032l.778.086a.075.075,0,0,0,.057-.028l.811-.929h.793a.082.082,0,0,0,.064-.036c.083-.114.172-.23.263-.35a8.918,8.918,0,0,0,.712-1.028,1.478,1.478,0,0,0,.109-.672c0-.112,0-.227.015-.344a.133.133,0,0,0-.02-.086l-.728-1.048V919.8l.722-.979a.12.12,0,0,0,.023-.075v-2.834l1.454-1.841a.125.125,0,0,0,.025-.077v-1.984a.134.134,0,0,0-.019-.069Z"/><path class="b" d="M632.373,911.235a.421.421,0,0,1-.017-.312.939.939,0,0,0,.016-.106.124.124,0,0,1,.025-.066l.536-.679-1.459-1.918a.129.129,0,0,1-.023-.076v-.873l-.73-1.014a.126.126,0,0,1-.022-.065l-.063-.946-2.208-2.795a.124.124,0,0,1-.025-.076v-1.033c0-1.515,0-3.078.009-4.641a.61.61,0,0,1,.136-.329,1.47,1.47,0,0,0,.079-.127l.528-.667V892.7a.13.13,0,0,1,.022-.074l.764-1.048v-.861a.122.122,0,0,1,.023-.073l.7-.978v-9.6l-1.355-1.717a.12.12,0,0,1-.023-.05l-.264-1.279-1.344-1.7a.128.128,0,0,1-.025-.078v-2.888a.125.125,0,0,1,.024-.076l1.526-2.036v-1.518a.137.137,0,0,1,.008-.045,4.328,4.328,0,0,1,.83-1.347,2.836,2.836,0,0,0,.656-1.089q.021-.483,0-.966a5.47,5.47,0,0,1,.165-1.893.148.148,0,0,1,.019-.035l.512-.649-.674-.969a.136.136,0,0,1-.022-.072v-.9c0-.947.009-1.925-.028-2.9,0-.095-.266-.344-.485-.4a1.267,1.267,0,0,0-.318-.035c-.082,0-.16.005-.245.009s-.17.009-.255.009a1.137,1.137,0,0,1-.688-.2l-.562-.712h-2.244l-.747.834a.074.074,0,0,1-.052.027l-.742.053a.078.078,0,0,1-.059-.03l-.793-.937h-.664l-.77.882a.075.075,0,0,1-.058.029.077.077,0,0,1-.056-.027l-.752-.826h-2.555a1.49,1.49,0,0,0-.772.48.655.655,0,0,1-.45.272.469.469,0,0,1-.148-.025.089.089,0,0,1-.039-.028l-.6-.756h-1.233c-.546,0-1.106,0-1.666.012a.371.371,0,0,0-.158.115.646.646,0,0,1-.088.078l-.54.683a.078.078,0,0,1-.056.032l-.77.051a.08.08,0,0,1-.058-.029l-.791-.936H608.3l-.771.9a.073.073,0,0,1-.057.029h-3.792a.078.078,0,0,1-.057-.026l-.772-.848h-1.442a1.487,1.487,0,0,0-.3.344.692.692,0,0,1-.523.4.474.474,0,0,1-.129-.018.081.081,0,0,1-.043-.029l-.6-.759h-2.48c-2.409,0-4.851,0-7.294.01a.362.362,0,0,0-.155.114.658.658,0,0,1-.089.079l-.555.7a.074.074,0,0,1-.119,0l-.782-.9h-2.191l-.8.936a.081.081,0,0,1-.059.03l-.774-.068a.081.081,0,0,1-.057-.034l-.111-.15a1.3,1.3,0,0,0-.922-.717,1.17,1.17,0,0,0-.616.224.6.6,0,0,0-.081.148.57.57,0,0,1-.456.437.486.486,0,0,1-.159-.03.083.083,0,0,1-.037-.028l-.517-.656-.7-.1-.8.9a.074.074,0,0,1-.053.028l-.738.043a.078.078,0,0,1-.058-.029l-.791-.934h-6.779l-.773.9a.071.071,0,0,1-.026.02.8.8,0,0,1-.376.1,1.1,1.1,0,0,1-.773-.507,1.275,1.275,0,0,0-.43-.379l-.813.827a.074.074,0,0,1-.053.025l-1.441-.094a.078.078,0,0,1-.056-.032l-.612-.775-.7-.1-.816.92a.073.073,0,0,1-.057.028h-2.261a.077.077,0,0,1-.059-.029l-.771-.911h-4.49l-.8.934a.071.071,0,0,1-.058.028l-.739-.071a.071.071,0,0,1-.049-.026l-.8-.872h-3.29c-3.9,0-91.44,0-95.306.006a.529.529,0,0,0-.2.065c-.031.015-.063.029-.094.041-.507.589-.778.9-1.088.9s-.594-.31-1.149-.957h-2.238l-.754.846a.075.075,0,0,1-.053.028l-.733.044a.077.077,0,0,1-.057-.03l-.748-.875-.72.815a.081.081,0,0,1-.057.029.078.078,0,0,1-.057-.026l-.809-.881h-2.746c-2.289,0-4.557,0-6.825.005a.48.48,0,0,0-.194.065l-.033.018-.846.86a.076.076,0,0,1-.053.024h-.006c-.131-.012-.261-.016-.389-.016-.15,0-.3.006-.445.011s-.287.011-.427.011a2.467,2.467,0,0,1-1.078-.2.1.1,0,0,1-.031-.026l-.554-.7H431.45l-.772.867a.078.078,0,0,1-.057.029h-1.5a.078.078,0,0,1-.058-.03l-.774-.912H413.882l-.8.937a.08.08,0,0,1-.059.029l-.741-.066a.08.08,0,0,1-.05-.025l-.8-.879h-1.74c-.836,0-1.66,0-2.484.006a.381.381,0,0,0-.289.107c-.344.411-.516.618-.717.618s-.378-.21-.724-.631l-.245-.035a7.319,7.319,0,0,0-1.073-.106,2.391,2.391,0,0,0-1.155.258l-.544.688a.076.076,0,0,1-.061.032.079.079,0,0,1-.058-.028l-.784-.908H312.807l-.768.883a.076.076,0,0,1-.058.029.075.075,0,0,1-.057-.027l-.777-.854a.727.727,0,0,0-.3-.069,1,1,0,0,0-.7.494,1.24,1.24,0,0,1-.651.509,2.83,2.83,0,0,0-.319-.012c-.145,0-.289.006-.436.012s-.294.012-.441.012a2.515,2.515,0,0,1-1.059-.195.079.079,0,0,1-.032-.026l-.557-.705h-1.478l-.752.839a.075.075,0,0,1-.052.026l-.741.049a.077.077,0,0,1-.059-.029l-.792-.935h-1.427l-.769.878a.081.081,0,0,1-.058.027.078.078,0,0,1-.055-.025l-.731-.774a1.451,1.451,0,0,0-.238.3.681.681,0,0,1-.515.4.487.487,0,0,1-.136-.02.075.075,0,0,1-.042-.029l-.557-.706H294.5l-.021.015a.873.873,0,0,0-.181.149c-.13.151-.256.312-.385.478l-.166.215a.08.08,0,0,1-.061.031.072.072,0,0,1-.058-.028l-.781-.9H287.6l-.773.9a.086.086,0,0,1-.026.02.816.816,0,0,1-.376.1,1.114,1.114,0,0,1-.772-.5,1.28,1.28,0,0,0-.461-.393,1.131,1.131,0,0,0-.208.267.656.656,0,0,1-.5.4.509.509,0,0,1-.145-.023.082.082,0,0,1-.041-.029l-.556-.7H281.5l-.772.87a.076.076,0,0,1-.057.028h-.732a.08.08,0,0,1-.059-.029l-.772-.91h-2.2l-.77.893a.076.076,0,0,1-.058.029h-1.5a.077.077,0,0,1-.056-.026l-.834-.9h-2.419c-1.633,0-3.248,0-4.862.006a.494.494,0,0,0-.2.068c-.032.014-.064.031-.1.042-.5.586-.77.892-1.081.892s-.6-.311-1.151-.959h-1.475l-.747.847a.077.077,0,0,1-.057.028.075.075,0,0,1-.058-.029l-.781-.9h-6.047a.076.076,0,0,1-.058-.029l-.8-.925a.718.718,0,0,1-.3.068,1.077,1.077,0,0,1-.747-.5,1.238,1.238,0,0,0-.442-.39l-.549.549a3.175,3.175,0,0,1-1.359.25h-.258a1.784,1.784,0,0,0-.929.172l-.252.32c-.188.238-.374.476-.563.711a1.057,1.057,0,0,0-.136.643.872.872,0,0,1-.163.648,2.718,2.718,0,0,0-.636,2.274v.209a.88.88,0,0,1-.083.335c-.017.039-.032.08-.046.122a.1.1,0,0,1-.019.037l-.531.673.641.966a.13.13,0,0,1,.02.07v2.865a.125.125,0,0,1-.023.074l-.714.974v1.99a.114.114,0,0,1-.059.1l-.883.38-5.982,7.572v1.486a.122.122,0,0,1-.02.069l-.693,1.078c-.015.353-.008.7,0,1.033a6.459,6.459,0,0,1-.145,1.909.107.107,0,0,1-.021.041l-.519.657-.083.89.706,1.017a.13.13,0,0,1,0,.146l-.706.979v.877a.128.128,0,0,1-.023.075l-.738,1.008.046.847.263.384.4.589a1.416,1.416,0,0,1-.276,1.419,1.259,1.259,0,0,0-.293.658l.559.708a.129.129,0,0,1,0,.148l-.679,1.009v1.806l.728.988a.132.132,0,0,1,.023.074v1.846l.738,1.015a.128.128,0,0,1,.022.086c0,.113,0,.225,0,.338a1.2,1.2,0,0,1-.094.682c-.932,1.35-.932,1.35-.06,2.555a.421.421,0,0,1,.019.31.659.659,0,0,0-.014.1.137.137,0,0,1-.018.058,2.379,2.379,0,0,1-.249.31.931.931,0,0,0-.34.74,1.627,1.627,0,0,1-.5,1.3,3.814,3.814,0,0,0-.255.331v.861l.711.988a.135.135,0,0,1,0,.147c-.2.283-.421.54-.632.788a5.162,5.162,0,0,0-.738,1,7.077,7.077,0,0,0-.112,1.646,5.28,5.28,0,0,1-.117,1.475.1.1,0,0,1-.021.042l-1.359,1.726v1.866l.669.947a.128.128,0,0,1,0,.145l-.714,1v.86a.128.128,0,0,1-.022.073l-.764,1.065v1.768a.126.126,0,0,1-.021.07l-.68,1.017c-.038.918-.032,1.818-.026,2.688.008,1.067.012,2.077-.056,3.081a.127.127,0,0,1-.025.067l-.581.736a4.329,4.329,0,0,0,.056,2.223l1.046,1.129a.776.776,0,0,1,.213-.032,1.247,1.247,0,0,1,.851.545,1.976,1.976,0,0,0,.612.516,1.5,1.5,0,0,1,.525-.08c.129,0,.261.01.4.019s.276.02.412.02a1.59,1.59,0,0,0,.757-.162,1.421,1.421,0,0,1,1.1-.821,1.156,1.156,0,0,1,.313.047.081.081,0,0,1,.038.024l.792.875h1.436l.769-.909a.08.08,0,0,1,.059-.029h1.5a.08.08,0,0,1,.059.029l.769.909h1.435l.773-.855a.071.071,0,0,1,.056-.026h1.548a.074.074,0,0,1,.06.03c.332.406.514.629.66.629s.328-.223.661-.628a.076.076,0,0,1,.059-.031.083.083,0,0,1,.056.026l.8.861H256.2l.77-.91a.077.077,0,0,1,.058-.03h1.5a.075.075,0,0,1,.059.03l.77.906h1.435l.773-.852a.078.078,0,0,1,.056-.026h1.495a.077.077,0,0,1,.055.024l.857.884h2.107c1.242,0,2.46,0,3.677-.008a.4.4,0,0,0,.182-.086c.031-.021.063-.042.094-.06l.615-.78a.08.08,0,0,1,.062-.032c.216,0,1.146.006,1.392.006.381,0,.768,0,1.156-.016h.1a.745.745,0,0,1,.653.274l.5.631.747-.86a.076.076,0,0,1,.058-.029h.731a.076.076,0,0,1,.058.029l.77.9h1.434l.8-.85a.074.074,0,0,1,.055-.026.076.076,0,0,1,.061.032l.564.713c2.208.139,4.58.219,6.515.219a16.074,16.074,0,0,0,3.6-.223,1.387,1.387,0,0,1,1.087-.811,1.127,1.127,0,0,1,.315.047.075.075,0,0,1,.038.024l.77.86.671.047.777-.917a.072.072,0,0,1,.116,0l.756.886h2.2l.773-.849a.077.077,0,0,1,.056-.026h3.022a.073.073,0,0,1,.055.025l.862.887a3.453,3.453,0,0,1,.365-.013c.153,0,.308.006.45.011s.288.01.424.01a2.412,2.412,0,0,0,1-.172l.566-.717a.078.078,0,0,1,.061-.031.073.073,0,0,1,.056.025l.8.861h2.193l.759-.892a.081.081,0,0,1,.059-.03.076.076,0,0,1,.058.029l.755.883h2.2l.8-.846a.072.072,0,0,1,.055-.026.078.078,0,0,1,.061.033l.577.73c.031.016.062.036.094.055a.414.414,0,0,0,.188.081q1.78.008,3.563.007,1.845,0,3.688-.008a.387.387,0,0,0,.179-.091c.032-.022.063-.045.1-.064l.568-.719a.076.076,0,0,1,.061-.032.077.077,0,0,1,.056.026l.8.86h65.837l.77-.91a.076.076,0,0,1,.058-.029h.737a.079.079,0,0,1,.058.028l.77.9h2.2l.8-.846a.074.074,0,0,1,.116.007l.577.731c.031.016.063.036.1.055a.426.426,0,0,0,.187.081q1.965.006,3.933.006,2.043,0,4.082-.007a.394.394,0,0,0,.178-.091c.032-.023.064-.045.1-.064l.529-.67a.078.078,0,0,1,.052-.03l.267-.039a7.652,7.652,0,0,1,1.1-.11,2.543,2.543,0,0,1,1.236.286.1.1,0,0,1,.027.024l.535.678h2.984l.759-.89a.073.073,0,0,1,.116,0l.721.82.741-.783a.076.076,0,0,1,.055-.025.081.081,0,0,1,.059.028c.516.6.8.92,1.035.92.184,0,.374-.175.733-.565a1.236,1.236,0,0,1,1.007-.446h.114a.083.083,0,0,1,.055.027l.811.915h.667l.771-.908a.078.078,0,0,1,.059-.03h.739a.077.077,0,0,1,.059.029l.77.893h1.468l.085-.11c.069-.09.13-.168.194-.24a1.421,1.421,0,0,1,.884-.621,1.262,1.262,0,0,1,.815.579c.151.172.257.3.34.3a.135.135,0,0,0,.074-.026l.574-.727a.073.073,0,0,1,.117-.005l.794.873h2.186l.772-.888a.073.073,0,0,1,.057-.029.075.075,0,0,1,.058.029l.752.866h4.487l.8-.837a.076.076,0,0,1,.054-.025.08.08,0,0,1,.062.032l.669.847a1.475,1.475,0,0,1,1.179-.957,1.13,1.13,0,0,1,.32.05.083.083,0,0,1,.038.024l.722.824.739-.844a.075.075,0,0,1,.058-.029h.734a.08.08,0,0,1,.058.029l.771.883h2.961l.8-.833a.081.081,0,0,1,.055-.024.075.075,0,0,1,.06.032l.686.868h1.826c1.089,0,2.206,0,3.324-.01a.363.363,0,0,0,.171-.1.4.4,0,0,1,.085-.059l.54-.688a.078.078,0,0,1,.053-.031l.777-.086a.075.075,0,0,1,.058.029l.816.929h10.59l.781-.911a.079.079,0,0,1,.058-.03h.734a.076.076,0,0,1,.058.029l.771.884h88.168l.772-.83a.076.076,0,0,1,.056-.026H554a.08.08,0,0,1,.039.011,1.447,1.447,0,0,1,.392.422c.119.169.212.3.357.3a.343.343,0,0,0,.1-.019l.563-.713a.072.072,0,0,1,.06-.031h6.122a.077.077,0,0,1,.058.028l.771.881h3.72l.771-.886a.079.079,0,0,1,.059-.028.072.072,0,0,1,.057.028l.748.86h6.016l.845-.908a.076.076,0,0,1,.056-.026h.005c.188.015.375.02.56.02.223,0,.446-.007.663-.015s.431-.015.643-.015a4.661,4.661,0,0,1,1.186.126.078.078,0,0,1,.041.027c.488.571.746.869,1,.869s.536-.319,1.058-.927a.075.075,0,0,1,.115,0l.791.878h.663l.77-.881a.077.077,0,0,1,.058-.028.075.075,0,0,1,.056.027l.714.792.716-.764a.075.075,0,0,1,.055-.026h1.5a.072.072,0,0,1,.053.024l.969.965a1.476,1.476,0,0,1,.643-.127c.129,0,.262.01.389.02s.254.02.379.02a1.284,1.284,0,0,0,.718-.182l.576-.73a.078.078,0,0,1,.061-.031h3.067a.072.072,0,0,1,.057.028l.772.885h2.2l.78-.909a.076.076,0,0,1,.057-.029h.731a.078.078,0,0,1,.058.029l.772.879h6.779l.8-.827a.067.067,0,0,1,.054-.025.077.077,0,0,1,.059.029c.485.573.772.9,1.029.9s.541-.318,1.064-.929a.076.076,0,0,1,.059-.028h2.3a.079.079,0,0,1,.059.028l.771.888h.669l.779-.91a.079.079,0,0,1,.059-.028h.729a.076.076,0,0,1,.057.028l.773.877h9.07l.8-.828a.077.077,0,0,1,.055-.024.075.075,0,0,1,.061.031l.684.866h2.259c.828,0,1.672,0,2.515-.01a1.405,1.405,0,0,0,.453-.115c.063-.024.131-.048.2-.068l.552-.7a.08.08,0,0,1,.062-.032.077.077,0,0,1,.057.028l.76.85,1.786-2.384v-3.776l-1.18-1.276a.946.946,0,0,0-.117-.04c-.869-.236-.905-.281-1.02-1.534L630,924.6a.123.123,0,0,1-.02-.071v-1.232a2.861,2.861,0,0,1,.424-1.227.682.682,0,0,0,.152-.54l-.56-.709a.131.131,0,0,1,0-.148l.67-.987.032-.89a.12.12,0,0,1,.023-.07l.748-1.009v-1.846a.128.128,0,0,1,.022-.073l.735-1.014c.006-.1,0-.205,0-.308a1.216,1.216,0,0,1,.1-.682C633.247,912.446,633.247,912.446,632.373,911.235Zm-2.32,2.755a.125.125,0,0,1-.025.077l-1.454,1.841v2.834a.12.12,0,0,1-.023.075l-.722.979v7.621l.728,1.048a.133.133,0,0,1,.02.086c-.011.117-.015.232-.015.344a1.478,1.478,0,0,1-.109.672,8.918,8.918,0,0,1-.712,1.028c-.091.12-.18.236-.263.35a.082.082,0,0,1-.064.036h-.793l-.811.929a.075.075,0,0,1-.057.028l-.778-.086a.076.076,0,0,1-.053-.032l-.445-.563-.072-.1a1.253,1.253,0,0,1-.108-.08.382.382,0,0,0-.171-.1c-.734-.009-1.468-.009-2.179-.009H620.5l-.68.86a.076.076,0,0,1-.061.032H618.2a.076.076,0,0,1-.056-.026l-.772-.829h-1.435l-.748.861a.075.075,0,0,1-.057.028.077.077,0,0,1-.058-.028l-.772-.886h-6.77l-.794.876a.072.072,0,0,1-.056.027.075.075,0,0,1-.06-.032l-.561-.712a.139.139,0,0,0-.089-.043c-.08,0-.188.124-.352.317a1.242,1.242,0,0,1-.8.561,1.424,1.424,0,0,1-.879-.618,2.949,2.949,0,0,1-.2-.243l-.086-.11h-7.578l-.772.889a.077.077,0,0,1-.058.028h-1.5a.077.077,0,0,1-.058-.028l-.78-.91H589.2l-.772.875a.079.079,0,0,1-.058.028h-2.306a.079.079,0,0,1-.061-.032l-.2-.258-.373-.48a1.349,1.349,0,0,0-.714-.178,4.241,4.241,0,0,0-.519.042c-.135.015-.268.032-.4.037l-.591.749a.078.078,0,0,1-.034.026,2.11,2.11,0,0,1-.834.146c-.127,0-.258-.006-.383-.012s-.25-.012-.376-.012a2.026,2.026,0,0,0-.65.086h-.021a.074.074,0,0,1-.056-.026l-.9-.986h-2.2l-.755.874a.077.077,0,0,1-.058.028.075.075,0,0,1-.057-.028l-.773-.891h-6l-.794.868a.078.078,0,0,1-.057.026.076.076,0,0,1-.06-.032l-.649-.821-1.37-.086-.859.877a.073.073,0,0,1-.055.024.078.078,0,0,1-.055-.025l-.771-.814h-3.724l-.757.882a.073.073,0,0,1-.116,0l-.76-.893h-3.719l-.8.86a.073.073,0,0,1-.117-.007l-.648-.82-1.373-.086-.85.872a.067.067,0,0,1-.031.019l-.039.019a.6.6,0,0,1-.257.078c-.825.006-1.649.006-2.485.006H464.329a.079.079,0,0,1-.057-.027l-.828-.909h-2.963l-.77.9a.075.075,0,0,1-.058.029h-.736a.081.081,0,0,1-.059-.03l-.768-.908h-1.434l-.8.86a.078.078,0,0,1-.056.026.076.076,0,0,1-.061-.032l-.647-.819-1.376-.086-.883.909a.077.077,0,0,1-.055.024h-1.495a.074.074,0,0,1-.057-.026l-.772-.853H449.02l-.754.891a.077.077,0,0,1-.059.029.073.073,0,0,1-.058-.029l-.756-.892H445.96l-.8.854a.071.071,0,0,1-.056.025.076.076,0,0,1-.061-.032l-.647-.818-1.377-.082-.831.865a.084.084,0,0,1-.044.024l-.732.109a.075.075,0,0,1-.057-.027l-.828-.921h-8.309l-.757.892a.074.074,0,0,1-.117,0l-.755-.887h-3.756c-.53.671-.714.9-1.088.9a3.093,3.093,0,0,1-.563-.086.078.078,0,0,1-.047-.03l-.528-.668c-.031-.017-.063-.037-.094-.056a.408.408,0,0,0-.186-.087c-1.646-.007-3.291-.007-4.962-.007h-2.342l-.808.842a.069.069,0,0,1-.044.024l-.733.107a.079.079,0,0,1-.057-.027l-.826-.922h-1.434l-.759.891a.074.074,0,0,1-.058.03.078.078,0,0,1-.059-.03l-.755-.882h-3.758l-.108.146a1.524,1.524,0,0,1-1.045.827.953.953,0,0,1-.544-.2l-.524-.663a12.306,12.306,0,0,0-2.884-.188c-1.684,0-3.76.081-5.7.222l-.555.7a.083.083,0,0,1-.062.032.077.077,0,0,1-.056-.026l-.8-.865h-2.194l-.769.909a.078.078,0,0,1-.059.03h-1.485a.075.075,0,0,1-.058-.029l-.77-.9H386.4l-.8.843a.074.074,0,0,1-.054.025.076.076,0,0,1-.061-.032l-.628-.794H324.141c-.059.017-.133.127-.211.245a1,1,0,0,1-.8.585,1.24,1.24,0,0,1-.666-.246l-.555-.626-.068-.008a1.772,1.772,0,0,0-.24-.022h-4.935l-.791.929a.077.077,0,0,1-.059.029h-.739a.077.077,0,0,1-.058-.028l-.77-.892h-3c-.543.635-.853.965-1.161.965s-.588-.309-1.092-.9a4.247,4.247,0,0,0-1.115-.122c-.211,0-.418.007-.639.015s-.446.017-.673.017c-.178,0-.358,0-.539-.019l-.824.875a.072.072,0,0,1-.112,0l-.771-.85h-1.423l-.779.909a.077.077,0,0,1-.059.029h-.735a.076.076,0,0,1-.058-.029l-.771-.886h-2.96l-.8.835a.076.076,0,0,1-.054.025.077.077,0,0,1-.061-.033l-.62-.784a6.285,6.285,0,0,0-1.254-.1c-.247,0-.492.008-.742.015s-.5.014-.748.014a7.672,7.672,0,0,1-.884-.044,5.023,5.023,0,0,1-1.682,1h-.009a.079.079,0,0,1-.058-.028l-.816-.929h-.666l-.779.909a.075.075,0,0,1-.058.029h-1.495a.077.077,0,0,1-.059-.029l-.77-.881h-2.2l-.8.831a.069.069,0,0,1-.054.024.078.078,0,0,1-.061-.031l-.586-.743c-.031-.014-.062-.03-.093-.046a.492.492,0,0,0-.2-.073c-.644-.007-1.287-.007-1.943-.007h-1.527l-.816.876a.077.077,0,0,1-.056.025.074.074,0,0,1-.057-.026l-.771-.861h-4.487l-.77.882a.078.078,0,0,1-.058.029.08.08,0,0,1-.058-.029l-.747-.847h-1.475l-.394.5-.181.221a.923.923,0,0,0-.094.065.469.469,0,0,1-.261.127c-.316.011-.632.011-.959.011h-1.05a.074.074,0,0,1-.056-.026,3.028,3.028,0,0,1-.2-.233,3.667,3.667,0,0,0-.565-.575.768.768,0,0,0-.451-.166.655.655,0,0,0-.476.221,4.7,4.7,0,0,0-.374.458c-.06.08-.12.16-.188.246a.076.076,0,0,1-.061.032.075.075,0,0,1-.057-.028l-.79-.889h-1.427l-.766.887a.079.079,0,0,1-.058.028.076.076,0,0,1-.057-.028l-.793-.893h-.078a1.085,1.085,0,0,0-.894.394c-.346.376-.592.623-.85.623-.291,0-.558-.293-1.081-.9l-.1-.042a.506.506,0,0,0-.2-.066c-3.418-.006-6.834-.006-10.279-.006h-3.111l-.832.9a.079.079,0,0,1-.057.027h-1.5a.076.076,0,0,1-.058-.029l-.77-.9h-1.428l-.78.9a.076.076,0,0,1-.057.029.083.083,0,0,1-.062-.032l-1.107-1.4a.122.122,0,0,1-.026-.076v-5.791a.132.132,0,0,1,.023-.074l.718-.983v-.845l-.7-1a.133.133,0,0,1,0-.146c.071-.1.146-.19.219-.281a1.623,1.623,0,0,0,.5-1.238,1.181,1.181,0,0,1,.418-.908,2.593,2.593,0,0,0,.224-.27,7.476,7.476,0,0,0,.108-1.813c-.009-.346-.016-.7,0-1.072a.137.137,0,0,1,.022-.067,3.21,3.21,0,0,1,.227-.276,1.44,1.44,0,0,0,.408-.663,3.032,3.032,0,0,1,.854-2.008v-1.861a.13.13,0,0,1,.024-.074l.763-1.049V906.2a.129.129,0,0,1,.022-.073l.7-.976v-7.665l-.622-.787a.119.119,0,0,1-.024-.068c-.007-.1-.017-.212-.027-.329-.031-.316-.049-.634-.052-.952a1.994,1.994,0,0,0-.354-1.2c-.647-.982-.6-1.181.033-2.116a3.041,3.041,0,0,1,.192-.249l.09-.111v-3.746a.123.123,0,0,1,.023-.074l.764-1.068v-5.694a.128.128,0,0,1,.022-.073l.763-1.048V878.3a.129.129,0,0,1,.026-.076l2.829-3.582a.076.076,0,0,1,.06-.032h1.433l.34-1.44a.12.12,0,0,1,.021-.044l1.4-1.87v-.876a.125.125,0,0,1,.026-.077l1.38-1.748a3.577,3.577,0,0,0,.108-.6c.061-.5.129-1.065.649-1.25.017-.074.036-.138.052-.2a1.1,1.1,0,0,0,.057-.275c0-1.13,0-2.262,0-3.43v-.956l-.7-1.044a.133.133,0,0,1,0-.146l1.019-1.366a.081.081,0,0,1,.057-.034c.1-.008.2-.023.3-.037a3.792,3.792,0,0,1,.541-.05,1.588,1.588,0,0,1,.228.014.737.737,0,0,0,.115.009,1.265,1.265,0,0,0,.921-.688c.056-.074.113-.15.173-.224a.078.078,0,0,1,.06-.031.076.076,0,0,1,.056.026l.8.871h1.42a.077.077,0,0,1,.059.029l.816.946h8.3l.789-.889a.077.077,0,0,1,.057-.027.075.075,0,0,1,.06.032l.23.291.315.407a1.2,1.2,0,0,1,.108.086.371.371,0,0,0,.167.1c.751.009,1.505.016,2.253.016q.783,0,1.563-.013h.113c.175,0,.352.008.527.014s.349.013.523.013a3.3,3.3,0,0,0,1.037-.136l.592-.748a.077.077,0,0,1,.061-.033.074.074,0,0,1,.054.025l.8.825h7.545l.772-.874a.08.08,0,0,1,.058-.029h.728a.08.08,0,0,1,.057.029l.78.909h2.961l.808-.932a.077.077,0,0,1,.058-.028l.776.086a.088.088,0,0,1,.054.032l.53.673a.764.764,0,0,0,.565.2c.07,0,.139,0,.215-.009s.153-.008.229-.008a1.155,1.155,0,0,1,.414.065l.9-.9a.074.074,0,0,1,.108,0l.769.795H304.3l.772-.865a.075.075,0,0,1,.057-.028h.73a.076.076,0,0,1,.058.029l.78.911h8.306l.771-.888a.075.075,0,0,1,.057-.028h1.54a.079.079,0,0,1,.061.032l.335.424.219.286a1.276,1.276,0,0,0,.748.2c.124,0,.245-.008.373-.018s.255-.019.382-.019a1.479,1.479,0,0,1,.648.126l.9-.9a.072.072,0,0,1,.053-.024h.012a1.092,1.092,0,0,1,.571.435.938.938,0,0,0,.644.437.725.725,0,0,0,.286-.067l.775-.886a.076.076,0,0,1,.058-.029.075.075,0,0,1,.058.029l.772.884h65.818l.812-.93a.077.077,0,0,1,.058-.028l.777.086a.078.078,0,0,1,.053.031l.533.675a1.688,1.688,0,0,0,.815.2,3.017,3.017,0,0,0,.884-.152l.581-.735a.078.078,0,0,1,.06-.032l1.639.005a1.073,1.073,0,0,1,.4.405.959.959,0,0,0,.7.54.752.752,0,0,0,.295-.069l.771-.887a.073.073,0,0,1,.116,0l.771.886h2.951l.794-.874a.074.074,0,0,1,.056-.026.077.077,0,0,1,.061.032l.378.479.183.234a.14.14,0,0,0,.087.04c.084,0,.19-.124.356-.319a1.227,1.227,0,0,1,.8-.557,1.428,1.428,0,0,1,.884.62c.064.07.126.157.194.243l.084.108h3.76l.754-.873a.073.073,0,0,1,.116,0l.772.89h2.946l.795-.868a.083.083,0,0,1,.056-.027.079.079,0,0,1,.061.032l.563.713a2.317,2.317,0,0,0,1,.185c.14,0,.274-.005.422-.011s.3-.012.451-.012c.121,0,.244,0,.368.014l.838-.855a.073.073,0,0,1,.054-.023.076.076,0,0,1,.055.025l.772.814H421.4l.769-.9a.079.079,0,0,1,.059-.028h.736a.073.073,0,0,1,.058.029l.79.933h14.872a1.583,1.583,0,0,0,.237-.024l.068-.01.774-.87a.084.084,0,0,1,.038-.025,1.192,1.192,0,0,1,.318-.047,1.368,1.368,0,0,1,1.088.8,15.7,15.7,0,0,0,3.632.229c1.91,0,4.214-.075,6.493-.211.463-.545.744-.853,1.044-.853.315,0,.62.334,1.168.974h6.05l.771-.9a.073.073,0,0,1,.057-.029h1.5a.08.08,0,0,1,.059.029l.769.909h1.46l.535-.678a.077.077,0,0,1,.028-.023c.368-.2,84.437-.287,84.913-.287a7.638,7.638,0,0,1,1.1.109l.272.039a.083.083,0,0,1,.052.031l.516.654c1.62.116,3.844.181,6.267.181,2.256,0,4.437-.057,6.145-.16l.566-.716a.076.076,0,0,1,.061-.032h1.553a.074.074,0,0,1,.056.026l.773.845H570l.77-.9a.078.078,0,0,1,.058-.028h.737a.077.077,0,0,1,.059.029l.788.932.668-.043.779-.842a.074.074,0,0,1,.117.006l.57.721c.031.018.063.041.094.062a.386.386,0,0,0,.18.086q2.49.008,4.983.008h2.261a1.128,1.128,0,0,0,.536-.448,1.141,1.141,0,0,1,.824-.556.9.9,0,0,1,.367.086.069.069,0,0,1,.028.02l.786.861h1.436l.769-.9a.078.078,0,0,1,.059-.03h2.262a.078.078,0,0,1,.059.03l.769.908h2.964l.771-.86a.075.075,0,0,1,.057-.027H595.3a.076.076,0,0,1,.061.032l.364.462.2.265a1.1,1.1,0,0,0,.643.172c.1,0,.208-.008.316-.015s.218-.014.327-.014c.049,0,.1.005.144.005.188.015.375.021.565.021s.381-.007.571-.021a1.375,1.375,0,0,1,.144-.005c.108,0,.22.007.326.014s.211.015.317.015a1.155,1.155,0,0,0,.625-.15l.589-.746a.079.079,0,0,1,.06-.032.07.07,0,0,1,.056.025l.8.855h11.361l.755-.892a.08.08,0,0,1,.059-.029.078.078,0,0,1,.058.029l.756.894h6.015l.8-.857a.077.077,0,0,1,.056-.025.081.081,0,0,1,.061.031l.6.76a3.67,3.67,0,0,0,1.109.141c.223,0,.443-.01.671-.021s.458-.022.687-.022c.154,0,.307.006.46.018a3.5,3.5,0,0,0,.383.014c.179,0,.364-.008.544-.015s.363-.016.544-.016a3.083,3.083,0,0,1,1.155.189,1.1,1.1,0,0,1,.319.981,2.007,2.007,0,0,0,.01.355l.694.972a.129.129,0,0,1,.022.073v2.91a.124.124,0,0,1-.025.077l-1.11,1.417a.077.077,0,0,1-.061.033h-.722c-.035.066-.076.132-.116.2a1.132,1.132,0,0,0-.2.472c-.022.363-.016.738-.011,1.1a12.552,12.552,0,0,1-.026,1.315.769.769,0,0,1-.732.8.833.833,0,0,1-.179-.02.429.429,0,0,0-.1-.011.562.562,0,0,0-.463.4v3.786l.7.976a.134.134,0,0,1,.022.074v1.834c.135.361.394.408.695.462a.911.911,0,0,1,.849.636.153.153,0,0,1,.007.042v.826l.765,1.078a.13.13,0,0,1,.021.073v1.808l.551.7a.116.116,0,0,1,.024.064c0,.032.011.07.018.107a.417.417,0,0,1-.012.315c-.876,1.214-.876,1.214.051,2.555a1.221,1.221,0,0,1,.1.681c-.005.113-.005.227,0,.34a.134.134,0,0,1-.023.086l-.736,1.019v3.106a.124.124,0,0,1-.033.087l-1.54,1.524V895.6a.12.12,0,0,1-.026.077l-.65.824-.068,1.736.739,1.166c.321.78-.136,1.311-.577,1.828l-.141.165c0,.1.005.212.005.324q.016.5-.014.995c-.033.423.019.63.182.735a1.072,1.072,0,0,0,.34.12,1.364,1.364,0,0,1,.34.11,2.616,2.616,0,0,1,.445.322c.06.051.122.1.184.151a.114.114,0,0,1,.041.092v1.2l1.471,1.455a.123.123,0,0,1,.032.074l.108,1.2.612.775a.122.122,0,0,1,.025.071l.073,1.86.674,1.051a.134.134,0,0,1,.019.069Z"/></g></svg>