<svg id="icon_DL" xmlns="http://www.w3.org/2000/svg" width="15.418" height="24" viewBox="0 0 15.418 24">
  <defs>
    <style>
      .cls-1 {
        fill: #26333b;
      }
    </style>
  </defs>
  <path id="パス_28012" data-name="パス 28012" class="cls-1" d="M31.442,20.237l-.088.508.149.471-.027.455.05.462-.209.439-.2.44-.05.453.242.479-.109.448.036.46-.126.446-.242.436L31,26.2l-.062.452-.173.443.064.464.136.47-.323.429.279.482-.141.446.014.459-.033.456-.163.436-.363-.272-.248-.361-.117-.471-.211-.4-.31-.317-.26-.357-.51-.154-.29-.269-.229-.362-.468-.027-.284.381.1.462-.082.452-.031.466.082.451.081.452.109.445.166.428.126.439.254.4.237.4-.094.507.318.368.134.424.027.457.274.38.056.448.282.377-.1.5.053.45.144.421.2.4L30,37.6l.166.413-.158.523.316.362.267.378.16.407.061.532.5-.067.343-.24.32-.3.479-.211.069-.511.424-.283.164-.44.242-.4.125-.454.289-.376-.025-.517.416-.325.062-.474.208-.414.107-.453.071-.459.222-.413.123-.447.238-.4.24-.394.168-.429.14-.441.206-.408.164-.425.166-.448.163-.473-.126-.484-.206-.468-.487.113-.451.1-.414.226-.4.261-.434.2-.4.182L33.5,29.72l.083-.449.115-.447-.242-.464.28-.44-.283-.465.257-.441-.055-.455L33.6,26.1l0-.452.113-.447-.142-.458.154-.445.186-.443L33.69,23.4l-.044-.453.316-.479.037-.5-.287-.481.117-.476-.28-.372-.231-.419L32.868,20l-.474.082-.418.24Z" transform="translate(-24.291 -20)"/>
  <path id="パス_28013" data-name="パス 28013" class="cls-1" d="M37.563,43.678c-.455.024-.911.043-1.365.087-.162.016-.4.157-.559.111l-.479-.133-.479-.034-.48.015-.476.141-.45-.008-.453-.119-.447.075-.446.113-.451-.037-.449.006a7.492,7.492,0,0,1-3.19-.15l-.487-.035a4.166,4.166,0,0,1-1.979-.162.455.455,0,0,1-.176-.111,2.131,2.131,0,0,1-.187-1.146l-.1-.451-.08-.454-.055-.455-.023-.458-.052-.456.072-.463.03-.46-.218-.448-.085-.455.106-.463-.037-.458.128-.464-.194-.45.009-.459-.023-.458.051-.461-.076-.455-.015-.458-.156-.45.084-.5.683.121.332-.038.061.388a22.822,22.822,0,0,1,.191,2.482,37.355,37.355,0,0,0,.112,4.178c.019.116.132.325.132.425l0,.532.033.536.266.506.418.139.421.087.409.117.418.1.428.048.441.082.445.02.441.076.451-.1.441.109.448-.061.443-.016a2.7,2.7,0,0,1,.467.033,11.832,11.832,0,0,0,1.294.028,8.289,8.289,0,0,0,1.379-.067,3.8,3.8,0,0,1,.652-.117l.517.073.452-.123.467.038.468.052a8.725,8.725,0,0,0,1.173-.151l.123-.528a16.233,16.233,0,0,0,0-3.5c0-.244.008-.489.029-.732.011-.133.027-.266.034-.4A5.856,5.856,0,0,0,38.39,36.2c-.029-.145-.175-.3-.179-.444l.043-.476-.177-.45.161-.489a3.7,3.7,0,0,1-.144-1.016c0-.284-.013-.568-.024-.852L37.993,30.5a6.076,6.076,0,0,0-1.617.025l-.512.027-.5.157-.53-.159-.491.077-.486.165-.5-.074a13.071,13.071,0,0,1-3.579.092.171.171,0,0,1-.092-.024.161.161,0,0,1-.048-.12c-.044-.4-.077-.583.207-.863l.451-.088c.577-.082,1.249.024,1.856-.058a8.511,8.511,0,0,0,1.8-.027l.446-.078.448.011.449.043.449.066.444-.162.467.09a5.485,5.485,0,0,1,2.1-.1.306.306,0,0,1,.339.3c.3,1.478-.038,3.008.271,4.489l.056.469.022.474.018.475.166.454-.078.4.028.389.092.391.041.487-.078.489.047.488-.15.492a4.273,4.273,0,0,1,.045,1.465l.008.447a13.275,13.275,0,0,1,0,1.795.58.58,0,0,1-.087.365.559.559,0,0,1-.356.157A13.9,13.9,0,0,1,37.563,43.678Z" transform="translate(-24.291 -20)"/>
</svg>
