<svg xmlns="http://www.w3.org/2000/svg" width="1042.541" height="568" viewBox="0 0 1042.541 568">
  <defs>
    <style>
      .cls-1 {
        fill: #fff;
        fill-rule: evenodd;
      }
      @keyframes ani02 {
    0% {
        transform: translate(1320.296px, 200.825px);
        
    }
    50% {
        transform: translate(1320.296px, 215px);
    }
    100% {
        transform: translate(1320.296px, 200.825px);
    }
}

#baloon {
    animation: ani02 2s ease-in-out infinite;
}

    </style>
  </defs>
  <g id="kinoko-baloon" transform="translate(-409.296 -111.825)">
    <g id="baloon" transform="translate(1334.296 111.825)">
      <path id="パス_28411" data-name="パス 28411" class="cls-1" d="M2453.168-210.463l-.2-.81h-.2l-.2-1.418h-.2l-.608-.81a4.423,4.423,0,0,0-2.836.608l-.2.4h-.608l-.405.608h-.405v.2h-1.013v.2h-.608l-.2.405h-.405l-.405.608h-.608v.2h-.608v.2l-.81.2v.2h-.405l-.405.608h-.2l-.2.608h-.405l-.405.608h-.405l-.405.608h-.405l-.608.81-1.013.2-1.215,1.418-.608.2-.405.608h-.405v.2h-.405v.2l-2.228-.2s-.037.168-.405.2h-1.215a4.451,4.451,0,0,0-2.026,2.026h-3.444v.2h-.811c-.418-.072-.586-.554-1.215-.405v.2h-.608v.2l-2.228-.2v.2h-.405v.2h-1.013v.2h-.81v.2h-.607v.2H2416.5v.2h-.405v.2h-1.013v.2h-.405v.2h-.608l-.405.608h-.607v.2l-.81.2c0,.518-.225,1.7-.2,1.823h.2v.81h.2v.608h.2l.2,1.621h.2v.405h.2v.405l.405.2.405,1.215h.2v.4h.2c.174.491-.211,1.32-.2,1.418h.2v.608l.405.2q.2.911.405,1.823l.405.2.2.405h.405v.2h1.013v-.2l.81-.2,1.013-1.215.608-.2v-.405l.608-.405v-.405l.405-.405h.405l.2-.405h.405l.405-.608,1.013-.2v-.2l.608-.2c.227-.876.911-1.06,1.418-1.621l.2-.608,1.013-.608c.864-.794.8-1.672,2.431-1.823q-.1.608-.2,1.215h-.2v1.013h-.2v.405h-.2v.81h-.2v.608h-.2l-.2,1.621h-.2v.4h-.2v1.013l-.405.2v.405h-.2v.405h-.2v1.215h-.2v.608l-.405.2v.405h-.2l.2.81h-.2v.81h-.2l-.2.81h-.2v.81h-.2l-.2.81-.81.608-.2,2.431h-.2v.608h-.2v.4h-.2v1.621h-.2v.405l-.405.2v.405h-.2v.81h-.2v.608h-.2v.608h-.2v.608h-.2v.608h-.2l-.2,1.215h-.2c-.017,1.89.184,1.38.81,2.431h1.823v.2h.405v.2h1.621v.2c1.322.375,3.151-.444,3.849-.81l.405-1.418h.2q-.1-1.62-.2-3.241h.2v-1.621h.2l-.2-1.621h.2v-1.215h.2v-.81h.2v-2.431l.405-.2-.2-1.013h.2v-2.431h.2v-.405h.2v-.81h.2v-3.646h.2v-1.418h.2v-1.418h.2v-.405h.2v-1.013h.2v-.4h.2v-1.013h.2c.168-.679.513-.888,1.215-1.013.23-.227,0-.087.405-.2l.608.81h.2c.271.42-.011.871.2,1.418h.2q.1.4.2.81l.4.2v.405h.2v.608h.2l.2.81h.2v.608h.2l.405,1.215h.2v.405h.2v.608l.405.2.2.608h.2l.608,1.823.405.2v.608h.2l.2.81h.2l.608,1.823h.2v.405h.2v.608h.2v.405l.405.2v.405l.405.2v.81l.607.405.608,1.823.405.2v.405h.2q.2,1.114.405,2.228h.2a1.707,1.707,0,0,1,.405.81c1.328-.007,1.393.114,2.026-.608h.2V-174l.405-.405h.405l.2-.405h.405v-.2l.81-.608v-.405l.405-.405h.405l.2-.405c.587,0,.658-.077.666-.695a9.893,9.893,0,0,0-.1-1.329,1.285,1.285,0,0,0-.111-.446c-.131-.248-.422-.408-.475-.684-.024-.127.007-.258-.014-.386a3.389,3.389,0,0,0-.159-.414,4.441,4.441,0,0,1-.058-.592,5.84,5.84,0,0,0-.487-1.123c-.166-.419-.171-.612-.675-.612-.6-.438-.188-.939-1.215-1.215a3.1,3.1,0,0,0-.81-1.621h-.405l-.2-.405h-.2l-.608-2.026-1.418-1.215V-190l-.405-.2-.2-.81-.811-.608v-.405l-.405-.2-.405-1.823-.81-.405-.2-.81-1.621-1.418v-.405l-.608-.2-.405-1.215,1.013-.2v-.2h3.849v-.2h.405v-.2h2.228v-.2h.405v-.2l2.025.2v.2a5.707,5.707,0,0,0,2.633-.405,4.969,4.969,0,0,1,2.229.2,4.008,4.008,0,0,1,1.215-1.418q-.1-1.62-.2-3.241h-.2c-.236-.88.387-1.42,0-2.431h-.2v-.405h-.2c-.193-.546.231-1.9.2-2.025h-.2v-.405h-.2v-.608h-.2v-.405Zm-26.987,13.031-.064.022c-.328.123-.247.184-.45.506-.259.412-.785.456-1.061.823l-.608.81c-.617.421-.734.037-1.215.81h-.405c-.2.781-.738.94-1.216,1.418l-1.215,1.418h-.406l-.2.4-1.216.405v.2a1.431,1.431,0,0,1-1.013.405l-.2-1.215-.405-.2v-.608h-.2q-.1-.911-.2-1.823h-.2v-.405l-.405-.2-.2-2.633h.2c.4-1.251.812-.215,1.823-.608v-.2h.405l.405-.608h1.216v-.2h.81v-.2h1.621v-.2l.81.2v.2c.484.151.786-.234,1.013-.2,0,.067,0,.135,0,.2a6.682,6.682,0,0,0,2.277,0,7.221,7.221,0,0,1,.851-.207,6.086,6.086,0,0,0,1.742-.222.19.19,0,0,1,.1-.018.126.126,0,0,1,.086.146.341.341,0,0,1-.092.161,3.04,3.04,0,0,1-.639.558,4.242,4.242,0,0,0-.531.359,4.781,4.781,0,0,1-.458.446A2.484,2.484,0,0,1,2426.181-197.432Zm2.315,11.868c0,.405-.041.625-.041,1.03h-.2v1.013h-.2v1.215h-.2l.2,1.013h-.2v.405h-.2v1.418h-.2v1.621h-.2q.1,1.215.2,2.431h-.2v.405h-.2q-.1,2.127-.2,4.254h.2c-.079.654-.184.592-.405,1.013l-2.633.2v-.2h-.607v-.2h-.2a2.572,2.572,0,0,1,.2-1.013h.405l-.2-1.013h.2v-.4h.2v-1.013h.2V-174h.2v-.608h.2v-1.013h.2v-.405h.2v-.608h.2v-1.215l.405-.2v-.405h.2v-.81h.2v-.405l.405-.2v-.405h.2q.1-1.013.2-2.026h.2v-.405h.2l.2-1.215h.2v-.405h.2v-.608c.068,0,.106-.364.174-.364,0-.405.095-.52.095-.925.067,0,.193-.925.261-.925,0-.067.746-3.444.746-3.511.067,0,.361-.739.429-.739,0,.135-.725,3.735-.725,3.87.068,0-.233,1.139-.166,1.139Zm4.444-12.277a.763.763,0,0,1-.118.03c-.11.018-.223.007-.332.031-.09.019-.174.061-.262.087a.757.757,0,0,1-.821-.307,1.477,1.477,0,0,1-.178-.6l-.094-.636a1.072,1.072,0,0,1-.005-.433c.073-.276.346-.444.6-.583.3-.169.515-.161.593-.484a.936.936,0,0,0,.427-.168.889.889,0,0,0,.713.153,1.307,1.307,0,0,1,.393-.077.5.5,0,0,1,.377.281,1.435,1.435,0,0,1,.127.471,2.615,2.615,0,0,1-.055,1.367.611.611,0,0,1-.412.4C2433.543-198.243,2433.252-197.947,2432.94-197.841Zm6.048,4.191.405.2v.405h.2v.608l.608.4.2.81,1.013.81v.81h.2v.405l.811.608.2.608.608.405.2,1.013.81.608.2,1.013.405.2.2.81c1.234.342.355.4.81,1.215l1.62,1.215v.405l.405.2.2,1.013h.2v1.215h-.2l-1.215,1.62v.2h-.608a5.558,5.558,0,0,0-.81-1.621v-.405l-.405-.2-.2-1.013-.81-.608-.405-1.418-.405-.2-.406-2.228-.607-.2-1.013-3.038-.405-.2-.2-.81h-.2l-.2-.608-.405-.2v-.608h-.2v-.405h-.2l-.2-1.013h-.2v-.608h-.2v-.405h-.2c-.073,0-.347-1.12-.591-1.212a7.249,7.249,0,0,0-.92-2.278c-.049-.116-.067-.3.056-.322a5.553,5.553,0,0,1,1.223,1.519C2438.573-194.52,2438.732-194.051,2438.988-193.65Zm13.167-9.115-.2.81-.81.2v.2a.53.53,0,0,1-.607-.2h-.81v.2l-1.013-.2v.2c-.533.038-1.133-.708-2.026-.405v.2h-.405v.2h-2.431a4.408,4.408,0,0,1-2.229.405v-.2h-1.215v.2a10.618,10.618,0,0,1-3.646-.2l-.2-.2,1.621-1.418v-.405c.413-.519.718.022,1.013-1.013l.811-.2v-.2h.607l.81-1.013h.405l.405-.608h.405l.2-.405h.406l1.013-1.215h1.013l.608-.81.81-.2.2-.405h.608a6.326,6.326,0,0,0,2.431-1.418c.654.079.592.184,1.013.405a17.768,17.768,0,0,0,1.013,5.064v2.025h.2l.2.608Z" transform="translate(-2348.644 397.352)"/>
      <g id="グループ_4824" data-name="グループ 4824">
        <path id="パス_28412" data-name="パス 28412" class="cls-1" d="M2427.062-999.041l-.012.2,2.224.129q-.006.1-.012.2l.809.047-.012.2.607.035-.012.2.607.035-.012.2.8.249-.012.2c.9.395,2.336.012,3.045-.026a4.519,4.519,0,0,0,.155.821l-.2-.012q-.024.4-.047.809l-.2-.012-.475,1.19-.618.167c-.322.717-.382,1.673-.748,2.391l-.2-.012-.249.8-.2-.012q-.024.4-.047.809l-.2-.012c-.06,1.635.558,1.507,1.072,2.5l3.854.021-.012.2.809.047q-.028,2.23-.056,4.461l-.2-.012-.284,1.4c-.22,2.088-.036,4.728-.578,6.459q-.023.4-.047.809l.2.012q-.112,1.921-.223,3.842l-.2-.012q-.077,1.314-.153,2.629l-.2-.012q-.053.91-.106,1.82a6.426,6.426,0,0,0-.581,3.01l.2.012q-.029.506-.059,1.011l.2.012c.148.667-.338,1.271-.3,1.606l.2.012-.059,1.011.2.012-.379,3.022-.2-.012.167.618q-.135,2.325-.271,4.651-.04,2.432-.08,4.865l.167.618-.2-.012q-.024.4-.047.809l-.2-.012q.042,1.017.085,2.034l-.2-.012q-.082,1.416-.165,2.831a.547.547,0,0,0-.237.6l.2.012q-.154.9-.308,1.808l.167.618c-.035.271-.362.483-.261,1a13.755,13.755,0,0,1-.056,4.461l-.2-.012q-.07,1.213-.141,2.427c-.069.278-.226-.1-.214.191l.2.012q-.03.506-.059,1.011l.2.012-.308,1.808c.347,1.6-.421,3.971-.127,5.674l.2.012-.249.8q.025,1.32.05,2.641l-.25.8.2.012q-.023.4-.047.809l.2.012q-.036.607-.071,1.213l.2.012q-.035.607-.071,1.213l.2.012q-.082,1.416-.165,2.831l-.2-.012c-.063,1.078-.735,10.258-.8,11.337l-.2-.012q-.053.91-.106,1.82l-.2-.012-.024.4-.2-.012a2.586,2.586,0,0,0,.12,1.427l.2.012q-.088,1.517-.176,3.033l-.4-.024c.088.817-1.247,15.824-1.159,16.641l-.2-.012-.76,2.593.2.012.334,1.237.2.012c.266.9-.453,3.093-.628,3.819l.929,1.474a2.644,2.644,0,0,0,2.057-.489,55.344,55.344,0,0,0,.329-5.662l.32-2.01c-.052-.249,1.048-15.919,1.136-16.236.529-1.909.481-4.791.614-7.066.055-.943.72-9.989.774-10.932l.2.012q-.007-1.624-.014-3.247l.2-3.438-.2-.012.023-.4-.2-.012c-.056-.344.213-.346.226-.393q.064-1.112.129-2.224l-.2-.012q.03-.506.059-1.011l-.2-.012q.07-1.213.141-2.427l-.2-.012c-.213-.99.579-1.958.534-2.2l-.393-.226q.088-1.517.176-3.033c.144-2.471-.029-5.8.661-7.875q.036-.606.071-1.213l-.2-.012a14.463,14.463,0,0,1,.473-4.639q.022-2.129.044-4.258a4.609,4.609,0,0,0,.32-2.011l-.2-.012q.137-.6.273-1.2-.037-1.118-.073-2.236.071-1.213.141-2.427a.515.515,0,0,0,.238-.595l-.2-.012-.155-.821.2.012q.018-.3.035-.607l.416-.179c.06-.191-.637-1.536-.263-2.45l.2.012q.012-.2.024-.4l.2.012a3.078,3.078,0,0,0-.108-1.63l-.2-.012.273-1.2c-.191-.987.153-2.6.021-3.854l-.2-.012c0-.068.008-.135.012-.2l.2.012.51-1.8.2.012c.149-.473-.329-1.973-.038-2.843l.2.012c.179-.547-.124-.968-.132-1.225l.249-.8a11.443,11.443,0,0,1,.033-4.056l.2.012q.16-1.005.32-2.01l-.2-.012q.053-.91.106-1.82l.2.012.272-1.2.2.012c.165-.621-.655-.848-.31-1.641l.416-.179q.024-.4.047-.809l-.2-.012a6.572,6.572,0,0,1,.39-3.224q.012-.2.024-.4c.244-.325,2.34-.06,2.854-.24l.012-.2.4.023.226-.393.4.024c.365-.228.553-.707,1.07-.952q-.071-.512-.143-1.023l-.2-.012.082-1.416-.2-.012-.334-1.237-.2-.012-.156-.821-.393-.226q-.077-.41-.155-.821l-.393-.226q-.066-.613-.132-1.225l-.2-.012c.086-1.009.219-.832.88-1.166l.012-.2.821-.155q.012-.2.024-.4l.2.012,1.082-1.154.4.023.654-.774.4.024,1.082-1.154.4.023,1.082-1.155.416-.179c.008-.135.016-.269.024-.4l.416-.179.023-.4,1.272-.94q.023-.4.047-.809l1.047-.548q.011-.2.023-.4l.844-.56q.012-.2.024-.4l.416-.179.238-.6.2.012.023-.4,1.058-.75q.012-.2.024-.4l1.046-.548.261-1,.63-.369q.012-.2.024-.4l.416-.179.023-.4.416-.179.023-.4.2.012.273-1.2.2.012q.012-.2.024-.4l.416-.179.023-.4.2.012q.041-.708.082-1.415l.2.012.475-1.19.2.012q.012-.2.023-.4l.2.012.023-.4.2.012q.041-.708.082-1.415l.416-.179.083-1.416.2.012.035-.607.2.012.023-.4.2.012q.171-1.207.343-2.415l.2.012q.012-.2.024-.4l.2.012q.053-.91.106-1.82a4.517,4.517,0,0,0,.51-1.8l-.167-.618.2.012q.041-.708.082-1.416l-.2-.012q.166-1.106.332-2.213l-.2-.012q-.031-1.219-.061-2.438l-.2-.012.035-.607-.2-.012q.047-.809.094-1.618l-.773-.654.094-1.618-.2-.012.035-.607-.2-.012q-.066-.613-.132-1.225l-.393-.226q.041-.708.083-1.415l-.393-.226c.008-.135.016-.27.024-.4l-.2-.012q.03-.505.059-1.011l-.393-.226q.018-.3.035-.607l-.2-.012.023-.4-.2-.012.035-.607-.2-.012c-.069-.278.072-.024.214-.19l.011-.2-.2-.012q.018-.3.035-.607l-.393-.226q.011-.2.023-.4l-.393-.226.023-.4-.964-.868-.143-1.023-.774-.654-.155-.821-.583-.44c.008-.135.015-.27.023-.4l-.583-.44q.012-.2.023-.4l-.393-.226c-.341-.536.233-.338-.571-.642-.172-.854-.828-1.144-1.322-1.7l-1.691-2.33-1.19-.475-.179-.416c-.556-.376-.768.113-1.4-.284l-.369-.63-1.011-.059-.369-.63-.8-.249.011-.2-1.415-.082c0-.068.008-.135.011-.2l-.4-.024.011-.2-1.82-.106a4.1,4.1,0,0,0-1.8-.51l-.012.2-1.213-.071a3.737,3.737,0,0,0-1.808-.308l-.012.2-1.618-.094c0,.068-.008.135-.012.2l-2.224-.129-.012.2-.4-.024-.012.2-1.808-.308-.44.583-2.26.477c0,.067-.008.135-.011.2l-.821.155-.012.2-1.214-.071-.011.2-.4-.023-1.082,1.155-.821.155-.226.393-.4-.024-.654.773-.607-.035-.665.976a8.432,8.432,0,0,1-3.341,1.632l-.487,1.392a2.364,2.364,0,0,0-1.035.346q-.018.3-.035.607l-.2-.012-.44.583-.4-.024-.238.6-.2-.012-.023.4-.2-.012-.023.4-.63.369-.023.4-.428.381q-.012.2-.024.4l-.2-.012q-.012.2-.024.4l-.416.179q-.012.2-.024.4l-.2-.012-.713,1.785-.047.809-.416.179q-.018.3-.035.607l-.416.179-.023.4-.2-.012-.249.8-.2-.012-.07,1.213-.2-.012-.023.4-.2-.012q-.018.3-.035.607l-.416.179q-.094,1.617-.188,3.236l-.2-.012q-.018.3-.035.607l-.2-.012-.082,1.416-.2-.012q-.012.2-.023.4l-.416.179q-.19,1.511-.379,3.021l.2.012q-.029.505-.059,1.011l-.2-.012q-.07,1.213-.141,2.426l.2.012q-.018.3-.035.606l.2.012q-.082,1.415-.164,2.831l.2.012q-.023.4-.047.809l.2.012q-.018.3-.035.607l.2.012q.025,1.32.049,2.641l.2.012q-.012.2-.024.4l.2.012q-.035.606-.071,1.213l.393.226q-.012.2-.024.4l.2.012q.131,1.225.263,2.45l.2.012-.023.4.774.653q-.018.3-.035.607l.2.012-.023.4.393.226-.023.4.2.012.489,2.057,1.154,1.082.287,2.046.2.012-.023.4.583.44q-.012.2-.024.4l1.155,1.082-.012.2.4.024a5.607,5.607,0,0,0,.727,1.463l.334,1.237.2.012c.147.362-.1.591.155.821l1.19.475.167.618.2.012c.3.376.208.468.774.654.1.411-.038.172.179.416.355.361,1.175.209,1.594.5l.178.416.4.024.381.428q-.011.2-.023.4l.393.226c0,.068-.008.135-.012.2l1.225-.132.179.416.4.024-.012.2Zm-.442-2.866-.56-.844-.4-.024.012-.2-1.011-.059.012-.2-.4-.024-.179-.416-.4-.024.012-.2-.4-.024.012-.2-.607-.035c-.24-.178-.192-.781-.346-1.035l-.964-.868-.167-.618-.393-.226.023-.4-.2-.012.023-.4-.2-.012.047-.809-1.166-.879a7.877,7.877,0,0,1-1.119-1.688q.011-.2.023-.4l-.583-.44q-.066-.613-.132-1.225c-.4-.145-.176.018-.393-.226l-.2-.012.261-1-.774-.654q.012-.2.024-.4l-.393-.226.035-.607-.393-.226.023-.4-.2-.012q-.077-.41-.155-.821l-.2-.012q.023-.4.047-.809l-.2-.012.023-.4-.2-.012q.011-.2.023-.4l-.2-.012q.012-.2.024-.4l-.2-.012-.334-1.237-.2-.012q.035-.607.071-1.214l-.2-.012q.023-.4.047-.809l-.2-.012-.155-.821-.2-.012q.047-.809.094-1.618l-.2-.012q.059-1.011.118-2.022l-.393-.226q-.031-1.219-.061-2.438c.014-.05.271-.049.226-.393l-.2-.012q.036-.607.071-1.213l-.2-.012c-.268-1.172.6-3.854.877-4.616l.308-1.808.2.012.023-.4.2.012q-.06-.714-.12-1.427l.416-.179q.024-.4.047-.809l.2.012q.012-.2.023-.4l.2.012.083-1.416.2.012.035-.607.2.012q.012-.2.024-.4l.2.012.273-1.2.2.012q.011-.2.023-.4l.2.012.023-.4.416-.179c.008-.135.016-.27.023-.4l.2.012q.023-.4.047-.809l.2.012q.018-.3.035-.607l.416-.179q.024-.4.047-.809l.2.012.475-1.19.2.012q.012-.2.023-.4l.619-.167.475-1.19a5.925,5.925,0,0,0,1.879-.905q.017-.3.035-.607l.2.012.237-.595c.755-.633,1.092.3,1.486-1.131.814-.175,1.034-.75,1.879-.906q.012-.2.024-.4a3.662,3.662,0,0,0,1.474-.929l.012-.2.4.024.226-.393.4.023.868-.964.607.035.012-.2.821-.155q.006-.1.012-.2l.606.035.012-.2,1.237-.334.012-.2.809.047.012-.2.607.035.012-.2,1.618.094c0-.067.008-.135.012-.2l.607.035.012-.2,1.416.082.012-.2,3.652.009-.012.2,2.427.141-.012.2,2.224.129-.012.2,1.19.475q-.006.1-.012.2l1.225-.132-.012.2.8.249-.012.2.607.035-.012.2.4.024.179.416.8.249.179.416.4.024.179.416.4.024.179.416.2.012q-.018.3-.035.606l.393.226-.012.2.4.023.381.428q-.012.2-.024.4l.785.451q-.012.2-.024.4l.774.654-.023.4,1.345,1.3.334,1.237.774.654q-.012.2-.024.4l.2.012c.33.813-.3.866.738,1.26l.633,3.08.393.226.155.821.2.012q.077.41.155.821l.2.012q.048.916.1,1.832l.2.012-.023.4.393.226q-.012.2-.024.4l.2.012q-.041.708-.082,1.416l.393.226q-.035.607-.071,1.214l.2.012q-.018.3-.035.607l.2.012q-.018.3-.035.607l.2.012c.154.622-.367,1.072-.284,1.4l.393.226q-.118,2.022-.235,4.044l.2.012-.047.809-.2-.012c-.015.192.33.726.132,1.225l-.2-.012-.023.4-.2-.012a.549.549,0,0,0,.167.618l-.308,1.808-.416.179c-.008.135-.016.27-.023.4l-.2-.012-.639,4.021-.417.179-.059,1.011-.416.179c-.008.135-.016.27-.023.4l-.2-.012q-.023.4-.047.809l-.2-.012q-.012.2-.024.4l-.2-.012q-.023.4-.047.809l-.2-.012-.25.8-.2-.012q-.024.4-.047.809l-.2-.012q-.018.3-.035.607l-.2-.012q-.018.3-.035.607l-1.331,1.952-.4-.024c-.3.885-.817.677-1.105,1.559l-.821.155-.07,1.213-1.486,1.131q-.012.2-.024.4l-.416.179q-.012.2-.024.4l-.416.179-.023.4-1.058.75-.249.8-1.058.75-.012.2-.607-.035-.226.393-.2-.012q-.012.2-.024.4l-1.058.75q-.012.2-.024.4l-1.879.905-.439.583-.4-.024-.012.2-.63.369-.226.393-.607-.035-.44.583-.809-.047-.44.583-.607-.035c-.06.029-.213.284-.428.381q-.053.91-.106,1.82l.393.226-.023.4.2.012q-.012.2-.024.4l.393.226-.047.809.393.226.155.821.583.44q-.012.2-.024.4l.2.012c.294.613.262,1.216.715,1.665l-.238.595c-.829-.16-1.023-.993-1.987-.724q-.005.1-.012.2l-.4-.024-.226.393c-.669.246-3.942-.343-4.437-.461l.023-.4.416-.179q.036-.607.071-1.213l.844-.56.059-1.011.2.012.249-.8.2.012.25-.8.416-.179c.252-.37,0-.977.284-1.4l.2.012c.063-.875.167-1.64-.287-2.046-.34-.3-.209.188-.583-.44l-2.237.073-.011.2c-.965.223-2.428-.571-3-.783l-1.213-.071.012-.2-.4-.024.012-.2-2.225-.129.012-.2-.4-.023.012-.2-.607-.035.012-.2-.4-.024.012-.2Z" transform="translate(-2347.204 1063.472)"/>
        <path id="パス_28413" data-name="パス 28413" class="cls-1" d="M2202.563-706.084l-.188.076-.151-.376-.188.076-.6-1.5.188-.075-1.282-3.2.188-.075-1.395-2.933-2.187-5.452-.188.076-.377-.94-.188.076-.377-.94-.188.076-.566-1.955-.188.075-.528-1.316-.188.075-.453-1.128-.188.076-.642-2.143c-1.619-2.13-2.516-6.031-4.146-8.158-.438-.572-.222-1.431-.491-1.767l-.451-.037c-.458-.494-.089-1.018-.34-1.391l-.188.075-.226-.564-.188.076-.151-.376-.188.075-.679-1.692-.188.076-.452-1.128-.188.076-.151-.376-.188.076-1.282-3.2-.188.075-.377-.94-.188.075-.377-.94-.188.075-.377-.94-.188.075-.528-1.316-.188.075-.189-1.015-.188.075-.3-.752c-.008-.042.229-.167.037-.451l-.188.076-.565-.865-.188.075a.331.331,0,0,1,.037-.451l-1.168-2.369-.188.076-.3-.752-.188.076-.98-2.444-.188.076-.226-.564-.188.076-.151-.376-.188.076-.452-1.128-.188.075c-.407-.537-.165-.955-.34-1.391s-.613-.567-.716-1.241a.538.538,0,0,0-.038-.64l-.188.076-.453-1.128-.188.075-1.056-2.632a16.926,16.926,0,0,1-2.866-7.144l-1.584-3.948.188-.076-.3-.752.188-.075-.377-.94.188-.076-.151-.376.188-.076-.6-1.5.188-.075-.3-.752.188-.076-.64-1.053.188-.075-.265-1.2.677-.49.076.188,2.068-.83a12.449,12.449,0,0,0,1.427-1.882,4.171,4.171,0,0,0-1.167-1.278l-.188.076-.34-1.391-.188.076-.151-.376-.715-.15L2167-792l-.188.076-.151-.376-.451-.037-.49-.677-.978-.262-.227-.564-.188.076-.3-.752.489-.414c.012-.151.025-.3.037-.451l.677-.49.375-1.242.376-.151.975-3.01,1.165-.9-.075-.188.526-.866-.151-.376.413-.6q.018-.226.037-.451l.376-.151.6-1.769.376-.151a2.448,2.448,0,0,1,.187-1.166l.188-.076q-.095-.507-.189-1.015l.188-.076q-.057-.414-.114-.827a5.327,5.327,0,0,0,.224-1.618l.376-.151q-.038-.639-.076-1.279l.3-.339-.226-.564.3-.339-.226-.564.188-.076-.151-.376.188-.075-.151-.376.3-.339-.377-.94.188-.076-.114-.827.188-.076-.227-.564.3-.339-.226-.564.413-.6-.226-.564.3-.339-.3-.752.188-.076-.226-.564.188-.076-.528-1.316.188-.076-.226-.564.188-.076-.226-.564.188-.076-.83-2.068.188-.076-.566-1.955.188-.076-.716-1.241.188-.075-.151-.376.188-.075-1.358-3.384.188-.076-.114-.827.188-.076-1.621-3.5-.188.076-.642-2.144-.188.075-.3-.752-.188.075-.6-1.5-.188.076-.828-.977-.188.076-.528-1.316-.188.076-.151-.376-.451-.037-.3-.752-.451-.037-.226-.564-.188.076-.151-.376-.188.075-.3-.752-.188.076-.226-.564-.188.075-.151-.376-.188.075-.377-.94-.188.075-.151-.376-.188.076-.3-.752-.188.076-.151-.376-.451-.037-.151-.376a2.666,2.666,0,0,1-1.318-1.654c-1.073.269-.815-.055-1.505-.487l-1.242-.375-.151-.376-.451-.037-.151-.376-.715-.15-.075-.188-.376.151-1.919-.976-.376.151-.6-.413-.376.151-.339-.3-.564.226-.339-.3-.376.151-.075-.188-.376.151-.076-.188-.564.226-.339-.3-.376.151-.075-.188-.752.3-.339-.3-.376.151-.075-.188-.376.151-.075-.188-.94.377-.076-.188-.752.3-.075-.188-.376.151-.075-.188-2.444.981.075.188-.752.3-.075-.188a13.307,13.307,0,0,0-4.249,1.923l-1.316.528.075.188-.564.226.075.188c-.523.422-1.3.236-1.579.415l.075.188-.94.377.075.188-1.8.942.075.188-.376.151.075.188-.188.076-.075-.188-.752.3-.075-.188a4.192,4.192,0,0,1-.677.49c.138,1.064-.366.791-.939,1.468l.075.188-.376.151.075.188-.376.151-.225.527-.677.49q-.018.226-.037.451l-.865.565.3.752c-1.181,1.21-1.1,1.918-1.463,3.424l-.413.6.151.376-.413.6q.038.639.076,1.279l-.489.414-.149.715-.188.076.377.94-.188.075.151.376-.3.339.265,1.2-.188.075.226.564-.188.076c-.14.607-.171.622.152,1.467l-.489.414.528,1.316-.3.339.189,1.015-.188.076,2.112,5.264-.188.076.6,1.5-.188.076.075.188.188-.076.565.865-.188.075q.132.6.264,1.2l-.188.075,1.169,2.369.151.376-.188.075c.092.4.339.3.339.3l.754,1.88.188-.075.415,1.579.188-.075.226.564.188-.076.528,1.316-.188.076c.079.339.3.249.339.3l.377.94.188-.075,1.131,2.82.188-.075.49.677.188-.076c.318.369.059.518.038.639l.414.489.188-.076.377.94.188-.075.151.376.715.15,1.055,1.541,1.242.375.151.376.188-.076.151.376.452.037.565.865c.5.412,1.1.5,1.543,1.127l.376-.151.075.188.978.262.226.564.451.037.151.376.715.15.151.376.451.037.151.376.978.262.226.564,2.032.713.151.376.527.225.376-.151.339.3.376-.151.866.526.451.037.414.489.376-.151.527.225.376-.151.076.188.376-.151.075.188.376-.151.339.3.376-.151.866.526,2.106-.19.6.413.639-.038.076.188.376-.151.075.188.376-.151.076.188.564-.226,1.693.412a8.089,8.089,0,0,1-.073,1.994l-.188.076.453,1.128-.413.6.151.376-.188.076.453,1.128-.3.339.151.376-.188.075c-.013.138.1,1.192.34,1.391l.188-.075c.58.745.463.31,1.241.375l.075.188.564-.227.075.188.564-.226.339.3c.4-.033.579-.562.789-.753l.075.188a7.078,7.078,0,0,1,2.144-.642c.218.352.675.63.716,1.24l-.188.076.151.376-.188.076c.044.678.622.789.716,1.24l-.188.076.3.752-.188.076.377.94-.188.075.226.564-.188.075.453,1.128-.188.075.6,1.5c.178,1.649,1.4,3.9,2.075,5.715l.68,2.783.188-.076.3.752.188-.075.377.94.188-.075.377.94.188-.075,1.282,3.2-.188.076.792,1.428c.008.039-.235.169-.037.451l.188-.076.565.865.188-.075.679,1.692.188-.075.867,1.617.188-.076c.244.39-.1.873.34,1.391l.188-.076.151.376.188-.075,1.772,3.872a.528.528,0,0,0,.038.639l.188-.076.3.752.188-.075,1.168,2.368.188-.075.528,1.316.188-.075.151.376.188-.075,1.131,2.82.188-.075.151.376.188-.075.83,2.068.188-.076.151.376.188-.076.528,1.316.188-.076.679,1.692.188-.075.905,2.256.188-.075.453,1.128.188-.075.905,2.256.188-.076.717,2.332.188-.076.6,1.5.188-.075.075.188-.188.075,1.132,2.82.188-.076.226.564.188-.075.151.376.188-.076,2.414,6.016.188-.075.226.564.188-.076.905,2.256-.188.076.075.188.188-.075.226.564.188-.076c.738.9.332,1.36.981,2.444.147.246.179-.161.263.113l-.188.075.226.564-.188.076,1.056,2.632.188-.076.3.752-.188.076,1.961,4.888a13.39,13.39,0,0,0,1.2.826c.845-.37.805-.588,1.353-.979C2203.014-704.217,2203.235-705.31,2202.563-706.084Zm-40.07-80.831.075.188a3.951,3.951,0,0,1-2.67.417l-.529-2.407.3-.339q-.019-.32-.038-.639l.188-.076-.3-.752.188-.075-.151-.376.188-.075-.151-.376.3-.339-.226-.564.188-.076c0-.323-.111-.568-.114-.827a3.708,3.708,0,0,1-.79-.338l-.94.377-.075-.188-.827.114-.6-.413-.827.114-.941-.714-.376.151-.075-.188-.564.226-.075-.188-1.279.077-.075-.188-.376.151-.075-.188-.376.151-.075-.188-.564.227-.6-.413-.639.038-.151-.376-1.2.265-1.393-.751-.376.151-2.183-1.089-.978-.262-.151-.376-.715-.15-.565-.865-1.769-.6-.151-.376-.452-.037-.226-.564-1.166-.187-.829-.977-.978-.262-.151-.376-.188.076-.226-.564-.451-.037-.151-.376-.715-.15-.151-.376-.188.075-.151-.376-.188.076-.226-.564-.715-.15-.565-.865-.188.076-.829-.977-.188.076-.754-1.88-.188.075-.151-.376-.188.075-.452-1.128-.451-.037-.189-1.015-.188.076-1.433-3.572-.188.076-1.546-3.309.188-.076-.075-.188c-.133-.423-.8-.736-.792-1.428l.3-.339-1.886-4.7c-.248-.623-.345-1.465-.491-1.767-.116-.24-.515-.344-.565-.865l.188-.076-.226-.564.188-.076-.151-.376.188-.075-.3-.752.188-.075L2121.6-829l.188-.075-.3-.752.188-.075-.226-.564.188-.076-.226-.564.3-.339-.226-.564.188-.076c.088-.4.009-.308.413-.6q-.057-.959-.115-1.918l.3-.339q-.038-.64-.076-1.279l.3-.339-.264-1.2.188-.076a3.021,3.021,0,0,0,.3-1.43,4.7,4.7,0,0,0,1.577-2.6l1.052-.64c-.141-1.179.875-1.793,1.051-2.822a5.683,5.683,0,0,0,1.353-.979l2.068-.83-.075-.188.94-.377-.075-.188.752-.3.075.188,1.428-.791-.075-.188.376-.151-.076-.188.376-.151-.075-.188,2.407-.529-.075-.188a22.492,22.492,0,0,1,5-2.224l.075.188,1.015-.189.339.3.94-.377.075.188.564-.227.075.188.564-.226.6.413.752-.3.339.3.564-.226.339.3.376-.151.339.3.376-.151.075.188.376-.151.075.188.715.15.075.188.075.188.188-.076.151.376c1.1-.135,1.6.611,2.6.486l.377.94.451.037.226.564.978.262.075.188.715.15.151.376.188-.075.151.376.188-.075.226.564.451.037.565.865.451.037.49.677.188-.076.528,1.316.188-.075.151.376.188-.076.226.564.188-.075.828.977.188-.075.377.94.451.037.453,1.128.188-.076.151.376.188-.075.716,1.24.188-.075,1.358,3.384-.188.075a.538.538,0,0,0,.414.489l1.433,3.572-.188.076.227.564-.188.076,1.433,3.572-.188.076.151.376-.188.076.641,1.053-.188.076.114.827-.188.076.943,2.9-.413.6.528,1.316-.3.339c0,.49.419.43.49.677l-.188.075.226.564-.3.339.151.376-.3.339.567,1.955-.526.866.151.376-.3.339.264,1.2-.188.076.151.376-.3.339.151.376-.3.339.226.564-.188.075.151.376-.413.6.151.376-.3.339q.057.414.114.827l-.3.339.151.376-.413.6-.6,1.768-.376.151q.019.32.038.639l-.751,1.393c-.012.151-.025.3-.037.451-.457.709-.924.837-1.051,1.732l-.376.151c.081.856-.028.286-.338.79l-.15.715-.752.3.075.188-.376.151q-.019.226-.037.451c-.339.527-.407-.066-.338.79l-.489.414.075.188-.376.151q-.019.226-.037.452l-.677.49.075.188-.94.377c-.213.192.1.073-.113.263l.6,1.5.188-.076.151.376.188-.075.226.564.978.262.49.677.188-.076.3.752.188-.076.151.376.188-.076.151.376.451.037.226.564.9.074c.316.191.187.432.677.6q.019.32.038.639l-1.2.265.075.188-1.692.679C2163.315-787.056,2162.8-787.273,2162.494-786.914Z" transform="translate(-2118.928 900.37)"/>
        <g id="グループ_4823" data-name="グループ 4823" transform="translate(82.762 200.685)">
          <path id="パス_28414" data-name="パス 28414" class="cls-1" d="M2504.715-135.634c-.649-.029-1.3-.043-1.964-.034-.224,0-.452,0-.68,0,0,.132.007.265.011.4h-.2q.008.257.015.514h-.2a4.126,4.126,0,0,0,.254,1.8h.2q.055,1.928.11,3.857h-.406c.165,1.028.247,20.145.412,21.173h-.2q-.256,1.671-.513,3.343h.2l.45,1.543h.2c.35,1.125-.16,3.953-.266,4.886l1.065,1.8c1.357-.008,1.214-.209,2.006-.772.188-1.785-.18-4.7-.205-7.2q.064-1.286.129-2.571c-.076-.312-.455-20.252-.4-20.659A51.823,51.823,0,0,0,2504.715-135.634Z" transform="translate(-2501.549 135.671)"/>
          <path id="パス_28415" data-name="パス 28415" class="cls-1" d="M2520.543-100.2l-.11-.39-.2.055-.439-1.56.2-.055-.932-3.315.2-.055-1.073-3.065-1.59-5.655-.195.055-.274-.975-.2.055-.274-.975-.2.055-.353-2-.2.055-.384-1.365-.2.055-.329-1.17-.195.055q-.2-1.1-.408-2.2c-1.381-2.291-1.855-6.266-3.248-8.556a1.326,1.326,0,0,1-.167-.464q-1.093.463-2.23.919l.276.983.2-.055.658,2.34.2-.055.463,2.395.2-.055.438,1.56.2-.055.055.2-.2.055.823,2.925.2-.055.164.585.2-.055.11.39.2-.055,1.755,6.24.195-.055.165.585.195-.055.658,2.34-.2.055.055.2.2-.055.164.585.2-.055c.637.97.184,1.388.713,2.535.12.26.2-.141.25.14l-.2.055.164.585-.195.055.768,2.73.2-.055.219.78-.2.055,1.426,5.07a13.4,13.4,0,0,0,1.109.95c.88-.278.864-.5,1.45-.829-.02-.546.316-1.608-.268-2.45Z" transform="translate(-2506.414 132.493)"/>
        </g>
      </g>
    </g>
    <g id="きのこ" transform="translate(409.296 620.432)">
      <g id="きのこ-2" data-name="きのこ" transform="translate(-4501.699 -2035.764)">
        <path id="パス_28408" data-name="パス 28408" class="cls-1" d="M4711.915,2274a19.189,19.189,0,0,0-.585-2.536c-.1-.415-.157-.839-.252-1.254a3.319,3.319,0,0,0-.315-.787,21.354,21.354,0,0,0-2.306-3.67c-1.155-1.613-2.372-3.185-3.674-4.676a28.248,28.248,0,0,0-3.555-3.14c-1.062-.866-2.029-1.875-3.118-2.7-.715-.541-1.442-1.067-2.162-1.6-.608-.453-1.224-.839-1.789-1.348a2.308,2.308,0,0,0-1.216-.6,9.4,9.4,0,0,1-1.048-.036q-.124-.246-.246-.491c-.946,0-2.062-.694-3.1-.848a15.754,15.754,0,0,0-3.508-.091,20.1,20.1,0,0,0-10.825,4.136,6.427,6.427,0,0,0-.907.9l-.965,1.09a21.763,21.763,0,0,0-2.171,3.4c-1.024,1.732-2.06,3.459-3,5.24a22.62,22.62,0,0,0-2.219,4.746c-.074.3-.142.6-.209.9-.316,1.406-.685,2.81-.952,4.226a14.2,14.2,0,0,0,.119,3.794h.245v.491h.246v.982l.491.245.491,1.473h.245c-.153,0,.731.769.77.8a6.031,6.031,0,0,0,1.37.851,11.985,11.985,0,0,0,1.676.438,13.118,13.118,0,0,0,6.493.122c2.192,0,4.32-.589,6.591-.646.236-.006-.456,4.825-.456,5.309h-.245v2.454h-.246v2.454h-.246v.491h-.246q-.122,2.332-.245,4.663a28.063,28.063,0,0,0,0,4.417v1.718h.245c.1.391.083.865.471,1.01-.1.969,1.15,1.96,1.9,2.383a9.346,9.346,0,0,0,4.475,1.247c0-.008.073-.222.024-.223,2.393.014,4.084-1.439,5.237-3.452a9.743,9.743,0,0,0,1.144-5.383h.245c-.186-3.17-.833-6.277-1.3-9.433-.166-1.125-.007-2.458-.259-3.531a3.8,3.8,0,0,1-.3-1.474c.008-.119.066-1.58-.105-1.516,1.9-.709,4.977.317,7.116-.245v-.246h.246v.246h.245v-.246c0,.191,2.091-.193,2.219-.222a21.171,21.171,0,0,0,5.06-1.583,6.03,6.03,0,0,0,1.054-.617,5.434,5.434,0,0,0,.5-.768c1.23-.331.954-1,1.473-1.963h.245a2.135,2.135,0,0,1,.021-.464c.616-.171,1.069-2.749,1.122-3.406A5.4,5.4,0,0,0,4711.915,2274Zm-19.381,28.761a5.756,5.756,0,0,1-2.023,3.087,4.723,4.723,0,0,1-3.945,1.234,4.169,4.169,0,0,1-2.324-1.254c-.122-.131-1.229-2.143-.937-2.143h-.245v-.491h-.246c-.251,0,.212-5.609.307-6.232a8.559,8.559,0,0,0,.144-2.167,11.517,11.517,0,0,1,.3-2.349c.124-1.76.3-3.406.289-5.2a5.667,5.667,0,0,1,.434-1.61,9.733,9.733,0,0,0,0-2.076c1.01-.025,3.121-.267,3.682.246a5.81,5.81,0,0,1,2.555.286.526.526,0,0,1,.2.157.592.592,0,0,1,.077.226c.079.408.724,5.713.6,5.713h.246c.072.427-.246.491-.246.491l.246,1.227h-.246c.388,0,.664,5.371.7,5.816.086,1.081.139,2.168.245,3.248a9.387,9.387,0,0,1,.214,1.541C4692.557,2302.593,4692.547,2302.677,4692.534,2302.759Zm16.993-26.443q-.036.138-.078.274a2.834,2.834,0,0,1-.887,1.426c-.211.206-1.236,1.616-1.451,1.616h-.491v.245h-.491v.245h-.736a6.573,6.573,0,0,1-1,.8,5.482,5.482,0,0,1-1.75.523c-1.507.132-2.968.578-4.488.741a25.906,25.906,0,0,1-6.3-.1,57.075,57.075,0,0,0-15.358.474,27.28,27.28,0,0,1-2.746.3,8.257,8.257,0,0,1-4.592-1,8.411,8.411,0,0,1-2.975-2.414,4.792,4.792,0,0,1-.514-1.447,12.093,12.093,0,0,1,.654-5.89,33.317,33.317,0,0,0,1.029-3.527h.245q.123-.613.246-1.227h.246v-.491h.245c-.251,0,.969-2.224,1.019-2.319.483-.922.936-1.859,1.422-2.78a16.256,16.256,0,0,1,3.522-4.849c.528-.457,1.091-.871,1.653-1.285l.843-.62c.35-.258.7-.515,1.061-.757a6.056,6.056,0,0,1,3-1.38c3.747-1.481,7.587-1.647,11.134.551q.728.451,1.417.962a41.239,41.239,0,0,1,3.607,3.134l1.4,1.314c.925.869,1.851,1.737,2.743,2.64a13.325,13.325,0,0,1,2.523,2.689l.981.736v.491l.982.736q.123.491.245.982c.007.025.683.493.781.587a2.962,2.962,0,0,1,.7.88,5.851,5.851,0,0,0,.377.81c.654.963,1.605,1.791,1.857,2.993A8.627,8.627,0,0,1,4709.527,2276.316Z" transform="translate(-101.252 -214.404)"/>
        <g id="きのこ-3" data-name="きのこ" transform="translate(4501.699 2046.764)">
          <path id="パス_28409" data-name="パス 28409" class="cls-1" d="M4574.425,1998.749v-.525l1.313-1.05v-.525a6.794,6.794,0,0,0,.524-3.937H4576a13.489,13.489,0,0,0-.111-2.328c-.21-.53-.613-.945-.822-1.509a9.312,9.312,0,0,0-2.4-4.04,5.06,5.06,0,0,1-.545-.443,2.705,2.705,0,0,1-.39-.732,4.445,4.445,0,0,0-.753-1.163,10.318,10.318,0,0,0-2.21-1.671,23.085,23.085,0,0,0-1.945-1.419,3.548,3.548,0,0,1-.667-.379,4.6,4.6,0,0,0-.363-.317c-.311-.206-.73-.184-1.041-.39a3.129,3.129,0,0,1-.37-.338,11.208,11.208,0,0,0-3.36-1.839,9.789,9.789,0,0,0-8.284-.865,30.424,30.424,0,0,0-6.167,2.359,15.183,15.183,0,0,0-3.155,1.977c-.51.451-.96.97-1.512,1.369-.433.313-.941.538-1.346.89s-.6.832-1.04,1.128v.525l-.788.525c0,.784-1.123,1.712-1.657,2.323a23.8,23.8,0,0,0-2.2,3.149,9.271,9.271,0,0,0-.974,5.267c.057,1.337,1.119,2.729,1.679,3.933a3.679,3.679,0,0,0,.768,1.247c.475.407.781.294,1.074.879h.525v.263l1.05.263v.262c1.125,0,2.5,1.08,3.63,1.4a13.311,13.311,0,0,0,4.309.475c.743-.041,1.491-.142,2.232-.131a1.964,1.964,0,0,1-.2,1.41h-.262a19.894,19.894,0,0,1-.694,2.244c-.471,1.417-.649,2.913-.976,4.345-.06.262-.93,3.714-.693,3.648a.332.332,0,0,1,.243.021,8.514,8.514,0,0,0,1.188,4.373,7.207,7.207,0,0,0,2.647,2.247,9.884,9.884,0,0,0,4.846.97l.262-.525c2.608-.869,2.927-3.721,3.458-6.051a16.408,16.408,0,0,0,.435-4.827c0-2.579-.169-5.209-.292-7.788a.46.46,0,0,1,.052-.293.452.452,0,0,1,.315-.139c2.687-.4,5.466-.078,8.106-.722a17.4,17.4,0,0,0,3.552-1.374c.785-.387,1.595-1.123,2.489-1.136-.034.053.546-1.029.519-1.029Zm-32.02-15.485h.262l.262-.525h.525l.525-.787,1.575-1.312c.277-.231,1.39.179,1.647.351a1.9,1.9,0,0,1,.8,1.677,3.8,3.8,0,0,1-.729,1.861c-1.087,1.632-2.11,1.361-3.822,1.361v-.263c-1.458-.442-.311-.711-1.049-1.575Zm5.021,17.486a1.975,1.975,0,0,1-1.333-1.2,2.969,2.969,0,0,1,.984-3.163c.879-.619,2.4-1.229,3.464-.786l.263.525h.525v.525l.525.263c.021.01.042,1.535.035,1.688-.033.747-.259,1.987-1.084,1.987l-.263.525A12.977,12.977,0,0,1,4547.426,2000.75Zm9.677,8.76a6.053,6.053,0,0,1-.263,1.05h.263c0,2.364.257,5.018-.312,7.328a3.36,3.36,0,0,1-2.838,2.645v.263c-1.963.587-4.779-2.225-4.868-3.994a23.667,23.667,0,0,1,1.176-8.61,5.266,5.266,0,0,1,.5-1.36c.07-.094.57-.448.57-.472v-1.05l.525-.262v-.787h.262q.132-.394.262-.787c1.543-.013,3.6-.157,4.725.262C4557.1,2006.139,4557.174,2007.059,4557.1,2009.51Zm11.343-10.11c-.833.379-1.856.506-2.647.82a10.635,10.635,0,0,1-1.039.411,5.383,5.383,0,0,1-.964.147,17.171,17.171,0,0,0-3.287.273c-.3.092-.583.223-.883.305a7.285,7.285,0,0,1-3.116-.138,12.231,12.231,0,0,0-1.526-.032c-.418-.012-1.6-.136-1.645-.661a2.041,2.041,0,0,1,.309-.946,3.5,3.5,0,0,0,.026-2.48,10.408,10.408,0,0,0-1.163-2.247,1.272,1.272,0,0,0-.391-.448,2.322,2.322,0,0,0-.458-.16c-.552-.186-1.016-.719-1.593-.64-.932.129-1.943.047-2.938.158l-.263.525a2.218,2.218,0,0,0-1.914,1.273,5.287,5.287,0,0,0-.356,1.615l-.091.8a4.785,4.785,0,0,0-.045.788,2.4,2.4,0,0,0,.7,1.556c-.746.031-1.378-.031-2.118-.07-.163-.009-.382.118-.538.071-.321-.1-.646-.475-.885-.593-.625-.308-1.314-.479-1.935-.838a5.421,5.421,0,0,1-2.787-3.03c-.423-.476-.312-1.99-.342-2.578a9.661,9.661,0,0,1,2.266-6.024,5.284,5.284,0,0,1,1.9-1.273c-.2.088,1.083,1.613,1.159,1.739l2.887.263v-.262c0,.011,2.409-.646,2.645-.772,1.108-.59,1.278-1.612,1.817-2.641h.262v-.525h.263v-1.575c.017-.072.351-.078.262-.525h-.262c0-.46-.891-2.8-1.776-2.286a12.744,12.744,0,0,1,1.251-.6v-.263h1.05l.262-.525h1.837v-.263h.525v-.262c.953,0,1.926.058,2.877,0a7.161,7.161,0,0,1,2.361.181c.9.265,1.77.79,2.687,1.128a9.563,9.563,0,0,1,1.936.572c.373.238.634.618.99.881a6,6,0,0,0,.776.436,12.31,12.31,0,0,1,2.04,1.49,3.529,3.529,0,0,0,.814.4,5.67,5.67,0,0,1,1.872,1.64c.56.661,1.12,1.322,1.644,2.011a24.514,24.514,0,0,1,1.631,2.436c-.356-.607-2.547-.387-3.093-.151v.263l-1.05.262c-.014,0-.841,1-.95,1.115a5.06,5.06,0,0,0-1.233,3.364c-.161,1.6-.021,2.761,1.424,3.755a6.4,6.4,0,0,0,.7.4l1.4.723c.059.03.127.081.111.145-.01.039-.049.062-.084.081C4569.307,1998.86,4568.907,1999.19,4568.446,1999.4Zm5.191-3.276-.788.263-.524.787h-1.312v-.263a3.376,3.376,0,0,1-2.1-4.2h.263l.525-1.575c1.473-.332,1.4-.606,3.149-.262a4.578,4.578,0,0,0,.788,1.837Z" transform="translate(-4533.877 -1974.764)"/>
          <path id="パス_28410" data-name="パス 28410" class="cls-1" d="M4645.133,2007.519h-.525c-.477-.438-1.986-.293-2.887-.263v.263h-1.05l-.262.524a2.583,2.583,0,0,0-.415.083c-.506,1.364-1.516,2.12-1.292,3.819a4.431,4.431,0,0,0,.679,1.835c.512.785,1.167.756,1.983.981a4.713,4.713,0,0,0,2.494.139c1.506-.407,1.72-1.631,2.851-2.395v-3.412l-1.312-1.05Zm-1.848,5.475c-.75.214-1.736.442-1.827.3a1.046,1.046,0,0,0-.525-.525,4.124,4.124,0,0,0-.525-2.1c.551-.456.443-.827,1.313-1.05v-.263c1.117,0,2.458-.886,3.177.571a2.909,2.909,0,0,1,.241,1.092,1.845,1.845,0,0,1-.079.83,2.019,2.019,0,0,1-.938.866A6.365,6.365,0,0,1,4643.286,2012.993Z" transform="translate(-4615.609 -2000.069)"/>
        </g>
      </g>
    </g>
  </g>
</svg>
