<svg xmlns="http://www.w3.org/2000/svg" xmlns:xlink="http://www.w3.org/1999/xlink" width="164" height="174" viewBox="0 0 164 174">
  <defs>
    <clipPath id="clip-path">
      <rect id="長方形_1885" data-name="長方形 1885" width="164" height="174" fill="#91a577"/>
    </clipPath>
  </defs>
  <g id="olive" clip-path="url(#clip-path)">
    <path id="パス_29259" data-name="パス 29259" d="M90.968,36.793C63.75,57.588,63.648,82.919,64.352,90.7c-1.807,2.151-3.489,4.231-5.047,6.164l-.645.806a22.371,22.371,0,0,0-3.543-1.879q-.246-1.853-.545-3.841c4.257-4.577,16.309-20.576,5.736-46.18C47.993,15.951,20.067,6.612,20.067,6.612a109.387,109.387,0,0,0,4.666,46.86c8.164,24.478,23.93,36.687,27.654,39.3q.252,1.125.493,2.211C39.9,91.049,23.325,98.42,13.13,113.652c-11.862,17.72-10.6,39.37,2.829,48.356s33.924,1.9,45.784-15.815c11.446-17.1,10.666-37.852-1.462-47.362l.616-.659c1.528-1.614,3.156-3.337,4.867-5.134,5.176-.375,27.87-3.2,52.129-24.366A158.805,158.805,0,0,0,154.4,20.9s-31.734-8.329-63.432,15.891" transform="translate(1.191 1.453)" fill="#fff"/>
    <path id="パス_29260" data-name="パス 29260" d="M16.061,0l5.592,1.87c1.229.411,30.24,10.426,43.275,41.994a63.555,63.555,0,0,1,3.361,10.578A76.448,76.448,0,0,1,87.933,32.82a86.42,86.42,0,0,1,52.808-18.3,64.024,64.024,0,0,1,14.928,1.547l5.749,1.508-2.469,5.406A162.533,162.533,0,0,1,121.18,72.438C98.206,92.482,76.6,96.88,68.1,97.839l-.8.839c10.386,12.172,10.111,33.089-1.408,50.3C56.844,162.5,42.8,170.9,29.247,170.9a28.742,28.742,0,0,1-16.069-4.742C5.353,160.925.7,152.13.07,141.4c-.6-10.215,2.565-21.056,8.9-30.526C16.938,98.972,28.76,91.038,40.714,89.3A88.244,88.244,0,0,1,19.99,55.054,113.691,113.691,0,0,1,15.13,5.823ZM52.554,86.595c4.287-5.582,11.4-18.885,3.131-38.914C47.747,28.457,32.757,18.367,24.432,14.029A106.833,106.833,0,0,0,29.476,51.89,76.9,76.9,0,0,0,52.554,86.595Zm94.19-61.813c-1.719-.153-3.741-.256-6.006-.263-11.62,0-29.16,2.819-46.734,16.247C71.374,58.055,69,78.632,69.188,87.592c8.135-1.3,26.262-5.976,45.418-22.689C131.1,50.51,141.831,33.567,146.744,24.782ZM52.3,100.034l-.871-.264a19.993,19.993,0,0,0-5.805-.831c-10.1,0-21.227,6.867-28.34,17.494-5.134,7.67-7.7,16.328-7.232,24.38.441,7.534,3.526,13.585,8.687,17.04A18.53,18.53,0,0,0,29.247,160.9c10.1,0,21.228-6.866,28.34-17.493,9.93-14.834,9.758-32.688-.392-40.646l-1.048-.822-.216-.081a17.375,17.375,0,0,0-2.752-1.459Z" transform="translate(1.191 1.453)" fill="#fff"/>
    <path id="パス_29261" data-name="パス 29261" d="M104.588,39.763C72,64.66,78.282,96.065,78.282,96.065s25.6-.317,53.231-24.423A158.805,158.805,0,0,0,168.02,23.873s-31.734-8.329-63.432,15.891" transform="translate(-12.428 -1.518)" fill="#8e973b"/>
    <path id="パス_29262" data-name="パス 29262" d="M146.4,35.8a150.619,150.619,0,0,0-16.756,9.208c-2.448,1.5-5.041,3.21-7.753,5.077-2.751,1.811-5.491,3.942-8.379,6.082-2.859,2.195-5.676,4.56-8.618,7.018-1.4,1.231-2.794,2.489-4.16,3.787s-2.7,2.7-4.03,4.072c-2.621,2.779-5.231,5.533-7.74,8.3-2.539,2.744-4.982,5.485-7.323,8.154s-4.576,5.274-6.678,7.753-4.034,4.868-5.811,7.074c-3.546,4.424-6.447,8.143-8.436,10.776l-3.095,4.161.4.3s4.981-5.677,12.72-13.936c3.893-4.114,8.417-8.915,13.4-13.928s10.373-10.284,16-15.259c2.788-2.472,5.607-4.98,8.321-7.548,2.735-2.378,5.419-4.877,8.075-7.154,2.739-2.205,5.249-4.512,7.814-6.483,2.541-2,4.882-3.978,7.155-5.665,1.117-.871,2.188-1.709,3.2-2.5q1.553-1.16,2.939-2.2c1.821-1.422,3.463-2.579,4.789-3.581,2.682-1.963,4.217-3.084,4.217-3.084Z" transform="translate(-8.653 -4.008)" fill="#363d3b"/>
    <path id="パス_29263" data-name="パス 29263" d="M63.6,45.772c12.659,30.654-7.115,47.545-7.115,47.545S37.323,81.351,28.025,53.472A109.37,109.37,0,0,1,23.36,6.612S51.285,15.951,63.6,45.772" transform="translate(-2.101 1.453)" fill="#8e973b"/>
    <path id="パス_29264" data-name="パス 29264" d="M34.445,24.012a123.022,123.022,0,0,1,8.231,13.5c1.128,2.069,2.266,4.338,3.417,6.76,1.208,2.405,2.254,5.006,3.408,7.681,1.106,2.7,2.1,5.48,3.14,8.38.467,1.419.916,2.851,1.324,4.3s.75,2.942,1.092,4.417c.646,2.954,1.3,5.888,1.862,8.786.6,2.9,1.132,5.744,1.62,8.5s.926,5.423,1.325,7.95.712,4.919,1,7.126c.555,4.415.962,8.091,1.2,10.663.217,2.574.341,4.043.341,4.043l-.449.006s-1.041-5.865-2.922-14.623c-.967-4.379-2.079-9.482-3.437-14.928s-2.9-11.243-4.764-16.964c-.919-2.839-1.844-5.713-2.662-8.577-.925-2.755-1.752-5.561-2.664-8.217-1.012-2.648-1.8-5.254-2.791-7.674-.958-2.428-1.778-4.749-2.684-6.856-.426-1.062-.833-2.081-1.219-3.048q-.617-1.444-1.166-2.735c-.692-1.733-1.377-3.216-1.9-4.456-1.084-2.468-1.705-3.881-1.705-3.881Z" transform="translate(-4.243 -1.802)" fill="#363d3b"/>
    <path id="パス_29265" data-name="パス 29265" d="M61.743,166.291c-11.861,17.72-32.359,24.8-45.784,15.815S1.268,151.47,13.129,133.75s32.359-24.8,45.784-15.816S73.6,148.57,61.743,166.291" transform="translate(1.191 -18.645)" fill="#a8b45d"/>
    <path id="パス_29266" data-name="パス 29266" d="M50.026,136.437c-3.739,3.188-8.728,3.477-11.143.644s-1.343-7.714,2.4-10.9,8.727-3.477,11.143-.645,1.343,7.714-2.4,10.9" transform="translate(-4.906 -20.432)" fill="#c9d6b4"/>
  </g>
</svg>
