<svg xmlns="http://www.w3.org/2000/svg" width="131" height="80" viewBox="0 0 131 80">
  <defs>
    <style>
      .cls-1{
        fill: #fff;
      }
      @keyframes kirakirazoom3 {
        0%,100% {
        }
       50% {
          transform-origin: 13px 100px;
          transform: translate(413px,1689px) scale(0.7);
        }
      }

      #キラキラ {
        animation: kirakirazoom3 2s step-end infinite;
      }

    </style>
  </defs>
  <g id="イラスト" transform="translate(-413.357 -1698)">
    <g id="キラキラ" transform="translate(413.357 1698)">
      <g id="グループ_4852" data-name="グループ 4852" transform="translate(-332.307 -177)">
        <path id="パス_28045" data-name="パス 28045" class="cls-1" d="M441.326,208.444l.042.013a8.122,8.122,0,0,0,1.021.29,1.98,1.98,0,0,0,.956.058.983.983,0,0,0,.8-1.035c-.026-.368-.256-1.025-1.52-1.276a4.212,4.212,0,0,0-1.166-.059q-1.117-.345-2.227-.8a11.188,11.188,0,0,1-2.312-1.213,9.375,9.375,0,0,1-1.866-1.855,5.538,5.538,0,0,1-.8-1.435c-.1-.325-.184-.656-.256-.983a12.11,12.11,0,0,0-.221-1.577.972.972,0,0,0-.1-.277l-.149-.27a2.041,2.041,0,0,0-.505-.83.982.982,0,0,0-1.553,1.172l.218.392c.115.419.209.841.285,1.274.024.131.049.26.079.391.011.192.018.382.019.573a5.807,5.807,0,0,1-.7,2.178,9.409,9.409,0,0,1-1.694,2.3,5.9,5.9,0,0,1-2.24,1.414,9.143,9.143,0,0,1-2.288.386c-.258-.077-.516-.145-.768-.212-.289-.077-.579-.153-.855-.24a7.28,7.28,0,0,0-2.162-.355,1.588,1.588,0,0,0-1.606.813,1.138,1.138,0,0,0,.333,1.278.864.864,0,0,0,.125.1,3.3,3.3,0,0,0,1.594.55,19.8,19.8,0,0,0,2.751.037l.318,0c.068.022.136.046.2.07a11.275,11.275,0,0,1,4.49,3.345,9.217,9.217,0,0,1,1.726,2.84,11.942,11.942,0,0,1,.653,2.7c-.023.085-.046.171-.068.256a14.843,14.843,0,0,0-.527,3.106l-.01.1c-.038.41-.142,1.5.769,1.882a1,1,0,0,0,.38.076.988.988,0,0,0,.323-.054c.916-.319,1.028-1.462,1.063-1.829a19.974,19.974,0,0,0,.092-2.984c-.009-.129-.019-.258-.031-.388a22.424,22.424,0,0,1,1.121-3.025,17.039,17.039,0,0,1,1.912-3.419,17.759,17.759,0,0,1,2.055-2.268,5.875,5.875,0,0,1,2.03-1.134A2.359,2.359,0,0,1,441.326,208.444Z" transform="translate(-1.534 -0.349)"/>
        <path id="パス_28046" data-name="パス 28046" class="cls-1" d="M432.3,182.648a.982.982,0,0,0-.908,1.051c.079,1.09.2,2.181.321,3.237.089.785.178,1.569.256,2.419a13.061,13.061,0,0,1,.151,2.25,7.423,7.423,0,0,1-.283,1.367.982.982,0,0,0,.647,1.229.967.967,0,0,0,.291.044.983.983,0,0,0,.938-.692,9.262,9.262,0,0,0,.365-1.816,14.691,14.691,0,0,0-.16-2.621c-.073-.8-.163-1.6-.254-2.4-.119-1.051-.238-2.1-.314-3.159A.983.983,0,0,0,432.3,182.648Z" transform="translate(-1.739 -0.099)"/>
        <path id="パス_28047" data-name="パス 28047" class="cls-1" d="M416.968,206.476c-.569.105-1.144.187-1.684.241a9.156,9.156,0,0,1-2.051-.085l-.55-.075c-.481-.068-.964-.135-1.443-.165-.5-.034-1.016-.029-1.523-.021l-.586.006a.982.982,0,0,0,0,1.965l.612-.006c.456-.008.914-.016,1.37.017.431.028.866.088,1.3.149l.549.075a10.9,10.9,0,0,0,1.66.128c.278,0,.556-.011.836-.031.618-.062,1.247-.15,1.87-.266a.982.982,0,1,0-.357-1.931Z" transform="translate(-1.331 -0.515)"/>
        <path id="パス_28048" data-name="パス 28048" class="cls-1" d="M405.714,207.651a1.984,1.984,0,0,0-.117-.713,1.67,1.67,0,0,0-.942-.988,1.942,1.942,0,0,0-1.87.091,1.822,1.822,0,0,0-.783,1.2c-.008.032-.017.072-.027.124a.98.98,0,0,0,.014,1.127,1.385,1.385,0,0,0,.422.847.808.808,0,0,0,.074.068,3.14,3.14,0,0,0,1.092.588,1.52,1.52,0,0,0,.714.2,1.221,1.221,0,0,0,.67-.205.915.915,0,0,0,.174-.146,2.373,2.373,0,0,0,.653-1.783.957.957,0,0,0-.028-.183C405.742,207.8,405.726,207.726,405.714,207.651Z" transform="translate(-1.22 -0.505)"/>
        <path id="パス_28049" data-name="パス 28049" class="cls-1" d="M430.34,180.832a2.145,2.145,0,0,0,.509.18.933.933,0,0,1,.151.049,1.422,1.422,0,0,0,.613.145,1.521,1.521,0,0,0,.306-.032l.113-.019a1.645,1.645,0,0,0,1.462-.978,1.037,1.037,0,0,0,.045-.179,4.142,4.142,0,0,0,.026-1.08,1.644,1.644,0,0,0-.65-1.336,1.58,1.58,0,0,0-1.332-.5.97.97,0,0,0-.693-.027l-.483.161a.973.973,0,0,0-.512.394,1.673,1.673,0,0,0-.361.421,1.028,1.028,0,0,0-.053.1,1.926,1.926,0,0,0-.157.924A1.964,1.964,0,0,0,430.34,180.832Z" transform="translate(-1.703)"/>
        <path id="パス_28050" data-name="パス 28050" class="cls-1" d="M457.332,206.428a4.419,4.419,0,0,1-2.011.392c-.623.02-1.248.014-1.871.01l-.877,0c-.479-.017-.968-.02-1.45-.04-.387-.018-.775-.033-1.168-.04a7.018,7.018,0,0,1-1.9-.286.982.982,0,0,0-.556,1.884,8.97,8.97,0,0,0,2.423.366c.371.006.742.022,1.111.038.514.022,1.037.045,1.538.042l.86,0c.291,0,.582,0,.867,0,.351,0,.694,0,1.015-.016a6.287,6.287,0,0,0,2.836-.572.982.982,0,1,0-.822-1.784Z" transform="translate(-2.01 -0.515)"/>
        <path id="パス_28051" data-name="パス 28051" class="cls-1" d="M465.2,206.748a1.649,1.649,0,0,0-1.714-1.408,1.844,1.844,0,0,0-1.473.448,1.121,1.121,0,0,0-.286.548,2.111,2.111,0,0,0-.428,1.442,2.623,2.623,0,0,0,.384,1.333c.02.03.04.061.063.09a1.91,1.91,0,0,0,1.512.737,1.888,1.888,0,0,0,1.163-.4,1.922,1.922,0,0,0,.55-.673.963.963,0,0,0,.068-.187,3.6,3.6,0,0,0,.093-1.248,1.679,1.679,0,0,0,.079-.57A.929.929,0,0,0,465.2,206.748Z" transform="translate(-2.264 -0.497)"/>
        <path id="パス_28052" data-name="パス 28052" class="cls-1" d="M433.476,227.152a.977.977,0,0,0-1.093.858,12.405,12.405,0,0,0-.088,1.742c0,.326.022.648.046.97.017.246.035.491.039.74,0,.321,0,.642,0,.962l0,.492a.991.991,0,0,0,.008.121,1.678,1.678,0,0,1-.051.654.982.982,0,0,0,1.89.535,3.6,3.6,0,0,0,.118-1.365l0-.428c0-.333,0-.667,0-1,0-.285-.025-.568-.045-.851s-.04-.55-.04-.848a10.69,10.69,0,0,1,.075-1.485A.984.984,0,0,0,433.476,227.152Z" transform="translate(-1.755 -0.88)"/>
        <path id="パス_28053" data-name="パス 28053" class="cls-1" d="M435.1,240.22a5.382,5.382,0,0,0-.476-.85,2.3,2.3,0,0,0-1.822-1.43.975.975,0,0,0-.973.673l-.09.273-.111.107a2.41,2.41,0,0,0-.988,2.182,1.915,1.915,0,0,0,.916,1.327,2.136,2.136,0,0,0,1.241.4,2.02,2.02,0,0,0,.36-.03.985.985,0,0,0,.247-.077,4.96,4.96,0,0,0,.906-.539,3.12,3.12,0,0,0,.373-.283,1.381,1.381,0,0,0,.456-1.657C435.126,240.281,435.113,240.251,435.1,240.22Z" transform="translate(-1.726 -1.07)"/>
        <path id="パス_28054" data-name="パス 28054" class="cls-1" d="M424.936,216.4a21.837,21.837,0,0,0-1.706,2.062c-.391.513-.76,1-1.162,1.457a.983.983,0,0,0,1.478,1.3c.447-.511.855-1.046,1.249-1.564a19.967,19.967,0,0,1,1.55-1.88.983.983,0,0,0-1.409-1.371Z" transform="translate(-1.571 -0.686)"/>
        <path id="パス_28055" data-name="パス 28055" class="cls-1" d="M444.66,216.273c-.2-.2-.4-.4-.61-.592-.148-.141-.3-.28-.441-.424-.252-.252-.489-.52-.726-.788l-.392-.436a.982.982,0,0,0-1.449,1.326l.371.416c.262.3.527.591.807.871.157.158.32.311.482.465.185.174.368.347.569.553a18.334,18.334,0,0,1,1.613,1.772.982.982,0,1,0,1.537-1.224A20.058,20.058,0,0,0,444.66,216.273Z" transform="translate(-1.904 -0.644)"/>
        <path id="パス_28056" data-name="パス 28056" class="cls-1" d="M424.83,201.2a.982.982,0,0,0,1.149-1.593,14.257,14.257,0,0,1-2.271-2.045.982.982,0,0,0-1.464,1.311A16.2,16.2,0,0,0,424.83,201.2Z" transform="translate(-1.574 -0.355)"/>
        <path id="パス_28057" data-name="パス 28057" class="cls-1" d="M441.025,201.047a.979.979,0,0,0,.436-.1c1.259-.625,2.5-1.277,3.735-1.93l.657-.347a.982.982,0,1,0-.916-1.738l-.658.346c-1.225.646-2.449,1.292-3.693,1.91a.982.982,0,0,0,.438,1.862Z" transform="translate(-1.891 -0.348)"/>
      </g>
      <g id="グループ_4654" data-name="グループ 4654" transform="translate(0 39.791)">
        <path id="パス_28058" data-name="パス 28058" class="cls-1" d="M356.263,236.562l.026.007a4.816,4.816,0,0,0,.619.176,1.2,1.2,0,0,0,.579.035.6.6,0,0,0,.486-.628c-.016-.223-.155-.621-.921-.773a2.569,2.569,0,0,0-.707-.035q-.678-.209-1.35-.483a6.756,6.756,0,0,1-1.4-.736A5.679,5.679,0,0,1,352.462,233a3.337,3.337,0,0,1-.487-.87c-.059-.2-.111-.4-.155-.6a7.585,7.585,0,0,0-.134-.956.629.629,0,0,0-.063-.168l-.091-.164a1.229,1.229,0,0,0-.306-.5.6.6,0,0,0-.941.71l.132.238c.07.253.128.51.173.772.015.08.03.158.047.238.007.115.012.231.012.347a3.531,3.531,0,0,1-.422,1.32,5.691,5.691,0,0,1-1.028,1.4,3.56,3.56,0,0,1-1.357.857,5.517,5.517,0,0,1-1.387.234c-.157-.046-.313-.087-.466-.128-.175-.047-.351-.093-.519-.145a4.39,4.39,0,0,0-1.311-.215.964.964,0,0,0-.974.493.691.691,0,0,0,.2.775.642.642,0,0,0,.075.06,2.009,2.009,0,0,0,.967.333,12.063,12.063,0,0,0,1.667.023h.193l.123.042a6.829,6.829,0,0,1,2.721,2.028,5.6,5.6,0,0,1,1.046,1.722,7.276,7.276,0,0,1,.4,1.634l-.041.155a9,9,0,0,0-.319,1.883l-.006.063c-.023.249-.085.91.467,1.142a.6.6,0,0,0,.23.045.61.61,0,0,0,.2-.032c.555-.194.623-.886.645-1.109a12.18,12.18,0,0,0,.056-1.809c-.006-.078-.012-.156-.019-.235a13.677,13.677,0,0,1,.679-1.834,10.314,10.314,0,0,1,1.159-2.072,10.772,10.772,0,0,1,1.246-1.375,3.571,3.571,0,0,1,1.23-.687A1.227,1.227,0,0,1,356.263,236.562Z" transform="translate(-332.497 -217.713)"/>
        <path id="パス_28059" data-name="パス 28059" class="cls-1" d="M350.792,220.925a.6.6,0,0,0-.551.637c.048.661.123,1.322.2,1.963.054.475.108.951.155,1.466a7.918,7.918,0,0,1,.091,1.364,4.487,4.487,0,0,1-.171.829.6.6,0,0,0,.392.745.613.613,0,0,0,.177.027.6.6,0,0,0,.569-.42,5.675,5.675,0,0,0,.221-1.1,8.811,8.811,0,0,0-.1-1.589c-.044-.486-.1-.971-.154-1.456-.072-.637-.143-1.274-.191-1.914A.6.6,0,0,0,350.792,220.925Z" transform="translate(-332.621 -217.561)"/>
        <path id="パス_28060" data-name="パス 28060" class="cls-1" d="M341.5,235.368c-.345.065-.693.114-1.021.146a5.529,5.529,0,0,1-1.243-.051l-.334-.045c-.292-.041-.584-.082-.874-.1s-.616-.017-.923-.012l-.355,0a.6.6,0,1,0,0,1.191l.371,0c.276,0,.553-.01.829.01s.525.054.787.09l.332.045a6.513,6.513,0,0,0,1.007.078c.168,0,.337-.006.507-.019.374-.037.755-.091,1.133-.161a.6.6,0,0,0-.216-1.172Z" transform="translate(-332.374 -217.813)"/>
        <path id="パス_28061" data-name="パス 28061" class="cls-1" d="M334.677,236.08a1.214,1.214,0,0,0-.071-.432,1.012,1.012,0,0,0-.571-.6,1.177,1.177,0,0,0-1.134.055,1.1,1.1,0,0,0-.475.727c0,.021-.01.044-.017.076a.594.594,0,0,0,.009.683.842.842,0,0,0,.256.514.431.431,0,0,0,.044.04,1.9,1.9,0,0,0,.662.357.92.92,0,0,0,.432.12.729.729,0,0,0,.406-.125.54.54,0,0,0,.106-.088,1.438,1.438,0,0,0,.4-1.081.607.607,0,0,0-.017-.111A1.339,1.339,0,0,1,334.677,236.08Z" transform="translate(-332.307 -217.807)"/>
        <path id="パス_28062" data-name="パス 28062" class="cls-1" d="M349.6,219.824a1.327,1.327,0,0,0,.309.108.663.663,0,0,1,.091.029.851.851,0,0,0,.372.088.919.919,0,0,0,.185-.02l.069-.011a1,1,0,0,0,.886-.592.71.71,0,0,0,.027-.109,2.561,2.561,0,0,0,.016-.654,1,1,0,0,0-.394-.81,1.014,1.014,0,0,0-.568-.3,1.043,1.043,0,0,0-.24,0,.589.589,0,0,0-.42-.016l-.293.1a.586.586,0,0,0-.309.239,1,1,0,0,0-.219.255c-.012.021-.023.041-.032.063a1.168,1.168,0,0,0-.1.56A1.192,1.192,0,0,0,349.6,219.824Z" transform="translate(-332.599 -217.501)"/>
        <path id="パス_28063" data-name="パス 28063" class="cls-1" d="M365.965,235.339a2.674,2.674,0,0,1-1.218.239c-.378.011-.756.008-1.134.006l-.533,0c-.29-.011-.587-.012-.878-.025-.235-.011-.471-.021-.708-.025a4.224,4.224,0,0,1-1.148-.174.6.6,0,0,0-.338,1.143,5.43,5.43,0,0,0,1.47.222c.225,0,.449.014.673.024.311.013.629.027.932.026l.521,0,.526,0c.213,0,.421,0,.616-.01a3.8,3.8,0,0,0,1.719-.346.6.6,0,0,0-.5-1.083Z" transform="translate(-332.785 -217.813)"/>
        <path id="パス_28064" data-name="パス 28064" class="cls-1" d="M370.737,235.534a1,1,0,0,0-1.039-.854,1.117,1.117,0,0,0-.893.271.682.682,0,0,0-.173.333,1.281,1.281,0,0,0-.26.874,1.59,1.59,0,0,0,.234.808c.012.019.025.037.037.054a1.159,1.159,0,0,0,.917.448,1.156,1.156,0,0,0,1.038-.649.573.573,0,0,0,.041-.113,2.2,2.2,0,0,0,.057-.756,1.033,1.033,0,0,0,.047-.346A.554.554,0,0,0,370.737,235.534Z" transform="translate(-332.94 -217.802)"/>
        <path id="パス_28065" data-name="パス 28065" class="cls-1" d="M351.505,247.9a.592.592,0,0,0-.663.52,7.651,7.651,0,0,0-.054,1.055c0,.2.014.394.028.588.011.148.022.3.024.448,0,.2,0,.389,0,.583v.3a.616.616,0,0,0,0,.074,1,1,0,0,1-.031.4.6.6,0,0,0,.411.736.583.583,0,0,0,.163.023.6.6,0,0,0,.573-.433,2.181,2.181,0,0,0,.071-.827l0-.259c0-.2,0-.4,0-.608,0-.172-.014-.344-.027-.516s-.025-.333-.025-.513a6.4,6.4,0,0,1,.045-.9A.6.6,0,0,0,351.505,247.9Z" transform="translate(-332.631 -218.035)"/>
        <path id="パス_28066" data-name="パス 28066" class="cls-1" d="M352.489,255.823a3.219,3.219,0,0,0-.288-.515,1.392,1.392,0,0,0-1.105-.868.592.592,0,0,0-.589.408l-.055.166c-.022.021-.045.042-.068.065a1.462,1.462,0,0,0-.6,1.322,1.163,1.163,0,0,0,.555.8,1.294,1.294,0,0,0,.752.241,1.256,1.256,0,0,0,.218-.019.617.617,0,0,0,.15-.046,2.993,2.993,0,0,0,.548-.327,1.84,1.84,0,0,0,.227-.172.836.836,0,0,0,.276-1C352.505,255.861,352.5,255.842,352.489,255.823Z" transform="translate(-332.613 -218.149)"/>
        <path id="パス_28067" data-name="パス 28067" class="cls-1" d="M346.328,241.384a13.365,13.365,0,0,0-1.034,1.25c-.237.311-.461.606-.7.884a.6.6,0,0,0,.9.785c.27-.309.518-.634.756-.948a12.16,12.16,0,0,1,.939-1.14.6.6,0,1,0-.854-.831Z" transform="translate(-332.52 -217.917)"/>
        <path id="パス_28068" data-name="パス 28068" class="cls-1" d="M358.284,241.307c-.12-.123-.245-.241-.369-.36-.09-.084-.181-.169-.267-.256-.153-.153-.3-.315-.44-.477l-.239-.265a.6.6,0,0,0-.877.8l.225.252c.159.18.319.359.488.529.1.1.195.189.293.281s.224.211.345.336a11.091,11.091,0,0,1,.978,1.074.6.6,0,1,0,.932-.742A12.233,12.233,0,0,0,358.284,241.307Z" transform="translate(-332.721 -217.892)"/>
        <path id="パス_28069" data-name="パス 28069" class="cls-1" d="M346.264,232.168a.6.6,0,0,0,.7-.966,8.63,8.63,0,0,1-1.376-1.239.6.6,0,1,0-.887.794A9.755,9.755,0,0,0,346.264,232.168Z" transform="translate(-332.521 -217.716)"/>
        <path id="パス_28070" data-name="パス 28070" class="cls-1" d="M356.081,232.078a.583.583,0,0,0,.264-.063c.762-.378,1.513-.773,2.265-1.17l.4-.209a.6.6,0,0,0-.555-1.054l-.4.21c-.743.392-1.484.783-2.239,1.157a.6.6,0,0,0,.266,1.129Z" transform="translate(-332.713 -217.712)"/>
      </g>
    </g>
  </g>
</svg>
