<svg xmlns="http://www.w3.org/2000/svg" width="1436.868" height="346" viewBox="0 0 1436.868 346">
  <defs>
    <style>
      .cls-1 {
        fill: #fff;
      }
      @keyframes kirakirazoom1 {
        0%,100% {
          transform:translate(-89.018px, 157.727px);
        }
       50% {
          transform-origin: 400.747px 3434.947px;
          transform:translate(-89.018px, 157.727px) scale(0.86);
        }
      }

      @keyframes kirakirazoom2 {
        0%,100% {
          transform:translate(129.403px, 265.819px);
        }
       50% {
          transform-origin: 1400.747px 3434.947px;
          transform:translate(129.403px, 265.819px) scale(0.86);
        }
      }

      #star-L {
        animation: kirakirazoom1 2s step-end infinite;
      }

      #star-R {
        animation: kirakirazoom2 2s step-start infinite;
      }
    </style>
  </defs>
  <g id="stars" transform="translate(-240.562 -3320.727)">
    <g id="star-L" transform="translate(-89.018 157.727)">
      <g id="キラキラ-2" transform="translate(-38.253 3030.638)">
        <g id="グループ_5190-2" data-name="グループ 5190-2">
          <path id="パス_28752-2" data-name="パス 28752-2" class="cls-1" d="M411.076,268.437l-1.2-.91.128-1.5-.436-1.444.989-1.142.49-1.421,1.469-.343,1.24-.865,1.388.588,1.506.029.779,1.293,1.2.908-.129,1.5.437,1.443-.989,1.143-.495,1.424-1.466.344-1.24.864-1.386-.591-1.507-.029Zm4.886-4.846-1-.151-.631-.792-.9.467-.975-.271-.448.9-.948.354.166,1-.558.844.721.71.046,1.012,1,.15.631.792.9-.468.977.27.451-.907.948-.353-.173-1,.559-.843-.719-.707Z"/>
        </g>
        <g id="グループ_5195-2" data-name="グループ 5195-2">
          <path id="パス_28757-2" data-name="パス 28757-2" class="cls-1" d="M386.267,199.58l-.638.745-.972-.018-.286.931-.916.328.186.937-.693,1.432.382,1.55-.638,1.47.409,1.553-.62,1.468.4.6-.692.18-.017.716-.666-.259-.436.561-.376-.6-.689.188.059-.713-.669-.253.462-.55-.473-1.526.562-1.494-.484-1.526.546-1.507-.524-1.5.3-.918-.861-.472-.163-.97-.973-.066-.624-.757-1.543.363-1.467-.625-1.527.434-1.479-.6-1.515.45-.416-.611-.712.187.019-.736-.687-.265.459-.586-.389-.626.711-.192.058-.734.689.261.475-.563,1.467.6,1.518-.451,1.481.574,1.511-.487,1.517.48.634-.727.962-.017.222-.949.908-.345-.074-.947.821-1.337-.358-1.561.621-1.478-.455-1.541.553-1.495-.408-.558.679-.158,0-.7.644.268.41-.559.353.6.669-.2-.078.69.659.23-.464.531.515,1.512-.526,1.509.515,1.509-.523,1.512.514,1.509-.3.857.842.421.081.936.927.175.454.841,1.633-.31,1.514.674,1.62-.382,1.538.644,1.607-.4.326.592L395,197.1l-.077.675.652.2-.461.5.407.544-.67.121,0,.679-.613-.294-.386.556-1.5-.548-1.515.5-1.515-.529-1.513.532Z"/>
        </g>
        <g id="グループ_5196-2" data-name="グループ 5196-2">
          <path id="パス_28758-2" data-name="パス 28758-2" class="cls-1" d="M439.59,148.069l-.637.745-.972-.019-.287.931-.916.328.186.938-.693,1.431.383,1.55-.638,1.471.409,1.552-.62,1.468.4.6-.692.181-.018.715-.665-.259-.437.561-.375-.6-.69.187.059-.713-.668-.252.462-.551-.474-1.526.562-1.493-.483-1.527.546-1.506-.524-1.5.3-.918-.862-.473-.162-.969-.973-.066-.624-.757-1.544.363-1.466-.625-1.528.433-1.478-.6-1.516.449-.415-.611-.712.188.019-.736-.687-.265.459-.586-.389-.627.711-.192.057-.734.689.261.476-.562,1.467.6,1.517-.451,1.481.575,1.511-.488,1.517.48.635-.727.961-.017.222-.949.908-.346-.073-.947.82-1.336-.357-1.562.621-1.477-.455-1.541.553-1.5-.408-.558.679-.158,0-.7.645.267.409-.558.354.6.669-.2-.079.69.659.23-.464.53.516,1.513-.526,1.508.514,1.51-.523,1.511.514,1.51-.3.857.841.421.082.936.927.174.454.841,1.633-.31,1.514.674,1.619-.382,1.538.645,1.608-.4.326.592.641-.227-.077.676.652.2-.462.5.406.546-.669.12,0,.68-.613-.3-.386.556-1.5-.548-1.515.495-1.514-.528-1.514.531Z"/>
        </g>
        <g id="グループ_5197-2" data-name="グループ 5197-2">
          <path id="パス_28759-2" data-name="パス 28759-2" class="cls-1" d="M454.256,308l-.438.681-.794-.126-.132.792-.788.171.263.741-.645,1.054.417,1.169-.609,1.086.437,1.168-.594,1.087.425.473-.63.071.076.63-.55-.312-.312.55-.253-.58-.58.253.143-.617-.619-.137.473-.427-.488-1.14.551-1.112-.492-1.143.539-1.134-.523-1.112.346-.715-.758-.29-.024-.811-.806.053-.428-.691-1.163.413-1.075-.6-1.15.451-1.094-.579-1.137.467-.284-.584-.6.254.11-.637-.634-.146.467-.448-.418-.494.643-.077-.041-.645.567.315.342-.552,1.089.579,1.135-.471,1.1.561,1.138-.5,1.134.49.444-.667.788.1.072-.8.782-.178-.174-.764.743-.968-.4-1.177.594-1.1-.473-1.155.545-1.114-.431-.442.622-.056-.094-.614.535.319.294-.548.236.576.562-.263-.154.6.614.12-.476.413.517,1.13-.527,1.121.516,1.132-.524,1.137.515,1.12-.355.664.745.252-.041.783.783.035.286.744,1.238-.362,1.117.635,1.222-.414,1.138.613,1.209-.432.218.571.542-.285-.153.591.606.088-.474.387.43.435-.611.024.089.605-.51-.339-.273.545-1.118-.541-1.136.5-1.13-.525-1.138.529Z"/>
        </g>
      </g>
    </g>
    <g id="star-R" transform="translate(129.403 265.819)">
      <g id="キラキラ" transform="translate(13.747 1980)">
        <g id="グループ_5190" data-name="グループ 5190">
          <path id="パス_28752" data-name="パス 28752" class="cls-1" d="M1491.054,1357.438l1.2-.91-.128-1.5.437-1.443-.99-1.143-.493-1.424-1.469-.342-1.239-.865-1.389.586-1.507.029-.779,1.293-1.2.909.129,1.5-.438,1.442.989,1.143.495,1.425,1.469.343,1.24.865,1.389-.586,1.506-.03Zm-4.886-4.846,1-.151.631-.792.9.467.975-.271.451.906.949.354-.167,1,.558.845-.721.709-.046,1.012-1,.151-.631.791-.9-.468-.977.27-.451-.907-.948-.353.168-1-.559-.843.721-.71Z"/>
        </g>
        <g id="グループ_5195" data-name="グループ 5195">
          <path id="パス_28757" data-name="パス 28757" class="cls-1" d="M1515.863,1288.581l.637.745.972-.018.287.931.915.328-.186.937.693,1.432-.382,1.55.638,1.47-.409,1.553.62,1.467-.4.6.692.18.017.716.664-.256.437.561.375-.6.69.187-.06-.713.669-.252-.462-.551.474-1.526-.562-1.493.483-1.527-.546-1.506.524-1.5-.3-.918.862-.473.162-.969.973-.066.624-.757,1.543.363,1.453-.624,1.528.433,1.478-.6,1.516.45.415-.611.712.188-.019-.736.687-.266-.453-.58.39-.626-.711-.192-.058-.734-.689.261-.475-.563-1.467.6-1.518-.451-1.481.575-1.511-.488-1.519.481-.634-.727-.962-.017-.222-.949-.908-.345.073-.947-.823-1.339.358-1.562-.619-1.479.455-1.542-.553-1.5.408-.558-.679-.158,0-.7-.645.267-.412-.561-.354.6-.669-.2.076.693-.659.228.464.531-.516,1.513.526,1.508-.515,1.515.523,1.512-.514,1.509.305.857-.842.421-.081.936-.927.175-.455.841-1.633-.31-1.514.674-1.619-.382-1.538.644-1.6-.4-.328.594-.641-.227.077.676-.653.191.461.5-.406.545.669.12,0,.68.613-.295.386.556,1.5-.548,1.518.5,1.515-.528,1.513.531Z"/>
        </g>
        <g id="グループ_5196" data-name="グループ 5196">
          <path id="パス_28758" data-name="パス 28758" class="cls-1" d="M1462.538,1237.069l.638.745.971-.018.287.931.916.328-.186.937.693,1.431-.382,1.551.637,1.47L1465.7,1246l.62,1.468-.4.6.692.18.018.716.664-.256.436.561.376-.6.689.188-.059-.713.669-.252-.463-.551.474-1.526-.562-1.493.484-1.527-.546-1.506.524-1.5-.3-.918.861-.473.163-.969.973-.066.624-.757,1.543.363,1.453-.624,1.527.433,1.479-.6,1.515.45.416-.611.712.188-.02-.736.688-.266-.454-.58.39-.626-.711-.192-.057-.734-.689.261-.476-.563-1.467.6-1.517-.451-1.48.575-1.512-.487-1.519.481-.634-.727-.962-.017-.222-.949-.908-.346.074-.947-.824-1.339.358-1.561-.619-1.48.456-1.542-.554-1.495.409-.558-.679-.158,0-.7-.644.268-.413-.561-.353.6-.669-.2.076.692-.66.229.464.531-.515,1.512.526,1.509-.516,1.515.523,1.511-.514,1.51.3.857-.842.421-.081.936-.927.175-.454.84-1.633-.31-1.514.674-1.62-.381-1.538.644-1.6-.4-.329.593-.641-.227.077.676-.653.192.462.5-.406.545.669.121,0,.679.613-.3.386.556,1.5-.548,1.519.5,1.514-.528,1.514.531Z"/>
        </g>
        <g id="グループ_5197" data-name="グループ 5197">
          <path id="パス_28759" data-name="パス 28759" class="cls-1" d="M1447.873,1397l.438.681.794-.126.133.792.787.171-.262.741.645,1.054-.418,1.169.609,1.086-.437,1.168.595,1.087-.426.473.63.071-.076.63.55-.312.312.55.253-.58.58.253-.143-.617.619-.137-.473-.427.488-1.14-.55-1.112.491-1.144-.533-1.129.523-1.111-.347-.715.758-.291.024-.81.806.053.429-.691,1.167.4,1.075-.6,1.15.452,1.094-.578,1.138.467.283-.584.6.254-.11-.637.631-.144-.468-.448.418-.494-.642-.077.042-.645-.567.314-.341-.551-1.089.578-1.139-.468-1.1.56-1.137-.495-1.134.49-.44-.665-.788.1-.072-.8-.782-.178.172-.767-.743-.968.4-1.178-.595-1.1.472-1.157-.545-1.113.432-.442-.623-.056.092-.616-.534.319-.294-.549-.236.576-.564-.262.154.6-.614.12.475.414-.517,1.13.524,1.124-.517,1.132.524,1.137-.515,1.12.355.664-.742.251.041.782-.783.035-.286.744-1.238-.361-1.117.635-1.222-.415-1.138.613-1.207-.431-.219.57-.542-.285.152.593-.606.088.474.387-.43.434.611.024-.089.6.51-.339.273.545,1.118-.54,1.136.505,1.13-.526,1.138.53Z"/>
        </g>
      </g>
    </g>
  </g>
</svg>
