<svg id="baloon" xmlns="http://www.w3.org/2000/svg" width="117.541" height="240" viewBox="0 0 117.541 240">
  <defs>
    <style>
      .baloon-1 {
        fill: #26333b;
        fill-rule: evenodd;
      }
      @keyframes ani02 {
    0% {
        transform: translateY(0);
    }
    50% {
        transform: translateY(4%);
    }
    100% {
        transform: translateY(0);
    }
}

#baloon {
    animation: ani02 2s ease-in-out infinite;
}
    </style>
  </defs>
  <path id="パス_28411" data-name="パス 28411" class="baloon-1" d="M2453.168-210.463l-.2-.81h-.2l-.2-1.418h-.2l-.608-.81a4.423,4.423,0,0,0-2.836.608l-.2.4h-.608l-.405.608h-.405v.2h-1.013v.2h-.608l-.2.405h-.405l-.405.608h-.608v.2h-.608v.2l-.81.2v.2h-.405l-.405.608h-.2l-.2.608h-.405l-.405.608h-.405l-.405.608h-.405l-.608.81-1.013.2-1.215,1.418-.608.2-.405.608h-.405v.2h-.405v.2l-2.228-.2s-.037.168-.405.2h-1.215a4.451,4.451,0,0,0-2.026,2.026h-3.444v.2h-.811c-.418-.072-.586-.554-1.215-.405v.2h-.608v.2l-2.228-.2v.2h-.405v.2h-1.013v.2h-.81v.2h-.607v.2H2416.5v.2h-.405v.2h-1.013v.2h-.405v.2h-.608l-.405.608h-.607v.2l-.81.2c0,.518-.225,1.7-.2,1.823h.2v.81h.2v.608h.2l.2,1.621h.2v.405h.2v.405l.405.2.405,1.215h.2v.4h.2c.174.491-.211,1.32-.2,1.418h.2v.608l.405.2q.2.911.405,1.823l.405.2.2.405h.405v.2h1.013v-.2l.81-.2,1.013-1.215.608-.2v-.405l.608-.405v-.405l.405-.405h.405l.2-.405h.405l.405-.608,1.013-.2v-.2l.608-.2c.227-.876.911-1.06,1.418-1.621l.2-.608,1.013-.608c.864-.794.8-1.672,2.431-1.823q-.1.608-.2,1.215h-.2v1.013h-.2v.405h-.2v.81h-.2v.608h-.2l-.2,1.621h-.2v.4h-.2v1.013l-.405.2v.405h-.2v.405h-.2v1.215h-.2v.608l-.405.2v.405h-.2l.2.81h-.2v.81h-.2l-.2.81h-.2v.81h-.2l-.2.81-.81.608-.2,2.431h-.2v.608h-.2v.4h-.2v1.621h-.2v.405l-.405.2v.405h-.2v.81h-.2v.608h-.2v.608h-.2v.608h-.2v.608h-.2l-.2,1.215h-.2c-.017,1.89.184,1.38.81,2.431h1.823v.2h.405v.2h1.621v.2c1.322.375,3.151-.444,3.849-.81l.405-1.418h.2q-.1-1.62-.2-3.241h.2v-1.621h.2l-.2-1.621h.2v-1.215h.2v-.81h.2v-2.431l.405-.2-.2-1.013h.2v-2.431h.2v-.405h.2v-.81h.2v-3.646h.2v-1.418h.2v-1.418h.2v-.405h.2v-1.013h.2v-.4h.2v-1.013h.2c.168-.679.513-.888,1.215-1.013.23-.227,0-.087.405-.2l.608.81h.2c.271.42-.011.871.2,1.418h.2q.1.4.2.81l.4.2v.405h.2v.608h.2l.2.81h.2v.608h.2l.405,1.215h.2v.405h.2v.608l.405.2.2.608h.2l.608,1.823.405.2v.608h.2l.2.81h.2l.608,1.823h.2v.405h.2v.608h.2v.405l.405.2v.405l.405.2v.81l.607.405.608,1.823.405.2v.405h.2q.2,1.114.405,2.228h.2a1.707,1.707,0,0,1,.405.81c1.328-.007,1.393.114,2.026-.608h.2V-174l.405-.405h.405l.2-.405h.405v-.2l.81-.608v-.405l.405-.405h.405l.2-.405c.587,0,.658-.077.666-.695a9.893,9.893,0,0,0-.1-1.329,1.285,1.285,0,0,0-.111-.446c-.131-.248-.422-.408-.475-.684-.024-.127.007-.258-.014-.386a3.389,3.389,0,0,0-.159-.414,4.441,4.441,0,0,1-.058-.592,5.84,5.84,0,0,0-.487-1.123c-.166-.419-.171-.612-.675-.612-.6-.438-.188-.939-1.215-1.215a3.1,3.1,0,0,0-.81-1.621h-.405l-.2-.405h-.2l-.608-2.026-1.418-1.215V-190l-.405-.2-.2-.81-.811-.608v-.405l-.405-.2-.405-1.823-.81-.405-.2-.81-1.621-1.418v-.405l-.608-.2-.405-1.215,1.013-.2v-.2h3.849v-.2h.405v-.2h2.228v-.2h.405v-.2l2.025.2v.2a5.707,5.707,0,0,0,2.633-.405,4.969,4.969,0,0,1,2.229.2,4.008,4.008,0,0,1,1.215-1.418q-.1-1.62-.2-3.241h-.2c-.236-.88.387-1.42,0-2.431h-.2v-.405h-.2c-.193-.546.231-1.9.2-2.025h-.2v-.405h-.2v-.608h-.2v-.405Zm-26.987,13.031-.064.022c-.328.123-.247.184-.45.506-.259.412-.785.456-1.061.823l-.608.81c-.617.421-.734.037-1.215.81h-.405c-.2.781-.738.94-1.216,1.418l-1.215,1.418h-.406l-.2.4-1.216.405v.2a1.431,1.431,0,0,1-1.013.405l-.2-1.215-.405-.2v-.608h-.2q-.1-.911-.2-1.823h-.2v-.405l-.405-.2-.2-2.633h.2c.4-1.251.812-.215,1.823-.608v-.2h.405l.405-.608h1.216v-.2h.81v-.2h1.621v-.2l.81.2v.2c.484.151.786-.234,1.013-.2,0,.067,0,.135,0,.2a6.682,6.682,0,0,0,2.277,0,7.221,7.221,0,0,1,.851-.207,6.086,6.086,0,0,0,1.742-.222.19.19,0,0,1,.1-.018.126.126,0,0,1,.086.146.341.341,0,0,1-.092.161,3.04,3.04,0,0,1-.639.558,4.242,4.242,0,0,0-.531.359,4.781,4.781,0,0,1-.458.446A2.484,2.484,0,0,1,2426.181-197.432Zm2.315,11.868c0,.405-.041.625-.041,1.03h-.2v1.013h-.2v1.215h-.2l.2,1.013h-.2v.405h-.2v1.418h-.2v1.621h-.2q.1,1.215.2,2.431h-.2v.405h-.2q-.1,2.127-.2,4.254h.2c-.079.654-.184.592-.405,1.013l-2.633.2v-.2h-.607v-.2h-.2a2.572,2.572,0,0,1,.2-1.013h.405l-.2-1.013h.2v-.4h.2v-1.013h.2V-174h.2v-.608h.2v-1.013h.2v-.405h.2v-.608h.2v-1.215l.405-.2v-.405h.2v-.81h.2v-.405l.405-.2v-.405h.2q.1-1.013.2-2.026h.2v-.405h.2l.2-1.215h.2v-.405h.2v-.608c.068,0,.106-.364.174-.364,0-.405.095-.52.095-.925.067,0,.193-.925.261-.925,0-.067.746-3.444.746-3.511.067,0,.361-.739.429-.739,0,.135-.725,3.735-.725,3.87.068,0-.233,1.139-.166,1.139Zm4.444-12.277a.763.763,0,0,1-.118.03c-.11.018-.223.007-.332.031-.09.019-.174.061-.262.087a.757.757,0,0,1-.821-.307,1.477,1.477,0,0,1-.178-.6l-.094-.636a1.072,1.072,0,0,1-.005-.433c.073-.276.346-.444.6-.583.3-.169.515-.161.593-.484a.936.936,0,0,0,.427-.168.889.889,0,0,0,.713.153,1.307,1.307,0,0,1,.393-.077.5.5,0,0,1,.377.281,1.435,1.435,0,0,1,.127.471,2.615,2.615,0,0,1-.055,1.367.611.611,0,0,1-.412.4C2433.543-198.243,2433.252-197.947,2432.94-197.841Zm6.048,4.191.405.2v.405h.2v.608l.608.4.2.81,1.013.81v.81h.2v.405l.811.608.2.608.608.405.2,1.013.81.608.2,1.013.405.2.2.81c1.234.342.355.4.81,1.215l1.62,1.215v.405l.405.2.2,1.013h.2v1.215h-.2l-1.215,1.62v.2h-.608a5.558,5.558,0,0,0-.81-1.621v-.405l-.405-.2-.2-1.013-.81-.608-.405-1.418-.405-.2-.406-2.228-.607-.2-1.013-3.038-.405-.2-.2-.81h-.2l-.2-.608-.405-.2v-.608h-.2v-.405h-.2l-.2-1.013h-.2v-.608h-.2v-.405h-.2c-.073,0-.347-1.12-.591-1.212a7.249,7.249,0,0,0-.92-2.278c-.049-.116-.067-.3.056-.322a5.553,5.553,0,0,1,1.223,1.519C2438.573-194.52,2438.732-194.051,2438.988-193.65Zm13.167-9.115-.2.81-.81.2v.2a.53.53,0,0,1-.607-.2h-.81v.2l-1.013-.2v.2c-.533.038-1.133-.708-2.026-.405v.2h-.405v.2h-2.431a4.408,4.408,0,0,1-2.229.405v-.2h-1.215v.2a10.618,10.618,0,0,1-3.646-.2l-.2-.2,1.621-1.418v-.405c.413-.519.718.022,1.013-1.013l.811-.2v-.2h.607l.81-1.013h.405l.405-.608h.405l.2-.405h.406l1.013-1.215h1.013l.608-.81.81-.2.2-.405h.608a6.326,6.326,0,0,0,2.431-1.418c.654.079.592.184,1.013.405a17.768,17.768,0,0,0,1.013,5.064v2.025h.2l.2.608Z" transform="translate(-2348.644 397.352)"/>
  <g id="グループ_4824" data-name="グループ 4824">
    <path id="パス_28412" data-name="パス 28412" class="baloon-1" d="M2427.062-999.041l-.012.2,2.224.129q-.006.1-.012.2l.809.047-.012.2.607.035-.012.2.607.035-.012.2.8.249-.012.2c.9.395,2.336.012,3.045-.026a4.519,4.519,0,0,0,.155.821l-.2-.012q-.024.4-.047.809l-.2-.012-.475,1.19-.618.167c-.322.717-.382,1.673-.748,2.391l-.2-.012-.249.8-.2-.012q-.024.4-.047.809l-.2-.012c-.06,1.635.558,1.507,1.072,2.5l3.854.021-.012.2.809.047q-.028,2.23-.056,4.461l-.2-.012-.284,1.4c-.22,2.088-.036,4.728-.578,6.459q-.023.4-.047.809l.2.012q-.112,1.921-.223,3.842l-.2-.012q-.077,1.314-.153,2.629l-.2-.012q-.053.91-.106,1.82a6.426,6.426,0,0,0-.581,3.01l.2.012q-.029.506-.059,1.011l.2.012c.148.667-.338,1.271-.3,1.606l.2.012-.059,1.011.2.012-.379,3.022-.2-.012.167.618q-.135,2.325-.271,4.651-.04,2.432-.08,4.865l.167.618-.2-.012q-.024.4-.047.809l-.2-.012q.042,1.017.085,2.034l-.2-.012q-.082,1.416-.165,2.831a.547.547,0,0,0-.237.6l.2.012q-.154.9-.308,1.808l.167.618c-.035.271-.362.483-.261,1a13.755,13.755,0,0,1-.056,4.461l-.2-.012q-.07,1.213-.141,2.427c-.069.278-.226-.1-.214.191l.2.012q-.03.506-.059,1.011l.2.012-.308,1.808c.347,1.6-.421,3.971-.127,5.674l.2.012-.249.8q.025,1.32.05,2.641l-.25.8.2.012q-.023.4-.047.809l.2.012q-.036.607-.071,1.213l.2.012q-.035.607-.071,1.213l.2.012q-.082,1.416-.165,2.831l-.2-.012c-.063,1.078-.735,10.258-.8,11.337l-.2-.012q-.053.91-.106,1.82l-.2-.012-.024.4-.2-.012a2.586,2.586,0,0,0,.12,1.427l.2.012q-.088,1.517-.176,3.033l-.4-.024c.088.817-1.247,15.824-1.159,16.641l-.2-.012-.76,2.593.2.012.334,1.237.2.012c.266.9-.453,3.093-.628,3.819l.929,1.474a2.644,2.644,0,0,0,2.057-.489,55.344,55.344,0,0,0,.329-5.662l.32-2.01c-.052-.249,1.048-15.919,1.136-16.236.529-1.909.481-4.791.614-7.066.055-.943.72-9.989.774-10.932l.2.012q-.007-1.624-.014-3.247l.2-3.438-.2-.012.023-.4-.2-.012c-.056-.344.213-.346.226-.393q.064-1.112.129-2.224l-.2-.012q.03-.506.059-1.011l-.2-.012q.07-1.213.141-2.427l-.2-.012c-.213-.99.579-1.958.534-2.2l-.393-.226q.088-1.517.176-3.033c.144-2.471-.029-5.8.661-7.875q.036-.606.071-1.213l-.2-.012a14.463,14.463,0,0,1,.473-4.639q.022-2.129.044-4.258a4.609,4.609,0,0,0,.32-2.011l-.2-.012q.137-.6.273-1.2-.037-1.118-.073-2.236.071-1.213.141-2.427a.515.515,0,0,0,.238-.595l-.2-.012-.155-.821.2.012q.018-.3.035-.607l.416-.179c.06-.191-.637-1.536-.263-2.45l.2.012q.012-.2.024-.4l.2.012a3.078,3.078,0,0,0-.108-1.63l-.2-.012.273-1.2c-.191-.987.153-2.6.021-3.854l-.2-.012c0-.068.008-.135.012-.2l.2.012.51-1.8.2.012c.149-.473-.329-1.973-.038-2.843l.2.012c.179-.547-.124-.968-.132-1.225l.249-.8a11.443,11.443,0,0,1,.033-4.056l.2.012q.16-1.005.32-2.01l-.2-.012q.053-.91.106-1.82l.2.012.272-1.2.2.012c.165-.621-.655-.848-.31-1.641l.416-.179q.024-.4.047-.809l-.2-.012a6.572,6.572,0,0,1,.39-3.224q.012-.2.024-.4c.244-.325,2.34-.06,2.854-.24l.012-.2.4.023.226-.393.4.024c.365-.228.553-.707,1.07-.952q-.071-.512-.143-1.023l-.2-.012.082-1.416-.2-.012-.334-1.237-.2-.012-.156-.821-.393-.226q-.077-.41-.155-.821l-.393-.226q-.066-.613-.132-1.225l-.2-.012c.086-1.009.219-.832.88-1.166l.012-.2.821-.155q.012-.2.024-.4l.2.012,1.082-1.154.4.023.654-.774.4.024,1.082-1.154.4.023,1.082-1.155.416-.179c.008-.135.016-.269.024-.4l.416-.179.023-.4,1.272-.94q.023-.4.047-.809l1.047-.548q.011-.2.023-.4l.844-.56q.012-.2.024-.4l.416-.179.238-.6.2.012.023-.4,1.058-.75q.012-.2.024-.4l1.046-.548.261-1,.63-.369q.012-.2.024-.4l.416-.179.023-.4.416-.179.023-.4.2.012.273-1.2.2.012q.012-.2.024-.4l.416-.179.023-.4.2.012q.041-.708.082-1.415l.2.012.475-1.19.2.012q.012-.2.023-.4l.2.012.023-.4.2.012q.041-.708.082-1.415l.416-.179.083-1.416.2.012.035-.607.2.012.023-.4.2.012q.171-1.207.343-2.415l.2.012q.012-.2.024-.4l.2.012q.053-.91.106-1.82a4.517,4.517,0,0,0,.51-1.8l-.167-.618.2.012q.041-.708.082-1.416l-.2-.012q.166-1.106.332-2.213l-.2-.012q-.031-1.219-.061-2.438l-.2-.012.035-.607-.2-.012q.047-.809.094-1.618l-.773-.654.094-1.618-.2-.012.035-.607-.2-.012q-.066-.613-.132-1.225l-.393-.226q.041-.708.083-1.415l-.393-.226c.008-.135.016-.27.024-.4l-.2-.012q.03-.505.059-1.011l-.393-.226q.018-.3.035-.607l-.2-.012.023-.4-.2-.012.035-.607-.2-.012c-.069-.278.072-.024.214-.19l.011-.2-.2-.012q.018-.3.035-.607l-.393-.226q.011-.2.023-.4l-.393-.226.023-.4-.964-.868-.143-1.023-.774-.654-.155-.821-.583-.44c.008-.135.015-.27.023-.4l-.583-.44q.012-.2.023-.4l-.393-.226c-.341-.536.233-.338-.571-.642-.172-.854-.828-1.144-1.322-1.7l-1.691-2.33-1.19-.475-.179-.416c-.556-.376-.768.113-1.4-.284l-.369-.63-1.011-.059-.369-.63-.8-.249.011-.2-1.415-.082c0-.068.008-.135.011-.2l-.4-.024.011-.2-1.82-.106a4.1,4.1,0,0,0-1.8-.51l-.012.2-1.213-.071a3.737,3.737,0,0,0-1.808-.308l-.012.2-1.618-.094c0,.068-.008.135-.012.2l-2.224-.129-.012.2-.4-.024-.012.2-1.808-.308-.44.583-2.26.477c0,.067-.008.135-.011.2l-.821.155-.012.2-1.214-.071-.011.2-.4-.023-1.082,1.155-.821.155-.226.393-.4-.024-.654.773-.607-.035-.665.976a8.432,8.432,0,0,1-3.341,1.632l-.487,1.392a2.364,2.364,0,0,0-1.035.346q-.018.3-.035.607l-.2-.012-.44.583-.4-.024-.238.6-.2-.012-.023.4-.2-.012-.023.4-.63.369-.023.4-.428.381q-.012.2-.024.4l-.2-.012q-.012.2-.024.4l-.416.179q-.012.2-.024.4l-.2-.012-.713,1.785-.047.809-.416.179q-.018.3-.035.607l-.416.179-.023.4-.2-.012-.249.8-.2-.012-.07,1.213-.2-.012-.023.4-.2-.012q-.018.3-.035.607l-.416.179q-.094,1.617-.188,3.236l-.2-.012q-.018.3-.035.607l-.2-.012-.082,1.416-.2-.012q-.012.2-.023.4l-.416.179q-.19,1.511-.379,3.021l.2.012q-.029.505-.059,1.011l-.2-.012q-.07,1.213-.141,2.426l.2.012q-.018.3-.035.606l.2.012q-.082,1.415-.164,2.831l.2.012q-.023.4-.047.809l.2.012q-.018.3-.035.607l.2.012q.025,1.32.049,2.641l.2.012q-.012.2-.024.4l.2.012q-.035.606-.071,1.213l.393.226q-.012.2-.024.4l.2.012q.131,1.225.263,2.45l.2.012-.023.4.774.653q-.018.3-.035.607l.2.012-.023.4.393.226-.023.4.2.012.489,2.057,1.154,1.082.287,2.046.2.012-.023.4.583.44q-.012.2-.024.4l1.155,1.082-.012.2.4.024a5.607,5.607,0,0,0,.727,1.463l.334,1.237.2.012c.147.362-.1.591.155.821l1.19.475.167.618.2.012c.3.376.208.468.774.654.1.411-.038.172.179.416.355.361,1.175.209,1.594.5l.178.416.4.024.381.428q-.011.2-.023.4l.393.226c0,.068-.008.135-.012.2l1.225-.132.179.416.4.024-.012.2Zm-.442-2.866-.56-.844-.4-.024.012-.2-1.011-.059.012-.2-.4-.024-.179-.416-.4-.024.012-.2-.4-.024.012-.2-.607-.035c-.24-.178-.192-.781-.346-1.035l-.964-.868-.167-.618-.393-.226.023-.4-.2-.012.023-.4-.2-.012.047-.809-1.166-.879a7.877,7.877,0,0,1-1.119-1.688q.011-.2.023-.4l-.583-.44q-.066-.613-.132-1.225c-.4-.145-.176.018-.393-.226l-.2-.012.261-1-.774-.654q.012-.2.024-.4l-.393-.226.035-.607-.393-.226.023-.4-.2-.012q-.077-.41-.155-.821l-.2-.012q.023-.4.047-.809l-.2-.012.023-.4-.2-.012q.011-.2.023-.4l-.2-.012q.012-.2.024-.4l-.2-.012-.334-1.237-.2-.012q.035-.607.071-1.214l-.2-.012q.023-.4.047-.809l-.2-.012-.155-.821-.2-.012q.047-.809.094-1.618l-.2-.012q.059-1.011.118-2.022l-.393-.226q-.031-1.219-.061-2.438c.014-.05.271-.049.226-.393l-.2-.012q.036-.607.071-1.213l-.2-.012c-.268-1.172.6-3.854.877-4.616l.308-1.808.2.012.023-.4.2.012q-.06-.714-.12-1.427l.416-.179q.024-.4.047-.809l.2.012q.012-.2.023-.4l.2.012.083-1.416.2.012.035-.607.2.012q.012-.2.024-.4l.2.012.273-1.2.2.012q.011-.2.023-.4l.2.012.023-.4.416-.179c.008-.135.016-.27.023-.4l.2.012q.023-.4.047-.809l.2.012q.018-.3.035-.607l.416-.179q.024-.4.047-.809l.2.012.475-1.19.2.012q.012-.2.023-.4l.619-.167.475-1.19a5.925,5.925,0,0,0,1.879-.905q.017-.3.035-.607l.2.012.237-.595c.755-.633,1.092.3,1.486-1.131.814-.175,1.034-.75,1.879-.906q.012-.2.024-.4a3.662,3.662,0,0,0,1.474-.929l.012-.2.4.024.226-.393.4.023.868-.964.607.035.012-.2.821-.155q.006-.1.012-.2l.606.035.012-.2,1.237-.334.012-.2.809.047.012-.2.607.035.012-.2,1.618.094c0-.067.008-.135.012-.2l.607.035.012-.2,1.416.082.012-.2,3.652.009-.012.2,2.427.141-.012.2,2.224.129-.012.2,1.19.475q-.006.1-.012.2l1.225-.132-.012.2.8.249-.012.2.607.035-.012.2.4.024.179.416.8.249.179.416.4.024.179.416.4.024.179.416.2.012q-.018.3-.035.606l.393.226-.012.2.4.023.381.428q-.012.2-.024.4l.785.451q-.012.2-.024.4l.774.654-.023.4,1.345,1.3.334,1.237.774.654q-.012.2-.024.4l.2.012c.33.813-.3.866.738,1.26l.633,3.08.393.226.155.821.2.012q.077.41.155.821l.2.012q.048.916.1,1.832l.2.012-.023.4.393.226q-.012.2-.024.4l.2.012q-.041.708-.082,1.416l.393.226q-.035.607-.071,1.214l.2.012q-.018.3-.035.607l.2.012q-.018.3-.035.607l.2.012c.154.622-.367,1.072-.284,1.4l.393.226q-.118,2.022-.235,4.044l.2.012-.047.809-.2-.012c-.015.192.33.726.132,1.225l-.2-.012-.023.4-.2-.012a.549.549,0,0,0,.167.618l-.308,1.808-.416.179c-.008.135-.016.27-.023.4l-.2-.012-.639,4.021-.417.179-.059,1.011-.416.179c-.008.135-.016.27-.023.4l-.2-.012q-.023.4-.047.809l-.2-.012q-.012.2-.024.4l-.2-.012q-.023.4-.047.809l-.2-.012-.25.8-.2-.012q-.024.4-.047.809l-.2-.012q-.018.3-.035.607l-.2-.012q-.018.3-.035.607l-1.331,1.952-.4-.024c-.3.885-.817.677-1.105,1.559l-.821.155-.07,1.213-1.486,1.131q-.012.2-.024.4l-.416.179q-.012.2-.024.4l-.416.179-.023.4-1.058.75-.249.8-1.058.75-.012.2-.607-.035-.226.393-.2-.012q-.012.2-.024.4l-1.058.75q-.012.2-.024.4l-1.879.905-.439.583-.4-.024-.012.2-.63.369-.226.393-.607-.035-.44.583-.809-.047-.44.583-.607-.035c-.06.029-.213.284-.428.381q-.053.91-.106,1.82l.393.226-.023.4.2.012q-.012.2-.024.4l.393.226-.047.809.393.226.155.821.583.44q-.012.2-.024.4l.2.012c.294.613.262,1.216.715,1.665l-.238.595c-.829-.16-1.023-.993-1.987-.724q-.005.1-.012.2l-.4-.024-.226.393c-.669.246-3.942-.343-4.437-.461l.023-.4.416-.179q.036-.607.071-1.213l.844-.56.059-1.011.2.012.249-.8.2.012.25-.8.416-.179c.252-.37,0-.977.284-1.4l.2.012c.063-.875.167-1.64-.287-2.046-.34-.3-.209.188-.583-.44l-2.237.073-.011.2c-.965.223-2.428-.571-3-.783l-1.213-.071.012-.2-.4-.024.012-.2-2.225-.129.012-.2-.4-.023.012-.2-.607-.035.012-.2-.4-.024.012-.2Z" transform="translate(-2347.204 1063.472)"/>
    <path id="パス_28413" data-name="パス 28413" class="baloon-1" d="M2202.563-706.084l-.188.076-.151-.376-.188.076-.6-1.5.188-.075-1.282-3.2.188-.075-1.395-2.933-2.187-5.452-.188.076-.377-.94-.188.076-.377-.94-.188.076-.566-1.955-.188.075-.528-1.316-.188.075-.453-1.128-.188.076-.642-2.143c-1.619-2.13-2.516-6.031-4.146-8.158-.438-.572-.222-1.431-.491-1.767l-.451-.037c-.458-.494-.089-1.018-.34-1.391l-.188.075-.226-.564-.188.076-.151-.376-.188.075-.679-1.692-.188.076-.452-1.128-.188.076-.151-.376-.188.076-1.282-3.2-.188.075-.377-.94-.188.075-.377-.94-.188.075-.377-.94-.188.075-.528-1.316-.188.075-.189-1.015-.188.075-.3-.752c-.008-.042.229-.167.037-.451l-.188.076-.565-.865-.188.075a.331.331,0,0,1,.037-.451l-1.168-2.369-.188.076-.3-.752-.188.076-.98-2.444-.188.076-.226-.564-.188.076-.151-.376-.188.076-.452-1.128-.188.075c-.407-.537-.165-.955-.34-1.391s-.613-.567-.716-1.241a.538.538,0,0,0-.038-.64l-.188.076-.453-1.128-.188.075-1.056-2.632a16.926,16.926,0,0,1-2.866-7.144l-1.584-3.948.188-.076-.3-.752.188-.075-.377-.94.188-.076-.151-.376.188-.076-.6-1.5.188-.075-.3-.752.188-.076-.64-1.053.188-.075-.265-1.2.677-.49.076.188,2.068-.83a12.449,12.449,0,0,0,1.427-1.882,4.171,4.171,0,0,0-1.167-1.278l-.188.076-.34-1.391-.188.076-.151-.376-.715-.15L2167-792l-.188.076-.151-.376-.451-.037-.49-.677-.978-.262-.227-.564-.188.076-.3-.752.489-.414c.012-.151.025-.3.037-.451l.677-.49.375-1.242.376-.151.975-3.01,1.165-.9-.075-.188.526-.866-.151-.376.413-.6q.018-.226.037-.451l.376-.151.6-1.769.376-.151a2.448,2.448,0,0,1,.187-1.166l.188-.076q-.095-.507-.189-1.015l.188-.076q-.057-.414-.114-.827a5.327,5.327,0,0,0,.224-1.618l.376-.151q-.038-.639-.076-1.279l.3-.339-.226-.564.3-.339-.226-.564.188-.076-.151-.376.188-.075-.151-.376.3-.339-.377-.94.188-.076-.114-.827.188-.076-.227-.564.3-.339-.226-.564.413-.6-.226-.564.3-.339-.3-.752.188-.076-.226-.564.188-.076-.528-1.316.188-.076-.226-.564.188-.076-.226-.564.188-.076-.83-2.068.188-.076-.566-1.955.188-.076-.716-1.241.188-.075-.151-.376.188-.075-1.358-3.384.188-.076-.114-.827.188-.076-1.621-3.5-.188.076-.642-2.144-.188.075-.3-.752-.188.075-.6-1.5-.188.076-.828-.977-.188.076-.528-1.316-.188.076-.151-.376-.451-.037-.3-.752-.451-.037-.226-.564-.188.076-.151-.376-.188.075-.3-.752-.188.076-.226-.564-.188.075-.151-.376-.188.075-.377-.94-.188.075-.151-.376-.188.076-.3-.752-.188.076-.151-.376-.451-.037-.151-.376a2.666,2.666,0,0,1-1.318-1.654c-1.073.269-.815-.055-1.505-.487l-1.242-.375-.151-.376-.451-.037-.151-.376-.715-.15-.075-.188-.376.151-1.919-.976-.376.151-.6-.413-.376.151-.339-.3-.564.226-.339-.3-.376.151-.075-.188-.376.151-.076-.188-.564.226-.339-.3-.376.151-.075-.188-.752.3-.339-.3-.376.151-.075-.188-.376.151-.075-.188-.94.377-.076-.188-.752.3-.075-.188-.376.151-.075-.188-2.444.981.075.188-.752.3-.075-.188a13.307,13.307,0,0,0-4.249,1.923l-1.316.528.075.188-.564.226.075.188c-.523.422-1.3.236-1.579.415l.075.188-.94.377.075.188-1.8.942.075.188-.376.151.075.188-.188.076-.075-.188-.752.3-.075-.188a4.192,4.192,0,0,1-.677.49c.138,1.064-.366.791-.939,1.468l.075.188-.376.151.075.188-.376.151-.225.527-.677.49q-.018.226-.037.451l-.865.565.3.752c-1.181,1.21-1.1,1.918-1.463,3.424l-.413.6.151.376-.413.6q.038.639.076,1.279l-.489.414-.149.715-.188.076.377.94-.188.075.151.376-.3.339.265,1.2-.188.075.226.564-.188.076c-.14.607-.171.622.152,1.467l-.489.414.528,1.316-.3.339.189,1.015-.188.076,2.112,5.264-.188.076.6,1.5-.188.076.075.188.188-.076.565.865-.188.075q.132.6.264,1.2l-.188.075,1.169,2.369.151.376-.188.075c.092.4.339.3.339.3l.754,1.88.188-.075.415,1.579.188-.075.226.564.188-.076.528,1.316-.188.076c.079.339.3.249.339.3l.377.94.188-.075,1.131,2.82.188-.075.49.677.188-.076c.318.369.059.518.038.639l.414.489.188-.076.377.94.188-.075.151.376.715.15,1.055,1.541,1.242.375.151.376.188-.076.151.376.452.037.565.865c.5.412,1.1.5,1.543,1.127l.376-.151.075.188.978.262.226.564.451.037.151.376.715.15.151.376.451.037.151.376.978.262.226.564,2.032.713.151.376.527.225.376-.151.339.3.376-.151.866.526.451.037.414.489.376-.151.527.225.376-.151.076.188.376-.151.075.188.376-.151.339.3.376-.151.866.526,2.106-.19.6.413.639-.038.076.188.376-.151.075.188.376-.151.076.188.564-.226,1.693.412a8.089,8.089,0,0,1-.073,1.994l-.188.076.453,1.128-.413.6.151.376-.188.076.453,1.128-.3.339.151.376-.188.075c-.013.138.1,1.192.34,1.391l.188-.075c.58.745.463.31,1.241.375l.075.188.564-.227.075.188.564-.226.339.3c.4-.033.579-.562.789-.753l.075.188a7.078,7.078,0,0,1,2.144-.642c.218.352.675.63.716,1.24l-.188.076.151.376-.188.076c.044.678.622.789.716,1.24l-.188.076.3.752-.188.076.377.94-.188.075.226.564-.188.075.453,1.128-.188.075.6,1.5c.178,1.649,1.4,3.9,2.075,5.715l.68,2.783.188-.076.3.752.188-.075.377.94.188-.075.377.94.188-.075,1.282,3.2-.188.076.792,1.428c.008.039-.235.169-.037.451l.188-.076.565.865.188-.075.679,1.692.188-.075.867,1.617.188-.076c.244.39-.1.873.34,1.391l.188-.076.151.376.188-.075,1.772,3.872a.528.528,0,0,0,.038.639l.188-.076.3.752.188-.075,1.168,2.368.188-.075.528,1.316.188-.075.151.376.188-.075,1.131,2.82.188-.075.151.376.188-.075.83,2.068.188-.076.151.376.188-.076.528,1.316.188-.076.679,1.692.188-.075.905,2.256.188-.075.453,1.128.188-.075.905,2.256.188-.076.717,2.332.188-.076.6,1.5.188-.075.075.188-.188.075,1.132,2.82.188-.076.226.564.188-.075.151.376.188-.076,2.414,6.016.188-.075.226.564.188-.076.905,2.256-.188.076.075.188.188-.075.226.564.188-.076c.738.9.332,1.36.981,2.444.147.246.179-.161.263.113l-.188.075.226.564-.188.076,1.056,2.632.188-.076.3.752-.188.076,1.961,4.888a13.39,13.39,0,0,0,1.2.826c.845-.37.805-.588,1.353-.979C2203.014-704.217,2203.235-705.31,2202.563-706.084Zm-40.07-80.831.075.188a3.951,3.951,0,0,1-2.67.417l-.529-2.407.3-.339q-.019-.32-.038-.639l.188-.076-.3-.752.188-.075-.151-.376.188-.075-.151-.376.3-.339-.226-.564.188-.076c0-.323-.111-.568-.114-.827a3.708,3.708,0,0,1-.79-.338l-.94.377-.075-.188-.827.114-.6-.413-.827.114-.941-.714-.376.151-.075-.188-.564.226-.075-.188-1.279.077-.075-.188-.376.151-.075-.188-.376.151-.075-.188-.564.227-.6-.413-.639.038-.151-.376-1.2.265-1.393-.751-.376.151-2.183-1.089-.978-.262-.151-.376-.715-.15-.565-.865-1.769-.6-.151-.376-.452-.037-.226-.564-1.166-.187-.829-.977-.978-.262-.151-.376-.188.076-.226-.564-.451-.037-.151-.376-.715-.15-.151-.376-.188.075-.151-.376-.188.076-.226-.564-.715-.15-.565-.865-.188.076-.829-.977-.188.076-.754-1.88-.188.075-.151-.376-.188.075-.452-1.128-.451-.037-.189-1.015-.188.076-1.433-3.572-.188.076-1.546-3.309.188-.076-.075-.188c-.133-.423-.8-.736-.792-1.428l.3-.339-1.886-4.7c-.248-.623-.345-1.465-.491-1.767-.116-.24-.515-.344-.565-.865l.188-.076-.226-.564.188-.076-.151-.376.188-.075-.3-.752.188-.075L2121.6-829l.188-.075-.3-.752.188-.075-.226-.564.188-.076-.226-.564.3-.339-.226-.564.188-.076c.088-.4.009-.308.413-.6q-.057-.959-.115-1.918l.3-.339q-.038-.64-.076-1.279l.3-.339-.264-1.2.188-.076a3.021,3.021,0,0,0,.3-1.43,4.7,4.7,0,0,0,1.577-2.6l1.052-.64c-.141-1.179.875-1.793,1.051-2.822a5.683,5.683,0,0,0,1.353-.979l2.068-.83-.075-.188.94-.377-.075-.188.752-.3.075.188,1.428-.791-.075-.188.376-.151-.076-.188.376-.151-.075-.188,2.407-.529-.075-.188a22.492,22.492,0,0,1,5-2.224l.075.188,1.015-.189.339.3.94-.377.075.188.564-.227.075.188.564-.226.6.413.752-.3.339.3.564-.226.339.3.376-.151.339.3.376-.151.075.188.376-.151.075.188.715.15.075.188.075.188.188-.076.151.376c1.1-.135,1.6.611,2.6.486l.377.94.451.037.226.564.978.262.075.188.715.15.151.376.188-.075.151.376.188-.075.226.564.451.037.565.865.451.037.49.677.188-.076.528,1.316.188-.075.151.376.188-.076.226.564.188-.075.828.977.188-.075.377.94.451.037.453,1.128.188-.076.151.376.188-.075.716,1.24.188-.075,1.358,3.384-.188.075a.538.538,0,0,0,.414.489l1.433,3.572-.188.076.227.564-.188.076,1.433,3.572-.188.076.151.376-.188.076.641,1.053-.188.076.114.827-.188.076.943,2.9-.413.6.528,1.316-.3.339c0,.49.419.43.49.677l-.188.075.226.564-.3.339.151.376-.3.339.567,1.955-.526.866.151.376-.3.339.264,1.2-.188.076.151.376-.3.339.151.376-.3.339.226.564-.188.075.151.376-.413.6.151.376-.3.339q.057.414.114.827l-.3.339.151.376-.413.6-.6,1.768-.376.151q.019.32.038.639l-.751,1.393c-.012.151-.025.3-.037.451-.457.709-.924.837-1.051,1.732l-.376.151c.081.856-.028.286-.338.79l-.15.715-.752.3.075.188-.376.151q-.019.226-.037.451c-.339.527-.407-.066-.338.79l-.489.414.075.188-.376.151q-.019.226-.037.452l-.677.49.075.188-.94.377c-.213.192.1.073-.113.263l.6,1.5.188-.076.151.376.188-.075.226.564.978.262.49.677.188-.076.3.752.188-.076.151.376.188-.076.151.376.451.037.226.564.9.074c.316.191.187.432.677.6q.019.32.038.639l-1.2.265.075.188-1.692.679C2163.315-787.056,2162.8-787.273,2162.494-786.914Z" transform="translate(-2118.928 900.37)"/>
    <g id="グループ_4823" data-name="グループ 4823" transform="translate(82.762 200.685)">
      <path id="パス_28414" data-name="パス 28414" class="baloon-1" d="M2504.715-135.634c-.649-.029-1.3-.043-1.964-.034-.224,0-.452,0-.68,0,0,.132.007.265.011.4h-.2q.008.257.015.514h-.2a4.126,4.126,0,0,0,.254,1.8h.2q.055,1.928.11,3.857h-.406c.165,1.028.247,20.145.412,21.173h-.2q-.256,1.671-.513,3.343h.2l.45,1.543h.2c.35,1.125-.16,3.953-.266,4.886l1.065,1.8c1.357-.008,1.214-.209,2.006-.772.188-1.785-.18-4.7-.205-7.2q.064-1.286.129-2.571c-.076-.312-.455-20.252-.4-20.659A51.823,51.823,0,0,0,2504.715-135.634Z" transform="translate(-2501.549 135.671)"/>
      <path id="パス_28415" data-name="パス 28415" class="baloon-1" d="M2520.543-100.2l-.11-.39-.2.055-.439-1.56.2-.055-.932-3.315.2-.055-1.073-3.065-1.59-5.655-.195.055-.274-.975-.2.055-.274-.975-.2.055-.353-2-.2.055-.384-1.365-.2.055-.329-1.17-.195.055q-.2-1.1-.408-2.2c-1.381-2.291-1.855-6.266-3.248-8.556a1.326,1.326,0,0,1-.167-.464q-1.093.463-2.23.919l.276.983.2-.055.658,2.34.2-.055.463,2.395.2-.055.438,1.56.2-.055.055.2-.2.055.823,2.925.2-.055.164.585.2-.055.11.39.2-.055,1.755,6.24.195-.055.165.585.195-.055.658,2.34-.2.055.055.2.2-.055.164.585.2-.055c.637.97.184,1.388.713,2.535.12.26.2-.141.25.14l-.2.055.164.585-.195.055.768,2.73.2-.055.219.78-.2.055,1.426,5.07a13.4,13.4,0,0,0,1.109.95c.88-.278.864-.5,1.45-.829-.02-.546.316-1.608-.268-2.45Z" transform="translate(-2506.414 132.493)"/>
    </g>
  </g>
</svg>
