<svg xmlns="http://www.w3.org/2000/svg" width="260.123" height="278.498" viewBox="0 0 260.123 278.498">
  <g id="R" transform="translate(-1224.107 10.292)">
    <g id="旗">
      <path id="パス_27524" data-name="パス 27524" d="M4299.494,679.494c-1.253.256-1.26-.008-2.144-.476a5.222,5.222,0,0,0,0-1.906C4299.037,675.886,4300.685,678.259,4299.494,679.494Z" transform="translate(-2933.026 -575.188)" fill="#26333b" fill-rule="evenodd"/>
      <path id="パス_27526" data-name="パス 27526" d="M3918.4,274.048c.242-.155.247-.548.715-.477,1.035.716,2.464,2.3,2.382,3.335,1.658,2.165,4.057,4.822,5,6.909,2.792,1.666,5.058,6.571,7.624,8.815.2.172.789.044.953.238.79.941.787,2.645,2.382,2.859,1.974,3.472,6.963,6.495,8.815,10.006,2.35.994,2.852,2.811,5.241,4.05-.155.242-.548.246-.477.715a20.512,20.512,0,0,1,6.671,5.718,1.909,1.909,0,0,1,1.668,1.906c.333-.989,1.189.278.714.715,2.95.64,4.593,3.911,7.147,5.956.447.358,1.207.308,1.667.715.118.1-.118.611,0,.715,1.136,1,2.824,1.794,3.574,2.859.16.228-.029.69,0,.715.486.42,1.6.458,2.144.953,2.467,2.263,5.351,5.393,8.1,7.862a12.3,12.3,0,0,0,2.383,1.429c1.48,2.41,4.613,3.169,5.956,5.718.988-.273.928.5,1.667.476.086,1.8,5.037,2.89,5.241,5.241.77-.6,1.482.458,1.667,1.191a45.1,45.1,0,0,1,6.194,4.288c.556.434,1.546,1.576,1.429,1.906,2.158.143,4.28,3.623,6.432,4.765.229.122.748-.153.953,0,.6.451.774,1.366,1.429,1.906,2.549,2.1,6.344,3.361,8.1,5,.058.054-.355.4-.238.476.687.472,2.292.317,1.667,1.43.574.1.518-.435,1.191-.238,4.705,3.76,9.656,6.479,13.579,9.291,3.419,2.451,7.976,4.827,11.674,8.1.493-.687,3.606,2.436,5.718,3.574,3.144,1.694,6.826,3.207,8.814,4.526.043.029-.338.426-.238.476,2.494,1.251,4.4,1.614,5.956,3.1-.549-.927,4.148,1.522,4.288,1.668.765.791-.894.1.715.476,2.161.51,4.822,3.046,7.146,3.812a11.543,11.543,0,0,1,2.621.953v.953c.279-.038.2-.434.238-.715,1.253.255,1.611,1.406,3.335,1.191,1.18,2.243,5.285,1.309,6.909,3.573,2.253.486,4.506,1.627,7.385,2.382-.03.428.292.5.238.953.52-.422,1.542.028,1.668-.238.29,1.4,1.221.349,2.144.953.8-.7,1.029-1.566,2.383-2.144,2.108-.127,6.944,5.361,3.812,8.576-.36.207.065.357-.238.953-1.135.348-2.079.262-2.859.476-1.053-1.251-3.774-2.1-3.334-4.05-.735-.933-1.729-.8-3.335-1.191-.03-.427.292-.5.238-.953-3.23,1.768-4.476,7.259-6.909,8.338-.354.1.093.3,0,.715-2.427,1.465-3.358,4.424-6.194,5.48-1.955,2.9-5.594,5.355-8.1,6.909v.715c-4.112,2.593-7.546,4.609-11.2,7.385-1.779.185-1.727.219-3.1-.476-.088-.848.123-2.909-1.191-3.812.342-.909.093-3.044-.953-3.335.63-.691.016-1.145.715-1.668-.038-.279-.434-.2-.715-.238.389-2.513-1.51-3.6-.715-6.194-.988-1.512-1.663-6.145-1.191-7.147-.866-.394-1.607-4.222-.476-4.288-1.745-.186-1.045-4.133-.953-3.335-.243-2.119-2.064-4.1-1.191-5.956-1.175-2.9-1.457-5.3-2.382-8.815a34.03,34.03,0,0,1-7.624,4.527c-.038.277.053.424.239.476-4.029,1.193-10.8,4.667-15.723,5.718-1.1,1.312-3.522,1.195-5,2.621v-.476c-.072.722-1.512.076-1.191,1.191-1.865-.594-4.755,1.077-5.956,2.382-1.615-.26-2.31,1.271-4.05,1.906-.181-.163-.756-1-.715,0-2.636-.127-2.773-4.657-2.144-5.956-.4-.57-.8-2.245-.238-2.859a1.693,1.693,0,0,0-.715-.477,57.634,57.634,0,0,0,.238-12.865c.51-3.194.233-10.434-.238-14.771.232.007.185.292.238.476a72.371,72.371,0,0,0-.477-9.291c-2.993.943-6.1,3.5-8.1,3.335-2.531,1.9-4.815,1.979-8.576,3.335-1.058.381-2,.791-3.335,1.191-2.727.818-4.723,2.359-8.338,2.859-.472.065-.692-.3-.953-.238-1.886.461-4.678,2.34-6.432,1.668-.018-.007.312-.452.238-.476-.983-.323-1.117-.107-1.191-1.191a1.24,1.24,0,0,0,.476.476c-3.737-2.269-1.319-6.141-.953-10.006.024-.255-.285-.148-.238,0-.737-2.323.71-5.564.953-8.576.181-2.252-.655-4.2.715-5.718-.775-3.742.658-7.675.477-12.388.366.536.709-1.7.238-1.906-1.61.142-3.987,2.5-5.241.715-1.163-.224-1.63.621-2.144.715.692-.127-2,.183-2.621-.715-.8.215-.028.533-.476.953-4.095.249-9.9,1.752-15.962,2.859-.45-.027-.165-.788-.715-.715-.811.254.663.074.238.715-1.883-.258-4.974,1.449-6.671.476q-.365.349-.715.715c-.483-1.472-2.963.857-4.765-.238-1.207.652-6.85,1.086-8.338-.715.729-2.123,1.465-8.1,3.1-11.435-.8-.2.123-2.861.715-2.383a20.133,20.133,0,0,1,1.668-8.815c-.007-.232-.292-.185-.477-.238.4-2.386,1.91-6.915,1.668-9.768.781-.426.189-3.406.715-2.859.151-2.531.765-5.187-2.383-5.718a8.224,8.224,0,0,0-3.335.477c-.424-.175-.035-.433,0-.715-.849,1.1-.914.237-2.383.238-.575,0-1.111.586-1.668.477-1.482-.293-5.122.594-6.67.238-.747.284-.082.816-.714,1.429a2.735,2.735,0,0,1-2.859-1.191c-1.167.692-1.7.064-2.621.476-.69-.133.365-.371.238-.715a4.78,4.78,0,0,1-4.288.238c.026.643-.68.461-1.191.715-.353-.1.094-.305,0-.715-.476,1.165-3.5.414-5.956.476-.823.021-2.608.779-1.906-.238-1.608.811-3.762.315-4.765.238-.016,1.1-1.067,3.564-3.335,2.382.2-.9-1.536-1.7-.238-2.621-.717-1.3-1.223-1.533-.477-2.859,3.277.243,2.348-4.936,4.527-5-.545-1.984,2.438-4.688,3.1-5.956.413-.8.5-3.034,1.667-2.621.418-2.631.957-2.86,2.383-3.812-1.255-.943.462-1.022.715-2.144.03-.132-.4-.452-.238-.715.462-.745,1.636-1.278,2.144-2.144.143-.246-.2-.87,0-1.191.291-.472,1.444-1.489,1.667-1.906.583-1.089.786-2.493,1.906-3.812a33.017,33.017,0,0,1,2.621-3.335c-2.959-5.779-8.186-11.854-10.244-19.773.641.164.46-.492.715-.715.757-.029,1.523,1.158.953,1.668,3.577,4.728,5.988,9.953,9.053,14.532C3918.489,273.023,3918.5,273.593,3918.4,274.048Zm3.812,14.532c3.8-.464,4.279,4.023,5,7.385,3.713.553,4.019,2.646,4.765,4.527a3.3,3.3,0,0,1,.715.953c2.081-.23,3.087,1.532,3.812,1.906-.487,1.109.7,1.572-.238,2.382,2.564,2.425,6.135,1.826,8.1,1.668-3.262-3.07-7.792-6.944-9.291-10.244h-.953c-1.842-3.241-5.149-5.016-6.671-8.577-3.221-2.01-4.9-6.736-8.1-10.006a24.114,24.114,0,0,1-1.191,2.382c0-.132-.193-.271-.238,0C3923.113,280.626,3920.207,286.736,3922.215,288.58Zm-6.671-1.668c2.927,1,3.394,3.583,3.574,6.909,2.628,2.23,5.286,3.517,5,7.623.33-.887.036.7.476.476.715-.069,2.761,1.123,2.621,3.812,1.314,1.227,3.208,1.874,4.05,3.574,1.321-.6,3.641.49,5.479-.238-2.185-.379-2.517-3.261-2.62-5-2.058-.007-3.472-.658-4.05-2.144-.073-.549.688-.265.715-.715-.65.022-.48-.4-.953,0-.044-2.911-4.977-2.146-4.526-4.764-1.9-.445-.945-3.213-1.429-4.765-2.545.214-6.068-3.522-4.765-5.956-.424-.718.562-2.04,0-2.621-.419.556-1.424-1.573-1.906-.953C3917.733,283.771,3915.646,284.795,3915.544,286.913Zm.477,2.144c-.475.834-.544-.7-.953-.715-1.54,1.162-2.041,3.808-3.1,4.765,3.116.592,2.678,2.788,3.1,4.527.111.46,1.046,1.86,1.191,2.621,2.719.334,3.415,2.173,3.1,4.527,1.306.5,2.279,2.561,2.62,2.621.183-.545,1.109.667,1.191,1.906,1.8.1,3.731.518,4.05-.715-.71.43-2.719-1.855-2.383-4.05-1.27.252-.059-.5-.714-.715-.149.938-2.5-.827-1.668-1.668-1.87-.254-.6-2.537-1.191-3.574-1.581-.942-3.808-2.3-4.05-3.812-.5-.228-.589-2.07.238-2.859C3916.321,291.877,3916.282,289.772,3916.021,289.057Zm1.429,20.726a13.753,13.753,0,0,0,3.1-.238c-.69-.133.365-.372.238-.715-2.362-.635-4.47-2.324-3.812-5.241-1.2-.654-2.776-1.844-2.859-2.859-1.816-.682-.059-4.887-2.621-5.717-1.862,1.076-2.127,3.75-3.1,5.717,3.029-.908,5.243,3.432,4.05,4.288C3915.041,306.742,3916.565,307.02,3917.45,309.784Zm-5,.715c.64-.8,1.757-.352,2.144-.953-.278-.04-.259-.377-.238-.715-.646-.554-1.861-.52-1.667-1.429-.469-.071-.473.322-.715.476-2.41-1.261-.241-6.072-4.527-5.717-.264.847-1.172,1.051-1.191,2.144,3,.253,3.639,1.885,3.573,4.05C3911.485,309.448,3912.733,309.207,3912.447,310.5Zm-8.815-.715c.553-.07,1.116-.6.953.476a6.7,6.7,0,0,1,3.812-.238c-.316-.875-.845-2.539-.476-3.335-.831-.131-1.546-1.618-2.383-.953C3905.246,307.431,3904.1,308.6,3903.632,309.784Zm115.067,60.75c-3.166-.81-5.078-3.859-7.624-4.527-2.138-2.978-6.674-4.716-8.338-7.385-2.364-.733-3.446-2.748-5.241-4.05-.618.684-.886-.894-1.191-1.191a3.011,3.011,0,0,0-1.906-.715c-.441-.279-2.669-2.891-2.145-2.859-2.206-.231-3.685-3.1-5.956-4.05-.233.958-.438,1.945-1.668,1.906.226,3.708-.683,7.835,0,12.626-.228-.656-.683.442-.715.715-.217,1.849.488,6.323,0,8.815-.729,3.724-.588,10.8-1.191,14.771,5.784-1.271,10.924-2.776,16.677-4.527.023.374-.032.826.476.715-.272-.7-.141-.885.477-1.191,2.912-.025,4.522-1.85,6.909-1.429.038-.28-.041-.676.239-.715a42.561,42.561,0,0,0,7.147-2.859c.829-.382,2.276-1.04,2.383-.476A31.177,31.177,0,0,0,4018.7,370.533Zm4.526,8.1c-.335-.062-.271-.523-.477-.715.9.1.843-.745,1.43-.953.062.335.523.271.715.477-.621-1,.542-.84.953-1.43-1.447-1.349-2.754-1.486-4.288-2.859.127.343-.929.581-.238.715.922.446.24,1.96.715,3.1-.6-.03-.746-.455-.953.238.447.057-.135.392.238.477C4021.761,377.1,4022.7,379.3,4023.226,378.633Zm6.194-.715a.241.241,0,0,1,0,.476c-.207-.349-.356-.755-.953-.715-.271,1.874-.83,2.762-.476,4.05.877-.534,1.741-.253,1.429-.953a1.121,1.121,0,0,1,.715.238c.146-.807,1.057-.849,1.43-1.429C4030.3,379.224,4030.067,377.813,4029.42,377.919Zm-3.812,6.67c-1.254-1.461.342-3.81-.238-5.479a7.208,7.208,0,0,1-4.288,2.382c.163,1.778-.41,3.71.477,5.241,1.4-.221,1.984-1.262,2.382-1.191.042.007.03.632.238.476.476-.356-.146-1.786,1.191-1.429C4025.369,384.721,4025.563,384.86,4025.608,384.589Zm8.338,1.668c1.158-.342,3.777-.542,4.527-1.906a13.5,13.5,0,0,0-4.05-2.621C4033.754,383.867,4033.879,383.591,4033.947,386.257Zm-1.191,3.573c-2.607-1.226-1.172-4.64-1.191-6.909-1.59.443-2.061,1.657-4.05,2.144.25,2.2,1.079,3.387.715,5.48a1.3,1.3,0,0,1,.953.953,6.564,6.564,0,0,0,3.335-1.668C4032.516,389.963,4032.71,390.1,4032.755,389.83Zm12.865-1.191c-1.991-.153-2.355-1.934-4.288-2.144.15,1.269-.846,1.644,0,2.382-1.064.254.275,1.1-.715,1.429.185.053.47.006.477.238-.8.016-.042.545-.715.953.847-.37.144.809.715.715,1.3-.093,4.949-2.317,5.718-1.429.5-.067-.345-.637.238-.953C4046.275,389.286,4045.953,390.076,4045.62,388.639Zm-10.006,1.191c1.248,2.284-.171,5.441,1.191,6.909a5.62,5.62,0,0,1,2.144-1.668c-1.815-2.189-.631-4.6-.238-7.623-1.468.163-1.545,1.346-3.1.715.179.894-.91.519-.953,1.191C4035.872,389.214,4034.713,390.48,4035.614,389.83Zm-11.673,7.147c.3.013.33.305.714.238,1.234-.966,2.365-1.472,3.812-2.621-.717-.141-1.5.013-.953-.953-2.283-.887-.967-4.856-2.382-5.956a19.9,19.9,0,0,1-3.573,2.621c.2,1.529,1.734,3.7.714,4.288.215.646.533-.544.953-.476-.153,1.581.889,1.671-.238,2.382C4024.025,396.66,4024.31,395.841,4023.941,396.977Zm25.253-.953c1.408-.754,2.943-.719,4.288-1.906-1.7-.521-2.668-1.779-4.049-2.621C4048.889,392.438,4049.181,394.724,4049.194,396.024Zm-15.009,3.574c-1.077-2.5.538-5.794-.715-7.385-1.159.194-2.682,2.081-4.527,2.382,1.1,1.318.968,4.555,1.191,6.671C4032.2,401.385,4032.118,400.286,4034.185,399.6Zm7.624-.715c1.49-.129.272.694,1.429,1.191a4.3,4.3,0,0,1,3.574-1.191c-1.252-.795.124-3.862-.239-5.956-1.158.827-2.868,1.1-4.05,1.906.578,1.229-1.118,1.4-.477,1.906.052-.186.2-.277.477-.238.038.9.008,1.51-.477.715C4042.761,398.513,4042.69,398.27,4041.809,398.883Zm9.767-.715c-.031-1.116-.54.488-1.429,0a47.78,47.78,0,0,0,1.191,7.147c1.355-.471,2.51-1.143,3.812-1.668-.154-2.776-1.761-4.465-1.429-7.862C4053.494,396.891,4052.306,397.27,4051.576,398.168Zm5.48,3.574c2.5.086,4.409-3.576,6.432-.715.2.286-.442,1.8.715,2.621-.411.871.568,2.238.714,2.382a4.408,4.408,0,0,1,1.906-3.1c-.41-.094-.611.354-.715,0,.027-.45.788-.165.715-.715-3.584-2.411-8.513-5.642-11.2-6.194A26.463,26.463,0,0,1,4057.055,401.742Zm-17.868,3.1c.649-3.046,5.612-1.451,4.05.953.8.045.844,1.709,1.668,2.382,1.408-.577,2.458-1.513,4.288-1.668a1.12,1.12,0,0,1,.239-.715,3.44,3.44,0,0,1-.477-4.288c-1.114.062-.333-.283-.715-.953-.815.051-.716.786-1.191,0-1.924,2.817-8.144,2.564-6.67-1.191-.052.186-.2.277-.477.238-.011-.427.485-1.324,0-1.906-1.131.7-1.778,1.875-3.335,2.144-.131.346.278,1.231-.238,1.191,0-.132-.193-.27-.239,0C4037.3,401.713,4036.334,405.18,4039.188,404.839Zm-16.438-4.764c-1.062-.049-.486-1.737-1.429-1.906.536,4.524-.263,8.045.476,11.2.063-.811,1.073-.674,1.429-1.191C4022.635,405.316,4022.091,402.581,4022.75,400.074Zm2.859,5.718c.075-.745,1.7-1.318,2.621-2.383-.582-1.4-.391-3.579-.953-5-1.151.615-1.048,1.321-2.144,1.668C4025.059,402.682,4024.33,405.414,4025.608,405.792Zm5-2.144c.071.468-.321.472-.477.715a29.591,29.591,0,0,1,.715,4.288c2.163-.9,3.2-.554,5-1.668-.3-1.727-1.975-2.859-1.191-5-.41.094-.61-.354-.715,0C4034.238,403.185,4030.964,404.3,4030.611,403.648Zm40.738,1.191a.657.657,0,0,1,.715.477c-.312.642-.283,1.623-.953,1.906,1,1.681-1.462,3.254-.238,4.526a1.691,1.691,0,0,0-.715.476c.911.2.177,1.384-.238,1.668.9,1.033-.062,2.008-.238,2.382-.379.807-.146,2.852-.477,3.574-.189.413-1.041.628-1.191,1.191-.442,1.662,1.081,3.592.238,4.526,1.317.96.215,2.112,1.191,3.335-.389-.174-1.036.473-.477.476,1.072-.975-.208,1.7.715,1.191.163-2.588,2.075-5.684,1.668-7.147,1.636-2.922,2-7.052,3.573-9.768-.654-.514.237-1.094-.238-1.668.28-.037.677.041.715-.238-.894,0-.087-2.851.477-2.621-.525-.95.152-1.621,0-2.859-3.639-.9-5.155-3.346-8.338-3.574-.845,1.824-.251,4.415-1.191,6.432-.167.358-.617.319-.715.715-.5,2.022,1.576,4.068,1.191,6.194a28.839,28.839,0,0,0,.953-3.812c1.076-.437,1.763-7.154,3.812-7.862C4071.588,404.6,4071.395,404.646,4071.349,404.839Zm-29.065,4.765a20.867,20.867,0,0,0-.715-4.527c-.2.993-2.276,2.09-3.573,1.906.133,1.217.541,2.159.715,3.335C4040.363,410.1,4040.511,409.03,4042.285,409.6Zm-13.341,1.191c-.925-1.675.073-2.952-1.191-4.288-.032,1.238-1.206,1.336-1.906,1.906a12.455,12.455,0,0,0,1.191,4.05A3.615,3.615,0,0,1,4028.944,410.8Zm46.694,21.679c.318-2.022.648-4.617,1.906-6.432-.238-3.135,1.212-5.143,1.906-6.909.159-4.015,1.857-5.825,1.906-10.006-1.8-.23-2.4-1.319-4.288-1.906-.031,1.744.212,3.736-.477,4.765.709,1.461-.577,3.882-.238,5.717-.239,0-.284-.193-.476-.238.227,1.9-.792,4.384-1.667,5.956,1.083.511-1.03,2.526-.239,3.574-1-.172-1.07,5.251-1.906,4.765,1.038.844-.989,2.355-1.906,2.144,1.026,3.414.958,5.431,2.144,8.338.6-.513.276-1.948,1.191-2.144-.7-2.378,2-3.633,1.191-6.194C4075.413,434.693,4074.765,432.094,4075.638,432.474Zm-45.265-20.965c.773.18.368,1.538,1.191,1.668.856-.364,2.82-1.383,3.812-1.191-.517-.456,1.327-.566,1.43-1.191-.535-.1-.007-1.264-.477-1.43-1.46.229-4.151,2.16-4.526,1.191C4031.491,411.55,4031.043,411.167,4030.373,411.51Zm51.935,20.012c.634-2.374,1.237-5.405,1.668-7.385-.013.145-.035.282-.238.238-.37-.847.809-.144.715-.715-.279-3.605.616-5.815,1.668-8.815-1.425-.413,0-2.417.238-3.335-1.406-.5-3.1-.958-3.1-1.668-1.062.618-.8,2.765-.715,3.1.077.308-.7.787-.715.953,0-.029.465.084.476.238.265,3.6-1.764,7.427-2.621,11.2-.773,3.4-.7,7.035-2.62,9.768.5,2.414-2.155,5.582-1.906,8.1.1-.406.307.05.715,0,.541-1.783,1.951-.942,2.144-2.144,2.266-.075,2.148-2.633,2.859-5,.482-1.608,1.829-2.91.953-3.1.56-.075.141-1.13.953-.953,0,.132.193.27.238,0A1.685,1.685,0,0,1,4082.308,431.521ZM4023.7,410.8a13.776,13.776,0,0,1-2.382,1.906c.513,1.224.915,3.8-.238,4.765a.656.656,0,0,1,.715.476c1.8-1.211,3.3-1.279,4.765-2.859C4024.357,415.435,4024.978,412.5,4023.7,410.8Zm6.432,2.62c-.812-.054-.746-.755-.238-.953-.726-.181-2.039,2.2-2.144,2.621A16.676,16.676,0,0,1,4030.135,413.415Zm61.226,2.621c.952.446-.254-.1-.238-.477,0-.041.833-.967.715-1.191-.646-1.227-2.822-1.2-4.288-2.144-.954,8.383-1.426,15.333-2.859,21.918a16.03,16.03,0,0,1-.715,2.621,2.113,2.113,0,0,0,1.906-1.668c1.043-.174-.192.473.476.477,1.646-.877,2.2-4.842,2.621-4.527C4088.951,425.321,4090.636,419.53,4091.361,416.036Zm2.859,9.053c1.407-3.806.947-5.485,1.906-9.053-1.168-.753-1.988-.5-2.859-1.668-.239.724-.393.3-.715,0-.094,6.865-1.21,12.3-.953,16.438,1.081-.825,1.8-2.009,2.859-2.859C4093.066,427.461,4095.232,424.369,4094.22,425.089Zm7.862-6.67c-1.606-1.385-3.347-1.192-5-2.382,1.084,2.758-.526,5.544,0,9.291C4099.286,422.922,4100.556,420.45,4102.082,418.418Z" transform="translate(-2631.981 -258.842)" fill="#26333b" fill-rule="evenodd"/>
      <path id="パス_27532" data-name="パス 27532" d="M4270.859,658c.1-.533,1.174-.1,1.668-.238,1.515,1.634,1.257,4.206-1.191,3.335-.192-.784-.67-1.9-.715-2.144C4269.81,658.79,4271.671,658.159,4270.859,658Z" transform="translate(-2912.73 -560.839)" fill="#26333b" fill-rule="evenodd"/>
      <path id="パス_27534" data-name="パス 27534" d="M4310.687,724.534c.27.045.132.239,0,.238.712-.01.469.464,1.429.953,1.367,3.961-4.634,1.868-2.144-.953C4310.31,724.793,4310.646,724.812,4310.687,724.534Z" transform="translate(-2942.075 -611.175)" fill="#26333b" fill-rule="evenodd"/>
      <path id="パス_27535" data-name="パス 27535" d="M3926.689,230.92c-3.878.207-5.818-.072-8.338-1.906a11.223,11.223,0,0,0-.715-3.335c.156-1.586,1.992-1.277,3.335-1.668,1.17-.34,1.678-1.038,2.859-.953C3927.133,223.295,3929.927,228.237,3926.689,230.92Z" transform="translate(-2646.938 -233.343)" fill="#26333b" fill-rule="evenodd"/>
      <path id="パス_27540" data-name="パス 27540" d="M4265.212,688.54c1.769-.472,2.239,1.225,2.382,2.859-.56.076-.894.377-1.668.238-.565-.969-.571-1.3-1.429-1.668.147-.212.288-.426,0-.476C4264.458,689.008,4266.339,688.609,4265.212,688.54Z" transform="translate(-2908.273 -583.996)" fill="#26333b" fill-rule="evenodd"/>
      <path id="パス_27543" data-name="パス 27543" d="M4320.1,699.072c.993-.276,1.175.02,2.144.238a7.554,7.554,0,0,0,0,1.191C4322.168,703.3,4319.284,702.063,4320.1,699.072Z" transform="translate(-2950.057 -591.908)" fill="#26333b" fill-rule="evenodd"/>
      <path id="パス_27545" data-name="パス 27545" d="M4347.428,716.541c-.21-.9-1.236-.987-.953-2.382C4349.056,711.167,4350.591,716.915,4347.428,716.541Z" transform="translate(-2970.002 -602.706)" fill="#26333b" fill-rule="evenodd"/>
      <path id="パス_27546" data-name="パス 27546" d="M4286.819,707.6c2-1.078,3.681,3.367,1.191,3.812C4286.388,710.944,4285.585,708.717,4286.819,707.6Z" transform="translate(-2924.64 -598.287)" fill="#26333b" fill-rule="evenodd"/>
      <path id="パス_27548" data-name="パス 27548" d="M4261.249,726.411a5.263,5.263,0,0,1,.715,2.382c-.58.461-1.993.229-2.621,0C4259.013,727.378,4259.4,726.233,4261.249,726.411Z" transform="translate(-2904.311 -612.576)" fill="#26333b" fill-rule="evenodd"/>
      <path id="パス_27550" data-name="パス 27550" d="M4278.978,741.87a2.988,2.988,0,0,0-.953-1.906C4278.959,735.1,4283.53,743.052,4278.978,741.87Z" transform="translate(-2918.466 -621.602)" fill="#26333b" fill-rule="evenodd"/>
      <path id="パス_27551" data-name="パス 27551" d="M4254.443,753.36c1.809-.374,2.253,1.327,1.668,2.621-.424-.445-.605.194-1.43,0C4254.8,755.524,4253.27,754.322,4254.443,753.36Z" transform="translate(-2900.364 -632.854)" fill="#26333b" fill-rule="evenodd"/>
    </g>
    <g id="星">
      <path id="パス_27527" data-name="パス 27527" d="M4513.326,413a.241.241,0,0,0,0-.476c1.721.3,2.412-.779,4.526-.953.477-.039.556.208.477.238,2.241-.867,4.761-.342,6.67-2.621.232.007.185.291.238.476,2.284-1.267,4.408-5.986,6.909-3.335-.73,4.689-4.912,5.435-7.624,7.623-8.12,1.515-19.121,2.516-27.159.238-2.662-.163-5.854-.383-7.861-1.191.486.2.05-1.2-1.191-.238-.4-1.11-4.644-.448-5.718-2.382-.231.006-.185.291-.238.476-6.92-2.534-14.317-4.418-18.82-9.529.646-.623.326-.73,0-1.429,4.466.857,7.99,4.95,12.388,5.479-.045.193-.239.237-.238.476a48.54,48.54,0,0,1,6.909,2.144c-.553.349.465.755-.477.715.039.279.435.2.715.238-.258-1.254,3.21-.326,3.573.715,4.4-.068,9.037,2.5,12.389,1.906,3.925,1.849,8.7.172,14.056.953C4513.234,412.576,4513.315,412.6,4513.326,413Z" transform="translate(-3058.235 -366.582)" fill="#26333b" fill-rule="evenodd"/>
      <path id="パス_27530" data-name="パス 27530" d="M4521,592.708c-.021.65.4.479,0,.953a1.476,1.476,0,0,1,2.144,1.191c1.291-.522,2.084.133,2.621,1.43,1.6.035,4.542,1.649,5.479,2.382.232-.006.186-.291.238-.476,1.348.808,1.749,1.1,3.1,1.906.039-.277-.053-.424-.238-.476,1.643.2,4.9,1.621,5.956,1.906,3.03.818,7.643.709,10.959,1.668.279-.039.2-.434.238-.715,1.747.425,3.551.448,4.05,1.668-3.023,2.734-6.181,1.007-10.244,1.191a.65.65,0,0,0-.476-.715c-.795,1.146-2.891-.394-3.574.238-.475-.24-1.018-.412-1.191-.953-5.735-.28-8.977-3.049-13.818-4.288-.286-.313-.092-.375,0-.715-1.8.008-3.738-1.95-5-2.382-.979-.334-3.41-2.107-2.858-2.621-.232.007-.186.291-.239.476-3.55-1.975-6.777-4.93-9.767-7.385a.657.657,0,0,1,.714-.476c-.026-.583-.788-.051-.714.238-.348-.773-1.893-1.32-1.43-2.144-.276-.039-.424.052-.477.238-.884-1.762-3.645-2.721-2.382-5.241a5.393,5.393,0,0,0,1.906.238c2.837,3.674,5.914,7.109,10.006,9.529.043.2-.093.225-.239.238C4517.126,590.315,4519.175,592.236,4521,592.708Z" transform="translate(-3088.543 -501.981)" fill="#26333b" fill-rule="evenodd"/>
      <path id="パス_27536" data-name="パス 27536" d="M4324.446,324.815c-.68-.26-1.454,1.223-1.43,1.668-2.286,1.582-5.457,2.054-5.241,4.527.006.232.291.185.476.238,0,3.306,1.749,6.381.953,10.006.51.939.7,2.259-.238,2.858-.343-.054-.083-.711-.477-.715-.713.157.229.509,0,.953-.562-.307-.443.031-1.191-.238.791-.715.136-.265-.715-.238a7.609,7.609,0,0,0-3.335-2.621c.084-.313.419-.375.477-.715a9.736,9.736,0,0,1-2.145.238c-.706-1.121-2.295-1.358-2.858-2.621-.593.026-.738.447-1.191,0,.313.34-.83,1.765-1.191,1.429-.334.084-.021.419.238.477-.6.753-1.8.9-1.667,2.382-.883-.521-.519.071-.715.953-1.078-.648-.478,1.084-1.43,1.668-.707.43-4.238-.392-2.144-2.383-1.021-.033-1.532-6.246-.476-8.1-1.048-3.041-6.807-2.687-5.956-6.194,1.856-.586,4.89-.414,6.67-1.429.437-5.818,1.057-9.146,2.382-12.865.6-.132,3.531-.984,3.812,1.43.607-.865,1.547,1.146,1.429,1.906.985-.191.724.865,1.668.715-.33,1.442,2,2.246,2.382,3.1,2.035.8,5.649.174,8.1.477C4321.949,321.88,4324.751,321.889,4324.446,324.815Z" transform="translate(-2930.581 -301.747)" fill="#26333b" fill-rule="evenodd"/>
      <path id="パス_27537" data-name="パス 27537" d="M4433.875,534.944c-.074-.41-.828.309-.715-.715a8.579,8.579,0,0,1-4.05,1.191c-1.158-.6-.573-2.652-.953-2.859.948-.59-.129-3.451,1.43-3.1-.133-.538-.372.289-.715-.238a5.357,5.357,0,0,0,.477-1.429,1.122,1.122,0,0,0,.715.238c-.009-1.93-2.025-3.6-2.382-5-2.406-.061-.619-2.572-1.191-2.382.362-.962,2.408-.431,2.382.476.8-.275.691-.615,1.43-.238.479-.534-.391-1.468,1.191-1.191-.026-.45-.788-.165-.714-.715.536-2.579,1.945-4.736,3.812-3.812,2.191,1.085,2.388,6.826,5,6.909.231.007.186.291.238.477,1.564-.468,6.845-.138,5.479,3.1-3.038.6-6.578,1.838-7.147,5.718-.3,2.033.364,4.1-.238,5.718C4436.094,537.3,4433.878,536.69,4433.875,534.944Z" transform="translate(-3030.243 -453.27)" fill="#26333b" fill-rule="evenodd"/>
    </g>
    <g id="月" transform="translate(730 280)">
      <path id="パス_27552" data-name="パス 27552" d="M4092.872,859c.833.124-.269-1.646.762-1.9-.782-3.064-4.1-1.871-6.1-3.238-.171-.869.317-1.08.381-1.714,1.328-.038,2.964.672,4.381-.191.043-.642.473-1.527.953-1.143-.026-2.589.813-5.174.952-7.429a1.071,1.071,0,0,0,.762.19c-.134.363.941,2.03,0,2.476.031.223.348.161.572.191-.221.516-.092.474,0,1.143-.8-.406.415.424-.381.762.221.031.339-.042.381-.19,1.1,2.781,4.41,4.343,5.714,6.286.568-.817.244,1.041.571.381.541,1.767-3.048,1.306-4.571,2.476-.371,2.06-1.994,2.375-2.286,3.619-.129.55.565,1.841-.571,1.333.124.194.438.2.38.571a1.552,1.552,0,0,1-1.143.572C4092.724,862.135,4093.186,860.062,4092.872,859Zm2.286-8a7.133,7.133,0,0,1-1.333,2.286c.6.875,1.184.944,1.523,2.286.449,0,.561-.328,1.144-.19-.085-1.03,1.1-.425,1.9-1.143C4097.037,853.166,4096.208,851.954,4095.157,850.995Z" transform="translate(-3547.707 -993.668)" fill="#26333b" fill-rule="evenodd"/>
      <path id="パス_27553" data-name="パス 27553" d="M3860.712,899.385c-.505-2.016.025-4.949-1.524-7.238a8.664,8.664,0,0,1-3.238,0c.157-.538-.269-.493-.19-.952,3.612-.482,4.372-2.939,4.571-7.238,1.864.378.909,2.932,1.143,3.619,1.427.8,1.927,2.517,3.62,3.048.206.486-.82.667-.19.952-.4.293-1.479.646-1.714,0a4.49,4.49,0,0,1-1.524,1.524C3861.862,894.933,3863.725,899.166,3860.712,899.385Zm-.19-8c.811-.078.807-.971,1.714-.952a2.754,2.754,0,0,0-.953-1.333C3861.532,890.3,3859.941,890.462,3860.521,891.385Z" transform="translate(-3361.643 -1026.248)" fill="#26333b" fill-rule="evenodd"/>
      <path id="パス_27554" data-name="パス 27554" d="M4096.558,965.76c-.006.185-.233.148-.381.191,1.295,2.014,3.117,4.958,2.857,7.048a3.5,3.5,0,0,1,.572,3.048c.484.064.649,3.441.19,3.238.744.956.53,1.393,0,2.286.6,1.859.283,3.7.19,5.9-.994-.495-.348.381-.952,0-.306.53.822.527.762.191-.437,2.243-1.176,4.712-2.857,5.714a3.285,3.285,0,0,1-2.476,2.857c-1.123,1.849-3.907,2.512-6.1,3.809-.229-.25-.074-.3,0-.572-.332-.056-.668.739,0,.572-.762.175-2.02,1.724-2.667.762-4.637,3.242-14.211,1.528-18.476-1.9v-.571c-1.388-.467-3.744-3.32-4.952-4.952-.264-.356.453-.6-.381-.572-.294-1.808-2.126-2.869-2.1-5.333-.847-1.118-1.792-2.6-.571-3.809.859-.277,1.559.585,1.714.381.487,2.1,3.933,2.059,5.333,3.429.185-.005.148-.233.19-.381,5.606,2.137,9.5-1.267,13.524-2.1.733-1.558,4.129-2.008,4.762-4.191.47.146,1.03-1.541,1.714-1.143a5.5,5.5,0,0,1,1.9-3.619c-.036-.216-.191-.106-.19,0,.8-2.819.75-5.583,1.143-8.191-.722-2.157-.621-4.268-1.143-7.048.83-.148.983-.123,1.333-.952,1.211-.507,2.026.957,2.476,1.333A19.066,19.066,0,0,1,4096.558,965.76Zm-4.762-2.476c-.383-.453-2.227-2.034-2.285-1.714.011-.116.028-.226.19-.19,2.578,7.728,2.136,17.541-4.19,22.1-2.062,2.6-5.147,3.77-8.381,5.143-2.952,1.253-7.586,2.51-10.856.571.027-.225.338-.432,0-.571-.373,1.689-3.039-.324-3.619.381,1.242,2.275,4.537,7.467,6.856,7.619.082.363.411.479.381.952.513-.078,2.038.6,1.9,1.333,1.99.058,3.315,1.062,4.952,1.143a24.1,24.1,0,0,0,8.572-1.333c.019.214-.277.3,0,.381.737-1.423,2.841-1.227,4.19-2.1.451-.29.412-.785.952-1.143.813-.54,3.587-1.775,4.381-2.857.332-.453-.188-1.384.762-1.9.587-.323.935-2.079,1.714-3.047-.1-1.729.476-2.716.381-4.572-.108-2.119-.719-5.072-.571-5.9.055-.31.413.038-.191-.381.928-1.761-.816-3.783-.762-5.333,0-.01.739-.318-.19-.19-.376-2.062-1.075-2.546-1.333-4C4093.908,966.882,4093.027,964.74,4091.8,963.284Z" transform="translate(-3524.536 -1087.1)" fill="#26333b" fill-rule="evenodd"/>
      <path id="パス_27556" data-name="パス 27556" d="M3929.5,1076.526c-.084.169-.167.341-.381.381.544-.024,1.915.227,1.9,1.333.389-.407.754.054,1.143.19.376.658-.649.838-.19.952-2.031.89-2.982,2.86-4.572,4.191.98,1.645-.2,3.83-.762,5.143-1.567-.182-1.122-2.474-1.143-3.428-.052-2.348.568-6.05-3.238-5.143-.036-.535-.622-.521-.762-.953.021-.487.35-.667.571-.952.5-.054.82.07.762.571.37.076.278-.868-.19-.571,3.1-.947,2.927-4.363,3.429-7.81C3928.614,1071.26,3926.376,1075.782,3929.5,1076.526Zm-2.476,3.619a5.6,5.6,0,0,0,2.1-1.524c-.689-.356-1.492-1.079-1.524-1.524-.225.569-.165-.7-.762-.381-.046.78-.536,1.116-.762,1.714,0-.106-.155-.216-.191,0C3926.248,1079.017,3926.933,1079.284,3927.024,1080.145Z" transform="translate(-3414.431 -1175.961)" fill="#26333b" fill-rule="evenodd"/>
      <path id="パス_27557" data-name="パス 27557" d="M4360.245,1078.732c.266-.113.782-.172.762-.571.957.711.913,3.218.762,3.809.67.8.841,2.147,1.333,2.857,1.724.83,4.7,1.528,6.286,2.476-.124,2.1-2.789,1.656-4,2.667a9.829,9.829,0,0,0-1.523,6.476,8.563,8.563,0,0,1-2.857,1.714c-.91-.868-.952-2.6-1.523-3.81a1.344,1.344,0,0,1,.571-.381c-.736-.741-1.752-3.6-3.429-4.572-.976.79-2.016.372-3.619.572-1.768-2.236,1.039-2.173,2.286-2.476a7.111,7.111,0,0,0,4-2.476C4360.078,1083.769,4359.769,1080.138,4360.245,1078.732Zm-1.715,9.714c1.664.964,1.98,2.469,3.429,4,.1-1.6,1.435-2.245,1.143-3.238.389-.106.374-.573.763-.19.067-.685.3-.906.571-.952-.727-.329.741.015.571-.381-1.9-.2-2.477-1.529-3.81-2.667C4361.458,1086.62,4359.354,1087.313,4358.53,1088.447Z" transform="translate(-3760.414 -1182.167)" fill="#26333b" fill-rule="evenodd"/>
      <path id="パス_27558" data-name="パス 27558" d="M4146.036,1245.2c.971.712.594,2,1.143,2.667.944,1.15,5.3,2.98,5.143,5.714-2.4.732-4.563,2.781-4.572,4.762-.449-.146-.187.753-.952.762a3.889,3.889,0,0,1-.952,2.667,1.969,1.969,0,0,1-1.333,2.857c.037-.154.191-.19.19-.381-.49.506-.272-.366-.762-.381-.53-2.013.587-4.4,0-7.048-.532-2.4-2.433-2.348-4.762-2.857-.962-1.534,2.487-2.287,3.81-2.1.1-.765,2.276-1.623,1.714-3.048a.9.9,0,0,1,.571-.19c-1.015.2-.393-3.03-.571-4.762.389-.137.754-.6,1.143-.191C4145.374,1244.378,4147.007,1244.256,4146.036,1245.2Zm-1.9,8.19c.624.532,1.942,1.266,1.143,2.1.721-.276.365.523.953.381.345-1.822,2.073-2.559,3.238-3.238-.13-.6.022-.778-.19-.952-.041.214-.211.3-.381.381a9.469,9.469,0,0,0-2.286-2.667C4147.178,1250.77,4145,1252.234,4144.131,1253.392Z" transform="translate(-3589.062 -1314.922)" fill="#26333b" fill-rule="evenodd"/>
    </g>
    <path id="雲" d="M3411.763,1066.7a5.074,5.074,0,0,1,8.191-2.857c.054.308-.18.328-.19.572.626-.531.79.62,1.333.762,1.079-2.854,6.674-2.394,9.333-.762-.5.6,1.042.369.762,1.333,1.161-1.779,5.459-2.539,6.286-2.857h.571c-.139.316,3,.608,4,1.524a.521.521,0,0,0,0,.762c.058-1.239,1.679,1.644.762,1.9-.06,1.151,1.349.23,2.667.191.227-.007.1.37.19.381,1.037.126,2.693-.355,3.81,0-.461-.146-.08,1.037.19,0,.223.031.16.347.19.571,3.839-.517,7.111,5.824,3.809,8.762.216.6-.054.5.191.952,3.575,1.076,4.393,7.624.953,10.1-1.672,1.2-3.614,1.065-5.905.571-.617,5.143-5.81,4.616-8.762,4.381-.054-.307.18-.328.19-.571-.515.243-.863.514-1.143.19-.164,1.018-1.185.518-.762,1.333-1.488.409-2.346,2.053-3.429,1.143a6.527,6.527,0,0,0-.762.952c-.277-.295-.975-.168-1.524-.191-.259.676-.383.3-.953.572,1.074,1.042-1.938,3.466-4.19,3.047a3.354,3.354,0,0,0-.952,2.1c-.218-.229-.483-.074-.19,0-.043.243-.568.249-.571,0-.319,1.208-2.136.935-2.857,1.9-2.217.05-2.75.49-5.334.19.067-.25.336-.3.381-.571-1.157-.121-1.08,1.129-1.143.19-.763.245.053.394,0,.952a3.925,3.925,0,0,0-1.9,2.286c-1.766-.206-2.453,1.462-4.381.952-.95.695-4.693.8-5.143-.571-1.207.638-1.658-.964-2.285-1.524a6.463,6.463,0,0,0-1.524.952,1.343,1.343,0,0,1-.381-.572c-.4.053.276.509-.191.762-.516-.284-3.259,1.3-4.19,0-2.553.87-3.92-2.943-3.048-4.572-3.114-.7-5.25-5.521-2.666-8.191.207.047.129.379.381.381.283-.083-.075-.243,0-.571,1.4-.545,4.04-2.337,5.714-.762.7-.433-.219-1.392-.381-2.1a26.293,26.293,0,0,0,0-4,1.071,1.071,0,0,0,.762.19c.1-.675-.675-.468-.571-1.143.265-.977,1.128-1.59,1.143-2.286a1.068,1.068,0,0,0,.762.19c-.082-.3-.6-.163-.381-.762.791-.138.894-1.477,3.048-1.524,1.056-.023,1.866.785,3.238.952-.355.338.256.552.381.952.968-1,1.733-2.2,3.238-2.667a11.753,11.753,0,0,1-.381-8.571c1.215-.354,1.441-1.9,3.238-1.143-.084-.169-.167-.341-.381-.381C3411.839,1070.561,3412.114,1067.533,3411.763,1066.7Zm9.714,1.333c-1.567.985-2.283-2.985-4.762-3.048s-2.864,1.912-2.857,3.048c.009,1.479,1.27,5.91-1.9,4.571.325.137-.365-.29-.953-.381-.408.773-.992.935-1.714,1.714.226,3.047-.3,2.982,1.143,5.714,1.332-.267,1.542-.936,2.857-.19.713-.767,2.111,0,2.286.571,1.454-.072,1.827,2.778,1.9,4.191,5.669-.406,10.878,4.207,6.476,8.381a9.821,9.821,0,0,1,3.238,4.191c1.074.314,3.69-1.542,2.667-2.1.446-.535.321-1.077,1.143-1.524,2.613.225,4.48.712,5.714-1.9-1.42-.529-1.163-1.6-.571-2.286,2.743.471,6.567,2.77,9.9.762.348-.576.023-1.1.571-1.143-1.448-4.125,4.256-1.615,6.1-2.286-.419-.494.827-.943,1.333-1.143,1.345-3.413-1.86-5.894-4.19-7.809.42-.024.081-.808.19-1.143.536-.162.782-.615,1.524-.572,1.136-1.423,1.388-2.475.19-4.762-.944.423-1.528-.615-2.1-1.143-.075.328.283.488,0,.571-1.3-1.014-2.314-.653-4-.571a.526.526,0,0,0-.381-.572c-1.445.153-3.545,1.616-4.572.381-.4-.484-.02-1.987-.381-2.857-.716-1.725-4.547-1.483-6.286-.571-.128.067-1.435,1.541-2.286,1.714.222.032.208.3.19.571-1.31.862-2.251-.081-2.856-1.333.311.139.828-.378.381-.381a5.194,5.194,0,0,1-2.477-1.333c-1.653.458-1.988-.366-3.809.19C3422.051,1067.145,3422.423,1067.443,3421.478,1068.037Zm-8.571,13.333c-.331.072-2.357.836-3.81,1.143-.385,1.193-.592.5-1.333,1.333.18.3-.643,1.645-.953,1.524.334.439.062.895-.381,1.333-.041-.23-.211-.117-.381,0-.03-.224.033-.541-.19-.572-.462.258-.119.381-.381.572-1.253-.361-2.038-2.117-2.285-2.857-1.263-.04-1.417-.3-2.286,0-.28.08-2.494,2.191-1.714,3.429-.225.03-.541-.033-.572.19.846,1.038.691,4.536,1.333,6.857-.632.058-1.35.394-1.524-.381-2.309-.262-3.679,1.341-5.9,1.714-2.037,5.039,6.022,2.745,4.952,6.476-.7-.04-1.585.975-1.9,1.143.071,1.28,1.239.914,2.286,1.9-.282-1.066,1.45.015,2.1-.952.281.685,2.353-.575,3.048-1.9,2.171-.2,1.716,2.22,3.047,2.857,2.095.795,4.282-.015,6.286-.191,1.047-1.341,2.043-1.027,2.476-2.286.206-.6-.641-1.894.381-2.476,1.669-.333,2.453,1.225,3.047,1.333-.116-.011-.226-.028-.19-.191,2.434-.277,5.743.2,6.667-2.286a1.1,1.1,0,0,1-.571-1.333c.258-.06.364-.271.762-.19-.918-2.768-2.571-3.986-4.19-4-.492-2.59,2.846-2.738,2.667-4.572-.123-1.258-2.636-1.543-1.715-2.476-.612-.168-.261.628-.762.571-.32-.536-.973.031-.571-.571-.768.36-4.559-.459-3.619.381-1.268.252-1.637-.394-2.1-.953C3415.325,1083.69,3414.884,1080.941,3412.906,1081.371Z" transform="translate(-2037.742 -839.758)" fill="#26333b" fill-rule="evenodd"/>
  </g>
</svg>
