<svg xmlns="http://www.w3.org/2000/svg" width="269.188" height="295.62" viewBox="0 0 269.188 295.62">
  <g id="L" transform="translate(-368.296 6.235)">
    <g id="星">
      <path id="パス_27528" data-name="パス 27528" d="M336.765,432.2c.232-.007.185-.291.238-.476.452,1.1,1.747,2.029,1.906,4.05a4.068,4.068,0,0,0,.953.715c.168,1.6,1.023,3.453,1.429,5.48-.474,2.246-3.6,2.884-5.718,1.668-1.274.988-3.576-.709-5.48,0-1-.962-2.308-.2-2.62-1.668-.5.2-.929.981-1.43.476.7.976-.4,1.422-.715,2.382-.129.4.06,1.073,0,1.191-.206.405-.618,0-.953.477-.715,1.009-.434,3.425-1.668,2.621.989,1.233-1.2,2.905-1.906,2.859-2.684-.178-3.448-6.089-3.574-7.862-.045-.27-.239-.132-.238,0-.968-1.346.078-2.533-.476-3.812-1.53-3.531-8.18-3.919-8.576-8.1,1.658-2.208,5.142-1.222,6.194-3.574.531-1.187-.822-4.594-.953-6.194-.266-3.251.187-6.443-.238-8.815.767-1.025,1.42-.976,1.429-1.191,4.583-.208,7.917,3.882,10.72,7.385,5.809.224,8.521-5.348,14.294-3.812C341.37,421.444,335.632,427.308,336.765,432.2Zm-2.144-.476c-1.5-.278-1.176-2.919-.715-3.1-.247-.245.235-2.046.953-1.906-.114-2.7,2.237-5.156,1.906-7.862-4.316,1.775-7.867,4.973-13.341,4.288-2.309-3.183-3.747-5.648-7.385-7.386a7.433,7.433,0,0,1-.715,4.527,1.121,1.121,0,0,0,.715-.238c.1,2.684.343,5.926.477,7.862,1.309-.316,3.151.621,2.621,2.144-2.743.709-4.213,2.174-6.909,3.335,1.6,1.053,3.665,1.881,5,3.1,2.569,2.334,1.73,6.247,3.812,10.244.757-1.36.664-2.62,1.906-3.1-.34-.093-.4-.286-.715,0,1.029-1.353,1.894-2.871,2.859-4.288,4.339-.073,8.509,2.031,12.627,1.668-.656-2.365-2.116-5.452-2.382-7.147C334.925,434.315,333.554,432.079,334.621,431.728Z" transform="translate(72.714 -376.022)" fill="#26333b" fill-rule="evenodd"/>
      <path id="パス_27529" data-name="パス 27529" d="M503.639,458.245c1.091-1.794,4.074-3.362,6.432-3.812,1.348,1.216.984,5.315-.715,6.194.8,1.03-.331,1.432-.238,2.382.16,1.632,1.542,3.637,2.383,5.48.741,1.626,1.917,4.594,1.668,5.241.016-.041-.476-.236-.476-.238.033.353.922,1.353.476,1.906-2.56,2.611-5.593-.351-8.338-1.429-.471-1.4-.55-.723-1.429-1.429-2.471.7-2.514,5.246-6.194,4.527-1.66-2.115.44-5.247-1.191-6.671a.657.657,0,0,1,.715-.476c-2.833-1.468-4.583-4.141-7.147-5.241a6.428,6.428,0,0,1,.476-2.382c2.034-.5,2.93-1.1,4.765-1.429-.109-2.778-1.759-4.877-1.429-7.862C497.479,451.4,501.539,456.14,503.639,458.245Zm-3.335-.238c-.8.289-2.662-.915-2.382-1.668-1,.2-1.125-.463-1.906-.476.154,1.268,1,3.312.953,4.764.379.105,2.188.824,2.621,1.668-.4.473.022.3,0,.953-1.44-.249-1.653.73-2.144,1.43-.695.06-.822-.449-1.191-.715-.506.572-.887.418-1.429.238.86,1.511,2.963,2.819,3.812,3.574-.551.6.7.754-.238,1.191,1.583.247.942,2.01,1.191,2.859.133-.5.372-.5.715-.238,2.142-5.6,6.454.96,9.291,1.191-.5-2.439-2.967-6.958-3.1-10.482.878-.171-.04-.777.953-.953-.641.164-.46-.493-.715-.715,1.071-.826,1.244-.874.953-2.144C505.306,461.138,500.655,460.712,500.3,458.007Z" transform="translate(-64.142 -406.351)" fill="#26333b" fill-rule="evenodd"/>
    </g>
    <g id="気球" transform="translate(-1364.092 -76.425)">
      <path id="パス_27568" data-name="パス 27568" d="M2141.154,250.133c1.527.288,4.637-.461,6.613,1.129a.982.982,0,0,1,1.452.484,1.138,1.138,0,0,0,.323-.484c3.834,1.454,6.022,5.38,7.419,8.871a.445.445,0,0,1-.484.323c.1.731.741.081.806.968-.131-.031-.161-.162-.323-.161,1.414,2.019.472,3.832,1.29,5-.941,1.983.472,4.881-.968,6.29.675.091-.154.591.161,1.29a.905.905,0,0,1-.645.161c.7.544-.6,2.1-.161,2.9-.131-.031-.161-.162-.323-.161-.378,2.1-1.944,4.394-2.419,6.936-.585-.587.015.834-.806.484a3.755,3.755,0,0,1-.162,1.613c-.084.194-.515.282-.645.484-.8,1.249-1.06,3.876-2.258,4.194.546,1.028-.9,1.316-.806,2.419-.625-.1-.664-.134-1.129.161.039.416.277-.221.645,0-.54.847-.668,3.1-2.419,3.226-.463,2.265-.038,5.124-1.613,6.613.158.452.43-.234.645.161-.58.309.618.993-.161.968.8.42.15,2.661.323,2.419,1.086,3.544-3.646,3.638-6.129,4.032-1.891-1.041-1.269-4.46-1.129-7.419-.924-1.215-.581-3.677-1.129-5.806-.071-.239-.207.064-.484,0a71.265,71.265,0,0,0-5.323-7.742v-.806c-1.936-1.933-2.226-3.858-3.549-6.936-.026-.189-.294-.136-.484-.161a13.562,13.562,0,0,0-.806-3.71,22.21,22.21,0,0,1-.968-7.1c.043-2.061-.055-3.679-.161-5.806.578.195.085-1.238.645-1.129.089-.358-.308-.23-.323-.484.818-2.311,1.285-4.464,2.581-6.452,1.116-1.711,3.458-2.769,4.194-3.71,2.738-1.442,5.667-3.057,9.032-2.742C2141.406,250.312,2141.335,250.167,2141.154,250.133Zm.645,43.548c.021-.45-.286-1.119-.323-1.774-.159-2.871-.254-8.3-.161-11.935-1.3-8.29-3.034-18.2,0-28.064-1.263.351-2.291.106-3.387.968-.99.777-3.272,4.546-3.387,6.29-1.693,2.172-1.1,6.012-1.452,7.581a12.64,12.64,0,0,0,.161,4.355c.063.766.228,1.373.323,2.1.162,1.235.032,2.28.161,3.065.192,1.169,1.311,2.668.807,3.71,1.4,1.492,1.107,4.234,2.258,5.645-.039.23-.266.272-.323.484.949-.2.595,2.364,1.291,2.258.189.428-.309.95,0,.968,1.039,1.592,1.6,4.666,2.581,6.452.575-.382.982-.07,1.29-.161A9.919,9.919,0,0,1,2141.8,293.681Zm4.677-3.871c.4-.5-.291.35.161.323.105-.2.462.439.645.323a9.864,9.864,0,0,0-1.452,3.871,45.341,45.341,0,0,0,2.742-4.839c.181-.017.251.234.323,0-.181-.034-.251-.179-.323-.323.973-1.056,1.36-2.628,1.935-3.064-.271-.66.783-2.642.968-1.936-.286-.529.244-1.807.645-1.613-.115-.814.5-.9.323-1.774a3.044,3.044,0,0,0,.806-1.774c.591.239.446-2.393,1.452-2.742.227.042.184.354.323.484.44.015.325-.269.645,0a.906.906,0,0,1,.161-.645c-.789-.014-.435-.691-1.29-.323.491-1.283.7-2.849,1.451-3.871-.331-3.446.539-7.01-.645-10.484-.036.125,0,.318-.161.323.227-1.348-1.331-2.108-.484-3.064-.72.232-1-1.138-1.452-1.935a11.486,11.486,0,0,0-4.516-4.032c-.068.359-.856.126-.968,0,1.646,1.872,2.237,4.544,3.064,6.451.7,1.6.445,4.073.968,5.323.182.435-.09-.092,0,.323.048.218.429.212.484.484a3.388,3.388,0,0,1-.323,1.452c.009.162.537.323.484.645-.222,1.337,0,2.893-.323,4.032.125.036.318,0,.323.161-.093,3.641-2.681,10.051-3.387,13.871-.381,2.063-2.035,3.877-2.258,4.355-.381-.473.31-.6,0-.806C2146.621,289.113,2146.159,289.737,2146.477,289.81Zm-4.677,7.419c.791,1.71.631,2.8.484,5.161.768-.058,1.206-.088,1.613-.161a19.727,19.727,0,0,1,1.129-5.161C2143.645,297.192,2143.692,297.132,2141.8,297.23Zm-3.064.484c.34,1.378,1.047,3.348.807,5a2.353,2.353,0,0,0,1.451-.323c-.644-1.568-.023-2.742-.161-5C2139.931,297.311,2139.325,297.126,2138.735,297.714Zm.807,6.452a28.082,28.082,0,0,0,.484,4.032c1.141.378,2.415-.524,3.71,0-.591-1.272.292-2.356.161-4.032C2141.886,304.064,2140.573,304.223,2139.542,304.165Z" transform="translate(-202.057 10)" fill="#26333b" fill-rule="evenodd"/>
      <path id="パス_27569" data-name="パス 27569" d="M1859.351,487.817c2.026.382,6.149-.611,8.77,1.5a1.3,1.3,0,0,1,1.925.642,1.512,1.512,0,0,0,.428-.642c5.085,1.928,7.987,7.135,9.84,11.765a.59.59,0,0,1-.642.428c.13.97.983.107,1.07,1.283-.173-.04-.213-.215-.428-.214,1.875,2.678.626,5.082,1.711,6.631-1.249,2.631.626,6.473-1.283,8.342.895.121-.2.784.214,1.711a1.2,1.2,0,0,1-.855.214c.926.721-.791,2.78-.214,3.85-.173-.041-.213-.215-.428-.214-.5,2.789-2.579,5.827-3.209,9.2-.775-.779.021,1.106-1.069.642a4.979,4.979,0,0,1-.214,2.139c-.112.257-.684.373-.855.642-1.061,1.657-1.407,5.14-2.995,5.562.725,1.363-1.2,1.745-1.07,3.209-.828-.133-.881-.177-1.5.214.051.552.368-.294.855,0-.716,1.123-.886,4.106-3.208,4.278-.614,3-.051,6.8-2.139,8.77.21.6.571-.311.855.214-.769.41.819,1.317-.214,1.283,1.067.557.2,3.529.428,3.209,1.438,4.7-4.83,4.824-8.128,5.347-2.508-1.381-1.683-5.914-1.5-9.839-1.226-1.611-.771-4.876-1.5-7.7-.094-.317-.273.084-.642,0a94.535,94.535,0,0,0-7.059-10.267v-1.07c-2.567-2.563-2.952-5.116-4.706-9.2-.034-.251-.39-.18-.642-.214.127-1.291-.717-3.646-1.07-4.92a29.45,29.45,0,0,1-1.283-9.412c.056-2.733-.073-4.88-.214-7.7.766.258.112-1.642.856-1.5.118-.474-.408-.3-.428-.642,1.085-3.064,1.7-5.92,3.422-8.556,1.479-2.269,4.586-3.672,5.562-4.92,3.631-1.912,7.515-4.054,11.979-3.637C1859.684,488.054,1859.591,487.862,1859.351,487.817Zm5.348,53.262c-.131-.012-.253-.032-.214-.214a75.141,75.141,0,0,1,3.636-9.412c.283-.616-.02-1.488.214-2.353.437-1.617,1.846-4.5,1.925-5.134.417-3.321,1.676-7.035,1.07-11.337.413-.087.019-.98.856-.642.228-.8-.8-.339-.642-1.07-.8-6.615-1.609-16.244-7.059-20.749a4.323,4.323,0,0,1-2.567-.214c-2.49,4.732-2.833,10.144-2.567,15.4a190.08,190.08,0,0,0,2.781,21.6c-.706,1.8.34,3.6.428,5.562.043.958-.519,2.225-.428,3.422,0,.045.4.071.428.428.248,3.316-.522,6.308.214,8.984C1863.631,544.018,1863.875,541.215,1864.7,541.079Zm-4.492,4.492c.027-.6-.38-1.485-.428-2.353-.211-3.807-.337-11-.214-15.829-1.722-10.994-4.024-24.136,0-37.219-1.676.465-3.038.141-4.492,1.283-1.313,1.031-4.34,6.029-4.492,8.342-2.245,2.88-1.461,7.972-1.925,10.053-.51,2.286.088,4.235.214,5.775.083,1.016.3,1.82.428,2.781.215,1.638.043,3.024.214,4.064.255,1.551,1.739,3.538,1.07,4.92,1.853,1.978,1.468,5.615,2.995,7.487-.051.305-.352.361-.428.642,1.259-.268.789,3.136,1.711,2.995.251.567-.41,1.26,0,1.283,1.378,2.111,2.123,6.189,3.422,8.556.763-.506,1.3-.093,1.711-.214A13.122,13.122,0,0,1,1860.206,545.571Zm5.989-5.775c.73.241-.068.829.428,1.07.14-.266.613.583.856.428a13.086,13.086,0,0,0-1.925,5.134,60.106,60.106,0,0,0,3.636-6.417c.24-.022.333.311.428,0-.24-.045-.333-.237-.428-.428,1.291-1.4,1.8-3.485,2.567-4.064-.359-.875,1.039-3.5,1.284-2.567-.379-.7.323-2.4.855-2.139-.152-1.079.658-1.2.428-2.353a4.04,4.04,0,0,0,1.07-2.353c.783.316.591-3.174,1.925-3.637.3.056.244.469.428.642.583.019.43-.356.856,0a1.2,1.2,0,0,1,.214-.856c-1.047-.018-.578-.917-1.711-.428.652-1.7.927-3.779,1.925-5.134-.439-4.571.714-9.3-.856-13.9-.048.166-.006.422-.214.428.3-1.788-1.766-2.8-.642-4.064-.956.307-1.324-1.509-1.925-2.567-1.157-2.037-3.161-3.727-5.99-5.348-.09.476-1.135.167-1.283,0,2.184,2.483,2.966,6.026,4.064,8.556.923,2.127.591,5.4,1.283,7.059.241.576-.12-.122,0,.428.063.289.569.281.642.642a4.5,4.5,0,0,1-.428,1.925c.012.214.712.428.642.856-.294,1.773.006,3.836-.428,5.347.166.048.422.006.428.214-.123,4.829-3.556,13.33-4.492,18.4-.506,2.736-2.7,5.141-2.995,5.776-.5-.627.411-.795,0-1.07C1866.834,539.721,1866.244,539.487,1866.2,539.8Zm-15.4-47.059c-.032.468-.539.459-1.07.428-.473.308.269.522-.214.642-3.649,2.055-5.805,5.6-7.487,9.626.114-.62-.833.328-.214.214.606-.321-.04,1.971-.214,2.139-.762.737.129-.288.214.214.292,1.722-.777,4.377-.856,6.2,0-.008.412.066.428.214.138,1.274-.765,2.993,0,4.492a5.16,5.16,0,0,1-.855.856,1,1,0,0,0,.642-.214c.841,2.1.707,5.006,1.283,6.845-.032.246,1.372,2.235.428,2.781,1.342,1.431,2.5,5.154,2.995,6.845,1.162.557,1.312,1.939,1.5,3.208,1.786,1.236,2.479,4.209,4.064,6.417.047-.167.179-.249.428-.214.289,1.349,1.534,5.593,3.851,4.706-.525-1.679-2.307-3.91-2.567-5.989-.137-1.1-.5-1.122-.856-2.139-2.774-7.909-5.5-18.037-5.989-26.31-.1-1.608.633-2.7-.214-3.209a30.719,30.719,0,0,0,.642-5.989c-.065-.493.618-.238.642-.642-.533-3.232,2.361-7.053,3.209-9.2.24-.022.333.311.428,0-1.061-.327,1.124-1.536.427-2.139C1851.038,493.177,1850.882,493.205,1850.795,492.737Zm9.412,57.54c1.049,2.267.837,3.718.642,6.845,1.019-.077,1.6-.117,2.139-.214.112-2.95.836-4.324,1.5-6.845C1862.654,550.227,1862.717,550.147,1860.206,550.277Zm-4.064.642c.451,1.827,1.388,4.44,1.07,6.631a3.123,3.123,0,0,0,1.925-.428c-.855-2.079-.031-3.637-.214-6.631C1857.728,550.385,1856.925,550.139,1856.142,550.919Zm1.07,8.556c.02,2.783.367,2.626.642,5.347,1.513.5,3.2-.7,4.92,0-.783-1.686.388-3.124.214-5.347C1860.321,559.34,1858.579,559.551,1857.211,559.475Z" transform="translate(0 -202.006)" fill="#26333b" fill-rule="evenodd"/>
    </g>
    <g id="太陽" transform="translate(-788.793 -416.409)">
      <path id="パス_27559" data-name="パス 27559" d="M1368.685,626.875c-.006-.217-.273-.173-.446-.223.133-.893,1.891.345,1.785-.67a1.127,1.127,0,0,1,.67.67c.684-.927,2.045.01,2.9.67.184.631-.314.578-.223,1.116a3.871,3.871,0,0,0-2.232.67c-.972-1.407-3.608-.2-3.348-2.455C1368.193,626.623,1368.263,626.925,1368.685,626.875Z" transform="translate(-5.141 -91.409)" fill="#26333b" fill-rule="evenodd"/>
      <path id="パス_27560" data-name="パス 27560" d="M1476.417,596.75c1.043-.147,3.549.933,3.348,2.009,2.394.425,1.669,2.621,3.348,3.794-.489.774-.46.411.223.67-.224.3-.211.83-.67.893a1.581,1.581,0,0,0,.67.446c-.345,3.289.512,5.752-.893,7.811-.4.587-.309.395-.446.893-.292,1.056-2.226,2.994-3.348,3.794-.652.465-1.8.181-1.785,1.116-.965-.57-2.477.916-3.124,0-3.6,1.972-7.665-.166-10.713-2.232.494-.321-.281-.545.223-.669-2.851-3.158-3.788-7.311-2.232-9.82-.522-.309.537-3.824,1.339-4.91a9.632,9.632,0,0,1,1.116-.67c1.523-1.315,3.143-4.163,4.91-2.9.036-.26-.049-.4-.223-.446C1470.337,595.979,1474.211,594.437,1476.417,596.75Zm-1.339,1.562c-1.794.08-3.672-.005-5.356,0a10.676,10.676,0,0,0-6.472,7.588,24.417,24.417,0,0,0-.669,2.9c.021.189.608.113.669.223.659,1.175.169,2.786,1.339,4.017a16.7,16.7,0,0,0,3.571,3.124c2.961-1.248,5.676.025,8.927-1.339.849-.862.968-2.454,2.455-2.678.091-.538-.407-.485-.223-1.116.334-.038.824.08.893-.223-.322-.494-.545.281-.67-.223a8.07,8.07,0,0,0,.893-4.464c-.064-1.109-.236-3.362-1.116-3.571.3-1.931-3.113-3.054-3.794-4.017C1475.4,599.061,1474.468,598.671,1475.078,598.312Z" transform="translate(-76.271 -67.979)" fill="#26333b" fill-rule="evenodd"/>
      <path id="パス_27562" data-name="パス 27562" d="M1457.708,507.345c.4.028.471-.273.893-.223,1.882.265,3.509,3.921,2.9,6.026-.991.49-.9-.615-1.339.223C1457.908,511.409,1458.637,509.626,1457.708,507.345Z" transform="translate(-74.301 0)" fill="#26333b" fill-rule="evenodd"/>
      <path id="パス_27563" data-name="パス 27563" d="M1595.873,540.6c-.7,2.463-3.394,3.215-5.356,3.794-.1-.425-.48-.561-.446-1.116C1592.168,542.3,1593.479,538.332,1595.873,540.6Z" transform="translate(-176.087 -25.218)" fill="#26333b" fill-rule="evenodd"/>
      <path id="パス_27564" data-name="パス 27564" d="M1618.7,663.963a7.053,7.053,0,0,1-7.365-.893c.494-1.869,3.021-.733,4.018-1.339C1614.9,662.473,1619.032,661.2,1618.7,663.963Z" transform="translate(-192.441 -118.9)" fill="#26333b" fill-rule="evenodd"/>
      <path id="パス_27565" data-name="パス 27565" d="M1384.877,718.737c.192.18.133.611.446.67-.585,1.682-4.363,5.281-4.91,2.232C1382.452,720.584,1382.766,718.773,1384.877,718.737Z" transform="translate(-14.86 -162.738)" fill="#26333b" fill-rule="evenodd"/>
      <path id="パス_27566" data-name="パス 27566" d="M1576.292,762.216c.755.063,1.369.268,1.339,1.116,1.491-.266,3.347,2.809,3.348,3.348.738.335-.464.546-.223,1.116C1578.054,766.56,1575.758,764.461,1576.292,762.216Z" transform="translate(-165.433 -196.174)" fill="#26333b" fill-rule="evenodd"/>
      <path id="パス_27567" data-name="パス 27567" d="M1479.253,771.582c.458.484.969-.027.223-.223a1.823,1.823,0,0,1,1.339-.446c.356.165-.051,1.092.67.892-.434,1.884.014,5.342-.67,7.142-.537.473-1.186.037-1.562,0-.775-2.667-.465-3.753-.223-6.919C1479.679,772.348,1479.281,772.2,1479.253,771.582Z" transform="translate(-90.49 -202.862)" fill="#26333b" fill-rule="evenodd"/>
    </g>
    <g id="旗" transform="translate(368.296 -6.235)">
      <path id="パス_27524" data-name="パス 27524" d="M4297.756,679.494c1.253.256,1.26-.008,2.144-.476a5.222,5.222,0,0,1,0-1.906C4298.213,675.886,4296.565,678.259,4297.756,679.494Z" transform="translate(-4179.993 -564.897)" fill="#26333b" fill-rule="evenodd"/>
      <path id="パス_27526" data-name="パス 27526" d="M4095.594,274.048c-.242-.155-.247-.548-.715-.477-1.035.716-2.464,2.3-2.382,3.335-1.658,2.165-4.057,4.822-5,6.909-2.792,1.666-5.058,6.571-7.624,8.815-.2.172-.789.044-.953.238-.79.941-.787,2.645-2.382,2.859-1.974,3.472-6.963,6.495-8.815,10.006-2.35.994-2.852,2.811-5.241,4.05.155.242.548.246.477.715a20.512,20.512,0,0,0-6.671,5.718,1.909,1.909,0,0,0-1.668,1.906c-.333-.989-1.189.278-.714.715-2.95.64-4.593,3.911-7.147,5.956-.447.358-1.207.308-1.667.715-.118.1.118.611,0,.715-1.136,1-2.824,1.794-3.574,2.859-.16.228.029.69,0,.715-.486.42-1.6.458-2.144.953-2.467,2.263-5.351,5.393-8.1,7.862a12.3,12.3,0,0,1-2.383,1.429c-1.48,2.41-4.613,3.169-5.956,5.718-.988-.273-.928.5-1.667.476-.086,1.8-5.037,2.89-5.241,5.241-.77-.6-1.482.458-1.667,1.191a45.1,45.1,0,0,0-6.194,4.288c-.556.434-1.546,1.576-1.429,1.906-2.158.143-4.28,3.623-6.432,4.765-.229.122-.748-.153-.953,0-.6.451-.774,1.366-1.429,1.906-2.549,2.1-6.344,3.361-8.1,5-.058.054.355.4.238.476-.687.472-2.292.317-1.667,1.43-.574.1-.518-.435-1.191-.238-4.705,3.76-9.656,6.479-13.579,9.291-3.419,2.451-7.976,4.827-11.674,8.1-.493-.687-3.606,2.436-5.718,3.574-3.144,1.694-6.826,3.207-8.814,4.526-.043.029.338.426.238.476-2.494,1.251-4.4,1.614-5.956,3.1.549-.927-4.148,1.522-4.288,1.668-.765.791.894.1-.715.476-2.161.51-4.822,3.046-7.146,3.812a11.543,11.543,0,0,0-2.621.953v.953c-.279-.038-.2-.434-.238-.715-1.253.255-1.611,1.406-3.335,1.191-1.18,2.243-5.285,1.309-6.909,3.573-2.253.486-4.506,1.627-7.385,2.382.03.428-.292.5-.238.953-.52-.422-1.542.028-1.668-.238-.29,1.4-1.221.349-2.144.953-.8-.7-1.029-1.566-2.383-2.144-2.108-.127-6.944,5.361-3.812,8.576.36.207-.065.357.238.953,1.135.348,2.079.262,2.859.476,1.053-1.251,3.774-2.1,3.334-4.05.735-.933,1.729-.8,3.335-1.191.03-.427-.292-.5-.238-.953,3.23,1.768,4.476,7.259,6.909,8.338.354.1-.093.3,0,.715,2.427,1.465,3.358,4.424,6.194,5.48,1.955,2.9,5.594,5.355,8.1,6.909v.715c4.112,2.593,7.546,4.609,11.2,7.385,1.779.185,1.727.219,3.1-.476.088-.848-.123-2.909,1.191-3.812-.342-.909-.093-3.044.953-3.335-.63-.691-.016-1.145-.715-1.668.038-.279.434-.2.715-.238-.389-2.513,1.51-3.6.715-6.194.988-1.512,1.663-6.145,1.191-7.147.866-.394,1.607-4.222.476-4.288,1.745-.186,1.045-4.133.953-3.335.243-2.119,2.064-4.1,1.191-5.956,1.175-2.9,1.457-5.3,2.382-8.815a34.03,34.03,0,0,0,7.624,4.527c.038.277-.053.424-.239.476,4.029,1.193,10.8,4.667,15.723,5.718,1.1,1.312,3.522,1.195,5,2.621v-.476c.072.722,1.512.076,1.191,1.191,1.865-.594,4.755,1.077,5.956,2.382,1.615-.26,2.31,1.271,4.05,1.906.181-.163.756-1,.715,0,2.636-.127,2.773-4.657,2.144-5.956.4-.57.8-2.245.238-2.859a1.693,1.693,0,0,1,.715-.477,57.634,57.634,0,0,1-.238-12.865c-.51-3.194-.233-10.434.238-14.771-.232.007-.185.292-.238.476a72.372,72.372,0,0,1,.477-9.291c2.993.943,6.1,3.5,8.1,3.335,2.531,1.9,4.815,1.979,8.576,3.335,1.058.381,2,.791,3.335,1.191,2.727.818,4.723,2.359,8.338,2.859.472.065.692-.3.953-.238,1.886.461,4.678,2.34,6.432,1.668.018-.007-.312-.452-.238-.476.983-.323,1.117-.107,1.191-1.191a1.24,1.24,0,0,1-.476.476c3.737-2.269,1.319-6.141.953-10.006-.024-.255.285-.148.238,0,.737-2.323-.71-5.564-.953-8.576-.181-2.252.655-4.2-.715-5.718.775-3.742-.658-7.675-.477-12.388-.366.536-.709-1.7-.238-1.906,1.61.142,3.987,2.5,5.241.715,1.163-.224,1.63.621,2.144.715-.692-.127,2,.183,2.621-.715.8.215.028.533.476.953,4.095.249,9.9,1.752,15.962,2.859.45-.027.165-.788.715-.715.811.254-.663.074-.238.715,1.883-.258,4.974,1.449,6.671.476q.365.349.715.715c.483-1.472,2.963.857,4.765-.238,1.207.652,6.85,1.086,8.338-.715-.729-2.123-1.465-8.1-3.1-11.435.8-.2-.123-2.861-.715-2.383a20.133,20.133,0,0,0-1.668-8.815c.007-.232.292-.185.477-.238-.4-2.386-1.91-6.915-1.668-9.768-.781-.426-.189-3.406-.715-2.859-.151-2.531-.765-5.187,2.383-5.718a8.224,8.224,0,0,1,3.335.477c.424-.175.035-.433,0-.715.849,1.1.914.237,2.383.238.575,0,1.111.586,1.668.477,1.482-.293,5.122.594,6.67.238.747.284.082.816.714,1.429a2.735,2.735,0,0,0,2.859-1.191c1.167.692,1.7.064,2.621.476.69-.133-.365-.371-.238-.715a4.78,4.78,0,0,0,4.288.238c-.026.643.68.461,1.191.715.353-.1-.094-.305,0-.715.476,1.165,3.5.414,5.956.476.822.021,2.608.779,1.906-.238,1.608.811,3.762.315,4.765.238.016,1.1,1.067,3.564,3.335,2.382-.2-.9,1.536-1.7.238-2.621.717-1.3,1.223-1.533.477-2.859-3.277.243-2.348-4.936-4.526-5,.545-1.984-2.438-4.688-3.1-5.956-.414-.8-.5-3.034-1.667-2.621-.418-2.631-.957-2.86-2.383-3.812,1.255-.943-.462-1.022-.714-2.144-.03-.132.4-.452.238-.715-.462-.745-1.636-1.278-2.144-2.144-.143-.246.2-.87,0-1.191-.291-.472-1.444-1.489-1.667-1.906-.583-1.089-.786-2.493-1.906-3.812a33.017,33.017,0,0,0-2.621-3.335c2.959-5.779,8.186-11.854,10.244-19.773-.641.164-.46-.492-.715-.715-.757-.029-1.523,1.158-.953,1.668-3.577,4.728-5.987,9.953-9.053,14.532C4095.508,273.023,4095.494,273.593,4095.594,274.048Zm-3.812,14.532c-3.8-.464-4.279,4.023-5,7.385-3.713.553-4.019,2.646-4.765,4.527a3.3,3.3,0,0,0-.715.953c-2.081-.23-3.087,1.532-3.812,1.906.487,1.109-.7,1.572.238,2.382-2.564,2.425-6.135,1.826-8.1,1.668,3.262-3.07,7.792-6.944,9.291-10.244h.953c1.842-3.241,5.149-5.016,6.671-8.577,3.221-2.01,4.9-6.736,8.1-10.006a24.114,24.114,0,0,0,1.191,2.382c0-.132.193-.271.238,0C4090.884,280.626,4093.79,286.736,4091.782,288.58Zm6.671-1.668c-2.927,1-3.394,3.583-3.574,6.909-2.628,2.23-5.286,3.517-5,7.624-.33-.887-.036.7-.476.476-.715-.069-2.761,1.123-2.621,3.812-1.314,1.227-3.208,1.874-4.05,3.574-1.321-.6-3.641.49-5.479-.238,2.185-.379,2.517-3.261,2.62-5,2.058-.007,3.472-.658,4.05-2.144.073-.549-.688-.265-.715-.715.65.022.48-.4.953,0,.044-2.911,4.977-2.146,4.526-4.764,1.9-.445.945-3.213,1.429-4.765,2.545.214,6.068-3.522,4.765-5.956.424-.718-.562-2.04,0-2.621.419.556,1.424-1.573,1.906-.953C4096.263,283.771,4098.35,284.795,4098.453,286.913Zm-.477,2.144c.475.834.544-.7.953-.715,1.54,1.162,2.042,3.808,3.1,4.765-3.116.592-2.678,2.788-3.1,4.527-.111.46-1.046,1.86-1.191,2.621-2.719.334-3.415,2.173-3.1,4.527-1.306.5-2.279,2.561-2.62,2.621-.183-.545-1.109.667-1.191,1.906-1.8.1-3.731.518-4.05-.715.71.43,2.719-1.855,2.383-4.05,1.27.252.059-.5.714-.715.149.938,2.5-.827,1.668-1.668,1.87-.254.6-2.537,1.191-3.574,1.581-.942,3.808-2.3,4.05-3.812.5-.228.589-2.07-.238-2.859C4097.676,291.877,4097.715,289.772,4097.976,289.057Zm-1.429,20.727a13.753,13.753,0,0,1-3.1-.238c.69-.133-.365-.372-.238-.715,2.362-.635,4.47-2.324,3.812-5.241,1.2-.654,2.775-1.844,2.858-2.859,1.816-.682.059-4.887,2.621-5.717,1.862,1.076,2.127,3.75,3.1,5.717-3.029-.908-5.243,3.432-4.05,4.288C4098.956,306.742,4097.432,307.02,4096.547,309.784Zm5,.715c-.64-.8-1.757-.352-2.144-.953.278-.04.259-.377.238-.715.646-.554,1.861-.52,1.668-1.429.468-.071.473.322.715.476,2.409-1.261.241-6.072,4.526-5.717.264.847,1.172,1.051,1.191,2.144-3,.253-3.639,1.885-3.574,4.05C4102.512,309.449,4101.264,309.207,4101.549,310.5Zm8.815-.715c-.553-.07-1.116-.6-.953.476a6.7,6.7,0,0,0-3.812-.238c.316-.875.845-2.539.477-3.335.831-.131,1.545-1.618,2.382-.953C4108.751,307.431,4109.895,308.6,4110.364,309.784ZM3995.3,370.533c3.166-.81,5.078-3.859,7.624-4.527,2.138-2.978,6.674-4.716,8.338-7.385,2.364-.733,3.446-2.748,5.241-4.05.618.684.886-.894,1.191-1.191a3.011,3.011,0,0,1,1.906-.715c.441-.279,2.669-2.891,2.145-2.859,2.206-.231,3.685-3.1,5.956-4.05.233.958.438,1.945,1.668,1.906-.226,3.708.683,7.835,0,12.626.228-.656.683.442.715.715.217,1.849-.488,6.323,0,8.815.729,3.724.588,10.8,1.191,14.771-5.784-1.271-10.924-2.776-16.677-4.527-.023.374.032.826-.476.715.272-.7.141-.885-.477-1.191-2.912-.025-4.522-1.85-6.909-1.429-.038-.28.041-.676-.239-.715a42.561,42.561,0,0,1-7.147-2.859c-.829-.382-2.276-1.04-2.383-.476A31.177,31.177,0,0,1,3995.3,370.533Zm-4.526,8.1c.335-.062.271-.523.477-.715-.9.1-.843-.745-1.43-.953-.062.335-.523.271-.715.477.621-1-.542-.84-.953-1.43,1.447-1.349,2.754-1.486,4.288-2.859-.127.343.929.581.238.715-.922.446-.24,1.96-.715,3.1.6-.03.746-.455.953.238-.447.057.135.392-.238.477C3992.236,377.1,3991.295,379.3,3990.771,378.633Zm-6.194-.715a.241.241,0,0,0,0,.476c.207-.349.356-.755.953-.715.271,1.874.83,2.762.476,4.05-.877-.534-1.741-.253-1.429-.953a1.121,1.121,0,0,0-.715.238c-.146-.807-1.057-.849-1.43-1.429C3983.7,379.224,3983.93,377.813,3984.577,377.919Zm3.812,6.671c1.254-1.461-.342-3.81.238-5.479a7.208,7.208,0,0,0,4.288,2.382c-.163,1.778.41,3.71-.477,5.241-1.4-.221-1.984-1.262-2.382-1.191-.042.007-.03.632-.238.476-.476-.356.146-1.786-1.191-1.429C3988.627,384.721,3988.434,384.86,3988.388,384.589Zm-8.338,1.668c-1.158-.342-3.777-.542-4.527-1.906a13.5,13.5,0,0,1,4.05-2.621C3980.242,383.867,3980.118,383.591,3980.05,386.257Zm1.191,3.573c2.607-1.226,1.172-4.64,1.191-6.909,1.59.443,2.061,1.657,4.05,2.144-.25,2.2-1.079,3.387-.715,5.48a1.3,1.3,0,0,0-.953.953,6.564,6.564,0,0,1-3.335-1.668C3981.48,389.963,3981.287,390.1,3981.241,389.83Zm-12.865-1.191c1.991-.153,2.355-1.934,4.288-2.144-.15,1.269.846,1.644,0,2.382,1.064.254-.275,1.1.715,1.429-.185.053-.47.006-.477.238.8.016.042.545.715.953-.847-.37-.144.809-.715.715-1.3-.093-4.949-2.317-5.718-1.429-.5-.067.345-.637-.238-.953C3967.721,389.286,3968.043,390.076,3968.376,388.639Zm10.006,1.191c-1.248,2.284.171,5.441-1.191,6.909a5.62,5.62,0,0,0-2.144-1.668c1.815-2.189.631-4.6.238-7.623,1.468.163,1.545,1.346,3.1.715-.179.894.91.519.953,1.191C3978.125,389.214,3979.283,390.48,3978.382,389.83Zm11.673,7.147c-.3.013-.33.305-.714.238-1.234-.966-2.365-1.472-3.812-2.621.717-.141,1.5.013.953-.953,2.283-.887.967-4.856,2.382-5.956a19.9,19.9,0,0,0,3.573,2.621c-.2,1.529-1.734,3.7-.714,4.288-.215.646-.533-.544-.953-.476.153,1.581-.889,1.671.238,2.382C3989.972,396.66,3989.687,395.841,3990.056,396.978Zm-25.253-.953c-1.408-.754-2.943-.719-4.288-1.906,1.7-.521,2.668-1.779,4.049-2.621C3965.108,392.438,3964.816,394.724,3964.8,396.024Zm15.009,3.574c1.077-2.5-.538-5.794.715-7.385,1.159.194,2.682,2.081,4.527,2.382-1.1,1.318-.968,4.555-1.191,6.671C3981.792,401.385,3981.878,400.286,3979.812,399.6Zm-7.624-.715c-1.49-.129-.272.694-1.429,1.191a4.3,4.3,0,0,0-3.574-1.191c1.252-.795-.124-3.862.239-5.956,1.158.827,2.868,1.1,4.05,1.906-.578,1.229,1.118,1.4.477,1.906-.052-.186-.2-.277-.477-.238-.038.9-.008,1.51.477.715C3971.235,398.513,3971.307,398.27,3972.188,398.883Zm-9.767-.715c.031-1.116.54.488,1.429,0a47.78,47.78,0,0,1-1.191,7.147c-1.355-.471-2.51-1.143-3.812-1.668.154-2.776,1.761-4.465,1.429-7.862C3960.5,396.891,3961.691,397.27,3962.421,398.168Zm-5.48,3.574c-2.5.086-4.409-3.576-6.432-.715-.2.286.442,1.8-.715,2.621.411.871-.568,2.238-.714,2.382a4.408,4.408,0,0,0-1.906-3.1c.41-.094.611.354.715,0-.027-.45-.788-.165-.715-.715,3.584-2.411,8.513-5.642,11.2-6.194A26.463,26.463,0,0,0,3956.941,401.742Zm17.868,3.1c-.649-3.046-5.612-1.451-4.05.953-.8.045-.844,1.709-1.668,2.382-1.408-.577-2.458-1.513-4.288-1.668a1.12,1.12,0,0,0-.239-.715,3.44,3.44,0,0,0,.477-4.288c1.114.062.333-.283.715-.953.815.051.716.786,1.191,0,1.924,2.817,8.144,2.564,6.67-1.191.052.186.2.277.477.238.011-.427-.485-1.324,0-1.906,1.131.7,1.778,1.875,3.335,2.144.131.346-.278,1.231.238,1.191,0-.132.193-.27.239,0C3976.693,401.713,3977.663,405.18,3974.809,404.839Zm16.438-4.764c1.063-.049.486-1.737,1.429-1.906-.536,4.524.263,8.045-.476,11.2-.063-.811-1.073-.674-1.429-1.191C3991.362,405.317,3991.905,402.581,3991.247,400.074Zm-2.859,5.718c-.075-.745-1.7-1.318-2.621-2.383.582-1.4.391-3.579.953-5,1.151.615,1.048,1.321,2.144,1.668C3988.938,402.682,3989.667,405.414,3988.388,405.792Zm-5-2.144c-.071.468.321.472.477.715a29.591,29.591,0,0,0-.715,4.288c-2.163-.9-3.2-.554-5-1.668.3-1.727,1.975-2.859,1.191-5,.41.094.61-.354.715,0C3979.758,403.185,3983.032,404.3,3983.385,403.648Zm-40.738,1.191a.657.657,0,0,0-.715.477c.312.642.283,1.623.953,1.906-1,1.681,1.462,3.254.238,4.526a1.691,1.691,0,0,1,.715.476c-.911.2-.177,1.384.238,1.668-.9,1.033.063,2.008.238,2.382.379.807.146,2.852.477,3.574.189.413,1.041.628,1.191,1.191.442,1.662-1.081,3.592-.238,4.526-1.317.96-.215,2.112-1.191,3.335.389-.174,1.036.473.477.476-1.072-.975.208,1.7-.715,1.191-.163-2.588-2.075-5.684-1.668-7.147-1.636-2.922-2-7.052-3.573-9.768.654-.514-.237-1.094.238-1.668-.28-.037-.677.041-.715-.238.894,0,.087-2.851-.477-2.621.525-.95-.152-1.621,0-2.859,3.639-.9,5.155-3.346,8.338-3.574.845,1.824.251,4.415,1.191,6.432.167.358.617.319.715.715.5,2.022-1.576,4.068-1.191,6.194a28.839,28.839,0,0,1-.953-3.812c-1.076-.437-1.763-7.154-3.812-7.862C3942.408,404.6,3942.6,404.646,3942.647,404.839Zm29.065,4.765a20.867,20.867,0,0,1,.715-4.527c.2.993,2.276,2.09,3.573,1.906-.133,1.217-.541,2.159-.715,3.335C3973.634,410.1,3973.486,409.03,3971.712,409.6Zm13.341,1.191c.925-1.675-.073-2.952,1.191-4.288.032,1.238,1.206,1.336,1.906,1.906a12.455,12.455,0,0,1-1.191,4.05A3.615,3.615,0,0,0,3985.053,410.8Zm-46.694,21.679c-.318-2.022-.648-4.617-1.906-6.432.238-3.135-1.212-5.143-1.906-6.909-.159-4.015-1.857-5.825-1.906-10.006,1.8-.23,2.4-1.319,4.288-1.906.031,1.744-.212,3.736.477,4.765-.709,1.461.577,3.882.238,5.717.239,0,.284-.193.476-.238-.227,1.9.792,4.384,1.667,5.956-1.083.511,1.03,2.526.239,3.574,1-.172,1.07,5.251,1.906,4.765-1.038.844.989,2.355,1.906,2.144-1.026,3.414-.958,5.431-2.144,8.338-.6-.513-.276-1.948-1.191-2.144.7-2.378-2-3.633-1.191-6.194C3938.584,434.693,3939.231,432.094,3938.359,432.474Zm45.265-20.965c-.773.18-.368,1.538-1.191,1.668-.856-.364-2.82-1.383-3.812-1.191.517-.456-1.327-.566-1.43-1.191.535-.1.007-1.264.477-1.43,1.46.229,4.151,2.16,4.526,1.191C3982.506,411.55,3982.954,411.167,3983.624,411.51Zm-51.935,20.012c-.634-2.374-1.237-5.405-1.668-7.385.013.145.035.282.238.238.37-.847-.809-.144-.715-.715.279-3.605-.616-5.815-1.668-8.815,1.425-.413,0-2.417-.238-3.335,1.406-.5,3.1-.958,3.1-1.668,1.063.618.8,2.765.715,3.1-.077.308.7.787.715.953,0-.029-.465.084-.476.238-.265,3.6,1.764,7.427,2.621,11.2.773,3.4.7,7.035,2.62,9.768-.5,2.414,2.155,5.582,1.906,8.1-.1-.406-.307.05-.715,0-.541-1.783-1.951-.942-2.144-2.144-2.266-.075-2.148-2.633-2.859-5-.482-1.608-1.829-2.91-.953-3.1-.56-.075-.141-1.13-.953-.953,0,.132-.193.27-.238,0A1.685,1.685,0,0,0,3931.688,431.521Zm58.605-20.726a13.776,13.776,0,0,0,2.382,1.906c-.513,1.224-.915,3.8.238,4.765a.656.656,0,0,0-.715.476c-1.8-1.211-3.3-1.279-4.765-2.859C3989.639,415.436,3989.019,412.5,3990.294,410.8Zm-6.432,2.62c.813-.054.746-.755.238-.953.726-.181,2.039,2.2,2.144,2.621A16.676,16.676,0,0,0,3983.862,413.415Zm-61.226,2.621c-.952.446.254-.1.238-.477,0-.041-.833-.967-.715-1.191.646-1.227,2.822-1.2,4.288-2.144.954,8.383,1.426,15.333,2.859,21.918a16.03,16.03,0,0,0,.715,2.621,2.113,2.113,0,0,1-1.906-1.668c-1.043-.174.192.473-.476.477-1.646-.877-2.2-4.842-2.621-4.527C3925.045,425.321,3923.36,419.53,3922.636,416.036Zm-2.859,9.053c-1.407-3.806-.947-5.485-1.906-9.053,1.168-.753,1.988-.5,2.859-1.668.239.724.393.3.715,0,.094,6.865,1.21,12.3.953,16.438-1.081-.825-1.8-2.009-2.859-2.859C3920.93,427.461,3918.765,424.369,3919.777,425.089Zm-7.862-6.67c1.606-1.385,3.347-1.192,5-2.382-1.084,2.758.526,5.544,0,9.291C3914.71,422.922,3913.441,420.45,3911.915,418.419Z" transform="translate(-3897.785 -248.55)" fill="#26333b" fill-rule="evenodd"/>
      <path id="パス_27532" data-name="パス 27532" d="M4273.02,658c-.1-.533-1.174-.1-1.668-.238-1.515,1.634-1.257,4.206,1.191,3.335.192-.784.67-1.9.715-2.144C4274.069,658.79,4272.208,658.159,4273.02,658Z" transform="translate(-4146.918 -550.547)" fill="#26333b" fill-rule="evenodd"/>
      <path id="パス_27534" data-name="パス 27534" d="M4310.993,724.534c-.27.045-.132.239,0,.238-.712-.01-.469.464-1.429.953-1.367,3.961,4.634,1.868,2.144-.953C4311.37,724.793,4311.034,724.812,4310.993,724.534Z" transform="translate(-4195.374 -600.883)" fill="#26333b" fill-rule="evenodd"/>
      <path id="パス_27535" data-name="パス 27535" d="M3919.073,230.92c3.878.207,5.818-.072,8.338-1.906a11.223,11.223,0,0,1,.715-3.335c-.156-1.586-1.992-1.277-3.335-1.668-1.17-.34-1.678-1.038-2.859-.953C3918.63,223.295,3915.835,228.237,3919.073,230.92Z" transform="translate(-3714.593 -223.051)" fill="#26333b" fill-rule="evenodd"/>
      <path id="パス_27540" data-name="パス 27540" d="M4266.879,688.54c-1.769-.472-2.239,1.225-2.382,2.859.56.076.894.377,1.668.238.565-.969.571-1.3,1.429-1.668-.147-.212-.288-.426,0-.476C4267.633,689.008,4265.752,688.609,4266.879,688.54Z" transform="translate(-4139.587 -573.704)" fill="#26333b" fill-rule="evenodd"/>
      <path id="パス_27543" data-name="パス 27543" d="M4322.1,699.072c-.993-.276-1.175.02-2.144.238a7.554,7.554,0,0,1,0,1.191C4320.026,703.3,4322.91,702.063,4322.1,699.072Z" transform="translate(-4207.907 -581.616)" fill="#26333b" fill-rule="evenodd"/>
      <path id="パス_27545" data-name="パス 27545" d="M4348.2,716.541c.21-.9,1.236-.987.953-2.382C4346.573,711.167,4345.038,716.915,4348.2,716.541Z" transform="translate(-4241.396 -592.414)" fill="#26333b" fill-rule="evenodd"/>
      <path id="パス_27546" data-name="パス 27546" d="M4288.658,707.6c-2-1.078-3.681,3.367-1.191,3.812C4289.089,710.944,4289.892,708.717,4288.658,707.6Z" transform="translate(-4166.606 -587.995)" fill="#26333b" fill-rule="evenodd"/>
      <path id="パス_27548" data-name="パス 27548" d="M4259.951,726.411a5.263,5.263,0,0,0-.715,2.382c.58.461,1.993.229,2.621,0C4262.186,727.378,4261.8,726.233,4259.951,726.411Z" transform="translate(-4132.658 -602.284)" fill="#26333b" fill-rule="evenodd"/>
      <path id="パス_27550" data-name="パス 27550" d="M4280.01,741.87a2.988,2.988,0,0,1,.953-1.906C4280.029,735.1,4275.458,743.052,4280.01,741.87Z" transform="translate(-4156.292 -611.31)" fill="#26333b" fill-rule="evenodd"/>
      <path id="パス_27551" data-name="パス 27551" d="M4255.908,753.36c-1.809-.374-2.253,1.327-1.668,2.621.424-.445.605.194,1.43,0C4255.549,755.524,4257.082,754.322,4255.908,753.36Z" transform="translate(-4125.757 -622.562)" fill="#26333b" fill-rule="evenodd"/>
    </g>
  </g>
</svg>
