<svg id="電話_イラスト" xmlns="http://www.w3.org/2000/svg" width="120" height="90" viewBox="0 0 120 90">
  <g id="グループ_5352" data-name="グループ 5352" transform="translate(-1597.333 -688.075)">
    <path id="パス_29081" data-name="パス 29081" d="M1720.928,802.287l-.739-1.278a7.307,7.307,0,0,1-.29-3.1,1.137,1.137,0,0,1,.249-.649,1.233,1.233,0,0,1,.8-.269l2.3-.212a1.17,1.17,0,0,1,.724.087,1.129,1.129,0,0,1,.4.871,14.8,14.8,0,0,1,.105,2.322,2.093,2.093,0,0,1-.224,1.023C1723.983,801.523,1721.355,803.024,1720.928,802.287Z" transform="translate(-65.811 -58.633)" fill="#26333b"/>
    <path id="パス_29082" data-name="パス 29082" d="M1774.614,791.829c-.145-.826.069-2.577.793-3.1a3.6,3.6,0,0,1,1.8-.506c.67-.065,1.478-.07,1.854.486.493.729.746,2.816.092,3.5a1.792,1.792,0,0,1-.526.337,5.356,5.356,0,0,1-2.122.683,1.823,1.823,0,0,1-1.809-1.06A2.162,2.162,0,0,1,1774.614,791.829Z" transform="translate(-95.216 -54.007)" fill="#26333b"/>
    <path id="パス_29083" data-name="パス 29083" d="M1748.056,793.316c.99-.478,2.688-.241,3.612-.164a1.546,1.546,0,0,1,.809.232,1.488,1.488,0,0,1,.472.965,7.965,7.965,0,0,1,.131,1.659,1.747,1.747,0,0,1-.6,1.479,1.865,1.865,0,0,1-.856.225,20.973,20.973,0,0,1-2.951.053,1.223,1.223,0,0,1-.622-.149c-.822-.545-1.063-3-.589-3.787A1.348,1.348,0,0,1,1748.056,793.316Z" transform="translate(-80.525 -56.615)" fill="#26333b"/>
    <path id="パス_29084" data-name="パス 29084" d="M1782.9,822.013a1.336,1.336,0,0,1,.423-.06q1.265.01,2.528.075a1.361,1.361,0,0,1,.749.188,1.379,1.379,0,0,1,.357,1.2,4.46,4.46,0,0,1-.221,1.49c-.641,1.634-2.811,1.221-4.168,1.129a.661.661,0,0,1-.45-.147.585.585,0,0,1-.125-.282C1781.734,824.46,1781.715,822.393,1782.9,822.013Z" transform="translate(-99.127 -72.221)" fill="#26333b"/>
    <path id="パス_29085" data-name="パス 29085" d="M1732.344,850.341a1.345,1.345,0,0,1-.482,1.06,1.6,1.6,0,0,1-.848.181l-1.362.036a2.329,2.329,0,0,1-1.1-.148c-.8-.391-.838-2.889-.571-3.619a.6.6,0,0,1,.2-.3.674.674,0,0,1,.349-.082l2.955-.152a.778.778,0,0,1,.491.083.747.747,0,0,1,.241.514,10.684,10.684,0,0,1,.134,2.259C1732.353,850.226,1732.349,850.283,1732.344,850.341Z" transform="translate(-70.109 -85.899)" fill="#26333b"/>
    <path id="パス_29086" data-name="パス 29086" d="M1759.939,849.581q-.036.211-.084.418a1.034,1.034,0,0,1-.27.555,1.045,1.045,0,0,1-.388.192c-1.074.34-3.084.72-3.872-.372-.5-.686-.454-2.841.259-3.341a1.952,1.952,0,0,1,1.047-.25l2.658-.125a.625.625,0,0,1,.381.062.6.6,0,0,1,.2.388A6.481,6.481,0,0,1,1759.939,849.581Z" transform="translate(-84.699 -85.546)" fill="#26333b"/>
    <path id="パス_29087" data-name="パス 29087" d="M1723.891,825.351l1.224.01a1.061,1.061,0,0,1,1.3,1.185,4.421,4.421,0,0,1,0,1.32,1.5,1.5,0,0,1-.726,1.061c-1.07.543-1.562,1.177-2.691.035a2.928,2.928,0,0,1-.463-3.245.63.63,0,0,1,.206-.295.7.7,0,0,1,.4-.076Z" transform="translate(-67.11 -74.051)" fill="#26333b"/>
    <path id="パス_29088" data-name="パス 29088" d="M1755.592,823.271l.956-.023a.812.812,0,0,1,.474.085.737.737,0,0,1,.225.292,4.839,4.839,0,0,1,.466,3.022.4.4,0,0,1-.091.223,2.363,2.363,0,0,1-3.789-.751c-.46-1.039-.37-2.8,1.113-2.831Z" transform="translate(-83.944 -72.918)" fill="#26333b"/>
    <path id="パス_29089" data-name="パス 29089" d="M1789.519,841.863a.8.8,0,0,1,.255.2,1.46,1.46,0,0,1,.246.739,4.751,4.751,0,0,1-.06,2.332c-.465,1.237-3.2,2.367-4.01.794-.323-.625-.964-2.382-.669-3.062a1.765,1.765,0,0,1,1.281-.85,12.883,12.883,0,0,1,1.875-.267A2.05,2.05,0,0,1,1789.519,841.863Z" transform="translate(-100.93 -82.89)" fill="#26333b"/>
    <path id="パス_29090" data-name="パス 29090" d="M1694.3,724.5l.98,1.424c1.017-.15,1.341.875,2.307,1.267a13.713,13.713,0,0,0,4.975.842c1.349.024,3.616.473,4.857-.114,2.783-1.317,4.7-4.228,6.585-6.514,1.62-1.961,2.193-3.975,3.055-6.3l-.212-1.765.49-1.768-.49-1.553a7.12,7.12,0,0,1-.519-1.831c-.082-1.068.349-2.223-.2-3.227a5.9,5.9,0,0,1-.365-.638c-.524-1.337.1-2.853-.077-4.221a14.788,14.788,0,0,0-1.208-3.747,2.612,2.612,0,0,0-.454-.8c-.162-.173-.369-.3-.534-.469-.381-.393-.147-.9-.366-1.236-.172-.268-.376-.32-.609-.56-3.351-3.468-9.758-4.816-14.5-4.908-2.644-.051-5.333-.2-7.992-.294s-5.384.2-8.059.2c-5.4.011-10.8-.221-16.208-.141l-5.62.083-3.511.052a7.093,7.093,0,0,0-1.562.139c-.539.13-1.038.385-1.567.55a9.834,9.834,0,0,1-2.813.309c-4.494.058-9.36,0-13.687,1.387-.671.215-1.323.482-1.975.749l-3.016,1.237c-1.4.576-1.925,1.684-2.934,2.694-1.031,1.03-2.525,1.671-3.006,3.155-.127.392-.164.812-.324,1.192a8.158,8.158,0,0,1-.857,1.278,7.727,7.727,0,0,0-.9,2.337c-.621,2.333-1.265,7.378-4.45,7.409-2.52.025-5.773-.249-7.382,1.839l-1.584.461c-.623.182-1.9,1.6-2.455,1.99a18.042,18.042,0,0,0-4.37,4.051,2.965,2.965,0,0,0-.646,1.249c-.048.308,0,.625-.049.933a3.41,3.41,0,0,1-.474,1.068c-1.995,3.56-.264,6.794-.372,10.465l.809,1.408c.032.056-2.059,2.2-2.15,2.35a35.218,35.218,0,0,0-2.411,5.562,15.782,15.782,0,0,0-1.028,3.556,14.591,14.591,0,0,0,.683,5.917c.36,1.3.373,2.829,1.328,3.873.4.432,1.083.44,1.445.926.49.658.229,1.358.708,1.99,1.88,2.477,4.563,3.707,6.759,5.47.517.415.367.8,1.082,1.056.551.2,1.3-.254,1.911-.068,1.423.437,2.467,1.774,4.063,2.242a15.921,15.921,0,0,0,2.313.555c2.456.335,5.474.823,7.8.13.528-.158,1.238.149,1.776.062a26.9,26.9,0,0,0,4.043-1.129c.5,1.915,2,4.741,3.648,5.918a8.357,8.357,0,0,0,2.84,1.519c-.3.487.177,1.123.72,1.313,1.216.425,2.363,1.019,3.563,1.43,1.106.379,1.624-.028,2.694-.126,2.58-.239,5.556.814,8.195.981,1.831.116,3.663.231,5.5.262,2.519.042,5.663.391,8.029-.566l1.675.25c.38.057,1.013-.537,1.392-.631a23.514,23.514,0,0,1,5.883-.385c1.657.076,2.245-.315,3.807-.819a4.52,4.52,0,0,1,1.711,0,10.59,10.59,0,0,0,1.712-.061l3.936-.351c.547-.049,1.054-.433,1.551-.469.423-.029.757.3,1.139.268a9.435,9.435,0,0,0,1.948-.413l1.6-.475,1.559-.7a48.953,48.953,0,0,1,5.071-.859c1.4-.027,1.8.41,3.13-.256,1.575-.79,3.328-1.355,4.94-2.017.491-.2.908-.006,1.425-.323.6-.368.951-1.367,1.552-1.83.816-.629,1.913-.947,2.477-1.808a4.14,4.14,0,0,0,.511-1.651c.6-3.74,1.315-6.91.334-10.646-.088-.334-.176-.669-.292-.994a12.3,12.3,0,0,0-.687-1.5c-.978-1.9-1.481-3.97-2.772-5.68a24.469,24.469,0,0,0-2.582-2.741c-.6-.585-1.2-1.178-1.8-1.77l-3.674-3.647-.376-.372c-2.26-2.244-4.34-4.656-6.469-7.023a3.889,3.889,0,0,0-.693-.654c-.458-.309-1.063-.438-1.382-.888-.232-.327-.262-.761-.484-1.1s-.636-.544-.851-.9a2.47,2.47,0,0,1-.246-.9c-.166-.992-.742-1.8-.969-2.76-.147-.62.1-1.564-.186-2.114s-1.8-.836-1.928-1.32l-.377-1.412-.333-1.6a6.757,6.757,0,0,0-4.965-1.8c-1.574-.07-3.069-.747-4.647-.8a40.931,40.931,0,0,0-4.879.221c-4.824.412-9.533.088-14.184,1.537a8.127,8.127,0,0,1-1.581.409c-2.572.257-4-.831-5.209,2.019-.448,1.055-1.737,1.646-1.985,2.765a3.143,3.143,0,0,1-.142.625,2.177,2.177,0,0,1-.516.6,6.467,6.467,0,0,0-.869,1.166l-.791,1.249c-1.149,1.815-2.063,3.623-3.394,5.335-.969,1.246-1.94,2.489-2.882,3.754-.386.52-1.342,2.5-1.87,2.676-1.764.574-1.615,1.214-2.63,2.646-.211.3-.441.58-.638.887a9.494,9.494,0,0,0-.627,1.231l-2.708,6.018a10.2,10.2,0,0,0-.622,1.622,7.349,7.349,0,0,1-.381,1.377c-1.275,2.662-2.769,4.366-2.853,7.448a39.159,39.159,0,0,1-.418,4.732.6.6,0,0,1-.154.378.653.653,0,0,1-.527.064c-1.623-.237-2.834.762-4.429.474a5.846,5.846,0,0,0-2.328-.291c-.463.109-.937.4-1.38.226-.2-.078-.354-.241-.55-.327a1.788,1.788,0,0,0-1.095.04c-2.443.545-4.755-.5-6.826-1.663-.165-.093-.352-.232-.326-.419.022-.154.181-.245.322-.312a26.182,26.182,0,0,0,3.6-1.661,5.486,5.486,0,0,0,1.7-7.1,2.141,2.141,0,0,0-.5-.662c-.179-.146-.393-.243-.574-.386a3.878,3.878,0,0,0-3.266-1.242l-.544-.006a4.33,4.33,0,0,0-.911.053c-.516.1-.976.392-1.48.545a3.32,3.32,0,0,0-.815.28c-.8.5-3.556,5.787-2.648,6.538-.7-.578-2.512-1.348-2.987-1.959-.535-.7-.515-1.745-1.2-2.557-1.995-2.348-1.068-5.972-.526-8.955.36-1.985,1.123-5.668,3.414-6.347-1.031.306,1.672,4.3,2.21,4.553a4.819,4.819,0,0,0,2.947.073c1.032-.192,2.322-.209,3.035-.731a8.211,8.211,0,0,0,1.966-2.67,10.292,10.292,0,0,0-.289-7.389,1.478,1.478,0,0,0-.436-.64c-.414-.3-.99-.146-1.5-.2-.776-.086-1.555-.681-2.261-.35a3.086,3.086,0,0,0-.629.494,9.88,9.88,0,0,1-1.888,1,2.089,2.089,0,0,0-1.273,1.594,5.092,5.092,0,0,1-1.057-1.152,9.8,9.8,0,0,1-1.539-4.924c-.066-2.316-.086-4.8,1.2-6.733a8.6,8.6,0,0,1,3.787-2.9,4.985,4.985,0,0,0,1.774-1.056c.228-.254.395-.56.641-.8,1.121-1.075,3.051-.681,4.33-1.514,1.048-.683.907-1.058,2.2-1.168.97-.082,1.937.316,2.928.188-1.069.139,2.219,10.013,2.568,10.657.341.626.839,1.345,1.553,1.292l.794,2.347c2.537.232,4.842,1.888,7.388,1.788,2.187-.085,4.163-1.13,6.246-1.677,2.306-.606,2.293-1.647,3.739-3.553a7.58,7.58,0,0,0,1.418-3.232,2.762,2.762,0,0,1,.248-.9,3.32,3.32,0,0,1,.959-.867c1.8-1.391,2.728-2.207,2.891-4.46l1.647-1,.465-1.853,1.746.433,1.486-.521,1.576-.139c1.237-.65,2.735-.607,4.042-1.048a28.347,28.347,0,0,1,4.407-1.237,53.194,53.194,0,0,1,11.521-.706c4.192.2,7.3.334,11.129-.949l1.623,1.033,2.011-.093.51,1.9.3,1.65-.314,1.749a30.927,30.927,0,0,0,1.638,4.965,4.677,4.677,0,0,1,.351.849,6.228,6.228,0,0,1,.11.784c.127,1.033.786,1.629,1.049,2.536A8.532,8.532,0,0,1,1694.3,724.5Zm-61.226,30.776a13.989,13.989,0,0,1,2.649-6.065,5.985,5.985,0,0,0,.782-1.086c.824-1.693.529-3.064,1.91-4.643,1.336-1.528,2.143-3.359,3.432-4.966.4-.5,1.929-.922,2.131-1.319l.761-1.5,1.233-1.189.063-1.957c.026-.812,1.3-1.213,1.731-1.6a11.054,11.054,0,0,0,2.12-3.05l.5-.9a16.858,16.858,0,0,1,2.589-3.805l1.587-.841.785-1.509c.089-.171,1.623.427,1.846.337,1.054-.424.964-1.734,2.483-2.065a11.461,11.461,0,0,1,2.615.17c1.049,0,2.087-.42,3.14-.467a112.2,112.2,0,0,1,11.4.07,10.307,10.307,0,0,1,3.082.7l1.666-.714,1.4.281,1.192-.183.646,1.332.994,1.428s.128,1.716.129,1.732c.012.162.87.532,1,.648.71.641.354.294.713,1.143.7,1.661.772,3.511,2.313,4.835a2.378,2.378,0,0,1,.469.449c.272.413.155,1.025.508,1.371.309.3.827.224,1.141.5.485.432.441,1.111.834,1.6.671.838,1.527,1.26,2.167,2.268a7.737,7.737,0,0,0,1.23,1.43c1.862,1.768,4.054,3.1,5.782,5.011l1.606,1.777.189.209a45.047,45.047,0,0,1,4.041,4.4c2.066,3.086,2.722,7.2,2.567,10.894a9.588,9.588,0,0,1-2.548,6.832l-1.968,1.05a22.455,22.455,0,0,0-3.757.519l-3.6.557a6.558,6.558,0,0,1-1.76.112,3.2,3.2,0,0,0-1.543-.051c-.394.157-.667.534-1.062.687a4.953,4.953,0,0,1-1.543.023,4.786,4.786,0,0,0-1.249.331c-2.1.7-4.436.5-6.621,1.035-1.627.4-3.256.792-4.909,1.058-1.7.274-3.415.41-5.129.546-4.727.374-9.349,1.041-14.081,1.44a8.583,8.583,0,0,1-3.041-.107,6.279,6.279,0,0,0-.828-.223,4.04,4.04,0,0,0-1.058.047,26.543,26.543,0,0,1-6.416-.184c-1.968-.24-3.959-.8-5.91-1.194a14.262,14.262,0,0,1-2.534-.767c-.765-.312-1.5-.689-2.236-1.067a7.723,7.723,0,0,1-1.066-.622c-1.393-1.025-1.264-2.527-2.691-3.5l-1.337-1.136-.8-1.491A21.009,21.009,0,0,1,1633.07,755.274Zm-20.57-3.061a1.534,1.534,0,0,1,1.36.3,1.194,1.194,0,0,1,.222.439,4.059,4.059,0,0,1-1.148,4.7,3.442,3.442,0,0,1-2.153,1.094c-2.669.2-1.407-4.726-.239-5.738A4.286,4.286,0,0,1,1612.5,752.213Zm-4.4-17.18c-.014.085,2.007-1,2.1-1.046a2.065,2.065,0,0,1,1.831-.159,1.881,1.881,0,0,1,.823,1.537c.268,2.924-1.837,1.75-3.721,2.39l-1.357-.769Zm86.159-26c-.305-.336-.2-.855-.164-1.306.235-2.639-1.484-3.563-3.783-3.572q-10.74-.041-21.453.86c-5.22.439-10.349.587-15.113,2.83-1.9.372-7.681,0-6.624,3.3-1.045.293-1.245,1.639-1.751,2.6a14.878,14.878,0,0,1-2.128,2.43c-1.368,1.607-1.358,6.855-3.282,7.418-1.445.426-3.01.537-4.427,1.006-.51.169-.934.534-1.435.726a4.6,4.6,0,0,1-2.479-.005c-5.985-1.121-8.036-6.757-7.551-12.269a35.676,35.676,0,0,1,1.239-6.022c.731-2.743,2.208-6.081,4.508-7.628l1.206-1.152.609-1.862,2.044-.276a5.744,5.744,0,0,0,1.495-.7,14.263,14.263,0,0,1,3.284-1.338c1.9-.5,3.114-.931,4.977-.506l1.543-.975,1.771.183a13.8,13.8,0,0,0,1.628-.409,3.869,3.869,0,0,1,1.028-.164c.15,0,2.887.617,2.389.947,1.357-.9,1.946-.428,3.424-.875.285-.086.56-.208.85-.276a4.824,4.824,0,0,1,.885-.1c2.986-.142,5.916-.39,8.894-.237,1.242.064,2.485.128,3.729.181q4.867.21,9.74.217c2.366,0,4.927-.8,7.184-.713.47.019.926.185,1.4.19a1.075,1.075,0,0,0,1.109-.682l2.2.893a.964.964,0,0,0,.54.1c.317-.064.487-.417.776-.564.815-.416,3.273.268,4.212.255a11.992,11.992,0,0,1,5.819,1.39c1.459.806,3.3.3,4.5,1.582.262.28.508.629.885.7a6.505,6.505,0,0,0,.887-.056c.62.032,1.034.659,1.2,1.254a6,6,0,0,0,.536,1.762,7.613,7.613,0,0,0,.762.832c.98,1.1,1.05,2.7,1.068,4.17a64.723,64.723,0,0,1-.185,6.588c-.2,2.206.245,4.174-.053,6.409q-.071.534-.142,1.068c-.056.418-.112.836-.186,1.252a10.787,10.787,0,0,1-2.961,5.382,3.542,3.542,0,0,1-1.447,1.046,4.231,4.231,0,0,1-1.088.15l-2.851.143a5.138,5.138,0,0,1-2.132-.193c-1.059-.413-1.736-1.477-2.759-1.973a2.7,2.7,0,0,1-.633-.345,1.832,1.832,0,0,1-.423-.678c-.553-1.27-1.4-2.2-1.4-3.6a3.107,3.107,0,0,0,.009-.971,6.744,6.744,0,0,0-.653-1.174c-.642-1.354-.676-3.36-.952-4.827a3.279,3.279,0,0,1-.043-1.53.851.851,0,0,0,.067-.56C1694.5,709.229,1694.36,709.148,1694.261,709.038Z" fill="#26333b"/>
  </g>
</svg>
