<svg xmlns="http://www.w3.org/2000/svg" xmlns:xlink="http://www.w3.org/1999/xlink" width="484.671" height="150.009" viewBox="0 0 484.671 150.009">
  <defs>
    <clipPath id="clip-path">
      <rect id="長方形_1867" data-name="長方形 1867" width="484.671" height="150.009" fill="#f2f0e0"/>
    </clipPath>
  </defs>
  <g id="街並み" transform="translate(-0.146 -2)">
    <g id="グループ_5378" data-name="グループ 5378" transform="translate(0.146 2)" clip-path="url(#clip-path)">
      <path id="パス_29292" data-name="パス 29292" d="M257.51,103.678l0-.421h.21c-2.243-5.77,5.486-5.983,8.389-4.062-1,3.211,1.605,9.934-2.663,9.912-3.631.92-7.661-1.814-5.933-5.428" fill="#f2f0e0" fill-rule="evenodd"/>
      <path id="パス_29293" data-name="パス 29293" d="M284.894,107.052c0-1.052-.2-2.573.609-2.951q0-.736-.01-1.473h.21c1.147-6.954,9.34-1.32,7.817,4.15h.211c.284,2.966-.77,3.538-3.765,3.184-1.408-.552-7.505.433-5.072-2.908" fill="#f2f0e0" fill-rule="evenodd"/>
      <path id="パス_29294" data-name="パス 29294" d="M167.625,24.1c3.268.512,5.885-.789,9.044-.7,0,.071,0,.141,0,.211l1.683-.013c0-.07,0-.14,0-.21l.842-.006c0-.07,0-.141,0-.211,2.473.172,5.43.089,7.586,1.417.33,2.536-.115,4.658-3.126,4.022,0,.07,0,.14,0,.21a19.751,19.751,0,0,1-2.528-.4c0-.07,0-.14,0-.21l-.631,0c0-.07,0-.14,0-.21l-.421,0c0-.07,0-.14,0-.211l-1.684.013c.1-.51-.945-.115-.846-.625-4.991.294-10.154.492-15.571.326-5.558-2.994,2.329-4.06,5.657-3.409" fill="#f2f0e0" fill-rule="evenodd"/>
      <path id="パス_29295" data-name="パス 29295" d="M162.034,92.954c0-.07,0-.14,0-.21l.421,0c0-.07,0-.14,0-.21l1.052-.008c0-.07,0-.14,0-.21l.211,0c0,.07,0,.141,0,.211,3.35-.072,5.553.294,8.627-.275-.064.587,1.331.035,1.267.622l1.263-.009c0,.07,0,.14,0,.21l.842-.006c0,.07,0,.14,0,.21,3.425.262,9.68-1.081,8.449,4.146,1.694,2.869-6.09,2.746-7.978,2.585,0-.07,0-.14,0-.21-4.825-.2-10.175-.2-14.526-.734,0-.07,0-.14,0-.211-4.03.138-4.115-7.554.377-5.895" fill="#f2f0e0" fill-rule="evenodd"/>
      <path id="パス_29296" data-name="パス 29296" d="M159.115,68.353a3.927,3.927,0,0,0,2.736-.02c1.79-.735,4.435.949,6.525.16,1.826.775,5.721-.916,7.368.368,0,.07,0,.14,0,.21a22.856,22.856,0,0,0,3.791.393c0-.07,0-.14,0-.21l1.473-.011c0,.07,0,.14,0,.21,5.4.877,2.451-.1,3.2,5.238-2.022.981-6.32-.648-8.417.062.105.486-2.386.852-2.524.229-1.875.144-3.942-1.307-5.9-.377,0,.07,0,.14,0,.211-1.733.665-4.581-.023-6.314-.164,0-.07,0-.14,0-.21l-.631,0c0-.07,0-.14,0-.21l-1.262.009c0-.07,0-.14,0-.21h-.21q-.006-.737-.011-1.473l-.211,0c0-.211,0-.421,0-.631h-.211c0-.351,0-.7-.008-1.052l.211,0c0-.957-.627-2.047.4-2.528" fill="#f2f0e0" fill-rule="evenodd"/>
      <path id="パス_29297" data-name="パス 29297" d="M161.676,44.764l2.316.193c0-.07,0-.14,0-.21,1.5-.472,3.28.148,5.05-.038,0,.07,0,.141,0,.211,3.071.417,6.011-.512,9.05-.068v.211l1.053-.008c0,.07,0,.14,0,.21l.422,0c-.03.616,1.506,0,1.478.621l.63-.005c0,.07,0,.14,0,.21,1.353-.54,2.875,2.12,1.918,3.143.006,2.042-4.14-.715-5.047.669-5.531.09-13.091.986-17.895-.92.134-1.755-1.586-3.7,1.022-4.216" fill="#f2f0e0" fill-rule="evenodd"/>
      <path id="パス_29298" data-name="パス 29298" d="M97.409,106.558c-.05-2.221.675-3.767.377-5.895-.378-7.586,7.16-2.232,5.284,3.117h.211q0,.315.005.631l.21,0q.009,1.263.019,2.526H103.3q.006.842.013,1.684h-.211q0,.526.008,1.052l-.21,0,.006.842h-.21c0,.211,0,.421,0,.632h-.21c1.007,3.956-4.394,2.511-4.839.247-.9-1.057.747-3.861-.246-4.839" fill="#f2f0e0" fill-rule="evenodd"/>
      <path id="パス_29299" data-name="パス 29299" d="M0,144.282v4.576a1.15,1.15,0,0,0,1.15,1.151H483.516a1.15,1.15,0,0,0,.4-2.229c-15.712-5.739-41.425-13.345-70.762-13.258-20.869.062-20.672-2.055-25.536-2.969-1.809-.316-4.389-.956-4.389-.887l-2.921.027c0,.069,0,.138,0,.208-1.489.038-3.4-.419-3.148-2.263l.209,0c-.532-3.194.625-6.971,4.542-6.29,0-.07,0-.139,0-.208l1.043-.01c0-.069,0-.139,0-.208,3.06,2.22,4.116-1.192,6.666-1.31,0-.069,0-.139,0-.208l.417,0c0-.069,0-.139,0-.208l.625-.006c0-.069,0-.139,0-.208l.626-.006c4.13-2.04,6.776-6.965,8.569-10.885a1.138,1.138,0,0,0,.1-.488c0-.331-.005-.661-.008-.992h.209c0-.209,0-.417-.005-.625l.209,0c0-.139,0-.278,0-.417h.209q-.011-1.354-.021-2.707l.208,0c0-.209,0-.417,0-.625l.208,0q0-.312-.005-.625h.209a42.346,42.346,0,0,0,.36-7.292l-.208,0c0-.209,0-.417,0-.625l-.208,0q-.006-.625-.01-1.25l-.209,0c-.151-.924-.617-2.431-.86-3.324h-.208l.192-2.084-.209,0q0-.625-.009-1.249h-.209l-.009-1.249-.209,0c0-.209,0-.417,0-.625l-.208,0c.059-.871-.017-2.034-.644-2.286l0-.416-.209,0c0-.208,0-.417,0-.625l-.209,0c0-.208,0-.417-.005-.625l-.208,0c0-.278-.005-.555-.007-.833l-.208,0q0-.521-.008-1.042l-.209,0q-.006-.729-.011-1.457h-.209l0-.416-.209,0q0-.313-.005-.625l-.208,0c0-.208,0-.417-.005-.625l-.209,0c0-.208,0-.417,0-.625-.674-.082.032-2-.642-2.077,0-.208,0-.417-.005-.625l-.209,0c.207-1.053-1.217-1.335-1.269-2.28h-.208c.217-.787-.369-1.068-.431-1.662l-.208,0c0-.208,0-.417-.005-.625l-.208,0c0-.208,0-.417-.005-.625l-.209,0q0-.625-.01-1.25c-.5.106-.128-.933-.632-.827,0-.209,0-.417-.005-.625l-.208,0,0-.417-.209,0c-.017-1.359-1.826-2.119-1.9-3.525l-.208,0c.1-.575-.638-.576-.427-1.246l-.209,0,0-.417-.209,0c.021-.582-.653-.717-.428-1.455l-.209,0c-5.347-9.913-16.172-20.81-27.9-19.144,0,.069,0,.138,0,.208-7.152,2.305-14.4,8.978-16.785,16.388l-.209,0c.139.946-1.1,1.32-1.026,2.3l-.209,0,0,.416-.208,0,0,.417h-.209l0,.417-.209,0c0,.278.005.556.007.833l-.209,0,0,.417-.209,0c0,.277,0,.555.007.833l-.209,0c-.033.827-1.206,1.011-.819,2.091h-.209l.006.834h-.208c0,.209,0,.417,0,.626h-.209c0,.209,0,.417.005.626h-.209l.005.625-.209,0a4.538,4.538,0,0,1-1.233,2.511q0,.313.005.625l-.209,0c0,.208,0,.417.005.625l-.209,0c0,.208,0,.417.005.625l-.209,0c0,.347.005.695.008,1.042l-.209,0c0,.208,0,.416.005.625l-.209,0,.012,1.535a1.143,1.143,0,0,1-.318.792c-.816.865-.593,2.968-1.274,3.9a1.11,1.11,0,0,0-.21.75l.192,2.419-.209,0q.006.729.011,1.459h-.209q.008.834.013,1.668h-.209l0,.417c-.9.157.549,1.936-.194,1.878q.006.729.011,1.458l-.208,0c0,.208,0,.417,0,.625l-.209,0q.039,4.9.076,9.795h-.209q0,.417.007.834l.209,0q.015,1.98.03,3.96l.209,0c0,.208,0,.417,0,.625l.209,0c0,.209,0,.417.005.625l.209,0,.006.834c.675.082-.032,2,.643,2.079l0,.416.209,0c0,.209,0,.417.005.626.635,0,0,1.66.639,1.661,2.489,5.089,8.566,9.566,13.658,10.715,0,.069,0,.139,0,.208,1.568.709,4.225,1.115,5.743,2.185a1.3,1.3,0,0,0,.754.241c3.465.006,1.341,2.732,1.556,5.483a.927.927,0,0,0,.216.536c.526.6-.376,3.093-1.483,3.307-21.532,4.156-31.148,5.364-40.035,3.325-1.76-.4-2.644-1.38-2.5-2.335a.978.978,0,0,0-.151-.6c-.087-.162-.064-.467-.151-.629a1.521,1.521,0,0,1-.246-.695l-.015-1.906-.209,0,0-.417-.209,0-.006-.834.209,0q-.114-1.144-.227-2.291l.209,0c.6-3.5.272-4.6.326-8.493.506.1.114-.937.621-.839-.237-.371-.169-1.235-.637-1.245,0-.348-.005-.695-.008-1.043l-.209,0q0-.625-.01-1.25l.209,0q-.006-.834-.013-1.668l.209,0c1.113-1.6-.253-4.55.448-6.395a1.286,1.286,0,0,0,.094-.6,21.781,21.781,0,0,1-.426-5.1l.209,0c.3-2.848-.033-6.4,4.555-5.459,0-.069,0-.139,0-.208,8.974,1.323,2.174-9.386,1.789-13.723a1.112,1.112,0,0,0-.158-.485,15.784,15.784,0,0,1-2.215-7.257l-.209,0q0-.618-.009-1.236a1.019,1.019,0,0,0-.229-.717c-.277-.279-.137-1.214-.621-1.167-.344-1.108-1.819-2-1.7-3.321l-.209,0,0-.417c-.656-.033.014-1.838-.641-1.871,0-.139,0-.278,0-.417l-.209,0c.326-1.874-1.423-2.846-1.5-4.365l-.209,0-.006-.834c-.611.039-.029-1.493-.639-1.454q0-.522-.008-1.042h-.209c0-.208,0-.417,0-.625l-.209,0c-.215-2.843-3.307-4.882-2.777-7.9l-.209,0c-2.439-5.867-15.854-1.4-21.553-2.746,0-.07,0-.139,0-.209l-1.882.015c0-.069,0-.138,0-.208l-.837.007c0-.07,0-.139,0-.209l-1.255.01c0-.069,0-.139,0-.208-4.028.112-8.028-.326-12.337.307,0-.069,0-.139,0-.208l-.628,0c0-.069,0-.139,0-.208l-.836.007c0-.07,0-.139,0-.209-4.312.888-8.895-.161-12.967.521,0,.07,0,.139,0,.209-2.193-.22-4.405.366-6.905.055,0,.069,0,.139,0,.208l-2.511.021c0-.07,0-.139,0-.209l-2.3.019c0-.07,0-.14,0-.209-3.382-.18-4.178,3.708-5.82,5.262l0,.417-.209,0,0,.417-.209,0c-.059,1.285-1.592,1.858-1.651,3.143l-.209,0,0,.417-.209,0,0,.417c-.48.208-.725,1.12-.614,1.882l-.209,0,0,.417c-1.42,1.608-3.593,3.733-3.931,6.083l-.209,0,0,.417-.209,0,0,.417-.209,0,0,.417-.21,0c0,.139,0,.278,0,.417l-.21,0c0,.139,0,.278,0,.417l-.21,0c0,.348.006.695.008,1.043l-.209,0,0,.417-.209,0q0,.312,0,.626h-.21c.445,1.748-1.436,2.84-1.643,4.187l-.209,0c0,.208,0,.417.005.626l-.21,0q0,.456.007.912a1.113,1.113,0,0,1-.18.619,28.149,28.149,0,0,0-4.124,11.442c-.584-.047-.244,1.306-.828,1.259-.342,3.645-3.569,9.06,2.886,8.19a1.078,1.078,0,0,1,.631.158c.246.127.811,0,.738.38,2.435.3,6.139-.807,7.751.559,4.05-.131,1.354,10.6,2.2,13.96l-.209,0c0,.209,0,.417.005.626l-.209,0c-.284,4.357.172,13.352.1,13.352a28.212,28.212,0,0,1-.354,8.349,31.936,31.936,0,0,1-.18,3.758q0,.729.011,1.46a2.208,2.208,0,0,1-.176.932c.49,2.691-3.957,2.679-3.957,2.748-1.692-.646-4.115.864-5.653.052a19.273,19.273,0,0,0-2.934-.391c0,.07-10.288-.63-15.209.183a1.134,1.134,0,0,1-1.271-.691c-2.026-5.549.14-8.585-1.466-14.452-.459.007-.257-.877-.429-1.249h.21l0-.418.209,0c0-.348,0-.695-.008-1.043l.209,0c0-.209,0-.418,0-.626l.209,0,0-.418h.21q-.015-1.775-.028-3.548l.21,0c0-.209,0-.418,0-.626l.209,0c0-.209,0-.418,0-.626l.209,0c-.076-2.015.091-3.841-.042-5.426h-.209c-.289-5.832-.154-11.354.079-16.906l-.209,0c.147-2.1.43-4.563.366-6.891l-.21,0c-.3-5.185-.01-9.888-.115-15.027l-.21,0-.006-.835-.21,0c-.155-4.533.494-8.774.338-13.215a1.148,1.148,0,0,1,.367-.859c.946-.926,1.974-3.307,0-3.463,0-.209,0-.418,0-.626-.925-.165.764-1.731-.013-1.67,0-.208,0-.417-.005-.626l-.209,0q-.017-1.983-.031-3.965h-.209q0-.312,0-.626l-.21,0q-.018-2.5-.038-5.009h.209q-.018-2.5-.038-5.009l.209,0,0-.417c.583.064.036-1.321.619-1.257l0-.417.209,0c.612-3.037-.625-7.763-.3-11.268l-.21,0a112.8,112.8,0,0,0-.13-16.9l-.209,0c.221-2.043-.365-5.057-3.179-4.776,0-.07,0-.139,0-.209-.429.183-1.423-.055-1.463.428a40,40,0,0,1-5.031-.379c0-.07,0-.139,0-.209l-.628,0c0-.07,0-.139,0-.209C187.546.709,179.2.46,171.129.3c0,.07,0,.139,0,.209l-1.677.012c0-.069,0-.139,0-.208a30.614,30.614,0,0,1-3.3-.078,1.133,1.133,0,0,0-1.131.676c-.257.6-1.241.138-2.267.22l-.006-.768L161.7.372c0-.07,0-.139,0-.209l-6.081.046c0-.07,0-.14,0-.209l-2.517.019c0,.069,0,.139,0,.208l-2.727.021c0,.07,0,.139,0,.209l-2.727.02c0,.07,0,.139,0,.209l-.629,0c0,.069,0,.139,0,.209l-.629,0c0,.07,0,.139,0,.209-6.372-.6-9.157.794-7.573,7.844a1.2,1.2,0,0,1-.059.687c-.956,2.493.181,6.06.214,9.069l-.21,0,.021,2.715h-.21c.721,6.084-.714,13.321.149,19.424h-.21c0,.139,0,.279,0,.418l-.21,0c.19,5.938-.933,11.357-.913,17.761l.21,0q0,.313.005.627l.209,0,0,.418.21,0q.006.73.011,1.462c-.623-.286.564,1.4-.2,1.464l.009,1.253-.209,0c.21,11.529-.82,23.9-.985,35.726-.611-.265.545,1.2-.2,1.255q.006.627.01,1.253l-.21,0q.028,3.656.056,7.311h-.21q.006.627.01,1.254l.21,0q.011,1.357.021,2.715l-.21,0q.006.73.011,1.462l.21,0q.024,3.237.049,6.475l-.209,0c.324,2.355-.023,4.714.056,7.311l-.21,0,0,.417-.21,0q0,.627.01,1.254c-.423-.08-.137,1.083.18,1.516a1.162,1.162,0,0,1,.256.671,11.792,11.792,0,0,1-.159,3.108c0,.209-.135.628-.205.628-.26.833-.145,2.065-.355,3.052a1.108,1.108,0,0,1-.929.847c-2.226.322-6.5.124-7.3-1.522-.07,0-.659-1.264-.264-3.625a1.763,1.763,0,0,1-.217-.834,1.846,1.846,0,0,1-.216-.834q-.011-1.462-.022-2.924l-.21,0-.024-3.134-.21,0c-.111-2.986-.036-6.219.141-8.985h.21l0-.418.21,0c0-.279,0-.557-.007-.836l.21,0q-.348-4.383-.7-8.768h.21c0-.349-.005-.7-.008-1.045l.21,0,0-.418h.21c0-.279,0-.557-.007-.836l.21,0q-.009-1.147-.018-2.3h.21c.549-2.911-.741-6.561.138-9.4l.21,0c.119-3.09-1.133-5.679-.493-8.459a1.177,1.177,0,0,0-.315-1.113,5.043,5.043,0,0,1-1.034-2.343,1.117,1.117,0,0,0-.5-.6c-5.893-3.493-11.081-9.288-16.945-11.348l-.42,0c0-.07,0-.139,0-.209-2.774-1.07-5.57-3.726-8.642-4.316.046-.585-1.313-.242-1.266-.826l-.421,0c0-.069,0-.139,0-.208l-.42,0a9.58,9.58,0,0,0-3.8-2.059c0-.069,0-.139,0-.209l-.42,0c0-.07,0-.139,0-.209-1.632,0-2.776-1.973-4.011-2.684-2.144-1.471-5.091-2.293-6.754-4.125l-.42,0c0-.07,0-.14,0-.209-1.146-.058-2.223-1.3-3.025-1.954a1.034,1.034,0,0,0-.321-.171C74.945,52.4,72.7,48.662,69.5,52.264a1.151,1.151,0,0,1-.454.317c-2.062.777-4.764,2.5-7.069,2.891,0,.07,0,.139,0,.209-.56-.159-.487.586-1.047.427,0,.069,0,.139,0,.209-.8-.059-1.182.874-1.885.851a10.342,10.342,0,0,1-4.188,2.125c0,.07,0,.139,0,.209-4.764,1.2-9.03,6.171-13.615,6.8.1.506-.941.127-.836.634-6.239,2.715-11.39,8.7-17.37,11.437,0,.07,0,.14,0,.209l-1.052.009c0,.07,0,.14,0,.209l-.421,0c0,.07,0,.139,0,.209l-1.052.009c-3.8,7.691-.857,21.708-1.869,30.763h-.211q.009,1.047.016,2.092l-.21,0q.01,1.359.02,2.719l-.21,0c.5,4.187-.866,8.738-.536,12.555l.211,0c0,.209,0,.418,0,.627l.21,0c1.53,7.1-.582,14.472-8.989,15.512M280.9,107.5l.211,0c.45-3.546-1.183-8.593,1.821-10.619a1.215,1.215,0,0,1,.435-.175c8.236-1.639,16.464.41,14.37,10.881l-.211,0c-.807,1.037.757,4.268-.809,4.427-2.983,1.644-12.469,1.3-15.6-.8a1.03,1.03,0,0,1-.324-.333c-.6-1.033.037-2.479.108-3.379m-28.229-4a36.524,36.524,0,0,1,.38-5.475h.21l-.006-.842h.21l0-.421.211,0c3-3.382,10.944-1.733,14.858-.617a1.076,1.076,0,0,1,.512.3c.9,1,.821,2.411.65,3.773l.21,0q0,.631.009,1.263h-.21c-.169,3.72.946,9.109-2.449,10.33-.809-.223-.945.565-1.68.434,0,.07,0,.14,0,.21l-2.947.022c0-.07,0-.14,0-.21a22.774,22.774,0,0,0-3.791-.393c0,.07,0,.14,0,.21l-.841.007c0-.071,0-.141,0-.211l-.842.006c0-.07,0-.14,0-.21-4.909,1.1-3.715-4.048-3.843-7.337-.4.053-.278-.549-.427-.839l-.21,0m-63.952-73.04c0,.07,0,.14,0,.21-.947.009-1.3,1.076-2.308.859,0,.07,0,.141,0,.211a50.732,50.732,0,0,1-7.369-.577c0-.07,0-.14,0-.21l-.631,0c0-.07,0-.14,0-.21l-.631,0c0-.071,0-.141,0-.211-1.708-.16-3.18.866-5.254.881,0-.07,0-.14,0-.21l-1.263.009c0-.07,0-.14,0-.21-9.042-.833-18.129,4.35-15.64-8.933l.211,0c1.022-3.318,6.822-.682,9.67-1.335,0-.07,0-.14,0-.21l3.789.182c0-.07,0-.14,0-.21l2.134-.016a1.541,1.541,0,0,0,.7-.247c.164-.088.472-.065.636-.152a1.531,1.531,0,0,1,.7-.248l2.555-.018c0,.07,0,.14,0,.21l1.052-.008c0,.07,0,.14,0,.211l.211,0c0-.07,0-.14,0-.21,5.919-.99,15.764-.12,13.114,8.951a2.292,2.292,0,0,1-1.672,1.486m-26.628,10.4a1.148,1.148,0,0,0,.746-.127c.263-.15.84-.066,1.124-.2,0,.07,0,.14,0,.21l.631,0c0,.07,0,.14,0,.21l1.263-.009c-.039.489.9.333,1.188.607a1.027,1.027,0,0,0,.727.22l4.615-.034c-.266-.615,1.215.539,1.261-.22l.842-.006c0-.07,0-.14,0-.211h.21c0,.07,0,.14,0,.21,1.617.128,3.894.327,5.476.591,0,.07,0,.14,0,.21,7.615-1.792,8.738,4.152,7.624,10.412a1.135,1.135,0,0,1-1.089.933c-4.734.081-8.239-1.406-13.4-.14,0-.07,0-.14,0-.21-2.085.082-2.965-.289-4.632-.176,0,.07,0,.14,0,.21-1.708.861-6.108-.243-8,.27.074-.383-.495-.256-.742-.384a1.538,1.538,0,0,0-.706-.237l-1.5.012c0-.071,0-.141,0-.211-2.809-.509-1.166-4.524-1.946-6.93-.384-4.333,2.779-5.521,6.3-5m7.7,48.457c0,.07,0,.141,0,.211l.421,0c0,.07,0,.14,0,.21l3.157-.023c0,.07,0,.14,0,.21,1.218-.007,2.366-.478,3.155-.234,0,.07,0,.14,0,.211l1.682-.223c0,.07,0,.14,0,.21l.842-.006c0,.07,0,.14,0,.21l2.946-.022c0,.07,0,.141,0,.211,5.188-.315,7.119-.064,5.938,6.059l.21,0,.027,3.577-.21,0,0,.421h-.211c.33,4.318-3.752,2.835-6.922,3,0-.07,0-.14,0-.21h-.21c0,.07,0,.141,0,.211l-1.262.009c0-.07,0-.14,0-.21l-1.892.224c0-.07,0-.14,0-.21l-.631,0c0-.07,0-.14,0-.21l-4.207.242c0-.07,0-.141,0-.211l-.632.005c0-.07,0-.14,0-.21-5.227.6-10.6-1.078-15.365-.307-2.621.271-1.449-3.214-1.705-5.134a1.22,1.22,0,0,0-.058-.231c-3.776-11.083,8.14-7.3,14.923-7.781m-5.858-23.737c0,.07,0,.141,0,.211l1.263-.01c0-.07,0-.14,0-.21l1.263-.009c0,.07,0,.14,0,.21l.631-.005c0,.07,0,.141,0,.211l.632,0c0,.07,0,.14,0,.21,2.512.2,5.758-.823,8.2-.481,0,.07,0,.14,0,.21l1.052-.008c0,.07,0,.14,0,.211l2.734-.231c0,.07,0,.14,0,.21l.421,0c0,.07,0,.14,0,.211l.841-.007c0,.07,0,.141,0,.211l1.683-.013c0-.07,0-.14,0-.21l1.473-.011c-.076.426.561.077.421,0l1.683-.013c0,.07,0,.141,0,.211,3.2-.672,2.671,2.466,2.137,4.4l-.211,0c0,.14,0,.28,0,.421-.433-.043-.276,1-.011,1.362a1.038,1.038,0,0,1,.236.594q.007,1.02.015,2.04h.21l0,.421.211,0c-.261,1.611-.862,3.127-2.5,2.965,0-.07,0-.14,0-.211-3.232.028-7.465-.292-10.751.369a1.229,1.229,0,0,1-.768-.1c-.421-.195-1.53.14-1.53-.378l-.841.006c0-.07,0-.14,0-.21l-1.051.218c0-.07,0-.14,0-.21l-3.578.026c0,.07,0,.141,0,.211a3.413,3.413,0,0,0-2.1.015c0-.07,0-.14,0-.21-2.742-.217-6.057.518-8.416.273,0-.07,0-.14,0-.21-3.074-.315-2.363-7.048-3.017-9.448-.577-5.958,6.226-2.392,9.657-3.229M93.747,95.221l.211,0c0-.07,0-.14,0-.21l.211,0c0-.07,0-.14,0-.21l.421,0c.71-1.267,4.058-1.052,5.255-.882.856.873,3.029-1.1,3.788-.028,1.82-.047,2.389,4.02,1.724,5.459l-.211,0q0,.646.01,1.293a1.533,1.533,0,0,0,.247.7c.132.245.013.815.395.736q.006.737.011,1.473c.573.116.575,3.075.023,3.156q.006.736.011,1.473c-1.066.563.962,3.176.025,3.367,0,.211,0,.421.005.632h-.21l.009,1.263h-.211c.624,3.82-3.491,2.636-5.659,2.989,0,.07,0,.14,0,.21-2.643-.051-4.933-.283-6.351-2.563a1.127,1.127,0,0,1-.156-.709,107.309,107.309,0,0,0,.455-18.148M65.671,108.063l.21,0q-.01-1.578-.023-3.156l.21,0c0-.351,0-.7-.007-1.052l.21,0a24.486,24.486,0,0,0-.052-6.944l.211,0q-.006-.841-.013-1.683l.211,0c-.545-4.559,12.088-3.534,13.67-1.154l-.21,0c0,.351.005.7.008,1.052h.21l.006.841h.211l0,.421.21,0c-.819,4.529,2.87,19.308-2.591,19.38,0,.071,0,.141,0,.211l-.842.006c-.025.816-1.738-1-2.1.016L74.148,116c0,.07,0,.14,0,.21-2.2-.752-5.345.427-6.95-.79-2.6-1.166-1.286-5.052-1.528-7.354M39.879,96.042c0-.21,0-.421-.005-.631l.211,0c.248-2.1.484-3.907,3.552-3.393,0,.07,0,.14,0,.21,13.925-1.824,9.466,8.558,10.029,18.655l-.21,0c1.4,4.66-2.454,4.857-6.279,4.676,0-.07,0-.14,0-.21l-.632,0c0-.071,0-.141,0-.211l-1.894.014c0-.07,0-.14,0-.21-1.557.3-3.892.319-4.219-1.442l-.211,0c.333-5.156-.157-10.3-.324-15.361,0-.213-.709-1.984-.016-2.1" fill="#f2f0e0" fill-rule="evenodd"/>
      <path id="パス_29300" data-name="パス 29300" d="M44.334,100.85l-.21,0q0-.421-.007-.842l.211,0c0-.28,0-.561-.007-.841l.211,0,0-.421h.21c0-.211,0-.421,0-.632h.21q-.113-1.052-.226-2.1c7.271-1.3,4.542,5.65,5.548,10.27l-.211,0,.027,3.577-.21,0,.219,1.261c-7.381,3.7-6.018-5.434-5.758-10.269" fill="#f2f0e0" fill-rule="evenodd"/>
      <path id="パス_29301" data-name="パス 29301" d="M70.269,103.82l.21,0c.483-2.9-1.416-8.981,2.256-8.013,0-.071,0-.141,0-.211l1.684-.012c0,.07,0,.14,0,.21,1.106-.688,2.718.237,3.37.4a.364.364,0,0,0,.424.418c-.158,4.551-.608,8.672-.534,13.051.487.039.248,1.039.432,1.47l-.211,0c0,.14,0,.28,0,.421h-.211c-.3,2.975-4.537.639-6.516,1.1,0-.07,0-.14,0-.21-2.523-.461-.627-6.5-.906-8.622" fill="#f2f0e0" fill-rule="evenodd"/>
    </g>
  </g>
</svg>
