<svg xmlns="http://www.w3.org/2000/svg" xmlns:xlink="http://www.w3.org/1999/xlink" width="480" height="150" viewBox="0 0 480 150">
  <defs>
    <clipPath id="clip-path">
      <rect id="長方形_1904" data-name="長方形 1904" width="480" height="150" transform="translate(13.548 0.001)" fill="none"/>
    </clipPath>
  </defs>
  <g id="グループ_5447" data-name="グループ 5447" transform="translate(-13.548 -0.001)" clip-path="url(#clip-path)">
    <path id="パス_29857" data-name="パス 29857" d="M208.464,145.331c-7.18-.112-14.372-.086-21.537-.371-9.51-.378-19.011-.915-28.494-1.536-11.477-.751-22.869-1.948-34.214-3.343-13.741-1.688-27.341-3.781-40.7-6.553a187.125,187.125,0,0,1-23.936-6.338,41.155,41.155,0,0,1-9.44-4.379,13.681,13.681,0,0,1-3.882-3.865,1.794,1.794,0,0,1,.48-2.519,9.944,9.944,0,0,1,4.2-2.332c4.258-1.147,8.532-2.267,12.787-3.42a86.608,86.608,0,0,0,11.684-4.084,188.958,188.958,0,0,0,18.835-9.884,67.782,67.782,0,0,0,8.3-5.279c4.578-3.585,9.26-7.124,12.614-11.327a19.94,19.94,0,0,0,3.485-6.613,8.38,8.38,0,0,1,2.749-3.73,9.955,9.955,0,0,1,6.484-2c6.071-.06,12.145-.069,18.217-.064q17.744.017,35.486.073c8.318.02,16.636.08,24.954.065,26.654-.048,103.708-.125,130.363-.18a23.931,23.931,0,0,1,5.892.549,7.739,7.739,0,0,1,3.533,1.839,8.531,8.531,0,0,1,2.481,3.64c1.177,3.948,3.862,7.437,7.407,10.635q2.541,2.293,5.309,4.472a73.178,73.178,0,0,0,6.415,4.767c3.75,2.355,7.723,4.55,11.609,6.806.879.511,1.8.988,2.678,1.5a105.368,105.368,0,0,0,12.594,5.943,80.449,80.449,0,0,0,8.9,2.867c4.2,1.2,8.469,2.275,12.7,3.413a9.921,9.921,0,0,1,4.158,2.282,1.953,1.953,0,0,1,.664,2.454c-.879,1.921-2.752,3.333-4.908,4.583-4.791,2.778-10.444,4.564-16.209,6.195a306.67,306.67,0,0,1-32.541,6.958q-19.936,3.354-40.289,5.268c-8.687.819-17.393,1.6-26.125,2.135-8.975.554-17.987.869-26.992,1.147-5.093.157-60.6.028-65.707.028,0,.065,0,.129,0,.194" transform="translate(24.133)" fill="#f2f0e0"/>
    <path id="パス_29858" data-name="パス 29858" d="M361.413,54.466c2.807,2.571,2.446,4.428-1.62,8.822.212.224.432.444.638.677a2.866,2.866,0,0,1,.332,3.617,8.281,8.281,0,0,1-3.91,3.166A22.559,22.559,0,0,1,342.144,72.3a3.552,3.552,0,0,0-1.744-.011c-6.209,1.8-12.346,1.24-18.4-.643a28.817,28.817,0,0,1-12.221-7.22,12.051,12.051,0,0,1,.686-17.52c3.456-2.729,7.193-2.774,11.076-1.015.482.218.951.469,1.413.728a2.27,2.27,0,0,0,2.97-.339c2.049-1.879,4.617-2.466,7.3-2.774a15.274,15.274,0,0,0,3.666-.893,4.052,4.052,0,0,0,2.447-3.464,2.977,2.977,0,0,1,.82-1.743,3.5,3.5,0,0,0,1.216-3.7,5.125,5.125,0,0,1,.571-3.478,3.478,3.478,0,0,0,.158-3.434,3.992,3.992,0,0,1-.128-2.354c.288-1.521-.217-2.173-1.786-2.054a6.239,6.239,0,0,0-3.807,1.68c-.967.88-1.856,1.857-2.891,2.646a6.293,6.293,0,0,1-2.37,1.126,2.911,2.911,0,0,1-2.145-.245c-.46-.353-.47-1.294-.714-2.093a4.485,4.485,0,0,1-3.631-1.056,3.222,3.222,0,0,1-.783-4.012,6.789,6.789,0,0,1,4.5-3.5c-.92-.48-1.821-.9-2.673-1.408a4.959,4.959,0,0,1-2.27-3.332c-.564-2.516,1.04-4.385,3.879-4.48a13.72,13.72,0,0,1,2.68.376,17.923,17.923,0,0,1-.585-3.98c.2-3.04,2.444-4.123,5.317-3.4A4.678,4.678,0,0,1,337.8,3.562c.114.249.211.506.339.815,1.176-2.755,3.008-4.314,4.787-4.122,2.078.224,3.268,1.539,3.881,4.319l.255-.095c.592-.218,1.352-.771,1.737-.577a2.71,2.71,0,0,1,1.327,1.713,6.6,6.6,0,0,1-.268,2.911,12.953,12.953,0,0,0,.839,10.583,45.355,45.355,0,0,0,3.645,4.836c1.175-1.38,1.4-1.41,2.8-.738a1.3,1.3,0,0,0,.859-.02,3.079,3.079,0,0,1,4.265,2.861,7.09,7.09,0,0,1-1.626,4.821,2.129,2.129,0,0,0-.226,2.472,25.192,25.192,0,0,1,2,14.708,7.55,7.55,0,0,0,.084,1.975,5.565,5.565,0,0,1-1.084,4.442" transform="translate(24.133)" fill="#f2f0e0"/>
    <path id="パス_29859" data-name="パス 29859" d="M105.572,54.466c-2.807,2.571-2.446,4.428,1.62,8.822-.212.224-.432.444-.638.677a2.866,2.866,0,0,0-.332,3.617,8.28,8.28,0,0,0,3.91,3.166A22.559,22.559,0,0,0,124.841,72.3a3.552,3.552,0,0,1,1.744-.011c6.209,1.8,12.346,1.24,18.4-.643A28.817,28.817,0,0,0,157.2,64.43a12.051,12.051,0,0,0-.686-17.52c-3.456-2.729-7.193-2.774-11.076-1.015-.482.218-.951.469-1.413.728a2.27,2.27,0,0,1-2.97-.339c-2.049-1.879-4.617-2.466-7.305-2.774a15.273,15.273,0,0,1-3.666-.893,4.052,4.052,0,0,1-2.447-3.464,2.977,2.977,0,0,0-.82-1.743,3.5,3.5,0,0,1-1.216-3.7,5.125,5.125,0,0,0-.571-3.478,3.478,3.478,0,0,1-.158-3.434A3.992,3.992,0,0,0,125,24.439c-.288-1.521.217-2.173,1.786-2.054a6.239,6.239,0,0,1,3.807,1.68c.967.88,1.856,1.857,2.891,2.646a6.293,6.293,0,0,0,2.37,1.126A2.911,2.911,0,0,0,138,27.592c.46-.353.47-1.294.714-2.093a4.485,4.485,0,0,0,3.631-1.056,3.222,3.222,0,0,0,.783-4.012,6.789,6.789,0,0,0-4.5-3.5c.92-.48,1.821-.9,2.673-1.408a4.959,4.959,0,0,0,2.27-3.332c.564-2.516-1.04-4.385-3.879-4.48a13.72,13.72,0,0,0-2.68.376,17.922,17.922,0,0,0,.585-3.98c-.2-3.04-2.444-4.123-5.317-3.4a4.678,4.678,0,0,0-3.094,2.857c-.114.249-.211.506-.339.815C127.671,1.622,125.839.063,124.06.255c-2.078.224-3.268,1.539-3.881,4.319l-.255-.095c-.592-.218-1.352-.771-1.737-.577a2.71,2.71,0,0,0-1.327,1.713,6.6,6.6,0,0,0,.268,2.911,12.953,12.953,0,0,1-.839,10.583,45.355,45.355,0,0,1-3.645,4.836c-1.175-1.38-1.4-1.41-2.8-.738a1.3,1.3,0,0,1-.859-.02,3.079,3.079,0,0,0-4.265,2.861,7.09,7.09,0,0,0,1.626,4.821,2.129,2.129,0,0,1,.226,2.472,25.192,25.192,0,0,0-2,14.708,7.55,7.55,0,0,1-.084,1.975,5.565,5.565,0,0,0,1.084,4.442" transform="translate(24.133)" fill="#f2f0e0"/>
    <rect id="長方形_1903" data-name="長方形 1903" width="232.239" height="43.746" transform="translate(141.35 106.493)" fill="#f2f0e0"/>
    <path id="パス_29860" data-name="パス 29860" d="M28.264,46.988c5.007,6.385,16.716,5.759,19.776-2.052,7.54,7.217,20.167-2.3,15.084-11.071-.828-1.431-3.741-2.977-3.581-4.712.528-5.744.659-8.859-3.084-13-4.418-4.892-10.223-2.165-12.977-2.568-1.629-.238-3.632-3.884-6.035-5.725C30.4,2.459,21.8,9.275,17.387,14.684,9.857,13.7,2.21,18.478.318,25.934-.9,31.31,1.41,35.528,6.691,37.253c-3.6,12.551,14.2,16.327,21.573,9.735" fill="#f2f0e0" fill-rule="evenodd"/>
    <path id="パス_29861" data-name="パス 29861" d="M447.926,71.214a4.427,4.427,0,0,0,3.155-5.6,7.738,7.738,0,0,0-8.45-5.569c-2.187-2.678-4.622-5.068-9.264-2.851-1.353.646-2.848,2.187-3.655,2.305-1.363.2-4.237-1.151-6.424,1.271-1.853,2.052-1.789,3.594-1.527,6.438.079.859-1.363,1.624-1.773,2.332-2.517,4.345,3.735,9.054,7.468,5.482,1.514,3.867,7.311,4.176,9.79,1.015,3.652,3.264,12.462,1.4,10.68-4.819" transform="translate(42.31)" fill="#f2f0e0" fill-rule="evenodd"/>
    <path id="パス_29862" data-name="パス 29862" d="M67.81,66.87a3.016,3.016,0,0,0,2.149-3.818A5.272,5.272,0,0,0,64.2,59.258c-1.489-1.824-3.148-3.452-6.31-1.942-.922.44-1.941,1.49-2.49,1.57-.929.136-2.887-.784-4.377.866-1.262,1.4-1.218,2.449-1.04,4.386.054.585-.929,1.107-1.208,1.589-1.714,2.96,2.544,6.168,5.087,3.734,1.032,2.635,4.981,2.845,6.67.692,2.488,2.223,8.49.95,7.276-3.283" transform="translate(15.915)" fill="#f2f0e0" fill-rule="evenodd"/>
  </g>
</svg>
