<svg xmlns="http://www.w3.org/2000/svg" xmlns:xlink="http://www.w3.org/1999/xlink" width="479.863" height="150" viewBox="0 0 479.863 150">
  <defs>
    <clipPath id="clip-path">
      <rect id="長方形_1869" data-name="長方形 1869" width="479.863" height="150" fill="#deebdc"/>
    </clipPath>
  </defs>
  <g id="グループ_5380" data-name="グループ 5380" clip-path="url(#clip-path)">
    <path id="パス_29312" data-name="パス 29312" d="M0,124.96c14.6-.665,32.65-8.638,41.878-7.973S91.228,129,100,129.619c18.823,1.331,49.07-11.361,61.235-10.319,18.013,1.543,49.2,10.972,58.084,10.972s48.691-7.534,62.161-6.811c24.8,1.331,46.792,14.317,60.756,13.652s29.091-6.422,41.229-6.752c39.253-1.068,96.393,19.555,96.393,19.555H0Z" transform="translate(0 0.084)" fill="#deebdc"/>
    <path id="パス_29313" data-name="パス 29313" d="M223.046,95.8H200.679L188.3,78.007A14.48,14.48,0,0,0,176.413,71.8H139.3V60.777a1.287,1.287,0,0,0-1.286-1.287h-7.864a1.287,1.287,0,0,0-1.286,1.287V71.8H116.948a2.7,2.7,0,0,0-2.694,2.689L114.205,95.8H103.274a5.659,5.659,0,0,0-5.557,6.718l9.059,32.942a5.657,5.657,0,0,0,5.557,4.6H213.987a5.658,5.658,0,0,0,5.557-4.6l9.059-32.942a5.66,5.66,0,0,0-5.557-6.718m-96.728,19.874a4.7,4.7,0,1,1,4.7-4.7,4.7,4.7,0,0,1-4.7,4.7M135.4,87.423a1.982,1.982,0,0,1-1.982,1.983H129.75a1.982,1.982,0,0,1-1.982-1.983V83.749a1.982,1.982,0,0,1,1.982-1.983h3.671a1.982,1.982,0,0,1,1.982,1.983Zm7.6,28.246a4.7,4.7,0,1,1,4.7-4.7,4.7,4.7,0,0,1-4.7,4.7m5.445-28.246a1.983,1.983,0,0,1-1.983,1.983H142.8a1.983,1.983,0,0,1-1.982-1.983V83.749a1.983,1.983,0,0,1,1.982-1.983h3.671a1.983,1.983,0,0,1,1.983,1.983Zm4.622,0V83.749a1.983,1.983,0,0,1,1.983-1.983h3.671a1.983,1.983,0,0,1,1.982,1.983v3.674a1.983,1.983,0,0,1-1.982,1.983h-3.671a1.983,1.983,0,0,1-1.983-1.983m6.62,28.246a4.7,4.7,0,1,1,4.7-4.7,4.7,4.7,0,0,1-4.7,4.7m16.687,0a4.7,4.7,0,1,1,4.7-4.7,4.7,4.7,0,0,1-4.7,4.7" transform="translate(0 0.043)" fill="#deebdc"/>
    <path id="パス_29314" data-name="パス 29314" d="M135.073,41.023c-1.176-5.876-7.889-13.71-17.18-14.58s-16.268,2.243-21.35.273c-7.611-2.949-18.1-19.4-32.581-23.776C43.521-3.235,29.594.94,29.6,9.685c.015,14.5,18.484,17.839,30.445,18.708s19.137,2.23,10.656,7.162c-7.029,4.088,3.044,13.456,18.919,10.711,13.147-2.273,27-4.676,35.387-1.544,7.969,2.975,3.209,7.746,6.93,7.835,1.957.046,4.348-5.459,3.133-11.534" transform="translate(0 0)" fill="#deebdc"/>
    <path id="パス_29315" data-name="パス 29315" d="M282.439,39.872a3.571,3.571,0,0,1-3.5-2.935c-1.616-1.906-13.559-3.809-17.763-1.652a3,3,0,0,1-2.738-5.342c5.167-2.654,16.618-1.708,22.015.9a10.233,10.233,0,0,1,2.552,1.687l.346-.358c4.061-4.216,11.619-12.066,21.949-9.02a3,3,0,0,1-1.695,5.76c-6.313-1.862-11.331,2.649-15.935,7.426-1.929,2-3.4,3.535-5.232,3.535" transform="translate(-15 15.016)" fill="#deebdc"/>
    <path id="パス_29316" data-name="パス 29316" d="M319.753,52.458a3,3,0,0,1-2.354-1.134c-1.784-2.255-6.306-4.825-11.176-5.15-2.178-.146-5.241.127-7.444,2.254a3,3,0,0,1-4.168-4.32c2.995-2.892,7.135-4.251,12.011-3.926a24.463,24.463,0,0,1,12.9,4.884,15.727,15.727,0,0,1,9.249-4.928c4.029-.415,7.893,1.174,11.5,4.751a3,3,0,0,1-4.227,4.262c-2.252-2.238-4.481-3.264-6.616-3.044-4.073.414-7.135,4.959-7.166,5a3.009,3.009,0,0,1-2.377,1.343q-.063,0-.126,0" transform="translate(-15 15.029)" fill="#deebdc"/>
  </g>
</svg>
