<svg xmlns="http://www.w3.org/2000/svg" xmlns:xlink="http://www.w3.org/1999/xlink" width="383.533" height="150" viewBox="0 0 383.533 150">
  <defs>
    <clipPath id="clip-path">
      <rect id="長方形_1897" data-name="長方形 1897" width="383.533" height="150" fill="#deebdc"/>
    </clipPath>
  </defs>
  <g id="グループ_5434" data-name="グループ 5434" clip-path="url(#clip-path)">
    <path id="パス_29782" data-name="パス 29782" d="M11.225,74.851c6.852-1.264,103.883-14.956,110.7-16.389,6.341-1.332,12.679-2.683,19.048-3.865,4.542-.843,9.129-1.442,13.7-2.107A159.424,159.424,0,0,1,173.7,50.745c3.716-.09,7.432-.353,11.137-.665,3.269-.275,6.519-.772,9.785-1.089,6.071-.588,12.162-.992,18.217-1.709,3.741-.443,7.456-1.1,11.179-1.709a12.03,12.03,0,0,0,4.5,1.966c4.134,12.629,2.2,24.255-5.744,34.556a52.663,52.663,0,0,1-13.644,12.259c-.844.53-4.874,3.219-5.313,3.291a5.183,5.183,0,0,1-2.3.237c.726-.366,1.462-.743,2.223-1.146,0,0,23.017-15.364,5.6-24.03,2.115-3.805-.487-8.845-.487-8.845-2.792-3.854-5.246-3.429-6.779-2.449-4.347-5.458-9.726-9.754-13.422-4.253,0,0-18.2-9.477-24.195,11.32a31.355,31.355,0,0,0-.1,9.5c-1.093.716-2.01,2.184-2.223,5.031,0,0,.716,9.373,8.417,8.521-.3,3.925.054,17.046,19.259,11.205a9.512,9.512,0,0,0-1.337,3.39,50.245,50.245,0,0,1-14.026,2.841c-12.889.662-23.474-4.292-31.481-14.707a3.439,3.439,0,0,0-.507-1.448,4.481,4.481,0,0,1-.312-1.68c1.037-1.2,2.812-3.277,3.252-3.92,0,0,2.38-3.192-1.5-1.709a5.187,5.187,0,0,0-1.628,1,6.632,6.632,0,0,0-1.455,4.031,5.188,5.188,0,0,0-3.016-1.046c-.673-2.046-3.507-3.051-3.507-3.051a5.214,5.214,0,0,0-1.913,0c-4.085.777-.383,2.245-.383,2.245.607.27,2.589.919,4.1,1.4a4.425,4.425,0,0,0-.971.7c-1.22-1.587-3.862-1.927-3.862-1.927a5.188,5.188,0,0,0-1.87.4c-3.83,1.62.1,2.276.1,2.276.705.147,3.08.389,4.683.542a4.505,4.505,0,0,0-.38,1.154c-1.507-1.383-4.269-1.151-4.269-1.151a5.189,5.189,0,0,0-1.744.784c-3.407,2.385.571,2.205.571,2.205.837,0,3.906-.354,5.4-.531a4.567,4.567,0,0,0,.1.571,6.253,6.253,0,0,0-3.35.158,4.553,4.553,0,0,0-1.309,1.043c-2.374,2.758.96,1.746.96,1.746.685-.177,3.062-1.08,4.331-1.567a6.478,6.478,0,0,0,2.536,2.123c11.926,15.614,27.124,18.258,37.807,17.709a56.768,56.768,0,0,0,12.481-2.1c.782-.222,1.512-.447,2.2-.67a24.114,24.114,0,0,0,1.478,3s14.045,20.461,29.8,20.368a11.769,11.769,0,0,1,.5,5c-1.592,1.163-6.567,4.305-12.53,3.18-5.909-1.114-11.227-6.088-15.807-14.783-4.484-8.513-9.693-12.779-15.482-12.681-6.331.109-11.237,5.624-13.717,10.749-2.1,4.33-3.371,10.218-.669,13.755a2.33,2.33,0,0,0,3.7-2.828c-.934-1.222-.844-4.755,1.16-8.9,1.79-3.7,5.38-8.046,9.6-8.119,3.833-.065,7.733,3.459,11.28,10.193,5.275,10.015,11.69,15.8,19.065,17.19a19.21,19.21,0,0,0,8.857-.449,22.966,22.966,0,0,0,8.118-4.2l.49-.423.2-.616a14.245,14.245,0,0,0-.12-7.731,22.073,22.073,0,0,0,10.082-6.528,43.251,43.251,0,0,0,27.463,5.291,55.053,55.053,0,0,0,8.155-1.671,58.914,58.914,0,0,0,6.619-2.31c1.807,1.209,3.826,1.439,5.127.4,1.78-1.427,1.534-4.692-.55-7.291a8.315,8.315,0,0,0-2.041-1.837,10.046,10.046,0,0,0-1.514-2.6,8.191,8.191,0,0,0-6.264-3.357,4.113,4.113,0,0,0-1.113-2.529c-1.12-1.3-2.6-1.859-3.3-1.255s-.363,2.149.756,3.447a5.126,5.126,0,0,0,1.323,1.11c-.045.032-.092.058-.135.093a3.756,3.756,0,0,0-.644.672,3.442,3.442,0,0,0-.594-.983c-.808-.946-1.918-1.323-2.48-.842-.518.443-.382,1.457.273,2.354a.913.913,0,0,0-.568.2c-.562.481-.362,1.636.446,2.582a3.874,3.874,0,0,0,.32.331,2.557,2.557,0,0,0,.718,2.127,2.526,2.526,0,0,0,2.019,1.035,10.3,10.3,0,0,0,.771,1.223,48.434,48.434,0,0,1-8.243,1.8,35.417,35.417,0,0,1-22.587-4.189c1.743-3.64,3.409-8.676,2.221-13.1a48.014,48.014,0,0,1,6.8-4.315c11.1-5.768,22.413-5.848,33.665-.251.744,1.845,2.132,3.072,3.683,3.021,2.151-.071,3.825-2.574,3.861-5.668a8.422,8.422,0,0,0,2.02-6.042,10.115,10.115,0,0,0-.237-1.849,2.476,2.476,0,0,0,.844-2.062,2.511,2.511,0,0,0-.824-2.046,3.9,3.9,0,0,0,.027-.451c0-1.222-.592-2.211-1.318-2.21a.9.9,0,0,0-.553.212c-.084-1.088-.632-1.931-1.3-1.93-.727,0-1.314.992-1.312,2.213a3.371,3.371,0,0,0,.186,1.113,3.734,3.734,0,0,0-.91-.09c-.054,0-.106.013-.16.017a5.033,5.033,0,0,0,.277-1.673c.005-1.684-.729-3.051-1.639-3.054s-1.653,1.36-1.658,3.044a4.034,4.034,0,0,0,.787,2.6,8.032,8.032,0,0,0-2.526,6.477,42.791,42.791,0,0,0-36.307,2.1,55.454,55.454,0,0,0-7.728,4.889,19.26,19.26,0,0,0-6.279-2.658l-.008-.006c-.067-.017-.138-.032-.205-.048l-.417-.1c-.2-.045-.4-.088-.606-.131l-.421-.085c-.232-.045-.47-.087-.71-.128-.121-.021-.24-.043-.363-.062-.369-.06-.744-.116-1.131-.167l-.174-.015-.606-.054-.034,0-.293-.027-.051-.005-.318-.029-.09-.009-.321-.03-.141-.013-.363-.035-.119-.011-.421-.041-.109-.01-.465-.046-.111-.011-.514-.052-.081-.008-.582-.059-.033,0-.645-.067-.026,0c-2.2-.23-4.846-.527-7.516-.875a54.549,54.549,0,0,0,5.548-4.032,56.772,56.772,0,0,0,8.831-9.066c6.548-8.488,13.042-22.528,6.93-41.283a8.9,8.9,0,0,0,.09-1.429c3.852-.534,7.706-1.05,11.566-1.523,4.775-.586,22.9-2.524,27.668-3.143a61.348,61.348,0,0,0,8.161-1.712c3.679-1,7.319-2.157,10.943-3.346,3.785-1.242,7.508-2.674,11.3-3.882a55.736,55.736,0,0,1,7.3-1.847c3.8-.663,7.639-1.057,11.452-1.63,7.721-1.161,15.44-.554,23.16-.032,1.39.094,2.776.254,4.167.334.236.013.487-.228.731-.352-.17-.215-.3-.522-.518-.626a6.34,6.34,0,0,0-1.332-.39c-5.62-1.221-11.318-1.938-17.022-2.6a79.54,79.54,0,0,0-15.071-.059c-.226.016-.455,0-.682,0a9.118,9.118,0,0,1,2.061-.763c5.9-1.428,11.827-2.733,17.689-4.29a171.743,171.743,0,0,1,19.86-4.19c3.675-.524,7.379-.846,11.07-1.26.964-.108,1.927-.221,2.891-.332.022-.073.044-.147.065-.221-.222-.144-.43-.383-.669-.418a44.659,44.659,0,0,0-5.2-.676c-2.864-.091-5.738-.039-8.6.07a97.505,97.505,0,0,0-16.841,2.066c-9.7,2.091-19.38,4.294-29.01,6.688-6.015,1.5-11.967,3.285-17.865,5.2A153.828,153.828,0,0,1,270.22,30.5c-4.746.774-22.83,3.032-27.587,3.736-3.512.52-7.009,1.15-10.529,1.6-.98-1.215-2.258-1.794-3-1.292a1.143,1.143,0,0,0-.427.58,1.506,1.506,0,0,0-1.484-.039,1.256,1.256,0,0,0-.492.863,1.776,1.776,0,0,0-1.869-.193,1.358,1.358,0,0,0-.536.975c-1.83.188-3.66.363-5.492.514-5.042.415-10.1.664-15.145,1a89.5,89.5,0,0,0-13.117,1.442,33.609,33.609,0,0,1-3.731.534c-3.317.336-6.639.622-9.957.951-.8.079-1.591.25-2.387.379-.035-.08-.07-.16-.1-.24a6.259,6.259,0,0,1,.89-.906c1.918-1.307,3.8-2.68,5.8-3.847,5.263-3.07,10.572-6.06,15.879-9.054,4.64-2.619,9.274-5.248,13.959-7.785a76.943,76.943,0,0,1,14.552-6.357c3.5-1.045,7.053-1.94,10.569-2.95a23.327,23.327,0,0,0,2.965-1.151c.194-.085.264-.452.39-.689a4.922,4.922,0,0,0-.759-.28c-.145-.029-.314.077-.474.113-2.587.582-5.16,1.242-7.765,1.726a67.286,67.286,0,0,0-18.931,6.491c-3.682,1.92-7.322,3.921-10.987,5.873-2.7,1.438-5.433,2.823-8.12,4.29-4.842,2.644-9.615,5.421-14.5,7.972-3.99,2.082-8.123,3.887-12.167,5.868a23.64,23.64,0,0,1-8.681,2.1c-3.158.253-6.315.551-9.457.945-3.714.466-7.419,1.016-11.116,1.6-3.887.617-7.758,1.329-11.639,1.982a44.5,44.5,0,0,1-5.347.8c-5.6.244-101.45,11.239-107.051,11.276-4.122.028-8.245-.226-12.368-.352V77.142Z" fill="#deebdc"/>
    <path id="パス_29783" data-name="パス 29783" d="M333.292,28.971c-1.022-1.394-2.6-2.476-4.569-1.568a9.976,9.976,0,0,0-1.7,1.284,2.31,2.31,0,0,0-3.165.9,4.641,4.641,0,0,0,.621,6.235,19.555,19.555,0,0,1,1.743,2.042c.458.6.755.647,1.33.148A5.21,5.21,0,0,0,329.391,35c1.858.375,3.609.74,5.366,1.074a2,2,0,0,0,.805-.078c.788-.185,1.127-.587.794-1.286a35.219,35.219,0,0,0-3.064-5.736" fill="#deebdc"/>
    <path id="パス_29784" data-name="パス 29784" d="M205.919,26.578c-2.59-1.532-6.4-.557-7.753,1.492a3.03,3.03,0,0,0,.207,3.882,9.818,9.818,0,0,0,7.231,2.639c1.286-.26,2.93-.695,4.6-.9,1.357-.165,2.115-1.092,1.006-2.54a18.216,18.216,0,0,0-5.293-4.575" fill="#deebdc"/>
    <path id="パス_29785" data-name="パス 29785" d="M192.883,24.529A4.753,4.753,0,0,0,198,21.61a28.942,28.942,0,0,0,.858-3.338,25.311,25.311,0,0,0-1.409-6.7,1.317,1.317,0,0,0-2.429-.344c-1.364,1.8-2.715,3.627-3.922,5.537a6.357,6.357,0,0,0-.932,5.024,3.43,3.43,0,0,0,2.719,2.74" fill="#deebdc"/>
    <path id="パス_29786" data-name="パス 29786" d="M210.419,16.422a5.33,5.33,0,0,0,2.817-5c.051-2.571-.969-4.915-1.539-7.352a1.537,1.537,0,0,0-.452-.668c-.675-.654-1.208-.6-1.749.174-.437.625-.837,1.276-1.268,1.905a14.939,14.939,0,0,0-2.683,6.612,4.437,4.437,0,0,0,1.543,3.958,2.649,2.649,0,0,0,3.331.373" fill="#deebdc"/>
    <path id="パス_29787" data-name="パス 29787" d="M221.613,17.228a5.319,5.319,0,0,0-3.981.457,2.83,2.83,0,0,0-1.618,2.035,3.7,3.7,0,0,0,2.921,4.333,13.163,13.163,0,0,0,3.249.045c1.358-.086,2.091-.076,3.445-.228.005.055.628-.1.633-.046a15.9,15.9,0,0,0,2.113-.171c1.385-.291,1.521-.835.67-1.959-1.884-2.49-4.546-3.679-7.432-4.466" fill="#deebdc"/>
    <path id="パス_29788" data-name="パス 29788" d="M290.1,24.6a3.327,3.327,0,0,0,3.6-2.018,25.714,25.714,0,0,0,1.181-3.439l-.22-.073a16.271,16.271,0,0,0-1.382-5.454,1.167,1.167,0,0,0-2.113-.125c-.537.69-1.11,1.356-1.6,2.075-.693,1.01-1.377,2.034-1.976,3.1a3.6,3.6,0,0,0-.219,2.954c.461,1.369,1.116,2.668,2.736,2.978" fill="#deebdc"/>
    <path id="パス_29789" data-name="パス 29789" d="M181.051,29.943a2.976,2.976,0,0,0,2.891-1.481c.9-1.3.977-2.742,1.056-4.716-.165-1-.362-2.485-.677-3.946a4.1,4.1,0,0,0-.8-1.581.8.8,0,0,0-1.389.019c-1.233,1.851-2.5,3.689-3.566,5.639a4.8,4.8,0,0,0-.313,3.75,3.156,3.156,0,0,0,2.794,2.316" fill="#deebdc"/>
    <path id="パス_29790" data-name="パス 29790" d="M171.222,32.554a15.109,15.109,0,0,0,2.86,1.1,4.939,4.939,0,0,0,4.024-2.377,2.023,2.023,0,0,0-.26-2.628,5.079,5.079,0,0,0-3.2-1.643c-1.89-.243-3.774-.535-5.655-.838-1.133-.183-1.761.389-1.51,1.532a7.713,7.713,0,0,0,3.745,4.855" fill="#deebdc"/>
    <path id="パス_29791" data-name="パス 29791" d="M284.354,25.587a2.739,2.739,0,0,0,2.467-3.732c-.951-2.871-3.151-4.523-5.747-5.727-.982-.455-1.753.115-1.75,1.221a24.643,24.643,0,0,0,.187,3.427c.411,2.891,2.3,4.724,4.843,4.811" fill="#deebdc"/>
    <path id="パス_29792" data-name="パス 29792" d="M383.262,12.955a2.442,2.442,0,0,0-.8-.8,54.57,54.57,0,0,0-5.182-2.417,3.69,3.69,0,0,0-4.241,1.136,2.235,2.235,0,0,0-.164,2.922c1.033,1.585,2.6,1.964,4.844,2.053,1.323-.282,3.146-.623,4.942-1.07a1.1,1.1,0,0,0,.6-1.821" fill="#deebdc"/>
    <path id="パス_29793" data-name="パス 29793" d="M330.615,14.168a3.762,3.762,0,0,0,2.172-1.633,4.442,4.442,0,0,0,.682-3.515,26.979,26.979,0,0,0-1.077-3.673,2,2,0,0,0-1.3-.9c-.231-.056-.674.488-.919.833-.489.687-.831,1.491-1.374,2.127a5.461,5.461,0,0,0-1.23,3.55,5.939,5.939,0,0,0,0,.654c.169,1.5,1.859,2.928,3.045,2.559" fill="#deebdc"/>
    <path id="パス_29794" data-name="パス 29794" d="M363.794,9.921a2.183,2.183,0,0,0,.819-.308,9.227,9.227,0,0,0,1.829-1.832,12.416,12.416,0,0,0,1.6-5.291c.13-1.028-.717-1.72-1.614-1.212a26.935,26.935,0,0,0-4.154,2.86,5.494,5.494,0,0,0-1.37,2.271c-.783,2.105,1.29,3.416,2.888,3.512" fill="#deebdc"/>
    <path id="パス_29795" data-name="パス 29795" d="M313.459,30.246a4.947,4.947,0,0,0-2.1,4.144c-.009,2.347,1.575,3.75,3.164,5.1.57.484,1.288.235,1.594-.542.506-1.281.885-2.613,1.185-3.526a7.978,7.978,0,0,0-1.8-4.956,1.351,1.351,0,0,0-2.045-.218" fill="#deebdc"/>
    <path id="パス_29796" data-name="パス 29796" d="M219.65,11.31A3.749,3.749,0,0,0,223.9,8.224c.209-1.068.256-2.167.394-3.42-.062-.689-.088-1.535-.226-2.363-.132-.794-.727-1-1.287-.409-1.391,1.462-2.754,2.954-4.055,4.5a5.389,5.389,0,0,0-.911,1.818,2.176,2.176,0,0,0,1.831,2.964" fill="#deebdc"/>
    <path id="パス_29797" data-name="パス 29797" d="M307.18,30.7a5.9,5.9,0,0,0-2.971,3.557,7.368,7.368,0,0,0-.026,2.481c.062.666.321,1.311.443,1.974.149.811.784,1.232,1.472.88A6.667,6.667,0,0,0,309.97,33.5a17.21,17.21,0,0,0-.379-1.837,1.5,1.5,0,0,0-2.411-.961" fill="#deebdc"/>
    <path id="パス_29798" data-name="パス 29798" d="M366.935,16.82a6.348,6.348,0,0,0-4.464-2.754c-1.552.011-2.276.816-2.079,2.153a5.161,5.161,0,0,0,3.4,4.172c.931.387,1.881.728,2.81,1.118.531.223,1.153.439,1.505-.06a2.015,2.015,0,0,0,.315-1.564,11.121,11.121,0,0,0-1.487-3.065" fill="#deebdc"/>
    <path id="パス_29799" data-name="パス 29799" d="M231.782,17.663c1.784.749,3.671.389,5.506.528a.959.959,0,0,0,.749-1.64,30.818,30.818,0,0,0-3.125-3.447,4.222,4.222,0,0,0-2.357-1.173c-1.718.191-3.2,1.37-3.016,2.644a3.664,3.664,0,0,0,2.243,3.088" fill="#deebdc"/>
    <path id="パス_29800" data-name="パス 29800" d="M351.02,10.3a2.422,2.422,0,0,0,2.555-.139,4.649,4.649,0,0,0,2.218-3.739,8.995,8.995,0,0,0-1.214-4.3c-.508-.722-1.168-.747-1.569-.115a15.9,15.9,0,0,1-1.628,2.289,5.363,5.363,0,0,0-1.591,3.571A2.593,2.593,0,0,0,351.02,10.3" fill="#deebdc"/>
    <path id="パス_29801" data-name="パス 29801" d="M349.008,29.461a3.9,3.9,0,0,0-4.634-2,2.218,2.218,0,0,0-1.69,2.039,13.42,13.42,0,0,0,.914,1.946c1.428,2.127,3.742,2.342,5.994,2.614.491.06.976-.219.773-.849a25.675,25.675,0,0,0-1.357-3.753" fill="#deebdc"/>
    <path id="パス_29802" data-name="パス 29802" d="M347.146,11.047a1.888,1.888,0,0,0,2.287-2.079,7.533,7.533,0,0,0-4.482-6.086c-.729-.232-1.127-.013-1.192.743-.056.649-.012,1.306-.012,1.96h-.033c0,.655-.051,1.315.01,1.964a3.742,3.742,0,0,0,3.422,3.5" fill="#deebdc"/>
    <path id="パス_29803" data-name="パス 29803" d="M238.026,7.508a4.66,4.66,0,0,0,1.156-1.015,10.293,10.293,0,0,0,1.786-5.251c-.13-.277-.246-1.009-.624-1.187s-1.066.106-1.526.356a10.327,10.327,0,0,0-1.859,1.339,5.116,5.116,0,0,0-2.135,3.975,2.043,2.043,0,0,0,3.2,1.783" fill="#deebdc"/>
    <path id="パス_29804" data-name="パス 29804" d="M350.514,17.748a16.668,16.668,0,0,0-2.332,1,4.831,4.831,0,0,0-2.828,3.1,2.679,2.679,0,0,0-.073.559,2.176,2.176,0,0,0,2.272,2.268,2.712,2.712,0,0,0,2.7-1.36,40.285,40.285,0,0,0,1.655-4.353,1.427,1.427,0,0,0-.363-1.163c-.175-.187-.719-.164-1.035-.055" fill="#deebdc"/>
    <path id="パス_29805" data-name="パス 29805" d="M360,24.047a1.035,1.035,0,0,0-1.317-1.128c-.751.132-1.506.242-2.252.4a3.865,3.865,0,0,0-2.96,1.815,2.185,2.185,0,0,0,1.871,3.3c1.694.063,4.581-2.652,4.658-4.381" fill="#deebdc"/>
    <path id="パス_29806" data-name="パス 29806" d="M357.551,28.366c-1.607.016-2.406,1.339-1.525,2.671a4.031,4.031,0,0,0,1.571,1.315,7.941,7.941,0,0,0,2.206.568,10.113,10.113,0,0,0,1.615.013,7.589,7.589,0,0,0-.22-1.633,4.085,4.085,0,0,0-3.647-2.934" fill="#deebdc"/>
    <path id="パス_29807" data-name="パス 29807" d="M240.249,8.5a2.228,2.228,0,0,0,2.355,1.567c.926-.34,2.129-.762,3.314-1.232.242-.1.573-.364.579-.563a1.051,1.051,0,0,0-.42-.788,5.325,5.325,0,0,0-4.211-.832c-1.084.258-1.726,1.005-1.617,1.848" fill="#deebdc"/>
    <path id="パス_29808" data-name="パス 29808" d="M373.537,7.647c-.1-.782-.164-1.569-.3-2.344-.115-.648-.582-.855-1.051-.461A4.1,4.1,0,0,0,370.466,8.9a3.118,3.118,0,0,0,.785,1.364c.343.382.791.339,1.233-.013a2.818,2.818,0,0,0,1.053-2.609" fill="#deebdc"/>
    <path id="パス_29809" data-name="パス 29809" d="M375.808,8.4a4.288,4.288,0,0,0,2.981-1.842,1.265,1.265,0,0,0,.152-1.033c-.122-.27-.57-.393-.743-.5a3.825,3.825,0,0,0-3.344,1.945,1.375,1.375,0,0,0-.046,1.127,1.17,1.17,0,0,0,1,.3" fill="#deebdc"/>
    <path id="パス_29810" data-name="パス 29810" d="M121.359,43.722a3.327,3.327,0,0,0,3.6-2.018,25.714,25.714,0,0,0,1.181-3.439l-.22-.073a16.27,16.27,0,0,0-1.382-5.454,1.167,1.167,0,0,0-2.113-.125c-.537.69-1.11,1.356-1.6,2.075-.693,1.01-1.377,2.034-1.976,3.1a3.6,3.6,0,0,0-.219,2.954c.461,1.369,1.116,2.668,2.736,2.978" fill="#deebdc"/>
    <path id="パス_29811" data-name="パス 29811" d="M115.611,44.707a2.739,2.739,0,0,0,2.467-3.732c-.951-2.871-3.151-4.523-5.747-5.727-.982-.455-1.753.115-1.75,1.221a24.643,24.643,0,0,0,.187,3.427c.411,2.891,2.3,4.724,4.843,4.811" fill="#deebdc"/>
    <path id="パス_29812" data-name="パス 29812" d="M78.6,48.449c1.021,1.394,2.6,2.476,4.569,1.569a9.977,9.977,0,0,0,1.7-1.284,2.31,2.31,0,0,0,3.165-.905,4.64,4.64,0,0,0-.621-6.234,19.439,19.439,0,0,1-1.743-2.042c-.458-.6-.755-.647-1.33-.148A5.2,5.2,0,0,0,82.5,42.423c-1.858-.375-3.609-.739-5.366-1.073a2,2,0,0,0-.805.077c-.788.186-1.127.588-.794,1.286A35.221,35.221,0,0,0,78.6,48.449" fill="#deebdc"/>
    <path id="パス_29813" data-name="パス 29813" d="M97.5,46.934a4.947,4.947,0,0,0,2.1-4.144c.009-2.347-1.575-3.75-3.164-5.1-.57-.484-1.288-.235-1.594.542-.506,1.281-.885,2.613-1.185,3.526a7.973,7.973,0,0,0,1.8,4.956,1.35,1.35,0,0,0,2.044.218" fill="#deebdc"/>
    <path id="パス_29814" data-name="パス 29814" d="M130.629,42.547a5.9,5.9,0,0,0,3.74-2.738,7.336,7.336,0,0,0,.622-2.4c.1-.661,0-1.349.045-2.022.05-.823-.464-1.384-1.217-1.209a6.67,6.67,0,0,0-5.225,4.983,17.288,17.288,0,0,0-.074,1.875,1.5,1.5,0,0,0,2.109,1.513" fill="#deebdc"/>
    <path id="パス_29815" data-name="パス 29815" d="M132.392,65.981a1.035,1.035,0,0,0,1.128-1.317c-.132-.751-.242-1.506-.4-2.252a3.865,3.865,0,0,0-1.815-2.96,2.185,2.185,0,0,0-3.3,1.871c-.063,1.694,2.652,4.581,4.381,4.658" fill="#deebdc"/>
    <path id="パス_29816" data-name="パス 29816" d="M128.073,63.532c-.016-1.607-1.339-2.406-2.671-1.525a4.031,4.031,0,0,0-1.315,1.571,7.941,7.941,0,0,0-.568,2.206,10.114,10.114,0,0,0-.013,1.615,7.59,7.59,0,0,0,1.633-.22,4.085,4.085,0,0,0,2.934-3.647" fill="#deebdc"/>
    <path id="パス_29817" data-name="パス 29817" d="M268.594,46.214a6.348,6.348,0,0,0-4.464-2.754c-1.552.011-2.276.816-2.079,2.153a5.162,5.162,0,0,0,3.4,4.172c.931.387,1.881.728,2.81,1.118.531.223,1.153.439,1.505-.06a2.015,2.015,0,0,0,.315-1.564,11.12,11.12,0,0,0-1.487-3.065" fill="#deebdc"/>
    <path id="パス_29818" data-name="パス 29818" d="M40.525,69.906C46.33,71.754,52.164,73.514,58,75.28c5.1,1.544,10.2,3.1,15.321,4.554A76.967,76.967,0,0,0,88.9,82.866c3.648.255,7.307.355,10.959.574a23.31,23.31,0,0,1,3.144.477c.208.041.356.384.531.587a4.767,4.767,0,0,1-.68.439c-.135.06-.323-.006-.487-.007-2.652,0-5.307-.087-7.955.009a67.247,67.247,0,0,1-19.89-2.208c-4.013-1.07-8-2.23-12-3.335-2.95-.815-5.917-1.571-8.859-2.417C48.36,75.46,43.1,73.79,37.768,72.367c-4.348-1.162-8.775-2.023-13.154-3.074" fill="#deebdc"/>
    <path id="パス_29819" data-name="パス 29819" d="M66.969,74.221c-2.193,2.06-6.121,1.938-7.892.234a3.029,3.029,0,0,1-.644-3.833,9.82,9.82,0,0,1,6.481-4.153c1.312-.026,3.011.04,4.687-.126,1.361-.135,2.3.6,1.536,2.259a18.189,18.189,0,0,1-4.168,5.619" fill="#deebdc"/>
    <path id="パス_29820" data-name="パス 29820" d="M54.693,79.063A4.752,4.752,0,0,1,60.321,80.8a28.82,28.82,0,0,1,1.565,3.07,25.3,25.3,0,0,1,.086,6.847,1.316,1.316,0,0,1-2.3.865c-1.724-1.464-3.441-2.948-5.035-4.549a6.356,6.356,0,0,1-2-4.7,3.43,3.43,0,0,1,2.056-3.267" fill="#deebdc"/>
    <path id="パス_29821" data-name="パス 29821" d="M73.575,83.152a5.332,5.332,0,0,1,3.84,4.267c.61,2.5.126,5.009.1,7.511a1.519,1.519,0,0,1-.295.751c-.516.785-1.048.849-1.745.211-.562-.514-1.1-1.062-1.653-1.582a14.939,14.939,0,0,1-4.059-5.869,4.436,4.436,0,0,1,.642-4.2,2.65,2.65,0,0,1,3.17-1.09" fill="#deebdc"/>
    <path id="パス_29822" data-name="パス 29822" d="M84.324,79.925a5.318,5.318,0,0,1-3.984.422,2.832,2.832,0,0,1-2.024-1.634,3.7,3.7,0,0,1,1.907-4.865,13.148,13.148,0,0,1,3.161-.752c1.343-.212,2.057-.382,3.411-.529-.007-.055.635-.039.628-.093a15.758,15.758,0,0,1,2.1-.293c1.414-.018,1.666.482,1.081,1.765-1.3,2.841-3.636,4.581-6.28,5.979" fill="#deebdc"/>
    <path id="パス_29823" data-name="パス 29823" d="M41.966,76.36a2.974,2.974,0,0,1,3.144.815c1.165,1.072,1.552,2.463,2.059,4.372.057,1.009.189,2.5.2,4a4.1,4.1,0,0,1-.432,1.717.8.8,0,0,1-1.36.284c-1.607-1.538-3.248-3.055-4.71-4.725a4.81,4.81,0,0,1-1.123-3.593,3.157,3.157,0,0,1,2.222-2.869" fill="#deebdc"/>
    <path id="パス_29824" data-name="パス 29824" d="M31.8,75.954a15.119,15.119,0,0,1,2.551-1.7A4.939,4.939,0,0,1,38.8,75.7a2.023,2.023,0,0,1,.319,2.622,5.083,5.083,0,0,1-2.769,2.3c-1.791.649-3.566,1.345-5.335,2.051-1.066.425-1.8,0-1.809-1.166a7.714,7.714,0,0,1,2.6-5.555" fill="#deebdc"/>
    <path id="パス_29825" data-name="パス 29825" d="M83.7,86.129a3.748,3.748,0,0,1,4.825,2.084c.437,1,.722,2.06,1.13,3.253.09.685.249,1.517.294,2.355.044.8-.492,1.132-1.167.679-1.676-1.123-3.332-2.282-4.937-3.5a5.391,5.391,0,0,1-1.286-1.575A2.176,2.176,0,0,1,83.7,86.129" fill="#deebdc"/>
    <path id="パス_29826" data-name="パス 29826" d="M94.153,77.283c1.578-1.12,3.5-1.18,5.259-1.715A.957.957,0,0,1,100.5,77a30.65,30.65,0,0,1-2.3,4.046,4.221,4.221,0,0,1-2.045,1.658c-1.718.189-3.422-.638-3.52-1.922a3.664,3.664,0,0,1,1.516-3.5" fill="#deebdc"/>
    <path id="パス_29827" data-name="パス 29827" d="M102.461,85.832a4.646,4.646,0,0,1,1.35.739,10.306,10.306,0,0,1,2.888,4.735c-.067.3-.021,1.038-.351,1.294s-1.064.13-1.567-.015a10.341,10.341,0,0,1-2.106-.9,5.117,5.117,0,0,1-2.951-3.414,2.043,2.043,0,0,1,2.737-2.438" fill="#deebdc"/>
    <path id="パス_29828" data-name="パス 29828" d="M104.414,84.379a2.228,2.228,0,0,1,1.957-2.043c.977.13,2.244.28,3.5.48.258.041.639.231.689.423a1.052,1.052,0,0,1-.239.861,5.322,5.322,0,0,1-3.928,1.73c-1.114-.015-1.9-.605-1.981-1.451" fill="#deebdc"/>
  </g>
</svg>
