<svg xmlns="http://www.w3.org/2000/svg" xmlns:xlink="http://www.w3.org/1999/xlink" width="480" height="150" viewBox="0 0 480 150">
  <defs>
    <clipPath id="clip-path">
      <rect id="長方形_1905" data-name="長方形 1905" width="480" height="150" transform="translate(19.39)" fill="#deebdc"/>
    </clipPath>
  </defs>
  <g id="グループ_5450" data-name="グループ 5450" transform="translate(-19.39)">
    <g id="グループ_5449" data-name="グループ 5449" clip-path="url(#clip-path)">
      <path id="パス_29863" data-name="パス 29863" d="M199.811,68.848l-.056.03a.068.068,0,0,0,.056-.03" fill="#deebdc"/>
      <path id="パス_29864" data-name="パス 29864" d="M251.7,66.377a71.307,71.307,0,0,0-3.39-7.627c-1.359-2.435-3.43-3.848-5.3-5.712a23.586,23.586,0,0,0,2.436-7.521c.5-5.7-.816-10.33-2.224-14.617a22.367,22.367,0,0,0-2.647-5.827,44.733,44.733,0,0,0-3.808-4.66c-2.6-2.942-6.408-5.027-9.957-6.991a25.053,25.053,0,0,0-5.827-2.648c-4.347-1.15-9.97-1.788-14.722-.635-3.087-4.249-8.126-6.24-13.77-8.369-3.656-1.38-9.061-1.918-13.774-1.7-7,.325-12.092,2.722-17.058,5.933a33.056,33.056,0,0,0-6.249,5.3c-2.465,2.672-4.819,5.231-5.613,9a28.287,28.287,0,0,0-15.36,7.313,55.755,55.755,0,0,0-5.712,5.614,26.7,26.7,0,0,0-5.83,16.736,58.746,58.746,0,0,0,.633,10.805c1.172,6.317,5.61,9.827,9.433,13.346-3.224,6.781-1.279,17.394,1.483,22.986,1.488,3,5.177,6.07,8.156,8.261a45.141,45.141,0,0,0,10.063,5.712c7.74,3.046,19.188,2.79,25.951-1.377a42.073,42.073,0,0,0,4.933,2.9c-.03-.7-.058-1.4-.1-2.1-.139-2.322,0-4.673-.317-6.779-.352-2.336-1.915-5.113-3.072-7.2a10.307,10.307,0,0,0-3.6-4.241,28.753,28.753,0,0,0-3.919-2.118,20.257,20.257,0,0,0-5.509-1.9c-2.5-.268-3.855.366-3.494-2.118,5.477-2.961,13.846-.588,18.219,2.753-.415-1.333-.08-2.457-.53-3.707a10.271,10.271,0,0,0-1.9-2.542c-.828-.828-1.96-1.8-3.073-2.754-1.017-.872-2.02-1.866-3.072-2.754-2.271-1.918-4-4.468-5.932-5.711-.714-.464-2.309-.52-1.694-2.224.476-1.314,2.336-.82,3.177-.636,1.811.4,3.769.341,5.509,1.484-1.039-3.743-1.811-7.717-3.708-11.546-.746-1.5-2.051-4.357.318-4.555a5.392,5.392,0,0,1,2.648,2.542,14.4,14.4,0,0,1,4.343,4.978,12.277,12.277,0,0,1,3.39,4.241,92.07,92.07,0,0,0,4.025-11.97c.381-1.305.559-3.3,2.33-2.967,1.062.2,1.825,3.748,1.9,5.508.2,4.206-.794,7.344-1.483,10.385-.26,1.13-.614,2.331-.952,3.5a23.489,23.489,0,0,0-1.165,3.284,6.373,6.373,0,0,0,.635,2.33c.736,1.765,2.4,3.6,2.331,5.4,1.03-2.007,1.817-4.414,2.856-6.779.491-1.114,1.131-2.155,1.589-3.283.437-1.079.934-2.191,1.27-3.283.2-.661.135-1.37.318-2.013.433-1.511,1.091-2.629,1.8-4.555.476-1.287,1.322-3.772,2.754-3.6s1.333,1.784,1.272,2.966c-.151,2.806-.632,5.551-.952,8.156.075.012.076.049.056.076a17.3,17.3,0,0,1,5.239-2.089c2.177-.44,4.263-1.326,6.145-1.376,1.634-.045,3.072.259,3.495,1.8-.311,1.476-1.9,1.859-3.071,2.435-1.194.593-2.51,1.143-3.707,1.694-2.431,1.112-4.9,2.461-6.356,4.449,1.593.267,4.037.031,6.356.424,1.608.273,4.579.693,4.872,2.119.31,1.505-1.99,2.153-3.389,2.436-1.165.235-2.725.432-4.345.635-1.758.222-3.732.463-5.084.53-1.589.077-3.089-.13-4.025.847-1.106,1.155-.962,2.85-1.8,4.131,1.107-.277,2.287-.683,4.241-1.059,1.264-.243,2.6-.1,3.808-.318a22.051,22.051,0,0,1,3.5-.635c1.572-.034,4.735-.04,4.554,1.695-.121,1.168-1.437,1.2-2.753,1.376-2.372.313-4.422,1.334-6.779,2.224-1.959.738-5.324,1.53-6.463,2.856-1.263,1.477-.738,4.364-.847,6.886-.028.641-.285,1.279-.318,1.9-.215,3.828-.7,8.2-.709,12.665,1.182.112,2.379.2,3.614.2,2.362,0,4.8-.173,7.308-.212a31.667,31.667,0,0,0,12.076-2.856c4.691-1.914,7.722-5.538,9.958-9.216,13.972.392,22.736-7.174,26.583-17.164,2.106-5.459,1.869-13.721-.212-18.854M144.5,50.492h0c.556-1.644,2.922-3.426,4.978-3.707,4.017-.547,7.317,6.083,4.344,9.321a6.815,6.815,0,0,1-5.508,1.695,5.592,5.592,0,0,1-3.808-7.309m10.274,44.064a8.305,8.305,0,0,1-5.827.848c-1.092-.4-2.491-2.924-2.33-4.66a4.468,4.468,0,0,1,4.13-3.706,5.283,5.283,0,0,1,2.331.424c1.914,1.08,3.981,5.273,1.694,7.1m19.7-68.427c-1.3,3.808-8.3,3.866-9.534.741a8.871,8.871,0,0,1-.106-4.449c.4-1.115,2.363-2.473,4.131-2.754a4.837,4.837,0,0,1,3.071.318,5.712,5.712,0,0,1,2.44,6.144m31.038,18.433c-.946,1.187-2.75,1.4-5.192,1.377-3.126-1.143-4.447-8.442-.212-9.11a6.663,6.663,0,0,1,2.856.212c2.58.89,4.476,5.092,2.542,7.52Zm24.994,42.154c-.642,1.854-3.349,3.21-5.825,2.436-2.51-.785-4.819-8.18-.319-9a6.616,6.616,0,0,1,3.6.424c.838.272,1.171.179,1.589.53,1.117.939,1.576,3.814.952,5.614m-2.753-45.336c-2.3-.274-3.981-2.919-3.283-5.932.268-1.162,1.569-2.178,3.5-2.436,2.237-.3,4.576.881,5.192,2.436,1.362,3.455-2.163,6.317-5.4,5.932" fill="#deebdc"/>
      <path id="パス_29865" data-name="パス 29865" d="M207.6,150c-1.57-2.457-3.483-4.458-5.192-6.779a34.661,34.661,0,0,1-2.224-3.707c-.739-1.315-1.135-2.779-1.8-4.24-.574-1.25-1.572-2.226-2.012-3.5a53.031,53.031,0,0,1-3.179-12.817c-.132-1.5-.181-3-.179-4.495.01-4.462.494-8.838.709-12.665.032-.626.29-1.265.318-1.9.11-2.523-.416-5.408.847-6.886,1.138-1.329,4.5-2.12,6.463-2.856,2.358-.89,4.407-1.912,6.779-2.224,1.316-.173,2.633-.209,2.753-1.377.181-1.731-2.982-1.731-4.554-1.694a21.939,21.939,0,0,0-3.495.635c-1.212.222-2.546.074-3.808.318-1.95.376-3.13.778-4.241,1.059.839-1.282.693-2.976,1.8-4.132.937-.976,2.436-.768,4.025-.847,1.352-.066,3.326-.308,5.084-.529,1.62-.205,3.179-.4,4.346-.636,1.4-.283,3.7-.929,3.388-2.436-.292-1.428-3.263-1.846-4.87-2.118-2.319-.394-4.76-.158-6.357-.424,1.468-1.976,3.93-3.322,6.364-4.437,1.193-.551,2.51-1.1,3.706-1.694,1.165-.577,2.76-.958,3.071-2.436-.423-1.543-1.861-1.843-3.5-1.8-1.881.05-3.967.937-6.144,1.377a17.3,17.3,0,0,0-5.239,2.088c.02-.027.018-.063-.056-.075.321-2.606.8-5.351.952-8.156.062-1.182.145-2.8-1.272-2.966-1.433-.173-2.278,2.314-2.754,3.6-.71,1.925-1.37,3.043-1.8,4.554-.183.643-.114,1.353-.318,2.013-.337,1.093-.833,2.2-1.27,3.284-.459,1.125-1.1,2.17-1.589,3.283-1.043,2.364-1.829,4.772-2.856,6.778.07-1.806-1.595-3.634-2.33-5.4a6.354,6.354,0,0,1-.636-2.331,23.365,23.365,0,0,1,1.166-3.283c.337-1.164.692-2.365.952-3.5.692-3.04,1.68-6.178,1.483-10.385-.082-1.76-.844-5.307-1.9-5.508-1.772-.335-1.95,1.661-2.331,2.966A92.236,92.236,0,0,1,181.874,65.7a12.3,12.3,0,0,0-3.389-4.241,14.38,14.38,0,0,0-4.344-4.978,5.392,5.392,0,0,0-2.648-2.542c-2.368.2-1.063,3.05-.318,4.554,1.9,3.83,2.673,7.8,3.708,11.546-1.739-1.143-3.7-1.086-5.508-1.483-.842-.183-2.7-.678-3.178.635-.614,1.7.982,1.761,1.695,2.224,1.93,1.248,3.659,3.8,5.932,5.712,1.051.888,2.054,1.882,3.072,2.754,1.113.952,2.245,1.927,3.071,2.753a10.213,10.213,0,0,1,1.9,2.543c.45,1.249.116,2.374.53,3.707-4.371-3.342-12.742-5.711-18.219-2.754-.36,2.485.993,1.851,3.495,2.119a20.244,20.244,0,0,1,5.507,1.9,28.606,28.606,0,0,1,3.921,2.118,10.312,10.312,0,0,1,3.6,4.241c1.157,2.089,2.719,4.862,3.072,7.2.317,2.1.178,4.458.317,6.779.043.692.07,1.4.1,2.1.065,1.438.123,2.875.219,4.26a58.514,58.514,0,0,1-.636,13.983c-.988,4.471-3.15,7.852-5.084,11.337-1.96,3.5-4.154,4.63-6.567,7.833Z" fill="none" stroke="#deebdc" stroke-miterlimit="10" stroke-width="2.596"/>
      <path id="パス_29866" data-name="パス 29866" d="M321.16,101.631c-.291-1.81-.457-3.641-.765-5.447-.277-1.621-.671-3.222-1.014-4.831a13.05,13.05,0,0,0-.359-1.608c-.851-2.434-1.738-4.856-2.6-7.286-.183-.516-.266-1.075-.493-1.568-.8-1.743-1.539-3.53-2.505-5.18-1.349-2.3-2.86-4.516-4.345-6.738-1.13-1.692-2.346-3.327-3.491-5.009-1.7-2.495-3.356-5.016-5.053-7.511a25.126,25.126,0,0,0-3.734-4.095,1.45,1.45,0,0,0-1.254-.493,3.994,3.994,0,0,0-1.8.506,20.725,20.725,0,0,0-2.847,2.757,18.509,18.509,0,0,0-1.557,2.478c-1,1.639-1.991,3.286-3,4.919-.91,1.469-1.881,2.9-2.752,4.392-.728,1.247-1.389,2.538-2.012,3.842a27.117,27.117,0,0,1-2.532,4.913,8.758,8.758,0,0,0-1.014,1.722c-1.035,2.327-2.08,4.652-3.021,7.017a49.09,49.09,0,0,0-2.272,6.438,83.814,83.814,0,0,0-2.1,8.8c-.374,2.832-1.155,5.616-.969,8.512a1.672,1.672,0,0,1-.061.343,15,15,0,0,0-.264,1.836c-.044,1.611.046,3.229-.055,4.835a14.353,14.353,0,0,0,.966,5.295,16.555,16.555,0,0,0,1.874,3.908,14.013,14.013,0,0,0,1.855,2.975c.484.457.915.971,1.37,1.458a16.245,16.245,0,0,0,6.823,4.465c.6.2,1.171.452,1.751.691.98.4,1.94.858,2.936,1.214,1.543.552,2.243,1.038,3.924,1.593.045,1.424.129,2.828.122,4.232-.007,1.448-.086,2.9-.165,4.343-.057,1.05-.513,3.34.256,4.228.547.632,3.277.369,4.08.353a21.772,21.772,0,0,0,3.386-.319,1.58,1.58,0,0,0,.333-.085c.225-.094,1.258-.278,1.375-.5a2.237,2.237,0,0,0,.216-1.186c-.17-1.751-.382-3.5-.515-5.252-.115-1.52-.1-3.05-.226-4.569-.079-1-.127-1.027.791-1.4a21.438,21.438,0,0,0,2.492-1.377c1.486-.792,2.876-1.76,4.33-2.615a24.007,24.007,0,0,0,4.617-3.461c.424-.412.861-.81,1.291-1.215a18.4,18.4,0,0,0,4.067-5.861,17.743,17.743,0,0,1,.832-2.077,18.425,18.425,0,0,0,1.783-4.47,19.575,19.575,0,0,0,1.209-5.014c.1-2.963.58-5.925.1-8.9m-30-32.352a5.266,5.266,0,0,1,2.518-2.928,2.108,2.108,0,0,1,2.546.7,1.794,1.794,0,0,1,.265,2.449,14.863,14.863,0,0,0-.62,1.356,2.49,2.49,0,0,1-2.214,1.754,8.134,8.134,0,0,1-2.157-1.045,2.01,2.01,0,0,1-.338-2.288m-13.812,38.84a2.6,2.6,0,0,1-.922-.405c-.445-.421-.4-1.116-.511-1.67a3.3,3.3,0,0,1,1.237-2.876c1.464-1.059,3.6-1.215,4.117.919a8.734,8.734,0,0,1,.117,1.031,3.139,3.139,0,0,1-1.654,2.793,2.667,2.667,0,0,1-2.384.208m6.491,15.068a4.25,4.25,0,0,1-2.191,1.436,1.847,1.847,0,0,1-2.423-2.287,3.806,3.806,0,0,1,2.131-3.023,1.806,1.806,0,0,1,2.722,1.356c.091.457.176.916.3,1.56a3.925,3.925,0,0,1-.539.958m.3-37.247a7.4,7.4,0,0,0-.428-.825,1.865,1.865,0,0,1,.181-2.462c.434-.507.918-.973,1.389-1.447.541-.543,1.077-1.034,1.942-.526.221.13.6-.009.939-.027.364.621.676,1.119.954,1.635a2.6,2.6,0,0,1-.558,3.016c-.331.387-.664.771-1,1.157a2.107,2.107,0,0,1-3.424-.521m20.894,27.245c-1.117,1.162-2.218,2.343-3.4,3.44-1.091,1.016-2.28,1.925-3.409,2.9a2.744,2.744,0,0,0-1.01,2.4c.134,1.962.249,3.927.29,5.893.04,1.881-.063,3.764-.029,5.645.025,1.412.177,2.822.252,4.235q.242,4.537.454,9.077a9.2,9.2,0,0,1-.1,1.26c-1.651,1.465-3.52.724-5.4.823v-1.12c.006-4.954.144-9.912-.038-14.858a55.7,55.7,0,0,1,.285-6.917c0-1.517-.17-2.975-.032-4.483a2.377,2.377,0,0,0-.035-.91c-.267-.881-2.031-1.259-2.76-1.686a9.278,9.278,0,0,1-2.558-2.15,6.692,6.692,0,0,1-.9-1.365,4.364,4.364,0,0,1-.1-1.3c.442.291.724.384.855.579a4.173,4.173,0,0,0,2.388,1.563,19.82,19.82,0,0,1,2.05.876c.46.209.906.45,1.3.646a1.073,1.073,0,0,0,.787-1.242c-.079-1.806-.189-3.614-.188-5.421a32.321,32.321,0,0,1,.244-4.824,2.944,2.944,0,0,0-1.649-3.349,6,6,0,0,1-2.061-1.876c-.564-.793-1.321-1.446-1.945-2.2a4.194,4.194,0,0,1-.6-1.139,1.8,1.8,0,0,1,0-.647,3.625,3.625,0,0,1,.749.07,1.4,1.4,0,0,1,.478.339c.868.783,1.7,1.609,2.61,2.341a4.965,4.965,0,0,0,1.365.557c.408.17.994.825,1.206.1a9,9,0,0,0,.423-2.168,14.148,14.148,0,0,0,.251-3.038c-.048-1.559.574-2.994.687-4.517a8.537,8.537,0,0,1,.251-1.358,3.737,3.737,0,0,1,.4-.694,4.293,4.293,0,0,1,.279,1.028c-.119,3.065-.278,6.128-.388,9.193a15.432,15.432,0,0,0,.151,2.207.608.608,0,0,0,.86.529.552.552,0,0,0,.207-.107c1.177-1.09,2.769-1.645,3.77-2.975.577-.766.772-.825,2.021-1.253a3.326,3.326,0,0,1-1,1.944,31.445,31.445,0,0,1-4.281,4.046,1.846,1.846,0,0,0-.789,1.6c.029,1.981.034,3.964-.009,5.945-.029,1.335-.172,2.667-.232,4a9.64,9.64,0,0,0,.051,1.854c.122.828.464.993,1.223.6a14.784,14.784,0,0,0,2.108-1.3c1.466-1.116,2.884-2.294,4.326-3.441.3-.239.617-.457.946-.7a1.1,1.1,0,0,1-.355,1.347m1.014-33.815a2.811,2.811,0,0,0-.353.739,2.5,2.5,0,0,1-2.71,1.932c-.434-.122-.987-.118-1.276-.393a3.072,3.072,0,0,1-1.089-2.39c.119-1.439.438-2.828,1.911-3.661a2.445,2.445,0,0,1,3.657,1.086,2.638,2.638,0,0,1-.14,2.687m2.835,16.482c-.008-.236,0-.472,0-.608a4.871,4.871,0,0,1,4.234-4.509,1.1,1.1,0,0,1,1.149.6,4.424,4.424,0,0,1-.944,5.53,1.906,1.906,0,0,1-1.847.484,1.824,1.824,0,0,0-.8-.025c-1.259.182-1.75-.212-1.791-1.474m4.21,22.1a7.838,7.838,0,0,1-1.346.674,4.85,4.85,0,0,1-1.473.163.72.72,0,0,1-.5-.413,4.652,4.652,0,0,1,.479-4.765,11.123,11.123,0,0,1,1.837-1.547c.638.07,1.1.126,1.561.169a1.446,1.446,0,0,1,1.351.973c.78,2.42.622,3.387-1.913,4.746" fill="#deebdc"/>
      <path id="パス_29867" data-name="パス 29867" d="M79.976,135.087c.162-.42.361-.86.5-1.317a10.626,10.626,0,0,1,3.274-4.727c.212-.191.407-.4.606-.608a6.272,6.272,0,0,1,4.73-2.1,8.732,8.732,0,0,1,3.873.947.912.912,0,0,1,.414,1.4,31.254,31.254,0,0,1-4.259,5.865,6.151,6.151,0,0,1-1.348,1.048,22.07,22.07,0,0,1-3.088,1.7,11.335,11.335,0,0,1-2.52.418c-.17.026-.341.046-.566.075-.078.693-.173,1.354-.225,2.019-.185,2.386-.371,4.772-.521,7.161-.038.6.071,1.205.081,1.808,0,.271.027.632-.126.8-.632.688-1.473.372-2.232.317-.451-.033-.74-.61-.764-1.271a1.4,1.4,0,0,1,.008-.215q.379-3.562.761-7.125c.119-1.115.239-2.229.368-3.43a3.782,3.782,0,0,0-.77.256,5.563,5.563,0,0,1-3.306.629,5.346,5.346,0,0,0-1.166.043,7.3,7.3,0,0,1-4.144-.711,7.185,7.185,0,0,1-3.29-3.18c-.515-.853-1.165-1.623-1.731-2.447-.323-.47-.272-.845.2-1.061a27.239,27.239,0,0,1,3.618-1.522,29.436,29.436,0,0,1,3.776-.653,1.1,1.1,0,0,1,.415.081,12.77,12.77,0,0,1,5.8,3.657,20.718,20.718,0,0,1,1.632,2.156" fill="#deebdc"/>
      <path id="パス_29868" data-name="パス 29868" d="M389.292,135.087c.161-.42.36-.86.5-1.317a10.626,10.626,0,0,1,3.274-4.727c.212-.191.407-.4.606-.608a6.274,6.274,0,0,1,4.731-2.1,8.728,8.728,0,0,1,3.872.947.912.912,0,0,1,.414,1.4,31.254,31.254,0,0,1-4.259,5.865,6.151,6.151,0,0,1-1.348,1.048,22.072,22.072,0,0,1-3.088,1.7,11.335,11.335,0,0,1-2.52.418c-.17.026-.341.046-.566.075-.078.693-.173,1.354-.225,2.019-.185,2.386-.371,4.772-.521,7.161-.038.6.071,1.205.081,1.808,0,.271.027.632-.126.8-.632.688-1.473.372-2.232.317-.451-.033-.74-.61-.764-1.271a1.4,1.4,0,0,1,.008-.215q.379-3.562.761-7.125c.119-1.115.239-2.229.368-3.43a3.752,3.752,0,0,0-.769.256,5.566,5.566,0,0,1-3.306.629,5.353,5.353,0,0,0-1.167.043,7.3,7.3,0,0,1-4.144-.711,7.189,7.189,0,0,1-3.29-3.18c-.515-.853-1.165-1.623-1.731-2.447-.323-.47-.272-.845.2-1.061a27.2,27.2,0,0,1,3.619-1.522,29.39,29.39,0,0,1,3.775-.653,1.1,1.1,0,0,1,.415.081,12.765,12.765,0,0,1,5.8,3.657,20.721,20.721,0,0,1,1.633,2.156" fill="#deebdc"/>
      <path id="パス_29869" data-name="パス 29869" d="M109.414,144.051c.655-1.023,1.228-1.993,1.875-2.9s1.378-1.779,2.069-2.666a.447.447,0,0,1,.632-.138c.245.143.234.387.165.65q-.477,1.806-.941,3.615a4.837,4.837,0,0,0-.053.647c.246-.245.381-.385.522-.518.692-.654,1.382-1.309,2.081-1.955a.964.964,0,0,1,.35-.191c.36-.119.589.052.52.444a10.967,10.967,0,0,1-.4,1.529,10.916,10.916,0,0,0-.584,1.542c-.2,1.219-.314,2.452-.415,3.681a2.157,2.157,0,0,0,.233.856c.255.68-.033,1.265-.735,1.307a14.53,14.53,0,0,1-2.188,0,6.426,6.426,0,0,0-2.5,0,.593.593,0,0,1-.386,0c-.775-.374-1.649.221-2.445,0-.224-.063-.451.094-.663,0-.254-.114-.391-.888-.4-1.21a3.687,3.687,0,0,0-.132-1.044,4.078,4.078,0,0,1-.042-1.955,11.8,11.8,0,0,1,2.028-4.781c.169-.249.315-.514.475-.77.087-.14.158-.353.277-.4a1.38,1.38,0,0,1,.735-.089c.276.061.253.334.221.607-.134,1.152-.243,2.307-.357,3.461a1.333,1.333,0,0,0,.046.28" fill="#deebdc"/>
      <path id="パス_29870" data-name="パス 29870" d="M317.091,144.051c.655-1.023,1.228-1.993,1.875-2.9s1.378-1.779,2.069-2.666a.447.447,0,0,1,.632-.138c.245.143.234.387.165.65q-.477,1.806-.941,3.615a4.838,4.838,0,0,0-.053.647c.246-.245.381-.385.522-.518.692-.654,1.382-1.309,2.081-1.955a.964.964,0,0,1,.35-.191c.36-.119.589.052.52.444a10.966,10.966,0,0,1-.4,1.529,10.918,10.918,0,0,0-.584,1.542c-.2,1.219-.314,2.452-.415,3.681a2.157,2.157,0,0,0,.233.856c.255.68-.033,1.265-.735,1.307a14.53,14.53,0,0,1-2.188,0,6.426,6.426,0,0,0-2.495,0,.593.593,0,0,1-.386,0c-.775-.374-1.649.221-2.445,0-.224-.063-.451.094-.663,0-.254-.114-.391-.888-.4-1.21a3.687,3.687,0,0,0-.132-1.044,4.078,4.078,0,0,1-.042-1.955,11.8,11.8,0,0,1,2.028-4.781c.169-.249.315-.514.475-.77.087-.14.158-.353.277-.4a1.38,1.38,0,0,1,.735-.089c.276.061.253.334.221.607-.134,1.152-.243,2.307-.357,3.461a1.331,1.331,0,0,0,.046.28" fill="#deebdc"/>
      <path id="パス_29871" data-name="パス 29871" d="M28.43,77.357c5.036,6.422,16.814,5.793,19.892-2.064,7.584,7.259,20.286-2.31,15.173-11.136-.834-1.439-3.763-2.994-3.6-4.739.532-5.778.663-8.912-3.1-13.08-4.444-4.921-10.283-2.178-13.053-2.583-1.639-.239-3.653-3.907-6.07-5.759-7.087-5.429-15.735,1.427-20.177,6.868C9.915,43.877,2.223,48.68.32,56.179-.9,61.587,1.418,65.83,6.73,67.565,3.109,80.19,21.009,83.987,28.43,77.357" fill="#deebdc" fill-rule="evenodd"/>
      <path id="パス_29872" data-name="パス 29872" d="M468.476,76.42a4.427,4.427,0,0,0,3.155-5.6,7.738,7.738,0,0,0-8.45-5.569c-2.187-2.678-4.622-5.068-9.264-2.851-1.353.646-2.848,2.187-3.655,2.3-1.363.2-4.237-1.151-6.424,1.271-1.853,2.052-1.789,3.594-1.527,6.438.079.859-1.363,1.624-1.773,2.332-2.517,4.345,3.735,9.054,7.468,5.482,1.514,3.867,7.311,4.176,9.79,1.015,3.652,3.264,12.462,1.4,10.68-4.819" fill="#deebdc" fill-rule="evenodd"/>
      <path id="パス_29873" data-name="パス 29873" d="M405.43,43.907a4.428,4.428,0,0,0,3.155-5.6,7.739,7.739,0,0,0-8.451-5.569c-2.187-2.678-4.622-5.068-9.264-2.851-1.353.646-2.848,2.187-3.655,2.305-1.363.2-4.237-1.151-6.423,1.271-1.854,2.052-1.789,3.594-1.528,6.438.079.859-1.363,1.624-1.773,2.332-2.517,4.345,3.736,9.054,7.469,5.482,1.513,3.867,7.31,4.176,9.789,1.015,3.652,3.264,12.462,1.395,10.681-4.819" fill="#deebdc" fill-rule="evenodd"/>
      <path id="パス_29874" data-name="パス 29874" d="M90.514,15.921a4.427,4.427,0,0,0,3.155-5.6,7.738,7.738,0,0,0-8.45-5.569C83.032,2.07,80.6-.32,75.955,1.9,74.6,2.543,73.107,4.084,72.3,4.2c-1.363.2-4.237-1.151-6.424,1.271-1.853,2.052-1.789,3.594-1.527,6.438.079.859-1.363,1.624-1.773,2.332-2.517,4.345,3.735,9.054,7.468,5.482,1.514,3.867,7.311,4.176,9.79,1.015,3.652,3.264,12.462,1.4,10.68-4.819" fill="#deebdc" fill-rule="evenodd"/>
    </g>
  </g>
</svg>
