<svg xmlns="http://www.w3.org/2000/svg" width="100.701" height="97.531" viewBox="0 0 100.701 97.531">
  <g id="イラスト_shokeihi" transform="translate(-605.833 -3646.233)">
    <g id="グループ_5368" data-name="グループ 5368" transform="translate(10)">
      <g id="グループ_5366" data-name="グループ 5366" transform="translate(-174.188 1346.469)">
        <path id="パス_29118" data-name="パス 29118" d="M890.567,2552.074a9.024,9.024,0,0,1,.847.37c1.025.514-.826,7.738-1.791,8.078a1.313,1.313,0,0,1-.706-.022c-2.906-.632-5.894-.727-8.822-1.341l-7.329-1.538c-.789-.166-1.726-.468-1.91-1.253a2.146,2.146,0,0,1,.037-.864l.809-4.488a2.488,2.488,0,0,1,.523-1.332c.5-.519,1.819-.119,2.5-.109a24.829,24.829,0,0,1,3.1.327c1.8.254,3.6.519,5.405.779l2.115.3c.582.084,1.163.167,1.744.259A17.487,17.487,0,0,1,890.567,2552.074Zm-1.773.673c-1.994-.456-4-.441-6.063-.716-2.6-.347-5.2-.767-7.8-1.134a2.1,2.1,0,0,0-1.926.374,2.418,2.418,0,0,0-.461,1.092c-.184.794-.852,2.576-.581,3.381.079.236.352.337.591.405a91.618,91.618,0,0,0,9.191,1.75c2.407.43,4.728,1.1,7.174,1.306a.366.366,0,0,0,.469-.281,8.969,8.969,0,0,0,.907-3.424,4.625,4.625,0,0,1,.05-1.3c.088-.309.261-.678.044-.915a.709.709,0,0,0-.3-.166A12.008,12.008,0,0,0,888.794,2552.747Z" transform="translate(-84.892 -207.419)" fill="#26333b" stroke="#26333b" stroke-width="0.4"/>
        <path id="パス_29119" data-name="パス 29119" d="M813.427,2334.259a34.449,34.449,0,0,0-3.345-.829,9.969,9.969,0,0,0-.228-4.6,4.569,4.569,0,0,0-.875-1.874,5.686,5.686,0,0,0-.772-.7l-1.449-1.159a71.767,71.767,0,0,1,1.19-7.1c.629-3.958,1.779-8.066,1.678-12.138a.729.729,0,0,0-.118-.458.744.744,0,0,0-.324-.192,32.792,32.792,0,0,0-4.127-1.042,23.829,23.829,0,0,0-2.981-.33,25.34,25.34,0,0,0-3.825-.3,1.866,1.866,0,0,0-1.383.842c-.337.488-.169,1.762-.561,2.766-.112.288-.235,1.536-.33,1.829a3.589,3.589,0,0,0-.129.873,96.815,96.815,0,0,1-2.362,13.884.219.219,0,0,1-.043.1.226.226,0,0,1-.138.054,8.12,8.12,0,0,0-3.95,1.755,10.417,10.417,0,0,0-1.88,2.195,13.137,13.137,0,0,0-.956,2.817,7.342,7.342,0,0,1-1.887.131c-1.237.115-2.464.03-3.7.144a4.357,4.357,0,0,0-1.516.327,3.849,3.849,0,0,0-1.711,2.433c-1.129,3.513-1.4,7.051-1.965,10.691-1.2,7.785-2.507,15.554-3.662,23.346-.688,4.641-1.281,9.3-1.666,13.978-.134,1.622-.561,4.221.319,5.65a4.823,4.823,0,0,0,2.453,1.665c.391.159,1.685.255,2.076.414a9.544,9.544,0,0,0,2.656.75c2.768.471,5.182.913,7.979,1.174,6.568.612,12.6,1.5,19.182,2.1a4.627,4.627,0,0,0,3.239-.5,4.335,4.335,0,0,0,1.33-2.5c2.616-10.173,4.057-20.737,5.358-31.212.748-6.029,1.931-12.15,2.219-18.223a17.129,17.129,0,0,0,0-4.146,2.6,2.6,0,0,0-.543-1.249,2.861,2.861,0,0,0-.9-.6C815.209,2334.769,814.019,2334.477,813.427,2334.259Zm-4.65-3.074a3.709,3.709,0,0,1-.278,1.927c-1.221-.244-1.716-.317-3.233-.626-.412-.083,1.574-5.827,1.289-5.984a4.587,4.587,0,0,1,2.026,2.9C808.622,2329.551,808.709,2330.358,808.777,2331.185Zm-14.337-3.774c.644-3.82,1.524-7.913,2.134-11.739q.458-2.869.895-5.741a15.9,15.9,0,0,1,1.049-4.554.413.413,0,0,1,.2-.2.576.576,0,0,1,.257-.037,14.113,14.113,0,0,1,3.259.388,45.35,45.35,0,0,0,5.328.857.938.938,0,0,1,.569.247.91.91,0,0,1,.143.62,15.816,15.816,0,0,1-.19,2.52c-.863,4.583-1.6,9.165-2.44,13.753-.3,1.663-.813,3.3-1.019,4.968-.111.966-.418,1.879-.54,2.846-.038.3-.122.66-.409.756a.806.806,0,0,1-.3.021,25.075,25.075,0,0,1-3.8-.276c-.777-.194-2-.142-2.8-.295-.387-.074-2.687-.273-2.894-.574a.346.346,0,0,1-.025-.25C794.017,2329.615,794.253,2328.523,794.44,2327.411Zm-4.268-.258q.1-.108.218-.208a7.126,7.126,0,0,1,2.777-1.447,19.833,19.833,0,0,1-.451,3.246c-.036.2-.182,2.168-.449,2.191a14.688,14.688,0,0,1-3.716-.2c-.2-.028.474-1.764.548-1.917A6.275,6.275,0,0,1,790.172,2327.153Zm24.818,18.429c-1.131,7.577-2.238,15.157-3.372,22.733q-.865,5.778-1.759,11.552c-.425,2.739-1.2,6.314-1.493,9.034a7.247,7.247,0,0,1-.336,1.757c-.548,1.486-5.2.6-6.806.391-2.261-.3-5.348-.687-7.628-.737a72.094,72.094,0,0,1-14.066-2.053c-.63-.138-1.2-.038-1.832-.166a5.4,5.4,0,0,1-2.121-.563,2.933,2.933,0,0,0-.879-.26,19.072,19.072,0,0,0-1.869-.444,1.492,1.492,0,0,1-1.1-1.564c-.039-.951.313-1.773.355-2.895.022-.594-.029-1.186.032-1.776.781-7.584,1.2-14.623,3.14-22a19.977,19.977,0,0,0,.62-2.825c.087-.769.445-2.127.5-2.9.06-.872.205-1.736.351-2.6.853-5.057,1.338-10.149,2.464-15.137.164-.727.372-2.056,1.015-2.431a3.086,3.086,0,0,1,1.584-.277c7.968.032,16,1.15,23.925,2.086a74.828,74.828,0,0,1,8.337,1.622,1.9,1.9,0,0,1,.828.36,1.838,1.838,0,0,1,.465,1.089A29.678,29.678,0,0,1,814.99,2345.583Z" fill="#26333b" stroke="#26333b" stroke-width="0.4"/>
      </g>
      <g id="グループ_5367" data-name="グループ 5367" transform="matrix(0.978, -0.208, 0.208, 0.978, -1301.672, 1773.879)">
        <path id="パス_29120" data-name="パス 29120" d="M1525.055,2277.43a77.221,77.221,0,0,0-1.427-10.534,25.825,25.825,0,0,1-.359-8.9c.173-1.265.184-2.553.243-3.833a16.666,16.666,0,0,1,2.183-7.032,7.111,7.111,0,0,1,1.637-1.93c.9-.789,2.037-2.025,3.368-2.024,1.584,0,2.5,1.281,2.878,2.68a26.419,26.419,0,0,1,.947,4.238,67.545,67.545,0,0,1,.615,10.709,8.751,8.751,0,0,1-.058,1.02q-1.081,5.916-2.183,11.829a34.44,34.44,0,0,0-.878,4.207c.841-.817,2.577-1.165,3.738-1.385a1.038,1.038,0,0,1,.595.005.944.944,0,0,1,.393.391c1.76,2.75.947,5.777-.2,8.51a3.5,3.5,0,0,0,.356,3.845,9.15,9.15,0,0,1,1.611,3.442c.244.9.636,1.766.944,2.653.781,2.246,1.635,4.471,2.3,6.75.911,3.1,1.742,6.219,2.659,9.317a52.425,52.425,0,0,1,2.256,15.042,4.531,4.531,0,0,1-2,4.168c-.768.349-1.652.649-2.412,1.025-2.008.993-3.5.855-6.152,1.164-2.482.118-3.965.156-6.072.375a14.18,14.18,0,0,1-2.308-.171,24.463,24.463,0,0,0-4.018-.342c-3.354-.533-4.7-.412-7.437-1.111-2.136-.831-3.926-.912-5.984-1.966a30.34,30.34,0,0,0-3.334-1.111,7.057,7.057,0,0,1-3.214-1.791,1.858,1.858,0,0,1-.467-1.654c.157-2.725.319-5.45.473-8.175.057-1.017.387-2.41.473-3.425.143-1.694.61-2.867.9-4.538a28.336,28.336,0,0,1,1.238-4.951c.673-1.829.929-3.716,1.754-5.489a13.809,13.809,0,0,0,.81-1.861,27.2,27.2,0,0,1,3.077-6.426c.529-.866,1.283-1.555,1.833-2.393a7.742,7.742,0,0,0,1.044-1.638,1.34,1.34,0,0,0-.031-.605c-.3-1.446-2.587-9.941,1.842-7.774a7.015,7.015,0,0,1,2.131,1.327c1.247,1.278,2.45,1.256,3.806.13.393-.327.764-.682,1.173-.987C1524.13,2277.962,1524.51,2277.765,1525.055,2277.43Zm-8.868,9.5c-.3.56-.956.846-1.347,1.331-.419.519-.782,1.21-1.165,1.775a11.719,11.719,0,0,0-.96,1.795c-1.112,2.49-2.029,5.084-3.349,7.457-1.055,1.9-1.275,3.726-1.9,5.757-.427,1.38-.69,2.6-1.06,4a11.254,11.254,0,0,0-.307,2.244,70.864,70.864,0,0,0-1.037,7.427c-.176,1.85-.251,3.74-.323,5.616a2.021,2.021,0,0,0,1.614,2.283,10.588,10.588,0,0,1,2.206.559c1.217.613,2.882,1.035,3.7,1.553,2.992,1.2,4.846,1.306,7.724,1.9a71.189,71.189,0,0,0,10.923.9,2.1,2.1,0,0,0,1.009-.1c1.289-.1,2.012-.041,2.937-.1a7.973,7.973,0,0,0,1.771-.252,12.234,12.234,0,0,1,3.078-.342,20.348,20.348,0,0,0,2.323-.6c.55-.18,1.4-.794,1.951-.978,1.075-.36,1.061-1.308,1.039-2.338-.044-2.127.019-4.271-.231-6.377-.4-3.388-1.557-6.618-2.4-9.914-.378-1.481-.773-2.958-1.124-4.446a15.728,15.728,0,0,0-.493-2.5c-1.253-2.969-1.539-6.285-3.279-9.079a3.178,3.178,0,0,1-.317-1.228,7.942,7.942,0,0,0-1.439-3.305c-.551-.773-1.2-1.315-1.166-2.367a5.838,5.838,0,0,1,.526-1.886,13.974,13.974,0,0,0,1-6.976c-.043-.384-.163-.856-.541-.932a.888.888,0,0,0-.44.06,13.557,13.557,0,0,0-2.325.94c-.621.347-1.083.969-1.772,1.2-1.239.423-3.653-.656-4.894-.939a2.743,2.743,0,0,0-2.744.691c-1.061.917-2.24,1.821-3.693,1.313-1.615-.565-2.47-2.242-4.34-2.2-.48,1.372.261,3.14.534,4.515.183.922.763,2.514.369,3.436C1516.221,2286.863,1516.2,2286.9,1516.188,2286.928Zm13.456-8.258.109.021a3.61,3.61,0,0,0,1.591-2.967c.458-3.194,1.444-6.291,1.671-9.533.112-1.6.633-3.188.669-4.787a83.667,83.667,0,0,0-.637-13.24,10.487,10.487,0,0,0-.675-2.46,1.682,1.682,0,0,0-2.722-.737,10.341,10.341,0,0,0-3.691,4.769,26.983,26.983,0,0,0-1.264,6.233,35.228,35.228,0,0,0,.136,9.678c.512,3.021.9,6.064,1.248,9.108.1.859.4,1.667.513,2.527a.637.637,0,0,0,.106.323.617.617,0,0,0,.221.152A11.335,11.335,0,0,0,1529.644,2278.67Z" fill="#26333b" stroke="#26333b" stroke-width="0.4"/>
        <path id="パス_29121" data-name="パス 29121" d="M1589.222,2651.541a.319.319,0,0,1-.395,0,.544.544,0,0,1-.135-.394,16.58,16.58,0,0,1,1.136-5.31c.566-1.869,1.182-4.558,3.008-6.183a.375.375,0,0,1,.621.329,1.389,1.389,0,0,1-.25.673,70.46,70.46,0,0,0-3.137,8.427c-.149.709-.312,1.256-.531,2.1A.684.684,0,0,1,1589.222,2651.541Z" transform="translate(-74.473 -345.554)" fill="#26333b" stroke="#26333b" stroke-width="0.4"/>
        <path id="パス_29122" data-name="パス 29122" d="M1674.747,2660.194c-.1.061-.211.006-.323-.243a1.287,1.287,0,0,1-.075-.5c-.024-1.548.114-3.1.083-4.64-.048-2.339.018-4.722-.114-7.049a1.009,1.009,0,0,1,.125-.633.3.3,0,0,1,.489-.035.664.664,0,0,1,.068.324c.147,3.746.621,7.53.282,11.294C1675.265,2658.9,1675.039,2660.021,1674.747,2660.194Z" transform="translate(-149.123 -352.016)" fill="#26333b" stroke="#26333b" stroke-width="0.4"/>
        <path id="パス_29123" data-name="パス 29123" d="M1727.436,2649.186l.051.478a.973.973,0,0,1-.074.63c-.278.436-.565.009-.664-.267a3.234,3.234,0,0,1-.139-.937,13.46,13.46,0,0,0-1.336-5.662c-.16-.3-1.112-1.971-.321-2.139a.524.524,0,0,1,.494.285,10.933,10.933,0,0,1,1.53,3.918C1727.166,2646.717,1727.3,2647.948,1727.436,2649.186Z" transform="translate(-192.999 -347.052)" fill="#26333b" stroke="#26333b" stroke-width="0.4"/>
        <path id="パス_29124" data-name="パス 29124" d="M1627.122,2553.434c.026.168.047.337.078.5.247,1.309.12,2.093-.3,1.977-.866-.235-.741-1.044-.845-1.679a22.533,22.533,0,0,1-.266-2.534.744.744,0,0,1,.411-.551c.414-.158.63.166.689.513.1.586.138,1.182.2,1.774Z" transform="translate(-106.816 -268.444)" fill="#26333b" stroke="#26333b" stroke-width="0.4"/>
        <path id="パス_29125" data-name="パス 29125" d="M1711.984,2548.805c0,1.15-.01,2.822-.9,3.71-.181.179-.473.336-.672.178a.57.57,0,0,1-.123-.531,3.468,3.468,0,0,1,.53-1.382,13.37,13.37,0,0,0,.565-1.953.637.637,0,0,1,.21-.333.255.255,0,0,1,.355.044.377.377,0,0,1,.036.2Z" transform="translate(-180.475 -266.12)" fill="#26333b" stroke="#26333b" stroke-width="0.4"/>
        <path id="パス_29126" data-name="パス 29126" d="M1684.822,2545.892c.054.387.123.767.156,1.162.051.6-.254,1.106-.246,1.691a.952.952,0,0,1-.169.641.4.4,0,0,1-.589.035.58.58,0,0,1-.074-.362c.021-1.174.119-2.342.137-3.515a.9.9,0,0,1,.137-.553.336.336,0,0,1,.5-.053.49.49,0,0,1,.075.282C1684.765,2545.449,1684.791,2545.672,1684.822,2545.892Z" transform="translate(-157.48 -262.983)" fill="#26333b" stroke="#26333b" stroke-width="0.4"/>
        <path id="パス_29127" data-name="パス 29127" d="M1657,2552.423c-.011.249-.029.495-.045.735a.338.338,0,0,1-.1.263.235.235,0,0,1-.292-.047.646.646,0,0,1-.14-.286,5.779,5.779,0,0,1,0-3.39.631.631,0,0,1,.173-.281.248.248,0,0,1,.307-.018.368.368,0,0,1,.088.277C1657.016,2550.583,1657.046,2551.519,1657,2552.423Z" transform="translate(-133.305 -266.913)" fill="#26333b" stroke="#26333b" stroke-width="0.4"/>
      </g>
    </g>
  </g>
</svg>
