<svg xmlns="http://www.w3.org/2000/svg" width="120" height="89.503" viewBox="0 0 120 89.503">
  <g id="イラスト_pc" transform="translate(-596 -3650)">
    <g id="グループ_5353" data-name="グループ 5353" transform="translate(-596.908 2478.504)">
      <path id="パス_29091" data-name="パス 29091" d="M1276.579,1259.8a4.417,4.417,0,0,0-.6-.158c-.943-.145-2.149.432-3.3.29-1.222-.151-2.5-.613-3.726-.221a1.85,1.85,0,0,1-1.176.184c-.181-.068-.329-.209-.514-.263a1.35,1.35,0,0,0-.745.092,5.088,5.088,0,0,1-2.668.057,3.611,3.611,0,0,0-.737-.149,3.011,3.011,0,0,0-.891.164c-2.791.77-5.745.168-8.6.482l-1.323-.215c-2.09,1.3-7.432-.132-9.907-.175-3.7-.064-7.411.034-11.115.1l-9.013.15a26.943,26.943,0,0,1-3.219-.075,20.55,20.55,0,0,0-2.149-.2,15.211,15.211,0,0,1-3.578.1,7.059,7.059,0,0,0-2.031-.5c-1.124.074-2.166.809-3.331.942-1.226.14-2.547.023-3.79.11-.7.049-1.662.5-2.266.494-.76-.01-1.33-.481-2.076-.549-1.395-.126-3.538.672-4.875.244-2.95-.945-2-11.627-1.481-13.7a2.212,2.212,0,0,1,.573-1.276c.221-.176.514-.242.738-.415.561-.433.479-1.3.822-1.924.532-.964,2.037-1.241,2.248-2.321a8.181,8.181,0,0,1,.089-1c.138-.422.551-.678.909-.941a11.71,11.71,0,0,0,2.436-2.752,5.452,5.452,0,0,0,.671-1.121,29.163,29.163,0,0,0,1.457-3.551c1.2-.356,3.026-2.616,3.643-3.657.481-.811.719-1.726,1.2-2.592a10.016,10.016,0,0,0,1.046-1.723c.49-1.512-.027-3.2-.071-4.742-.056-1.969.749-4.19.024-6.087-.118-.309-.287-.6-.385-.913a4.271,4.271,0,0,1-.111-1.386q.082-2.776.163-5.553c.057-1.917.932-3.909.056-5.611-.326-.633.09-1.634.2-2.238a18.969,18.969,0,0,0,.488-5.166c-.091-1.039-.286-2.067-.369-3.107-.149-1.85.521-2.839,1-4.441a12.457,12.457,0,0,0,.044-4.91c-.257-2.059.371-5.767,2.973-6.007,3.425-.316,7.208-1.169,10.484-.775a65.6,65.6,0,0,0,8.008-.052c2.78-.018,5.561-.036,8.341-.073,5.3-.072,10.477-.187,15.781-.2l2.462-.008c2.372-.008,4.666-.545,7.065-.607l.806-.021a6.942,6.942,0,0,1,1.177.037,9.127,9.127,0,0,0,1.491.244c.781-.017,1.487-.493,2.265-.565a9.237,9.237,0,0,1,1.681.161,50.794,50.794,0,0,0,6.1-.194,15.231,15.231,0,0,1,3.3.351l1.385.192,1.263.038,1.048.7c2.065.913,2.962,3.332,3.61,5.469a12.66,12.66,0,0,1,.408,2.819c.185,2.7.488,5.415.556,8.118.049,1.916.56,3.722.748,5.806q.189,2.08.377,4.162c.368,4.059.865,7.993,1.358,12.017.228,1.866.382,3.735.549,5.607a24.689,24.689,0,0,1,.436,4.7.661.661,0,0,0,.019.323.644.644,0,0,0,.165.205,27.975,27.975,0,0,0,2.652,2.725.512.512,0,0,0,.109.91,2.082,2.082,0,0,1,.665.4c.851,1.026,1.562,2.136,2.485,3.141a1.993,1.993,0,0,1,.375.509,3.66,3.66,0,0,0,.2.5,1.6,1.6,0,0,0,.533.428,3.439,3.439,0,0,1,1.423,1.851,1.483,1.483,0,0,0,.229.531,1.964,1.964,0,0,0,.388.3,5.23,5.23,0,0,1,1.067,1.413c.405.584,1.1.832,1.555,1.357.406.468.67,1.159,1.059,1.677.7.929,1.5,1.768,2.222,2.676a15.036,15.036,0,0,1,1.139,1.747c.893,1.52,2.563,2.2,2.6,4.076a35.2,35.2,0,0,1-.338,5.021c-.531,3.818-.759,6.057-5.078,6.539a92.764,92.764,0,0,1-16.457.366,13.475,13.475,0,0,0-2.494-.023c-1.258.15-2.393.758-3.621.967a26.749,26.749,0,0,0-3.454.3,2.882,2.882,0,0,1-1.608.253,7.413,7.413,0,0,0-.744-.289c-.638-.114-1.194.493-1.841.538A1.928,1.928,0,0,1,1276.579,1259.8Zm-63.075-36.311a2.847,2.847,0,0,1,.4.854c1.634-.623,2.929.282,4.47.324,1.191.032,2.411-.557,3.616-.595,3.229-.1,6.64.5,9.9.569q6.505.142,13.013.009a13.129,13.129,0,0,1,1.917.053c.5.063.983.184,1.482.241,4.171.477,8.231-.933,12.343-.959l11.524-.072a6.158,6.158,0,0,0,1.38-.113c.413-.1.8-.279,1.21-.389a7.259,7.259,0,0,1,1.646-.183l7.308-.252c1.218-.042,2.461.149,3.674-.009a27.421,27.421,0,0,0,3.56-1.12,51.479,51.479,0,0,1-.168-7.27,5.7,5.7,0,0,0-.113-1.408c-.064-.256-.164-.5-.24-.756a9.526,9.526,0,0,1-.255-2.686,50.642,50.642,0,0,0-.369-5.675,28.018,28.018,0,0,0-.992-4.171c-.968-3.424-.9-7.537-1.174-11.079a2.818,2.818,0,0,1,.475-2.246,2.189,2.189,0,0,1-.823-1.734,17.549,17.549,0,0,0-.647-5.022c-.2-.6-1.516-3.913-1.914-3.9a1.234,1.234,0,0,0-.4.142.96.96,0,0,1-1.215-.548c-.327.417-.971.3-1.492.2-1.761-.332-3.545-.426-5.341-.584a25.361,25.361,0,0,0-3.646-.146c-.769.044-1.741.644-2.272.671-2.1,0-4.3-.131-6.48-.048-3.813.145-7.625.341-11.437.537l-3.365.173c-1.811.093-3.622.187-5.435.236-2.058.056-3.918-.512-5.918-.609-1.556-.075-3.166,1.062-4.705.609-.775-.229-.971-.714-1.861-.679-.847.034-1.613.5-2.5.467q-.828-.028-1.656-.052l-.455-.014c-2.26-.069-4.358.292-6.674-.054-1.453-.217-2.641.481-4.079.585-3.547.257-2.565,5.63-2.791,7.964-.17,1.756-.256,3.519-.343,5.281a19.368,19.368,0,0,0,.07,3.871,11.049,11.049,0,0,1,.326,2.833,44.222,44.222,0,0,0-.627,7.113,23.3,23.3,0,0,1-.439,4.91,8.477,8.477,0,0,0,.422,4.722l-.55,1.319.052,1.318,1.03,1.319-.139,1.319.31,1.318c.092.395-.394,1.012-.414,1.443A2.722,2.722,0,0,0,1213.5,1223.491Zm-17.029,25.977a37.712,37.712,0,0,0,7.715.33c2.591-.258,5.267-.161,7.87-.228l9.5-.246c1.77-.046,3.654.4,5.376-.089,1.4-.4,3.421.231,4.935,0,.564-.085,1.188-.419,1.674-.483a34.957,34.957,0,0,1,4.153.092.672.672,0,0,0,.47-.118,6.768,6.768,0,0,0,1.137-1.589c.271-.541.563-1.078.791-1.635a24.157,24.157,0,0,0-5.021-.2,7.506,7.506,0,0,1-1.781.173c-.252-.051-.575-.375-.817-.362l-1.306.076-1.306.337-1.306.645a6.763,6.763,0,0,0-1.665-.856,12.276,12.276,0,0,1-2.443-.455,6.306,6.306,0,0,1-3.383.183,19.543,19.543,0,0,0-5.214.181,6.077,6.077,0,0,1-2.342.138,3.626,3.626,0,0,0-.968-.189c-.993.053-1.847.552-2.877.291-1.578-.4-3.127.539-4.8-.092-.157-.059-.328-.15-.368-.313a.57.57,0,0,1,.148-.434,33.753,33.753,0,0,1,3.111-4.34c.282-.3,2.37-4.217,2.718-3.88-.279-.27.025-.736.355-.94s.755-.428.747-.815a1.129,1.129,0,0,1-.014-.349.517.517,0,0,1,.223-.245c1.587-1.116,2.149-3.273,4.389-3.487a3.059,3.059,0,0,1,1.846.209,2.885,2.885,0,0,1,1.524-.192,4.277,4.277,0,0,1,1.6.3,1.127,1.127,0,0,0,.451.157c.236,0,.429-.176.638-.286,1-.53,3.582-.064,4.785-.126q3.339-.171,6.682-.217c4.256-.055,8.511.03,12.766.113,2.628.051,5.253-.431,7.883-.253a52.311,52.311,0,0,0,8.869.179,9.517,9.517,0,0,1,1.573-.054c.55.042,1.088.179,1.633.263a16.847,16.847,0,0,0,3.327.066c3.905-.18,7.812-.343,11.716-.539a28.13,28.13,0,0,0,4.065-.478,1.944,1.944,0,0,1,.745-.068c.16.03.309.1.466.147a2.531,2.531,0,0,0,.808.045l3.056-.158c.984-.051,1.574,3.3,2.072,3.878.526.616,1.38.667,1.9,1.463.615.938.975,2.229,2.008,2.724a4.375,4.375,0,0,1,1.534,1.3c.639.826.973,1.568,1.555,2.3a6.029,6.029,0,0,0,.635.68.552.552,0,0,1,.144.174c.092.207-.1.437-.305.528-.532.232-1.139-.045-1.72-.041a5.892,5.892,0,0,0-1.338.293c-1.338.331-2.8.215-4.168.416a11.94,11.94,0,0,1-3.43.421c-.376-.059-.739-.2-1.119-.225-.867-.055-1.68.506-2.548.473-.3-.012-.6-.1-.9-.138-1.208-.169-2.346.439-3.594.4l-1.374-.5-1.345.091-1.338.234-1.355-.113a14.522,14.522,0,0,0-1.459.227c-.229.055-.433.184-.66.246-.589.162-1.239.054-1.839.19a38.714,38.714,0,0,1-4.6.347,6.593,6.593,0,0,1,1.418,2.668c-.037-.328,2.758-.112,3.113-.06a5.661,5.661,0,0,0,1.355-.019,43.989,43.989,0,0,0,6.148-.7,4.849,4.849,0,0,1,2.775-.093l1.285-.508,1.313.428,1.284-.6,1.312.4c1.3-.206,2.574.373,3.81-.238a1.3,1.3,0,0,1,.644-.212,2.11,2.11,0,0,1,.553.2,2.385,2.385,0,0,0,1.15.023,32.877,32.877,0,0,1,3.849-.209l3.128-.048a7.9,7.9,0,0,1,.987.026c.258.028.512.081.769.115,1.814.237,3.772-.385,5.635-.306a2.355,2.355,0,0,0-.522-1.423,2.855,2.855,0,0,1-.515-.487,1.755,1.755,0,0,1-.131-.828c-.028-.519-.285-.818-.792-.807a5.286,5.286,0,0,1-.559-1.2,5.667,5.667,0,0,0-.884-2.711c-.542-.647-1.492-.741-2.088-1.314-.775-.745-.94-1.975-1.8-2.646a4.775,4.775,0,0,1-.636-.472,2.8,2.8,0,0,1-.455-1.08c-.574-1.757-2.222-2.782-3.435-4.061-.927-.977-1.67-3.443-3.137-3.646a4.146,4.146,0,0,0-.9.025,14.666,14.666,0,0,0-2.09-.12c-.439.123-.6.611-.91.714-1.06.353-2.9-.126-4.091-.106-2.886.05-5.764.458-8.654.285a5.876,5.876,0,0,0-1.6.04,10.04,10.04,0,0,0-1.054.348c-1.152.389-2.623-.313-3.523.066-.336.142-.709.36-1.036.2-.166-.081-.283-.251-.461-.3-.328-.091-.594.257-.894.42-.863.468-1.926-.659-2.843-.307-.43.165-.78.644-1.23.547-.248-.053-.436-.278-.687-.318a1.409,1.409,0,0,0-.77.258c-1.767.833-5.409-.03-7.365.029q-8.806.265-17.618.03c-2.626-.07-5.272-.407-7.8.151-2.557.565-5.87-.216-8.593-.213h-1.177c-3.032,0-5.768.073-8.7.106a.982.982,0,0,0-1.05.671l-1.368,2.331a7.147,7.147,0,0,1-.971,1.39c-.233.241-.5.449-.721.7a5.3,5.3,0,0,0-.592.893c0,1.239-3.132,5.63-3.989,6.625a61.048,61.048,0,0,0-4.283,5.006,8.591,8.591,0,0,1-1.259,1.537c-.6.536-1.39.963-1.618,1.732C1194.7,1249.3,1195.459,1249.359,1196.475,1249.468Zm113.168-.462c-.047-.261-.1-.521-.162-.779l-3.706.207a5.311,5.311,0,0,1-1.208-.025,3.436,3.436,0,0,0-1.3-.165c-.971.211-1.7.777-2.735.931l-1.331.723c-.085.048-.758-.544-.866-.59-.74-.315-.31-.168-1.157-.1a16.217,16.217,0,0,1-4.031-.171c-.648-.089-1.28.433-1.92.3-.333-.072-.605-.313-.93-.418a2.221,2.221,0,0,0-.644-.08,16.624,16.624,0,0,0-3.305.271,16.7,16.7,0,0,1-3.776.547c-.7-.033-1.412.066-2.078.044-.019,0-1.459-.1-1.273-.251-1.318,1.1-3.368.067-5,.58-.829.26-1.7.916-2.464.507a2.462,2.462,0,0,0-.621-.348,1.322,1.322,0,0,0-.694.143,7.451,7.451,0,0,1-2.958.252,8.146,8.146,0,0,0-3.132.371,4.709,4.709,0,0,1-1.3.365l-1.346-.091-1.215.677c-1.581,0-2.879-.02-4.543-.026l-6.3-.024a20.51,20.51,0,0,0-3.593.2,4.423,4.423,0,0,1-.9.107,7.309,7.309,0,0,1-.852-.13c-1-.152-1.927.031-2.918-.155a12.24,12.24,0,0,0-3.316-.4c-1.483.125-3.041-.3-4.484-.028a5.34,5.34,0,0,1-.984.156c-.83,0-1.3-.615-2.113-.638a10.726,10.726,0,0,0-2.025.544,28.87,28.87,0,0,1-7.719.058,10.045,10.045,0,0,0-3.253.248,4.149,4.149,0,0,1-.889.163c-.42.008-.83-.137-1.251-.141a7.2,7.2,0,0,0-1.006.131,7.763,7.763,0,0,1-.836.05l-3.191.075c-.857.02-1.714.04-2.569-.016a61.8,61.8,0,0,0-11.876.709c.358,1.267-.525,4.748,1.124,5.215.741.208,1.416-.566,2.116-.642.8-.087,1.6.333,2.465.245l2.653-.269c2.825-.286,5.929-.549,8.787-.682,6.023-.281,12.163.216,18.205.2,4.359,0,8.718-.02,13.078-.03a51.679,51.679,0,0,0,8.452-.49,1.452,1.452,0,0,1,.541-.019,2.843,2.843,0,0,1,.59.281c.857.413,1.849-.051,2.783-.228a9.065,9.065,0,0,1,1.551-.112l3.154-.046c3.543-.052,6.572.519,10.116-.108a8.136,8.136,0,0,1,1.43-.176,9.416,9.416,0,0,1,1.449.177c3.328.533,6.72.019,10.082-.22,1.3-.092,2.62.029,3.9-.065,1.127-.083,2.231-.393,3.4-.425.883-.024,1.765-.069,2.647-.113l4.064-.2c3.643-.184,7.244-.677,10.86-.879a.545.545,0,0,0,.381-.122.525.525,0,0,0,.1-.327,7.738,7.738,0,0,0-.109-1.983,3.222,3.222,0,0,1-.081-.613,4.587,4.587,0,0,1,.084-.621A4.7,4.7,0,0,0,1309.643,1249.006Zm-67.64.066c2.044.014,4.091.03,6.131-.022q5.376-.139,10.751-.277c.467-.013,6.632-.031,6.692.087a24.7,24.7,0,0,0-3.017-4.657,21.7,21.7,0,0,1-3.756.13l-3.874.28-4.88.353a5.116,5.116,0,0,1-1.5-.039c-.312-.071-.609-.2-.925-.252a5.521,5.521,0,0,0-2.167.351,2.553,2.553,0,0,1-2.065-.279c-.525.565-1.514,4.323-2.2,4.32Zm32.6-15.12a2,2,0,0,0,.356,1.316c.479.61,1.1.238,1.6.609.559.415.252,1.019.8,1.375a1.973,1.973,0,0,0,1.069.219,2.437,2.437,0,0,0,1.329-.235,1.563,1.563,0,0,0,1.39.18,5.16,5.16,0,0,1,1.152-.486c.252-.025.5.051.758.047,1.7-.025.2-2.515-.345-3.054a4.515,4.515,0,0,0-3.313-1.1c-2.933-.008-5.862.2-8.787.4a39.121,39.121,0,0,1-4.351.04c-1.19-.043-2.4.358-3.754.114l-.695,3.9a27.819,27.819,0,0,1,5.752.172,3.777,3.777,0,0,0,1.078-.13c.694-.131,1.408.048,2.08-.068.355-.061.724-.4,1.085-.4,1.688-.484,1.23-1.165,1.288-2.841a.153.153,0,0,1,.18-.183l1.347-.082C1274.608,1233.811,1274.6,1233.881,1274.6,1233.952Zm-37.435,8.457a6.158,6.158,0,0,0,.9-3.568l-4.517-.111a9.275,9.275,0,0,0-1.232.024,21.889,21.889,0,0,1-2.643.253c-1.061-.016-3.506,2.178-2,3.151a4.5,4.5,0,0,0,2.024.695c2.109.19,4.441-.466,6.488-.078a.99.99,0,0,0,.671-.015.831.831,0,0,0,.269-.3Zm22.917-.411,1.54-.829a2.635,2.635,0,0,1-1.889-1.673l-.173-.739c-.634-.259-1.361.132-2.033,0-.312-.06-.6-.23-.909-.287-.653-.119-1.315.267-1.971.167a16.741,16.741,0,0,0-1.783.1c-.276-.021-.874-.307-1.071-.293-.826.057-.839.066-1.5.9a7,7,0,0,1,.242,2.635c1.605.005,3.019.211,4.588.241l1.288-.067,1.258.321,1.368-.5Zm-41.332.849a26.285,26.285,0,0,1,3.229-.056c1.854.212,2.2.556,3.467-.83l-.137-1.684.281-1.438a7.342,7.342,0,0,1-2.519-.177c-.874-.109-1.346.473-2.12.646-.632.141-1.088-.416-1.659.255a4.136,4.136,0,0,0-.615,1.417,5.944,5.944,0,0,1-1,1.812A7.741,7.741,0,0,0,1218.75,1242.847Zm49.324.211h.035c.376-.01,6.98-.058,6.783-.793a8.164,8.164,0,0,0-1.342-2.76c-2.378.106-4.71.656-7.082.82-.743.051-2.806-.3-3.2.284a1.864,1.864,0,0,0,1.184,2.432C1265.657,1243.117,1266.866,1243.088,1268.075,1243.057Zm-31.169-9.176c.2-.733.4-1.3.658-1.315a28.1,28.1,0,0,1-3.058.262c-1.1-.072-2.534-.5-3.514.21-1.008.733-1.293,2.355-1.521,3.495a8,8,0,0,0,3.72.312c.772-.026,2.051.517,2.649.224C1236.271,1236.859,1236.571,1235.134,1236.906,1233.881Zm13.783,1a5.447,5.447,0,0,1-.975,1.478,2.849,2.849,0,0,1,1.13-.531,2.537,2.537,0,0,1,.759.078,20.335,20.335,0,0,0,3.747.156c1.243,0,2.972.518,3.832-.357l1.542-.323c.038-.008-.074-1.258-.084-1.381-.18.047-.458.118-.619.177a2.091,2.091,0,0,0-.888-1.053,3.506,3.506,0,0,0-1.6-.207c-2.007.056-3.992.031-5.992.054A12.961,12.961,0,0,1,1250.689,1234.877Zm-33.791,3.584c-.413-.061-5.4.151-5.392.1-.523,1.251-1.589,2.669-1.539,4.039,1.349.032,5.365,1.007,5.844-.429l1.46-3.655C1217.175,1238.5,1217.046,1238.483,1216.9,1238.461Zm23.93,3.662c.4.33.793.66,1.186.993.43-1.19,2.334-.029,3.218-.62.195-.13.344-.321.544-.443.794-.481,1.895.343,2.719-.084a5.543,5.543,0,0,1-.428-2.849,20.9,20.9,0,0,0-4.344.016c-.048.005-2.937-.077-2.417-.539l-1.141,1.012.192,1.337Zm44.848-.791a3.883,3.883,0,0,0-1.493-2.352.709.709,0,0,0-.3-.149c-.374-.06-.636.406-1.011.463a1.611,1.611,0,0,1-.522-.07c-.965-.172-1.893.727-2.853.527-1.079-.224-2.236.212-3.392.018.132.714.353,1.541,1.027,1.811a.833.833,0,0,1-.065.726c2.878-.354,5.51-.008,8.372-.513a.33.33,0,0,0,.248-.126.316.316,0,0,0,.015-.2C1285.692,1241.42,1285.685,1241.376,1285.676,1241.332Zm-37.983-5.37c.89-.52.9-1.863,1.192-3.012l-6.683.122a5.386,5.386,0,0,0-2.2.883c-.367.467-.125,1.489-.555,2.186.778-.2,1.541.305,2.324.481a5.745,5.745,0,0,0,1.088.1c.594.018,1.175.052,1.755.123.217.026.389.473.61.446.518-.064,1.023-.762,1.4-1.114A1.9,1.9,0,0,0,1247.693,1235.962Zm42.589.463c.666-.166,1.161-.414,1.159-.761-.007-1.292-2.4-1.444-2.39-2.866,0,.048-3.921.191-4.234.181a25.307,25.307,0,0,1,2.041,3.575A7.521,7.521,0,0,0,1290.282,1236.425Zm-67.773.551a37.876,37.876,0,0,1,4.6.146c.84.078,1.313-2.92.871-3.474-.4-.507-2.349-.356-2.987-.414s-1.422-.052-1.76.5c-.111.18-.165.41-.344.524-.126.08-.289.083-.416.162a.8.8,0,0,0-.264.363l-1.054,2.261Q1221.833,1237,1222.509,1236.976Z" transform="translate(0)" fill="#26333b"/>
      <path id="パス_29092" data-name="パス 29092" d="M1259.137,1224.741c-.368-2.31-.042-4.565-.584-6.873a2.517,2.517,0,0,1-.038-1.5,1.634,1.634,0,0,0,.22-.637c-.009-.231-.179-.434-.18-.665a19.407,19.407,0,0,0,.164-2.111c-.082-.923-.365-1.887-.4-2.8-.019-.484.3-.969.313-1.479a12.135,12.135,0,0,1-.156-1.472c.037-.287.312-.672.276-.957l-.173-1.375a9.525,9.525,0,0,1,.4-3.584l.142-.4a1.617,1.617,0,0,1,.53-.856,5.479,5.479,0,0,1,3.718-.656c.9.283,2.159-.162,3.132-.137a11.136,11.136,0,0,0,3.031-.2,4.053,4.053,0,0,1,1.011-.25c.373,0,.72.2,1.092.231a8.637,8.637,0,0,0,1.442-.23,5.905,5.905,0,0,1,1.537.231,26.011,26.011,0,0,0,4.621-.013c1.484-.1,2.775.357,4.315.393a6.288,6.288,0,0,0,1.233-.052,5.477,5.477,0,0,1,1.1-.184c.3.009.6.112.9.1a4.913,4.913,0,0,0,1.121-.317c1.572-.442,3.479.134,5.115.072.569-.022,1.129-.163,1.7-.188.87-.038,1.621.349,2.509.355,1.16.008,2.319-.206,3.48-.234a20.663,20.663,0,0,0,4.105-.06l1.337-.39,1.4.339c1.585-.155,3.2-.569,4.817-.725,1.584-.153,3.169-.049,4.758-.23a2.6,2.6,0,0,1,.912,0c.216.053.414.165.634.2.6.1,1.2-.394,1.774-.219.215.065.4.216.61.279.474.139.954-.178,1.446-.224.658-.062,1.422.593,1.918.984.461.364.977,1.548,1.391,1.682l-.186.715a1.769,1.769,0,0,0-.082.76.6.6,0,0,0,.5.516q.083.7.167,1.4.023.2.047.4c.242,2.03,1.026,3.75.8,5.773l.163,1.327-.186,1.378.4,1.29.107,1.334a34.827,34.827,0,0,1,.625,5.174c.047,1.332.578,2.283.237,3.569l.763,1.175-.542,1.3.785,1.384c-1.27.764-.871,2.456-.91,3.727a1.136,1.136,0,0,1-.194.732,1.1,1.1,0,0,1-.631.286,37.481,37.481,0,0,1-6.083.59q-3.326.136-6.652.254l-1.479.054-6.505.239c-.955.035-1.911.07-2.866.044a11.538,11.538,0,0,0-2.757.276c-.229.064-.433.2-.664.262a.534.534,0,0,1-.624-.209c-.51.426-1.163.212-1.741.456a1.773,1.773,0,0,1-.97.116c-.642-.1-1.282-.558-1.886-.317-.236.094-.423.285-.655.387a2.519,2.519,0,0,1-1.553-.111c-.741-.17-1.089.276-1.733.359a9.021,9.021,0,0,1-2.843-.273,6.271,6.271,0,0,0-1.184-.212,10.785,10.785,0,0,0-1.688.261,7.967,7.967,0,0,1-1.629,0c-3.873-.276-8.149-1.115-12.011-.715-.872.091-1.612.632-2.391.707-1.235.118-2.381-.912-3.78-.5a2.507,2.507,0,0,1-1.2.261c-.249-.057-.474-.234-.729-.218a1.383,1.383,0,0,0-.55.242,4.24,4.24,0,0,1-3.124-.128c-1.348-.5-1.546-1.029-1.279-2.381.088-.446-.047-1.035-.494-1.118a2.177,2.177,0,0,1,.577-.95.97.97,0,0,0,.223-1.035c-.069-.118-.182-.208-.239-.332-.177-.378.232-.808.149-1.217-.02-.1-.068-.19-.092-.288a1.467,1.467,0,0,1,.022-.547A6.777,6.777,0,0,0,1259.137,1224.741Zm3.393,6.67c.726.662,1.445.195,2.327.195.189.057.352.183.543.235.395.107.8-.121,1.2-.172a4.7,4.7,0,0,1,1.346.187c1.022.174,1.462-.4,2.581-.1,2.416-.667,5.139.217,7.666.169l3.527-.066,8.506-.16,3.338-.063,2.978-.056c2.185-.042,4.243-.276,6.43-.507a17.306,17.306,0,0,0,2.313-.35,6.4,6.4,0,0,1,.746-.163,4.688,4.688,0,0,1,.692-.016l4.759.121c.315.008.63.016.944,0,.362-.024.72-.086,1.08-.138.8-.117,1.652-.453,2.453-.506a21.559,21.559,0,0,0,2.55.06,2.1,2.1,0,0,1,1.01-.044c.169.055.32.161.493.2a1.347,1.347,0,0,0,.472-.005c1.177-.153,4.82.241,5.371-1.094.316-.767-.61-2.7-.624-3.693l-.464-1.295.116-1.35-.136-1.326.1-1.35-.416-1.3.313-1.372-.474-1.291-.722-1.266.17-1.357-.386-1.3-.024-1.338-.245-1.316-.407-1.3.252-1.364-.237-1.317.333-1.37-.893-1.057.027-1.255-.965-.65-1.1-.322a36.151,36.151,0,0,1-3.989.41l-1.651.228a9.157,9.157,0,0,1-1.651.128c-1.362-.059-2.569.055-3.912.094l-1.274-.333-1.331.238-1.336-.093-1.337.032-1.339.17c-1.3.166-2.254-.7-3.5-.386a2.488,2.488,0,0,1-.631.132,6.125,6.125,0,0,1-.8-.193,3.48,3.48,0,0,0-1.431.316c-1.376.391-2.86-.246-4.268.005a4.171,4.171,0,0,1-.631.1,8.018,8.018,0,0,1-.959-.14c-.538-.053-.861.4-1.315.4-.4,0-.809-.346-1.209-.334l-1.343.04-1.346-.086-1.34.01c-1.282.485-2.871,1.05-4.017.15l-1.35.214a12.135,12.135,0,0,1-5.522-.175c-.942-.271-1.53.251-2.424.219a2.5,2.5,0,0,1-.676-.187,2.678,2.678,0,0,0-1.391-.078,30.825,30.825,0,0,1-5.344.411.6.6,0,0,0-.442.133.578.578,0,0,0-.114.272c-.481,2.16-.042,4.444.084,6.641l-.617,1.366.354,1.344a5.1,5.1,0,0,1,.378,1.516c-.058,1.035-1.024,2.337-.52,3.419a1.6,1.6,0,0,1,.209.46.974.974,0,0,1-.134.487,4.933,4.933,0,0,0-.321,1.116,11.019,11.019,0,0,0-.151,2.892c.028.358.149.8.5.861-.956,1.376-.339,4.184-.177,5.767C1261.889,1229.36,1261.847,1230.788,1262.53,1231.411Z" transform="translate(-41.427 -16.676)" fill="#26333b"/>
    </g>
  </g>
</svg>
