<svg id="R_" xmlns="http://www.w3.org/2000/svg" width="72.682" height="72" viewBox="0 0 72.682 72">
  <defs>
    <style>
      .cls-1 {
        fill: #26333b;
      }
    </style>
  </defs>
  <g id="グループ_4854" data-name="グループ 4854">
    <path id="パス_28045" data-name="パス 28045" class="cls-1" d="M421.77,205.47l-.031.009a6.035,6.035,0,0,1-.758.215,1.47,1.47,0,0,1-.71.043.73.73,0,0,1-.6-.768c.019-.273.19-.761,1.128-.947a3.127,3.127,0,0,1,.866-.044q.829-.256,1.653-.591a8.3,8.3,0,0,0,1.716-.9,6.957,6.957,0,0,0,1.385-1.377,4.111,4.111,0,0,0,.6-1.065c.072-.241.136-.487.19-.73a8.983,8.983,0,0,1,.164-1.17.723.723,0,0,1,.077-.206l.111-.2a1.514,1.514,0,0,1,.375-.616.729.729,0,0,1,1.153.87l-.162.291c-.085.311-.155.624-.211.946-.017.1-.036.193-.058.29-.008.142-.013.284-.014.425a4.311,4.311,0,0,0,.518,1.617,6.985,6.985,0,0,0,1.257,1.708,4.375,4.375,0,0,0,1.663,1.049,6.785,6.785,0,0,0,1.7.287c.192-.057.383-.108.57-.157.214-.057.43-.114.634-.178a5.4,5.4,0,0,1,1.6-.263,1.179,1.179,0,0,1,1.192.6.845.845,0,0,1-.247.949.642.642,0,0,1-.093.074,2.451,2.451,0,0,1-1.183.408,14.7,14.7,0,0,1-2.042.028h-.236c-.05.016-.1.034-.149.052A8.368,8.368,0,0,0,430.5,208.6a6.84,6.84,0,0,0-1.281,2.108,8.864,8.864,0,0,0-.485,2c.017.063.034.127.05.19a11.019,11.019,0,0,1,.391,2.306l.007.077c.028.3.106,1.114-.571,1.4a.74.74,0,0,1-.282.056.733.733,0,0,1-.24-.04c-.68-.237-.763-1.085-.789-1.358a14.824,14.824,0,0,1-.069-2.215c.007-.1.014-.192.023-.288a16.643,16.643,0,0,0-.832-2.245A12.648,12.648,0,0,0,425,208.057a13.181,13.181,0,0,0-1.525-1.684,4.36,4.36,0,0,0-1.507-.841A1.743,1.743,0,0,0,421.77,205.47Z" transform="translate(-404.583 -182.392)"/>
    <path id="パス_28046" data-name="パス 28046" class="cls-1" d="M432.715,182.647a.729.729,0,0,1,.674.78c-.058.809-.15,1.619-.238,2.4-.066.583-.132,1.164-.19,1.8a9.694,9.694,0,0,0-.112,1.67,5.51,5.51,0,0,0,.21,1.014.729.729,0,0,1-.481.912.718.718,0,0,1-.216.033.729.729,0,0,1-.7-.513,6.876,6.876,0,0,1-.271-1.348,10.909,10.909,0,0,1,.119-1.945c.054-.6.121-1.189.189-1.782.088-.78.176-1.56.233-2.344A.729.729,0,0,1,432.715,182.647Z" transform="translate(-408.675 -178.529)"/>
    <path id="パス_28047" data-name="パス 28047" class="cls-1" d="M409.011,206.448c.422.078.849.139,1.25.179a6.8,6.8,0,0,0,1.522-.063l.408-.055c.357-.05.715-.1,1.071-.123.373-.026.754-.021,1.13-.015l.435,0a.729.729,0,0,1,0,1.458l-.454,0c-.338-.006-.678-.012-1.016.012-.32.02-.642.066-.962.111l-.408.055a8.092,8.092,0,0,1-1.232.095c-.206,0-.413-.008-.621-.023-.459-.046-.925-.112-1.388-.2a.729.729,0,1,1,.265-1.434Z" transform="translate(-373.895 -184.953)"/>
    <path id="パス_28048" data-name="パス 28048" class="cls-1" d="M401.863,207.162a1.473,1.473,0,0,1,.087-.529,1.24,1.24,0,0,1,.7-.734,1.442,1.442,0,0,1,1.388.068,1.352,1.352,0,0,1,.581.891c.006.024.012.053.02.092a.727.727,0,0,1-.01.836,1.028,1.028,0,0,1-.314.629.6.6,0,0,1-.055.05,2.331,2.331,0,0,1-.81.436,1.128,1.128,0,0,1-.53.147.906.906,0,0,1-.5-.152.678.678,0,0,1-.129-.109,1.761,1.761,0,0,1-.485-1.323.706.706,0,0,1,.021-.136C401.843,207.272,401.855,207.217,401.863,207.162Z" transform="translate(-358.478 -184.787)"/>
    <path id="パス_28049" data-name="パス 28049" class="cls-1" d="M431.729,179.844a1.593,1.593,0,0,1-.378.133.693.693,0,0,0-.112.036,1.055,1.055,0,0,1-.455.108,1.13,1.13,0,0,1-.227-.024l-.084-.014a1.221,1.221,0,0,1-1.085-.726.774.774,0,0,1-.034-.133,3.075,3.075,0,0,1-.02-.8,1.221,1.221,0,0,1,.483-.992,1.173,1.173,0,0,1,.989-.375.72.72,0,0,1,.514-.02l.359.12a.722.722,0,0,1,.38.292,1.241,1.241,0,0,1,.268.313.756.756,0,0,1,.039.077,1.429,1.429,0,0,1,.117.685A1.458,1.458,0,0,1,431.729,179.844Z" transform="translate(-406.262 -177)"/>
    <path id="パス_28050" data-name="パス 28050" class="cls-1" d="M447.834,206.4a3.28,3.28,0,0,0,1.493.291c.462.015.926.01,1.388.007l.651,0c.356-.012.718-.015,1.076-.03.287-.013.575-.025.867-.03a5.207,5.207,0,0,0,1.407-.212.729.729,0,1,1,.413,1.4,6.656,6.656,0,0,1-1.8.272c-.276,0-.551.016-.825.028-.381.016-.77.034-1.142.031l-.638,0c-.216,0-.432,0-.644,0-.26,0-.515,0-.753-.012a4.666,4.666,0,0,1-2.105-.424.729.729,0,1,1,.61-1.324Z" transform="translate(-442.172 -184.945)"/>
    <path id="パス_28051" data-name="パス 28051" class="cls-1" d="M461.3,206.384a1.224,1.224,0,0,1,1.272-1.045,1.368,1.368,0,0,1,1.093.333.832.832,0,0,1,.212.407,1.567,1.567,0,0,1,.318,1.07,1.946,1.946,0,0,1-.285.989c-.015.023-.03.045-.047.067a1.418,1.418,0,0,1-1.122.547,1.4,1.4,0,0,1-.863-.295,1.427,1.427,0,0,1-.408-.5.714.714,0,0,1-.05-.139,2.672,2.672,0,0,1-.069-.926,1.246,1.246,0,0,1-.058-.423A.689.689,0,0,1,461.3,206.384Z" transform="translate(-461.292 -184.674)"/>
    <path id="パス_28052" data-name="パス 28052" class="cls-1" d="M432.951,227.15a.725.725,0,0,1,.812.637,9.2,9.2,0,0,1,.066,1.293c0,.242-.016.481-.034.72-.012.182-.026.365-.029.549,0,.238,0,.476,0,.714v.365a.738.738,0,0,1-.006.09,1.245,1.245,0,0,0,.038.486.729.729,0,0,1-1.4.4,2.674,2.674,0,0,1-.088-1.013v-.318c0-.247,0-.5,0-.744,0-.211.018-.421.034-.631s.03-.408.03-.629a7.935,7.935,0,0,0-.055-1.1A.73.73,0,0,1,432.951,227.15Z" transform="translate(-409.773 -190.58)"/>
    <path id="パス_28053" data-name="パス 28053" class="cls-1" d="M430.711,239.632a3.99,3.99,0,0,1,.354-.631,1.7,1.7,0,0,1,1.353-1.062.723.723,0,0,1,.722.5l.067.2.082.079a1.789,1.789,0,0,1,.734,1.62,1.421,1.421,0,0,1-.68.985,1.586,1.586,0,0,1-.921.295,1.5,1.5,0,0,1-.267-.023.729.729,0,0,1-.183-.057,3.681,3.681,0,0,1-.672-.4,2.317,2.317,0,0,1-.277-.21,1.025,1.025,0,0,1-.338-1.23C430.692,239.677,430.7,239.655,430.711,239.632Z" transform="translate(-408.761 -193.503)"/>
    <path id="パス_28054" data-name="パス 28054" class="cls-1" d="M423.077,216.323a16.211,16.211,0,0,1,1.266,1.531c.29.381.564.742.863,1.081a.729.729,0,0,1-1.1.962c-.332-.379-.634-.777-.927-1.161a14.817,14.817,0,0,0-1.151-1.4.729.729,0,0,1,1.046-1.017Z" transform="translate(-393.698 -187.59)"/>
    <path id="パス_28055" data-name="パス 28055" class="cls-1" d="M442.249,215.613c.147-.151.3-.3.453-.44.11-.1.22-.208.327-.315.187-.187.363-.386.539-.585l.291-.324a.729.729,0,0,1,1.076.984l-.276.308c-.195.219-.391.439-.6.647-.117.117-.238.231-.358.345-.137.129-.273.257-.422.411a13.6,13.6,0,0,0-1.2,1.315.729.729,0,1,1-1.14-.909A14.9,14.9,0,0,1,442.249,215.613Z" transform="translate(-427.26 -186.943)"/>
    <path id="パス_28056" data-name="パス 28056" class="cls-1" d="M423.15,200.174a.729.729,0,0,1-.853-1.182,10.582,10.582,0,0,0,1.686-1.518.729.729,0,0,1,1.086.973A12.026,12.026,0,0,1,423.15,200.174Z" transform="translate(-393.689 -182.479)"/>
    <path id="パス_28057" data-name="パス 28057" class="cls-1" d="M444.015,199.957a.727.727,0,0,1-.324-.076c-.934-.464-1.852-.948-2.772-1.433l-.488-.257a.729.729,0,1,1,.68-1.29l.489.257c.909.48,1.818.959,2.741,1.418a.729.729,0,0,1-.325,1.382Z" transform="translate(-426.339 -182.367)"/>
  </g>
  <g id="グループ_4654" data-name="グループ 4654" transform="translate(45.85 44.107)">
    <path id="パス_28058" data-name="パス 28058" class="cls-1" d="M344.354,234.533l-.018,0a3.422,3.422,0,0,1-.439.125.853.853,0,0,1-.411.025.423.423,0,0,1-.345-.446c.011-.158.11-.441.653-.549a1.823,1.823,0,0,1,.5-.025q.481-.149.958-.343a4.8,4.8,0,0,0,.994-.522,4.031,4.031,0,0,0,.8-.8,2.369,2.369,0,0,0,.346-.618c.042-.139.079-.282.11-.423a5.378,5.378,0,0,1,.095-.678.448.448,0,0,1,.045-.119l.065-.116a.872.872,0,0,1,.217-.357.422.422,0,0,1,.668.5l-.093.169c-.05.18-.091.362-.123.548-.01.056-.022.112-.034.169,0,.082-.008.164-.008.246a2.507,2.507,0,0,0,.3.937,4.039,4.039,0,0,0,.729.99,2.526,2.526,0,0,0,.963.608,3.918,3.918,0,0,0,.985.166c.112-.033.222-.062.331-.091.124-.033.249-.066.368-.1a3.116,3.116,0,0,1,.93-.153.684.684,0,0,1,.691.35.49.49,0,0,1-.144.55.462.462,0,0,1-.053.043,1.426,1.426,0,0,1-.686.236,8.567,8.567,0,0,1-1.183.016h-.137l-.087.03a4.848,4.848,0,0,0-1.932,1.439,3.976,3.976,0,0,0-.743,1.222,5.164,5.164,0,0,0-.281,1.16l.029.11a6.386,6.386,0,0,1,.227,1.337l0,.045c.016.176.061.646-.331.81a.425.425,0,0,1-.163.032.433.433,0,0,1-.139-.023c-.394-.137-.442-.629-.457-.787a8.646,8.646,0,0,1-.04-1.284c0-.055.008-.111.013-.167a9.708,9.708,0,0,0-.482-1.3,7.319,7.319,0,0,0-.823-1.471,7.643,7.643,0,0,0-.884-.976,2.535,2.535,0,0,0-.873-.487A.872.872,0,0,0,344.354,234.533Z" transform="translate(-334.39 -221.154)"/>
    <path id="パス_28059" data-name="パス 28059" class="cls-1" d="M351.007,220.924a.423.423,0,0,1,.391.452c-.034.469-.087.939-.139,1.393-.038.338-.077.675-.11,1.04a5.619,5.619,0,0,0-.065.968,3.185,3.185,0,0,0,.121.589.422.422,0,0,1-.278.529.434.434,0,0,1-.126.019.424.424,0,0,1-.4-.3,4.028,4.028,0,0,1-.157-.781,6.254,6.254,0,0,1,.069-1.128c.031-.345.07-.689.109-1.033.051-.452.1-.9.135-1.358A.423.423,0,0,1,351.007,220.924Z" transform="translate(-337.072 -218.537)"/>
    <path id="パス_28060" data-name="パス 28060" class="cls-1" d="M336.653,235.349c.245.046.492.081.724.1a3.925,3.925,0,0,0,.882-.036l.237-.032c.207-.029.414-.058.621-.071s.437-.012.655-.008l.252,0a.423.423,0,0,1,0,.845l-.264,0c-.2,0-.393-.007-.589.007s-.372.038-.559.064l-.236.032a4.623,4.623,0,0,1-.715.055c-.119,0-.239,0-.36-.013-.266-.026-.536-.065-.8-.114a.423.423,0,0,1,.153-.832Z" transform="translate(-316.296 -222.889)"/>
    <path id="パス_28061" data-name="パス 28061" class="cls-1" d="M332.341,235.747a.862.862,0,0,1,.05-.307.718.718,0,0,1,.405-.425.835.835,0,0,1,.8.039.783.783,0,0,1,.337.516c0,.015.007.031.012.054a.422.422,0,0,1-.006.485.6.6,0,0,1-.182.365.3.3,0,0,1-.031.029,1.349,1.349,0,0,1-.47.253.653.653,0,0,1-.307.085.518.518,0,0,1-.288-.089.383.383,0,0,1-.075-.063,1.021,1.021,0,0,1-.281-.767.43.43,0,0,1,.012-.079A.947.947,0,0,0,332.341,235.747Z" transform="translate(-307.19 -222.776)"/>
    <path id="パス_28062" data-name="パス 28062" class="cls-1" d="M350.382,219.15a.942.942,0,0,1-.219.077.471.471,0,0,0-.065.021.6.6,0,0,1-.264.063.652.652,0,0,1-.131-.014l-.049-.008a.709.709,0,0,1-.629-.42.508.508,0,0,1-.02-.077,1.819,1.819,0,0,1-.011-.464.708.708,0,0,1,.28-.575.72.72,0,0,1,.4-.214.741.741,0,0,1,.17,0,.418.418,0,0,1,.3-.011l.208.069a.416.416,0,0,1,.22.169.708.708,0,0,1,.155.181c.008.015.016.029.023.045a.828.828,0,0,1,.068.4A.846.846,0,0,1,350.382,219.15Z" transform="translate(-335.619 -217.501)"/>
    <path id="パス_28063" data-name="パス 28063" class="cls-1" d="M360.181,235.323a1.9,1.9,0,0,0,.865.169c.268.008.537.006.8,0l.378,0c.206-.008.416-.008.623-.017.167-.008.334-.015.5-.017a3,3,0,0,0,.815-.123.423.423,0,0,1,.24.811,3.854,3.854,0,0,1-1.043.158c-.16,0-.319.01-.478.017-.221.009-.446.02-.662.018l-.37,0-.373,0c-.151,0-.3,0-.437-.007a2.7,2.7,0,0,1-1.22-.245.423.423,0,0,1,.354-.768Z" transform="translate(-356.899 -222.883)"/>
    <path id="パス_28064" data-name="パス 28064" class="cls-1" d="M368.37,235.285a.71.71,0,0,1,.738-.606.793.793,0,0,1,.634.192.484.484,0,0,1,.123.236.91.91,0,0,1,.185.621,1.128,1.128,0,0,1-.166.573c-.008.013-.017.027-.026.038a.823.823,0,0,1-.651.318.821.821,0,0,1-.737-.461.412.412,0,0,1-.029-.08,1.56,1.56,0,0,1-.04-.537.733.733,0,0,1-.033-.245A.393.393,0,0,1,368.37,235.285Z" transform="translate(-368.366 -222.7)"/>
    <path id="パス_28065" data-name="パス 28065" class="cls-1" d="M351.168,247.9a.42.42,0,0,1,.471.369,5.441,5.441,0,0,1,.038.749c0,.141-.01.28-.02.418-.008.105-.015.211-.017.318,0,.139,0,.276,0,.414v.212a.437.437,0,0,1,0,.052.709.709,0,0,0,.022.281.424.424,0,0,1-.291.522.413.413,0,0,1-.116.016.423.423,0,0,1-.406-.308,1.548,1.548,0,0,1-.05-.587v-.184c0-.143,0-.287,0-.432,0-.122.01-.244.019-.366s.017-.236.017-.364a4.545,4.545,0,0,0-.032-.639A.423.423,0,0,1,351.168,247.9Z" transform="translate(-337.732 -226.701)"/>
    <path id="パス_28066" data-name="パス 28066" class="cls-1" d="M349.827,255.422a2.285,2.285,0,0,1,.2-.365.988.988,0,0,1,.784-.616.42.42,0,0,1,.418.289l.039.118.048.046a1.038,1.038,0,0,1,.425.939.825.825,0,0,1-.394.571.918.918,0,0,1-.533.171.892.892,0,0,1-.155-.013.438.438,0,0,1-.107-.033,2.127,2.127,0,0,1-.389-.232,1.307,1.307,0,0,1-.161-.122.593.593,0,0,1-.2-.713C349.816,255.448,349.821,255.435,349.827,255.422Z" transform="translate(-337.102 -228.681)"/>
    <path id="パス_28067" data-name="パス 28067" class="cls-1" d="M345.168,241.332a9.488,9.488,0,0,1,.734.887c.168.221.327.43.5.628a.423.423,0,0,1-.636.557c-.192-.22-.367-.45-.537-.673a8.63,8.63,0,0,0-.667-.809.423.423,0,1,1,.606-.59Z" transform="translate(-328.137 -224.675)"/>
    <path id="パス_28068" data-name="パス 28068" class="cls-1" d="M356.784,240.857c.085-.087.174-.171.262-.255.064-.06.128-.12.19-.182.109-.109.211-.224.312-.339l.169-.188a.422.422,0,0,1,.623.571l-.16.179c-.113.128-.227.255-.347.375-.068.068-.138.134-.208.2s-.159.15-.245.238a7.879,7.879,0,0,0-.694.762.423.423,0,0,1-.662-.526A8.682,8.682,0,0,1,356.784,240.857Z" transform="translate(-348.095 -224.237)"/>
    <path id="パス_28069" data-name="パス 28069" class="cls-1" d="M345.215,231.471a.423.423,0,1,1-.494-.686,6.127,6.127,0,0,0,.977-.879.422.422,0,1,1,.63.563A6.927,6.927,0,0,1,345.215,231.471Z" transform="translate(-328.137 -221.213)"/>
    <path id="パス_28070" data-name="パス 28070" class="cls-1" d="M357.788,231.334a.414.414,0,0,1-.188-.045c-.541-.268-1.074-.549-1.607-.831l-.282-.149a.423.423,0,0,1,.394-.748l.283.149c.527.278,1.054.556,1.589.821a.423.423,0,0,1-.189.8Z" transform="translate(-347.541 -221.137)"/>
  </g>
</svg>
