<svg id="L_イラスト" xmlns="http://www.w3.org/2000/svg" width="59.368" height="72" viewBox="0 0 59.368 72">
  <defs>
    <style>
      .cls-1 {
        fill: #26333b;
      }
    </style>
  </defs>
  <path id="パス_28360" data-name="パス 28360" class="cls-1" d="M72.491,232.07v-.8c0-.886,0-1.8-.063-2.707-.077-1.092-.224-2.189-.367-3.252l-.076-.572c-.061-.46-.118-.919-.176-1.38-.181-1.436-.367-2.921-.634-4.373-.134-.726-.332-1.445-.525-2.139a18.046,18.046,0,0,1-.634-2.91,2.885,2.885,0,0,0-.172-.534l-.22-.707c-.173-.552-.346-1.1-.5-1.663-.113-.408-.212-.819-.312-1.231-.132-.544-.265-1.089-.425-1.625-.254-.846-.536-1.683-.818-2.521l-.347-1.038a1.931,1.931,0,0,0-.077-.187l-.3-.7q-.516-1.246-1.027-2.493a1.2,1.2,0,0,1-.053-.189,1.664,1.664,0,0,0-.1-.333l-.262-.586c-.271-.607-.55-1.236-.879-1.832a5.425,5.425,0,0,0-.545-.767,3.022,3.022,0,0,1-.585-.925l-.027-.064a12.238,12.238,0,0,0-4.071-4.417,4.42,4.42,0,0,0-3.729-.237,20.055,20.055,0,0,0-1.951.951,6.2,6.2,0,0,0-1.4,1.086c-.473.509-.9,1.064-1.317,1.6l-.775.981c-.386.48-.787.977-1.152,1.512a37.259,37.259,0,0,0-2.892,5.866c-.556,1.233-1.006,2.533-1.441,3.789-.189.547-.379,1.094-.574,1.627a35.913,35.913,0,0,0-1.27,3.732c-.168.7-.387,1.4-.6,2.086-.153.492-.3.985-.442,1.481-.163.59-.285,1.194-.4,1.779l-.065.317c-.049.244-.086.489-.122.735-.025.166-.049.333-.078.5-.073.4-.153.806-.233,1.209-.166.834-.339,1.7-.433,2.562-.28,2.571-.488,4.731-.593,6.912a47.426,47.426,0,0,0,.14,7.529,8.853,8.853,0,0,0,.124,1.224l.211.832c.34,1.345.691,2.735,1.112,4.063a6.68,6.68,0,0,0,2.094,3.41c.428.337.883.642,1.324.936.408.274.83.556,1.223.86a11.64,11.64,0,0,0,3.9,1.945,39.1,39.1,0,0,0,4.266,1.005c.031.246.05.493.058.728-.034,1.6-.073,3.191-.137,4.786-.04,1.012-.093,2.1-.2,3.185-.132,1.324.15,1.7,1.446,1.938a2.636,2.636,0,0,0,.609.031,8.406,8.406,0,0,1,1.126.044c.313.026.629.052.949.052a3.7,3.7,0,0,0,1.4-.242l.014,0,.042,0c1.276-.092,1.641-.5,1.561-1.739-.068-1.112-.176-2.2-.263-3.032-.09-.865-.187-1.729-.285-2.592-.083-.733-.165-1.464-.241-2.183q-.016-.253-.01-.508l.022-.014a1.585,1.585,0,0,1,.279-.065,9.544,9.544,0,0,0,3.9-1.343,18.289,18.289,0,0,0,2.7-1.872A27.115,27.115,0,0,0,69.7,246.8a7.083,7.083,0,0,0,.982-1.57,17.406,17.406,0,0,0,1.293-4.3,21.292,21.292,0,0,0,.523-3.953c-.013-.959-.011-1.918-.008-2.878C72.493,233.421,72.494,232.746,72.491,232.07ZM55.58,259.057c.037-.648.074-1.3.1-1.943l.045-.895c.054-1.048.11-2.131.11-3.2,0-.829-.032-1.668-.062-2.48-.029-.742-.057-1.486-.062-2.231-.008-1.172.051-2.352.113-3.423a11.214,11.214,0,0,0-.161-4.122,2.1,2.1,0,0,0-.824-1.192,19.123,19.123,0,0,1-2.1-1.531L52.677,238a4.962,4.962,0,0,1-1.252-.93c-.046-.074-.09-.15-.131-.228l.091.026c.376.109.754.218,1.137.321a12.925,12.925,0,0,1,2.587.938l.1.031a.994.994,0,0,0,.9-.33,1.934,1.934,0,0,0,.467-1.6,14.553,14.553,0,0,1-.051-4.616,3.578,3.578,0,0,0,.01-.672,35.633,35.633,0,0,1,.278-5.467c.014-.137.026-.275.036-.415.138.708.27,1.419.375,2.1a7.023,7.023,0,0,1-.1,1.447,2.377,2.377,0,0,0,.028.774c.088.331.2.744.529.863.414.145.915-.236,1.012-.315.529-.424,1.046-.863,1.564-1.3l.151-.127-.292.395c-.377.509-.767,1.035-1.122,1.577-.469.715-.885,1.473-1.288,2.206l-.2.362a1.45,1.45,0,0,0-.17.788c.046.563.1,1.126.159,1.689.062.619.124,1.237.172,1.856.063.811.113,1.622.162,2.433.034.548.067,1.1.1,1.643.012.183.038.364.063.545s.048.341.059.512q.093,1.362.179,2.723.084,1.3.171,2.6l.072,1.075c.088,1.326.175,2.651.292,3.973.051.56.13,1.115.209,1.672.064.445.128.891.176,1.339.166,1.549.308,3.1.449,4.653l.012.13a4.744,4.744,0,0,1,.006.555v.03a5.176,5.176,0,0,1-3.394.236c-.244-.038-.489-.075-.735-.105v-.018a3.464,3.464,0,0,1-.019-.443C55.51,260.306,55.545,259.682,55.58,259.057Zm4.558-7.9-.051-.528c-.061-.629-.119-1.242-.17-1.856-.077-.939-.148-1.88-.2-2.821-.019-.346-.023-.693-.028-1.039,0-.243-.005-.484-.013-.727l-.009-.32a10.375,10.375,0,0,0-.068-1.131,34.962,34.962,0,0,1-.4-5.345,15.5,15.5,0,0,0-.208-2.9,2.509,2.509,0,0,1,.439-1.812,25.544,25.544,0,0,1,2.228-3.376,6.048,6.048,0,0,0,.914-1.65,1.321,1.321,0,0,0-.1-1.1l-.073-.093a.937.937,0,0,0-1.3-.076q-1.01.711-2.024,1.412c-.1.071-.21.139-.328.213,0-.028,0-.055,0-.079a21.236,21.236,0,0,0-.357-3.353c-.237-.919-.382-1.871-.523-2.792-.066-.429-.132-.858-.206-1.285l-.023-.149c-.053-.363-.14-.971-.779-1.069-.874-.128-1.045.786-1.107,1.133-.168.995-.275,1.988-.369,2.921-.121,1.189-.246,2.456-.332,3.718-.065.958-.131,2.09-.125,3.231,0,.306.01.611.02.917a16.2,16.2,0,0,1-.022,1.978,21.428,21.428,0,0,0-.041,2.421c0,.235.01.475.013.721l-.437-.135c-.586-.183-1.137-.354-1.691-.5a12.044,12.044,0,0,0-2.065-.4,1.2,1.2,0,0,0-1.152.456,1.318,1.318,0,0,0-.026,1.322,4.8,4.8,0,0,0,1.765,1.945c1.087.747,1.933,1.382,2.633,1.969a1.365,1.365,0,0,1,.352.83,22.823,22.823,0,0,1,.04,4.828,16.91,16.91,0,0,0-.031,1.9c.008.325.015.651.012.976,0,.208-.02.416-.037.624-.012.144-.024.288-.029.492a.179.179,0,0,1-.014.092.174.174,0,0,1-.1.094.251.251,0,0,1-.19-.021,9.185,9.185,0,0,0-1.066-.182,4.145,4.145,0,0,1-1.9-.561.762.762,0,0,0-.3-.125,10.058,10.058,0,0,1-3.718-1.7c-.443-.279-.884-.557-1.33-.806a4.425,4.425,0,0,1-1.129-.957,8.185,8.185,0,0,1-1.954-3.93,12.291,12.291,0,0,0-.325-1.245,11.449,11.449,0,0,1-.307-1.168c-.11-.584-.18-1.193-.247-1.781-.043-.37-.085-.74-.136-1.1a38.947,38.947,0,0,1-.153-7.084c.038-.948.176-1.917.308-2.854.068-.482.136-.964.192-1.447.037-.321.066-.642.1-.963.037-.413.074-.826.129-1.237.1-.754.218-1.505.334-2.257l.176-1.158c.02-.131.034-.263.049-.4a4.863,4.863,0,0,1,.1-.635c.228-.946.475-1.886.729-2.824.124-.458.239-.919.355-1.38a32.234,32.234,0,0,1,.927-3.212c.262-.715.515-1.433.769-2.152a54.99,54.99,0,0,1,2.991-7.328c.236-.448.445-.91.656-1.371a12.915,12.915,0,0,1,1.386-2.534,19.892,19.892,0,0,1,3.011-3.477,14.184,14.184,0,0,1,2.09-1.4,2.762,2.762,0,0,1,3.2.247,8.45,8.45,0,0,1,.944.843c.244.24.488.48.748.7a7,7,0,0,1,1.542,2.121c.2.363.408.738.638,1.086a24.042,24.042,0,0,1,2.439,5.252c.949,2.675,1.674,4.906,2.28,7.018.39,1.356.715,2.76,1.031,4.117.181.78.363,1.561.556,2.337.094.383.209.759.324,1.135.135.436.272.887.37,1.333.13.59.2,1.213.272,1.815l.1.837c.28,2.315.562,4.629.819,6.936a15.253,15.253,0,0,1,.039,1.673c0,.625.01,1.25.018,1.876.019,1.464.04,2.977-.045,4.458a20.587,20.587,0,0,1-1.44,6.748,7.512,7.512,0,0,1-1.765,2.739,3.11,3.11,0,0,0-.463.531,9.668,9.668,0,0,1-3.3,2.691l-.319.19a6.736,6.736,0,0,1-3.451.95Z" transform="translate(-39.74 -191.583)"/>
  <path id="草" class="cls-1" d="M243.282,303.932c.739-2.072,1.364-4.021,2.12-5.89s1.658-3.682,2.491-5.519c.221-.488.559-.622.952-.455.425.179.477.625.442,1.126q-.239,3.436-.455,6.872a10.354,10.354,0,0,0,.1,1.192c.318-.526.49-.823.673-1.11.9-1.413,1.8-2.828,2.71-4.23a1.6,1.6,0,0,1,.5-.463c.531-.333.939-.1.942.636a23.668,23.668,0,0,1-.188,2.91,23.117,23.117,0,0,0-.48,2.991c.033,2.279.2,4.554.391,6.819a4.263,4.263,0,0,0,.606,1.477c.591,1.152.3,2.276-.787,2.58a20.145,20.145,0,0,1-3.443.653,9.042,9.042,0,0,0-3.9.886.852.852,0,0,1-.6.155c-1.322-.425-2.624.3-3.936.154a6.638,6.638,0,0,1-1.1-.182,1.136,1.136,0,0,1-.8-1.022,7.593,7.593,0,0,0-.5-1.852,8.543,8.543,0,0,1-.618-3.536,24.648,24.648,0,0,1,1.828-9.347c.2-.506.349-1.036.527-1.552.1-.284.149-.693.323-.813a1.986,1.986,0,0,1,1.127-.4c.449.02.491.524.518,1.03.115,2.137.27,4.268.418,6.4A2.646,2.646,0,0,0,243.282,303.932Zm4.4-6.905-.277-.062A22.78,22.78,0,0,0,244.473,306c-.029.665-.069,1.332-.136,1.993a1.014,1.014,0,0,1-.937,1.042c-.473.039-.584-.4-.706-.867a44.43,44.43,0,0,1-1.171-7.292c-.028-.318-.109-.624-.224-1.255a16.46,16.46,0,0,0-1.3,4.63c-.237,1.935-.611,3.855.414,5.615a2.871,2.871,0,0,1,.18.727c.536,2.281,1.027,2.65,2.942,2.207.163-.038.318-.142.483-.163.37-.046.742-.064,1.113-.091a4.609,4.609,0,0,0,1.455-.127,5.768,5.768,0,0,1,2.947-.493,5.861,5.861,0,0,0,2.874-.634,34.137,34.137,0,0,1-.591-6.214c.007-2.095.168-4.192.265-6.365-.227.11-.338.118-.372.184a17.241,17.241,0,0,0-2.264,7.1c-.017.307-.017.617-.056.921a.993.993,0,0,1-1,.951c-.493.036-.581-.468-.586-.957-.01-.959-.006-1.919-.007-2.879,0-.3.1-.673-.014-.873a4.876,4.876,0,0,1-.256-2.824c.068-1.1.1-2.2.148-3.305Z" transform="translate(-195.014 -242.735)"/>
</svg>
