<svg xmlns="http://www.w3.org/2000/svg" width="190.553" height="112" viewBox="0 0 190.553 112">
  <g id="R" transform="translate(-20 0)">
    <g id="グループ_4853" data-name="グループ 4853" transform="translate(20)">
      <path id="パス_28040" data-name="パス 28040" d="M605.162,178.868a225,225,0,0,0-22.713,12.582.982.982,0,1,1-1.049-1.661A226.856,226.856,0,0,1,604.312,177.1a.982.982,0,1,1,.85,1.77Z" transform="translate(-579.438 -176.999)" fill="#26333b"/>
      <path id="パス_28041" data-name="パス 28041" d="M603.841,210.289l-22.377,2.7a.983.983,0,0,1-.236-1.951l22.377-2.7a.983.983,0,0,1,.236,1.951Z" transform="translate(-577.854 -177.549)" fill="#26333b"/>
      <path id="パス_28042" data-name="パス 28042" d="M578.981,236.98a.991.991,0,0,1,1.042-.918l18.872,1.192a.982.982,0,0,1-.061,1.963l-.062,0L579.9,238.023A.982.982,0,0,1,578.981,236.98Z" transform="translate(-571.606 -178.036)" fill="#26333b"/>
      <path id="パス_28043" data-name="パス 28043" d="M583.534,260.581l21.221,5.216a.982.982,0,0,1-.233,1.935.922.922,0,0,1-.236-.028l-21.22-5.216a.982.982,0,1,1,.468-1.907Z" transform="translate(-580.573 -178.465)" fill="#26333b"/>
      <path id="パス_28044" data-name="パス 28044" d="M582.51,275.048a.98.98,0,0,1,1.377-.177,123.71,123.71,0,0,0,22.8,13.971.982.982,0,0,1-.421,1.871.961.961,0,0,1-.418-.094,125.647,125.647,0,0,1-23.16-14.193A.981.981,0,0,1,582.51,275.048Z" transform="translate(-582.304 -178.713)" fill="#26333b"/>
    </g>
    <g id="イラスト" transform="translate(79.91 0.001)">
      <g id="グループ_4854" data-name="グループ 4854" transform="translate(-139.91 -0.001)">
        <path id="パス_28045" data-name="パス 28045" d="M422.5,208.444l-.042.013a8.122,8.122,0,0,1-1.021.29,1.98,1.98,0,0,1-.956.058.983.983,0,0,1-.8-1.035c.026-.368.256-1.025,1.52-1.276a4.213,4.213,0,0,1,1.166-.059q1.117-.345,2.227-.8a11.188,11.188,0,0,0,2.312-1.213,9.374,9.374,0,0,0,1.866-1.855,5.538,5.538,0,0,0,.8-1.435c.1-.325.184-.656.256-.983a12.109,12.109,0,0,1,.221-1.577.972.972,0,0,1,.1-.277l.149-.27a2.041,2.041,0,0,1,.505-.83.982.982,0,0,1,1.553,1.172l-.218.392c-.115.419-.209.841-.285,1.274-.024.131-.049.26-.079.391-.011.192-.018.382-.019.573a5.808,5.808,0,0,0,.7,2.178,9.41,9.41,0,0,0,1.694,2.3,5.9,5.9,0,0,0,2.24,1.414,9.141,9.141,0,0,0,2.288.386c.258-.077.516-.145.768-.212.289-.077.579-.153.855-.24a7.281,7.281,0,0,1,2.162-.355,1.588,1.588,0,0,1,1.606.813,1.138,1.138,0,0,1-.333,1.278.865.865,0,0,1-.125.1,3.3,3.3,0,0,1-1.594.55,19.8,19.8,0,0,1-2.751.037l-.318,0c-.068.022-.136.046-.2.07a11.275,11.275,0,0,0-4.49,3.345,9.216,9.216,0,0,0-1.726,2.84,11.942,11.942,0,0,0-.653,2.7c.023.085.046.171.068.256a14.843,14.843,0,0,1,.527,3.106l.01.1c.038.41.142,1.5-.769,1.882a1,1,0,0,1-.38.076.987.987,0,0,1-.323-.054c-.916-.319-1.028-1.462-1.063-1.829a19.974,19.974,0,0,1-.092-2.984c.009-.129.019-.258.031-.388a22.424,22.424,0,0,0-1.121-3.025,17.04,17.04,0,0,0-1.912-3.419,17.76,17.76,0,0,0-2.055-2.268,5.875,5.875,0,0,0-2.03-1.134A2.353,2.353,0,0,0,422.5,208.444Z" transform="translate(-259.431 -177.348)" fill="#26333b"/>
        <path id="パス_28046" data-name="パス 28046" d="M433.175,182.648a.982.982,0,0,1,.908,1.051c-.079,1.09-.2,2.181-.321,3.237-.089.785-.178,1.569-.256,2.419a13.061,13.061,0,0,0-.151,2.25,7.425,7.425,0,0,0,.283,1.367.982.982,0,0,1-.647,1.229.968.968,0,0,1-.291.044.983.983,0,0,1-.938-.692,9.264,9.264,0,0,1-.365-1.816,14.693,14.693,0,0,1,.16-2.621c.073-.8.163-1.6.254-2.4.119-1.051.238-2.1.314-3.159A.983.983,0,0,1,433.175,182.648Z" transform="translate(-260.876 -177.098)" fill="#26333b"/>
        <path id="パス_28047" data-name="パス 28047" d="M409.31,206.476c.569.105,1.144.187,1.684.241a9.157,9.157,0,0,0,2.051-.085l.55-.075c.481-.068.964-.135,1.443-.165.5-.034,1.016-.028,1.523-.021l.586.006a.982.982,0,0,1,0,1.965l-.612-.006c-.456-.008-.914-.016-1.37.017-.431.028-.866.088-1.3.149l-.549.075a10.9,10.9,0,0,1-1.66.128c-.278,0-.556-.011-.836-.031-.618-.062-1.247-.15-1.87-.266a.982.982,0,1,1,.357-1.932Z" transform="translate(-222.088 -177.514)" fill="#26333b"/>
        <path id="パス_28048" data-name="パス 28048" d="M401.884,207.651a1.985,1.985,0,0,1,.117-.713,1.67,1.67,0,0,1,.942-.988,1.942,1.942,0,0,1,1.87.091,1.822,1.822,0,0,1,.783,1.2c.008.032.017.072.027.124a.979.979,0,0,1-.014,1.127,1.385,1.385,0,0,1-.422.847.806.806,0,0,1-.074.068,3.14,3.14,0,0,1-1.092.588,1.52,1.52,0,0,1-.714.2,1.221,1.221,0,0,1-.67-.205.916.916,0,0,1-.174-.146,2.373,2.373,0,0,1-.653-1.783.955.955,0,0,1,.028-.183C401.856,207.8,401.872,207.726,401.884,207.651Z" transform="translate(-203.519 -177.504)" fill="#26333b"/>
        <path id="パス_28049" data-name="パス 28049" d="M432.567,180.832a2.146,2.146,0,0,1-.509.18.933.933,0,0,0-.151.049,1.422,1.422,0,0,1-.613.145,1.521,1.521,0,0,1-.306-.032l-.113-.019a1.645,1.645,0,0,1-1.462-.978,1.039,1.039,0,0,1-.045-.179,4.142,4.142,0,0,1-.026-1.08,1.644,1.644,0,0,1,.65-1.336,1.58,1.58,0,0,1,1.332-.5.97.97,0,0,1,.693-.027l.483.161a.973.973,0,0,1,.512.394,1.673,1.673,0,0,1,.361.421,1.02,1.02,0,0,1,.053.1,1.925,1.925,0,0,1,.157.924A1.964,1.964,0,0,1,432.567,180.832Z" transform="translate(-258.344 -176.999)" fill="#26333b"/>
        <path id="パス_28050" data-name="パス 28050" d="M448.193,206.428a4.419,4.419,0,0,0,2.011.392c.623.02,1.248.014,1.871.01l.877,0c.479-.017.968-.02,1.45-.04.387-.018.775-.033,1.168-.04a7.017,7.017,0,0,0,1.9-.286.982.982,0,1,1,.556,1.884,8.97,8.97,0,0,1-2.423.366c-.371.006-.742.022-1.111.038-.514.022-1.037.045-1.538.042l-.86,0c-.291,0-.582,0-.868,0-.351,0-.694,0-1.015-.016a6.287,6.287,0,0,1-2.836-.572.982.982,0,1,1,.822-1.784Z" transform="translate(-300.655 -177.514)" fill="#26333b"/>
        <path id="パス_28051" data-name="パス 28051" d="M461.3,206.748a1.649,1.649,0,0,1,1.714-1.408,1.844,1.844,0,0,1,1.473.448,1.121,1.121,0,0,1,.286.548,2.111,2.111,0,0,1,.428,1.442,2.623,2.623,0,0,1-.384,1.333c-.02.03-.04.061-.063.09a1.91,1.91,0,0,1-1.512.737,1.888,1.888,0,0,1-1.163-.4,1.923,1.923,0,0,1-.55-.673.963.963,0,0,1-.068-.187,3.6,3.6,0,0,1-.093-1.248,1.68,1.68,0,0,1-.079-.57A.935.935,0,0,1,461.3,206.748Z" transform="translate(-321.382 -177.496)" fill="#26333b"/>
        <path id="パス_28052" data-name="パス 28052" d="M433.18,227.152a.977.977,0,0,1,1.093.858,12.4,12.4,0,0,1,.088,1.742c0,.326-.022.648-.046.97-.017.246-.035.491-.039.74,0,.321,0,.642,0,.962l0,.492a1,1,0,0,1-.008.121,1.678,1.678,0,0,0,.051.654.982.982,0,0,1-1.89.535,3.6,3.6,0,0,1-.118-1.365l0-.428c0-.333,0-.667,0-1,0-.285.025-.568.045-.851s.04-.55.04-.848a10.69,10.69,0,0,0-.075-1.485A.984.984,0,0,1,433.18,227.152Z" transform="translate(-262.041 -177.879)" fill="#26333b"/>
        <path id="パス_28053" data-name="パス 28053" d="M430.748,240.22a5.379,5.379,0,0,1,.476-.85,2.3,2.3,0,0,1,1.822-1.43.975.975,0,0,1,.973.673l.09.273.111.107a2.41,2.41,0,0,1,.988,2.182,1.915,1.915,0,0,1-.916,1.327,2.136,2.136,0,0,1-1.241.4,2.018,2.018,0,0,1-.36-.03.983.983,0,0,1-.247-.077,4.96,4.96,0,0,1-.906-.539,3.12,3.12,0,0,1-.373-.283,1.381,1.381,0,0,1-.456-1.657C430.723,240.281,430.736,240.251,430.748,240.22Z" transform="translate(-261.264 -178.069)" fill="#26333b"/>
        <path id="パス_28054" data-name="パス 28054" d="M423.512,216.4a21.837,21.837,0,0,1,1.706,2.062c.391.513.76,1,1.162,1.457a.983.983,0,0,1-1.478,1.3c-.447-.511-.855-1.046-1.249-1.564a19.962,19.962,0,0,0-1.55-1.88.983.983,0,0,1,1.409-1.371Z" transform="translate(-244.018 -177.685)" fill="#26333b"/>
        <path id="パス_28055" data-name="パス 28055" d="M442.758,216.273c.2-.2.4-.4.61-.592.148-.141.3-.28.441-.424.252-.253.489-.52.726-.788l.392-.436a.982.982,0,0,1,1.449,1.326l-.371.416c-.262.3-.527.591-.807.871-.157.158-.32.311-.482.465-.185.174-.368.347-.569.553a18.333,18.333,0,0,0-1.613,1.772A.982.982,0,1,1,441,218.212,20.062,20.062,0,0,1,442.758,216.273Z" transform="translate(-282.654 -177.643)" fill="#26333b"/>
        <path id="パス_28056" data-name="パス 28056" d="M423.551,201.2A.982.982,0,0,1,422.4,199.6a14.256,14.256,0,0,0,2.271-2.045.982.982,0,0,1,1.464,1.311A16.2,16.2,0,0,1,423.551,201.2Z" transform="translate(-243.948 -177.354)" fill="#26333b"/>
        <path id="パス_28057" data-name="パス 28057" d="M445.4,201.047a.979.979,0,0,1-.436-.1c-1.259-.625-2.5-1.277-3.735-1.931l-.657-.347a.982.982,0,1,1,.916-1.738l.658.346c1.225.646,2.449,1.292,3.693,1.91a.982.982,0,0,1-.438,1.862Z" transform="translate(-281.67 -177.347)" fill="#26333b"/>
      </g>
      <g id="グループ_4654" data-name="グループ 4654" transform="translate(92.84 39.79)">
        <path id="パス_28058" data-name="パス 28058" d="M344.85,236.562l-.026.007a4.82,4.82,0,0,1-.619.176,1.2,1.2,0,0,1-.579.035.6.6,0,0,1-.486-.628c.016-.223.155-.621.921-.773a2.569,2.569,0,0,1,.707-.035q.678-.209,1.35-.483a6.757,6.757,0,0,0,1.4-.736A5.679,5.679,0,0,0,348.651,233a3.338,3.338,0,0,0,.487-.87c.059-.2.111-.4.155-.6a7.58,7.58,0,0,1,.134-.956.63.63,0,0,1,.063-.168l.091-.164a1.229,1.229,0,0,1,.306-.5.6.6,0,0,1,.941.71l-.132.238c-.07.253-.128.51-.173.772-.015.08-.03.158-.047.238-.007.115-.012.231-.012.347a3.531,3.531,0,0,0,.422,1.32,5.69,5.69,0,0,0,1.028,1.4,3.56,3.56,0,0,0,1.357.857,5.517,5.517,0,0,0,1.387.234c.157-.046.313-.087.466-.128.175-.047.351-.093.519-.145a4.391,4.391,0,0,1,1.311-.215.964.964,0,0,1,.974.493.691.691,0,0,1-.2.775.643.643,0,0,1-.075.06,2.009,2.009,0,0,1-.967.333,12.063,12.063,0,0,1-1.667.023h-.193l-.123.042a6.83,6.83,0,0,0-2.721,2.028,5.6,5.6,0,0,0-1.046,1.722,7.274,7.274,0,0,0-.4,1.634l.041.155a9,9,0,0,1,.319,1.883l.006.063c.023.249.085.91-.467,1.142a.6.6,0,0,1-.23.045.61.61,0,0,1-.2-.032c-.555-.194-.623-.886-.645-1.109a12.175,12.175,0,0,1-.056-1.809c.006-.078.012-.156.019-.235a13.676,13.676,0,0,0-.679-1.834,10.314,10.314,0,0,0-1.159-2.072,10.769,10.769,0,0,0-1.246-1.375,3.572,3.572,0,0,0-1.23-.687A1.227,1.227,0,0,0,344.85,236.562Z" transform="translate(-330.813 -217.713)" fill="#26333b"/>
        <path id="パス_28059" data-name="パス 28059" d="M351.322,220.925a.6.6,0,0,1,.551.637c-.048.661-.123,1.322-.2,1.963-.054.475-.108.951-.155,1.466a7.918,7.918,0,0,0-.091,1.364,4.484,4.484,0,0,0,.171.829.6.6,0,0,1-.392.745.613.613,0,0,1-.177.027.6.6,0,0,1-.569-.42,5.676,5.676,0,0,1-.221-1.1,8.811,8.811,0,0,1,.1-1.589c.044-.486.1-.971.154-1.456.072-.637.143-1.274.191-1.914A.6.6,0,0,1,351.322,220.925Z" transform="translate(-331.689 -217.561)" fill="#26333b"/>
        <path id="パス_28060" data-name="パス 28060" d="M336.857,235.368c.345.065.693.114,1.021.146a5.53,5.53,0,0,0,1.243-.051l.334-.045c.292-.041.584-.082.874-.1s.616-.017.924-.012l.355,0a.6.6,0,0,1,0,1.191l-.371,0c-.276,0-.553-.01-.829.01s-.525.054-.787.09l-.332.045a6.513,6.513,0,0,1-1.007.078c-.168,0-.337-.006-.507-.019-.374-.037-.755-.091-1.133-.161a.6.6,0,0,1,.216-1.172Z" transform="translate(-308.177 -217.813)" fill="#26333b"/>
        <path id="パス_28061" data-name="パス 28061" d="M332.355,236.08a1.214,1.214,0,0,1,.071-.432,1.012,1.012,0,0,1,.571-.6,1.177,1.177,0,0,1,1.134.055,1.1,1.1,0,0,1,.475.727c0,.021.01.044.017.076a.594.594,0,0,1-.009.683.842.842,0,0,1-.256.514.431.431,0,0,1-.044.04,1.9,1.9,0,0,1-.662.357.92.92,0,0,1-.432.12.729.729,0,0,1-.406-.125.54.54,0,0,1-.106-.088,1.438,1.438,0,0,1-.4-1.081.607.607,0,0,1,.017-.111A1.34,1.34,0,0,0,332.355,236.08Z" transform="translate(-296.921 -217.807)" fill="#26333b"/>
        <path id="パス_28062" data-name="パス 28062" d="M350.953,219.824a1.327,1.327,0,0,1-.308.108.663.663,0,0,0-.091.029.851.851,0,0,1-.372.088.919.919,0,0,1-.185-.02l-.069-.011a1,1,0,0,1-.886-.592.71.71,0,0,1-.027-.109,2.561,2.561,0,0,1-.016-.654,1,1,0,0,1,.394-.81,1.014,1.014,0,0,1,.568-.3,1.043,1.043,0,0,1,.24,0,.589.589,0,0,1,.42-.016l.293.1a.586.586,0,0,1,.309.239,1,1,0,0,1,.219.255c.012.021.023.041.032.063a1.167,1.167,0,0,1,.1.56A1.191,1.191,0,0,1,350.953,219.824Z" transform="translate(-330.154 -217.501)" fill="#26333b"/>
        <path id="パス_28063" data-name="パス 28063" d="M360.426,235.339a2.674,2.674,0,0,0,1.218.239c.378.011.756.008,1.134.006l.533,0c.29-.011.587-.012.878-.025.235-.011.471-.021.708-.025a4.224,4.224,0,0,0,1.148-.174.6.6,0,0,1,.338,1.143,5.43,5.43,0,0,1-1.47.222c-.225,0-.449.014-.673.024-.311.013-.629.028-.932.026l-.521,0-.526,0c-.213,0-.421,0-.616-.01a3.8,3.8,0,0,1-1.719-.346.6.6,0,0,1,.5-1.083Z" transform="translate(-355.802 -217.813)" fill="#26333b"/>
        <path id="パス_28064" data-name="パス 28064" d="M368.372,235.534a1,1,0,0,1,1.039-.854,1.117,1.117,0,0,1,.893.271.681.681,0,0,1,.173.333,1.282,1.282,0,0,1,.26.874,1.59,1.59,0,0,1-.234.808c-.012.019-.025.037-.037.054a1.159,1.159,0,0,1-.917.448,1.156,1.156,0,0,1-1.038-.649.577.577,0,0,1-.041-.113,2.2,2.2,0,0,1-.057-.757,1.033,1.033,0,0,1-.047-.346A.554.554,0,0,1,368.372,235.534Z" transform="translate(-368.366 -217.802)" fill="#26333b"/>
        <path id="パス_28065" data-name="パス 28065" d="M351.324,247.9a.592.592,0,0,1,.663.52,7.656,7.656,0,0,1,.054,1.055c0,.2-.014.394-.029.588-.011.148-.022.3-.024.448,0,.2,0,.389,0,.583v.3a.616.616,0,0,1,0,.074,1,1,0,0,0,.031.4.6.6,0,0,1-.411.736.583.583,0,0,1-.163.023.6.6,0,0,1-.573-.433,2.181,2.181,0,0,1-.071-.827l0-.259c0-.2,0-.4,0-.608,0-.172.014-.344.027-.516s.025-.333.025-.513a6.4,6.4,0,0,0-.045-.9A.6.6,0,0,1,351.324,247.9Z" transform="translate(-332.395 -218.035)" fill="#26333b"/>
        <path id="パス_28066" data-name="パス 28066" d="M349.852,255.823a3.217,3.217,0,0,1,.288-.515,1.392,1.392,0,0,1,1.105-.868.592.592,0,0,1,.589.408l.055.166.068.065a1.462,1.462,0,0,1,.6,1.322,1.163,1.163,0,0,1-.555.8,1.294,1.294,0,0,1-.752.241,1.256,1.256,0,0,1-.218-.019.617.617,0,0,1-.15-.046,3,3,0,0,1-.548-.327,1.841,1.841,0,0,1-.227-.172.836.836,0,0,1-.276-1C349.837,255.861,349.843,255.842,349.852,255.823Z" transform="translate(-331.925 -218.149)" fill="#26333b"/>
        <path id="パス_28067" data-name="パス 28067" d="M345.465,241.384a13.358,13.358,0,0,1,1.034,1.25c.237.311.461.606.7.884a.6.6,0,0,1-.9.785c-.27-.309-.518-.634-.756-.948a12.162,12.162,0,0,0-.939-1.14.6.6,0,1,1,.854-.831Z" transform="translate(-321.47 -217.917)" fill="#26333b"/>
        <path id="パス_28068" data-name="パス 28068" d="M357.131,241.307c.12-.123.245-.241.369-.36.09-.084.181-.169.267-.256.153-.153.3-.315.44-.477l.239-.265a.6.6,0,0,1,.877.8L359.1,241c-.159.18-.319.359-.488.529-.1.1-.195.189-.293.281s-.224.211-.345.336a11.093,11.093,0,0,0-.978,1.074.6.6,0,1,1-.932-.742A12.235,12.235,0,0,1,357.131,241.307Z" transform="translate(-344.891 -217.892)" fill="#26333b"/>
        <path id="パス_28069" data-name="パス 28069" d="M345.489,232.168a.6.6,0,0,1-.7-.966,8.63,8.63,0,0,0,1.376-1.239.6.6,0,1,1,.887.794A9.755,9.755,0,0,1,345.489,232.168Z" transform="translate(-321.428 -217.716)" fill="#26333b"/>
        <path id="パス_28070" data-name="パス 28070" d="M358.73,232.078a.583.583,0,0,1-.264-.063c-.762-.378-1.513-.773-2.265-1.17l-.4-.209a.6.6,0,1,1,.555-1.054l.4.21c.743.392,1.484.783,2.239,1.157a.6.6,0,0,1-.266,1.129Z" transform="translate(-344.294 -217.712)" fill="#26333b"/>
      </g>
    </g>
  </g>
</svg>
