<svg xmlns="http://www.w3.org/2000/svg" width="446.44" height="19.215" viewBox="0 0 446.44 19.215">
  <g id="グループ_4505" data-name="グループ 4505" transform="translate(131.588 0.311)">
    <g id="グループ_4508" data-name="グループ 4508" transform="translate(-161.587)">
      <path id="パス_27500" data-name="パス 27500" d="M2998.714,1219.1c1.373-1.039,5.177.521,6-.844,1.549.014,1.944.37,3,0,2.236.161-.036,1,2.5.844.989,2.346-3.188,2.7-8.005,2.745-13.72.119-28.516,1.758-40.026,1.267-.586.034-.422.385-.5.634-5.5-.119-9.992.586-15.009-.211-1.058,1.038-6.752.394-6.5.844-.485-.006-.388-.258-.5-.422-3.923.458-8.437.254-12.508.634-3.418.318-7.342.078-11.507.211-5.128.163-10.255.2-15.509.422-.436.018-.93-.425-1-.422-6.9.217-16.366,1.055-24.516.633.6.277.2.332,0,.634-.586-.034-.421-.385-.5-.634-3.726.8-16.26.916-20.013.634.038.386-6.114.663-9,.211,2.278.595-8.749.874-11.008.634-3.284.867-13.971-.563-20.012.422-.365-.664-.071-.086-2,0-8.444.376-25.165.465-31.519.633-2.871.076-8,.4-10.006-.422.943,1.1-5.041.488-6.5.422-2.143-.1.427.6-2,0a2.954,2.954,0,0,1,3.5-.633c.976-.7,9.863-1.592,14.008-1.056,7.241-1.363,16.769-.533,23.515-1.9,6.245.654,12.076-.356,17.511-.422,1.194-.015,2.395.425,3.5.422,7.4-.018,13.215-.686,19.512-1.056.182-.011,12.63-.6,11.507.422.295-1.742,5.654-.441,10.006-.634,3.076-.136,12.185-1.042,16.51-.633.315-.36,1.511-.347,2-.634,1.16.059,1.149.564.5.845,5.558-.769,12.525-1.241,17.009-.633-.275-.978,5.9-.094,9.007-.633-.265.17-.522.343-.5.633.381-.145,1.585-.89,1.5,0,2.039-.607,4.824-.54,7.005-.844,1.758-.246.887.083,2.5.211,6.163.491,14.214-.7,20.514-.634.278,0,1.1.426,1.5.422,1.821-.019,3.294-.544,5-.422,1.955.139,1.61.73,2-.211.467.7,2.636-.157,3.5.634a4.374,4.374,0,0,1,2.5-.211c.474-.445,2.9-.46,2-.211,4.42-1.228,11.815-.011,18.511-1.056,1.49.247-1.641.262-1.5.634.96.322,2.676-.833,5.5-.422,2.894-1.189,4.9-.455,10.006-.633,2.012-.07,3.822-.575,5-.634A28.254,28.254,0,0,1,2998.714,1219.1Z" transform="translate(-2533.928 -1218.259)" fill="#26333b" fill-rule="evenodd"/>
      <path id="パス_27501" data-name="パス 27501" d="M2920.476,1249.869c3.467-.474,7.729-1.146,10.006-.211-3.264-.868,4.476-1.173,3.5-.422,1.009-.491,4.22-1.069,5.5-.211-1.5-1.13,11.656-1.094,11.007-1.267.631-.612,1.9.024,2.5,0,7.2-.3,13.993-1.467,21.013-1.689,5.316-.168,10.769.294,16.01.211,3.816-.06,7.606-.69,9,.211-.559.26-.436.434.5.422-1.43.329-.305.417-.5,1.267-8.885,1.377-18.019.073-26.516.423-2.544.1-13.612,1.84-16.01.422-1.016-.065.1.61.5.634-11.555.353-22.526,2.386-33.02,1.689-.945.023-.347.7-1.5.634-13.494.294-27.976-.129-35.521-.211-.438,0-.911.423-1,.422-.83-.009.192-.409,0-.422-1.882-.132-10.971.781-11.507,0-8.332.477-25.812.585-35.521.211,1.3.368-.81.74-.5,0a19.992,19.992,0,0,1-7.5,0c-1.638.782-5.547-.5-9.006.422-.72-.048-.174-.63-1-.633-1.739,1.18-9.248.131-12.008.844-1.6-.77-.24-1.225-2-1.689-.809-.059-.861.2-1.5.211.172.814.052,1.75,2,1.267-1.679.519-6.862.742-9.006,0-.187.484-2,.282-2.5.634-.728-.094.052-.185,0-.422-12.964.917-24.438,1.628-42.026,2.745.082-.245-.11-.376-.5-.422,4.073-2.76,16.825-2.439,25.516-3.8.728.094-.051.185,0,.422,15.133-1.274,30.575-1.914,49.531-2.111a46.266,46.266,0,0,1,9.506.633c.567-.04.277-.212,0-.211a168.177,168.177,0,0,1,20.012-.211,152.077,152.077,0,0,1,20.512.211c7.237-.986,16.517-.041,23.014-.422v.633c3.691-.9,10.873-.419,12.509-.422C2915.893,1249.655,2919.073,1249.191,2920.476,1249.869Z" transform="translate(-2529.736 -1239.945)" fill="#26333b" fill-rule="evenodd"/>
      <path id="パス_27502" data-name="パス 27502" d="M2414.042,1249.6c.375.441,7.72-.228,8.506.634.637-.294,2.451-.092,2.5-.634.415.758,1.891-.252,2,.634,4.94-.94,15.329-.551,21.512-.422.586-.034.422-.385.5-.634a49.26,49.26,0,0,0,9.006,0c1,.338.074,1.321,1.5,1.478-1.032,1.077-4.284,2.208-6,1.267-1.13.118.606.329-.5.634-13.921-.287-24.49.592-40.525.422-.009,0,.006-.389,0-.422-5.533,0-10.339.851-15.51-.211-20.575.979-32.383.01-46.028,1.267-1.6.181-1.548-.332-2.5-.422-.081.245.111.376.5.422-8.322.548-20.308,1.085-27.518-.422a58.077,58.077,0,0,1,12.508-1.056c1.577.08,1.637.187,1.5.211,3.253-.581,10.045-.825,15.009-1.056,2.327-.108,4.485-.827,6.5,0-.982-.72.472-.824,1-.211a43.824,43.824,0,0,1,13.509-.422c.586-.034.422-.385.5-.633.877-.058,2.5.595,3,0,.428.383,1.289.582,1.5,1.056,1.5-.139-.478-.451,0-.845.574.253,1.269.082.5,0,2.431-.421,5.981.122,9.506-.422-.094.171-.5.21-.5.422,2.492-.46,2.87-.189,5,0,2.084-.516,6.287-.319,12.508,0C2405.153,1249.329,2409.235,1250.555,2414.042,1249.6Z" transform="translate(-2291.485 -1242.42)" fill="#26333b" fill-rule="evenodd"/>
      <path id="パス_27504" data-name="パス 27504" d="M2438.748,1271.039c.567.04.278.212,0,.211.982.783,5.41-1,6,.211,2.411-.507,4.092-.069,6.5-.634-1.965.229,2.809.5,4.5.422,3.817-.167,6.931-1.222,9.506,0,.961,1.343-1.742,1.084-2,1.9-10.281.38-18.061,1.2-28.018.211-2.337.635-10.533,1.2-11.006.634-8.878.795-28.232-.113-41.526.211.211-.441-.343-.559-.5-.844-.4.024-1.516.7-.5.634-.642-.012-3,.477-3-.211-8.15.888-19.312.149-26.015.422-3.15.129-7.324.9-11.007,1.056-3.632.158-9.661.869-11.507-.845,6.083-.808,13.306-1.992,19.511-1.267.672-.139.932-.451,1-.844,2.037.327,7.919-.336,12.508-.422,21.941-.413,44.456.032,63.54.211,1.554-.577,4.406-.625,5.5-.844.63.052.5.42,0,.422C2433.42,1271.563,2436.834,1271.1,2438.748,1271.039Z" transform="translate(-2295.677 -1259.215)" fill="#26333b" fill-rule="evenodd"/>
    </g>
    <g id="グループ_4509" data-name="グループ 4509" transform="translate(-47 -2)">
      <path id="パス_27505" data-name="パス 27505" d="M2679.858,1230c.121.371-.256,1.241.211,1.267-.155.376-.384.031-.633,0a5.846,5.846,0,0,1,.633,2.323c-.3-.018-.6-.035-.633.211-1.243-.982-1.366-1.965-1.9-3.8.277.253.333.082.633,0-1.383-.7-.584-2.978,0-4.012h1.056c-.034.245.047.376.211.422-.311.485.125,2.213.423,3.167C2679.468,1229.817,2678.829,1229.659,2679.858,1230Z" transform="translate(-2599.621 -1224.299)" fill="#26333b" fill-rule="evenodd"/>
      <path id="パス_27503" data-name="パス 27503" d="M2693.311,1259.781c1.639-.332,3.7-1.272,5.7-1.056-.055.618.477.649.422,1.267a.578.578,0,0,1-.845,0C2700.294,1260.881,2692.618,1262.436,2693.311,1259.781Z" transform="translate(-2612.018 -1249.857)" fill="#26333b" fill-rule="evenodd"/>
      <path id="パス_27506" data-name="パス 27506" d="M2656.5,1269.514c-.482,2.312-3.56,1.525-5.279,1.689-1.131.108-2.24.653-3.167-.211.831-2.229,4.261-2.965,6.123-2.323-.006,0-.25.416-.211.422C2654.558,1269.191,2655.758,1268.668,2656.5,1269.514Z" transform="translate(-2576.69 -1257.478)" fill="#26333b" fill-rule="evenodd"/>
      <path id="パス_27507" data-name="パス 27507" d="M2690.936,1281c1.442.539.113,2.542-.211,4.223-1.6-.487-1.762-2.788-1.055-3.59-1.176-.888,0-2.681,0-3.8.445-.188.624-.643,1.267-.633C2691.325,1278.32,2691.641,1280.1,2690.936,1281Z" transform="translate(-2608.799 -1264.316)" fill="#26333b" fill-rule="evenodd"/>
    </g>
  </g>
</svg>
