<svg xmlns="http://www.w3.org/2000/svg" width="286.793" height="23.701" viewBox="0 0 286.793 23.701">
  <g id="グループ_4504" data-name="グループ 4504" transform="translate(90 -4)">
    <path id="パス_27494" data-name="パス 27494" d="M2548.688,451.968q1.2-.058,1.1.634c1.819-.932,8.539-1.324,9.155-.422.967.188-.544,1.557-.367,1.689-1.9.327-6.143,1.408-8.422.845s-11.158,1.28-14.648.844c-.542-.068.045-.205,0-.422-1.009.432-4.028,1.006-3.662.211a68.244,68.244,0,0,1-12.084.845c-1.384-.042-2.494-.726-3.662-.634-4.681.373-13.409.723-19.042,0-.722.532-3.878.573-5.493,0-3.135,1.094-7.452-.013-9.887.845-.823-.77-5.858.1-6.958,0,.076.007.356-.422.366-.422-1.527.044-4.485.313-5.493.844-3.221-.686-9.676,1.106-14.648.422-2.741.369-7.521,1.727-9.888.633-4.979,1.759-6.712.462-10.986,1.689-.543-.092.145-.27,0-.634a38.589,38.589,0,0,1-11.352,1.478c-2.563,1.1-12.927.988-17.943,1.9a.78.78,0,0,1-.366-.633,1.725,1.725,0,0,1-1.831.211c.172.585-3.433.666-3.3-.211-.33.372-.029.476-1.465.211a21.862,21.862,0,0,1,9.521-.845c5.5-1.252,12.576-2.154,19.042-2.956,2.06-.256,4.424.032,6.226-.211,1.482-.2,3.878-1.54,5.126-.422,2.793-.853,6.079-1.6,9.155-.845.429-.034.309-.385.366-.633.624-.078.691.165.733.422.45-.092.752-.27.732-.633,6.707-.008,17.186-1.883,23.8-1.267-.01-.205-.448-.164-.733-.211,10.328-.193,22.771-1.137,29.662-.422,2.822-.327,6.091-.861,7.691.211.746-.937,1.495-.3,3.3-.634-.3.6.516.547.366,1.056.373-.137.379-.485,1.1-.422-.238-.215-.842-.218-.732-.634,1.372.085,1.9.261,2.2.211a17.088,17.088,0,0,1,3.3,0C2528.287,453.569,2539.18,452.9,2548.688,451.968Z" transform="translate(-2484.882 -440.103)" fill="#26333b" fill-rule="evenodd"/>
    <path id="パス_27495" data-name="パス 27495" d="M3020.249,453.314c-.679.773-.2.865-1.465,1.9-.985.146-.708-.436-1.1-.633-3.062.507-6.309.953-9.521,0-5.85,1.311-12.8-.32-16.479.844-1.123-.207.421-.563.366-.844-1.234,1.1-5.494.421-5.493.422.319.326-4.277-.076-1.831-.211-.589.033-.469.525-1.1.634-2.915.5-6.787-.4-10.253-.422-2.03-.014-5.776.567-7.325-.211-.393.564-3.077.413-2.2-.211-.917-.036-.889.473-1.465.633-3.707-.856-8.687.493-13.183-.845-1.608.832-4,.036-5.493-.211,1.938-2.707,8.361-1.31,12.085-1.267,2.322.027,4.383-.714,6.225-.634,4.8.21,17.208.1,23.071-.211.652.155.053.384,0,.633.577-.11,1.961-.813,2.563-.211.5-.212-.156-.348.732-.634,4.546.582,12.435-.862,16.479.211,2.56-.493,7.56-1.02,9.521.211,1.059-1.374,5.393-.151,6.225,1.056A.191.191,0,0,1,3020.249,453.314Z" transform="translate(-2823.878 -439.971)" fill="#26333b" fill-rule="evenodd"/>
    <path id="パス_27496" data-name="パス 27496" d="M2526.3,481.68c4.8-1.279,11.467-.608,16.479-1.267,2.3-.038,5.795-.424,8.057,0,1.874-.882,5.26-.5,7.324-.422,1.542.061,3.278-.83,4.394.211,1.618,1.508-1.446,3.811-5.493,2.534-1.633.786-5.786,1.284-7.323,0-1.167,1.239-6.058.646-8.057,1.056-1-.191,1.114-.472,0-.845a.926.926,0,0,0-.733.845c-1.851.386-5.846-.071-6.957.845a6.937,6.937,0,0,0-4.395,0c-.429-.034-.309-.385-.366-.634-.429.034-.309.385-.366.634-.91.274-1.519-.62-1.832,0-.527-.048-.127-.63-.732-.634-.043.614-3.44.749-3.3.211a14.168,14.168,0,0,1-7.69,0c-2.732,1.521-6.962.186-9.521,1.267.128-.844-1.4-.717-2.562,0-5.563-.37-11.825.806-17.578,0-4.559,1.551-7.733-.216-12.085,1.267-2.664-.875-8.5.5-9.521-.422-.731.511-.579.212-1.832.422,1.186-.379-5.62.142-6.958.422-.566-.58-2.008-.412-3.3,0-.792-.925-.732.026-1.465-.634-.429.034-.309.385-.366.634a61.738,61.738,0,0,0-12.45.422c.488-.752-3.757.13-4.028.211-.544-.092.144-.27,0-.634-6.841,1.524-12.449.77-18.31,1.689.069-.171.367-.211.366-.422-.225.062-1.41.525-1.465,0-.277.535-1.4.352-3.3.634a.785.785,0,0,1-.366-.634c-.911.023-1.133.4-1.831,0v.422c.159.313.468-.083,1.1,0-1.916-.16-7.16,1.281-10.986.633-.016,0,.436-.345.366-.422-1.106.375-3.188.624-2.562,0-.7.089-1.577.077-1.465.633-1.164-.622-3.335-.051-5.126-.633-.057-.525.575-.654.732-1.056h1.831v.633c5.855-1.311,14.294-1.731,20.874-1.478,2-.908,3.34-.425,5.859-1.267,2.21.789,10.381-1.4,15.746-.634,1.9-.749,6.67-1.315,9.155-.633,2.478-.51,10.112-1.217,14.282-.422,7.74-1.762,20.229-.006,26.732-1.9a96.167,96.167,0,0,0,15.747-.422c.956.519,5.666-.528,7.324.211,4.206-.913,7.206-1.081,10.62-.211.059-.245-.081-.376-.366-.422C2520.069,482,2524.829,480.658,2526.3,481.68Z" transform="translate(-2480.075 -462.003)" fill="#26333b" fill-rule="evenodd"/>
    <path id="パス_27497" data-name="パス 27497" d="M3012.987,485.942c-.86,0,.134.576.732.422a89.1,89.1,0,0,1-16.113-.422,142.03,142.03,0,0,1-21.972-.211c-10.3.263-23.512-.2-34.423-.633-.424-.312-.424-.532,0-.845-.644.051-.834.363-.731.845-.489-.352-2.075-.071-2.563-.422,1.466-.318-.495-.777.366-1.267,1.821.147,4.8-.373,5.494.422.543-.092-.145-.27,0-.634.021.736,3.056-.127,4.394,0,.44.042.145.633,0,.634.555,0,1.12-.815,1.831-.634,2.833.723,7.846.411,13.184.422,1.781,0,5.984-.513,5.493.422,3.654-.872,9.446-.631,13.549-.211,10.5-1.363,23.167.685,32.958-.845C3018.75,484.354,3016.839,487.017,3012.987,485.942Z" transform="translate(-2820.279 -464.575)" fill="#26333b" fill-rule="evenodd"/>
    <g id="グループ_4507" data-name="グループ 4507" transform="translate(-10 4)">
      <path id="パス_27492" data-name="パス 27492" d="M2879.7,405.751c-1.365-1.1-1.114-3.159-1.689-4.645.225-.2.066-.779.633-.633-.862-.5.015-1.993,1.267-1.689C2880.645,401.514,2881.021,404.1,2879.7,405.751Z" transform="translate(-2771.379 -398.742)" fill="#26333b" fill-rule="evenodd"/>
      <path id="パス_27493" data-name="パス 27493" d="M2900.8,439.2c.756,1.5-3.286.724-3.8,1.056a8.779,8.779,0,0,1-.634-1.267c1.14-.718,2.93-.308,4.435-.211.086.509-.385.459-.211,1.056C2900.839,439.8,2900.77,439.449,2900.8,439.2Z" transform="translate(-2785.724 -429.869)" fill="#26333b" fill-rule="evenodd"/>
      <path id="パス_27498" data-name="パス 27498" d="M2860.825,443.781c-.433.576-2.231,1.386-3.167.422-.713.869-2.089.447-3.8,0C2854.373,440.76,2859.519,441.95,2860.825,443.781Z" transform="translate(-2752.502 -432.55)" fill="#26333b" fill-rule="evenodd"/>
      <path id="パス_27499" data-name="パス 27499" d="M2889.695,463.653c-1.077.3-.9-.646-1.478-.845.221-2.581-.354-3.813,0-6.546.758.175,1.021-.476,1.478,0C2890.761,459.24,2890.16,460.758,2889.695,463.653Z" transform="translate(-2779.261 -443.553)" fill="#26333b" fill-rule="evenodd"/>
    </g>
  </g>
</svg>
