<svg xmlns="http://www.w3.org/2000/svg" width="141.597" height="112" viewBox="0 0 141.597 112">
  <g id="L" transform="translate(0)">
    <path id="パス_28360" data-name="パス 28360" d="M39.753,252.09l0-1.193c0-1.324,0-2.695.094-4.045.116-1.632.335-3.272.548-4.86l.113-.856c.091-.687.177-1.374.264-2.062.271-2.147.549-4.366.948-6.535.2-1.086.5-2.159.784-3.2a26.971,26.971,0,0,0,.948-4.35,4.312,4.312,0,0,1,.258-.8l.328-1.056c.259-.825.517-1.651.746-2.485.169-.609.317-1.225.466-1.84.2-.814.4-1.627.635-2.429.379-1.265.8-2.516,1.223-3.767l.519-1.551a2.885,2.885,0,0,1,.116-.28l.442-1.053q.771-1.861,1.535-3.725a1.787,1.787,0,0,0,.079-.283,2.486,2.486,0,0,1,.152-.5l.392-.875c.4-.908.822-1.847,1.314-2.738a8.111,8.111,0,0,1,.815-1.147,4.516,4.516,0,0,0,.875-1.382l.04-.1a18.289,18.289,0,0,1,6.083-6.6,6.606,6.606,0,0,1,5.572-.355,29.977,29.977,0,0,1,2.916,1.422,9.265,9.265,0,0,1,2.095,1.622c.706.761,1.348,1.591,1.969,2.393l1.158,1.466c.578.718,1.176,1.46,1.721,2.259a55.684,55.684,0,0,1,4.322,8.767c.831,1.843,1.5,3.785,2.154,5.662.283.818.566,1.636.858,2.432a53.669,53.669,0,0,1,1.9,5.577c.251,1.045.579,2.1.894,3.118.228.736.455,1.472.66,2.213.243.881.425,1.784.6,2.659l.1.474c.074.364.129.731.183,1.1.037.248.073.5.117.746.108.6.228,1.205.349,1.807.248,1.247.506,2.536.647,3.829.418,3.843.73,7.071.886,10.33a70.878,70.878,0,0,1-.209,11.252,13.23,13.23,0,0,1-.185,1.829l-.315,1.243c-.508,2.01-1.032,4.087-1.661,6.072a9.983,9.983,0,0,1-3.129,5.1c-.64.5-1.32.96-1.978,1.4-.609.409-1.24.831-1.828,1.286A17.4,17.4,0,0,1,73.435,281a58.441,58.441,0,0,1-6.376,1.5c-.046.368-.075.737-.087,1.088.05,2.385.109,4.77.2,7.153.06,1.512.139,3.134.3,4.76.2,1.979-.225,2.547-2.161,2.9a3.943,3.943,0,0,1-.91.047,12.564,12.564,0,0,0-1.683.065c-.468.039-.94.078-1.419.078a5.525,5.525,0,0,1-2.094-.362l-.02,0-.062,0c-1.907-.138-2.452-.746-2.333-2.6.1-1.662.264-3.295.393-4.532.135-1.293.28-2.584.425-3.874.124-1.095.246-2.189.361-3.262q.025-.379.015-.76l-.033-.021a2.363,2.363,0,0,0-.417-.1,14.264,14.264,0,0,1-5.824-2.007,27.338,27.338,0,0,1-4.032-2.8,40.523,40.523,0,0,1-3.767-4.171,10.584,10.584,0,0,1-1.468-2.347,26.013,26.013,0,0,1-1.932-6.427,31.82,31.82,0,0,1-.781-5.908c.019-1.433.016-2.866.012-4.3C39.75,254.109,39.748,253.1,39.753,252.09Zm25.274,40.332c-.055-.969-.11-1.936-.156-2.9l-.067-1.337c-.081-1.566-.165-3.185-.165-4.786,0-1.239.048-2.493.093-3.707.043-1.109.085-2.22.093-3.335.012-1.751-.076-3.514-.169-5.115a16.759,16.759,0,0,1,.241-6.161,3.142,3.142,0,0,1,1.231-1.781,28.581,28.581,0,0,0,3.145-2.289l.092-.061a7.416,7.416,0,0,0,1.872-1.389c.068-.11.134-.225.2-.341l-.136.039c-.562.163-1.127.326-1.7.479a19.314,19.314,0,0,0-3.866,1.4l-.154.047a1.485,1.485,0,0,1-1.339-.494,2.89,2.89,0,0,1-.7-2.385,21.75,21.75,0,0,0,.076-6.9,5.347,5.347,0,0,1-.014-1,53.253,53.253,0,0,0-.416-8.171c-.021-.205-.039-.411-.054-.62-.206,1.058-.4,2.121-.56,3.144a10.5,10.5,0,0,0,.144,2.163,3.552,3.552,0,0,1-.042,1.157c-.132.495-.3,1.111-.791,1.289-.618.217-1.368-.353-1.513-.47-.79-.634-1.563-1.289-2.338-1.944l-.226-.19.436.59c.563.761,1.146,1.547,1.676,2.356.7,1.068,1.323,2.2,1.925,3.3l.3.541a2.167,2.167,0,0,1,.254,1.178c-.068.841-.152,1.683-.237,2.524-.092.925-.185,1.849-.258,2.774-.094,1.211-.169,2.424-.242,3.636-.05.819-.1,1.637-.156,2.455-.018.273-.056.544-.094.815-.036.255-.072.509-.088.766q-.14,2.035-.268,4.07-.126,1.944-.256,3.89l-.108,1.606c-.131,1.981-.262,3.962-.437,5.938-.076.836-.194,1.666-.313,2.5-.1.665-.191,1.331-.264,2-.248,2.315-.46,4.635-.671,6.953l-.018.194a7.089,7.089,0,0,0-.009.83v.045c1.666.874,3.322.622,5.072.353.365-.056.731-.111,1.1-.157l0-.027a5.179,5.179,0,0,0,.029-.661C65.131,294.29,65.078,293.356,65.027,292.423Zm-6.811-11.8.076-.789c.091-.94.178-1.856.254-2.774.114-1.4.221-2.809.3-4.216.029-.517.035-1.036.042-1.553,0-.363.008-.724.019-1.087l.013-.478a15.506,15.506,0,0,1,.1-1.691,52.248,52.248,0,0,0,.6-7.988,23.168,23.168,0,0,1,.311-4.332,3.749,3.749,0,0,0-.656-2.708,38.176,38.176,0,0,0-3.329-5.045,9.038,9.038,0,0,1-1.366-2.467,1.974,1.974,0,0,1,.151-1.646l.109-.139a1.4,1.4,0,0,1,1.946-.113q1.509,1.063,3.025,2.11c.155.106.314.208.491.319,0-.042,0-.082.007-.119a31.738,31.738,0,0,1,.534-5.011c.354-1.373.571-2.8.782-4.173.1-.641.2-1.282.308-1.92l.034-.223c.079-.543.21-1.452,1.164-1.6,1.306-.191,1.562,1.175,1.655,1.694.25,1.486.411,2.971.552,4.365.181,1.778.367,3.671.5,5.557.1,1.432.2,3.124.187,4.828,0,.457-.015.914-.03,1.37a24.208,24.208,0,0,0,.033,2.956,32.023,32.023,0,0,1,.061,3.618c-.007.351-.014.71-.019,1.077.222-.067.44-.136.653-.2.876-.273,1.7-.529,2.527-.746a18,18,0,0,1,3.086-.6,1.8,1.8,0,0,1,1.721.682,1.969,1.969,0,0,1,.039,1.976,7.174,7.174,0,0,1-2.637,2.906c-1.624,1.116-2.889,2.065-3.936,2.942a2.04,2.04,0,0,0-.526,1.241,34.11,34.11,0,0,0-.059,7.215,25.271,25.271,0,0,1,.046,2.833c-.011.486-.022.973-.017,1.459,0,.311.03.622.055.932.017.216.036.43.044.735a.268.268,0,0,0,.02.137.261.261,0,0,0,.147.14.375.375,0,0,0,.284-.032A13.728,13.728,0,0,1,69.1,279.8a6.194,6.194,0,0,0,2.839-.838,1.139,1.139,0,0,1,.455-.187,15.031,15.031,0,0,0,5.556-2.537c.661-.417,1.322-.833,1.988-1.205a6.613,6.613,0,0,0,1.687-1.43,12.233,12.233,0,0,0,2.921-5.873,18.371,18.371,0,0,1,.486-1.86,17.108,17.108,0,0,0,.459-1.746c.165-.873.269-1.783.369-2.662.064-.553.127-1.106.2-1.643a58.206,58.206,0,0,0,.229-10.586c-.057-1.417-.263-2.864-.46-4.265-.1-.721-.2-1.44-.287-2.162-.055-.479-.1-.959-.142-1.439-.055-.617-.11-1.235-.192-1.848-.153-1.128-.326-2.25-.5-3.372l-.264-1.731c-.03-.2-.05-.394-.073-.592a7.269,7.269,0,0,0-.143-.949c-.34-1.414-.71-2.818-1.09-4.22-.185-.684-.358-1.373-.531-2.062a48.173,48.173,0,0,0-1.385-4.8c-.392-1.068-.77-2.142-1.149-3.216a82.181,82.181,0,0,0-4.47-10.952c-.353-.67-.665-1.36-.98-2.049a19.3,19.3,0,0,0-2.072-3.786,29.731,29.731,0,0,0-4.5-5.2,21.2,21.2,0,0,0-3.123-2.093,4.128,4.128,0,0,0-4.789.369,12.631,12.631,0,0,0-1.411,1.26c-.364.359-.729.718-1.118,1.042a10.461,10.461,0,0,0-2.3,3.17c-.3.543-.61,1.1-.954,1.622a35.932,35.932,0,0,0-3.645,7.85c-1.419,4-2.5,7.331-3.408,10.488-.583,2.027-1.069,4.125-1.541,6.153-.271,1.166-.542,2.333-.831,3.492-.141.572-.313,1.135-.485,1.7-.2.652-.407,1.326-.553,1.992-.194.882-.3,1.812-.407,2.712l-.149,1.251c-.419,3.46-.839,6.919-1.225,10.366a22.8,22.8,0,0,0-.058,2.5c0,.934-.014,1.869-.028,2.8-.029,2.188-.059,4.449.067,6.663a30.767,30.767,0,0,0,2.152,10.084,11.227,11.227,0,0,0,2.637,4.094,4.647,4.647,0,0,1,.692.794,14.449,14.449,0,0,0,4.93,4.021l.477.284a10.068,10.068,0,0,0,5.158,1.42Z" transform="translate(52.899 -187.638)" fill="#26333b"/>
    <g id="グループ_4816" data-name="グループ 4816">
      <path id="パス_28374" data-name="パス 28374" d="M180.283,241.569c.139-1.079.282-2.2.468-3.293.223-1.307.515-2.618.8-3.886.12-.534.238-1.066.347-1.573a15.652,15.652,0,0,1,.431-1.9c.588-1.683,1.191-3.359,1.794-5.037q.577-1.6,1.15-3.207c.08-.226.142-.459.2-.692a6.913,6.913,0,0,1,.371-1.123c.21-.453.413-.907.617-1.362a47.252,47.252,0,0,1,2.238-4.539c1.329-2.274,2.815-4.492,4.254-6.636l.676-1.009c.7-1.052,1.432-2.081,2.163-3.113.6-.847,1.2-1.7,1.788-2.556.976-1.434,1.94-2.878,2.906-4.32.932-1.393,1.864-2.787,2.816-4.186a28.535,28.535,0,0,1,4.248-4.664,2.144,2.144,0,0,1,1.825-.735,5.052,5.052,0,0,1,2.332.684,24.173,24.173,0,0,1,3.311,3.211,21.464,21.464,0,0,1,1.786,2.841l1.164,1.915q1.109,1.826,2.228,3.646c.395.636.8,1.266,1.2,1.894.642,1,1.3,2.034,1.917,3.082.744,1.274,1.5,2.707,2.31,4.415a30.277,30.277,0,0,0,2.795,5.435,10.532,10.532,0,0,1,1.206,2.048l.429.965c1.011,2.277,2.056,4.631,2.988,6.974a56.21,56.21,0,0,1,2.59,7.338,95.765,95.765,0,0,1,2.394,10.03c.124.941.289,1.879.454,2.816a28.929,28.929,0,0,1,.646,6.842,1.512,1.512,0,0,0,.057.319,17.3,17.3,0,0,1,.311,2.165c.02.759.015,1.519.01,2.279-.007,1.044-.015,2.124.051,3.2a16.583,16.583,0,0,1-1.117,6.149,19.214,19.214,0,0,1-2.175,4.538,12.736,12.736,0,0,0-.634,1.156,7.9,7.9,0,0,1-1.543,2.3c-.378.358-.729.746-1.078,1.135l-.443.487a18.942,18.942,0,0,1-7.932,5.191c-.514.171-1.016.38-1.518.59l-.43.179c-.4.161-.787.331-1.18.5-.7.3-1.425.616-2.163.88-1.222.437-2.456.837-3.738,1.254l-1.352.441c-.012.372-.028.742-.043,1.11-.043,1.085-.088,2.2-.083,3.3.008,1.623.1,3.279.185,4.88.013.23.043.513.076.828.149,1.412.354,3.345-.488,4.316a3.013,3.013,0,0,1-2.261.654c-.413,0-.826-.026-1.2-.049-.22-.012-.416-.026-.573-.029a25.18,25.18,0,0,1-3.892-.365,2.373,2.373,0,0,1-.519-.138,1.688,1.688,0,0,1-.823-.809,3.039,3.039,0,0,1-.29-1.609c.067-.686.14-1.373.213-2.059.136-1.289.272-2.577.369-3.868.063-.829.092-1.66.122-2.492.032-.893.062-1.786.134-2.675l.012-.15a3.43,3.43,0,0,0,.025-.625,2.955,2.955,0,0,0-.591-.286,40.318,40.318,0,0,1-3.868-1.588c-1.039-.555-2.047-1.189-3.021-1.8-.627-.394-1.254-.789-1.887-1.162a27.654,27.654,0,0,1-5.324-3.99c-.317-.308-.64-.609-.963-.91l-.495-.463a21.159,21.159,0,0,1-4.73-6.835,20,20,0,0,0-.9-2.261,21.148,21.148,0,0,1-2.049-5.121,22.78,22.78,0,0,1-1.4-5.835c-.032-.939-.1-1.88-.164-2.82a31.866,31.866,0,0,1,.055-7.342C180.038,243.485,180.161,242.528,180.283,241.569Zm31.842,38.268a63.582,63.582,0,0,0-.323-7.81c0-.619.026-1.231.05-1.838a24,24,0,0,0-.008-3.153,3.238,3.238,0,0,1,.055-1.256c.284-.937,1.439-1.4,2.457-1.8a7.367,7.367,0,0,0,.9-.4,9.973,9.973,0,0,0,2.757-2.318,7.13,7.13,0,0,0,.926-1.384c.025-.12.046-.239.06-.359a.206.206,0,0,0-.021.026,5.186,5.186,0,0,1-2.936,1.941,22.278,22.278,0,0,0-2.281.975c-.36.165-.715.347-1.044.516l-.576.293-.186-.048a1.7,1.7,0,0,1-1.274-1.922l.063-1.352c.074-1.561.149-3.176.149-4.771a36.476,36.476,0,0,0-.263-5.327,3.833,3.833,0,0,1,2.115-4.346,6.319,6.319,0,0,0,2.161-1.972,14.168,14.168,0,0,1,1.319-1.524c.31-.324.619-.649.886-.971a4.343,4.343,0,0,0,.584-1.076c.006-.034.01-.067.014-.1q-.1.012-.2.031a1.216,1.216,0,0,0-.354.272c-.309.279-.613.562-.919.846-.658.61-1.338,1.242-2.113,1.862a5.765,5.765,0,0,1-1.609.661,2.29,2.29,0,0,0-.288.169,1.352,1.352,0,0,1-1.192.312.953.953,0,0,1-.565-.677,10.417,10.417,0,0,1-.495-2.516,16.463,16.463,0,0,1-.293-3.548,11.126,11.126,0,0,0-.385-2.794,17.551,17.551,0,0,1-.365-1.989q.067,1.665.145,3.329c.084,1.86.167,3.72.234,5.6a17.614,17.614,0,0,1-.171,2.521,1.21,1.21,0,0,1-.106.446,1.18,1.18,0,0,1-1.514.622,1.165,1.165,0,0,1-.445-.239,12.449,12.449,0,0,0-1.724-1.259,9.457,9.457,0,0,1-2.6-2.173,2.113,2.113,0,0,0-1.109-.908,3.408,3.408,0,0,0,.748,1.046,35.233,35.233,0,0,0,4.749,4.493,2.582,2.582,0,0,1,1.111,2.234c-.038,2.562-.034,4.692.01,6.7.019.86.08,1.719.141,2.579.046.645.092,1.289.12,1.922a11.556,11.556,0,0,1-.061,2.206,1.548,1.548,0,0,1-.689,1.233,1.594,1.594,0,0,1-1.432-.179,17.448,17.448,0,0,1-2.463-1.515c-1.11-.844-2.2-1.721-3.282-2.6q-.748-.606-1.5-1.206l.572.6c1.014,1.057,2.063,2.151,3.142,3.159.752.7,1.565,1.372,2.351,2.02.5.412,1,.824,1.475,1.236a3.6,3.6,0,0,1,1.332,3.142c-.134,1.965-.276,4.289-.327,6.64-.023,1.081,0,2.16.016,3.242.017,1.046.037,2.094.017,3.139-.017,1-.094,2.02-.166,3-.045.6-.09,1.2-.122,1.806-.185,3.419-.355,6.841-.51,10.231a10.049,10.049,0,0,0,.086,1.168c1.148.926,2.392.838,3.83.737.421-.03.853-.06,1.291-.064v-.744c0-1.63-.017-3.262-.032-4.892C212.016,287.847,211.98,283.805,212.125,279.837Zm-4.7-35.449Zm1.146-.22Zm-11.372,10.251Zm.278,24.075c.831.427,1.635.918,2.412,1.393a19.359,19.359,0,0,0,4.569,2.268c.124.037.245.078.368.12s.256.087.387.124l.02.006a10.015,10.015,0,0,0,.2-3.165c.005-.612.013-1.225.02-1.837.026-1.8.05-3.659-.02-5.478a14.985,14.985,0,0,1,.121-2.134,8.413,8.413,0,0,0-.058-3.167l-.049-.2a1.086,1.086,0,0,1-.052-.3,15.519,15.519,0,0,1-2.962-2.472c-.484-.478-.983-.972-1.516-1.423a46.519,46.519,0,0,1-3.832-3.9,3.1,3.1,0,0,1-.432-4.043,1.49,1.49,0,0,1,1.253-.676,1.429,1.429,0,0,1,1.009.407l1.539,1.332c1.3,1.122,2.592,2.246,3.908,3.343a17.593,17.593,0,0,0,1.615,1.147l.306.2a1.621,1.621,0,0,0,.059-1.122,3.8,3.8,0,0,1-.15-1.039l-.025-.539c-.081-1.775-.16-3.55-.216-5.326-.019-.651-.017-1.3-.015-1.956,0-.449,0-.9,0-1.326a2.328,2.328,0,0,0-.9-1.7c-1.805-1.731-3.5-3.473-5.067-5.219a6.038,6.038,0,0,1-1.017-2.224,2.249,2.249,0,0,1,.142-1.473,1.414,1.414,0,0,1,2.466-.566c.544.444,1.073.9,1.6,1.367.545.474,1.089.949,1.65,1.4.591.479,1.208.925,1.827,1.371l.272.2a24.567,24.567,0,0,1,.036-2.461,14.794,14.794,0,0,0-.15-3.852,26.955,26.955,0,0,1-.146-5.537c.008-.639.265-1.72,1.905-1.783h.016a2.2,2.2,0,0,1,2.136,1.7l.24,1.344c.271,1.51.542,3.019.784,4.536a13.679,13.679,0,0,1,.151,2.2,9.951,9.951,0,0,0,.329,2.923,2.3,2.3,0,0,0,.239-.113c.637-.5,1.262-1.018,1.889-1.534.469-.385.938-.771,1.4-1.146a8.214,8.214,0,0,1,1.249-.864,1.536,1.536,0,0,1,1.98.283,7.347,7.347,0,0,1,1.332,1.82l.045.124a2.211,2.211,0,0,1-.357,1.76,25.322,25.322,0,0,1-2.29,2.849c-.729.772-1.51,1.5-2.264,2.213l-.865.813a1.654,1.654,0,0,1-.7.488c-.786.186-.859.621-.859,1.787a102.077,102.077,0,0,1-.048,10.626c.19-.064.388-.13.607-.189a7.408,7.408,0,0,0,4.02-2.312,3.779,3.779,0,0,1,1.269-.916,1.483,1.483,0,0,1,2.275.8,6.942,6.942,0,0,1,.446,1.607,2.531,2.531,0,0,1-.682,2.4,23.643,23.643,0,0,0-1.558,1.957,8.285,8.285,0,0,1-1.442,1.354c-1,.707-2.05,1.363-3.088,2a4.13,4.13,0,0,1-.527.209v14.993a4.978,4.978,0,0,0,2.117-.59l.81-.282c1.328-.462,2.7-.939,4-1.5.453-.2.908-.386,1.364-.578a24.337,24.337,0,0,0,7.349-4.141A19.638,19.638,0,0,0,234.3,269.3a33.813,33.813,0,0,0,2.667-6.658,9.2,9.2,0,0,0,.187-1.106,52.589,52.589,0,0,0-.043-10.035,56,56,0,0,0-.917-6.6c-.164-.914-.327-1.829-.472-2.744-.172-1.085-.383-2.364-.653-3.631a4.572,4.572,0,0,0-.25-.736,5.318,5.318,0,0,1-.3-.9c-.078-.367-.119-.742-.159-1.117a7.939,7.939,0,0,0-.19-1.217c-.2-.75-.473-1.508-.738-2.24-.1-.29-.21-.582-.31-.872l-.559-1.626c-.49-1.425-.977-2.852-1.508-4.261-.268-.709-.6-1.418-.919-2.1-.2-.421-.395-.842-.58-1.269-.163-.374-.312-.753-.462-1.133-.127-.322-.254-.645-.4-.976a18.685,18.685,0,0,0-.788-1.741c-.447-.806-.9-1.6-1.361-2.405-.719-1.254-1.461-2.553-2.149-3.856-.383-.728-.709-1.49-1.024-2.228-.27-.632-.54-1.265-.835-1.856q-.665-1.185-1.476-2.343l-1.354-2.125c-1.128-1.765-2.255-3.53-3.344-5.317-.474-.772-.9-1.577-1.317-2.356-.352-.66-.7-1.319-1.059-1.928a6.053,6.053,0,0,0-1.072-1.161c-.257-.248-.525-.487-.793-.726a14.643,14.643,0,0,1-1.481-1.459,1.065,1.065,0,0,0-.17-.212,1.081,1.081,0,0,0-.769-.306,1.11,1.11,0,0,0-.79.356,23.593,23.593,0,0,0-4.929,6.02,23.268,23.268,0,0,1-1.581,2.227c-.4.518-.8,1.037-1.163,1.578-.762,1.133-1.507,2.279-2.25,3.423-.957,1.474-1.945,3-2.96,4.47-1.769,2.568-3.6,5.223-5.246,7.948a23.767,23.767,0,0,0-1.18,2.328c-.186.4-.372.807-.561,1.187a104.266,104.266,0,0,0-4.752,12.752,31.923,31.923,0,0,0-.724,3.5c-.093.429-.2.857-.318,1.283a16.569,16.569,0,0,0-.469,2.176c-.107.885-.264,1.772-.416,2.63a23.976,23.976,0,0,0-.533,5.187c.034.748.049,1.5.063,2.246.026,1.266.051,2.572.172,3.841a32.194,32.194,0,0,0,.767,4.614,47.116,47.116,0,0,0,3.017,7.967c.478,1.063.957,2.126,1.4,3.187a12.449,12.449,0,0,0,3.52,4.52c1.72,1.506,3.141,2.69,4.456,3.711A14.19,14.19,0,0,0,197.472,278.494Z" transform="translate(-179.642 -187.724)" fill="#26333b"/>
      <path id="パス_28375" data-name="パス 28375" d="M215.039,214.9a3.249,3.249,0,0,1,2.109-1.349,3.206,3.206,0,0,1,2.4.51c1.885,1.065,2.278,2.813,2.422,4.577a3.955,3.955,0,0,1-1.386,3.082,2.27,2.27,0,0,1-1.224.476,4.2,4.2,0,0,0-.432.09l-.083.015a3.224,3.224,0,0,1-.371.02,3.32,3.32,0,0,1-3.242-2.566,2.686,2.686,0,0,0-.336-.7,3.463,3.463,0,0,1-.209-3.514A3.358,3.358,0,0,1,215.039,214.9Zm1.863,2.889a14.122,14.122,0,0,0,.849,1.743.777.777,0,0,0,.871.217.78.78,0,0,0,.438-.416,2.98,2.98,0,0,0-.235-2.872.637.637,0,0,0-1.052-.135l-.089.08A1.9,1.9,0,0,0,216.9,217.79Z" transform="translate(-197.493 -187.15)" fill="#26333b"/>
      <path id="パス_28376" data-name="パス 28376" d="M196.194,220.549l.579-.981.311.015a3.732,3.732,0,0,1,.434.053c.123.019.3.075.341.048,1.35-.793,2.268.125,2.817.675l.293.293c.436.437.888.886,1.272,1.337a2.606,2.606,0,0,1,.285,3.413,8.079,8.079,0,0,0-.463.894,2.9,2.9,0,0,1-4.719.7l-1.088-1.269a3.455,3.455,0,0,1-.729-4.027C195.733,221.32,195.954,220.952,196.194,220.549Zm1.706,2.933a1.73,1.73,0,0,0,.837.892c.3.147.6.312.924.494l.161.089.656-.978a2.69,2.69,0,0,0,.147-.237.466.466,0,0,0-.19-.634,2.982,2.982,0,0,1-.736-.661c-.323-.363-.473-.5-.619-.5a.447.447,0,0,0-.228.086A3.156,3.156,0,0,0,197.9,223.481Z" transform="translate(-158.998 -187.02)" fill="#26333b"/>
      <path id="パス_28377" data-name="パス 28377" d="M224.441,255.958a2.136,2.136,0,0,1,1.963-1.442c.352-.033.7-.073,1.113-.118l.829-.092.154.1a13.125,13.125,0,0,1,2.2,1.868,5.762,5.762,0,0,1,.6,5.9,1.36,1.36,0,0,1-1.006.772c-.088,0-.175.006-.263.006a6.041,6.041,0,0,1-1.61-.223,9.189,9.189,0,0,1-1.579-.79C223.707,260.26,223.486,258.913,224.441,255.958Zm3.2.871a.7.7,0,0,0-.656.573c-.08.19-.149.385-.244.663a.962.962,0,0,0-.081.2,1.162,1.162,0,0,0,.091.891,1.252,1.252,0,0,0,.774.595c.424.205.86.387,1.322.581l.328.138a2.171,2.171,0,0,0,.467-1.715,2.893,2.893,0,0,0-1.692-1.847.591.591,0,0,0-.162-.063A.617.617,0,0,0,227.636,256.829Z" transform="translate(-217.217 -186.243)" fill="#26333b"/>
      <path id="パス_28378" data-name="パス 28378" d="M228.624,239.194a1.5,1.5,0,0,0-.672.019,2.677,2.677,0,0,1-.709.1,2.615,2.615,0,0,1-1.841-.742,5.512,5.512,0,0,1-1.2-6.868,1.748,1.748,0,0,1,1.825-.965,6.036,6.036,0,0,1,5.233,5.572l0,.188c0,.155,0,.35,0,.549a2.41,2.41,0,0,1-.671,1.812A2.478,2.478,0,0,1,228.624,239.194Zm-2.642-3.662c.447,1.105.958,1.487,2.8,1.3a2.208,2.208,0,0,0-.28-2.121l-.072-.143c-.47-.939-.811-1.538-1.639-1.64A2.219,2.219,0,0,0,225.981,235.533Z" transform="translate(-216.116 -186.768)" fill="#26333b"/>
      <path id="パス_28379" data-name="パス 28379" d="M186.97,247.29l-.006-.05,0-.05a10.191,10.191,0,0,1,.145-1.259,2.77,2.77,0,0,1,1.725-2.109,4.171,4.171,0,0,1,3.745.79,4.25,4.25,0,0,1,1.583,3.749c-.028.14-.045.287-.063.44a2.639,2.639,0,0,1-.726,1.773,3.205,3.205,0,0,1-1.146.513,3.566,3.566,0,0,1-1.313.249,3.386,3.386,0,0,1-1.785-.495C187.5,250.092,187.162,248.616,186.97,247.29Zm2.461-.081c.066.13.134.262.193.4.451,1.065.807,1.3,1.759,1.18a.482.482,0,0,0,.285-.214,2.819,2.819,0,0,0-.93-2.587.679.679,0,0,0-.865.288c-.118.212-.217.433-.332.693Z" transform="translate(-141.751 -186.48)" fill="#26333b"/>
      <path id="パス_28380" data-name="パス 28380" d="M207.9,203.8c1.712.714,2.454,2.224,3.106,3.552a2.791,2.791,0,0,1-.466,3.169l-.084.071a9.73,9.73,0,0,1-2.573,1.247l-.092.029-.1-.005a3.334,3.334,0,0,1-2.944-2.306c-.2-.495-.423-.994-.632-1.413a2.542,2.542,0,0,1,.328-3.427A2.91,2.91,0,0,1,207.9,203.8Zm-1.059,4.9a1.331,1.331,0,0,0,.379.253,1.28,1.28,0,0,0,.563-.006l.171-.024c.757-.105.94-.172.995-.563a1.505,1.505,0,0,0-.19-.856,1.645,1.645,0,0,0-1.294-1.016,3.892,3.892,0,0,0-1.577.515.345.345,0,0,0-.062.161A2.223,2.223,0,0,0,206.84,208.7Z" transform="translate(-175.874 -187.371)" fill="#26333b"/>
      <path id="パス_28381" data-name="パス 28381" d="M191.292,263.308a2.547,2.547,0,0,1,3.463-.91,4.773,4.773,0,0,1,2.692,3.8,2.826,2.826,0,0,1-.692,2.6,2.561,2.561,0,0,1-1.814.664,4.138,4.138,0,0,1-.871-.1,5.293,5.293,0,0,1-2.749-1.8,4.951,4.951,0,0,1-.684-1.209l-.055-.138.117-.6c.1-.5.174-.909.249-1.268A2.562,2.562,0,0,1,191.292,263.308Zm2.967,1.51a1.266,1.266,0,0,0-1.146.958,1.354,1.354,0,0,0,1.122,1.254.728.728,0,0,0,.566-.158,1.7,1.7,0,0,0,.339-1.169l0-.1A.856.856,0,0,0,194.259,264.818Z" transform="translate(-148.769 -186.071)" fill="#26333b"/>
    </g>
  </g>
</svg>
