<svg xmlns="http://www.w3.org/2000/svg" width="243.728" height="75.998" viewBox="0 0 243.728 75.998">
  <path id="合体_2" data-name="合体 2" d="M994.829-6600.965l83.5-48.277a28.453,28.453,0,0,1,9.7-3.262c-.311-3.957-.578-7.916-.891-11.871-.149-1.892-.332-3.781-.595-5.661a1.9,1.9,0,0,0-.8-1.211,3.456,3.456,0,0,1-1.588-2.982c-.087-.985.642-1.672,1.793-1.724,2.3-.1,3.383.595,2.441,3.289.746-.076,1.386-.123,2.021-.206,3.014-.4,6.027-.811,9.041-1.211.586-.079,1.176-.129,1.764-.189.722-.075.873.3.72.918-.367,1.5-.714,3.005-1.1,4.5a1.6,1.6,0,0,0,.236,1.461c.516.768.979,1.568,1.432,2.374.3.54,1.573,1.9,1.143,2.584-.307.486-2,.459-2.563.551-2.416.4-4.827.824-7.25,1.181-1.533.224-3.081.378-4.628.494-.677.05-.927.213-.833.96.265,2.091.439,4.194.645,6.293.009.095.027.2.032.3,7.149-.928,14.958.208,20.495,3.409l27.424,15.855,5.288-3.058c8.583-4.961,22.629-4.961,31.212,0l61.366,35.48Zm104.705-66.421c.974,1.372,2,2.7,3.014,4.043-1.012-1.342-2.041-2.671-3.014-4.043a.684.684,0,0,1-.1-.4A.684.684,0,0,0,1099.534-6667.386Zm-11.747-6.73v0Zm-2.7-.147a1.319,1.319,0,0,1,.033-.211A1.305,1.305,0,0,0,1085.091-6674.264Z" transform="translate(-992.965 6676.463)" fill="#d5c770" stroke="rgba(0,0,0,0)" stroke-miterlimit="10" stroke-width="1"/>
</svg>
