<svg id="ol_logo" xmlns="http://www.w3.org/2000/svg" xmlns:xlink="http://www.w3.org/1999/xlink" width="213.507" height="147.561" viewBox="0 0 213.507 147.561">
  <defs>
    <style>
      .cls-1 {
        fill: #fff;
      }

      .cls-2 {
        clip-path: url(#clip-path);
      }
    </style>
    <clipPath id="clip-path">
      <rect id="長方形_1854" data-name="長方形 1854" class="cls-1" width="123.774" height="108"/>
    </clipPath>
  </defs>
  <path id="パス_29261" data-name="パス 29261" class="cls-1" d="M-129.157-6.341l-.794-.2q-.4-.1-.794-.223a1.878,1.878,0,0,1-.719-.422,6.9,6.9,0,0,0-.67-.546q-.248-.347-.521-.719a2.164,2.164,0,0,1-.372-.819q-.1-.446-.174-.893a5.423,5.423,0,0,1-.074-.893q.05-.2.1-.422a4.5,4.5,0,0,1,.124-.446,1.174,1.174,0,0,1,.223-.4q.149-.174.3-.372a11.039,11.039,0,0,1,1.141-.819,4.509,4.509,0,0,1,1.265-.546,7.609,7.609,0,0,1,1.389-.223,10.805,10.805,0,0,1,1.463,0v-.695l-.2-1.29a7.539,7.539,0,0,0-.3-1.24,5.158,5.158,0,0,0-.546-1.141,4.19,4.19,0,0,0-.893-.992,1.873,1.873,0,0,0-.62-.273q-.322-.074-.67-.149a6.051,6.051,0,0,1-.645-.174,2.5,2.5,0,0,1-.6-.3,1.306,1.306,0,0,0-.124-.2.545.545,0,0,1-.1-.223,1.152,1.152,0,0,1-.025-.223v-.248l.248-.5q.1-.05.223-.124a.78.78,0,0,1,.248-.1,1.394,1.394,0,0,1,.273-.025h.3a1.659,1.659,0,0,0,.719.223,2.653,2.653,0,0,1,.719.149,6.264,6.264,0,0,1,.695.3,5.993,5.993,0,0,1,.645.372l.6.6a9.06,9.06,0,0,1,.967,1.389,5.445,5.445,0,0,1,.6,1.563q.174.819.273,1.662t.149,1.786a6,6,0,0,1,1.215.025q.62.074,1.215.1t1.191.025h1.191v-2.084l-.1-1.687a1.361,1.361,0,0,0,.074-.174q.025-.074.05-.174a.551.551,0,0,1,.074-.174,1.626,1.626,0,0,0,.1-.174,1.3,1.3,0,0,0,.2-.124.546.546,0,0,1,.223-.1,1.149,1.149,0,0,1,.223-.025h.248l.5.248a1.921,1.921,0,0,1,.273,1.091,9.087,9.087,0,0,0,.025,1.166q.05.571.05,1.191t.05,1.166a3.929,3.929,0,0,1,.645.05,3.768,3.768,0,0,0,.62.05,4.236,4.236,0,0,1,.645.05,1.185,1.185,0,0,1,.57.248,1.3,1.3,0,0,0,.124.2.546.546,0,0,1,.1.223,1.149,1.149,0,0,1,.025.223v.248l-.248.5a1.3,1.3,0,0,0-.2.124.546.546,0,0,1-.223.1l-.248.05a1.394,1.394,0,0,1-.273.025l-1.538-.149v1.191a6.6,6.6,0,0,1,.05.819v.843a4.435,4.435,0,0,0,.074.819,2.852,2.852,0,0,1,.025.843l-.248.5a1.3,1.3,0,0,0-.2.124.545.545,0,0,1-.223.1,1.15,1.15,0,0,1-.223.025h-.248l-.5-.248a2.925,2.925,0,0,1-.347-1.191q-.05-.645-.05-1.315t-.05-1.315a9.052,9.052,0,0,1,0-1.339h-1.215q-.62,0-1.215-.025t-1.215-.1a6.445,6.445,0,0,0-1.265-.025,6.434,6.434,0,0,1-.124,1.265q-.124.62-.273,1.24a4.727,4.727,0,0,1-.446,1.166,11,11,0,0,1-.645,1.042l-.5.5a2.169,2.169,0,0,1-.422.248q-.223.1-.422.2a1.771,1.771,0,0,1-.446.149A2.524,2.524,0,0,1-129.157-6.341Zm.149-1.984.645-.446a3.735,3.735,0,0,0,.471-.819q.174-.422.322-.868a4.324,4.324,0,0,0,.2-.918,9.235,9.235,0,0,0,.05-.967h-1.538a4.45,4.45,0,0,0-.546.124q-.248.074-.521.174a1.81,1.81,0,0,0-.5.273,1.138,1.138,0,0,1-.521.223v.1l-.3.149-.1.5q.05.248.074.471a4.2,4.2,0,0,0,.074.446.9.9,0,0,0,.2.4.909.909,0,0,1,.2.422,1.9,1.9,0,0,1,.4.273,1.231,1.231,0,0,0,.422.248,3.921,3.921,0,0,0,.471.124,1.771,1.771,0,0,1,.446.149Zm29.279,3.82-.5-.248a.662.662,0,0,0-.124-.174.268.268,0,0,1-.074-.2.492.492,0,0,0-.05-.223.44.44,0,0,1-.05-.2,1.808,1.808,0,0,1,.471-.893,2.557,2.557,0,0,0,.546-.868,3.307,3.307,0,0,0,.2-.992q.025-.521.025-1.067-.05-.2-.124-.422a1,1,0,0,0-.248-.4,2.1,2.1,0,0,1-.3-.372,1.283,1.283,0,0,0-.322-.347,6.8,6.8,0,0,0-.695-.347,1.932,1.932,0,0,0-.769-.149h-1.712a3.914,3.914,0,0,0-.967.223,6.743,6.743,0,0,1-.943.273,4.575,4.575,0,0,0-.918.3,4.339,4.339,0,0,0-.843.5l-.4.347-.6.05-.5-.248a2,2,0,0,1-.174-.322.935.935,0,0,1-.074-.372v-.794q.1-.943.149-1.885t.05-1.935q0-.992.05-1.935a5.4,5.4,0,0,1,.4-1.786,1.3,1.3,0,0,0,.2-.124.546.546,0,0,1,.223-.1,1.15,1.15,0,0,1,.223-.025h.248l.5.248q.1.149.174.273a.568.568,0,0,1,.074.3v.67a9.935,9.935,0,0,0-.124,1.265q-.025.67-.025,1.339t-.025,1.315q-.025.645-.074,1.29h.248q.645-.2,1.265-.4a8.271,8.271,0,0,1,1.265-.3,9.148,9.148,0,0,1,1.389-.1h1.439q.3.1.62.174a3.874,3.874,0,0,1,.62.2,2.8,2.8,0,0,1,.57.322q.273.2.571.4l.149.149.4.446.248.446h.1a1.754,1.754,0,0,1,.347.645q.1.347.174.719a3.912,3.912,0,0,1,.074.769v.794q-.1.446-.174.918a5.038,5.038,0,0,1-.223.893,2.711,2.711,0,0,1-.446.794,4.336,4.336,0,0,0-.5.769h-.1l-.1.149a.778.778,0,0,1-.2.149.97.97,0,0,1-.2.074.922.922,0,0,1-.223.025Zm-2.232-14.982q-.6-.3-1.191-.67t-1.141-.769a11.611,11.611,0,0,0-1.116-.719q-.57-.322-1.166-.67a1.3,1.3,0,0,0-.124-.2.545.545,0,0,1-.1-.223,1.149,1.149,0,0,1-.025-.223v-.248l.248-.5a1.3,1.3,0,0,0,.2-.124.546.546,0,0,1,.223-.1,1.262,1.262,0,0,1,.248-.025h.273q.6.3,1.166.6a7.505,7.505,0,0,1,1.116.719,9.352,9.352,0,0,0,1.116.744,11.614,11.614,0,0,1,1.116.719,1.3,1.3,0,0,0,.124.2.97.97,0,0,1,.124.223.664.664,0,0,1,.05.248v.273l-.248.5a1.3,1.3,0,0,0-.2.124.545.545,0,0,1-.223.1,1.149,1.149,0,0,1-.223.025Zm14.694,12.9a1.361,1.361,0,0,0-.174-.074q-.074-.025-.174-.05a.551.551,0,0,1-.174-.074,1.623,1.623,0,0,0-.174-.1,10.112,10.112,0,0,1-.794-3.125q-.149-1.637-.273-3.324t-.1-3.349q.025-1.662-.025-3.3a1.362,1.362,0,0,0,.074-.174q.025-.074.05-.174a.551.551,0,0,1,.074-.174,1.623,1.623,0,0,0,.1-.174,1.3,1.3,0,0,0,.2-.124.546.546,0,0,1,.223-.1,1.15,1.15,0,0,1,.223-.025h.248l.5.248a10.27,10.27,0,0,1,.3,2.853q-.05,1.463,0,2.952t.174,2.9q.124,1.414.372,2.853h.1A3.568,3.568,0,0,1-86-9.466a5,5,0,0,0,.546-.347,2.8,2.8,0,0,1,.571-.322,1.2,1.2,0,0,1,.645-.074l.5.248a1.3,1.3,0,0,0,.124.2.546.546,0,0,1,.1.223,1.149,1.149,0,0,1,.025.223v.248l-.248.5a7.363,7.363,0,0,1-.843.546,9.529,9.529,0,0,0-.868.546q-.422.3-.868.571A2.211,2.211,0,0,1-87.268-6.589Zm13.3-2.679-.5-.248a5.457,5.457,0,0,1-.422-2.009q-.025-1.067-.1-2.158t-.124-2.133a14.916,14.916,0,0,0-.248-2.084,1.361,1.361,0,0,0,.074-.174q.025-.074.05-.174a.552.552,0,0,1,.074-.174,1.62,1.62,0,0,0,.1-.174,1.3,1.3,0,0,0,.2-.124.546.546,0,0,1,.223-.1,1.15,1.15,0,0,1,.223-.025h.248l.5.248A4.96,4.96,0,0,1-73.2-16.56q.025,1.091.1,2.208t.149,2.183q.074,1.067.124,2.158l-.248.5a1.3,1.3,0,0,0-.2.124.545.545,0,0,1-.223.1,1.15,1.15,0,0,1-.223.025Zm8.691,1.339a5.673,5.673,0,0,1-.893-.174,2.508,2.508,0,0,1-.819-.4q-.372-.273-.744-.571t-.719-.6a4.871,4.871,0,0,1-.6-.843,3.237,3.237,0,0,1-.347-.943,10.037,10.037,0,0,1-.149-1.017,5.746,5.746,0,0,1,0-1.067,10.6,10.6,0,0,1,.446-1.687,6.152,6.152,0,0,1,.794-1.538q.5-.695,1.017-1.389a12.515,12.515,0,0,1,1.166-1.339q.645-.5,1.29-.967a3.5,3.5,0,0,1,1.439-.62,10.555,10.555,0,0,1,1.637-.174q.843-.025,1.687-.025a6.991,6.991,0,0,1,1.488.347q.695.248,1.339.546a6.149,6.149,0,0,1,1.24.769,13.2,13.2,0,0,1,1.141,1.017q.645.794,1.265,1.612a7.12,7.12,0,0,1,.992,1.811,8.708,8.708,0,0,1,.5,2.009,16.992,16.992,0,0,1,.124,2.059q-.1.347-.174.744t-.174.744q-.1.347-.174.744a1.852,1.852,0,0,1-.273.695,1.3,1.3,0,0,0-.2.124.545.545,0,0,1-.223.1,1.15,1.15,0,0,1-.223.025h-.248l-.5-.248a1.3,1.3,0,0,0-.124-.2.546.546,0,0,1-.1-.223l-.05-.248a1.394,1.394,0,0,1-.025-.273q.1-.347.174-.695a5.472,5.472,0,0,1,.2-.695,3.513,3.513,0,0,0,.174-.719,2.992,2.992,0,0,0,0-.769,10.48,10.48,0,0,0-.223-1.587,5.726,5.726,0,0,0-.546-1.488,8.578,8.578,0,0,0-.893-1.339q-.521-.645-1.067-1.24-.347-.3-.719-.571a3.2,3.2,0,0,0-.769-.422,8.263,8.263,0,0,1-.794-.347,2.484,2.484,0,0,0-.843-.248A12.69,12.69,0,0,1-60-16.362q-.273,1.389-.62,2.8A10.988,10.988,0,0,1-61.66-10.88,10.175,10.175,0,0,1-63.4-8.573q-.2.149-.422.3a1.326,1.326,0,0,1-.446.2q-.223.05-.5.1A2.914,2.914,0,0,1-65.281-7.928Zm.546-2.084a5.366,5.366,0,0,0,1.488-2.009A20.363,20.363,0,0,0-62.4-14.4a18.223,18.223,0,0,0,.521-2.431,13.9,13.9,0,0,0,.124-2.505h-.347a3.507,3.507,0,0,0-.943.124,2.508,2.508,0,0,0-.819.4q-.372.273-.744.6t-.719.67a12.047,12.047,0,0,0-.918,1.141,8.754,8.754,0,0,0-.744,1.265,8.565,8.565,0,0,0-.521,1.364,3.7,3.7,0,0,0-.1,1.488q.05.2.1.422a1.825,1.825,0,0,0,.149.422,2.77,2.77,0,0,0,.223.372,1.489,1.489,0,0,0,.322.322q.2.149.422.322a3.491,3.491,0,0,0,.446.3,2.638,2.638,0,0,0,.446.2,1.649,1.649,0,0,0,.521.074Zm32.653,6.1a1.361,1.361,0,0,0-.174-.074q-.074-.025-.174-.05a.551.551,0,0,1-.174-.074,1.622,1.622,0,0,0-.174-.1A2.209,2.209,0,0,1-33.1-5.5a9.841,9.841,0,0,0-.05-1.414q-.074-.67-.1-1.364t-.025-1.389h-.1a4.86,4.86,0,0,1-.744,1.017,9.309,9.309,0,0,0-.819.992q-.372.521-.695,1.042A5.292,5.292,0,0,0-36.151-5.5q-.1.05-.223.124a1.736,1.736,0,0,1-.248.124.664.664,0,0,1-.248.05h-.273l-.5-.248a1.3,1.3,0,0,0-.124-.2.545.545,0,0,1-.1-.223,1.262,1.262,0,0,1-.025-.248V-6.39A8.739,8.739,0,0,1-37.168-7.8,11.635,11.635,0,0,1-36.2-9.119q.546-.645,1.042-1.29a5.8,5.8,0,0,0,.794-1.389h-.893l-1.29.1a1.361,1.361,0,0,0-.174-.074q-.074-.025-.174-.05a.551.551,0,0,1-.174-.074,1.622,1.622,0,0,0-.174-.1,1.3,1.3,0,0,0-.124-.2.545.545,0,0,1-.1-.223,1.15,1.15,0,0,1-.025-.223v-.248l.248-.5a.864.864,0,0,1,.744-.248,2.851,2.851,0,0,0,.843-.025,4.433,4.433,0,0,1,.819-.074h.868l.3.05.248-.05v-.248l-.05-.843A1.361,1.361,0,0,0-33.4-15q.025-.074.05-.174a.551.551,0,0,1,.074-.174,1.621,1.621,0,0,0,.1-.174,1.3,1.3,0,0,0,.2-.124.545.545,0,0,1,.223-.1,1.15,1.15,0,0,1,.223-.025h.248l.5.248a.736.736,0,0,1,.2.347,1.962,1.962,0,0,1,.05.471,3.862,3.862,0,0,0,.025.471,3.346,3.346,0,0,0,.074.4l1.836.05,1.191-.05.5.248a1.3,1.3,0,0,0,.124.2.546.546,0,0,1,.1.223,1.15,1.15,0,0,1,.025.223v.248l-.248.5a2.187,2.187,0,0,1-.5.223,1.893,1.893,0,0,1-.546.074q-.3,0-.57.025t-.571.025l-.546-.05v.1q.347.446.719.868t.719.843q.347.422.67.868a6.928,6.928,0,0,0,.719.843,2.81,2.81,0,0,1,.322.5,2.822,2.822,0,0,0,.3.471,2.821,2.821,0,0,1,.3.471.994.994,0,0,1,.074.6l-.248.5a1.3,1.3,0,0,0-.2.124.546.546,0,0,1-.223.1,1.262,1.262,0,0,1-.248.025h-.273l-.5-.248q-.347-.5-.645-.967a11.022,11.022,0,0,0-.67-.943q-.372-.471-.695-.943a3.209,3.209,0,0,0-.819-.819V-7.73a1.808,1.808,0,0,1,.149.719v.769a5.814,5.814,0,0,0,.05.769,5.814,5.814,0,0,1,.05.769l-.248.5a1.622,1.622,0,0,0-.174.1,1.622,1.622,0,0,1-.174.1.44.44,0,0,1-.2.05A.44.44,0,0,0-32.083-3.91ZM-42.5-4.456-43-4.7a3.2,3.2,0,0,1-.322-1.339q-.025-.744-.025-1.488v-2.927h-.1L-46.37-6.986h-.1l-.149.3a1.3,1.3,0,0,0-.2.124.545.545,0,0,1-.223.1,1.15,1.15,0,0,1-.223.025h-.248l-.5-.248a1.3,1.3,0,0,0-.124-.2.545.545,0,0,1-.1-.223,1.262,1.262,0,0,1-.025-.248v-.273l.4-.645a7.863,7.863,0,0,0,.819-.843l.744-.893.744-.893a7.489,7.489,0,0,0,.67-.943h-1.935l-.5.1a1.362,1.362,0,0,0-.174-.074q-.074-.025-.174-.05a.551.551,0,0,1-.174-.074,1.622,1.622,0,0,0-.174-.1,1.3,1.3,0,0,0-.124-.2.545.545,0,0,1-.1-.223,1.15,1.15,0,0,1-.025-.223v-.248l.248-.5a2.231,2.231,0,0,1,1.067-.322q.57-.025,1.166-.025h2.381v-.471q0-.223.025-.471a2.168,2.168,0,0,1,.1-.471.934.934,0,0,1,.223-.372,1.3,1.3,0,0,0,.2-.124.545.545,0,0,1,.223-.1,1.15,1.15,0,0,1,.223-.025h.248l.5.248a1.3,1.3,0,0,0,.124.2.545.545,0,0,1,.1.223,1.393,1.393,0,0,1,.025.273v.3l-.05.943,1.786.149.5-.05.5.248a1.3,1.3,0,0,0,.124.2.546.546,0,0,1,.1.223,1.15,1.15,0,0,1,.025.223v.248l-.248.5q-.149.1-.273.174a.79.79,0,0,1-.3.1q-.174.025-.322.05a2.137,2.137,0,0,1-.347.025l-.5-.05v.1q.248.3.5.546a5.082,5.082,0,0,1,.471.546,2.116,2.116,0,0,0,.521.5,1.771,1.771,0,0,1,.5.5l.05.6-.248.5a1.3,1.3,0,0,0-.2.124.546.546,0,0,1-.223.1,1.15,1.15,0,0,1-.223.025h-.248a1.1,1.1,0,0,1-.347-.149,3.487,3.487,0,0,1-.3-.223l-.3-.248q-.149-.124-.3-.273l-.645-.645V-6.44l.05,1.24-.248.5a1.3,1.3,0,0,0-.2.124.546.546,0,0,1-.223.1,1.15,1.15,0,0,1-.223.025Zm4.415-11.36-.546-.248a1.873,1.873,0,0,1-.273-.62q-.074-.322-.124-.695a5.444,5.444,0,0,1-.05-.719v-.744l.05-1.736-.1-.347h-.149a11.34,11.34,0,0,0-1.116,1.067q-.521.571-1.042,1.166t-1.042,1.166l-1.017,1.116a1.3,1.3,0,0,0-.2.124.545.545,0,0,1-.223.1,1.262,1.262,0,0,1-.248.025h-.273l-.5-.248a1.3,1.3,0,0,0-.124-.2.546.546,0,0,1-.1-.223,1.262,1.262,0,0,1-.025-.248v-.273l.3-.546a6.036,6.036,0,0,0,1.017-.943q.471-.546.943-1.067T-42-20.951q.446-.521.893-1.017H-42.9l-.943.05-.5-.248a1.3,1.3,0,0,0-.124-.2.546.546,0,0,1-.1-.223,1.149,1.149,0,0,1-.025-.223v-.248l.248-.5a2.711,2.711,0,0,1,1.215-.322q.67-.025,1.339-.025t1.315-.025q.645-.025,1.339-.025,0-.347.025-.67t.025-.645A2.859,2.859,0,0,1-39-25.912a1.407,1.407,0,0,1,.273-.571,1.3,1.3,0,0,0,.2-.124.56.56,0,0,1,.248-.1,1.559,1.559,0,0,1,.248-.025h.248l.5.248a1.3,1.3,0,0,0,.124.2.546.546,0,0,1,.1.223,1.263,1.263,0,0,1,.025.248v.273l-.1,1.637a5.372,5.372,0,0,1,1.265.05q.62.1,1.215.174t1.215.124a3.462,3.462,0,0,1,1.166.3,1.3,1.3,0,0,0,.124.2.971.971,0,0,1,.124.223.664.664,0,0,1,.05.248v.273l-.248.5q-.149.1-.273.174a.52.52,0,0,1-.273.074h-.645l-2.133-.3v.1q.347.4.695.819t.719.843l.744.843a8.436,8.436,0,0,0,.769.769l.546.645a1.3,1.3,0,0,0,.124.2.546.546,0,0,1,.1.223,1.15,1.15,0,0,1,.025.223v.248l-.248.5a1.3,1.3,0,0,0-.2.124.546.546,0,0,1-.223.1,1.262,1.262,0,0,1-.248.025h-.273l-.6-.347-3.423-3.869-.05,2.679a1.959,1.959,0,0,1,.074.3q.025.149.05.273a1.54,1.54,0,0,1,.025.3v.322l-.248.5a1.3,1.3,0,0,0-.2.124.545.545,0,0,1-.223.1,1.15,1.15,0,0,1-.223.025Zm21.59,12.3-.546-.248a1.3,1.3,0,0,0-.124-.2.559.559,0,0,1-.1-.2q-.025-.1-.05-.223a1.149,1.149,0,0,1-.025-.223,3.918,3.918,0,0,1,.149-.6,5.843,5.843,0,0,1,.223-.571q.124-.273.248-.571a1.2,1.2,0,0,0,.074-.645,4.105,4.105,0,0,1-.1-.893,3.467,3.467,0,0,0-.1-.843q-.1-.4-.2-.819t-.2-.819h-1.687q-.6.05-1.191.05t-1.191.025a4.776,4.776,0,0,0-1.116.174,5.815,5.815,0,0,1-1.116.2l-.5-.248a1.3,1.3,0,0,0-.124-.2.545.545,0,0,1-.1-.223,1.15,1.15,0,0,1-.025-.223v-.248l.347-.6a7.076,7.076,0,0,1,1.488-.446,8.73,8.73,0,0,1,1.612-.149q.819,0,1.637-.025t1.662-.025a3.513,3.513,0,0,1,.6-1.091,11.85,11.85,0,0,0,.744-1.042,10.584,10.584,0,0,0,.62-1.116q.273-.571.521-1.116l-2.58-.1a1.948,1.948,0,0,1-.62.1q-.322,0-.645.025t-.67.025a3.929,3.929,0,0,0-.645.05.885.885,0,0,0-.223-.074q-.124-.025-.223-.05a.559.559,0,0,1-.2-.1,1.3,1.3,0,0,0-.2-.124,1.3,1.3,0,0,0-.124-.2.546.546,0,0,1-.1-.223,1.15,1.15,0,0,1-.025-.223V-17.8l.248-.5a1.782,1.782,0,0,1,1.091-.248,7.156,7.156,0,0,0,1.191,0q.6-.05,1.166-.124a5.9,5.9,0,0,1,1.215-.025q.446.05.893.074l.918.05a7.37,7.37,0,0,1,.893.1,1.592,1.592,0,0,1,.769.372q.05.1.124.223a.772.772,0,0,1,.1.273,1.807,1.807,0,0,1,.025.3v.3a10.56,10.56,0,0,1-.571,1.24q-.322.6-.62,1.215a7.356,7.356,0,0,1-.719,1.191,7.926,7.926,0,0,0-.719,1.166q.744.05,1.538.05t1.538.074q.744.074,1.513.1a4.782,4.782,0,0,1,1.463.273,1.3,1.3,0,0,0,.124.2.545.545,0,0,1,.1.223A1.15,1.15,0,0,1-9-11.054v.248l-.248.5a.736.736,0,0,1-.347.2,3.347,3.347,0,0,1-.4.074,3.4,3.4,0,0,1-.422.025h-.422q-.5-.05-1.042-.1t-1.067-.074q-.521-.025-1.067-.025t-1.091-.05v.149q.1.446.174.918t.124.943a9.238,9.238,0,0,1,.05.967q0,.5.05.992-.1.347-.2.67t-.223.62a3.874,3.874,0,0,0-.2.62,1.873,1.873,0,0,1-.273.62,1.3,1.3,0,0,0-.2.124.545.545,0,0,1-.223.1,1.15,1.15,0,0,1-.223.025Zm8.086-12.1a1.361,1.361,0,0,0-.174-.074q-.074-.025-.174-.05a.551.551,0,0,1-.174-.074,1.621,1.621,0,0,0-.174-.1,2,2,0,0,1-.174-.322.875.875,0,0,1-.074-.347v-.769q.05-.3.124-.6a2.548,2.548,0,0,0,.074-.62,2.547,2.547,0,0,1,.074-.62,1.669,1.669,0,0,0,.025-.645q-1.637-.248-3.3-.347t-3.349-.149q-1.687-.05-3.349-.149l-3.349-.2-.992.149q-.1.546-.149,1.091t-.149,1.067a7.593,7.593,0,0,0-.124,1.091,1.949,1.949,0,0,1-.322,1.017,1.3,1.3,0,0,0-.2.124.546.546,0,0,1-.223.1,1.149,1.149,0,0,1-.223.025h-.248l-.5-.248a.662.662,0,0,0-.124-.174.268.268,0,0,1-.074-.2.492.492,0,0,0-.05-.223.44.44,0,0,1-.05-.2q.1-.645.2-1.265t.149-1.265q.05-.645.149-1.29a2.371,2.371,0,0,1,.5-1.141,1.3,1.3,0,0,1,.67-.372,5.735,5.735,0,0,1,.744-.1q.372-.025.769-.074a6.394,6.394,0,0,1,.794-.05v-.149q-.2-.347-.372-.67t-.322-.67q-.149-.347-.322-.695a1.275,1.275,0,0,1-.124-.744l.248-.5a1.3,1.3,0,0,0,.2-.124.545.545,0,0,1,.223-.1,1.149,1.149,0,0,1,.223-.025h.248l.5.248a4.339,4.339,0,0,1,.5.843l.4.893a5.089,5.089,0,0,0,.5.868,1.4,1.4,0,0,1,.248.967l2.381.1v-.149a2.919,2.919,0,0,1-.3-.744,5.96,5.96,0,0,0-.248-.769l-.3-.744a1.675,1.675,0,0,1-.1-.819l.248-.5a1.3,1.3,0,0,0,.2-.124.545.545,0,0,1,.223-.1,1.149,1.149,0,0,1,.223-.025h.248l.546.248a3.931,3.931,0,0,1,.4.843q.149.446.3.918a8.733,8.733,0,0,0,.347.918,2.3,2.3,0,0,1,.2.943l-.05.2,2.282.1v-.2l-.05-.5a3.931,3.931,0,0,1,.4-.843,6.152,6.152,0,0,0,.422-.794q.174-.4.347-.843a2.728,2.728,0,0,1,.471-.794,1.3,1.3,0,0,0,.2-.124.545.545,0,0,1,.223-.1,1.15,1.15,0,0,1,.223-.025h.248l.5.248a1.3,1.3,0,0,0,.124.2.546.546,0,0,1,.1.223,1.262,1.262,0,0,1,.025.248v.273q-.2.4-.372.794l-.347.794a4.992,4.992,0,0,1-.422.769,2.4,2.4,0,0,0-.347.819q.546,0,1.067.05t1.042.149q.521.1,1.017.2a3.237,3.237,0,0,1,.943.347q.1.149.2.273a.462.462,0,0,1,.1.3v.719a10.032,10.032,0,0,0-.149,1.017,10.033,10.033,0,0,1-.149,1.017,4.3,4.3,0,0,0-.074,1.042,1.612,1.612,0,0,1-.273.992,1.621,1.621,0,0,0-.174.1,1.622,1.622,0,0,1-.174.1.44.44,0,0,1-.2.05A.44.44,0,0,0-8.409-15.618ZM9.857-4.158A7.188,7.188,0,0,1,8.84-4.232q-.521-.074-1.017-.1l-1.017-.05q-.521-.025-1.067-.025l-.794.1-1.389-.05-1.191.05q-.446-.05-.893-.074T.58-4.456a8.307,8.307,0,0,0-.918-.05h-.918a6.391,6.391,0,0,0-.645.124,2.654,2.654,0,0,1-.645.074,4.4,4.4,0,0,0-.67.05,4.4,4.4,0,0,1-.67.05,1.361,1.361,0,0,0-.174-.074q-.074-.025-.174-.05a.551.551,0,0,1-.174-.074,1.622,1.622,0,0,0-.174-.1A1.3,1.3,0,0,0-4.7-4.7a.545.545,0,0,1-.1-.223,1.15,1.15,0,0,1-.025-.223V-5.4l.248-.5a2.666,2.666,0,0,1,1.191-.322,10.572,10.572,0,0,0,1.265-.124,8,8,0,0,1,1.265-.1H.431a3.5,3.5,0,0,0,.744.124q.4.025.769.025t.769.025q.4.025.794.025l.546-.05v-.843H3.11l-1.29.149a1.631,1.631,0,0,0-.4-.05H1A1,1,0,0,1,.6-7.11a2,2,0,0,1-.322-.174,1.3,1.3,0,0,0-.124-.2.545.545,0,0,1-.1-.223,1.15,1.15,0,0,1-.025-.223v-.248l.248-.5q.149-.1.322-.2a.738.738,0,0,1,.372-.1H1.77l.347.05L4-9.069v-.695H1.225A3.192,3.192,0,0,1,.8-9.689a.684.684,0,0,0-.372.149.684.684,0,0,1-.372.149,3.192,3.192,0,0,0-.422.074,1.361,1.361,0,0,0-.174-.074q-.074-.025-.174-.05a.551.551,0,0,1-.174-.074,1.622,1.622,0,0,0-.174-.1l-.2-.446h-.1a1.521,1.521,0,0,1-.149-.273,3.121,3.121,0,0,1-.1-.3,1.259,1.259,0,0,1-.05-.347V-11.3a9.362,9.362,0,0,0,.273-1.513q.074-.769.2-1.538t.223-1.538A3.161,3.161,0,0,1-.412-17.3l.4-.2v-.1q.149-.1.273-.174A.52.52,0,0,1,.53-17.85h.645q.347.05.67.074t.645.074a4.4,4.4,0,0,0,.67.05h.695l2.084-.05q.6.05,1.215.05a9.2,9.2,0,0,1,1.191.074q.571.074,1.116.2a3.54,3.54,0,0,1,1.042.422,5.606,5.606,0,0,1,.5,1.513q.149.819.3,1.587t.273,1.538a10.118,10.118,0,0,1,.124,1.612l-.248.5a3.4,3.4,0,0,1-1.29.347q-.695.05-1.389.05t-1.389.05q-.695.05-1.389.05v.6H9.063l.446-.05.546.3a1.3,1.3,0,0,0,.124.2.546.546,0,0,1,.1.223,1.15,1.15,0,0,1,.025.223v.248l-.248.5a1.488,1.488,0,0,1-.918.3h-3.1v.843q.6,0,1.166.025t1.116.1q.546.074,1.116.1t1.166.025q.347-.05.67-.074t.67-.025h1.389a.492.492,0,0,0,.223.05,1.262,1.262,0,0,1,.248.025.546.546,0,0,1,.223.1,1.3,1.3,0,0,0,.2.124,1.3,1.3,0,0,0,.124.2.545.545,0,0,1,.1.223,1.15,1.15,0,0,1,.025.223V-5l-.248.5a1.3,1.3,0,0,0-.2.124.546.546,0,0,1-.223.1l-.248.05a1.394,1.394,0,0,1-.273.025l-2.034-.05ZM3.9-11.7V-12.74H3.035a4.433,4.433,0,0,1-.819-.074,4.433,4.433,0,0,0-.819-.074H.53L.381-11.6h.3a3.262,3.262,0,0,1,.794-.1H3.9Zm5.755-.05v-.3l-.05-.3a5.731,5.731,0,0,1-.943-.074l-.893-.149a4.391,4.391,0,0,0-.943-.05q-.5.025-.943.025v.943H6.88Zm-.4-2.53v-.149l-.248-1.042q-.347-.1-.719-.174a3.912,3.912,0,0,0-.769-.074H5.938v1.191H7.649a2.494,2.494,0,0,1,.794.124A2.576,2.576,0,0,0,9.261-14.278Zm-5.308-.4v-1.042H3.234a5.082,5.082,0,0,1-.719-.05q-.347-.05-.719-.074t-.719-.074a.444.444,0,0,0-.124.248q-.025.149-.05.273a1.262,1.262,0,0,0-.025.248.869.869,0,0,1-.05.273h.794a2.7,2.7,0,0,1,.744.1,2.794,2.794,0,0,0,.769.1,5.463,5.463,0,0,1,.769.05Zm-8.979-3.473-.5-.248a1.3,1.3,0,0,0-.124-.2.545.545,0,0,1-.1-.223,1.149,1.149,0,0,1-.025-.223v-.248l.248-.5a3.336,3.336,0,0,1,1.513-.347A10.429,10.429,0,0,0-2.4-20.256L-.809-20.5a7.663,7.663,0,0,1,1.637-.074v-.645l-.05-1.141.05-.149a4.987,4.987,0,0,1-.868-.074,4.987,4.987,0,0,0-.868-.074q-.446,0-.868-.025a1.444,1.444,0,0,1-.769-.273,1.3,1.3,0,0,0-.124-.2.545.545,0,0,1-.1-.223,1.15,1.15,0,0,1-.025-.223v-.248l.248-.5a1.094,1.094,0,0,1,.422-.2,2.291,2.291,0,0,1,.5-.05H-.611a6.991,6.991,0,0,0,1.067.124q.571.025,1.141.025a7.716,7.716,0,0,1,1.091.074,4.971,4.971,0,0,0,1.116.025v-1.463a3.085,3.085,0,0,1,.074-.695,1.873,1.873,0,0,1,.273-.62,1.3,1.3,0,0,0,.2-.124.546.546,0,0,1,.223-.1,1.262,1.262,0,0,1,.248-.025h.273l.5.248a1.3,1.3,0,0,0,.124.2.546.546,0,0,1,.1.223,1.262,1.262,0,0,1,.025.248v.273l-.05,1.935h.843l3.125-.1a2.787,2.787,0,0,0,.546.05h.6q.3,0,.571.025a.744.744,0,0,1,.471.223,1.3,1.3,0,0,0,.124.2.545.545,0,0,1,.1.223,1.15,1.15,0,0,1,.025.223v.248l-.248.5a.736.736,0,0,1-.347.2q-.2.05-.422.1a1.947,1.947,0,0,1-.422.05H10.3l-2.183-.1v.4l.149,1.587,2.282.149q.4-.05.794-.074t.819-.025h1.662l.5.248a1.3,1.3,0,0,0,.124.2.545.545,0,0,1,.1.223,1.15,1.15,0,0,1,.025.223v.248l-.248.5a2,2,0,0,1-.322.174,1.373,1.373,0,0,1-.347.1,2.832,2.832,0,0,1-.4.025,1.192,1.192,0,0,0-.372.05l-1.587-.05-1.042.1q-.744-.05-1.488-.124t-1.513-.124q-.769-.05-1.538-.05H4.1l-1.191.1-.744-.05-.446.05a1.457,1.457,0,0,0-.546-.1H-.611q-.546.1-1.067.2a10.862,10.862,0,0,1-1.091.149l-1.116.1Q-4.431-18.148-5.026-18.148Zm11.36-2.431v-.6l-.149-1.141L3.9-22.464l-1.191.1v1.091l.05.744.695.05q.347-.05.695-.074t.719-.025H6.334ZM25.543-4.307a1.362,1.362,0,0,0-.174-.074q-.074-.025-.174-.05a.551.551,0,0,1-.174-.074,1.621,1.621,0,0,0-.174-.1,1.3,1.3,0,0,0-.124-.2.545.545,0,0,1-.1-.223,1.262,1.262,0,0,1-.025-.248v-.273q.794-1.587,1.563-3.2T27.8-11.9q.868-1.538,1.836-3.051t1.91-3q-.893-.347-1.736-.769T28.1-19.512q-.868-.372-1.736-.794t-1.712-.868q-.5.744-.992,1.439T22.715-18.3q-.446.744-.843,1.513t-.843,1.513a1.3,1.3,0,0,0-.2.124.545.545,0,0,1-.223.1,1.15,1.15,0,0,1-.223.025h-.248l-.5-.248a1.3,1.3,0,0,0-.124-.2.545.545,0,0,1-.1-.223,1.262,1.262,0,0,1-.025-.248v-.273q.446-.943.943-1.885a15.661,15.661,0,0,1,1.116-1.811q.62-.868,1.215-1.761a14.488,14.488,0,0,0,1.042-1.836,1.3,1.3,0,0,0,.2-.124.545.545,0,0,1,.223-.1,1.149,1.149,0,0,1,.223-.025H24.6l.5.248v.1l.4.2a1.221,1.221,0,0,0,.546.571q.347.174.719.347t.719.347q.347.174.695.372A13.989,13.989,0,0,1,29.537-21q.67.322,1.339.62t1.364.571a4.678,4.678,0,0,1,1.29.769.623.623,0,0,0,.149.248.944.944,0,0,1,.174.248.66.66,0,0,1,.074.3v.3l-.248.5q-.744,1.091-1.538,2.208t-1.463,2.282q-.67,1.166-1.339,2.356T28.073-8.226q-.2.446-.4.918a7.494,7.494,0,0,1-.446.893,7.494,7.494,0,0,0-.446.893,5.5,5.5,0,0,1-.5.918,1.621,1.621,0,0,0-.174.1,1.621,1.621,0,0,1-.174.1.44.44,0,0,1-.2.05A.44.44,0,0,0,25.543-4.307ZM48.869-5.646l-.5-.248a1.3,1.3,0,0,0-.124-.2.545.545,0,0,1-.1-.223.886.886,0,0,0-.074-.223.552.552,0,0,1-.05-.248q.5-1.24,1.116-2.431t1.191-2.406q.57-1.215,1.24-2.406t1.215-2.431a12.578,12.578,0,0,0-2.257-.3q-1.166-.05-2.332-.174t-2.307-.149q-1.141-.025-2.332-.025l-.794.05-.446-.05-.6.05a.969.969,0,0,0-.2-.074q-.1-.025-.223-.05a.377.377,0,0,1-.2-.1.662.662,0,0,0-.174-.124,1.3,1.3,0,0,0-.124-.2.545.545,0,0,1-.1-.223,1.149,1.149,0,0,1-.025-.223V-18.3l.248-.5a1.3,1.3,0,0,0,.2-.124.545.545,0,0,1,.223-.1,1.262,1.262,0,0,1,.248-.025h.273l.3.05.695-.05.645.05,2.282-.05q1.141.1,2.332.174t2.356.174q1.166.1,2.307.248a12.813,12.813,0,0,1,2.232.5,1.3,1.3,0,0,0,.124.2.546.546,0,0,1,.1.223,1.262,1.262,0,0,1,.025.248v.273A30.745,30.745,0,0,1,53.9-14.229q-.769,1.389-1.439,2.778T51.1-8.672q-.695,1.389-1.339,2.778a1.3,1.3,0,0,0-.2.124.545.545,0,0,1-.223.1,1.15,1.15,0,0,1-.223.025Zm2.877-15.379q-.794-.1-1.563-.2T48.572-21.4q-.843-.074-1.612-.149T45.4-21.72l-.149.05a2.406,2.406,0,0,0-.471-.05,2.406,2.406,0,0,1-.471-.05,2.887,2.887,0,0,1-.446-.124,1.6,1.6,0,0,1-.4-.223,1.3,1.3,0,0,0-.124-.2.545.545,0,0,1-.1-.223,1.15,1.15,0,0,1-.025-.223v-.248l.248-.5a1.3,1.3,0,0,0,.2-.124.545.545,0,0,1,.223-.1,1.261,1.261,0,0,1,.248-.025H44.4q1.042.1,2.059.223t2.084.223q1.067.1,2.133.174a7.239,7.239,0,0,1,2.009.422,1.3,1.3,0,0,0,.124.2.546.546,0,0,1,.1.223,1.149,1.149,0,0,1,.025.223v.248l-.248.5a1.3,1.3,0,0,0-.2.124.546.546,0,0,1-.223.1l-.248.05A1.394,1.394,0,0,1,51.746-21.025ZM71.1-5.7l-.5-.248a.662.662,0,0,0-.124-.174.268.268,0,0,1-.074-.2.492.492,0,0,0-.05-.223.44.44,0,0,1-.05-.2q.4-1.389.744-2.778a22.734,22.734,0,0,1,.868-2.728q.521-1.339.943-2.728t.769-2.778q-1.389-.248-2.853-.422t-2.9-.248L65-18.569a13.9,13.9,0,0,1-2.778-.422,1.3,1.3,0,0,0-.124-.2.546.546,0,0,1-.1-.223,1.149,1.149,0,0,1-.025-.223v-.248l.248-.5a1.3,1.3,0,0,0,.223-.149.585.585,0,0,1,.273-.124,1.808,1.808,0,0,1,.3-.025h.3a30.365,30.365,0,0,0,3.051.248q1.563.05,3.1.2t3.051.347a15.024,15.024,0,0,1,2.952.695.879.879,0,0,0,.149.273.585.585,0,0,1,.124.273,1.964,1.964,0,0,1,.025.322V-18q-.4,1.488-.868,3.026t-1.017,3.026q-.546,1.488-.943,3t-.943,3a1.3,1.3,0,0,0-.2.124.546.546,0,0,1-.223.1,1.15,1.15,0,0,1-.223.025Zm7.987-13.94-.5-.248a1.33,1.33,0,0,1-.322-.819q-.025-.471-.025-.943v-.967a8.543,8.543,0,0,0-.05-.943,1.363,1.363,0,0,0,.074-.174q.025-.074.05-.174a.55.55,0,0,1,.074-.174,1.623,1.623,0,0,0,.1-.174,1.3,1.3,0,0,0,.2-.124.546.546,0,0,1,.223-.1,1.149,1.149,0,0,1,.223-.025h.248l.5.248a1.451,1.451,0,0,1,.3.893v1.984q0,.5.05.992l-.248.5a1.3,1.3,0,0,0-.2.124.545.545,0,0,1-.223.1,1.149,1.149,0,0,1-.223.025Zm-2.927-.05-.5-.248a1.685,1.685,0,0,1-.3-.819l-.1-.943q-.05-.471-.1-.918a8.38,8.38,0,0,0-.149-.893,1.356,1.356,0,0,0,.074-.174q.025-.074.05-.174a.551.551,0,0,1,.074-.174,1.625,1.625,0,0,0,.1-.174,1.3,1.3,0,0,0,.2-.124.545.545,0,0,1,.223-.1,1.149,1.149,0,0,1,.223-.025h.248l.5.248a2.015,2.015,0,0,1,.3.868q.05.471.1.967t.124.967a6.192,6.192,0,0,1,.074.967l-.248.5a1.3,1.3,0,0,0-.2.124.545.545,0,0,1-.223.1,1.149,1.149,0,0,1-.223.025Z" transform="translate(133.275 151.074)"/>
  <g id="logomark" transform="translate(408.857 314)">
    <g id="グループ_4905" data-name="グループ 4905" transform="translate(-363.981 -314)">
      <g id="グループ_4904" data-name="グループ 4904" class="cls-2" transform="translate(0 0)">
        <path id="パス_28485" data-name="パス 28485" class="cls-1" d="M-309.872-313.626a18.227,18.227,0,0,0-9.955,10.034,5.025,5.025,0,0,0-.414,1.547,1.116,1.116,0,0,0,.542.447c.239.112.463.208.495.224a7.225,7.225,0,0,1-.447,1.228l-.495,1.2-1.436-1.085a24.332,24.332,0,0,0-5.886-3.254,23.973,23.973,0,0,0-5.248-1.213,1.682,1.682,0,0,1-.8-.191c-.7-.431-4.978.829-8.152,2.425a34.1,34.1,0,0,0-7.865,5.535c-.558.59-.59.67-.414,1.053.255.558.494.542,1.212-.1.623-.542,2.345-1.866,2.744-2.106.128-.063,0,.191-.255.575a15.433,15.433,0,0,0-1.9,13.8,19.478,19.478,0,0,0,3.733,6.476c.558.686.925,1.244.8,1.244a8.752,8.752,0,0,1-1.244-.351,14.136,14.136,0,0,0-5.982-.048,76.335,76.335,0,0,0-8.375,2.712,9.885,9.885,0,0,0-2.871,2.855A19.559,19.559,0,0,0-363.3-268.3l-.7,1.532v11.087l.686,1.308a97.365,97.365,0,0,0,5.456,8.3,22.26,22.26,0,0,0,7.561,5.5c.814.4,2.7,1.1,4.164,1.6l2.664.877-.447,1.308c-1.1,3.223-1.244,6.525-.366,8.248a10.772,10.772,0,0,0,2.7,2.775c2.345,1.484,4.834,1.978,10.05,1.994,4.339,0,4.674-.063,8.917-1.516,2.808-.957,5.392-1.547,5.631-1.292a26.69,26.69,0,0,1-1.946,4.9c-.383.574-.383.59-1.946.75a58.518,58.518,0,0,1-8.423.367c-5.216.015-6.987.175-9.093.845-3.27,1.037-7.338,5.041-9.492,9.332a3.086,3.086,0,0,0-.447,2.122c.08,1.516.191,1.6,2.393,1.739,5.727.383,11.358.526,20.308.51,10.561-.016,18.648-.239,19.526-.543.4-.143.623-.143.814-.016a33.828,33.828,0,0,0,5.2.112c20.706-.271,26.449-.462,34.984-1.133,1.708-.127,3.637-.3,4.307-.383a3.776,3.776,0,0,1,1.484.016,2.248,2.248,0,0,0,1.58-.016c.366-.208.383-.558.047-1.2-.143-.271-.654-1.26-1.132-2.2-1.739-3.43-5.121-6.205-9.843-8.088-1.8-.7-5.121-1.133-9.588-1.228a29.5,29.5,0,0,0-8.216.622,7.925,7.925,0,0,1-2.122.224c-.319-.08-.718-.543-1.611-1.9a19.483,19.483,0,0,1-2.3-4.036,15.172,15.172,0,0,1,2.138.479c11.406,3.1,19.589,2.233,23.976-2.552a13.522,13.522,0,0,0,2.744-5.248,9.676,9.676,0,0,0-.973-5.839l-.447-.893,1.133-.351a40.08,40.08,0,0,0,13.767-7.5,25.915,25.915,0,0,0,5.806-7.115,13,13,0,0,0,.781-7.035c-.67-3.653-4.945-6.955-10.066-7.8-.335-.048-.606-.143-.606-.208a3.283,3.283,0,0,1,1.021-1.388c.766-.51,2.042-2.855,2.648-4.882a19.983,19.983,0,0,0,.846-4.658,7.081,7.081,0,0,1,.175-1.739c.447-2.345.3-3.111-.654-3.558-.51-.239-.543-.3-.447-.846a27.546,27.546,0,0,0-.143-6.062,17.281,17.281,0,0,0-2.09-4.913,17.408,17.408,0,0,0-4.387-4.243,28.891,28.891,0,0,0-9.572-3.908c-4.4-1.117-7.21-1.133-10.577-.032a23.427,23.427,0,0,0-4.993,2.3,6.649,6.649,0,0,1-1.356.718c-.127,0-.414-.527-.685-1.244-1.979-5.328-4.93-9.125-7.083-9.125a1.023,1.023,0,0,0-.67.239c-.176.208-.112.335.4.766a17.543,17.543,0,0,1,3.589,3.94,36.333,36.333,0,0,1,2.473,5.759l.287.909-.543.494a2.219,2.219,0,0,1-.718.495c-.112,0-.255-.51-.366-1.213a12.579,12.579,0,0,0-2.154-5.152,11.825,11.825,0,0,0-3.622-3.925,11.839,11.839,0,0,0-7-2.106,17.641,17.641,0,0,0-8.614,1.866,20.99,20.99,0,0,0-4.9,3.733,13.723,13.723,0,0,1-1.627,1.516c-.239.144-.782.463-1.2.718a2.621,2.621,0,0,1-.8.4,4.564,4.564,0,0,1,.606-1.053,16.58,16.58,0,0,1,6.062-5.727,10.6,10.6,0,0,1,3.51-.973c1.021-.16,1.1-.447.224-.846a3.617,3.617,0,0,0-3.27-.032Zm10.321,4.674a21.46,21.46,0,0,1,5.185,2.233c1.436.973,1.866,1.516,3.174,4.083,1.532,3.016,1.851,4.052,1.994,6.349a17.206,17.206,0,0,0,.239,2.17,1.8,1.8,0,0,0,.591.526c.462.272.494.272,1.132-.047a2.046,2.046,0,0,1,.734-.256c.048.048-.112.351-.351.686a2.664,2.664,0,0,0-.415.8c0,.191.814.67,1.148.67a5.191,5.191,0,0,0,1.228-1.117,27.215,27.215,0,0,1,5.312-4.355,17.518,17.518,0,0,1,9.939-2.456c2.664.111,3.94.479,7.9,2.281,2.792,1.276,3.015,1.419,3.35,2.01.287.527.335.718.191.942s-.064.75.351,2.408a21.617,21.617,0,0,1,.846,7.179c-.239,6.286-3.047,13.081-6.285,15.2a14.011,14.011,0,0,0-1.308.941c-.7.638-.239,1.755.925,2.218a14.958,14.958,0,0,0,2.505.51,59.128,59.128,0,0,1,7.162,1.213,16.858,16.858,0,0,1,4.467,2.169c.957.75,1.213,1.436,1.213,3.43.015,2.569-1.165,5.041-3.558,7.45-3.494,3.542-8.072,5.887-14.884,7.673-2.935.766-3.015.8-3.079,1.213-.063.4.829.909,2.074,1.18l.894.208-.415.431c-.351.367-.462.4-.574.208a1.683,1.683,0,0,0-.686-.463c-.814-.351-1.069-.08-.942.973a11.811,11.811,0,0,1-.733,4.148c-.431,1.516-.75,2.138-.942,1.8s-1-.16-2.44.51a24.22,24.22,0,0,1-8.631,2.329l-1.755.1-.925-.558c-1.244-.781-1.467-.829-1.85-.447-.367.367-.3.8.223,1.292a10.341,10.341,0,0,0,3.765,1.372c1.8.207,4.4-.335,8.231-1.723a5.409,5.409,0,0,0,2.744-1.564l.862-.877-.686,1.324a9.253,9.253,0,0,1-2.919,3.445,13.8,13.8,0,0,1-2.425.845c-1.675.431-1.914.447-5.424.447-5.663,0-7.657-.415-12.985-2.664-2.393-1.005-4.1-2.026-3.973-2.361a14.882,14.882,0,0,1,1.324-1.133,47.079,47.079,0,0,0,5.727-5.7,23.171,23.171,0,0,0,2.984-5.025,4.493,4.493,0,0,0,.431-2.425,6.272,6.272,0,0,0-2.01-4.036c-1.419-1.467-3.414-2.026-6.174-1.77-2.616.255-4.8,1.2-7.705,3.35l-1.962,1.451-.909-.861a13.763,13.763,0,0,0-5.424-3.318,6.331,6.331,0,0,0-2.648-.287c-1.708.064-2.346.367-3.877,1.787a7.226,7.226,0,0,0-2.441,5.775c0,3.158.957,4.562,6.429,9.524a7.655,7.655,0,0,1,1.547,1.691c0,.622-3.254,2.552-4.882,2.888a15.994,15.994,0,0,0-2.169.654,15.869,15.869,0,0,1-6.748,1.164,13.66,13.66,0,0,1-4.148-.351c-3.573-.909-4.993-2.281-5.153-5.009a7.6,7.6,0,0,1,.814-3.956,3.851,3.851,0,0,0,.462-1.946c-.032-1.452-.16-1.58-1.451-1.467a4.623,4.623,0,0,1-2.346-.3c-.685-.223-1.579-.479-1.962-.59a33.983,33.983,0,0,1-3.589-1.659c-2.569-1.292-2.888-1.516-2.936-1.883-.048-.335-.16-.447-.558-.543-2.154-.462-4.02-2.632-6.461-7.482a33.936,33.936,0,0,1-2.92-7.37l-.335-1.372.351-.973a10.537,10.537,0,0,1,5.68-5.7c1.85-.845,5.647-1.42,9.332-1.42,1.85,0,2.313-.048,2.951-.335a2.429,2.429,0,0,1,1.356-.223c.494.08.606.048.829-.3.4-.591.335-1.053-.239-1.643-.271-.287-.463-.558-.431-.606a1.665,1.665,0,0,1,.654.112c1.133.351,1.516-.367.527-.989-.462-.287-.527-.4-.4-.638.271-.51.176-.7-.814-1.516-1.755-1.452-3.031-3.8-3.924-7.258-.59-2.313-.431-3.414,1.165-7.721,1-2.68,1.691-4.084,2.265-4.659a8.236,8.236,0,0,1,4.131-1.515,5.794,5.794,0,0,0,1.691-.431c.239-.223.542-.223,2.792.016,4.9.51,6.062,1.005,9.253,3.892,1.451,1.324,1.818,1.452,2.408.83l.3-.335.287.494a.779.779,0,0,0,.8.495c.558,0,.7-.208.7-1.005a14.439,14.439,0,0,1,2.377-6.157,33.606,33.606,0,0,1,5.663-6.222,14.955,14.955,0,0,1,5.041-2.138,18.885,18.885,0,0,1,4.148.064Zm-40.041,8.423c-.223.415-.814.83-1.005.7-.1-.048.064-.3.351-.558.591-.527.91-.59.654-.144Zm14.629.574c.894.686.59.718-.973.112-1.165-.447-1.468-.766-.862-.861.527-.1.989.112,1.835.75Zm62.264.08c.208.143.208.16,0,.16a1.134,1.134,0,0,1-.479-.16c-.208-.143-.208-.16,0-.16a1.134,1.134,0,0,1,.479.16Zm11.662,17.261-.144.527-.015-.51a2.325,2.325,0,0,1,.1-.8c.191-.479.256.143.064.781ZM-255.761-280c-.208.7-.527,1.26-.351.622.048-.176.128-.558.191-.846.064-.271.176-.51.239-.51.08,0,.048.335-.08.734Zm-86.623,5.009.462.479h-.685c-.558,0-.671-.048-.591-.255a1.811,1.811,0,0,0,.1-.479c0-.351.223-.271.718.255Zm-2.935-.143c1.117.239.75.414-.942.446a25,25,0,0,0-13.049,3.637c-.431.271-.431.271-.239-.063.479-.925,2.457-1.883,6.078-2.983,1.356-.4,2.935-.846,3.51-.957a13.808,13.808,0,0,1,4.643-.08Zm1.26,2.7c-.3.064-1.388.176-2.393.239-3.541.208-6.524.877-8.247,1.866-.463.256-.846.4-.846.319,0-.191.846-.925,1.419-1.212a25.762,25.762,0,0,1,5.281-1.133c1.883-.223,5.711-.287,4.786-.08Zm87.293,1.308c-.112.112-.191.128-.191.032,0-.223.191-.414.3-.3.033.048-.015.176-.112.271Zm-100.183,16.862a9.967,9.967,0,0,1,.718,1.978c-.08.239-1.165-1.308-1.579-2.233a14.97,14.97,0,0,1-.909-3.239c0-.319.829,1.293,1.77,3.493Zm62.5,4.674a3.08,3.08,0,0,1,1.755,2.425c0,1.005-1.739,3.925-4.259,7.195a34.928,34.928,0,0,1-5.344,5.392c-.543.4-1.213.893-1.452,1.085a1.057,1.057,0,0,1-.75.255c-.271-.063-.319,0-.319.383,0,.255-.08.462-.16.462-.191,0-3.733-2.106-5.185-3.079A40.539,40.539,0,0,1-316-240.212c-2.137-2.106-2.44-2.744-2.456-5.185,0-2.68.718-3.51,3.031-3.478,2.137.032,3.829.846,6.524,3.159,2.792,2.393,2.792,2.393,3.908,1.005a20.336,20.336,0,0,1,6.764-4.993,6.167,6.167,0,0,1,3.781.112Zm40.2,1.946a1,1,0,0,1-.271.272c-.256.207-.271.191-.064-.064s.335-.335.335-.207Zm-94.312,5.392a25.827,25.827,0,0,0,5.966,2.2.29.29,0,0,1,.144.542,8.213,8.213,0,0,1-2.027-.479c-5.137-1.547-8.279-3.222-11.023-5.855a10,10,0,0,1-1.324-1.4,27.278,27.278,0,0,1,3.079,1.9c1.675,1.117,4.02,2.5,5.185,3.095Zm91.76-3.8a22.047,22.047,0,0,1-3.366,2.026,13.672,13.672,0,0,1-2.074.829,7.755,7.755,0,0,1-2.664.351,15.494,15.494,0,0,1,1.739-.67c.909-.3,2.7-1.021,3.972-1.564,1.276-.558,2.329-1.005,2.361-1.021.015-.016.032.015.032.047Zm-82.906,6.588a.842.842,0,0,1-.4,0c-.112-.048-.032-.08.191-.08s.3.032.208.08Zm73.383,1.133a8.176,8.176,0,0,1,.909,3.558,7.549,7.549,0,0,1-1.085,3.541c-.287.287-.3.271-.1-.718a16.585,16.585,0,0,0-.511-7.227c-.239-.59.335.016.782.846Zm-74.26.3a15.342,15.342,0,0,0-1.021,2.6,11.808,11.808,0,0,0,.016,4.547,11.36,11.36,0,0,0,2.361,4.259c.813.734.51.814-.718.191a6.933,6.933,0,0,1-2.76-2.792c-.431-.813-.431-.909-.351-2.776a13.526,13.526,0,0,1,1.148-5.233c.383-.813.479-.909.909-.909.256,0,.447.048.415.111Zm71.659,5.728a3.457,3.457,0,0,1-1.467,2.154c-.495.255-.51.063-.08-.591a13.591,13.591,0,0,0,1.021-2.2c.606-1.6.606-1.612.654-.925a6.866,6.866,0,0,1-.128,1.564Zm-68.182,1.77a10.075,10.075,0,0,0,4.658,2.361c1.9.415,2.01.495.925.638a8.562,8.562,0,0,1-4.435-.51c-1.931-.909-2.68-1.946-2.68-3.654l.016-.941.335.622a7.087,7.087,0,0,0,1.181,1.484Zm29.8,1.4c.1.383-.064,6.365-.383,14.214-.08,2.089-.16,3.892-.16,3.988,0,.127-2.074.207-6.891.271-3.8.063-9.221.16-12.029.208-5.232.112-14.979-.176-15.155-.431-.287-.462,1.723-3,3.159-4.02,2.648-1.85,4.882-2.217,11.055-1.8a21.089,21.089,0,0,0,4.866-.207c2.552-.3,5.839-.75,6.62-.91.256-.047.829-1.18,2.632-5.2,1.26-2.84,2.616-5.823,2.983-6.62l.686-1.484,1.26.814c.862.542,1.293.925,1.356,1.18Zm5.807-1.4c.239.16.893.606,1.467,1.021a15.96,15.96,0,0,0,1.691,1.069c.606.3.8.574,2.058,2.92,2.345,4.355,4.8,8.136,5.743,8.886.7.558,2.377.718,5.982.622,1.8-.064,4.211-.223,5.344-.367a27.073,27.073,0,0,1,7.689-.016,9.466,9.466,0,0,1,4.116,2.329c1.675,1.5,1.691,1.563.75,1.675-1.9.239-5.28.431-10.529.574-8.789.239-10.449.319-13.113.654-3.366.414-7.242.75-10.146.877l-2.425.112-.1-1.5c-.064-.83-.1-5.12-.064-9.556s-.015-8.216-.08-8.407c-.112-.287-.032-.415.479-.75.734-.479.623-.463,1.133-.144Zm-20.228,2.2a13.467,13.467,0,0,1-3.318,1.5,24.822,24.822,0,0,1-8.3,1.2,7.928,7.928,0,0,1-3.015-.558c-.431-.16-.495-.526-.064-.383a20.53,20.53,0,0,0,4.212.558,38.378,38.378,0,0,0,8.343-1.739c2.041-.671,2.137-.7,2.137-.575Zm0,0" transform="translate(363.981 313.999)"/>
      </g>
    </g>
    <path id="パス_28486" data-name="パス 28486" class="cls-1" d="M-197.947-212.549a5.256,5.256,0,0,0-3.35,1.707c-.59.638-.638.766-.558,1.34.128.989.383,1.117.877.447a6.8,6.8,0,0,1,3.015-2.249,14.606,14.606,0,0,0,1.707-.909c.176-.287-.654-.447-1.691-.335Zm0,0" transform="translate(-136.253 -85.236)"/>
    <path id="パス_28487" data-name="パス 28487" class="cls-1" d="M-162.473-207.117c-.383.191-.527.367-.527.67,0,.606.415.973.941.814a3.229,3.229,0,0,0,1.723-1.053c.224-.351.224-.431.032-.558a3.34,3.34,0,0,0-2.169.128Zm0,0" transform="translate(-168.935 -89.616)"/>
    <path id="パス_28488" data-name="パス 28488" class="cls-1" d="M-214.995-176.574l-1.005.622v1.324c0,3.111.495,5.264,1.547,6.8,1.005,1.484,1.66,1.516,1.148.063a23.6,23.6,0,0,1-1.037-5.758c-.112-1.739-.112-1.771.319-2.409.431-.654.495-1.117.176-1.228a4.305,4.305,0,0,0-1.148.59Zm0,0" transform="translate(-124.39 -115.006)"/>
    <path id="パス_28489" data-name="パス 28489" class="cls-1" d="M267.957-174.317c0,.048.191.654.431,1.324a7.852,7.852,0,0,1,.447,3.558,11.317,11.317,0,0,1-.447,3.86,22.084,22.084,0,0,1-.909,2.7,6.7,6.7,0,0,0-.479,1.5c0,.846.973.877,1.675.064a20.907,20.907,0,0,0,1.851-5.615,11.237,11.237,0,0,0-.335-4.929c-.51-1.388-1.26-2.425-1.787-2.489-.256-.032-.447-.015-.447.032Zm0,0" transform="translate(-530.338 -117.36)"/>
    <path id="パス_28490" data-name="パス 28490" class="cls-1" d="M-64.886-170.219c-.4.4-.208,1.069.479,1.819a4.134,4.134,0,0,0,4.164,1.34c2.521-.383,3.637-1.4,2.616-2.361-.367-.351-1.228-.479-1.228-.191a5.823,5.823,0,0,1-2.265.718,2.832,2.832,0,0,1-2.329-.941c-.654-.591-1.1-.718-1.436-.383Zm0,0" transform="translate(-251.224 -120.691)"/>
    <path id="パス_28491" data-name="パス 28491" class="cls-1" d="M54.035-158.5c-.4.383.208,1.931.989,2.569a3.415,3.415,0,0,0,2.648,1.069c1.659,0,3.287-.574,3.812-1.34.591-.862.671-1.356.272-1.755-.479-.479-.91-.415-1.468.223a4.041,4.041,0,0,1-2.616,1.053c-.75.063-1.1-.128-1.978-1.053-.75-.829-1.341-1.1-1.66-.766Zm0,0" transform="translate(-351.241 -130.578)"/>
    <path id="パス_28492" data-name="パス 28492" class="cls-1" d="M-122.574-104.615c-.351,1.117-.351,1.244.208,2.807A17.413,17.413,0,0,0-113.337-92a37.382,37.382,0,0,0,10.576,2.824,34.591,34.591,0,0,0,9.349-.75A26.193,26.193,0,0,0-84.4-94.358a31.624,31.624,0,0,0,4.387-4.148c.3-.415.558-.575.861-.575a1.715,1.715,0,0,0,1.356-1.835c-.127-.542-.909-1.26-2.058-1.93-.527-.3-1.085-.638-1.228-.75-.495-.335-.829.208-.877,1.4a4.551,4.551,0,0,1-.3,1.547,13.786,13.786,0,0,1-5.12,5.264,32.789,32.789,0,0,1-13.209,3.031,16.2,16.2,0,0,1-6.7-1.021c-6.493-2.377-10.959-6-12.778-10.338-.51-1.26-1-1.755-1.722-1.755-.479,0-.527.048-.782.846Zm0,0" transform="translate(-202.709 -175.271)"/>
    <path id="パス_28493" data-name="パス 28493" class="cls-1" d="M-266.456-30.237a7.4,7.4,0,0,0-2.5,1.2c-.846.59-.942.718-.894,1.149a.623.623,0,0,0,.495.638c.51.176.479.192,2.361-1.117,1.356-.941,1.978-1.563,1.818-1.8-.1-.176-.67-.208-1.276-.064Zm0,0" transform="translate(-79.119 -238.419)"/>
    <path id="パス_28494" data-name="パス 28494" class="cls-1" d="M-303.693-5.718a2.2,2.2,0,0,0-.7,1.643,11.963,11.963,0,0,0,.558,5.791c1.069,3.493,1.93,4.9,3.621,5.871,1.612.925,1.962.414.654-.99A13.991,13.991,0,0,1-302.385.791a8.76,8.76,0,0,1-.4-3.829c.192-3.286.208-3.174-.08-3.239-.143-.032-.526.224-.829.558Zm0,0" transform="translate(-49.985 -258.631)"/>
    <path id="パス_28495" data-name="パス 28495" class="cls-1" d="M285.389,6.712c-.3.192-.1.734.622,1.691a7.577,7.577,0,0,1,.781,1.244c.367.941.128,2.473-.622,4.227-.319.718-.335.877-.143,1.005a1.634,1.634,0,0,0,1.547-.383,6.118,6.118,0,0,0,.989-3.6,4.226,4.226,0,0,0-1.452-3.446c-.813-.861-1.228-1.037-1.722-.734Zm0,0" transform="translate(-545.68 -269.434)"/>
    <path id="パス_28496" data-name="パス 28496" class="cls-1" d="M284.349,8.867c-.414.16-.383.223.319,1.132a4.865,4.865,0,0,1,1.117,3.143,6.433,6.433,0,0,1-1.4,3.941c-1.26,1.914-2.329,2.807-4.977,4.211-2.456,1.308-2.648,1.516-1.739,2.074.606.383.893.335,2.488-.415a32.161,32.161,0,0,0,4.93-3.238,17.721,17.721,0,0,0,2.106-3.494c.941-2.488.351-5.535-1.372-7.051-.574-.495-.845-.558-1.467-.3Zm0,0" transform="translate(-538.882 -271.237)"/>
    <path id="パス_28497" data-name="パス 28497" class="cls-1" d="M-250.88,88.693c-.479.191-.176.782.766,1.484,2.744,2.042,3.445,2.393,4.77,2.393.8,0,1.228-.287,1.053-.718a.443.443,0,0,0-.4-.239,13.142,13.142,0,0,1-3.781-2.074c-1.292-.909-1.8-1.1-2.408-.846Zm0,0" transform="translate(-94.886 -338.365)"/>
    <path id="パス_28498" data-name="パス 28498" class="cls-1" d="M-171.473,165.238c-.287.128-.527.319-.527.431a6.659,6.659,0,0,0,.957,2.744c.925,1.276,3.287,2.585,4.1,2.25.256-.1.239-.128-.112-.367a12.833,12.833,0,0,1-1.532-1.4c-1.228-1.228-1.6-1.962-1.451-2.855.128-.814-.543-1.18-1.436-.8Zm0,0" transform="translate(-161.371 -402.659)"/>
    <path id="パス_28499" data-name="パス 28499" class="cls-1" d="M325.547-279.131c-.1.271.462,1.292,1.818,3.334a16.108,16.108,0,0,1,2.935,6.541c.144,1.245.239,1.516.495,1.516.7,0,1.1-2.106.638-3.526-.638-1.962-4-7.434-4.866-7.88-.59-.3-.894-.3-1.021.016Zm0,0" transform="translate(-579.536 -29.104)"/>
    <path id="パス_28500" data-name="パス 28500" class="cls-1" d="M-297.379-274.791a30.123,30.123,0,0,0-11.757,7.689c-1.771,1.787-1.946,2.137-1.467,2.7.255.271.335.224,1.659-1.052a40.544,40.544,0,0,1,5.871-4.674c3.191-2.122,5.472-3.159,7.578-3.478.718-.112.75-.143.75-.654a.83.83,0,0,0-.351-.765c-.479-.335-.623-.319-2.281.239Zm0,0" transform="translate(-44.686 -32.566)"/>
    <path id="パス_28501" data-name="パス 28501" class="cls-1" d="M356.815-172.68a35.631,35.631,0,0,1-.957,7.817c-.75,3.462-1.532,5.472-2.823,7.275-.447.638-.51.813-.351,1.005a1.121,1.121,0,0,0,1.18.446c.686-.175,2.345-3.749,3.191-6.844a35.3,35.3,0,0,0,1.069-10.13l-.112-1.356-.59-.048-.606-.048Zm0,0" transform="translate(-602.286 -117.194)"/>
    <path id="パス_28502" data-name="パス 28502" class="cls-1" d="M-298.117-169.715c-.462,1.069-.047,4.578.766,6.668a7.773,7.773,0,0,0,2.106,3.143c1.037.7,1.069.383.176-1.436a19.466,19.466,0,0,1-1.627-5.966c-.176-1.6-.59-2.728-1.021-2.872-.1-.032-.287.175-.4.462Zm0,0" transform="translate(-55.211 -120.877)"/>
    <path id="パス_28503" data-name="パス 28503" class="cls-1" d="M336.178-43.2c-.208.191-.16.335.287.845a1.242,1.242,0,0,0,.781.495c1.037,0,4.339,1.883,5.886,3.366,1.914,1.8,2.409,3.111,2.409,6.365a11.062,11.062,0,0,1-.287,3.031,8.717,8.717,0,0,0-.319,1.276c-.048.431.463.335,1.1-.223.925-.8,1.244-1.947,1.244-4.483a7.9,7.9,0,0,0-.431-3.191c-.638-1.866-1.356-2.808-3.414-4.387-2.185-1.691-4.754-2.983-6.19-3.127a2.453,2.453,0,0,0-1.069.032Zm0,0" transform="translate(-588.381 -227.546)"/>
    <g id="グループ_4907" data-name="グループ 4907" transform="translate(-363.981 -314)">
      <g id="グループ_4906" data-name="グループ 4906" class="cls-2" transform="translate(0 0)">
        <path id="パス_28504" data-name="パス 28504" class="cls-1" d="M317.4,96.382a45.1,45.1,0,0,1-8.6,8.088,15.379,15.379,0,0,1-4.021,1.947c-.51.143-.781.287-.781.446a1.1,1.1,0,0,0,.638,1.133c.415.176.622.112,2.106-.606a31.255,31.255,0,0,0,11.311-9.7c1-1.34,1.132-1.85.542-2.233-.3-.207-.4-.127-1.2.925Zm0,0" transform="translate(-197.455 -30.06)"/>
        <path id="パス_28505" data-name="パス 28505" class="cls-1" d="M-364,115.719V116.9l1.516,1.516a32.288,32.288,0,0,0,11.789,7.37l1.261.462.287-.366c.431-.543.383-.718-.287-.957a41.545,41.545,0,0,1-7.147-3.813c-3.589-2.393-5.44-4.083-6.509-5.966-.191-.335-.479-.606-.622-.606-.256,0-.287.16-.287,1.18Zm0,0" transform="translate(363.981 -46.175)"/>
      </g>
    </g>
    <path id="パス_28506" data-name="パス 28506" class="cls-1" d="M330.783,138.289a37.085,37.085,0,0,1-4.77,4.962c-3.478,2.967-5.44,4.243-7.657,4.945-1.228.383-1.356.462-1.356.829a.878.878,0,0,0,.59.941c.3.16.543.112,1.532-.3a30.881,30.881,0,0,0,5.408-3.111c2.521-1.818,7.626-7.338,7.626-8.232,0-.239-.462-.782-.67-.782a4.161,4.161,0,0,0-.7.75Zm0,0" transform="translate(-572.362 -379.506)"/>
    <g id="グループ_4908" data-name="グループ 4908" transform="translate(-364 -239.096)">
      <path id="パス_28507" data-name="パス 28507" class="cls-1" d="M259.984,155.762c-.3.224-.287.255.239,1.324a20.2,20.2,0,0,1,.83,1.946c.733,2.09.063,4.8-1.708,6.972-.622.75-.51,1.021.415,1.021,2.074,0,3.812-3.829,3.207-7.067-.352-1.882-1.755-4.419-2.441-4.419a1.158,1.158,0,0,0-.543.223Zm0,0" transform="translate(-159.578 -155.539)"/>
      <path id="パス_28508" data-name="パス 28508" class="cls-1" d="M-363.792,158.813c-.128.048-.208.4-.208.925,0,.829.016.861,1.021,1.787a31.233,31.233,0,0,0,13.624,7.147c1.26.3,1.627.208,1.627-.462,0-.287-.256-.431-1.866-.957-5.552-1.819-11.422-5.344-13.209-7.9-.431-.638-.575-.718-.989-.543Zm0,0" transform="translate(364 -158.223)"/>
    </g>
  </g>
</svg>
