<svg xmlns="http://www.w3.org/2000/svg" xmlns:xlink="http://www.w3.org/1999/xlink" width="542.037" height="108" viewBox="0 0 542.037 108">
  <defs>
    <style>
      .cls-1 {
        fill: #26333b;
      }

      .cls-2 {
        clip-path: url(#clip-path);
      }
    </style>
    <clipPath id="clip-path">
      <rect id="長方形_1854" data-name="長方形 1854" class="cls-1" width="123.774" height="108"/>
    </clipPath>
  </defs>
  <g id="logo" transform="translate(-198 -115)">
    <g id="logotype" transform="translate(0 -18)">
      <path id="パス_29267" data-name="パス 29267" class="cls-1" d="M14.824-1.258a4.571,4.571,0,0,0,.9-.09,3.207,3.207,0,0,0,.809-.27q.359-.18.764-.359a3.929,3.929,0,0,0,.764-.449l.9-.9a19.92,19.92,0,0,0,1.168-1.887,8.559,8.559,0,0,0,.809-2.111q.27-1.123.494-2.246a11.653,11.653,0,0,0,.225-2.291,11.673,11.673,0,0,1,2.291.045q1.123.135,2.2.18t2.2.045h2.2a16.391,16.391,0,0,0,0,2.426q.09,1.168.09,2.381t.09,2.381a5.3,5.3,0,0,0,.629,2.156l.9.449H32.7a2.082,2.082,0,0,0,.4-.045.988.988,0,0,0,.4-.18,2.36,2.36,0,0,1,.359-.225l.449-.9a5.164,5.164,0,0,0-.045-1.527,8.028,8.028,0,0,1-.135-1.482V-7.682a11.945,11.945,0,0,0-.09-1.482V-11.32l2.785.27a2.524,2.524,0,0,0,.494-.045l.449-.09a.988.988,0,0,0,.4-.18,2.36,2.36,0,0,1,.359-.225l.449-.9v-.449a2.082,2.082,0,0,0-.045-.4.988.988,0,0,0-.18-.4,2.36,2.36,0,0,1-.225-.359,2.147,2.147,0,0,0-1.033-.449,7.671,7.671,0,0,0-1.168-.09,6.824,6.824,0,0,1-1.123-.09,7.116,7.116,0,0,0-1.168-.09q-.09-.988-.09-2.111t-.09-2.156a16.449,16.449,0,0,1-.045-2.111,3.478,3.478,0,0,0-.494-1.977l-.9-.449h-.449a2.082,2.082,0,0,0-.4.045.988.988,0,0,0-.4.18,2.36,2.36,0,0,1-.359.225,2.936,2.936,0,0,1-.18.314,1,1,0,0,0-.135.314q-.045.18-.09.314a2.464,2.464,0,0,1-.135.314l.18,3.055v3.773H28.3q-1.078,0-2.156-.045t-2.2-.18a10.863,10.863,0,0,0-2.2-.045q-.09-1.707-.27-3.234t-.494-3.01a9.862,9.862,0,0,0-1.078-2.83,16.408,16.408,0,0,0-1.752-2.516L17.07-28.031a10.854,10.854,0,0,0-1.168-.674,11.347,11.347,0,0,0-1.258-.539,4.8,4.8,0,0,0-1.3-.27,3,3,0,0,1-1.3-.4H11.5a2.524,2.524,0,0,0-.494.045,1.412,1.412,0,0,0-.449.18q-.225.135-.4.225l-.449.9v.449a2.082,2.082,0,0,0,.045.4.988.988,0,0,0,.18.4,2.36,2.36,0,0,1,.225.359,4.535,4.535,0,0,0,1.078.539A10.959,10.959,0,0,0,12.4-26.1q.629.135,1.213.27a3.392,3.392,0,0,1,1.123.494,7.589,7.589,0,0,1,1.617,1.8,9.34,9.34,0,0,1,.988,2.066,13.655,13.655,0,0,1,.539,2.246l.359,2.336v1.258a19.567,19.567,0,0,0-2.65,0,13.78,13.78,0,0,0-2.516.4,8.167,8.167,0,0,0-2.291.988,20,20,0,0,0-2.066,1.482q-.27.359-.539.674a2.125,2.125,0,0,0-.4.719,8.14,8.14,0,0,0-.225.809q-.09.4-.18.764A9.821,9.821,0,0,0,7.5-8.176q.135.809.314,1.617A3.919,3.919,0,0,0,8.49-5.076q.494.674.943,1.3a12.5,12.5,0,0,1,1.213.988,3.4,3.4,0,0,0,1.3.764q.719.225,1.437.4Zm.27-3.594-.09.09a3.207,3.207,0,0,0-.809-.27,7.1,7.1,0,0,1-.854-.225,2.23,2.23,0,0,1-.764-.449,3.433,3.433,0,0,0-.719-.494,1.646,1.646,0,0,0-.359-.764,1.632,1.632,0,0,1-.359-.719,7.588,7.588,0,0,1-.135-.809q-.045-.4-.135-.854l.18-.9.539-.27v-.18a2.061,2.061,0,0,0,.943-.4,3.277,3.277,0,0,1,.9-.494q.494-.18.943-.314a8.056,8.056,0,0,1,.988-.225h2.785a16.729,16.729,0,0,1-.09,1.752A7.834,7.834,0,0,1,17.7-8.715q-.27.809-.584,1.572a6.764,6.764,0,0,1-.854,1.482ZM68.12,2.066h.4a1.67,1.67,0,0,0,.4-.045,1.756,1.756,0,0,0,.359-.135,1.408,1.408,0,0,0,.359-.27l.18-.27h.18a7.851,7.851,0,0,1,.9-1.393,4.909,4.909,0,0,0,.809-1.437,9.125,9.125,0,0,0,.4-1.617q.135-.854.314-1.662V-6.2A7.085,7.085,0,0,0,72.3-7.592q-.135-.674-.314-1.3a3.177,3.177,0,0,0-.629-1.168h-.18l-.449-.809-.719-.809-.27-.27q-.539-.359-1.033-.719a5.068,5.068,0,0,0-1.033-.584,7.016,7.016,0,0,0-1.123-.359q-.584-.135-1.123-.314H62.819a16.567,16.567,0,0,0-2.516.18,14.978,14.978,0,0,0-2.291.539q-1.123.359-2.291.719h-.449q.09-1.168.135-2.336t.045-2.381q0-1.213.045-2.426a18,18,0,0,1,.225-2.291v-1.213a1.029,1.029,0,0,0-.135-.539q-.135-.225-.314-.494l-.9-.449h-.449a2.082,2.082,0,0,0-.4.045.988.988,0,0,0-.4.18,2.36,2.36,0,0,1-.359.225,9.781,9.781,0,0,0-.719,3.234q-.09,1.707-.09,3.5t-.09,3.5q-.09,1.707-.27,3.414v1.437a1.692,1.692,0,0,0,.135.674,3.622,3.622,0,0,0,.314.584l.9.449,1.078-.09.719-.629a7.858,7.858,0,0,1,1.527-.9,8.285,8.285,0,0,1,1.662-.539,12.213,12.213,0,0,0,1.707-.494,7.088,7.088,0,0,1,1.752-.4h3.1a3.5,3.5,0,0,1,1.393.27,12.313,12.313,0,0,1,1.258.629,2.323,2.323,0,0,1,.584.629,3.8,3.8,0,0,0,.539.674A1.821,1.821,0,0,1,68.7-7.5q.135.4.225.764,0,.988-.045,1.932a5.991,5.991,0,0,1-.359,1.8,4.631,4.631,0,0,1-.988,1.572A3.274,3.274,0,0,0,66.682.18a.8.8,0,0,0,.09.359.892.892,0,0,1,.09.4A.486.486,0,0,0,67,1.3a1.2,1.2,0,0,1,.225.314ZM64.077-25.066h.449a2.082,2.082,0,0,0,.4-.045.988.988,0,0,0,.4-.18,2.36,2.36,0,0,1,.359-.225l.449-.9v-.494a1.2,1.2,0,0,0-.09-.449,1.758,1.758,0,0,0-.225-.4,2.36,2.36,0,0,1-.225-.359,21.031,21.031,0,0,0-2.021-1.3,16.939,16.939,0,0,1-2.021-1.348,13.59,13.59,0,0,0-2.021-1.3q-1.033-.539-2.111-1.078h-.494a2.285,2.285,0,0,0-.449.045.988.988,0,0,0-.4.18,2.36,2.36,0,0,1-.359.225l-.449.9v.449a2.082,2.082,0,0,0,.045.4.988.988,0,0,0,.18.4,2.36,2.36,0,0,1,.225.359q1.078.629,2.111,1.213a21.031,21.031,0,0,1,2.021,1.3q.988.719,2.066,1.393T64.077-25.066ZM90.688-1.707A4,4,0,0,0,92.4-2.291q.809-.494,1.572-1.033a17.26,17.26,0,0,1,1.572-.988A13.334,13.334,0,0,0,97.067-5.3l.449-.9v-.449a2.082,2.082,0,0,0-.045-.4.988.988,0,0,0-.18-.4,2.36,2.36,0,0,1-.225-.359l-.9-.449A2.181,2.181,0,0,0,95-8.131a5.068,5.068,0,0,0-1.033.584,9.057,9.057,0,0,1-.988.629,6.461,6.461,0,0,0-.943.629h-.18q-.449-2.605-.674-5.166t-.314-5.256q-.09-2.7,0-5.346a18.6,18.6,0,0,0-.539-5.166l-.9-.449h-.449a2.082,2.082,0,0,0-.4.045.988.988,0,0,0-.4.18,2.361,2.361,0,0,1-.359.225,2.937,2.937,0,0,1-.18.314,1,1,0,0,0-.135.314q-.045.18-.09.314a2.464,2.464,0,0,1-.135.314q.09,2.965.045,5.975t.18,6.064q.225,3.055.494,6.02a18.313,18.313,0,0,0,1.437,5.66,2.936,2.936,0,0,1,.314.18,1,1,0,0,0,.314.135q.18.045.314.09A2.465,2.465,0,0,1,90.688-1.707Zm24.078-4.852h.449a2.082,2.082,0,0,0,.4-.045.988.988,0,0,0,.4-.18,2.36,2.36,0,0,1,.359-.225l.449-.9q-.09-1.977-.225-3.908t-.27-3.953q-.135-2.021-.18-4a8.982,8.982,0,0,0-.854-3.684l-.9-.449h-.449a2.082,2.082,0,0,0-.4.045.988.988,0,0,0-.4.18,2.361,2.361,0,0,1-.359.225,2.938,2.938,0,0,1-.18.314,1,1,0,0,0-.135.314q-.045.18-.09.314a2.466,2.466,0,0,1-.135.314,27.012,27.012,0,0,1,.449,3.773q.09,1.887.225,3.863t.18,3.908a9.882,9.882,0,0,0,.764,3.639Zm15.741,2.426a5.278,5.278,0,0,0,.943-.09q.494-.09.9-.18a2.4,2.4,0,0,0,.809-.359q.4-.27.764-.539a18.428,18.428,0,0,0,3.145-4.178,19.9,19.9,0,0,0,1.887-4.852q.629-2.561,1.123-5.076a22.983,22.983,0,0,0,.4-5.211,4.5,4.5,0,0,1,1.527.449,14.965,14.965,0,0,0,1.438.629,5.8,5.8,0,0,1,1.393.764q.674.494,1.3,1.033.988,1.078,1.932,2.246a15.536,15.536,0,0,1,1.617,2.426,10.37,10.37,0,0,1,.988,2.7,18.974,18.974,0,0,1,.4,2.875,5.418,5.418,0,0,1,0,1.393,6.362,6.362,0,0,1-.314,1.3,9.915,9.915,0,0,0-.359,1.258q-.135.629-.314,1.258a2.524,2.524,0,0,0,.045.494l.09.449a.988.988,0,0,0,.18.4,2.36,2.36,0,0,1,.225.359l.9.449h.449a2.082,2.082,0,0,0,.4-.045.988.988,0,0,0,.4-.18,2.36,2.36,0,0,1,.359-.225,3.355,3.355,0,0,0,.494-1.258q.135-.719.314-1.348t.314-1.348q.135-.719.314-1.348a30.774,30.774,0,0,0-.225-3.729,15.771,15.771,0,0,0-.9-3.639,12.894,12.894,0,0,0-1.8-3.279q-1.123-1.482-2.291-2.92a23.907,23.907,0,0,0-2.066-1.842,11.137,11.137,0,0,0-2.246-1.393q-1.168-.539-2.426-.988a12.66,12.66,0,0,0-2.7-.629q-1.527,0-3.055.045a19.116,19.116,0,0,0-2.965.314,6.34,6.34,0,0,0-2.605,1.123q-1.168.854-2.336,1.752a22.665,22.665,0,0,0-2.111,2.426q-.943,1.258-1.842,2.516a11.142,11.142,0,0,0-1.437,2.785,19.191,19.191,0,0,0-.809,3.055,10.4,10.4,0,0,0,0,1.932,18.171,18.171,0,0,0,.27,1.842,5.863,5.863,0,0,0,.629,1.707,8.823,8.823,0,0,0,1.078,1.527q.629.539,1.3,1.078t1.348,1.033a4.541,4.541,0,0,0,1.482.719A10.275,10.275,0,0,0,130.507-4.133Zm.988-3.773-.449.27a2.986,2.986,0,0,1-.943-.135,4.777,4.777,0,0,1-.809-.359,6.322,6.322,0,0,1-.809-.539q-.4-.314-.764-.584a2.7,2.7,0,0,1-.584-.584,5.016,5.016,0,0,1-.4-.674,3.3,3.3,0,0,1-.27-.764q-.09-.4-.18-.764a6.7,6.7,0,0,1,.18-2.7,15.511,15.511,0,0,1,.943-2.471,15.854,15.854,0,0,1,1.348-2.291,21.819,21.819,0,0,1,1.662-2.066q.629-.629,1.3-1.213t1.348-1.078a4.541,4.541,0,0,1,1.482-.719,6.35,6.35,0,0,1,1.707-.225h.629a25.186,25.186,0,0,1-.225,4.537,33,33,0,0,1-.943,4.4,36.88,36.88,0,0,1-1.527,4.312A9.719,9.719,0,0,1,131.5-7.906ZM190.63,3.145a.8.8,0,0,1,.359-.09.8.8,0,0,0,.359-.09,2.938,2.938,0,0,0,.314-.18,2.936,2.936,0,0,1,.314-.18l.449-.9a10.531,10.531,0,0,0-.09-1.393,10.528,10.528,0,0,1-.09-1.393V-2.471a3.275,3.275,0,0,0-.27-1.3V-7.008a5.812,5.812,0,0,1,1.482,1.482q.584.854,1.258,1.707a19.965,19.965,0,0,1,1.213,1.707q.539.854,1.168,1.752l.9.449h.494a2.285,2.285,0,0,0,.449-.045.988.988,0,0,0,.4-.18,2.36,2.36,0,0,1,.359-.225l.449-.9a1.8,1.8,0,0,0-.135-1.078,5.11,5.11,0,0,0-.539-.854,5.11,5.11,0,0,1-.539-.854,5.088,5.088,0,0,0-.584-.9,12.548,12.548,0,0,1-1.3-1.527q-.584-.809-1.213-1.572t-1.3-1.527q-.674-.764-1.3-1.572v-.18l.988.09q.539,0,1.033-.045t1.033-.045a3.429,3.429,0,0,0,.988-.135,3.961,3.961,0,0,0,.9-.4l.449-.9v-.449a2.082,2.082,0,0,0-.045-.4.988.988,0,0,0-.18-.4,2.361,2.361,0,0,1-.225-.359l-.9-.449-2.156.09-3.324-.09a6.057,6.057,0,0,1-.135-.719,7,7,0,0,1-.045-.854,3.554,3.554,0,0,0-.09-.854,1.333,1.333,0,0,0-.359-.629l-.9-.449h-.449a2.082,2.082,0,0,0-.4.045.988.988,0,0,0-.4.18,2.361,2.361,0,0,1-.359.225,2.937,2.937,0,0,1-.18.314,1,1,0,0,0-.135.314q-.045.18-.09.314a2.466,2.466,0,0,1-.135.314l.09,1.527v.449l-.449.09-.539-.09h-1.572a8.028,8.028,0,0,0-1.482.135,5.164,5.164,0,0,1-1.527.045,1.564,1.564,0,0,0-1.348.449l-.449.9v.449a2.083,2.083,0,0,0,.045.4.988.988,0,0,0,.18.4,2.36,2.36,0,0,1,.225.359,2.936,2.936,0,0,1,.314.18,1,1,0,0,0,.314.135q.18.045.314.09a2.464,2.464,0,0,1,.314.135l2.336-.18H186.5a10.512,10.512,0,0,1-1.437,2.516q-.9,1.168-1.887,2.336a21.074,21.074,0,0,0-1.752,2.381,15.826,15.826,0,0,0-1.3,2.561v.494a2.286,2.286,0,0,0,.045.449.988.988,0,0,0,.18.4,2.36,2.36,0,0,1,.225.359l.9.449h.494a1.2,1.2,0,0,0,.449-.09,3.142,3.142,0,0,0,.449-.225q.225-.135.4-.225a9.584,9.584,0,0,1,.943-2.021q.584-.943,1.258-1.887a16.858,16.858,0,0,1,1.482-1.8,8.8,8.8,0,0,0,1.348-1.842h.18q0,1.258.045,2.516t.18,2.471a17.822,17.822,0,0,1,.09,2.561,4,4,0,0,0,.584,2.336,2.938,2.938,0,0,1,.314.18A1,1,0,0,0,190,2.92q.18.045.314.09A2.465,2.465,0,0,1,190.63,3.145Zm-18.867-.988h.449a2.082,2.082,0,0,0,.4-.045.988.988,0,0,0,.4-.18,2.36,2.36,0,0,1,.359-.225l.449-.9-.09-2.246v-5.75l1.168,1.168q.27.27.539.494l.539.449a6.319,6.319,0,0,0,.539.4,2,2,0,0,0,.629.27h.449a2.082,2.082,0,0,0,.4-.045.988.988,0,0,0,.4-.18,2.36,2.36,0,0,1,.359-.225l.449-.9-.09-1.078a3.208,3.208,0,0,0-.9-.9,3.832,3.832,0,0,1-.943-.9,9.206,9.206,0,0,0-.854-.988q-.449-.449-.9-.988v-.18l.9.09a3.87,3.87,0,0,0,.629-.045q.27-.045.584-.09a1.431,1.431,0,0,0,.539-.18q.225-.135.494-.314l.449-.9v-.449a2.082,2.082,0,0,0-.045-.4.988.988,0,0,0-.18-.4,2.361,2.361,0,0,1-.225-.359l-.9-.449-.9.09-3.234-.27.09-1.707v-.539a2.524,2.524,0,0,0-.045-.494.988.988,0,0,0-.18-.4,2.36,2.36,0,0,1-.225-.359l-.9-.449h-.449a2.082,2.082,0,0,0-.4.045.988.988,0,0,0-.4.18,2.36,2.36,0,0,1-.359.225,1.692,1.692,0,0,0-.4.674,3.926,3.926,0,0,0-.18.854q-.045.449-.045.854v.854h-4.312q-1.078,0-2.111.045a4.041,4.041,0,0,0-1.932.584l-.449.9v.449a2.082,2.082,0,0,0,.045.4.988.988,0,0,0,.18.4,2.361,2.361,0,0,1,.225.359,2.938,2.938,0,0,1,.314.18,1,1,0,0,0,.314.135q.18.045.314.09a2.465,2.465,0,0,1,.314.135l.9-.18h3.5a13.563,13.563,0,0,1-1.213,1.707L164.89-7.906l-1.348,1.617a14.241,14.241,0,0,1-1.482,1.527l-.719,1.168V-3.1a2.285,2.285,0,0,0,.045.449.988.988,0,0,0,.18.4,2.361,2.361,0,0,1,.225.359l.9.449h.449a2.082,2.082,0,0,0,.4-.045.988.988,0,0,0,.4-.18,2.36,2.36,0,0,1,.359-.225l.27-.539h.18l5.3-6.289h.18v5.3q0,1.348.045,2.7a5.79,5.79,0,0,0,.584,2.426Zm8-20.574h.449a2.082,2.082,0,0,0,.4-.045.988.988,0,0,0,.4-.18,2.361,2.361,0,0,1,.359-.225l.449-.9v-.584a2.79,2.79,0,0,0-.045-.539q-.045-.225-.09-.494a3.545,3.545,0,0,0-.135-.539l.09-4.852,6.2,7.008,1.078.629h.494a2.285,2.285,0,0,0,.449-.045.988.988,0,0,0,.4-.18,2.36,2.36,0,0,1,.359-.225l.449-.9v-.449a2.083,2.083,0,0,0-.045-.4.988.988,0,0,0-.18-.4,2.36,2.36,0,0,1-.225-.359l-.988-1.168a15.274,15.274,0,0,1-1.393-1.393L186.9-26.189q-.674-.764-1.3-1.527T184.341-29.2v-.18l3.863.539h1.168a.942.942,0,0,0,.494-.135q.225-.135.494-.314l.449-.9v-.494a1.2,1.2,0,0,0-.09-.449,1.758,1.758,0,0,0-.225-.4,2.36,2.36,0,0,1-.225-.359,6.27,6.27,0,0,0-2.111-.539q-1.123-.09-2.2-.225t-2.2-.314a9.729,9.729,0,0,0-2.291-.09l.18-2.965v-.494a2.285,2.285,0,0,0-.045-.449.988.988,0,0,0-.18-.4,2.361,2.361,0,0,1-.225-.359l-.9-.449h-.449a2.824,2.824,0,0,0-.449.045,1.014,1.014,0,0,0-.449.18,2.36,2.36,0,0,1-.359.225A2.547,2.547,0,0,0,178.1-36.7a5.179,5.179,0,0,0-.135,1.168q0,.584-.045,1.168t-.045,1.213q-1.258,0-2.426.045t-2.381.045q-1.213,0-2.426.045a4.91,4.91,0,0,0-2.2.584l-.449.9v.449a2.083,2.083,0,0,0,.045.4.988.988,0,0,0,.18.4,2.36,2.36,0,0,1,.225.359l.9.449,1.707-.09h3.234q-.809.9-1.617,1.842T171-25.83q-.854.943-1.707,1.932a10.932,10.932,0,0,1-1.842,1.707l-.539.988v.494a2.286,2.286,0,0,0,.045.449.988.988,0,0,0,.18.4,2.36,2.36,0,0,1,.225.359l.9.449h.494a2.285,2.285,0,0,0,.449-.045.988.988,0,0,0,.4-.18,2.36,2.36,0,0,1,.359-.225q.9-.988,1.842-2.021t1.887-2.111q.943-1.078,1.887-2.111a20.539,20.539,0,0,1,2.021-1.932h.27l.18.629-.09,3.145v1.348a9.857,9.857,0,0,0,.09,1.3q.09.674.225,1.258a3.392,3.392,0,0,0,.494,1.123Zm39.1,22.281h.449a2.082,2.082,0,0,0,.4-.045.988.988,0,0,0,.4-.18,2.361,2.361,0,0,1,.359-.225,3.391,3.391,0,0,0,.494-1.123,7.016,7.016,0,0,1,.359-1.123q.225-.539.4-1.123t.359-1.213q-.09-.9-.09-1.8a16.727,16.727,0,0,0-.09-1.752q-.09-.854-.225-1.707t-.314-1.662v-.27q.988.09,1.977.09t1.932.045q.943.045,1.932.135t1.887.18h.764a6.164,6.164,0,0,0,.764-.045,6.062,6.062,0,0,0,.719-.135,1.333,1.333,0,0,0,.629-.359l.449-.9v-.449a2.083,2.083,0,0,0-.045-.4.988.988,0,0,0-.18-.4,2.36,2.36,0,0,1-.225-.359,8.661,8.661,0,0,0-2.65-.494q-1.393-.045-2.74-.18T223.8-11.77q-1.437,0-2.785-.09a14.355,14.355,0,0,1,1.3-2.111,13.322,13.322,0,0,0,1.3-2.156q.539-1.123,1.123-2.2a19.121,19.121,0,0,0,1.033-2.246v-.539a3.273,3.273,0,0,0-.045-.539,1.4,1.4,0,0,0-.18-.494q-.135-.225-.225-.4a2.883,2.883,0,0,0-1.393-.674,13.347,13.347,0,0,0-1.617-.18l-1.662-.09q-.809-.045-1.617-.135a10.681,10.681,0,0,0-2.2.045q-1.033.135-2.111.225a12.96,12.96,0,0,1-2.156,0,3.227,3.227,0,0,0-1.977.449l-.449.9v.449a2.082,2.082,0,0,0,.045.4.988.988,0,0,0,.18.4,2.36,2.36,0,0,1,.225.359,2.36,2.36,0,0,1,.359.225,1.012,1.012,0,0,0,.359.18q.18.045.4.09a1.6,1.6,0,0,1,.4.135,7.115,7.115,0,0,1,1.168-.09q.629,0,1.213-.045t1.168-.045a3.528,3.528,0,0,0,1.123-.18l4.672.18q-.449.988-.943,2.021A19.164,19.164,0,0,1,219.4-15.9a21.46,21.46,0,0,1-1.348,1.887,6.362,6.362,0,0,0-1.078,1.977q-1.527,0-3.01.045T211-11.949a15.81,15.81,0,0,0-2.92.27,12.816,12.816,0,0,0-2.7.809l-.629,1.078v.449a2.083,2.083,0,0,0,.045.4.988.988,0,0,0,.18.4,2.36,2.36,0,0,1,.225.359l.9.449a10.531,10.531,0,0,0,2.021-.359,8.649,8.649,0,0,1,2.021-.314q1.078-.045,2.156-.045t2.156-.09h3.055q.18.719.359,1.482t.359,1.482a6.279,6.279,0,0,1,.18,1.527,7.435,7.435,0,0,0,.18,1.617,2.181,2.181,0,0,1-.135,1.168q-.225.539-.449,1.033a10.579,10.579,0,0,0-.4,1.033,7.094,7.094,0,0,0-.27,1.078,2.082,2.082,0,0,0,.045.4q.045.225.09.4a1.012,1.012,0,0,0,.18.359,2.36,2.36,0,0,1,.225.359ZM233.5-18.059a.8.8,0,0,1,.359-.09.8.8,0,0,0,.359-.09,2.938,2.938,0,0,0,.314-.18,2.936,2.936,0,0,1,.314-.18,2.92,2.92,0,0,0,.494-1.8,7.788,7.788,0,0,1,.135-1.887,18.176,18.176,0,0,0,.27-1.842,18.167,18.167,0,0,1,.27-1.842v-1.3a.836.836,0,0,0-.18-.539q-.18-.225-.359-.494a5.863,5.863,0,0,0-1.707-.629q-.9-.18-1.842-.359t-1.887-.27q-.943-.09-1.932-.09a4.348,4.348,0,0,1,.629-1.482,9.042,9.042,0,0,0,.764-1.393l.629-1.437q.314-.719.674-1.437v-.494a2.286,2.286,0,0,0-.045-.449.988.988,0,0,0-.18-.4,2.36,2.36,0,0,1-.225-.359l-.9-.449h-.449a2.082,2.082,0,0,0-.4.045.988.988,0,0,0-.4.18,2.361,2.361,0,0,1-.359.225,4.941,4.941,0,0,0-.854,1.438q-.314.809-.629,1.527A11.14,11.14,0,0,1,225.6-32.7a7.119,7.119,0,0,0-.719,1.527l.09.9v.359l-4.133-.18.09-.359a4.156,4.156,0,0,0-.359-1.707,15.816,15.816,0,0,1-.629-1.662q-.27-.854-.539-1.662a7.119,7.119,0,0,0-.719-1.527l-.988-.449h-.449a2.082,2.082,0,0,0-.4.045.988.988,0,0,0-.4.18,2.361,2.361,0,0,1-.359.225l-.449.9a3.033,3.033,0,0,0,.18,1.482l.539,1.348a10.794,10.794,0,0,1,.449,1.393,5.286,5.286,0,0,0,.539,1.348v.27l-4.312-.18a2.542,2.542,0,0,0-.449-1.752,9.216,9.216,0,0,1-.9-1.572l-.719-1.617a7.858,7.858,0,0,0-.9-1.527l-.9-.449h-.449a2.082,2.082,0,0,0-.4.045.988.988,0,0,0-.4.18,2.359,2.359,0,0,1-.359.225l-.449.9a2.308,2.308,0,0,0,.225,1.348q.314.629.584,1.258t.584,1.213q.314.584.674,1.213v.27a11.578,11.578,0,0,0-1.437.09q-.719.09-1.393.135a10.389,10.389,0,0,0-1.348.18,2.349,2.349,0,0,0-1.213.674,4.293,4.293,0,0,0-.9,2.066q-.18,1.168-.27,2.336t-.27,2.291q-.18,1.123-.359,2.291a.8.8,0,0,0,.09.359.892.892,0,0,1,.09.4.486.486,0,0,0,.135.359,1.2,1.2,0,0,1,.225.314l.9.449h.449a2.082,2.082,0,0,0,.4-.045.988.988,0,0,0,.4-.18,2.361,2.361,0,0,1,.359-.225,3.53,3.53,0,0,0,.584-1.842,13.751,13.751,0,0,1,.225-1.977q.18-.943.27-1.932t.27-1.977l1.8-.27,6.064.359q3.01.18,6.064.27t6.064.27q3.01.18,5.975.629a3.022,3.022,0,0,1-.045,1.168,4.614,4.614,0,0,0-.135,1.123,4.614,4.614,0,0,1-.135,1.123q-.135.539-.225,1.078v1.393a1.585,1.585,0,0,0,.135.629,3.621,3.621,0,0,0,.314.584,2.938,2.938,0,0,1,.314.18,1,1,0,0,0,.314.135q.18.045.314.09A2.465,2.465,0,0,1,233.5-18.059ZM266.584,2.7l2.516-.18,3.684.09a2.524,2.524,0,0,0,.494-.045l.449-.09a.988.988,0,0,0,.4-.18,2.359,2.359,0,0,1,.359-.225l.449-.9V.719a2.083,2.083,0,0,0-.045-.4.988.988,0,0,0-.18-.4,2.359,2.359,0,0,1-.225-.359,2.359,2.359,0,0,1-.359-.225.988.988,0,0,0-.4-.18,2.286,2.286,0,0,0-.449-.045.891.891,0,0,1-.4-.09h-2.516q-.629,0-1.213.045t-1.213.135q-1.078,0-2.111-.045t-2.021-.18q-.988-.135-2.021-.18t-2.111-.045V-2.785h5.615a2.7,2.7,0,0,0,1.662-.539l.449-.9v-.449a2.083,2.083,0,0,0-.045-.4.988.988,0,0,0-.18-.4,2.361,2.361,0,0,1-.225-.359l-.988-.539-.809.09h-5.57V-7.367q1.258,0,2.516-.09t2.516-.09q1.258,0,2.516-.09a6.149,6.149,0,0,0,2.336-.629l.449-.9a18.328,18.328,0,0,0-.225-2.92q-.225-1.393-.494-2.785t-.539-2.875a10.153,10.153,0,0,0-.9-2.74,6.41,6.41,0,0,0-1.887-.764q-.988-.225-2.021-.359a16.669,16.669,0,0,0-2.156-.135q-1.123,0-2.2-.09l-3.773.09h-1.258a7.969,7.969,0,0,1-1.213-.09q-.584-.09-1.168-.135t-1.213-.135h-1.168a.942.942,0,0,0-.494.135q-.225.135-.494.314v.18l-.719.359A5.725,5.725,0,0,0,247-18.553q-.18,1.393-.4,2.785t-.359,2.785a16.954,16.954,0,0,1-.494,2.74v.584a2.28,2.28,0,0,0,.09.629,5.658,5.658,0,0,0,.18.539,2.755,2.755,0,0,0,.27.494h.18l.359.809a2.936,2.936,0,0,1,.314.18,1,1,0,0,0,.314.135q.18.045.314.09a2.465,2.465,0,0,1,.314.135,5.781,5.781,0,0,1,.764-.135,1.239,1.239,0,0,0,.674-.27,1.239,1.239,0,0,1,.674-.27,5.78,5.78,0,0,0,.764-.135h5.031V-6.2l-3.414.27-.629-.09H250.5a1.336,1.336,0,0,0-.674.18q-.314.18-.584.359l-.449.9v.449a2.082,2.082,0,0,0,.045.4.988.988,0,0,0,.18.4,2.36,2.36,0,0,1,.225.359,3.621,3.621,0,0,0,.584.314,1.81,1.81,0,0,0,.719.135h.764a2.954,2.954,0,0,1,.719.09l2.336-.27h1.707v1.527l-.988.09q-.719,0-1.437-.045t-1.393-.045q-.674,0-1.393-.045a6.334,6.334,0,0,1-1.348-.225h-2.336a14.479,14.479,0,0,0-2.291.18,19.146,19.146,0,0,1-2.291.225,4.827,4.827,0,0,0-2.156.584l-.449.9V.9a2.082,2.082,0,0,0,.045.4.988.988,0,0,0,.18.4,2.361,2.361,0,0,1,.225.359,2.938,2.938,0,0,1,.314.18,1,1,0,0,0,.314.135q.18.045.314.09a2.465,2.465,0,0,1,.314.135,7.969,7.969,0,0,0,1.213-.09,7.969,7.969,0,0,1,1.213-.09,4.807,4.807,0,0,0,1.168-.135,11.575,11.575,0,0,1,1.168-.225h1.662a15.045,15.045,0,0,1,1.662.09q.809.09,1.617.135t1.617.135l2.156-.09,2.516.09,1.438-.18q.988,0,1.932.045l1.842.09q.9.045,1.842.18A13.017,13.017,0,0,0,266.584,2.7ZM255.8-10.961h-4.4a5.907,5.907,0,0,0-1.437.18h-.539l.27-2.336h1.572a8.028,8.028,0,0,1,1.482.135,8.028,8.028,0,0,0,1.482.135H255.8Zm10.422-.09-5.031.18h-1.8v-1.707q.809,0,1.707-.045a7.952,7.952,0,0,1,1.707.09l1.617.27a10.379,10.379,0,0,0,1.707.135l.09.539Zm-.719-4.582a4.665,4.665,0,0,1-1.482-.225,4.517,4.517,0,0,0-1.437-.225h-3.1v-2.156h2.875a7.085,7.085,0,0,1,1.393.135q.674.135,1.3.314l.449,1.887Zm-9.613-.719-.09.09a9.893,9.893,0,0,0-1.393-.09,5.06,5.06,0,0,1-1.393-.18,4.886,4.886,0,0,0-1.348-.18h-1.437a1.574,1.574,0,0,0,.09-.494,2.285,2.285,0,0,1,.045-.449q.045-.225.09-.494a.8.8,0,0,1,.225-.449q.629.09,1.3.135t1.3.135a9.2,9.2,0,0,0,1.3.09h1.3Zm-16.262-6.289q1.078,0,2.066-.09t2.021-.18a19.675,19.675,0,0,0,1.977-.27q.943-.18,1.932-.359h3.234a2.638,2.638,0,0,1,.988.18l.809-.09,1.348.09,2.156-.18h2.92q1.393,0,2.785.09t2.74.225q1.348.135,2.7.225l1.887-.18,2.875.09a2.158,2.158,0,0,1,.674-.09,5.129,5.129,0,0,0,.719-.045,2.486,2.486,0,0,0,.629-.18,3.622,3.622,0,0,0,.584-.314l.449-.9v-.449a2.083,2.083,0,0,0-.045-.4.988.988,0,0,0-.18-.4,2.359,2.359,0,0,1-.225-.359l-.9-.449h-3.01q-.764,0-1.482.045t-1.437.135l-4.133-.27-.27-2.875v-.719l3.953.18h.809a3.527,3.527,0,0,0,.764-.09q.4-.09.764-.18a1.333,1.333,0,0,0,.629-.359l.449-.9v-.449a2.083,2.083,0,0,0-.045-.4.988.988,0,0,0-.18-.4,2.359,2.359,0,0,1-.225-.359,1.347,1.347,0,0,0-.854-.4q-.494-.045-1.033-.045h-1.078a5.048,5.048,0,0,1-.988-.09l-5.66.18h-1.527l.09-3.5v-.494a2.284,2.284,0,0,0-.045-.449.988.988,0,0,0-.18-.4,2.361,2.361,0,0,1-.225-.359l-.9-.449h-.494a2.286,2.286,0,0,0-.449.045.988.988,0,0,0-.4.18,2.359,2.359,0,0,1-.359.225,3.392,3.392,0,0,0-.494,1.123,5.586,5.586,0,0,0-.135,1.258v2.65a9,9,0,0,1-2.021-.045,13.973,13.973,0,0,0-1.977-.135q-1.033,0-2.066-.045a12.661,12.661,0,0,1-1.932-.225h-1.842a4.149,4.149,0,0,0-.9.09,1.982,1.982,0,0,0-.764.359l-.449.9v.449a2.083,2.083,0,0,0,.045.4.988.988,0,0,0,.18.4,2.36,2.36,0,0,1,.225.359,2.615,2.615,0,0,0,1.393.494q.764.045,1.572.045a9.031,9.031,0,0,1,1.572.135,9.031,9.031,0,0,0,1.572.135l-.09.27.09,2.066v1.168a13.878,13.878,0,0,0-2.965.135l-2.875.449a18.886,18.886,0,0,1-2.92.225,6.041,6.041,0,0,0-2.74.629l-.449.9v.449a2.082,2.082,0,0,0,.045.4.988.988,0,0,0,.18.4,2.361,2.361,0,0,1,.225.359Zm20.574-4.4h-2.65q-.674,0-1.3.045t-1.258.135l-1.258-.09-.09-1.348v-1.977l2.156-.18,4.133.27.27,2.066ZM294.993,2.426a.8.8,0,0,1,.359-.09.8.8,0,0,0,.359-.09,2.935,2.935,0,0,0,.314-.18,2.938,2.938,0,0,1,.314-.18,9.967,9.967,0,0,0,.9-1.662,13.577,13.577,0,0,1,.809-1.617,13.568,13.568,0,0,0,.809-1.617q.359-.854.719-1.662,1.078-2.156,2.291-4.312t2.426-4.268q1.213-2.111,2.65-4.133t2.785-4l.449-.9v-.539a1.2,1.2,0,0,0-.135-.539,1.71,1.71,0,0,0-.314-.449,1.128,1.128,0,0,1-.27-.449,8.472,8.472,0,0,0-2.336-1.393q-1.258-.494-2.471-1.033t-2.426-1.123a25.332,25.332,0,0,0-2.471-1.033q-.629-.359-1.258-.674t-1.3-.629q-.674-.314-1.3-.629A2.212,2.212,0,0,1,294.9-31.8l-.719-.359v-.18l-.9-.449h-.449a2.082,2.082,0,0,0-.4.045.988.988,0,0,0-.4.18,2.359,2.359,0,0,1-.359.225,26.243,26.243,0,0,1-1.887,3.324q-1.078,1.617-2.2,3.189a28.357,28.357,0,0,0-2.021,3.279q-.9,1.707-1.707,3.414v.494a2.284,2.284,0,0,0,.045.449.988.988,0,0,0,.18.4,2.361,2.361,0,0,1,.225.359l.9.449h.449a2.082,2.082,0,0,0,.4-.045.988.988,0,0,0,.4-.18,2.359,2.359,0,0,1,.359-.225q.809-1.348,1.527-2.74t1.527-2.74q.809-1.348,1.707-2.605t1.8-2.605q1.527.809,3.1,1.572t3.145,1.438q1.572.674,3.1,1.437t3.145,1.393q-1.707,2.7-3.459,5.436t-3.324,5.525q-1.572,2.785-2.965,5.705T293.286.18V.674a2.286,2.286,0,0,0,.045.449.988.988,0,0,0,.18.4,2.359,2.359,0,0,1,.225.359,2.935,2.935,0,0,1,.314.18,1,1,0,0,0,.314.135q.18.045.314.09A2.464,2.464,0,0,1,294.993,2.426ZM337.237,0h.449a2.082,2.082,0,0,0,.4-.045.988.988,0,0,0,.4-.18,2.362,2.362,0,0,1,.359-.225q1.168-2.516,2.426-5.031t2.471-5.031q1.213-2.516,2.605-5.031a55.684,55.684,0,0,0,2.471-5.031v-.494a2.286,2.286,0,0,0-.045-.449.988.988,0,0,0-.18-.4,2.361,2.361,0,0,1-.225-.359,23.207,23.207,0,0,0-4.043-.9q-2.066-.27-4.178-.449t-4.268-.314q-2.156-.135-4.223-.314l-4.133.09-1.168-.09-1.258.09-.539-.09h-.494a2.285,2.285,0,0,0-.449.045.988.988,0,0,0-.4.18,2.362,2.362,0,0,1-.359.225l-.449.9v.449a2.08,2.08,0,0,0,.045.4.988.988,0,0,0,.18.4,2.361,2.361,0,0,1,.225.359,1.2,1.2,0,0,1,.314.225.683.683,0,0,0,.359.18q.225.045.4.09a1.756,1.756,0,0,1,.359.135l1.078-.09.809.09,1.438-.09q2.156,0,4.223.045t4.178.27q2.111.225,4.223.314a22.779,22.779,0,0,1,4.088.539q-.988,2.246-2.2,4.4t-2.246,4.357q-1.033,2.2-2.156,4.357t-2.021,4.4a1,1,0,0,0,.09.449,1.6,1.6,0,0,1,.135.4.988.988,0,0,0,.18.4,2.359,2.359,0,0,1,.225.359Zm5.211-27.852a2.524,2.524,0,0,0,.494-.045l.449-.09a.988.988,0,0,0,.4-.18,2.36,2.36,0,0,1,.359-.225l.449-.9v-.449a2.083,2.083,0,0,0-.045-.4.988.988,0,0,0-.18-.4,2.361,2.361,0,0,1-.225-.359,13.11,13.11,0,0,0-3.639-.764q-1.932-.135-3.863-.314t-3.773-.4q-1.842-.225-3.728-.4h-.494a2.285,2.285,0,0,0-.449.045.988.988,0,0,0-.4.18,2.362,2.362,0,0,1-.359.225l-.449.9V-31a2.08,2.08,0,0,0,.045.4.988.988,0,0,0,.18.4,2.361,2.361,0,0,1,.225.359,2.9,2.9,0,0,0,.719.4,5.227,5.227,0,0,0,.809.225,4.357,4.357,0,0,0,.853.09,4.357,4.357,0,0,1,.854.09l.27-.09q1.438.18,2.83.314t2.92.27q1.527.135,2.92.314T342.448-27.852ZM377.505-.09h.449a2.082,2.082,0,0,0,.4-.045.988.988,0,0,0,.4-.18,2.36,2.36,0,0,1,.359-.225q.988-2.7,1.707-5.436t1.707-5.436q.988-2.7,1.842-5.48t1.572-5.48v-.584a3.559,3.559,0,0,0-.045-.584,1.061,1.061,0,0,0-.225-.494,1.591,1.591,0,0,1-.27-.494,27.21,27.21,0,0,0-5.346-1.258q-2.74-.359-5.525-.629t-5.615-.359a54.991,54.991,0,0,1-5.525-.449h-.539a3.274,3.274,0,0,0-.539.045,1.06,1.06,0,0,0-.494.225,2.357,2.357,0,0,1-.4.27l-.449.9v.449a2.08,2.08,0,0,0,.045.4.988.988,0,0,0,.18.4,2.361,2.361,0,0,1,.225.359,25.179,25.179,0,0,0,5.031.764l5.211.27q2.605.135,5.256.449t5.166.764q-.629,2.516-1.393,5.031t-1.707,4.941a41.172,41.172,0,0,0-1.572,4.941q-.629,2.516-1.348,5.031a.8.8,0,0,0,.09.359.891.891,0,0,1,.09.4.486.486,0,0,0,.135.359,1.2,1.2,0,0,1,.225.314ZM391.97-25.336h.449a2.082,2.082,0,0,0,.4-.045.988.988,0,0,0,.4-.18,2.359,2.359,0,0,1,.359-.225l.449-.9q-.09-.9-.09-1.8v-3.594a2.628,2.628,0,0,0-.539-1.617l-.9-.449h-.449a2.082,2.082,0,0,0-.4.045.988.988,0,0,0-.4.18,2.362,2.362,0,0,1-.359.225,2.942,2.942,0,0,1-.18.314,1,1,0,0,0-.135.314q-.045.18-.09.314a2.471,2.471,0,0,1-.135.314,15.477,15.477,0,0,1,.09,1.707v1.752q0,.854.045,1.707a2.409,2.409,0,0,0,.584,1.482Zm-5.3-.09h.449a2.082,2.082,0,0,0,.4-.045.988.988,0,0,0,.4-.18,2.359,2.359,0,0,1,.359-.225l.449-.9a11.218,11.218,0,0,0-.135-1.752q-.135-.854-.225-1.752t-.18-1.752a3.649,3.649,0,0,0-.539-1.572l-.9-.449h-.449a2.082,2.082,0,0,0-.4.045.988.988,0,0,0-.4.18,2.36,2.36,0,0,1-.359.225,2.937,2.937,0,0,1-.18.314,1,1,0,0,0-.135.314q-.045.18-.09.314a2.462,2.462,0,0,1-.135.314,15.181,15.181,0,0,1,.27,1.617q.09.809.18,1.662l.18,1.707a3.051,3.051,0,0,0,.539,1.482Z" transform="translate(346 220)"/>
      <path id="パス_29266" data-name="パス 29266" class="cls-1" d="M-156,.656h.234a1.086,1.086,0,0,0,.211-.023.515.515,0,0,0,.211-.094,1.231,1.231,0,0,1,.188-.117l.234-.469-.141-2.812.141-3.562q.234.141.445.258a2.3,2.3,0,0,1,.4.281l.4.352a2.575,2.575,0,0,1,.352.375.588.588,0,0,1,.188.164.793.793,0,0,0,.211.188q.117.07.211.117a1.819,1.819,0,0,0,.234.094h.258a1.192,1.192,0,0,0,.234-.023.737.737,0,0,0,.234-.094q.117-.07.211-.117l.234-.469v-.234a1.086,1.086,0,0,0-.023-.211.515.515,0,0,0-.094-.211,1.231,1.231,0,0,1-.117-.187l-.516-.281v-.094l-.7-.7q-.234-.141-.469-.3t-.445-.3q-.211-.141-.445-.328a1.586,1.586,0,0,1-.375-.422l-.141-.141v-.141l2.672-3.281.234-.469v-.258a.627.627,0,0,0-.047-.234.917.917,0,0,0-.117-.211,1.231,1.231,0,0,1-.117-.187,1.107,1.107,0,0,0-.656-.258,6.147,6.147,0,0,1-.75-.094,6.147,6.147,0,0,0-.75-.094q-.375-.023-.75-.07-.047-.469-.047-.984t-.023-1.008q-.023-.492-.023-1.008a1.646,1.646,0,0,0-.234-.891l-.469-.234h-.234a1.086,1.086,0,0,0-.211.023.515.515,0,0,0-.211.094,1.231,1.231,0,0,1-.187.117,1.532,1.532,0,0,1-.094.164.521.521,0,0,0-.07.164q-.023.094-.047.164a1.286,1.286,0,0,1-.07.164l.047.8v2.437l-.328.047-.422-.047h-.961a.985.985,0,0,0-.445.094,2.463,2.463,0,0,0-.375.234l-.234.469v.234a1.086,1.086,0,0,0,.023.211.515.515,0,0,0,.094.211,1.231,1.231,0,0,1,.117.188l.469.234.469-.047.891.047.8-.094,2.3.094q-.75.984-1.523,1.992t-1.453,2.062q-.68,1.055-1.453,2.086a19.544,19.544,0,0,0-1.383,2.109v.258a1.192,1.192,0,0,0,.023.234.515.515,0,0,0,.094.211,1.231,1.231,0,0,1,.117.188l.469.234h.234a1.086,1.086,0,0,0,.211-.023.515.515,0,0,0,.211-.094A1.231,1.231,0,0,1-158.672-3l1.828-2.719h.047l-.094,2.437q.047.469.047.961t.047.961q.047.469.047.937a1.371,1.371,0,0,0,.281.844Zm4.5-.75a7.85,7.85,0,0,1,.867-.047,5.267,5.267,0,0,0,.867-.07,5.124,5.124,0,0,1,.844-.07,3.879,3.879,0,0,0,.844-.094l6.328.094h.281a1.317,1.317,0,0,0,.258-.023.737.737,0,0,0,.234-.094q.117-.07.211-.117l.234-.469v-.234a1.086,1.086,0,0,0-.023-.211.515.515,0,0,0-.094-.211,1.231,1.231,0,0,1-.117-.187,1.833,1.833,0,0,0-1.078-.328h-1.219q-.609,0-1.2-.023t-1.2-.023l.094-3.656-.047-1.078q0-.469.023-.891t.07-.867a5.9,5.9,0,0,0,.023-.914q-.023-.469-.023-.891l1.266.047h1.078a2.04,2.04,0,0,0,.539-.07,1.307,1.307,0,0,0,.445-.211l.234-.469v-.234a1.086,1.086,0,0,0-.023-.211.515.515,0,0,0-.094-.211,1.231,1.231,0,0,1-.117-.187,1.258,1.258,0,0,0-.75-.234h-.82q-.4,0-.82-.023t-.844-.023l.094-2.859v-.234a1.086,1.086,0,0,0-.023-.211.515.515,0,0,0-.094-.211,1.231,1.231,0,0,1-.117-.188l-.469-.234h-.234a1.086,1.086,0,0,0-.211.023.515.515,0,0,0-.211.094,1.231,1.231,0,0,1-.187.117,1.5,1.5,0,0,0-.3.844q-.023.469-.047.914t-.023.937v.961h-.914a7.85,7.85,0,0,0-.867.047,8.3,8.3,0,0,1-.914.047,1.376,1.376,0,0,0-.82.234l-.234.469v.234a1.086,1.086,0,0,0,.023.211.515.515,0,0,0,.094.211,1.231,1.231,0,0,1,.117.187,1.533,1.533,0,0,1,.164.094.521.521,0,0,0,.164.07l.188.047a.916.916,0,0,1,.188.07l1.219-.094h1.5v1.758a1.443,1.443,0,0,1-.094.539l.047,1.359-.094,4.687q-.609,0-1.2.047t-1.2.117a7.951,7.951,0,0,1-1.219.047,1.575,1.575,0,0,0-1.078.352l-.234.469v.234a1.086,1.086,0,0,0,.023.211.515.515,0,0,0,.094.211,1.231,1.231,0,0,1,.117.187Zm31.828,2.062h.234a1.086,1.086,0,0,0,.211-.023.515.515,0,0,0,.211-.094,1.231,1.231,0,0,1,.188-.117l.234-.469a2.727,2.727,0,0,0-.539-1.336,6.433,6.433,0,0,1-.75-1.266,8.031,8.031,0,0,0-.727-1.289q-.422-.609-.891-1.172l-.469-.234h-.234a1.086,1.086,0,0,0-.211.023.515.515,0,0,0-.211.094,1.231,1.231,0,0,1-.187.117l-.234.469a.912.912,0,0,0,.07.539,2.331,2.331,0,0,0,.281.469q.164.211.352.422a1.521,1.521,0,0,1,.281.445v.094q-.891.141-1.758.328a13.206,13.206,0,0,1-1.8.258q-.937.07-1.828.164l-1.781.187h-.469a11.72,11.72,0,0,1,.75-1.125q.422-.562.891-1.078t.914-1.055q.445-.539.914-1.055.8.047,1.523.047t1.453.07q.727.07,1.477.07t1.453.047h.258a1.192,1.192,0,0,0,.234-.023.515.515,0,0,0,.211-.094,1.231,1.231,0,0,1,.188-.117l.234-.469v-.234a1.086,1.086,0,0,0-.023-.211.515.515,0,0,0-.094-.211,1.231,1.231,0,0,1-.117-.187,10.5,10.5,0,0,0-2.555-.352q-1.336-.023-2.625-.094t-2.625-.117q-1.336-.047-2.648-.141l-1.453.047L-132-6.8h-.281a1.708,1.708,0,0,0-.281.023.729.729,0,0,0-.258.094,1.09,1.09,0,0,0-.211.164l-.234.469v.234a1.086,1.086,0,0,0,.023.211.515.515,0,0,0,.094.211,1.231,1.231,0,0,1,.117.188q.141.094.258.164a.537.537,0,0,0,.281.07,2.317,2.317,0,0,1,.328.023,1.742,1.742,0,0,1,.3.07l.563-.047,2.672.094a10.7,10.7,0,0,1-1.055,1.336,11.757,11.757,0,0,0-1.055,1.312q-.469.68-1.008,1.359a8.2,8.2,0,0,0-.914,1.43V.867a.627.627,0,0,0,.047.234.917.917,0,0,0,.117.211,1.231,1.231,0,0,1,.117.187,1.532,1.532,0,0,1,.164.094.521.521,0,0,0,.164.07q.094.023.164.047a1.286,1.286,0,0,1,.164.07,23.161,23.161,0,0,1,2.6-.422q1.336-.141,2.672-.234A25.018,25.018,0,0,0-123.8.8q1.313-.234,2.578-.516l1.078,1.453Zm2.813-9.937h.234a1.086,1.086,0,0,0,.211-.023.515.515,0,0,0,.211-.094,1.231,1.231,0,0,1,.188-.117l.234-.516v-.4a.629.629,0,0,0-.117-.375l-.234-.328q-.117-.164-.211-.3l-1.312-1.594-.75-.656a1.648,1.648,0,0,0-.375-.492,3.757,3.757,0,0,1-.422-.445q-.187-.234-.4-.492a4.191,4.191,0,0,1-.352-.492l-2.109-1.969-.562-.375q-.281-.281-.539-.562t-.539-.562l-.562-.562a1.946,1.946,0,0,1-.422-.609l-.469-.234a.946.946,0,0,0-.516.047,1.779,1.779,0,0,1-.516.117.79.79,0,0,0-.469.188,2.92,2.92,0,0,1-.422.3q-.844.844-1.734,1.594a20.783,20.783,0,0,0-1.711,1.617,18.808,18.808,0,0,1-1.734,1.617q-.914.75-1.758,1.547-.328.328-.633.656t-.609.68a8.416,8.416,0,0,1-.633.656,1.718,1.718,0,0,0-.469.727v.234a1.086,1.086,0,0,0,.023.211.515.515,0,0,0,.094.211.821.821,0,0,1,.117.234l.469.234h.258a1.192,1.192,0,0,0,.234-.023.515.515,0,0,0,.211-.094,1.231,1.231,0,0,1,.188-.117,6.043,6.043,0,0,1,.609-.773q.328-.352.656-.727t.656-.7a3.364,3.364,0,0,1,.75-.562,13.6,13.6,0,0,1,1.523-1.477A17.41,17.41,0,0,0-129-14.25a17.412,17.412,0,0,1,1.57-1.477q.82-.68,1.664-1.43.8.7,1.57,1.453t1.594,1.453a14.025,14.025,0,0,1,1.523,1.523q.7.82,1.406,1.617a3.853,3.853,0,0,1,.68.656q.3.375.586.727t.563.75q.281.4.516.773Zm-4.547-.844h.258a.627.627,0,0,0,.234-.047.917.917,0,0,0,.211-.117,1.231,1.231,0,0,1,.188-.117l.234-.469V-9.8a1.086,1.086,0,0,0-.023-.211.515.515,0,0,0-.094-.211,1.231,1.231,0,0,1-.117-.187,7.174,7.174,0,0,0-2.062-.539,20.157,20.157,0,0,0-2.18-.117,13.107,13.107,0,0,1-2.2-.187q-1.1-.187-2.133-.422h-.375a3.02,3.02,0,0,0-.375.023,1.3,1.3,0,0,0-.352.094,1.89,1.89,0,0,0-.3.164l-.234.469v.234a1.086,1.086,0,0,0,.023.211.515.515,0,0,0,.094.211,1.231,1.231,0,0,1,.117.188,1.532,1.532,0,0,1,.164.094.521.521,0,0,0,.164.07q.094.023.164.047a1.286,1.286,0,0,1,.164.07l.141-.047a17.821,17.821,0,0,1,2.039.3,12.9,12.9,0,0,0,2.086.258l2.133.094A7.464,7.464,0,0,1-121.406-8.812ZM-102.8,1.875h.914a2.165,2.165,0,0,0,.469-.047q.211-.047.4-.094l.609.047.234-.047,2.438.047h2.953q.75,0,1.477-.023a3.417,3.417,0,0,0,1.336-.3l.234-.469q-.047-1.031-.141-2.086t-.187-2.086q-.094-1.031-.234-2.062a14.418,14.418,0,0,0-.422-2.016A1.027,1.027,0,0,0-93.4-7.5a2.64,2.64,0,0,1-.727-.094,2.64,2.64,0,0,0-.727-.094,2.64,2.64,0,0,1-.727-.094l-2.437.094h-.3a2.317,2.317,0,0,1-.328-.023q-.164-.023-.3-.047a1.851,1.851,0,0,1-.281-.07h-.82a6.232,6.232,0,0,0-.773.047q-.375.047-.8.094a1.293,1.293,0,0,0-.7.281l-.094.234h-.094a11.341,11.341,0,0,0-.4,1.922q-.117.984-.164,1.992a13.555,13.555,0,0,1-.234,1.969,13.5,13.5,0,0,0-.234,1.945,1.317,1.317,0,0,0,.023.258q.023.117.047.258a.729.729,0,0,0,.094.258q.07.117.117.211Zm-5.156-.141h.234a1.086,1.086,0,0,0,.211-.023.515.515,0,0,0,.211-.094,1.231,1.231,0,0,1,.188-.117l.234-.469-.047-.516.094-7.312.938,1.172.516.516.469.234h.234a1.086,1.086,0,0,0,.211-.023.515.515,0,0,0,.211-.094,1.231,1.231,0,0,1,.188-.117l.234-.469v-.3a.537.537,0,0,0-.07-.281l-.141-.234q-.07-.117-.164-.258l-.422-.234a6.3,6.3,0,0,0-.445-.75,8.217,8.217,0,0,0-.562-.727l-.609-.7a5.818,5.818,0,0,1-.539-.727v-.187q.328-.469.633-.961t.656-.984q.352-.492.727-.961t.75-.891l.234-.469v-.258a.627.627,0,0,0-.047-.234,1.64,1.64,0,0,0-.117-.234q-.07-.117-.117-.211a1.107,1.107,0,0,0-.656-.258,6.386,6.386,0,0,0-.773,0,3.172,3.172,0,0,1-.773-.047,4.062,4.062,0,0,0-.75-.07l-.094-.937q-.047-.469-.117-.937a4.894,4.894,0,0,1-.047-.961,1.3,1.3,0,0,0-.258-.867L-108-19.5h-.234a1.086,1.086,0,0,0-.211.023.515.515,0,0,0-.211.094,1.231,1.231,0,0,1-.187.117,1.532,1.532,0,0,1-.094.164.521.521,0,0,0-.07.164q-.023.094-.047.164a1.286,1.286,0,0,1-.07.164l.281,2.906v.094h-.773q-.4,0-.773.023a2.85,2.85,0,0,0-.727.141,3.771,3.771,0,0,0-.68.3l-.234.469v.234a1.086,1.086,0,0,0,.023.211.515.515,0,0,0,.094.211,1.231,1.231,0,0,1,.117.188l.469.234h.281a.688.688,0,0,0,.258-.047,1.243,1.243,0,0,1,.258-.07.833.833,0,0,0,.234-.07l3.8.094q-.75,1.125-1.523,2.3t-1.453,2.414q-.68,1.242-1.43,2.414a12.216,12.216,0,0,0-1.219,2.484,1.086,1.086,0,0,0,.023.211q.023.117.047.211a.528.528,0,0,0,.094.187,1.231,1.231,0,0,1,.117.188l.469.234h.234a1.086,1.086,0,0,0,.211-.023.515.515,0,0,0,.211-.094,1.231,1.231,0,0,1,.188-.117q.234-.422.422-.844l.375-.844a4.078,4.078,0,0,1,.492-.82,4.078,4.078,0,0,0,.492-.82h.094l-.094,4.641v1.8a8.5,8.5,0,0,0,.047.891,1.592,1.592,0,0,0,.281.773ZM-93.609-.047H-96.7v-2.3h.75q.375,0,.727.023t.7.07a2.826,2.826,0,0,0,.727,0l.188,2.016Zm-4.922-.047-1.688.047-.234-.047L-101.484,0h-.094l.281-2.2.469.047.891-.141h1.406Zm4.547-3.984a1.945,1.945,0,0,1-.68-.023,3.028,3.028,0,0,0-.68-.07H-96.75l-.047-.469V-5.953h.656a4.158,4.158,0,0,1,.633.047,4.158,4.158,0,0,0,.633.047,1.916,1.916,0,0,1,.609.094l.281,1.547Zm-4.594-.047h-.961a4.27,4.27,0,0,0-.469.023q-.211.023-.445.07h-.75l.281-1.922.281-.047h1.008a2.505,2.505,0,0,1,.492.047l.469.094.094,1.266ZM-94.5-8.391h.234a1.086,1.086,0,0,0,.211-.023.515.515,0,0,0,.211-.094,1.76,1.76,0,0,0,.188-.164l.234-.469a6.145,6.145,0,0,0-.141-1.336,8.85,8.85,0,0,1-.187-1.312q-.047-.68-.07-1.359a2.6,2.6,0,0,0-.352-1.242,5.406,5.406,0,0,0-1.078-.445,4.249,4.249,0,0,0-1.2-.164h-1.266a4.914,4.914,0,0,1-1.2-.141,2.256,2.256,0,0,0-.727.023,5.428,5.428,0,0,1-.727.094,2.282,2.282,0,0,0-.68.141,2.087,2.087,0,0,0-.586.352,2.062,2.062,0,0,0-.375.844,6.46,6.46,0,0,0-.117.961q-.023.492-.07.961t-.141.937V-9.75a2.04,2.04,0,0,0,.07.539,1.307,1.307,0,0,0,.211.445l.516.281L-99-8.812h1.148a5.283,5.283,0,0,1,1.125.117,6.513,6.513,0,0,0,1.125.141A4.925,4.925,0,0,1-94.5-8.391Zm-.891-2.016-2.062-.234h-.727q-.352,0-.7.023l-.7.047a3.255,3.255,0,0,0-.68.117h-.187l.281-2.719.656-.141a5.011,5.011,0,0,1,.984.094,3.929,3.929,0,0,0,.961.07q.492-.023,1.008-.023a2.952,2.952,0,0,1,.938.141q0,.328.023.656t.023.656a2.806,2.806,0,0,0,.07.633q.07.3.117.586Zm1.547-5.531a.416.416,0,0,1,.188-.047.416.416,0,0,0,.188-.047,1.532,1.532,0,0,0,.164-.094,1.532,1.532,0,0,1,.164-.094l.234-.469v-.234a1.086,1.086,0,0,0-.023-.211.515.515,0,0,0-.094-.211,1.231,1.231,0,0,1-.117-.187,2.05,2.05,0,0,0-.4-.234,1.475,1.475,0,0,0-.469-.117q-.258-.023-.516-.023a2.505,2.505,0,0,1-.492-.047q-.516,0-1.031-.023a6.794,6.794,0,0,0-.984.023q-.469.047-.984.07t-.984.07l-.75-.094h-.68q-.352,0-.7.023t-.727.023a.824.824,0,0,0-.609.234l-.234.469v.234a1.086,1.086,0,0,0,.023.211.515.515,0,0,0,.094.211,1.232,1.232,0,0,1,.117.188,1.533,1.533,0,0,1,.164.094.521.521,0,0,0,.164.07l.188.047a.916.916,0,0,1,.188.07l.469-.047h1.406a.93.93,0,0,1,.422.094q.281,0,.563-.023t.586-.023q.3,0,.586-.023t.563-.07h1.688q.422,0,.844.023A2.679,2.679,0,0,1-93.844-15.937Zm9.938,17.859a.416.416,0,0,1,.188-.047.416.416,0,0,0,.188-.047,1.532,1.532,0,0,0,.164-.094,1.532,1.532,0,0,1,.164-.094l.234-.469-.141-3.234.047-.469V-7.312a1.843,1.843,0,0,1,.492.492q.211.3.445.586a4.019,4.019,0,0,0,.516.516,4.019,4.019,0,0,1,.516.516,1.09,1.09,0,0,0,.211.164,1.09,1.09,0,0,1,.211.164.624.624,0,0,0,.211.141q.117.047.258.094h.258a1.192,1.192,0,0,0,.234-.023.515.515,0,0,0,.211-.094,1.231,1.231,0,0,1,.188-.117l.234-.469v-.234a1.086,1.086,0,0,0-.023-.211A.515.515,0,0,0-79.2-6a1.231,1.231,0,0,1-.117-.187,5.636,5.636,0,0,1-.961-.773,12.024,12.024,0,0,1-.844-.937,12.424,12.424,0,0,1-.75-1.031,8.2,8.2,0,0,0-.773-1.008l-.094-.047a2.8,2.8,0,0,1,.609-.75,5.338,5.338,0,0,0,.656-.68q.281-.352.586-.727a9.178,9.178,0,0,1,.633-.7l.281-.281.234-.469v-.234a1.086,1.086,0,0,0-.023-.211.515.515,0,0,0-.094-.211,1.232,1.232,0,0,1-.117-.187,1.244,1.244,0,0,0-.656-.281,3.3,3.3,0,0,1-.7-.164A2.148,2.148,0,0,0-82.055-15h-.773q-.047-.516-.047-1.055t-.023-1.078q-.023-.539-.023-1.078a1.523,1.523,0,0,0-.328-.961l-.469-.234h-.234a1.086,1.086,0,0,0-.211.023.515.515,0,0,0-.211.094,1.231,1.231,0,0,1-.187.117l-.234.469.141,3.422v.141l-.187-.047h-2.578a1.258,1.258,0,0,0-.75.234l-.234.469v.234a1.086,1.086,0,0,0,.023.211.515.515,0,0,0,.094.211,1.231,1.231,0,0,1,.117.188,2.483,2.483,0,0,0,1.359.281,11.639,11.639,0,0,1,1.477,0q.727.047,1.43.141a7.456,7.456,0,0,0,1.453.047q-.891,1.031-1.781,2.086a16.253,16.253,0,0,0-1.594,2.25q-.7,1.2-1.477,2.32t-1.43,2.3v.234a1.086,1.086,0,0,0,.023.211.515.515,0,0,0,.094.211,1.231,1.231,0,0,1,.117.187l.469.234h.258a.627.627,0,0,0,.234-.047.917.917,0,0,0,.211-.117,1.231,1.231,0,0,1,.188-.117L-84.984-6.7h.094l-.047,4.219q.047.516.047,1.055t.023,1.055q.023.516.023,1.055a1.693,1.693,0,0,0,.281.961,1.532,1.532,0,0,1,.164.094.521.521,0,0,0,.164.07q.094.023.164.047A1.286,1.286,0,0,1-83.906,1.922Zm3.844-.7,1.922-.141h5.906q.516-.047,1.078-.07l1.1-.047,1.078-.047A2.467,2.467,0,0,0-67.969.656l.234-.469V-.047a1.086,1.086,0,0,0-.023-.211.515.515,0,0,0-.094-.211,1.231,1.231,0,0,1-.117-.187l-.609-.281a3.564,3.564,0,0,0-.914.023,5.853,5.853,0,0,1-.914.07q-.469,0-.914.023t-.914.07H-72.7V-9.609q.469,0,.891.023t.867.023a3.986,3.986,0,0,1,.867.094,7.918,7.918,0,0,0,.844.141,1.317,1.317,0,0,0,.258-.023l.234-.047a.516.516,0,0,0,.211-.094,1.231,1.231,0,0,1,.188-.117l.234-.469v-.234a1.086,1.086,0,0,0-.023-.211.515.515,0,0,0-.094-.211,1.231,1.231,0,0,1-.117-.187,3.146,3.146,0,0,0-1.008-.3l-1.1-.141a6.779,6.779,0,0,0-1.125-.047,9.014,9.014,0,0,1-1.125-.023V-13.2q0-.867-.07-1.711a15.856,15.856,0,0,1-.047-1.734,4.659,4.659,0,0,0-.258-1.687l-.469-.234h-.234a1.086,1.086,0,0,0-.211.023.515.515,0,0,0-.211.094,1.231,1.231,0,0,1-.187.117,1.231,1.231,0,0,1-.117.188.528.528,0,0,0-.094.188q-.023.094-.047.211a.837.837,0,0,1-.07.211q.047.422.07.82t.023.844q0,.445.023.844t.07.82V-.75h-1.922l-.094-3.187L-76.5-5.3V-7.734q0-.609.023-1.242a2.184,2.184,0,0,0-.258-1.148l-.469-.234h-.234a1.086,1.086,0,0,0-.211.023.515.515,0,0,0-.211.094.821.821,0,0,1-.234.117,1.954,1.954,0,0,0-.3,1.148q.023.633.023,1.266v1.242q0,.609-.047,1.219l.094,3.984V-.7h-.75a2.489,2.489,0,0,0-.352.023,3.493,3.493,0,0,0-.352.07l-.234-.047h-.258a1.192,1.192,0,0,0-.234.023.515.515,0,0,0-.211.094,1.231,1.231,0,0,1-.187.117l-.234.469V.281a1.086,1.086,0,0,0,.023.211A.515.515,0,0,0-81.023.7a1.231,1.231,0,0,1,.117.187,1.231,1.231,0,0,1,.188.117.515.515,0,0,0,.211.094l.234.047A.837.837,0,0,1-80.063,1.219ZM-45.7,1.125h.234a1.086,1.086,0,0,0,.211-.023.515.515,0,0,0,.211-.094,1.231,1.231,0,0,1,.188-.117l.234-.469A8.19,8.19,0,0,0-45.164-1.2q-.352-.773-.656-1.57t-.656-1.594q-.352-.8-.773-1.547l-.469-.234h-.234a1.086,1.086,0,0,0-.211.023.515.515,0,0,0-.211.094,1.231,1.231,0,0,1-.187.117l-.234.469a1.138,1.138,0,0,0,.07.609,5.715,5.715,0,0,0,.258.539,5.715,5.715,0,0,1,.258.539q.117.281.211.562v.141a5.308,5.308,0,0,1-1.57.328,5.83,5.83,0,0,0-1.57.3,7.406,7.406,0,0,1-1.547.352q-.8.094-1.641.187h-.187q.281-.75.609-1.477t.633-1.477q.3-.75.586-1.5a8.882,8.882,0,0,1,.7-1.453h2.273q.586,0,1.125.023t1.1.07h1.5q.375,0,.727-.023a1.08,1.08,0,0,0,.633-.258l.234-.469v-.281a.688.688,0,0,0-.047-.258.917.917,0,0,0-.117-.211,1.231,1.231,0,0,1-.117-.187l-.469-.234-.469.047-4.781-.094v-3.656a3.416,3.416,0,0,1,.563.047q.281.047.539.094a3.009,3.009,0,0,0,.539.047,3.416,3.416,0,0,1,.563.047h.984a1.4,1.4,0,0,0,.445-.07,1.4,1.4,0,0,0,.4-.211l.234-.469v-.234a1.086,1.086,0,0,0-.023-.211.515.515,0,0,0-.094-.211,1.232,1.232,0,0,1-.117-.187,1.607,1.607,0,0,0-.984-.258q-.562.023-1.078,0a7.718,7.718,0,0,1-1.031-.117l-1.031-.187V-16.57a4.322,4.322,0,0,1,.047-.656q.047-.3.094-.633v-.3a1.456,1.456,0,0,0-.023-.281,1.044,1.044,0,0,0-.094-.258.892.892,0,0,0-.164-.234l-.469-.234h-.234a1.086,1.086,0,0,0-.211.023.515.515,0,0,0-.211.094,1.232,1.232,0,0,1-.187.117,1.727,1.727,0,0,0-.258.844q-.023.469-.094.937a4.894,4.894,0,0,0-.047.961q.023.492.023.961l-.656.094h-.4a.61.61,0,0,1-.187-.023,1.286,1.286,0,0,1-.164-.07q-.422,0-.8.023t-.727.07a3.728,3.728,0,0,1-.727.023.9.9,0,0,0-.656.211l-.234.469v.234a1.086,1.086,0,0,0,.023.211.515.515,0,0,0,.094.211,1.231,1.231,0,0,1,.117.188,1.532,1.532,0,0,1,.164.094.521.521,0,0,0,.164.07q.094.023.164.047a1.286,1.286,0,0,1,.164.07h.7a2.489,2.489,0,0,0,.352-.023,1.742,1.742,0,0,0,.3-.07l.844.094h.7a2.489,2.489,0,0,0,.352-.023,1.742,1.742,0,0,0,.3-.07h.188v3.75l-.937.094q-.469.047-.961.047H-55.1a4.211,4.211,0,0,0-.914.094l-1.312-.094h-.258a1.192,1.192,0,0,0-.234.023.515.515,0,0,0-.211.094,1.231,1.231,0,0,1-.187.117l-.234.469v.258a1.192,1.192,0,0,0,.023.234.515.515,0,0,0,.094.211,1.231,1.231,0,0,1,.117.188.973.973,0,0,0,.3.211,1.3,1.3,0,0,0,.328.094,2.489,2.489,0,0,0,.352.023,1.541,1.541,0,0,1,.375.047l1.172-.094h1.453q-.281.844-.633,1.687t-.68,1.687q-.328.844-.68,1.664a12.252,12.252,0,0,0-.586,1.711v.258a1.192,1.192,0,0,0,.023.234.515.515,0,0,0,.094.211A1.231,1.231,0,0,1-56.578,0a1.532,1.532,0,0,1,.164.094.521.521,0,0,0,.164.07q.094.023.164.047a1.286,1.286,0,0,1,.164.07,20.424,20.424,0,0,1,2.18-.352,16.358,16.358,0,0,0,2.156-.375q1.055-.258,2.109-.445t2.086-.422h.187a3.02,3.02,0,0,0,.164.586,4.69,4.69,0,0,0,.258.562q.141.258.281.539a2.894,2.894,0,0,0,.328.516ZM-62.859.8h.234a1.086,1.086,0,0,0,.211-.023A.515.515,0,0,0-62.2.68a1.231,1.231,0,0,1,.188-.117A4.608,4.608,0,0,0-61.5-.562a5.781,5.781,0,0,1,.492-1.148l.609-1.078q.3-.539.586-1.1v-.234a1.086,1.086,0,0,0-.023-.211.515.515,0,0,0-.094-.211,1.231,1.231,0,0,1-.117-.187l-.469-.234h-.258a.627.627,0,0,0-.234.047.917.917,0,0,0-.211.117,1.231,1.231,0,0,1-.187.117,8.4,8.4,0,0,0-.656,1.055q-.281.539-.586,1.055a5.381,5.381,0,0,0-.492,1.1q-.187.586-.422,1.148V-.07a1.192,1.192,0,0,0,.023.234.515.515,0,0,0,.094.211,1.231,1.231,0,0,1,.117.187Zm2.3-9.234h.234a1.086,1.086,0,0,0,.211-.023.408.408,0,0,0,.211-.117.734.734,0,0,1,.188-.141l.234-.469v-.258a.627.627,0,0,0-.047-.234.917.917,0,0,0-.117-.211,1.231,1.231,0,0,1-.117-.188l-1.922-1.5v-.094l-.422-.422-.656-.375h-.258a1.192,1.192,0,0,0-.234.023.515.515,0,0,0-.211.094,1.231,1.231,0,0,1-.187.117l-.234.469v.234a1.086,1.086,0,0,0,.023.211.515.515,0,0,0,.094.211,1.231,1.231,0,0,1,.117.188l.7.609q.281.234.586.469a6.017,6.017,0,0,1,.586.516,6.017,6.017,0,0,0,.586.516A2.932,2.932,0,0,0-60.563-8.437Zm.844-5.25h.234a1.086,1.086,0,0,0,.211-.023.515.515,0,0,0,.211-.094,1.231,1.231,0,0,1,.188-.117l.234-.469v-.258a.821.821,0,0,0-.047-.258.588.588,0,0,0-.141-.234.735.735,0,0,1-.141-.187l-2.437-2.109H-61.5v-.094l-.469-.234H-62.2a1.086,1.086,0,0,0-.211.023.515.515,0,0,0-.211.094,1.232,1.232,0,0,1-.187.117l-.234.469v.281a.624.624,0,0,0,.07.281.892.892,0,0,0,.164.234.588.588,0,0,1,.141.234,6.594,6.594,0,0,1,.563.422q.281.234.563.445t.539.445a5.157,5.157,0,0,1,.492.516ZM-37.688.469h.234a1.086,1.086,0,0,0,.211-.023.515.515,0,0,0,.211-.094,1.231,1.231,0,0,1,.188-.117q.422-1.172.937-2.367t1.1-2.344q.586-1.148,1.172-2.32t1.2-2.344h.094q.891,1.125,1.758,2.2t1.711,2.18q.844,1.1,1.734,2.133t1.781,2.109l.234.141.375.562.469.234h.258A1.192,1.192,0,0,0-23.789.4.515.515,0,0,0-23.578.3a1.231,1.231,0,0,1,.188-.117l.234-.469v-.3a.537.537,0,0,0-.07-.281,2.133,2.133,0,0,0-.164-.234q-.094-.117-.187-.258h-.094v-.094l-.516-.562-2.344-2.766Q-27-5.391-27.492-6t-.961-1.219q-.469-.609-.961-1.242T-30.422-9.7l-.7-.938-.187-.187-.141-.094a8.977,8.977,0,0,1,.7-1.523q.422-.727.867-1.453t.844-1.477q.4-.75.727-1.5v-.258a1.192,1.192,0,0,0-.023-.234.515.515,0,0,0-.094-.211,1.231,1.231,0,0,1-.117-.187L-29.016-18h-.234a1.086,1.086,0,0,0-.211.023.515.515,0,0,0-.211.094,1.231,1.231,0,0,1-.187.117L-32.2-13.547q-1.172,2.109-2.25,4.289t-2.18,4.312a26.6,26.6,0,0,0-1.8,4.43.416.416,0,0,0,.047.187.465.465,0,0,1,.047.211.253.253,0,0,0,.07.187.626.626,0,0,1,.117.164Zm51.7,1.125a1.317,1.317,0,0,0,.258-.023l.234-.047a.737.737,0,0,0,.234-.094q.117-.07.211-.117l.234-.469V.609A1.086,1.086,0,0,0,15.164.4.515.515,0,0,0,15.07.187,1.231,1.231,0,0,1,14.953,0a1.541,1.541,0,0,0-.727-.281q-.4-.047-.8-.07a6.155,6.155,0,0,1-.773-.094,4.321,4.321,0,0,0-.8-.07L9.75-.422H9.469a3.016,3.016,0,0,0,.07-.4A1.319,1.319,0,0,1,9.633-1.2q.07-.164.164-.352a.832.832,0,0,0,.094-.375h.563a.492.492,0,0,1,.258.07,1.3,1.3,0,0,0,.258.117h.258a1.192,1.192,0,0,0,.234-.023.515.515,0,0,0,.211-.094,1.231,1.231,0,0,1,.188-.117l.234-.469Q12.047-2.953,12-3.445a4.978,4.978,0,0,0-.187-.961,4.053,4.053,0,0,1-.164-.984,2.1,2.1,0,0,0-.258-.937A2.73,2.73,0,0,0,9.844-6.8Q9-6.8,8.156-6.82T6.445-6.844a14.244,14.244,0,0,1-1.664-.094H3.844q-.469,0-.937.023t-.937,0a1.261,1.261,0,0,0-.844.258,2,2,0,0,0-.445.867Q.562-5.3.469-4.828a9.325,9.325,0,0,0-.141.984,9.325,9.325,0,0,1-.141.984v.3a1.189,1.189,0,0,0,.047.328,2.95,2.95,0,0,0,.094.281,1.437,1.437,0,0,0,.141.258l.469.234h.211a.871.871,0,0,0,.211-.023.916.916,0,0,0,.188-.07.735.735,0,0,0,.188-.141l.75.047L2.625-.516v.141L2.2-.422,1.031-.375.469-.469H-.563q-.516,0-1.031.023t-1.031.023a1.9,1.9,0,0,0-.937.234L-3.8.281V.516a1.086,1.086,0,0,0,.023.211A.515.515,0,0,0-3.68.937a1.231,1.231,0,0,1,.117.187,1.532,1.532,0,0,1,.164.094.521.521,0,0,0,.164.07q.094.023.164.047a1.286,1.286,0,0,1,.164.07l.937-.047H.117a2,2,0,0,1,.633.094l.328-.047,1.172.047H7.922l.047.047h.68A4.322,4.322,0,0,0,9.3,1.453q.3-.047.633-.07t.656-.07q.469,0,.891.023l.844.047q.422.023.844.07A7.918,7.918,0,0,1,14.016,1.594ZM7.594-.422l-.047.047H4.453L4.312-1.641v-.141q.375,0,.75-.023t.8-.023h.82a2.64,2.64,0,0,0,.727-.094h.469ZM10.078-3.75q-.891,0-1.758.023t-1.758.07q-.891.047-1.758.047a15.482,15.482,0,0,0-1.711.094H2.156a3.616,3.616,0,0,1,.023-.4q.023-.211.047-.375a3.493,3.493,0,0,1,.07-.352l.094-.375.937-.094,6.516.188.234,1.031Zm3.562-3.281a1.708,1.708,0,0,0,.281-.023L14.2-7.1a.729.729,0,0,0,.258-.094q.117-.07.211-.117l.234-.469v-.234a1.086,1.086,0,0,0-.023-.211.515.515,0,0,0-.094-.211.821.821,0,0,1-.117-.234,4.409,4.409,0,0,0-1.523-.3q-.82-.023-1.594-.117t-1.547-.164q-.773-.07-1.57-.164l-2.766.141a10.293,10.293,0,0,1-1.711-.047,14.855,14.855,0,0,0-1.687-.094q-.867,0-1.711-.023t-1.687-.07h-.82a1.638,1.638,0,0,0-.4.047.7.7,0,0,0-.328.187l-.234.469v.258a1.192,1.192,0,0,0,.023.234.515.515,0,0,0,.094.211,1.231,1.231,0,0,1,.117.188,3.933,3.933,0,0,0,1.594.328q.844,0,1.687.023t1.711.023a9.563,9.563,0,0,1,1.664.141l3.7-.141ZM10.078-9.562h1.312a4.158,4.158,0,0,0,.633-.047,1.12,1.12,0,0,0,.539-.234l.281-.516q-.047-.891-.094-1.734T12.656-13.8q-.047-.867-.117-1.734a6.574,6.574,0,0,0-.352-1.664,7.807,7.807,0,0,0-.75-.328,3.3,3.3,0,0,0-.8-.187L9.8-17.812l-.844-.094.188-.937V-19.1a1.192,1.192,0,0,0-.023-.234.515.515,0,0,0-.094-.211,1.231,1.231,0,0,1-.117-.187l-.469-.234H8.2a1.086,1.086,0,0,0-.211.023.515.515,0,0,0-.211.094,1.231,1.231,0,0,1-.187.117,2.05,2.05,0,0,0-.234.4,1.423,1.423,0,0,0-.117.422q-.023.211-.047.445T7.125-18l-2.484-.141a2.505,2.505,0,0,1-.047-.492v-.516a2.505,2.505,0,0,0-.047-.492,1.031,1.031,0,0,0-.187-.422L3.891-20.3H3.656a1.086,1.086,0,0,0-.211.023.515.515,0,0,0-.211.094,1.231,1.231,0,0,1-.187.117,1.516,1.516,0,0,0-.211.375,1.2,1.2,0,0,0-.07.422v.937l-1.453-.187H.328a2.385,2.385,0,0,0-.469.047,1.031,1.031,0,0,0-.422.188l-.187.375-.141.094a6.64,6.64,0,0,0-.4,1.477l-.234,1.547q-.117.773-.187,1.57t-.211,1.547v.75a.883.883,0,0,0,.07.352,1.89,1.89,0,0,0,.164.3,9.451,9.451,0,0,0,2.883.4q1.477-.023,2.953,0t2.977.07Q8.625-9.75,10.078-9.562Zm.891-1.828-2.156-.141v-1.359a1.789,1.789,0,0,1,.516.07,1.7,1.7,0,0,0,.492.07h.539a2.634,2.634,0,0,1,.516.047l.094,1.078Zm-3.984-.234-2.3-.047L4.594-12.75v-.328q.281,0,.586.023t.633.023h.633a1.443,1.443,0,0,1,.539.094Zm-4.125-.094H-.047l.141-1.641h.68a2.915,2.915,0,0,1,.656.07,2.245,2.245,0,0,0,.656.047q.352-.023.68-.023l.094,1.219Zm7.922-2.859h-.516q-.281,0-.516-.023t-.469-.07a2.634,2.634,0,0,0-.516-.047v-.352a2.317,2.317,0,0,1,.023-.328,1.323,1.323,0,0,0,0-.352.378.378,0,0,1,.117-.328,1.743,1.743,0,0,0,.422.047,2.048,2.048,0,0,1,.445.047,2.048,2.048,0,0,0,.445.047.686.686,0,0,1,.422.141l.141,1.125Zm-3.844-.281-2.344-.047.047-1.406,2.391.141-.094.891Zm-4.172-.234H2.156q-.328,0-.609-.023t-.562-.07a1.989,1.989,0,0,0-.609,0l.234-1.5a1.7,1.7,0,0,1,.562,0l.563.094a3.416,3.416,0,0,0,.562.047.983.983,0,0,1,.516.141l-.047.563ZM32.625,1.828h.234A1.086,1.086,0,0,0,33.07,1.8a.515.515,0,0,0,.211-.094,1.231,1.231,0,0,1,.188-.117l.234-.469L33.609-.891v-.328l1.594.047h2.109q.516,0,1.031-.023a1.806,1.806,0,0,0,.938-.3l.234-.469V-2.2a1.087,1.087,0,0,0-.023-.211.515.515,0,0,0-.094-.211,1.231,1.231,0,0,1-.117-.187l-.469-.234L37.969-3l-4.453-.047-.047-.141V-5.016l2.109.094a.986.986,0,0,0,.234-.023q.094-.023.211-.047a.515.515,0,0,0,.211-.094,1.231,1.231,0,0,1,.188-.117l.234-.469v-.234a1.087,1.087,0,0,0-.023-.211.515.515,0,0,0-.094-.211,1.231,1.231,0,0,1-.117-.187,1.136,1.136,0,0,0-.68-.258q-.4-.023-.8-.023t-.773-.023q-.375-.023-.8-.023V-8.484l.188-.047h2.25a1.766,1.766,0,0,1,.7.141h.258a1.192,1.192,0,0,0,.234-.023.737.737,0,0,0,.234-.094,1.09,1.09,0,0,0,.211-.164,1.532,1.532,0,0,1,.094-.164A1.532,1.532,0,0,0,37.641-9a.307.307,0,0,1,.141-.141l.188-.094L38.2-9.7l-.047-.844v-.7a3.426,3.426,0,0,1,.422.023,3.216,3.216,0,0,0,.4.023H39.4a.879.879,0,0,1,.4.094h.234a1.086,1.086,0,0,0,.211-.023.515.515,0,0,0,.211-.094,1.232,1.232,0,0,1,.188-.117l.234-.469v-.258a1.192,1.192,0,0,0-.023-.234.515.515,0,0,0-.094-.211,1.231,1.231,0,0,1-.117-.187,1.75,1.75,0,0,0-.609-.258,3.124,3.124,0,0,0-.656-.07q-.328,0-.68-.023t-.68-.07a1.854,1.854,0,0,1-.047-.445v-.469a1.939,1.939,0,0,0-.047-.422q-.047-.211-.094-.445l.047-.422v-.281a1.317,1.317,0,0,0-.023-.258.737.737,0,0,0-.094-.234q-.07-.117-.117-.211a2.327,2.327,0,0,0-1.008-.328l-1.078-.094q-.539-.047-1.078-.117t-1.1-.117l.047-1.266v-.258a1.192,1.192,0,0,0-.023-.234.515.515,0,0,0-.094-.211,1.232,1.232,0,0,1-.117-.187l-.469-.234h-.234a1.086,1.086,0,0,0-.211.023.515.515,0,0,0-.211.094,1.231,1.231,0,0,1-.187.117.825.825,0,0,0-.234.445q-.047.258-.07.516t-.023.539v.562l-.75-.094a8.3,8.3,0,0,1-.914.047q-.492,0-.937.023l-.891.047a1.257,1.257,0,0,0-.773.3l-.234.469v.234a1.086,1.086,0,0,0,.023.211.515.515,0,0,0,.094.211,1.232,1.232,0,0,1,.117.188l.469.234,2.437-.141,1.312.094v1.828l-2.3-.141-2.156.047-.516-.047h-.75a.7.7,0,0,0-.352.094q-.164.094-.3.188l-.234.469v.234a1.086,1.086,0,0,0,.023.211.515.515,0,0,0,.094.211,1.231,1.231,0,0,1,.117.188,1.89,1.89,0,0,0,.3.164.944.944,0,0,0,.375.07h.4a1.541,1.541,0,0,1,.375.047l.516-.047h1.125q.563,0,1.078.047t1.078.047q.563,0,1.125.047l-.047,1.219a9.648,9.648,0,0,1-1.172.023,10.108,10.108,0,0,0-1.2.023,9.78,9.78,0,0,1-1.172.023,1.674,1.674,0,0,0-1.055.3l-.234.469v.234a1.086,1.086,0,0,0,.023.211.515.515,0,0,0,.094.211,1.231,1.231,0,0,1,.117.188l.469.281,4.125-.094h.094v1.641l-1.219-.094q-.375,0-.656.023t-.586.023q-.3,0-.586.023a.936.936,0,0,0-.516.211l-.234.469v.234a1.086,1.086,0,0,0,.023.211.515.515,0,0,0,.094.211,1.231,1.231,0,0,1,.117.187,1.532,1.532,0,0,1,.164.094.521.521,0,0,0,.164.07q.094.023.164.047a1.286,1.286,0,0,1,.164.07l.8-.047,2.2.094v1.922l-2.859-.187q-.422,0-.844.023t-.82.07a3.6,3.6,0,0,1-.82,0,.948.948,0,0,0-.75.234l-.234.469v.234a1.086,1.086,0,0,0,.023.211.515.515,0,0,0,.094.211,1.231,1.231,0,0,1,.117.187,1.532,1.532,0,0,1,.164.094.521.521,0,0,0,.164.07q.094.023.164.047a1.286,1.286,0,0,1,.164.07h.727a2.843,2.843,0,0,0,.352-.023,1.718,1.718,0,0,0,.328-.07,5.684,5.684,0,0,1,1.031,0l1.055.094q.539.047,1.055.07t1.031.023q0,.375.023.75t.047.727q.023.352.047.727a1.107,1.107,0,0,0,.258.656ZM20.531.047h.234a1.086,1.086,0,0,0,.211-.023.515.515,0,0,0,.211-.094,1.231,1.231,0,0,1,.188-.117q.281-.469.539-.961t.563-.961a8.348,8.348,0,0,0,.539-.961q.234-.492.469-1.008v-.234a1.086,1.086,0,0,0-.023-.211.515.515,0,0,0-.094-.211,1.231,1.231,0,0,1-.117-.187l-.469-.234h-.258a.627.627,0,0,0-.234.047.917.917,0,0,0-.211.117,1.231,1.231,0,0,1-.187.117,5.353,5.353,0,0,0-.539.961,6.681,6.681,0,0,1-.492.937q-.281.445-.539.914t-.492.984V-.82a1.192,1.192,0,0,0,.023.234.515.515,0,0,0,.094.211,1.231,1.231,0,0,1,.117.187Zm2.062-9.234h.234a1.086,1.086,0,0,0,.211-.023A.515.515,0,0,0,23.25-9.3a1.231,1.231,0,0,1,.188-.117l.234-.469v-.258a.627.627,0,0,0-.047-.234.917.917,0,0,0-.117-.211,1.231,1.231,0,0,1-.117-.187l-.609-.469-.469-.281a4.883,4.883,0,0,0-.492-.258l-.516-.234a2.152,2.152,0,0,0-.539-.164h-.258a1.192,1.192,0,0,0-.234.023.515.515,0,0,0-.211.094,1.231,1.231,0,0,1-.187.117l-.234.469v.234a1.086,1.086,0,0,0,.023.211.515.515,0,0,0,.094.211,1.232,1.232,0,0,1,.117.188,4.839,4.839,0,0,0,.7.328,7.316,7.316,0,0,1,.7.3,3.188,3.188,0,0,1,.633.422A2.288,2.288,0,0,0,22.594-9.187Zm13.781-1.219-.047.047-.047-.047-2.766.047h-.187v-1.125q.375,0,.773-.023a2.936,2.936,0,0,1,.75.047,5.428,5.428,0,0,0,.727.094q.375.023.75.023l.047.844Zm-.234-2.766a2.1,2.1,0,0,1-.7-.023,4.747,4.747,0,0,0-.68-.094q-.352-.023-.7-.023h-.727v-1.828a4.8,4.8,0,0,0,.68.047,2.462,2.462,0,0,1,.68.094,2.379,2.379,0,0,0,.656.094h.7l.094.609ZM23.3-14.531h.234a1.086,1.086,0,0,0,.211-.023.515.515,0,0,0,.211-.094,1.231,1.231,0,0,1,.188-.117l.234-.469v-.281a.624.624,0,0,0-.07-.281.692.692,0,0,0-.187-.234.5.5,0,0,1-.164-.234l-.844-.75-1.969-1.172h-.258a1.192,1.192,0,0,0-.234.023.515.515,0,0,0-.211.094,1.231,1.231,0,0,1-.187.117l-.234.469v.234a1.086,1.086,0,0,0,.023.211.515.515,0,0,0,.094.211,1.231,1.231,0,0,1,.117.188,8.315,8.315,0,0,0,.773.516q.4.234.773.492a5.183,5.183,0,0,1,.727.609A1.973,1.973,0,0,0,23.3-14.531ZM59.391,2.016q.375,0,.7-.023t.68-.023a2.221,2.221,0,0,0,.656-.094,2.243,2.243,0,0,0,.586-.281l.234-.469V.867a1.192,1.192,0,0,0-.023-.234.515.515,0,0,0-.094-.211,1.231,1.231,0,0,1-.117-.187L61.547,0a.762.762,0,0,0-.375,0A3.453,3.453,0,0,0,60.8.117a.618.618,0,0,1-.375.023.529.529,0,0,0-.375.047,4.978,4.978,0,0,1-.7-.047q-.328-.047-.68-.094a1.9,1.9,0,0,1-.656-.211,2.3,2.3,0,0,1-.539-.4,1.836,1.836,0,0,1-.609-1.125q-.094-.656-.141-1.336A13.535,13.535,0,0,1,56.7-4.406a2.1,2.1,0,0,0-.352-1.266l-.469-.234h-.234a1.086,1.086,0,0,0-.211.023.515.515,0,0,0-.211.094,1.231,1.231,0,0,1-.187.117L54.8-5.2q.047.75.07,1.523t.07,1.5a5.655,5.655,0,0,0,.281,1.43,3.489,3.489,0,0,0,.75,1.266l.75.656a2.282,2.282,0,0,0,.82.469,5.973,5.973,0,0,0,.914.211Q58.922,1.922,59.391,2.016ZM48.187,1.5a.416.416,0,0,1,.188-.047.416.416,0,0,0,.188-.047,1.532,1.532,0,0,0,.164-.094,1.532,1.532,0,0,1,.164-.094q.422-.8.82-1.594t.844-1.594q.445-.8.938-1.547t.914-1.547V-5.3a1.086,1.086,0,0,0-.023-.211.515.515,0,0,0-.094-.211,1.231,1.231,0,0,1-.117-.187L51.7-6.141h-.258a.627.627,0,0,0-.234.047A.917.917,0,0,0,51-5.977a1.231,1.231,0,0,1-.187.117q-.516.75-.984,1.523t-.914,1.547q-.445.773-.844,1.57T47.3.375V.609A1.086,1.086,0,0,0,47.32.82a.515.515,0,0,0,.094.211,1.231,1.231,0,0,1,.117.187,1.532,1.532,0,0,1,.164.094.521.521,0,0,0,.164.07q.094.023.164.047A1.286,1.286,0,0,1,48.187,1.5ZM60.141-6.422a.416.416,0,0,1,.188-.047.416.416,0,0,0,.188-.047,1.533,1.533,0,0,0,.164-.094,1.532,1.532,0,0,1,.164-.094l.141-.141.469-.891Q61.359-9,61.289-10.242T61.055-12.7q-.164-1.219-.211-2.461a10.372,10.372,0,0,0-.375-2.414,10.332,10.332,0,0,0-1.547-.445q-.8-.164-1.594-.3t-1.641-.211a11.222,11.222,0,0,1-1.641-.258H53.6a2.676,2.676,0,0,0-.375.023,3.492,3.492,0,0,0-.352.07.7.7,0,0,0-.328.188,5.334,5.334,0,0,0-.68,2.367q-.07,1.289-.164,2.531t-.164,2.531q-.07,1.289-.258,2.555V-7.9a.537.537,0,0,0,.07.281q.07.117.164.258l.141.141a1.532,1.532,0,0,1,.164.094.521.521,0,0,0,.164.07q.094.023.164.047a1.286,1.286,0,0,1,.164.07l.7-.094q.938,0,1.852.047t1.781.141q.867.094,1.734.258A9.435,9.435,0,0,0,60.141-6.422Zm-12-.047h.234a1.086,1.086,0,0,0,.211-.023.515.515,0,0,0,.211-.094,1.231,1.231,0,0,1,.188-.117,10.618,10.618,0,0,0,.258-2.578q-.023-1.359.047-2.648t.094-2.6q.023-1.312.117-2.625v-.258a1.192,1.192,0,0,0-.023-.234.515.515,0,0,0-.094-.211,1.231,1.231,0,0,1-.117-.187l-.469-.234h-.234a1.086,1.086,0,0,0-.211.023.515.515,0,0,0-.211.094,1.231,1.231,0,0,1-.187.117,5.2,5.2,0,0,0-.375,2.2,22.435,22.435,0,0,1-.023,2.3q-.07,1.125-.094,2.273T47.391-9v1.242a3.15,3.15,0,0,0,.047.563,1.1,1.1,0,0,0,.234.492ZM59.578-8.3a10.539,10.539,0,0,1-1.57-.211,13.116,13.116,0,0,0-1.57-.234l-1.57-.141A11.655,11.655,0,0,0,53.2-8.906l.188-2.953q.8.047,1.547.141t1.5.141q.75.047,1.5.141a10.862,10.862,0,0,1,1.453.281l.188,2.2ZM59.2-13.078a7.343,7.343,0,0,0-1.406-.234l-1.406-.094q-.7-.047-1.406-.141t-1.453-.141a7.429,7.429,0,0,0,.047-.82,7.429,7.429,0,0,1,.047-.82q.047-.422.117-.8a4.321,4.321,0,0,0,.07-.8q.656.094,1.312.164l1.289.141a10.846,10.846,0,0,1,1.242.211l1.219.281a1.826,1.826,0,0,1,.141.727q0,.4.023.773t.07.727q.047.352.094.727ZM82.687,1.406,84,1.312l1.922.047a1.317,1.317,0,0,0,.258-.023l.234-.047a.515.515,0,0,0,.211-.094,1.231,1.231,0,0,1,.188-.117l.234-.469V.375a1.086,1.086,0,0,0-.023-.211.516.516,0,0,0-.094-.211,1.231,1.231,0,0,1-.117-.187,1.231,1.231,0,0,1-.187-.117.515.515,0,0,0-.211-.094,1.192,1.192,0,0,0-.234-.023.465.465,0,0,1-.211-.047H84.656q-.328,0-.633.023t-.633.07q-.562,0-1.1-.023T81.234-.539q-.516-.07-1.055-.094t-1.1-.023v-.8h2.93a1.406,1.406,0,0,0,.867-.281l.234-.469v-.234a1.086,1.086,0,0,0-.023-.211.515.515,0,0,0-.094-.211,1.231,1.231,0,0,1-.117-.187l-.516-.281-.422.047H79.031v-.562q.656,0,1.313-.047t1.313-.047q.656,0,1.313-.047a3.208,3.208,0,0,0,1.219-.328l.234-.469A9.561,9.561,0,0,0,84.3-6.3q-.117-.727-.258-1.453t-.281-1.5a5.3,5.3,0,0,0-.469-1.43,3.344,3.344,0,0,0-.984-.4q-.516-.117-1.055-.187a8.7,8.7,0,0,0-1.125-.07q-.586,0-1.148-.047l-1.969.047h-.656a4.158,4.158,0,0,1-.633-.047q-.3-.047-.609-.07t-.633-.07h-.609a.492.492,0,0,0-.258.07q-.117.07-.258.164v.094l-.375.188a2.987,2.987,0,0,0-.516,1.336q-.094.727-.211,1.453T72.07-6.773a8.846,8.846,0,0,1-.258,1.43v.3a1.189,1.189,0,0,0,.047.328,2.95,2.95,0,0,0,.094.281,1.437,1.437,0,0,0,.141.258h.094l.188.422a1.532,1.532,0,0,1,.164.094.521.521,0,0,0,.164.07q.094.023.164.047a1.286,1.286,0,0,1,.164.07,3.016,3.016,0,0,1,.4-.07.647.647,0,0,0,.352-.141.647.647,0,0,1,.352-.141,3.016,3.016,0,0,0,.4-.07h2.625v.656l-1.781.141-.328-.047H74.3a.7.7,0,0,0-.352.094q-.164.094-.3.187l-.234.469v.234a1.086,1.086,0,0,0,.023.211.515.515,0,0,0,.094.211,1.231,1.231,0,0,1,.117.187,1.89,1.89,0,0,0,.3.164.944.944,0,0,0,.375.07h.4a1.541,1.541,0,0,1,.375.047l1.219-.141H77.2v.8l-.516.047q-.375,0-.75-.023t-.727-.023q-.352,0-.727-.023a3.3,3.3,0,0,1-.7-.117H72.562a7.554,7.554,0,0,0-1.2.094,9.989,9.989,0,0,1-1.2.117,2.519,2.519,0,0,0-1.125.3l-.234.469V.469a1.086,1.086,0,0,0,.023.211.515.515,0,0,0,.094.211,1.231,1.231,0,0,1,.117.187,1.532,1.532,0,0,1,.164.094.521.521,0,0,0,.164.07q.094.023.164.047a1.286,1.286,0,0,1,.164.07,4.158,4.158,0,0,0,.633-.047,4.158,4.158,0,0,1,.633-.047,2.508,2.508,0,0,0,.609-.07,6.039,6.039,0,0,1,.609-.117h.867a7.85,7.85,0,0,1,.867.047q.422.047.844.07t.844.07l1.125-.047,1.312.047.75-.094q.516,0,1.008.023l.961.047q.469.023.961.094A6.792,6.792,0,0,0,82.687,1.406ZM77.062-5.719h-2.3a3.082,3.082,0,0,0-.75.094h-.281l.141-1.219h.82a4.189,4.189,0,0,1,.773.07,4.189,4.189,0,0,0,.773.07h.82ZM82.5-5.766l-2.625.094h-.937v-.891q.422,0,.891-.023a4.149,4.149,0,0,1,.891.047l.844.141a5.415,5.415,0,0,0,.891.07l.047.281Zm-.375-2.391a2.434,2.434,0,0,1-.773-.117,2.357,2.357,0,0,0-.75-.117H78.984V-9.516h1.5a3.7,3.7,0,0,1,.727.07q.352.07.68.164l.234.984Zm-5.016-.375-.047.047a5.162,5.162,0,0,0-.727-.047,2.64,2.64,0,0,1-.727-.094,2.549,2.549,0,0,0-.7-.094h-.75a.821.821,0,0,0,.047-.258,1.192,1.192,0,0,1,.023-.234q.023-.117.047-.258a.42.42,0,0,1,.117-.234q.328.047.68.07t.68.07a4.8,4.8,0,0,0,.68.047h.68Zm-8.484-3.281q.563,0,1.078-.047l1.055-.094a10.265,10.265,0,0,0,1.031-.141q.492-.094,1.008-.187h1.688a1.376,1.376,0,0,1,.516.094l.422-.047.7.047,1.125-.094h1.523q.727,0,1.453.047t1.43.117q.7.07,1.406.117l.984-.094,1.5.047a1.126,1.126,0,0,1,.352-.047,2.676,2.676,0,0,0,.375-.023,1.3,1.3,0,0,0,.328-.094,1.89,1.89,0,0,0,.3-.164l.234-.469v-.234a1.086,1.086,0,0,0-.023-.211.516.516,0,0,0-.094-.211,1.231,1.231,0,0,1-.117-.187l-.469-.234h-1.57q-.4,0-.773.023t-.75.07l-2.156-.141-.141-1.5v-.375l2.063.094h.422a1.84,1.84,0,0,0,.4-.047q.211-.047.4-.094a.7.7,0,0,0,.328-.188l.234-.469v-.234a1.086,1.086,0,0,0-.023-.211.515.515,0,0,0-.094-.211,1.231,1.231,0,0,1-.117-.187.7.7,0,0,0-.445-.211q-.258-.023-.539-.023h-.562a2.634,2.634,0,0,1-.516-.047l-2.953.094h-.8l.047-1.828v-.258a1.192,1.192,0,0,0-.023-.234.515.515,0,0,0-.094-.211,1.231,1.231,0,0,1-.117-.187l-.469-.234H77.93a1.192,1.192,0,0,0-.234.023.515.515,0,0,0-.211.094,1.232,1.232,0,0,1-.187.117,1.77,1.77,0,0,0-.258.586,2.915,2.915,0,0,0-.07.656v1.383a4.7,4.7,0,0,1-1.055-.023,7.29,7.29,0,0,0-1.031-.07q-.539,0-1.078-.023a6.606,6.606,0,0,1-1.008-.117h-.961a2.165,2.165,0,0,0-.469.047,1.034,1.034,0,0,0-.4.188l-.234.469v.234a1.086,1.086,0,0,0,.023.211.515.515,0,0,0,.094.211,1.231,1.231,0,0,1,.117.188,1.365,1.365,0,0,0,.727.258q.4.023.82.023a4.712,4.712,0,0,1,.82.07,4.712,4.712,0,0,0,.82.07l-.047.141.047,1.078v.609a7.241,7.241,0,0,0-1.547.07l-1.5.234a9.854,9.854,0,0,1-1.523.117,3.152,3.152,0,0,0-1.43.328l-.234.469v.234a1.086,1.086,0,0,0,.023.211.515.515,0,0,0,.094.211,1.231,1.231,0,0,1,.117.188Zm10.734-2.3H77.977q-.352,0-.68.023t-.656.07l-.656-.047-.047-.7V-15.8l1.125-.094,2.156.141.141,1.078ZM101.2,1.875h.914a2.165,2.165,0,0,0,.469-.047q.211-.047.4-.094l.609.047.234-.047,2.438.047h2.953q.75,0,1.477-.023a3.417,3.417,0,0,0,1.336-.3l.234-.469q-.047-1.031-.141-2.086t-.187-2.086q-.094-1.031-.234-2.062a14.418,14.418,0,0,0-.422-2.016,1.027,1.027,0,0,0-.68-.234,2.64,2.64,0,0,1-.727-.094,2.64,2.64,0,0,0-.727-.094,2.64,2.64,0,0,1-.727-.094l-2.437.094h-.3a2.317,2.317,0,0,1-.328-.023q-.164-.023-.3-.047a1.851,1.851,0,0,1-.281-.07h-.82a6.232,6.232,0,0,0-.773.047q-.375.047-.8.094a1.293,1.293,0,0,0-.7.281l-.094.234h-.094a11.341,11.341,0,0,0-.4,1.922q-.117.984-.164,1.992a13.555,13.555,0,0,1-.234,1.969,13.5,13.5,0,0,0-.234,1.945,1.317,1.317,0,0,0,.023.258q.023.117.047.258a.729.729,0,0,0,.094.258q.07.117.117.211Zm-5.156-.141h.234a1.086,1.086,0,0,0,.211-.023.515.515,0,0,0,.211-.094,1.231,1.231,0,0,1,.188-.117l.234-.469L97.078.516,97.172-6.8l.938,1.172.516.516.469.234h.234a1.086,1.086,0,0,0,.211-.023.515.515,0,0,0,.211-.094,1.231,1.231,0,0,1,.188-.117l.234-.469v-.3a.537.537,0,0,0-.07-.281L99.961-6.4q-.07-.117-.164-.258l-.422-.234a6.3,6.3,0,0,0-.445-.75,8.217,8.217,0,0,0-.562-.727l-.609-.7a5.818,5.818,0,0,1-.539-.727v-.187q.328-.469.633-.961t.656-.984q.352-.492.727-.961t.75-.891l.234-.469v-.258a.627.627,0,0,0-.047-.234,1.64,1.64,0,0,0-.117-.234q-.07-.117-.117-.211a1.107,1.107,0,0,0-.656-.258,6.386,6.386,0,0,0-.773,0,3.172,3.172,0,0,1-.773-.047,4.062,4.062,0,0,0-.75-.07l-.094-.937q-.047-.469-.117-.937a4.894,4.894,0,0,1-.047-.961,1.3,1.3,0,0,0-.258-.867L96-19.5h-.234a1.086,1.086,0,0,0-.211.023.515.515,0,0,0-.211.094,1.231,1.231,0,0,1-.187.117,1.532,1.532,0,0,1-.094.164.521.521,0,0,0-.07.164q-.023.094-.047.164a1.286,1.286,0,0,1-.07.164l.281,2.906v.094h-.773q-.4,0-.773.023a2.85,2.85,0,0,0-.727.141,3.771,3.771,0,0,0-.68.3l-.234.469v.234a1.086,1.086,0,0,0,.023.211.515.515,0,0,0,.094.211,1.231,1.231,0,0,1,.117.188l.469.234h.281a.688.688,0,0,0,.258-.047,1.243,1.243,0,0,1,.258-.07.833.833,0,0,0,.234-.07l3.8.094q-.75,1.125-1.523,2.3T94.523-8.977q-.68,1.242-1.43,2.414a12.216,12.216,0,0,0-1.219,2.484,1.086,1.086,0,0,0,.023.211q.023.117.047.211a.528.528,0,0,0,.094.187,1.231,1.231,0,0,1,.117.188l.469.234h.234a1.086,1.086,0,0,0,.211-.023.515.515,0,0,0,.211-.094,1.231,1.231,0,0,1,.188-.117q.234-.422.422-.844l.375-.844a4.078,4.078,0,0,1,.492-.82,4.078,4.078,0,0,0,.492-.82h.094L95.25-1.969v1.8A8.5,8.5,0,0,0,95.3.727a1.592,1.592,0,0,0,.281.773ZM110.391-.047H107.3v-2.3h.75q.375,0,.727.023t.7.07a2.826,2.826,0,0,0,.727,0l.188,2.016Zm-4.922-.047-1.687.047-.234-.047L102.516,0h-.094l.281-2.2.469.047.891-.141h1.406Zm4.547-3.984a1.945,1.945,0,0,1-.68-.023,3.028,3.028,0,0,0-.68-.07H107.25l-.047-.469V-5.953h.656a4.158,4.158,0,0,1,.633.047,4.158,4.158,0,0,0,.633.047,1.916,1.916,0,0,1,.609.094l.281,1.547Zm-4.594-.047h-.961a4.27,4.27,0,0,0-.469.023q-.211.023-.445.07h-.75l.281-1.922L103.359-6h1.008a2.505,2.505,0,0,1,.492.047l.469.094.094,1.266ZM109.5-8.391h.234a1.086,1.086,0,0,0,.211-.023.515.515,0,0,0,.211-.094,1.76,1.76,0,0,0,.188-.164l.234-.469a6.145,6.145,0,0,0-.141-1.336,8.85,8.85,0,0,1-.187-1.312q-.047-.68-.07-1.359a2.6,2.6,0,0,0-.352-1.242,5.406,5.406,0,0,0-1.078-.445,4.249,4.249,0,0,0-1.2-.164h-1.266a4.914,4.914,0,0,1-1.2-.141,2.256,2.256,0,0,0-.727.023,5.428,5.428,0,0,1-.727.094,2.282,2.282,0,0,0-.68.141,2.087,2.087,0,0,0-.586.352,2.062,2.062,0,0,0-.375.844,6.46,6.46,0,0,0-.117.961q-.023.492-.07.961t-.141.937V-9.75a2.04,2.04,0,0,0,.07.539,1.307,1.307,0,0,0,.211.445l.516.281L105-8.812h1.148a5.283,5.283,0,0,1,1.125.117,6.513,6.513,0,0,0,1.125.141A4.925,4.925,0,0,1,109.5-8.391Zm-.891-2.016-2.062-.234h-.727q-.352,0-.7.023l-.7.047a3.255,3.255,0,0,0-.68.117h-.187l.281-2.719.656-.141a5.011,5.011,0,0,1,.984.094,3.929,3.929,0,0,0,.961.07q.492-.023,1.008-.023a2.952,2.952,0,0,1,.938.141q0,.328.023.656t.023.656a2.806,2.806,0,0,0,.07.633q.07.3.117.586Zm1.547-5.531a.416.416,0,0,1,.188-.047.416.416,0,0,0,.188-.047,1.532,1.532,0,0,0,.164-.094,1.532,1.532,0,0,1,.164-.094l.234-.469v-.234a1.086,1.086,0,0,0-.023-.211.515.515,0,0,0-.094-.211,1.231,1.231,0,0,1-.117-.187,2.05,2.05,0,0,0-.4-.234,1.475,1.475,0,0,0-.469-.117q-.258-.023-.516-.023a2.505,2.505,0,0,1-.492-.047q-.516,0-1.031-.023a6.794,6.794,0,0,0-.984.023q-.469.047-.984.07t-.984.07l-.75-.094h-.68q-.352,0-.7.023t-.727.023a.824.824,0,0,0-.609.234l-.234.469v.234a1.086,1.086,0,0,0,.023.211.515.515,0,0,0,.094.211,1.232,1.232,0,0,1,.117.188,1.533,1.533,0,0,1,.164.094.521.521,0,0,0,.164.07l.188.047a.916.916,0,0,1,.188.07l.469-.047h1.406a.93.93,0,0,1,.422.094q.281,0,.563-.023t.586-.023q.3,0,.586-.023t.563-.07h1.688q.422,0,.844.023A2.679,2.679,0,0,1,110.156-15.937Zm9.938,17.859a.416.416,0,0,1,.188-.047.416.416,0,0,0,.188-.047,1.532,1.532,0,0,0,.164-.094,1.532,1.532,0,0,1,.164-.094l.234-.469-.141-3.234.047-.469V-7.312a1.843,1.843,0,0,1,.492.492q.211.3.445.586a4.019,4.019,0,0,0,.516.516,4.019,4.019,0,0,1,.516.516,1.09,1.09,0,0,0,.211.164,1.09,1.09,0,0,1,.211.164.624.624,0,0,0,.211.141q.117.047.258.094h.258a1.192,1.192,0,0,0,.234-.023.515.515,0,0,0,.211-.094,1.231,1.231,0,0,1,.188-.117l.234-.469v-.234a1.086,1.086,0,0,0-.023-.211A.515.515,0,0,0,124.8-6a1.231,1.231,0,0,1-.117-.187,5.636,5.636,0,0,1-.961-.773,12.024,12.024,0,0,1-.844-.937,12.424,12.424,0,0,1-.75-1.031,8.2,8.2,0,0,0-.773-1.008l-.094-.047a2.8,2.8,0,0,1,.609-.75,5.338,5.338,0,0,0,.656-.68q.281-.352.586-.727a9.178,9.178,0,0,1,.633-.7l.281-.281.234-.469v-.234a1.086,1.086,0,0,0-.023-.211.515.515,0,0,0-.094-.211,1.232,1.232,0,0,1-.117-.187,1.244,1.244,0,0,0-.656-.281,3.3,3.3,0,0,1-.7-.164,2.148,2.148,0,0,0-.727-.117h-.773q-.047-.516-.047-1.055t-.023-1.078q-.023-.539-.023-1.078a1.523,1.523,0,0,0-.328-.961l-.469-.234h-.234a1.086,1.086,0,0,0-.211.023.515.515,0,0,0-.211.094,1.231,1.231,0,0,1-.187.117l-.234.469.141,3.422v.141l-.187-.047h-2.578a1.258,1.258,0,0,0-.75.234l-.234.469v.234a1.086,1.086,0,0,0,.023.211.515.515,0,0,0,.094.211,1.231,1.231,0,0,1,.117.188,2.483,2.483,0,0,0,1.359.281,11.639,11.639,0,0,1,1.477,0q.727.047,1.43.141a7.456,7.456,0,0,0,1.453.047q-.891,1.031-1.781,2.086a16.253,16.253,0,0,0-1.594,2.25q-.7,1.2-1.477,2.32t-1.43,2.3v.234a1.086,1.086,0,0,0,.023.211.515.515,0,0,0,.094.211,1.231,1.231,0,0,1,.117.187l.469.234h.258a.627.627,0,0,0,.234-.047.917.917,0,0,0,.211-.117,1.231,1.231,0,0,1,.188-.117L119.016-6.7h.094l-.047,4.219q.047.516.047,1.055t.023,1.055q.023.516.023,1.055a1.693,1.693,0,0,0,.281.961,1.532,1.532,0,0,1,.164.094.521.521,0,0,0,.164.07q.094.023.164.047A1.286,1.286,0,0,1,120.094,1.922Zm3.844-.7,1.922-.141h5.906q.516-.047,1.078-.07l1.1-.047,1.078-.047a2.467,2.467,0,0,0,1.008-.258l.234-.469V-.047a1.086,1.086,0,0,0-.023-.211.516.516,0,0,0-.094-.211,1.231,1.231,0,0,1-.117-.187l-.609-.281a3.564,3.564,0,0,0-.914.023,5.853,5.853,0,0,1-.914.07q-.469,0-.914.023t-.914.07H131.3V-9.609q.469,0,.891.023t.867.023a3.986,3.986,0,0,1,.867.094,7.918,7.918,0,0,0,.844.141,1.317,1.317,0,0,0,.258-.023l.234-.047a.515.515,0,0,0,.211-.094,1.231,1.231,0,0,1,.188-.117l.234-.469v-.234a1.086,1.086,0,0,0-.023-.211.515.515,0,0,0-.094-.211,1.231,1.231,0,0,1-.117-.187,3.146,3.146,0,0,0-1.008-.3l-1.1-.141a6.779,6.779,0,0,0-1.125-.047,9.014,9.014,0,0,1-1.125-.023V-13.2q0-.867-.07-1.711a15.856,15.856,0,0,1-.047-1.734,4.659,4.659,0,0,0-.258-1.687l-.469-.234h-.234a1.086,1.086,0,0,0-.211.023.515.515,0,0,0-.211.094,1.231,1.231,0,0,1-.187.117,1.231,1.231,0,0,1-.117.188.528.528,0,0,0-.094.188q-.023.094-.047.211a.837.837,0,0,1-.07.211q.047.422.07.82t.023.844q0,.445.023.844t.07.82V-.75h-1.922l-.094-3.187L127.5-5.3V-7.734q0-.609.023-1.242a2.184,2.184,0,0,0-.258-1.148l-.469-.234h-.234a1.086,1.086,0,0,0-.211.023.515.515,0,0,0-.211.094.821.821,0,0,1-.234.117,1.954,1.954,0,0,0-.3,1.148q.023.633.023,1.266v1.242q0,.609-.047,1.219l.094,3.984V-.7h-.75a2.489,2.489,0,0,0-.352.023,3.493,3.493,0,0,0-.352.07l-.234-.047h-.258a1.192,1.192,0,0,0-.234.023.515.515,0,0,0-.211.094,1.231,1.231,0,0,1-.187.117l-.234.469V.281a1.086,1.086,0,0,0,.023.211.515.515,0,0,0,.094.211,1.231,1.231,0,0,1,.117.187,1.231,1.231,0,0,1,.188.117.515.515,0,0,0,.211.094l.234.047A.837.837,0,0,1,123.937,1.219Zm32.391.75h.234a1.086,1.086,0,0,0,.211-.023.515.515,0,0,0,.211-.094,1.231,1.231,0,0,1,.188-.117l.234-.469a2.727,2.727,0,0,0-.539-1.336,6.433,6.433,0,0,1-.75-1.266,8.031,8.031,0,0,0-.727-1.289q-.422-.609-.891-1.172l-.469-.234H153.8a1.086,1.086,0,0,0-.211.023.515.515,0,0,0-.211.094,1.231,1.231,0,0,1-.187.117l-.234.469a.912.912,0,0,0,.07.539,2.331,2.331,0,0,0,.281.469q.164.211.352.422a1.521,1.521,0,0,1,.281.445v.094q-.891.141-1.758.328a13.206,13.206,0,0,1-1.8.258q-.937.07-1.828.164l-1.781.187H146.3a11.72,11.72,0,0,1,.75-1.125q.422-.562.891-1.078t.914-1.055q.445-.539.914-1.055.8.047,1.523.047t1.453.07q.727.07,1.477.07t1.453.047h.258a1.192,1.192,0,0,0,.234-.023.515.515,0,0,0,.211-.094,1.231,1.231,0,0,1,.188-.117L156.8-5.2v-.234a1.086,1.086,0,0,0-.023-.211.515.515,0,0,0-.094-.211,1.231,1.231,0,0,1-.117-.187,10.5,10.5,0,0,0-2.555-.352q-1.336-.023-2.625-.094t-2.625-.117q-1.336-.047-2.648-.141l-1.453.047L144-6.8h-.281a1.708,1.708,0,0,0-.281.023.729.729,0,0,0-.258.094,1.09,1.09,0,0,0-.211.164l-.234.469v.234a1.086,1.086,0,0,0,.023.211.515.515,0,0,0,.094.211,1.231,1.231,0,0,1,.117.188q.141.094.258.164a.537.537,0,0,0,.281.07,2.317,2.317,0,0,1,.328.023,1.742,1.742,0,0,1,.3.07l.563-.047,2.672.094a10.7,10.7,0,0,1-1.055,1.336,11.757,11.757,0,0,0-1.055,1.312q-.469.68-1.008,1.359a8.2,8.2,0,0,0-.914,1.43V.867a.627.627,0,0,0,.047.234.917.917,0,0,0,.117.211,1.231,1.231,0,0,1,.117.187,1.532,1.532,0,0,1,.164.094.521.521,0,0,0,.164.07q.094.023.164.047a1.286,1.286,0,0,1,.164.07,23.161,23.161,0,0,1,2.6-.422q1.336-.141,2.672-.234A25.017,25.017,0,0,0,152.2.8q1.313-.234,2.578-.516l1.078,1.453Zm2.813-9.937h.234a1.086,1.086,0,0,0,.211-.023.515.515,0,0,0,.211-.094,1.231,1.231,0,0,1,.188-.117l.234-.516v-.4a.629.629,0,0,0-.117-.375l-.234-.328q-.117-.164-.211-.3l-1.312-1.594-.75-.656a1.648,1.648,0,0,0-.375-.492,3.757,3.757,0,0,1-.422-.445q-.187-.234-.4-.492a4.191,4.191,0,0,1-.352-.492l-2.109-1.969-.562-.375q-.281-.281-.539-.562t-.539-.562l-.562-.562a1.946,1.946,0,0,1-.422-.609l-.469-.234a.946.946,0,0,0-.516.047,1.779,1.779,0,0,1-.516.117.79.79,0,0,0-.469.188,2.92,2.92,0,0,1-.422.3q-.844.844-1.734,1.594a20.783,20.783,0,0,0-1.711,1.617,18.808,18.808,0,0,1-1.734,1.617q-.914.75-1.758,1.547-.328.328-.633.656t-.609.68a8.416,8.416,0,0,1-.633.656,1.718,1.718,0,0,0-.469.727v.234a1.086,1.086,0,0,0,.023.211.515.515,0,0,0,.094.211.821.821,0,0,1,.117.234l.469.234h.258a1.192,1.192,0,0,0,.234-.023.515.515,0,0,0,.211-.094,1.231,1.231,0,0,1,.188-.117,6.043,6.043,0,0,1,.609-.773q.328-.352.656-.727t.656-.7a3.364,3.364,0,0,1,.75-.562,13.6,13.6,0,0,1,1.523-1.477A17.41,17.41,0,0,0,147-14.25a17.412,17.412,0,0,1,1.57-1.477q.82-.68,1.664-1.43.8.7,1.57,1.453T153.4-14.25a14.025,14.025,0,0,1,1.523,1.523q.7.82,1.406,1.617a3.853,3.853,0,0,1,.68.656q.3.375.586.727t.563.75q.281.4.516.773Zm-4.547-.844h.258a.627.627,0,0,0,.234-.047.917.917,0,0,0,.211-.117,1.231,1.231,0,0,1,.188-.117l.234-.469V-9.8a1.086,1.086,0,0,0-.023-.211.515.515,0,0,0-.094-.211,1.231,1.231,0,0,1-.117-.187,7.174,7.174,0,0,0-2.062-.539,20.157,20.157,0,0,0-2.18-.117,13.107,13.107,0,0,1-2.2-.187q-1.1-.187-2.133-.422h-.375a3.02,3.02,0,0,0-.375.023,1.3,1.3,0,0,0-.352.094,1.89,1.89,0,0,0-.3.164l-.234.469v.234a1.086,1.086,0,0,0,.023.211.515.515,0,0,0,.094.211,1.231,1.231,0,0,1,.117.188,1.532,1.532,0,0,1,.164.094.521.521,0,0,0,.164.07q.094.023.164.047a1.286,1.286,0,0,1,.164.07l.141-.047a17.82,17.82,0,0,1,2.039.3,12.9,12.9,0,0,0,2.086.258l2.133.094A7.464,7.464,0,0,1,154.594-8.812Z" transform="translate(506 169)"/>
    </g>
    <g id="logomark" transform="translate(562 429)">
      <g id="グループ_4905" data-name="グループ 4905" transform="translate(-363.981 -314)">
        <g id="グループ_4904" data-name="グループ 4904" class="cls-2" transform="translate(0 0)">
          <path id="パス_28485" data-name="パス 28485" class="cls-1" d="M-309.872-313.626a18.227,18.227,0,0,0-9.955,10.034,5.025,5.025,0,0,0-.414,1.547,1.116,1.116,0,0,0,.542.447c.239.112.463.208.495.224a7.225,7.225,0,0,1-.447,1.228l-.495,1.2-1.436-1.085a24.332,24.332,0,0,0-5.886-3.254,23.973,23.973,0,0,0-5.248-1.213,1.682,1.682,0,0,1-.8-.191c-.7-.431-4.978.829-8.152,2.425a34.1,34.1,0,0,0-7.865,5.535c-.558.59-.59.67-.414,1.053.255.558.494.542,1.212-.1.623-.542,2.345-1.866,2.744-2.106.128-.063,0,.191-.255.575a15.433,15.433,0,0,0-1.9,13.8,19.478,19.478,0,0,0,3.733,6.476c.558.686.925,1.244.8,1.244a8.752,8.752,0,0,1-1.244-.351,14.136,14.136,0,0,0-5.982-.048,76.335,76.335,0,0,0-8.375,2.712,9.885,9.885,0,0,0-2.871,2.855A19.559,19.559,0,0,0-363.3-268.3l-.7,1.532v11.087l.686,1.308a97.365,97.365,0,0,0,5.456,8.3,22.26,22.26,0,0,0,7.561,5.5c.814.4,2.7,1.1,4.164,1.6l2.664.877-.447,1.308c-1.1,3.223-1.244,6.525-.366,8.248a10.772,10.772,0,0,0,2.7,2.775c2.345,1.484,4.834,1.978,10.05,1.994,4.339,0,4.674-.063,8.917-1.516,2.808-.957,5.392-1.547,5.631-1.292a26.69,26.69,0,0,1-1.946,4.9c-.383.574-.383.59-1.946.75a58.518,58.518,0,0,1-8.423.367c-5.216.015-6.987.175-9.093.845-3.27,1.037-7.338,5.041-9.492,9.332a3.086,3.086,0,0,0-.447,2.122c.08,1.516.191,1.6,2.393,1.739,5.727.383,11.358.526,20.308.51,10.561-.016,18.648-.239,19.526-.543.4-.143.623-.143.814-.016a33.828,33.828,0,0,0,5.2.112c20.706-.271,26.449-.462,34.984-1.133,1.708-.127,3.637-.3,4.307-.383a3.776,3.776,0,0,1,1.484.016,2.248,2.248,0,0,0,1.58-.016c.366-.208.383-.558.047-1.2-.143-.271-.654-1.26-1.132-2.2-1.739-3.43-5.121-6.205-9.843-8.088-1.8-.7-5.121-1.133-9.588-1.228a29.5,29.5,0,0,0-8.216.622,7.925,7.925,0,0,1-2.122.224c-.319-.08-.718-.543-1.611-1.9a19.483,19.483,0,0,1-2.3-4.036,15.172,15.172,0,0,1,2.138.479c11.406,3.1,19.589,2.233,23.976-2.552a13.522,13.522,0,0,0,2.744-5.248,9.676,9.676,0,0,0-.973-5.839l-.447-.893,1.133-.351a40.08,40.08,0,0,0,13.767-7.5,25.915,25.915,0,0,0,5.806-7.115,13,13,0,0,0,.781-7.035c-.67-3.653-4.945-6.955-10.066-7.8-.335-.048-.606-.143-.606-.208a3.283,3.283,0,0,1,1.021-1.388c.766-.51,2.042-2.855,2.648-4.882a19.983,19.983,0,0,0,.846-4.658,7.081,7.081,0,0,1,.175-1.739c.447-2.345.3-3.111-.654-3.558-.51-.239-.543-.3-.447-.846a27.546,27.546,0,0,0-.143-6.062,17.281,17.281,0,0,0-2.09-4.913,17.408,17.408,0,0,0-4.387-4.243,28.891,28.891,0,0,0-9.572-3.908c-4.4-1.117-7.21-1.133-10.577-.032a23.427,23.427,0,0,0-4.993,2.3,6.649,6.649,0,0,1-1.356.718c-.127,0-.414-.527-.685-1.244-1.979-5.328-4.93-9.125-7.083-9.125a1.023,1.023,0,0,0-.67.239c-.176.208-.112.335.4.766a17.543,17.543,0,0,1,3.589,3.94,36.333,36.333,0,0,1,2.473,5.759l.287.909-.543.494a2.219,2.219,0,0,1-.718.495c-.112,0-.255-.51-.366-1.213a12.579,12.579,0,0,0-2.154-5.152,11.825,11.825,0,0,0-3.622-3.925,11.839,11.839,0,0,0-7-2.106,17.641,17.641,0,0,0-8.614,1.866,20.99,20.99,0,0,0-4.9,3.733,13.723,13.723,0,0,1-1.627,1.516c-.239.144-.782.463-1.2.718a2.621,2.621,0,0,1-.8.4,4.564,4.564,0,0,1,.606-1.053,16.58,16.58,0,0,1,6.062-5.727,10.6,10.6,0,0,1,3.51-.973c1.021-.16,1.1-.447.224-.846a3.617,3.617,0,0,0-3.27-.032Zm10.321,4.674a21.46,21.46,0,0,1,5.185,2.233c1.436.973,1.866,1.516,3.174,4.083,1.532,3.016,1.851,4.052,1.994,6.349a17.206,17.206,0,0,0,.239,2.17,1.8,1.8,0,0,0,.591.526c.462.272.494.272,1.132-.047a2.046,2.046,0,0,1,.734-.256c.048.048-.112.351-.351.686a2.664,2.664,0,0,0-.415.8c0,.191.814.67,1.148.67a5.191,5.191,0,0,0,1.228-1.117,27.215,27.215,0,0,1,5.312-4.355,17.518,17.518,0,0,1,9.939-2.456c2.664.111,3.94.479,7.9,2.281,2.792,1.276,3.015,1.419,3.35,2.01.287.527.335.718.191.942s-.064.75.351,2.408a21.617,21.617,0,0,1,.846,7.179c-.239,6.286-3.047,13.081-6.285,15.2a14.011,14.011,0,0,0-1.308.941c-.7.638-.239,1.755.925,2.218a14.958,14.958,0,0,0,2.505.51,59.128,59.128,0,0,1,7.162,1.213,16.858,16.858,0,0,1,4.467,2.169c.957.75,1.213,1.436,1.213,3.43.015,2.569-1.165,5.041-3.558,7.45-3.494,3.542-8.072,5.887-14.884,7.673-2.935.766-3.015.8-3.079,1.213-.063.4.829.909,2.074,1.18l.894.208-.415.431c-.351.367-.462.4-.574.208a1.683,1.683,0,0,0-.686-.463c-.814-.351-1.069-.08-.942.973a11.811,11.811,0,0,1-.733,4.148c-.431,1.516-.75,2.138-.942,1.8s-1-.16-2.44.51a24.22,24.22,0,0,1-8.631,2.329l-1.755.1-.925-.558c-1.244-.781-1.467-.829-1.85-.447-.367.367-.3.8.223,1.292a10.341,10.341,0,0,0,3.765,1.372c1.8.207,4.4-.335,8.231-1.723a5.409,5.409,0,0,0,2.744-1.564l.862-.877-.686,1.324a9.253,9.253,0,0,1-2.919,3.445,13.8,13.8,0,0,1-2.425.845c-1.675.431-1.914.447-5.424.447-5.663,0-7.657-.415-12.985-2.664-2.393-1.005-4.1-2.026-3.973-2.361a14.882,14.882,0,0,1,1.324-1.133,47.079,47.079,0,0,0,5.727-5.7,23.171,23.171,0,0,0,2.984-5.025,4.493,4.493,0,0,0,.431-2.425,6.272,6.272,0,0,0-2.01-4.036c-1.419-1.467-3.414-2.026-6.174-1.77-2.616.255-4.8,1.2-7.705,3.35l-1.962,1.451-.909-.861a13.763,13.763,0,0,0-5.424-3.318,6.331,6.331,0,0,0-2.648-.287c-1.708.064-2.346.367-3.877,1.787a7.226,7.226,0,0,0-2.441,5.775c0,3.158.957,4.562,6.429,9.524a7.655,7.655,0,0,1,1.547,1.691c0,.622-3.254,2.552-4.882,2.888a15.994,15.994,0,0,0-2.169.654,15.869,15.869,0,0,1-6.748,1.164,13.66,13.66,0,0,1-4.148-.351c-3.573-.909-4.993-2.281-5.153-5.009a7.6,7.6,0,0,1,.814-3.956,3.851,3.851,0,0,0,.462-1.946c-.032-1.452-.16-1.58-1.451-1.467a4.623,4.623,0,0,1-2.346-.3c-.685-.223-1.579-.479-1.962-.59a33.983,33.983,0,0,1-3.589-1.659c-2.569-1.292-2.888-1.516-2.936-1.883-.048-.335-.16-.447-.558-.543-2.154-.462-4.02-2.632-6.461-7.482a33.936,33.936,0,0,1-2.92-7.37l-.335-1.372.351-.973a10.537,10.537,0,0,1,5.68-5.7c1.85-.845,5.647-1.42,9.332-1.42,1.85,0,2.313-.048,2.951-.335a2.429,2.429,0,0,1,1.356-.223c.494.08.606.048.829-.3.4-.591.335-1.053-.239-1.643-.271-.287-.463-.558-.431-.606a1.665,1.665,0,0,1,.654.112c1.133.351,1.516-.367.527-.989-.462-.287-.527-.4-.4-.638.271-.51.176-.7-.814-1.516-1.755-1.452-3.031-3.8-3.924-7.258-.59-2.313-.431-3.414,1.165-7.721,1-2.68,1.691-4.084,2.265-4.659a8.236,8.236,0,0,1,4.131-1.515,5.794,5.794,0,0,0,1.691-.431c.239-.223.542-.223,2.792.016,4.9.51,6.062,1.005,9.253,3.892,1.451,1.324,1.818,1.452,2.408.83l.3-.335.287.494a.779.779,0,0,0,.8.495c.558,0,.7-.208.7-1.005a14.439,14.439,0,0,1,2.377-6.157,33.606,33.606,0,0,1,5.663-6.222,14.955,14.955,0,0,1,5.041-2.138,18.885,18.885,0,0,1,4.148.064Zm-40.041,8.423c-.223.415-.814.83-1.005.7-.1-.048.064-.3.351-.558.591-.527.91-.59.654-.144Zm14.629.574c.894.686.59.718-.973.112-1.165-.447-1.468-.766-.862-.861.527-.1.989.112,1.835.75Zm62.264.08c.208.143.208.16,0,.16a1.134,1.134,0,0,1-.479-.16c-.208-.143-.208-.16,0-.16a1.134,1.134,0,0,1,.479.16Zm11.662,17.261-.144.527-.015-.51a2.325,2.325,0,0,1,.1-.8c.191-.479.256.143.064.781ZM-255.761-280c-.208.7-.527,1.26-.351.622.048-.176.128-.558.191-.846.064-.271.176-.51.239-.51.08,0,.048.335-.08.734Zm-86.623,5.009.462.479h-.685c-.558,0-.671-.048-.591-.255a1.811,1.811,0,0,0,.1-.479c0-.351.223-.271.718.255Zm-2.935-.143c1.117.239.75.414-.942.446a25,25,0,0,0-13.049,3.637c-.431.271-.431.271-.239-.063.479-.925,2.457-1.883,6.078-2.983,1.356-.4,2.935-.846,3.51-.957a13.808,13.808,0,0,1,4.643-.08Zm1.26,2.7c-.3.064-1.388.176-2.393.239-3.541.208-6.524.877-8.247,1.866-.463.256-.846.4-.846.319,0-.191.846-.925,1.419-1.212a25.762,25.762,0,0,1,5.281-1.133c1.883-.223,5.711-.287,4.786-.08Zm87.293,1.308c-.112.112-.191.128-.191.032,0-.223.191-.414.3-.3.033.048-.015.176-.112.271Zm-100.183,16.862a9.967,9.967,0,0,1,.718,1.978c-.08.239-1.165-1.308-1.579-2.233a14.97,14.97,0,0,1-.909-3.239c0-.319.829,1.293,1.77,3.493Zm62.5,4.674a3.08,3.08,0,0,1,1.755,2.425c0,1.005-1.739,3.925-4.259,7.195a34.928,34.928,0,0,1-5.344,5.392c-.543.4-1.213.893-1.452,1.085a1.057,1.057,0,0,1-.75.255c-.271-.063-.319,0-.319.383,0,.255-.08.462-.16.462-.191,0-3.733-2.106-5.185-3.079A40.539,40.539,0,0,1-316-240.212c-2.137-2.106-2.44-2.744-2.456-5.185,0-2.68.718-3.51,3.031-3.478,2.137.032,3.829.846,6.524,3.159,2.792,2.393,2.792,2.393,3.908,1.005a20.336,20.336,0,0,1,6.764-4.993,6.167,6.167,0,0,1,3.781.112Zm40.2,1.946a1,1,0,0,1-.271.272c-.256.207-.271.191-.064-.064s.335-.335.335-.207Zm-94.312,5.392a25.827,25.827,0,0,0,5.966,2.2.29.29,0,0,1,.144.542,8.213,8.213,0,0,1-2.027-.479c-5.137-1.547-8.279-3.222-11.023-5.855a10,10,0,0,1-1.324-1.4,27.278,27.278,0,0,1,3.079,1.9c1.675,1.117,4.02,2.5,5.185,3.095Zm91.76-3.8a22.047,22.047,0,0,1-3.366,2.026,13.672,13.672,0,0,1-2.074.829,7.755,7.755,0,0,1-2.664.351,15.494,15.494,0,0,1,1.739-.67c.909-.3,2.7-1.021,3.972-1.564,1.276-.558,2.329-1.005,2.361-1.021.015-.016.032.015.032.047Zm-82.906,6.588a.842.842,0,0,1-.4,0c-.112-.048-.032-.08.191-.08s.3.032.208.08Zm73.383,1.133a8.176,8.176,0,0,1,.909,3.558,7.549,7.549,0,0,1-1.085,3.541c-.287.287-.3.271-.1-.718a16.585,16.585,0,0,0-.511-7.227c-.239-.59.335.016.782.846Zm-74.26.3a15.342,15.342,0,0,0-1.021,2.6,11.808,11.808,0,0,0,.016,4.547,11.36,11.36,0,0,0,2.361,4.259c.813.734.51.814-.718.191a6.933,6.933,0,0,1-2.76-2.792c-.431-.813-.431-.909-.351-2.776a13.526,13.526,0,0,1,1.148-5.233c.383-.813.479-.909.909-.909.256,0,.447.048.415.111Zm71.659,5.728a3.457,3.457,0,0,1-1.467,2.154c-.495.255-.51.063-.08-.591a13.591,13.591,0,0,0,1.021-2.2c.606-1.6.606-1.612.654-.925a6.866,6.866,0,0,1-.128,1.564Zm-68.182,1.77a10.075,10.075,0,0,0,4.658,2.361c1.9.415,2.01.495.925.638a8.562,8.562,0,0,1-4.435-.51c-1.931-.909-2.68-1.946-2.68-3.654l.016-.941.335.622a7.087,7.087,0,0,0,1.181,1.484Zm29.8,1.4c.1.383-.064,6.365-.383,14.214-.08,2.089-.16,3.892-.16,3.988,0,.127-2.074.207-6.891.271-3.8.063-9.221.16-12.029.208-5.232.112-14.979-.176-15.155-.431-.287-.462,1.723-3,3.159-4.02,2.648-1.85,4.882-2.217,11.055-1.8a21.089,21.089,0,0,0,4.866-.207c2.552-.3,5.839-.75,6.62-.91.256-.047.829-1.18,2.632-5.2,1.26-2.84,2.616-5.823,2.983-6.62l.686-1.484,1.26.814c.862.542,1.293.925,1.356,1.18Zm5.807-1.4c.239.16.893.606,1.467,1.021a15.96,15.96,0,0,0,1.691,1.069c.606.3.8.574,2.058,2.92,2.345,4.355,4.8,8.136,5.743,8.886.7.558,2.377.718,5.982.622,1.8-.064,4.211-.223,5.344-.367a27.073,27.073,0,0,1,7.689-.016,9.466,9.466,0,0,1,4.116,2.329c1.675,1.5,1.691,1.563.75,1.675-1.9.239-5.28.431-10.529.574-8.789.239-10.449.319-13.113.654-3.366.414-7.242.75-10.146.877l-2.425.112-.1-1.5c-.064-.83-.1-5.12-.064-9.556s-.015-8.216-.08-8.407c-.112-.287-.032-.415.479-.75.734-.479.623-.463,1.133-.144Zm-20.228,2.2a13.467,13.467,0,0,1-3.318,1.5,24.822,24.822,0,0,1-8.3,1.2,7.928,7.928,0,0,1-3.015-.558c-.431-.16-.495-.526-.064-.383a20.53,20.53,0,0,0,4.212.558,38.378,38.378,0,0,0,8.343-1.739c2.041-.671,2.137-.7,2.137-.575Zm0,0" transform="translate(363.981 313.999)"/>
        </g>
      </g>
      <path id="パス_28486" data-name="パス 28486" class="cls-1" d="M-197.947-212.549a5.256,5.256,0,0,0-3.35,1.707c-.59.638-.638.766-.558,1.34.128.989.383,1.117.877.447a6.8,6.8,0,0,1,3.015-2.249,14.606,14.606,0,0,0,1.707-.909c.176-.287-.654-.447-1.691-.335Zm0,0" transform="translate(-136.253 -85.236)"/>
      <path id="パス_28487" data-name="パス 28487" class="cls-1" d="M-162.473-207.117c-.383.191-.527.367-.527.67,0,.606.415.973.941.814a3.229,3.229,0,0,0,1.723-1.053c.224-.351.224-.431.032-.558a3.34,3.34,0,0,0-2.169.128Zm0,0" transform="translate(-168.935 -89.616)"/>
      <path id="パス_28488" data-name="パス 28488" class="cls-1" d="M-214.995-176.574l-1.005.622v1.324c0,3.111.495,5.264,1.547,6.8,1.005,1.484,1.66,1.516,1.148.063a23.6,23.6,0,0,1-1.037-5.758c-.112-1.739-.112-1.771.319-2.409.431-.654.495-1.117.176-1.228a4.305,4.305,0,0,0-1.148.59Zm0,0" transform="translate(-124.39 -115.006)"/>
      <path id="パス_28489" data-name="パス 28489" class="cls-1" d="M267.957-174.317c0,.048.191.654.431,1.324a7.852,7.852,0,0,1,.447,3.558,11.317,11.317,0,0,1-.447,3.86,22.084,22.084,0,0,1-.909,2.7,6.7,6.7,0,0,0-.479,1.5c0,.846.973.877,1.675.064a20.907,20.907,0,0,0,1.851-5.615,11.237,11.237,0,0,0-.335-4.929c-.51-1.388-1.26-2.425-1.787-2.489-.256-.032-.447-.015-.447.032Zm0,0" transform="translate(-530.338 -117.36)"/>
      <path id="パス_28490" data-name="パス 28490" class="cls-1" d="M-64.886-170.219c-.4.4-.208,1.069.479,1.819a4.134,4.134,0,0,0,4.164,1.34c2.521-.383,3.637-1.4,2.616-2.361-.367-.351-1.228-.479-1.228-.191a5.823,5.823,0,0,1-2.265.718,2.832,2.832,0,0,1-2.329-.941c-.654-.591-1.1-.718-1.436-.383Zm0,0" transform="translate(-251.224 -120.691)"/>
      <path id="パス_28491" data-name="パス 28491" class="cls-1" d="M54.035-158.5c-.4.383.208,1.931.989,2.569a3.415,3.415,0,0,0,2.648,1.069c1.659,0,3.287-.574,3.812-1.34.591-.862.671-1.356.272-1.755-.479-.479-.91-.415-1.468.223a4.041,4.041,0,0,1-2.616,1.053c-.75.063-1.1-.128-1.978-1.053-.75-.829-1.341-1.1-1.66-.766Zm0,0" transform="translate(-351.241 -130.578)"/>
      <path id="パス_28492" data-name="パス 28492" class="cls-1" d="M-122.574-104.615c-.351,1.117-.351,1.244.208,2.807A17.413,17.413,0,0,0-113.337-92a37.382,37.382,0,0,0,10.576,2.824,34.591,34.591,0,0,0,9.349-.75A26.193,26.193,0,0,0-84.4-94.358a31.624,31.624,0,0,0,4.387-4.148c.3-.415.558-.575.861-.575a1.715,1.715,0,0,0,1.356-1.835c-.127-.542-.909-1.26-2.058-1.93-.527-.3-1.085-.638-1.228-.75-.495-.335-.829.208-.877,1.4a4.551,4.551,0,0,1-.3,1.547,13.786,13.786,0,0,1-5.12,5.264,32.789,32.789,0,0,1-13.209,3.031,16.2,16.2,0,0,1-6.7-1.021c-6.493-2.377-10.959-6-12.778-10.338-.51-1.26-1-1.755-1.722-1.755-.479,0-.527.048-.782.846Zm0,0" transform="translate(-202.709 -175.271)"/>
      <path id="パス_28493" data-name="パス 28493" class="cls-1" d="M-266.456-30.237a7.4,7.4,0,0,0-2.5,1.2c-.846.59-.942.718-.894,1.149a.623.623,0,0,0,.495.638c.51.176.479.192,2.361-1.117,1.356-.941,1.978-1.563,1.818-1.8-.1-.176-.67-.208-1.276-.064Zm0,0" transform="translate(-79.119 -238.419)"/>
      <path id="パス_28494" data-name="パス 28494" class="cls-1" d="M-303.693-5.718a2.2,2.2,0,0,0-.7,1.643,11.963,11.963,0,0,0,.558,5.791c1.069,3.493,1.93,4.9,3.621,5.871,1.612.925,1.962.414.654-.99A13.991,13.991,0,0,1-302.385.791a8.76,8.76,0,0,1-.4-3.829c.192-3.286.208-3.174-.08-3.239-.143-.032-.526.224-.829.558Zm0,0" transform="translate(-49.985 -258.631)"/>
      <path id="パス_28495" data-name="パス 28495" class="cls-1" d="M285.389,6.712c-.3.192-.1.734.622,1.691a7.577,7.577,0,0,1,.781,1.244c.367.941.128,2.473-.622,4.227-.319.718-.335.877-.143,1.005a1.634,1.634,0,0,0,1.547-.383,6.118,6.118,0,0,0,.989-3.6,4.226,4.226,0,0,0-1.452-3.446c-.813-.861-1.228-1.037-1.722-.734Zm0,0" transform="translate(-545.68 -269.434)"/>
      <path id="パス_28496" data-name="パス 28496" class="cls-1" d="M284.349,8.867c-.414.16-.383.223.319,1.132a4.865,4.865,0,0,1,1.117,3.143,6.433,6.433,0,0,1-1.4,3.941c-1.26,1.914-2.329,2.807-4.977,4.211-2.456,1.308-2.648,1.516-1.739,2.074.606.383.893.335,2.488-.415a32.161,32.161,0,0,0,4.93-3.238,17.721,17.721,0,0,0,2.106-3.494c.941-2.488.351-5.535-1.372-7.051-.574-.495-.845-.558-1.467-.3Zm0,0" transform="translate(-538.882 -271.237)"/>
      <path id="パス_28497" data-name="パス 28497" class="cls-1" d="M-250.88,88.693c-.479.191-.176.782.766,1.484,2.744,2.042,3.445,2.393,4.77,2.393.8,0,1.228-.287,1.053-.718a.443.443,0,0,0-.4-.239,13.142,13.142,0,0,1-3.781-2.074c-1.292-.909-1.8-1.1-2.408-.846Zm0,0" transform="translate(-94.886 -338.365)"/>
      <path id="パス_28498" data-name="パス 28498" class="cls-1" d="M-171.473,165.238c-.287.128-.527.319-.527.431a6.659,6.659,0,0,0,.957,2.744c.925,1.276,3.287,2.585,4.1,2.25.256-.1.239-.128-.112-.367a12.833,12.833,0,0,1-1.532-1.4c-1.228-1.228-1.6-1.962-1.451-2.855.128-.814-.543-1.18-1.436-.8Zm0,0" transform="translate(-161.371 -402.659)"/>
      <path id="パス_28499" data-name="パス 28499" class="cls-1" d="M325.547-279.131c-.1.271.462,1.292,1.818,3.334a16.108,16.108,0,0,1,2.935,6.541c.144,1.245.239,1.516.495,1.516.7,0,1.1-2.106.638-3.526-.638-1.962-4-7.434-4.866-7.88-.59-.3-.894-.3-1.021.016Zm0,0" transform="translate(-579.536 -29.104)"/>
      <path id="パス_28500" data-name="パス 28500" class="cls-1" d="M-297.379-274.791a30.123,30.123,0,0,0-11.757,7.689c-1.771,1.787-1.946,2.137-1.467,2.7.255.271.335.224,1.659-1.052a40.544,40.544,0,0,1,5.871-4.674c3.191-2.122,5.472-3.159,7.578-3.478.718-.112.75-.143.75-.654a.83.83,0,0,0-.351-.765c-.479-.335-.623-.319-2.281.239Zm0,0" transform="translate(-44.686 -32.566)"/>
      <path id="パス_28501" data-name="パス 28501" class="cls-1" d="M356.815-172.68a35.631,35.631,0,0,1-.957,7.817c-.75,3.462-1.532,5.472-2.823,7.275-.447.638-.51.813-.351,1.005a1.121,1.121,0,0,0,1.18.446c.686-.175,2.345-3.749,3.191-6.844a35.3,35.3,0,0,0,1.069-10.13l-.112-1.356-.59-.048-.606-.048Zm0,0" transform="translate(-602.286 -117.194)"/>
      <path id="パス_28502" data-name="パス 28502" class="cls-1" d="M-298.117-169.715c-.462,1.069-.047,4.578.766,6.668a7.773,7.773,0,0,0,2.106,3.143c1.037.7,1.069.383.176-1.436a19.466,19.466,0,0,1-1.627-5.966c-.176-1.6-.59-2.728-1.021-2.872-.1-.032-.287.175-.4.462Zm0,0" transform="translate(-55.211 -120.877)"/>
      <path id="パス_28503" data-name="パス 28503" class="cls-1" d="M336.178-43.2c-.208.191-.16.335.287.845a1.242,1.242,0,0,0,.781.495c1.037,0,4.339,1.883,5.886,3.366,1.914,1.8,2.409,3.111,2.409,6.365a11.062,11.062,0,0,1-.287,3.031,8.717,8.717,0,0,0-.319,1.276c-.048.431.463.335,1.1-.223.925-.8,1.244-1.947,1.244-4.483a7.9,7.9,0,0,0-.431-3.191c-.638-1.866-1.356-2.808-3.414-4.387-2.185-1.691-4.754-2.983-6.19-3.127a2.453,2.453,0,0,0-1.069.032Zm0,0" transform="translate(-588.381 -227.546)"/>
      <g id="グループ_4907" data-name="グループ 4907" transform="translate(-363.981 -314)">
        <g id="グループ_4906" data-name="グループ 4906" class="cls-2" transform="translate(0 0)">
          <path id="パス_28504" data-name="パス 28504" class="cls-1" d="M317.4,96.382a45.1,45.1,0,0,1-8.6,8.088,15.379,15.379,0,0,1-4.021,1.947c-.51.143-.781.287-.781.446a1.1,1.1,0,0,0,.638,1.133c.415.176.622.112,2.106-.606a31.255,31.255,0,0,0,11.311-9.7c1-1.34,1.132-1.85.542-2.233-.3-.207-.4-.127-1.2.925Zm0,0" transform="translate(-197.455 -30.06)"/>
          <path id="パス_28505" data-name="パス 28505" class="cls-1" d="M-364,115.719V116.9l1.516,1.516a32.288,32.288,0,0,0,11.789,7.37l1.261.462.287-.366c.431-.543.383-.718-.287-.957a41.545,41.545,0,0,1-7.147-3.813c-3.589-2.393-5.44-4.083-6.509-5.966-.191-.335-.479-.606-.622-.606-.256,0-.287.16-.287,1.18Zm0,0" transform="translate(363.981 -46.175)"/>
        </g>
      </g>
      <path id="パス_28506" data-name="パス 28506" class="cls-1" d="M330.783,138.289a37.085,37.085,0,0,1-4.77,4.962c-3.478,2.967-5.44,4.243-7.657,4.945-1.228.383-1.356.462-1.356.829a.878.878,0,0,0,.59.941c.3.16.543.112,1.532-.3a30.881,30.881,0,0,0,5.408-3.111c2.521-1.818,7.626-7.338,7.626-8.232,0-.239-.462-.782-.67-.782a4.161,4.161,0,0,0-.7.75Zm0,0" transform="translate(-572.362 -379.506)"/>
      <g id="グループ_4908" data-name="グループ 4908" transform="translate(-364 -239.096)">
        <path id="パス_28507" data-name="パス 28507" class="cls-1" d="M259.984,155.762c-.3.224-.287.255.239,1.324a20.2,20.2,0,0,1,.83,1.946c.733,2.09.063,4.8-1.708,6.972-.622.75-.51,1.021.415,1.021,2.074,0,3.812-3.829,3.207-7.067-.352-1.882-1.755-4.419-2.441-4.419a1.158,1.158,0,0,0-.543.223Zm0,0" transform="translate(-159.578 -155.539)"/>
        <path id="パス_28508" data-name="パス 28508" class="cls-1" d="M-363.792,158.813c-.128.048-.208.4-.208.925,0,.829.016.861,1.021,1.787a31.233,31.233,0,0,0,13.624,7.147c1.26.3,1.627.208,1.627-.462,0-.287-.256-.431-1.866-.957-5.552-1.819-11.422-5.344-13.209-7.9-.431-.638-.575-.718-.989-.543Zm0,0" transform="translate(364 -158.223)"/>
      </g>
    </g>
  </g>
</svg>
