<svg id="きのこ" xmlns="http://www.w3.org/2000/svg" width="109" height="59.393" viewBox="0 0 109 59.393">
  <defs>
    <style>
      .cls-1 {
        fill: #fff;
        fill-rule: evenodd;
      }
    </style>
  </defs>
  <g id="きのこ-2" data-name="きのこ" transform="translate(-4501.699 -2035.764)">
    <path id="パス_28408" data-name="パス 28408" class="cls-1" d="M4711.915,2274a19.189,19.189,0,0,0-.585-2.536c-.1-.415-.157-.839-.252-1.254a3.319,3.319,0,0,0-.315-.787,21.354,21.354,0,0,0-2.306-3.67c-1.155-1.613-2.372-3.185-3.674-4.676a28.248,28.248,0,0,0-3.555-3.14c-1.062-.866-2.029-1.875-3.118-2.7-.715-.541-1.442-1.067-2.162-1.6-.608-.453-1.224-.839-1.789-1.348a2.308,2.308,0,0,0-1.216-.6,9.4,9.4,0,0,1-1.048-.036q-.124-.246-.246-.491c-.946,0-2.062-.694-3.1-.848a15.754,15.754,0,0,0-3.508-.091,20.1,20.1,0,0,0-10.825,4.136,6.427,6.427,0,0,0-.907.9l-.965,1.09a21.763,21.763,0,0,0-2.171,3.4c-1.024,1.732-2.06,3.459-3,5.24a22.62,22.62,0,0,0-2.219,4.746c-.074.3-.142.6-.209.9-.316,1.406-.685,2.81-.952,4.226a14.2,14.2,0,0,0,.119,3.794h.245v.491h.246v.982l.491.245.491,1.473h.245c-.153,0,.731.769.77.8a6.031,6.031,0,0,0,1.37.851,11.985,11.985,0,0,0,1.676.438,13.118,13.118,0,0,0,6.493.122c2.192,0,4.32-.589,6.591-.646.236-.006-.456,4.825-.456,5.309h-.245v2.454h-.246v2.454h-.246v.491h-.246q-.122,2.332-.245,4.663a28.063,28.063,0,0,0,0,4.417v1.718h.245c.1.391.083.865.471,1.01-.1.969,1.15,1.96,1.9,2.383a9.346,9.346,0,0,0,4.475,1.247c0-.008.073-.222.024-.223,2.393.014,4.084-1.439,5.237-3.452a9.743,9.743,0,0,0,1.144-5.383h.245c-.186-3.17-.833-6.277-1.3-9.433-.166-1.125-.007-2.458-.259-3.531a3.8,3.8,0,0,1-.3-1.474c.008-.119.066-1.58-.105-1.516,1.9-.709,4.977.317,7.116-.245v-.246h.246v.246h.245v-.246c0,.191,2.091-.193,2.219-.222a21.171,21.171,0,0,0,5.06-1.583,6.03,6.03,0,0,0,1.054-.617,5.434,5.434,0,0,0,.5-.768c1.23-.331.954-1,1.473-1.963h.245a2.135,2.135,0,0,1,.021-.464c.616-.171,1.069-2.749,1.122-3.406A5.4,5.4,0,0,0,4711.915,2274Zm-19.381,28.761a5.756,5.756,0,0,1-2.023,3.087,4.723,4.723,0,0,1-3.945,1.234,4.169,4.169,0,0,1-2.324-1.254c-.122-.131-1.229-2.143-.937-2.143h-.245v-.491h-.246c-.251,0,.212-5.609.307-6.232a8.559,8.559,0,0,0,.144-2.167,11.517,11.517,0,0,1,.3-2.349c.124-1.76.3-3.406.289-5.2a5.667,5.667,0,0,1,.434-1.61,9.733,9.733,0,0,0,0-2.076c1.01-.025,3.121-.267,3.682.246a5.81,5.81,0,0,1,2.555.286.526.526,0,0,1,.2.157.592.592,0,0,1,.077.226c.079.408.724,5.713.6,5.713h.246c.072.427-.246.491-.246.491l.246,1.227h-.246c.388,0,.664,5.371.7,5.816.086,1.081.139,2.168.245,3.248a9.387,9.387,0,0,1,.214,1.541C4692.557,2302.593,4692.547,2302.677,4692.534,2302.759Zm16.993-26.443q-.036.138-.078.274a2.834,2.834,0,0,1-.887,1.426c-.211.206-1.236,1.616-1.451,1.616h-.491v.245h-.491v.245h-.736a6.573,6.573,0,0,1-1,.8,5.482,5.482,0,0,1-1.75.523c-1.507.132-2.968.578-4.488.741a25.906,25.906,0,0,1-6.3-.1,57.075,57.075,0,0,0-15.358.474,27.28,27.28,0,0,1-2.746.3,8.257,8.257,0,0,1-4.592-1,8.411,8.411,0,0,1-2.975-2.414,4.792,4.792,0,0,1-.514-1.447,12.093,12.093,0,0,1,.654-5.89,33.317,33.317,0,0,0,1.029-3.527h.245q.123-.613.246-1.227h.246v-.491h.245c-.251,0,.969-2.224,1.019-2.319.483-.922.936-1.859,1.422-2.78a16.256,16.256,0,0,1,3.522-4.849c.528-.457,1.091-.871,1.653-1.285l.843-.62c.35-.258.7-.515,1.061-.757a6.056,6.056,0,0,1,3-1.38c3.747-1.481,7.587-1.647,11.134.551q.728.451,1.417.962a41.239,41.239,0,0,1,3.607,3.134l1.4,1.314c.925.869,1.851,1.737,2.743,2.64a13.325,13.325,0,0,1,2.523,2.689l.981.736v.491l.982.736q.123.491.245.982c.007.025.683.493.781.587a2.962,2.962,0,0,1,.7.88,5.851,5.851,0,0,0,.377.81c.654.963,1.605,1.791,1.857,2.993A8.627,8.627,0,0,1,4709.527,2276.316Z" transform="translate(-101.252 -214.404)"/>
    <g id="きのこ-3" data-name="きのこ" transform="translate(4501.699 2046.764)">
      <path id="パス_28409" data-name="パス 28409" class="cls-1" d="M4574.425,1998.749v-.525l1.313-1.05v-.525a6.794,6.794,0,0,0,.524-3.937H4576a13.489,13.489,0,0,0-.111-2.328c-.21-.53-.613-.945-.822-1.509a9.312,9.312,0,0,0-2.4-4.04,5.06,5.06,0,0,1-.545-.443,2.705,2.705,0,0,1-.39-.732,4.445,4.445,0,0,0-.753-1.163,10.318,10.318,0,0,0-2.21-1.671,23.085,23.085,0,0,0-1.945-1.419,3.548,3.548,0,0,1-.667-.379,4.6,4.6,0,0,0-.363-.317c-.311-.206-.73-.184-1.041-.39a3.129,3.129,0,0,1-.37-.338,11.208,11.208,0,0,0-3.36-1.839,9.789,9.789,0,0,0-8.284-.865,30.424,30.424,0,0,0-6.167,2.359,15.183,15.183,0,0,0-3.155,1.977c-.51.451-.96.97-1.512,1.369-.433.313-.941.538-1.346.89s-.6.832-1.04,1.128v.525l-.788.525c0,.784-1.123,1.712-1.657,2.323a23.8,23.8,0,0,0-2.2,3.149,9.271,9.271,0,0,0-.974,5.267c.057,1.337,1.119,2.729,1.679,3.933a3.679,3.679,0,0,0,.768,1.247c.475.407.781.294,1.074.879h.525v.263l1.05.263v.262c1.125,0,2.5,1.08,3.63,1.4a13.311,13.311,0,0,0,4.309.475c.743-.041,1.491-.142,2.232-.131a1.964,1.964,0,0,1-.2,1.41h-.262a19.894,19.894,0,0,1-.694,2.244c-.471,1.417-.649,2.913-.976,4.345-.06.262-.93,3.714-.693,3.648a.332.332,0,0,1,.243.021,8.514,8.514,0,0,0,1.188,4.373,7.207,7.207,0,0,0,2.647,2.247,9.884,9.884,0,0,0,4.846.97l.262-.525c2.608-.869,2.927-3.721,3.458-6.051a16.408,16.408,0,0,0,.435-4.827c0-2.579-.169-5.209-.292-7.788a.46.46,0,0,1,.052-.293.452.452,0,0,1,.315-.139c2.687-.4,5.466-.078,8.106-.722a17.4,17.4,0,0,0,3.552-1.374c.785-.387,1.595-1.123,2.489-1.136-.034.053.546-1.029.519-1.029Zm-32.02-15.485h.262l.262-.525h.525l.525-.787,1.575-1.312c.277-.231,1.39.179,1.647.351a1.9,1.9,0,0,1,.8,1.677,3.8,3.8,0,0,1-.729,1.861c-1.087,1.632-2.11,1.361-3.822,1.361v-.263c-1.458-.442-.311-.711-1.049-1.575Zm5.021,17.486a1.975,1.975,0,0,1-1.333-1.2,2.969,2.969,0,0,1,.984-3.163c.879-.619,2.4-1.229,3.464-.786l.263.525h.525v.525l.525.263c.021.01.042,1.535.035,1.688-.033.747-.259,1.987-1.084,1.987l-.263.525A12.977,12.977,0,0,1,4547.426,2000.75Zm9.677,8.76a6.053,6.053,0,0,1-.263,1.05h.263c0,2.364.257,5.018-.312,7.328a3.36,3.36,0,0,1-2.838,2.645v.263c-1.963.587-4.779-2.225-4.868-3.994a23.667,23.667,0,0,1,1.176-8.61,5.266,5.266,0,0,1,.5-1.36c.07-.094.57-.448.57-.472v-1.05l.525-.262v-.787h.262q.132-.394.262-.787c1.543-.013,3.6-.157,4.725.262C4557.1,2006.139,4557.174,2007.059,4557.1,2009.51Zm11.343-10.11c-.833.379-1.856.506-2.647.82a10.635,10.635,0,0,1-1.039.411,5.383,5.383,0,0,1-.964.147,17.171,17.171,0,0,0-3.287.273c-.3.092-.583.223-.883.305a7.285,7.285,0,0,1-3.116-.138,12.231,12.231,0,0,0-1.526-.032c-.418-.012-1.6-.136-1.645-.661a2.041,2.041,0,0,1,.309-.946,3.5,3.5,0,0,0,.026-2.48,10.408,10.408,0,0,0-1.163-2.247,1.272,1.272,0,0,0-.391-.448,2.322,2.322,0,0,0-.458-.16c-.552-.186-1.016-.719-1.593-.64-.932.129-1.943.047-2.938.158l-.263.525a2.218,2.218,0,0,0-1.914,1.273,5.287,5.287,0,0,0-.356,1.615l-.091.8a4.785,4.785,0,0,0-.045.788,2.4,2.4,0,0,0,.7,1.556c-.746.031-1.378-.031-2.118-.07-.163-.009-.382.118-.538.071-.321-.1-.646-.475-.885-.593-.625-.308-1.314-.479-1.935-.838a5.421,5.421,0,0,1-2.787-3.03c-.423-.476-.312-1.99-.342-2.578a9.661,9.661,0,0,1,2.266-6.024,5.284,5.284,0,0,1,1.9-1.273c-.2.088,1.083,1.613,1.159,1.739l2.887.263v-.262c0,.011,2.409-.646,2.645-.772,1.108-.59,1.278-1.612,1.817-2.641h.262v-.525h.263v-1.575c.017-.072.351-.078.262-.525h-.262c0-.46-.891-2.8-1.776-2.286a12.744,12.744,0,0,1,1.251-.6v-.263h1.05l.262-.525h1.837v-.263h.525v-.262c.953,0,1.926.058,2.877,0a7.161,7.161,0,0,1,2.361.181c.9.265,1.77.79,2.687,1.128a9.563,9.563,0,0,1,1.936.572c.373.238.634.618.99.881a6,6,0,0,0,.776.436,12.31,12.31,0,0,1,2.04,1.49,3.529,3.529,0,0,0,.814.4,5.67,5.67,0,0,1,1.872,1.64c.56.661,1.12,1.322,1.644,2.011a24.514,24.514,0,0,1,1.631,2.436c-.356-.607-2.547-.387-3.093-.151v.263l-1.05.262c-.014,0-.841,1-.95,1.115a5.06,5.06,0,0,0-1.233,3.364c-.161,1.6-.021,2.761,1.424,3.755a6.4,6.4,0,0,0,.7.4l1.4.723c.059.03.127.081.111.145-.01.039-.049.062-.084.081C4569.307,1998.86,4568.907,1999.19,4568.446,1999.4Zm5.191-3.276-.788.263-.524.787h-1.312v-.263a3.376,3.376,0,0,1-2.1-4.2h.263l.525-1.575c1.473-.332,1.4-.606,3.149-.262a4.578,4.578,0,0,0,.788,1.837Z" transform="translate(-4533.877 -1974.764)"/>
      <path id="パス_28410" data-name="パス 28410" class="cls-1" d="M4645.133,2007.519h-.525c-.477-.438-1.986-.293-2.887-.263v.263h-1.05l-.262.524a2.583,2.583,0,0,0-.415.083c-.506,1.364-1.516,2.12-1.292,3.819a4.431,4.431,0,0,0,.679,1.835c.512.785,1.167.756,1.983.981a4.713,4.713,0,0,0,2.494.139c1.506-.407,1.72-1.631,2.851-2.395v-3.412l-1.312-1.05Zm-1.848,5.475c-.75.214-1.736.442-1.827.3a1.046,1.046,0,0,0-.525-.525,4.124,4.124,0,0,0-.525-2.1c.551-.456.443-.827,1.313-1.05v-.263c1.117,0,2.458-.886,3.177.571a2.909,2.909,0,0,1,.241,1.092,1.845,1.845,0,0,1-.079.83,2.019,2.019,0,0,1-.938.866A6.365,6.365,0,0,1,4643.286,2012.993Z" transform="translate(-4615.609 -2000.069)"/>
    </g>
  </g>
</svg>
