<svg xmlns="http://www.w3.org/2000/svg" width="1055.643" height="582.392" viewBox="0 0 1055.643 582.392">
  <defs>
    <style>
      .cls-1, .cls-2 {
        fill: #fff;
      }

      .cls-2 {
        fill-rule: evenodd;
      }

      @keyframes kirakirazoom3 {
        0%,100% {
        }
       50% {
          transform-origin: 13px 130px;
          transform: translate(433px,3479px) scale(0.7);
        }
      }

      #キラキラ {
        animation: kirakirazoom3 2s step-end infinite;
      }

    </style>
  </defs>
  <g id="star-kinoko1" transform="translate(-416.357 -3499)">
    <g id="キラキラ" transform="translate(416.357 3499)">
      <g id="グループ_4852" data-name="グループ 4852" transform="translate(-332.307 -177)">
        <path id="パス_28045" data-name="パス 28045" class="cls-1" d="M441.326,208.444l.042.013a8.122,8.122,0,0,0,1.021.29,1.98,1.98,0,0,0,.956.058.983.983,0,0,0,.8-1.035c-.026-.368-.256-1.025-1.52-1.276a4.212,4.212,0,0,0-1.166-.059q-1.117-.345-2.227-.8a11.188,11.188,0,0,1-2.312-1.213,9.375,9.375,0,0,1-1.866-1.855,5.538,5.538,0,0,1-.8-1.435c-.1-.325-.184-.656-.256-.983a12.11,12.11,0,0,0-.221-1.577.972.972,0,0,0-.1-.277l-.149-.27a2.041,2.041,0,0,0-.505-.83.982.982,0,0,0-1.553,1.172l.218.392c.115.419.209.841.285,1.274.024.131.049.26.079.391.011.192.018.382.019.573a5.807,5.807,0,0,1-.7,2.178,9.409,9.409,0,0,1-1.694,2.3,5.9,5.9,0,0,1-2.24,1.414,9.143,9.143,0,0,1-2.288.386c-.258-.077-.516-.145-.768-.212-.289-.077-.579-.153-.855-.24a7.28,7.28,0,0,0-2.162-.355,1.588,1.588,0,0,0-1.606.813,1.138,1.138,0,0,0,.333,1.278.864.864,0,0,0,.125.1,3.3,3.3,0,0,0,1.594.55,19.8,19.8,0,0,0,2.751.037l.318,0c.068.022.136.046.2.07a11.275,11.275,0,0,1,4.49,3.345,9.217,9.217,0,0,1,1.726,2.84,11.942,11.942,0,0,1,.653,2.7c-.023.085-.046.171-.068.256a14.843,14.843,0,0,0-.527,3.106l-.01.1c-.038.41-.142,1.5.769,1.882a1,1,0,0,0,.38.076.988.988,0,0,0,.323-.054c.916-.319,1.028-1.462,1.063-1.829a19.974,19.974,0,0,0,.092-2.984c-.009-.129-.019-.258-.031-.388a22.424,22.424,0,0,1,1.121-3.025,17.039,17.039,0,0,1,1.912-3.419,17.759,17.759,0,0,1,2.055-2.268,5.875,5.875,0,0,1,2.03-1.134A2.359,2.359,0,0,1,441.326,208.444Z" transform="translate(-1.534 -0.349)"/>
        <path id="パス_28046" data-name="パス 28046" class="cls-1" d="M432.3,182.648a.982.982,0,0,0-.908,1.051c.079,1.09.2,2.181.321,3.237.089.785.178,1.569.256,2.419a13.061,13.061,0,0,1,.151,2.25,7.423,7.423,0,0,1-.283,1.367.982.982,0,0,0,.647,1.229.967.967,0,0,0,.291.044.983.983,0,0,0,.938-.692,9.262,9.262,0,0,0,.365-1.816,14.691,14.691,0,0,0-.16-2.621c-.073-.8-.163-1.6-.254-2.4-.119-1.051-.238-2.1-.314-3.159A.983.983,0,0,0,432.3,182.648Z" transform="translate(-1.739 -0.099)"/>
        <path id="パス_28047" data-name="パス 28047" class="cls-1" d="M416.968,206.476c-.569.105-1.144.187-1.684.241a9.156,9.156,0,0,1-2.051-.085l-.55-.075c-.481-.068-.964-.135-1.443-.165-.5-.034-1.016-.029-1.523-.021l-.586.006a.982.982,0,0,0,0,1.965l.612-.006c.456-.008.914-.016,1.37.017.431.028.866.088,1.3.149l.549.075a10.9,10.9,0,0,0,1.66.128c.278,0,.556-.011.836-.031.618-.062,1.247-.15,1.87-.266a.982.982,0,1,0-.357-1.931Z" transform="translate(-1.331 -0.515)"/>
        <path id="パス_28048" data-name="パス 28048" class="cls-1" d="M405.714,207.651a1.984,1.984,0,0,0-.117-.713,1.67,1.67,0,0,0-.942-.988,1.942,1.942,0,0,0-1.87.091,1.822,1.822,0,0,0-.783,1.2c-.008.032-.017.072-.027.124a.98.98,0,0,0,.014,1.127,1.385,1.385,0,0,0,.422.847.808.808,0,0,0,.074.068,3.14,3.14,0,0,0,1.092.588,1.52,1.52,0,0,0,.714.2,1.221,1.221,0,0,0,.67-.205.915.915,0,0,0,.174-.146,2.373,2.373,0,0,0,.653-1.783.957.957,0,0,0-.028-.183C405.742,207.8,405.726,207.726,405.714,207.651Z" transform="translate(-1.22 -0.505)"/>
        <path id="パス_28049" data-name="パス 28049" class="cls-1" d="M430.34,180.832a2.145,2.145,0,0,0,.509.18.933.933,0,0,1,.151.049,1.422,1.422,0,0,0,.613.145,1.521,1.521,0,0,0,.306-.032l.113-.019a1.645,1.645,0,0,0,1.462-.978,1.037,1.037,0,0,0,.045-.179,4.142,4.142,0,0,0,.026-1.08,1.644,1.644,0,0,0-.65-1.336,1.58,1.58,0,0,0-1.332-.5.97.97,0,0,0-.693-.027l-.483.161a.973.973,0,0,0-.512.394,1.673,1.673,0,0,0-.361.421,1.028,1.028,0,0,0-.053.1,1.926,1.926,0,0,0-.157.924A1.964,1.964,0,0,0,430.34,180.832Z" transform="translate(-1.703)"/>
        <path id="パス_28050" data-name="パス 28050" class="cls-1" d="M457.332,206.428a4.419,4.419,0,0,1-2.011.392c-.623.02-1.248.014-1.871.01l-.877,0c-.479-.017-.968-.02-1.45-.04-.387-.018-.775-.033-1.168-.04a7.018,7.018,0,0,1-1.9-.286.982.982,0,0,0-.556,1.884,8.97,8.97,0,0,0,2.423.366c.371.006.742.022,1.111.038.514.022,1.037.045,1.538.042l.86,0c.291,0,.582,0,.867,0,.351,0,.694,0,1.015-.016a6.287,6.287,0,0,0,2.836-.572.982.982,0,1,0-.822-1.784Z" transform="translate(-2.01 -0.515)"/>
        <path id="パス_28051" data-name="パス 28051" class="cls-1" d="M465.2,206.748a1.649,1.649,0,0,0-1.714-1.408,1.844,1.844,0,0,0-1.473.448,1.121,1.121,0,0,0-.286.548,2.111,2.111,0,0,0-.428,1.442,2.623,2.623,0,0,0,.384,1.333c.02.03.04.061.063.09a1.91,1.91,0,0,0,1.512.737,1.888,1.888,0,0,0,1.163-.4,1.922,1.922,0,0,0,.55-.673.963.963,0,0,0,.068-.187,3.6,3.6,0,0,0,.093-1.248,1.679,1.679,0,0,0,.079-.57A.929.929,0,0,0,465.2,206.748Z" transform="translate(-2.264 -0.497)"/>
        <path id="パス_28052" data-name="パス 28052" class="cls-1" d="M433.476,227.152a.977.977,0,0,0-1.093.858,12.405,12.405,0,0,0-.088,1.742c0,.326.022.648.046.97.017.246.035.491.039.74,0,.321,0,.642,0,.962l0,.492a.991.991,0,0,0,.008.121,1.678,1.678,0,0,1-.051.654.982.982,0,0,0,1.89.535,3.6,3.6,0,0,0,.118-1.365l0-.428c0-.333,0-.667,0-1,0-.285-.025-.568-.045-.851s-.04-.55-.04-.848a10.69,10.69,0,0,1,.075-1.485A.984.984,0,0,0,433.476,227.152Z" transform="translate(-1.755 -0.88)"/>
        <path id="パス_28053" data-name="パス 28053" class="cls-1" d="M435.1,240.22a5.382,5.382,0,0,0-.476-.85,2.3,2.3,0,0,0-1.822-1.43.975.975,0,0,0-.973.673l-.09.273-.111.107a2.41,2.41,0,0,0-.988,2.182,1.915,1.915,0,0,0,.916,1.327,2.136,2.136,0,0,0,1.241.4,2.02,2.02,0,0,0,.36-.03.985.985,0,0,0,.247-.077,4.96,4.96,0,0,0,.906-.539,3.12,3.12,0,0,0,.373-.283,1.381,1.381,0,0,0,.456-1.657C435.126,240.281,435.113,240.251,435.1,240.22Z" transform="translate(-1.726 -1.07)"/>
        <path id="パス_28054" data-name="パス 28054" class="cls-1" d="M424.936,216.4a21.837,21.837,0,0,0-1.706,2.062c-.391.513-.76,1-1.162,1.457a.983.983,0,0,0,1.478,1.3c.447-.511.855-1.046,1.249-1.564a19.967,19.967,0,0,1,1.55-1.88.983.983,0,0,0-1.409-1.371Z" transform="translate(-1.571 -0.686)"/>
        <path id="パス_28055" data-name="パス 28055" class="cls-1" d="M444.66,216.273c-.2-.2-.4-.4-.61-.592-.148-.141-.3-.28-.441-.424-.252-.252-.489-.52-.726-.788l-.392-.436a.982.982,0,0,0-1.449,1.326l.371.416c.262.3.527.591.807.871.157.158.32.311.482.465.185.174.368.347.569.553a18.334,18.334,0,0,1,1.613,1.772.982.982,0,1,0,1.537-1.224A20.058,20.058,0,0,0,444.66,216.273Z" transform="translate(-1.904 -0.644)"/>
        <path id="パス_28056" data-name="パス 28056" class="cls-1" d="M424.83,201.2a.982.982,0,0,0,1.149-1.593,14.257,14.257,0,0,1-2.271-2.045.982.982,0,0,0-1.464,1.311A16.2,16.2,0,0,0,424.83,201.2Z" transform="translate(-1.574 -0.355)"/>
        <path id="パス_28057" data-name="パス 28057" class="cls-1" d="M441.025,201.047a.979.979,0,0,0,.436-.1c1.259-.625,2.5-1.277,3.735-1.93l.657-.347a.982.982,0,1,0-.916-1.738l-.658.346c-1.225.646-2.449,1.292-3.693,1.91a.982.982,0,0,0,.438,1.862Z" transform="translate(-1.891 -0.348)"/>
      </g>
      <g id="グループ_4654" data-name="グループ 4654" transform="translate(0 39.791)">
        <path id="パス_28058" data-name="パス 28058" class="cls-1" d="M356.263,236.562l.026.007a4.816,4.816,0,0,0,.619.176,1.2,1.2,0,0,0,.579.035.6.6,0,0,0,.486-.628c-.016-.223-.155-.621-.921-.773a2.569,2.569,0,0,0-.707-.035q-.678-.209-1.35-.483a6.756,6.756,0,0,1-1.4-.736A5.679,5.679,0,0,1,352.462,233a3.337,3.337,0,0,1-.487-.87c-.059-.2-.111-.4-.155-.6a7.585,7.585,0,0,0-.134-.956.629.629,0,0,0-.063-.168l-.091-.164a1.229,1.229,0,0,0-.306-.5.6.6,0,0,0-.941.71l.132.238c.07.253.128.51.173.772.015.08.03.158.047.238.007.115.012.231.012.347a3.531,3.531,0,0,1-.422,1.32,5.691,5.691,0,0,1-1.028,1.4,3.56,3.56,0,0,1-1.357.857,5.517,5.517,0,0,1-1.387.234c-.157-.046-.313-.087-.466-.128-.175-.047-.351-.093-.519-.145a4.39,4.39,0,0,0-1.311-.215.964.964,0,0,0-.974.493.691.691,0,0,0,.2.775.642.642,0,0,0,.075.06,2.009,2.009,0,0,0,.967.333,12.063,12.063,0,0,0,1.667.023h.193l.123.042a6.829,6.829,0,0,1,2.721,2.028,5.6,5.6,0,0,1,1.046,1.722,7.276,7.276,0,0,1,.4,1.634l-.041.155a9,9,0,0,0-.319,1.883l-.006.063c-.023.249-.085.91.467,1.142a.6.6,0,0,0,.23.045.61.61,0,0,0,.2-.032c.555-.194.623-.886.645-1.109a12.18,12.18,0,0,0,.056-1.809c-.006-.078-.012-.156-.019-.235a13.677,13.677,0,0,1,.679-1.834,10.314,10.314,0,0,1,1.159-2.072,10.772,10.772,0,0,1,1.246-1.375,3.571,3.571,0,0,1,1.23-.687A1.227,1.227,0,0,1,356.263,236.562Z" transform="translate(-332.497 -217.713)"/>
        <path id="パス_28059" data-name="パス 28059" class="cls-1" d="M350.792,220.925a.6.6,0,0,0-.551.637c.048.661.123,1.322.2,1.963.054.475.108.951.155,1.466a7.918,7.918,0,0,1,.091,1.364,4.487,4.487,0,0,1-.171.829.6.6,0,0,0,.392.745.613.613,0,0,0,.177.027.6.6,0,0,0,.569-.42,5.675,5.675,0,0,0,.221-1.1,8.811,8.811,0,0,0-.1-1.589c-.044-.486-.1-.971-.154-1.456-.072-.637-.143-1.274-.191-1.914A.6.6,0,0,0,350.792,220.925Z" transform="translate(-332.621 -217.561)"/>
        <path id="パス_28060" data-name="パス 28060" class="cls-1" d="M341.5,235.368c-.345.065-.693.114-1.021.146a5.529,5.529,0,0,1-1.243-.051l-.334-.045c-.292-.041-.584-.082-.874-.1s-.616-.017-.923-.012l-.355,0a.6.6,0,1,0,0,1.191l.371,0c.276,0,.553-.01.829.01s.525.054.787.09l.332.045a6.513,6.513,0,0,0,1.007.078c.168,0,.337-.006.507-.019.374-.037.755-.091,1.133-.161a.6.6,0,0,0-.216-1.172Z" transform="translate(-332.374 -217.813)"/>
        <path id="パス_28061" data-name="パス 28061" class="cls-1" d="M334.677,236.08a1.214,1.214,0,0,0-.071-.432,1.012,1.012,0,0,0-.571-.6,1.177,1.177,0,0,0-1.134.055,1.1,1.1,0,0,0-.475.727c0,.021-.01.044-.017.076a.594.594,0,0,0,.009.683.842.842,0,0,0,.256.514.431.431,0,0,0,.044.04,1.9,1.9,0,0,0,.662.357.92.92,0,0,0,.432.12.729.729,0,0,0,.406-.125.54.54,0,0,0,.106-.088,1.438,1.438,0,0,0,.4-1.081.607.607,0,0,0-.017-.111A1.339,1.339,0,0,1,334.677,236.08Z" transform="translate(-332.307 -217.807)"/>
        <path id="パス_28062" data-name="パス 28062" class="cls-1" d="M349.6,219.824a1.327,1.327,0,0,0,.309.108.663.663,0,0,1,.091.029.851.851,0,0,0,.372.088.919.919,0,0,0,.185-.02l.069-.011a1,1,0,0,0,.886-.592.71.71,0,0,0,.027-.109,2.561,2.561,0,0,0,.016-.654,1,1,0,0,0-.394-.81,1.014,1.014,0,0,0-.568-.3,1.043,1.043,0,0,0-.24,0,.589.589,0,0,0-.42-.016l-.293.1a.586.586,0,0,0-.309.239,1,1,0,0,0-.219.255c-.012.021-.023.041-.032.063a1.168,1.168,0,0,0-.1.56A1.192,1.192,0,0,0,349.6,219.824Z" transform="translate(-332.599 -217.501)"/>
        <path id="パス_28063" data-name="パス 28063" class="cls-1" d="M365.965,235.339a2.674,2.674,0,0,1-1.218.239c-.378.011-.756.008-1.134.006l-.533,0c-.29-.011-.587-.012-.878-.025-.235-.011-.471-.021-.708-.025a4.224,4.224,0,0,1-1.148-.174.6.6,0,0,0-.338,1.143,5.43,5.43,0,0,0,1.47.222c.225,0,.449.014.673.024.311.013.629.027.932.026l.521,0,.526,0c.213,0,.421,0,.616-.01a3.8,3.8,0,0,0,1.719-.346.6.6,0,0,0-.5-1.083Z" transform="translate(-332.785 -217.813)"/>
        <path id="パス_28064" data-name="パス 28064" class="cls-1" d="M370.737,235.534a1,1,0,0,0-1.039-.854,1.117,1.117,0,0,0-.893.271.682.682,0,0,0-.173.333,1.281,1.281,0,0,0-.26.874,1.59,1.59,0,0,0,.234.808c.012.019.025.037.037.054a1.159,1.159,0,0,0,.917.448,1.156,1.156,0,0,0,1.038-.649.573.573,0,0,0,.041-.113,2.2,2.2,0,0,0,.057-.756,1.033,1.033,0,0,0,.047-.346A.554.554,0,0,0,370.737,235.534Z" transform="translate(-332.94 -217.802)"/>
        <path id="パス_28065" data-name="パス 28065" class="cls-1" d="M351.505,247.9a.592.592,0,0,0-.663.52,7.651,7.651,0,0,0-.054,1.055c0,.2.014.394.028.588.011.148.022.3.024.448,0,.2,0,.389,0,.583v.3a.616.616,0,0,0,0,.074,1,1,0,0,1-.031.4.6.6,0,0,0,.411.736.583.583,0,0,0,.163.023.6.6,0,0,0,.573-.433,2.181,2.181,0,0,0,.071-.827l0-.259c0-.2,0-.4,0-.608,0-.172-.014-.344-.027-.516s-.025-.333-.025-.513a6.4,6.4,0,0,1,.045-.9A.6.6,0,0,0,351.505,247.9Z" transform="translate(-332.631 -218.035)"/>
        <path id="パス_28066" data-name="パス 28066" class="cls-1" d="M352.489,255.823a3.219,3.219,0,0,0-.288-.515,1.392,1.392,0,0,0-1.105-.868.592.592,0,0,0-.589.408l-.055.166c-.022.021-.045.042-.068.065a1.462,1.462,0,0,0-.6,1.322,1.163,1.163,0,0,0,.555.8,1.294,1.294,0,0,0,.752.241,1.256,1.256,0,0,0,.218-.019.617.617,0,0,0,.15-.046,2.993,2.993,0,0,0,.548-.327,1.84,1.84,0,0,0,.227-.172.836.836,0,0,0,.276-1C352.505,255.861,352.5,255.842,352.489,255.823Z" transform="translate(-332.613 -218.149)"/>
        <path id="パス_28067" data-name="パス 28067" class="cls-1" d="M346.328,241.384a13.365,13.365,0,0,0-1.034,1.25c-.237.311-.461.606-.7.884a.6.6,0,0,0,.9.785c.27-.309.518-.634.756-.948a12.16,12.16,0,0,1,.939-1.14.6.6,0,1,0-.854-.831Z" transform="translate(-332.52 -217.917)"/>
        <path id="パス_28068" data-name="パス 28068" class="cls-1" d="M358.284,241.307c-.12-.123-.245-.241-.369-.36-.09-.084-.181-.169-.267-.256-.153-.153-.3-.315-.44-.477l-.239-.265a.6.6,0,0,0-.877.8l.225.252c.159.18.319.359.488.529.1.1.195.189.293.281s.224.211.345.336a11.091,11.091,0,0,1,.978,1.074.6.6,0,1,0,.932-.742A12.233,12.233,0,0,0,358.284,241.307Z" transform="translate(-332.721 -217.892)"/>
        <path id="パス_28069" data-name="パス 28069" class="cls-1" d="M346.264,232.168a.6.6,0,0,0,.7-.966,8.63,8.63,0,0,1-1.376-1.239.6.6,0,1,0-.887.794A9.755,9.755,0,0,0,346.264,232.168Z" transform="translate(-332.521 -217.716)"/>
        <path id="パス_28070" data-name="パス 28070" class="cls-1" d="M356.081,232.078a.583.583,0,0,0,.264-.063c.762-.378,1.513-.773,2.265-1.17l.4-.209a.6.6,0,0,0-.555-1.054l-.4.21c-.743.392-1.484.783-2.239,1.157a.6.6,0,0,0,.266,1.129Z" transform="translate(-332.713 -217.712)"/>
      </g>
    </g>
    <g id="きのこ" transform="translate(1363 4022)">
      <g id="きのこ-2" data-name="きのこ" transform="translate(-4501.699 -2035.764)">
        <path id="パス_28408" data-name="パス 28408" class="cls-2" d="M4711.915,2274a19.189,19.189,0,0,0-.585-2.536c-.1-.415-.157-.839-.252-1.254a3.319,3.319,0,0,0-.315-.787,21.354,21.354,0,0,0-2.306-3.67c-1.155-1.613-2.372-3.185-3.674-4.676a28.248,28.248,0,0,0-3.555-3.14c-1.062-.866-2.029-1.875-3.118-2.7-.715-.541-1.442-1.067-2.162-1.6-.608-.453-1.224-.839-1.789-1.348a2.308,2.308,0,0,0-1.216-.6,9.4,9.4,0,0,1-1.048-.036q-.124-.246-.246-.491c-.946,0-2.062-.694-3.1-.848a15.754,15.754,0,0,0-3.508-.091,20.1,20.1,0,0,0-10.825,4.136,6.427,6.427,0,0,0-.907.9l-.965,1.09a21.763,21.763,0,0,0-2.171,3.4c-1.024,1.732-2.06,3.459-3,5.24a22.62,22.62,0,0,0-2.219,4.746c-.074.3-.142.6-.209.9-.316,1.406-.685,2.81-.952,4.226a14.2,14.2,0,0,0,.119,3.794h.245v.491h.246v.982l.491.245.491,1.473h.245c-.153,0,.731.769.77.8a6.031,6.031,0,0,0,1.37.851,11.985,11.985,0,0,0,1.676.438,13.118,13.118,0,0,0,6.493.122c2.192,0,4.32-.589,6.591-.646.236-.006-.456,4.825-.456,5.309h-.245v2.454h-.246v2.454h-.246v.491h-.246q-.122,2.332-.245,4.663a28.063,28.063,0,0,0,0,4.417v1.718h.245c.1.391.083.865.471,1.01-.1.969,1.15,1.96,1.9,2.383a9.346,9.346,0,0,0,4.475,1.247c0-.008.073-.222.024-.223,2.393.014,4.084-1.439,5.237-3.452a9.743,9.743,0,0,0,1.144-5.383h.245c-.186-3.17-.833-6.277-1.3-9.433-.166-1.125-.007-2.458-.259-3.531a3.8,3.8,0,0,1-.3-1.474c.008-.119.066-1.58-.105-1.516,1.9-.709,4.977.317,7.116-.245v-.246h.246v.246h.245v-.246c0,.191,2.091-.193,2.219-.222a21.171,21.171,0,0,0,5.06-1.583,6.03,6.03,0,0,0,1.054-.617,5.434,5.434,0,0,0,.5-.768c1.23-.331.954-1,1.473-1.963h.245a2.135,2.135,0,0,1,.021-.464c.616-.171,1.069-2.749,1.122-3.406A5.4,5.4,0,0,0,4711.915,2274Zm-19.381,28.761a5.756,5.756,0,0,1-2.023,3.087,4.723,4.723,0,0,1-3.945,1.234,4.169,4.169,0,0,1-2.324-1.254c-.122-.131-1.229-2.143-.937-2.143h-.245v-.491h-.246c-.251,0,.212-5.609.307-6.232a8.559,8.559,0,0,0,.144-2.167,11.517,11.517,0,0,1,.3-2.349c.124-1.76.3-3.406.289-5.2a5.667,5.667,0,0,1,.434-1.61,9.733,9.733,0,0,0,0-2.076c1.01-.025,3.121-.267,3.682.246a5.81,5.81,0,0,1,2.555.286.526.526,0,0,1,.2.157.592.592,0,0,1,.077.226c.079.408.724,5.713.6,5.713h.246c.072.427-.246.491-.246.491l.246,1.227h-.246c.388,0,.664,5.371.7,5.816.086,1.081.139,2.168.245,3.248a9.387,9.387,0,0,1,.214,1.541C4692.557,2302.593,4692.547,2302.677,4692.534,2302.759Zm16.993-26.443q-.036.138-.078.274a2.834,2.834,0,0,1-.887,1.426c-.211.206-1.236,1.616-1.451,1.616h-.491v.245h-.491v.245h-.736a6.573,6.573,0,0,1-1,.8,5.482,5.482,0,0,1-1.75.523c-1.507.132-2.968.578-4.488.741a25.906,25.906,0,0,1-6.3-.1,57.075,57.075,0,0,0-15.358.474,27.28,27.28,0,0,1-2.746.3,8.257,8.257,0,0,1-4.592-1,8.411,8.411,0,0,1-2.975-2.414,4.792,4.792,0,0,1-.514-1.447,12.093,12.093,0,0,1,.654-5.89,33.317,33.317,0,0,0,1.029-3.527h.245q.123-.613.246-1.227h.246v-.491h.245c-.251,0,.969-2.224,1.019-2.319.483-.922.936-1.859,1.422-2.78a16.256,16.256,0,0,1,3.522-4.849c.528-.457,1.091-.871,1.653-1.285l.843-.62c.35-.258.7-.515,1.061-.757a6.056,6.056,0,0,1,3-1.38c3.747-1.481,7.587-1.647,11.134.551q.728.451,1.417.962a41.239,41.239,0,0,1,3.607,3.134l1.4,1.314c.925.869,1.851,1.737,2.743,2.64a13.325,13.325,0,0,1,2.523,2.689l.981.736v.491l.982.736q.123.491.245.982c.007.025.683.493.781.587a2.962,2.962,0,0,1,.7.88,5.851,5.851,0,0,0,.377.81c.654.963,1.605,1.791,1.857,2.993A8.627,8.627,0,0,1,4709.527,2276.316Z" transform="translate(-101.252 -214.404)"/>
        <g id="きのこ-3" data-name="きのこ" transform="translate(4501.699 2046.764)">
          <path id="パス_28409" data-name="パス 28409" class="cls-2" d="M4574.425,1998.749v-.525l1.313-1.05v-.525a6.794,6.794,0,0,0,.524-3.937H4576a13.489,13.489,0,0,0-.111-2.328c-.21-.53-.613-.945-.822-1.509a9.312,9.312,0,0,0-2.4-4.04,5.06,5.06,0,0,1-.545-.443,2.705,2.705,0,0,1-.39-.732,4.445,4.445,0,0,0-.753-1.163,10.318,10.318,0,0,0-2.21-1.671,23.085,23.085,0,0,0-1.945-1.419,3.548,3.548,0,0,1-.667-.379,4.6,4.6,0,0,0-.363-.317c-.311-.206-.73-.184-1.041-.39a3.129,3.129,0,0,1-.37-.338,11.208,11.208,0,0,0-3.36-1.839,9.789,9.789,0,0,0-8.284-.865,30.424,30.424,0,0,0-6.167,2.359,15.183,15.183,0,0,0-3.155,1.977c-.51.451-.96.97-1.512,1.369-.433.313-.941.538-1.346.89s-.6.832-1.04,1.128v.525l-.788.525c0,.784-1.123,1.712-1.657,2.323a23.8,23.8,0,0,0-2.2,3.149,9.271,9.271,0,0,0-.974,5.267c.057,1.337,1.119,2.729,1.679,3.933a3.679,3.679,0,0,0,.768,1.247c.475.407.781.294,1.074.879h.525v.263l1.05.263v.262c1.125,0,2.5,1.08,3.63,1.4a13.311,13.311,0,0,0,4.309.475c.743-.041,1.491-.142,2.232-.131a1.964,1.964,0,0,1-.2,1.41h-.262a19.894,19.894,0,0,1-.694,2.244c-.471,1.417-.649,2.913-.976,4.345-.06.262-.93,3.714-.693,3.648a.332.332,0,0,1,.243.021,8.514,8.514,0,0,0,1.188,4.373,7.207,7.207,0,0,0,2.647,2.247,9.884,9.884,0,0,0,4.846.97l.262-.525c2.608-.869,2.927-3.721,3.458-6.051a16.408,16.408,0,0,0,.435-4.827c0-2.579-.169-5.209-.292-7.788a.46.46,0,0,1,.052-.293.452.452,0,0,1,.315-.139c2.687-.4,5.466-.078,8.106-.722a17.4,17.4,0,0,0,3.552-1.374c.785-.387,1.595-1.123,2.489-1.136-.034.053.546-1.029.519-1.029Zm-32.02-15.485h.262l.262-.525h.525l.525-.787,1.575-1.312c.277-.231,1.39.179,1.647.351a1.9,1.9,0,0,1,.8,1.677,3.8,3.8,0,0,1-.729,1.861c-1.087,1.632-2.11,1.361-3.822,1.361v-.263c-1.458-.442-.311-.711-1.049-1.575Zm5.021,17.486a1.975,1.975,0,0,1-1.333-1.2,2.969,2.969,0,0,1,.984-3.163c.879-.619,2.4-1.229,3.464-.786l.263.525h.525v.525l.525.263c.021.01.042,1.535.035,1.688-.033.747-.259,1.987-1.084,1.987l-.263.525A12.977,12.977,0,0,1,4547.426,2000.75Zm9.677,8.76a6.053,6.053,0,0,1-.263,1.05h.263c0,2.364.257,5.018-.312,7.328a3.36,3.36,0,0,1-2.838,2.645v.263c-1.963.587-4.779-2.225-4.868-3.994a23.667,23.667,0,0,1,1.176-8.61,5.266,5.266,0,0,1,.5-1.36c.07-.094.57-.448.57-.472v-1.05l.525-.262v-.787h.262q.132-.394.262-.787c1.543-.013,3.6-.157,4.725.262C4557.1,2006.139,4557.174,2007.059,4557.1,2009.51Zm11.343-10.11c-.833.379-1.856.506-2.647.82a10.635,10.635,0,0,1-1.039.411,5.383,5.383,0,0,1-.964.147,17.171,17.171,0,0,0-3.287.273c-.3.092-.583.223-.883.305a7.285,7.285,0,0,1-3.116-.138,12.231,12.231,0,0,0-1.526-.032c-.418-.012-1.6-.136-1.645-.661a2.041,2.041,0,0,1,.309-.946,3.5,3.5,0,0,0,.026-2.48,10.408,10.408,0,0,0-1.163-2.247,1.272,1.272,0,0,0-.391-.448,2.322,2.322,0,0,0-.458-.16c-.552-.186-1.016-.719-1.593-.64-.932.129-1.943.047-2.938.158l-.263.525a2.218,2.218,0,0,0-1.914,1.273,5.287,5.287,0,0,0-.356,1.615l-.091.8a4.785,4.785,0,0,0-.045.788,2.4,2.4,0,0,0,.7,1.556c-.746.031-1.378-.031-2.118-.07-.163-.009-.382.118-.538.071-.321-.1-.646-.475-.885-.593-.625-.308-1.314-.479-1.935-.838a5.421,5.421,0,0,1-2.787-3.03c-.423-.476-.312-1.99-.342-2.578a9.661,9.661,0,0,1,2.266-6.024,5.284,5.284,0,0,1,1.9-1.273c-.2.088,1.083,1.613,1.159,1.739l2.887.263v-.262c0,.011,2.409-.646,2.645-.772,1.108-.59,1.278-1.612,1.817-2.641h.262v-.525h.263v-1.575c.017-.072.351-.078.262-.525h-.262c0-.46-.891-2.8-1.776-2.286a12.744,12.744,0,0,1,1.251-.6v-.263h1.05l.262-.525h1.837v-.263h.525v-.262c.953,0,1.926.058,2.877,0a7.161,7.161,0,0,1,2.361.181c.9.265,1.77.79,2.687,1.128a9.563,9.563,0,0,1,1.936.572c.373.238.634.618.99.881a6,6,0,0,0,.776.436,12.31,12.31,0,0,1,2.04,1.49,3.529,3.529,0,0,0,.814.4,5.67,5.67,0,0,1,1.872,1.64c.56.661,1.12,1.322,1.644,2.011a24.514,24.514,0,0,1,1.631,2.436c-.356-.607-2.547-.387-3.093-.151v.263l-1.05.262c-.014,0-.841,1-.95,1.115a5.06,5.06,0,0,0-1.233,3.364c-.161,1.6-.021,2.761,1.424,3.755a6.4,6.4,0,0,0,.7.4l1.4.723c.059.03.127.081.111.145-.01.039-.049.062-.084.081C4569.307,1998.86,4568.907,1999.19,4568.446,1999.4Zm5.191-3.276-.788.263-.524.787h-1.312v-.263a3.376,3.376,0,0,1-2.1-4.2h.263l.525-1.575c1.473-.332,1.4-.606,3.149-.262a4.578,4.578,0,0,0,.788,1.837Z" transform="translate(-4533.877 -1974.764)"/>
          <path id="パス_28410" data-name="パス 28410" class="cls-2" d="M4645.133,2007.519h-.525c-.477-.438-1.986-.293-2.887-.263v.263h-1.05l-.262.524a2.583,2.583,0,0,0-.415.083c-.506,1.364-1.516,2.12-1.292,3.819a4.431,4.431,0,0,0,.679,1.835c.512.785,1.167.756,1.983.981a4.713,4.713,0,0,0,2.494.139c1.506-.407,1.72-1.631,2.851-2.395v-3.412l-1.312-1.05Zm-1.848,5.475c-.75.214-1.736.442-1.827.3a1.046,1.046,0,0,0-.525-.525,4.124,4.124,0,0,0-.525-2.1c.551-.456.443-.827,1.313-1.05v-.263c1.117,0,2.458-.886,3.177.571a2.909,2.909,0,0,1,.241,1.092,1.845,1.845,0,0,1-.079.83,2.019,2.019,0,0,1-.938.866A6.365,6.365,0,0,1,4643.286,2012.993Z" transform="translate(-4615.609 -2000.069)"/>
        </g>
      </g>
    </g>
  </g>
</svg>
