<svg xmlns="http://www.w3.org/2000/svg" width="18.808" height="18.445" viewBox="0 0 18.808 18.445">
  <g id="icon_close" transform="translate(-230.079 -175.742)">
    <path id="パス_28009" data-name="パス 28009" d="M45.028,25.031l-.661.632-1.007.408-1.091-.1-1.029.361-1.065-.308-1.01-.074-1,.345-1.008.076-1.009-.027-1.012-.3-1.005.373-1.011-.335-1.008.058-1.008.132-1.009-.222-1.008.3-1.008.007-1.008.014-1.009-.2-1.008.015-1.007.31-1.221-.427-.394-1.205.781-.706L24.2,23.9l1.072-.452,1.106.081,1.091.138,1.067.461,1.09-.259L30.7,24.2l1.089-.292,1.081.119,1.084-.231,1.081.236,1.084.094,1.037-.048h1.038l1.019-.283,1.03-.109,1.029-.164,1.049.275,1.031-.064,1.036-.076,1.046-.057.044.714Z" transform="translate(232.949 143.298) rotate(45)" fill="#fff"/>
    <path id="パス_28011" data-name="パス 28011" d="M26.538,35.256l1-.28,1.009.266,1-.167,1-.015,1.005.111.994-.227,1,.012,1.007.11.988-.33,1.011.18.99-.236h1l1,0,1.006.023.994-.142,1.009.027.894-.176.836.2.837.6.057,1.028-.579.434-.682.593-.99-.121-.988-.006-.989-.237-.989.125-.993-.157-.984.267-.988.05-.984.128-.994-.1-1-.09-.982.166-.988.06-.983.142-.987.084-1-.092-.99.026-.979.216-1-.153-.975.223-.994-.083-.334.024-.311-.338-.189-1.2.359-.733.71-.4,1.082.116Z" transform="translate(190.212 183.355) rotate(-45)" fill="#fff"/>
  </g>
</svg>
