<svg xmlns="http://www.w3.org/2000/svg" width="47" height="58" viewBox="0 0 47 58" class="flower">
<style>
path{
  fill:#fff;
  }
  .flower{
    transform-origin: center bottom;
    animation: yurayura 2.5s linear infinite;
}

@keyframes yurayura {
  0% , 100%{
      transform: rotate(5deg);
  }
  50%{
      transform: rotate(-5deg);
  }
}
</style>
<g transform="translate(18 -100)"><rect width="47" height="58" transform="translate(-18 100)" fill="none"/>
<path d="M6047.583,4518.871c-.4-.785-.8-1.427-1.074-2.117a11.4,11.4,0,0,1-1.095-4.279,9.742,9.742,0,0,0-.215-3.493,14.778,14.778,0,0,0-1.7-2.7,34.464,34.464,0,0,1-1.955-3.287c-1.284-2.636-1.28-2.623-1.3-5.5a5.643,5.643,0,0,1,.9-3.011,2,2,0,0,1,1.876-.989,3.091,3.091,0,0,1,2.345.8c.333.327.487.262.714-.106a8.017,8.017,0,0,1,.476-.826c1-1.257,1.744-1.446,3.364-.9.294.1.594.181.9.273.323-.473.6-.924.922-1.339a1.35,1.35,0,0,1,1.729-.319c.271.167.508.387.767.576.172.125.354.236.577.383a8.325,8.325,0,0,0,.907-.874,2.639,2.639,0,0,1,2.584-.919,2.376,2.376,0,0,1,1.453.58c.394.362.785.725,1.181,1.084a.838.838,0,0,0,.884.141c.2-.067.368-.218.563-.3a2.511,2.511,0,0,1,2.162.028,6.675,6.675,0,0,1,1.123.607,3.2,3.2,0,0,1,.881.909,25,25,0,0,1,1.109,2.3,2.654,2.654,0,0,1,.23.917c.06,1.173.081,2.349.119,3.523a10.617,10.617,0,0,1-1.165,4.589,11.669,11.669,0,0,1-1.743,3.04,2.07,2.07,0,0,0-.29,1.83c.092.519.6.979.4,1.507a6.182,6.182,0,0,0-.433,2.172c-.008.747-.07,1.493-.107,2.2-.478.763-.9,1.508-1.391,2.2a4.562,4.562,0,0,1-1.9,1.666,8.118,8.118,0,0,0-1.423.715,4.271,4.271,0,0,1-2.133.567.788.788,0,0,0-.761.835c-.022.641-.054,1.282-.051,1.922q.018,3.045.064,6.09a.466.466,0,0,0,.134.282c.122.128.292.064.418-.184.774-1.527,2.322-2.143,3.608-3.062a1.112,1.112,0,0,1,.605-.167c.746-.009,1.493-.009,2.237.035a1.726,1.726,0,0,1,1.281,1.285c.035.744.034,1.491.019,2.236a1.16,1.16,0,0,1-.188.6,6.6,6.6,0,0,1-2.536,2.361c-1.065.516-2.235.67-3.3,1.163-.285.132-.627.145-.908.283a1.189,1.189,0,0,0-.752.968,13.791,13.791,0,0,0,.376,4.75,4.39,4.39,0,0,1,.19,1.25c.056,1.174.083,2.349.112,3.524a5.3,5.3,0,0,0,.29,1.563c.147.446-.352.95-.937,1.019-.1.012-.256.021-.311-.038a3.409,3.409,0,0,1-1.006-2.277c-.028-1.282-.036-2.565-.053-3.847a8,8,0,0,0-.454-3.14,9.623,9.623,0,0,1-.279-2.206.686.686,0,0,0-.412-.437,5.758,5.758,0,0,0-.949-.114,5.5,5.5,0,0,1-1.558-.258c-.777-.36-1.63-.411-2.411-.81a4.1,4.1,0,0,1-2.273-3.582c-.052-.529.01-1.069-.018-1.6a3.913,3.913,0,0,1,.679-2.1,1.286,1.286,0,0,1,1.019-.666,5.546,5.546,0,0,1,4.708,1.5c.2.173.4.17.524.031a.477.477,0,0,0,.141-.277q0-2.723-.02-5.446a.88.88,0,0,0-.728-.891,13.5,13.5,0,0,1-2.514-.345A16.56,16.56,0,0,1,6047.583,4518.871Zm3.038-11.277c.019.213.029.427.062.639a.655.655,0,0,0,.116.285c.03.041.126.034.192.048a2.1,2.1,0,0,0,.062-.581c-.037-.22-.238-.329-.481-.345a5.16,5.16,0,0,0,.021-.637c-.189-2.2.29-4.456-.577-6.607a3.6,3.6,0,0,1-.055-1.266c-.006-1.38.01-2.762-.013-4.143a1.525,1.525,0,0,0-.858-1.253.746.746,0,0,0-.858.134,4.135,4.135,0,0,0-.585,3.914,5.9,5.9,0,0,1,.33.888c.165,1.145.92,2.156.741,3.386a2.114,2.114,0,0,0,.212.917,28.958,28.958,0,0,1,1.232,4.235C6050.191,4507.359,6050.462,4507.466,6050.621,4507.594Zm-1.571,3.446c-.51.21-1,.388-1.476.616a1.325,1.325,0,0,0-.648,1.346,5.2,5.2,0,0,1,.364.88,6.341,6.341,0,0,0,1.911,3.584,4.8,4.8,0,0,0,3.646,1.664c1.384,0,2.767-.024,4.15-.031a3.013,3.013,0,0,0,1.527-.374,12.624,12.624,0,0,1,1.412-.73,4.748,4.748,0,0,0,2.807-3.616c.165-.722.3-1.441.535-2.15a4.416,4.416,0,0,0,.063-1.266.714.714,0,0,0-.531-.691,1,1,0,0,0-.9.117,1.6,1.6,0,0,0-.391.492c-.357.58-.82.564-1.349.271-.087-.048-.227-.121-.281-.086a.942.942,0,0,1-1.364-.292,1.964,1.964,0,0,0-2.054-.51,2.944,2.944,0,0,0-1.068.637.88.88,0,0,1-1.132.125c-.55-.358-1.266-.076-1.827-.469-.334-.234-.587.049-.781.288-.265.327-.466.709-.754,1.01a.612.612,0,0,1-.576.089A15.629,15.629,0,0,1,6049.05,4511.04Zm7.9-5.208a3.286,3.286,0,0,0-.074-.869,5.063,5.063,0,0,1-.507-2.139c.1-.894-.537-1.622-.565-2.449a17.192,17.192,0,0,0-.688-3.4,10.571,10.571,0,0,0-1.91-4.277c-.157-.22-.4-.225-.5-.038a4.223,4.223,0,0,0-.788,2.363,4.67,4.67,0,0,1-.153,1.251c-.091.406-.384.809-.348,1.191.049.507.311.994.065,1.515a5.545,5.545,0,0,1,.41,2.792c.012.849.026,1.7.034,2.546a4.432,4.432,0,0,0,.343,1.535,12.062,12.062,0,0,1,.329,1.538,1.047,1.047,0,0,0,.239.563,3.318,3.318,0,0,0,1.659.848.6.6,0,0,0,.3-.044A3.262,3.262,0,0,0,6056.951,4505.833Zm-.632-11.445a6.319,6.319,0,0,0,.264,1.938c.353.809.287,1.7.605,2.444a8.86,8.86,0,0,1,.55,2.787,1.64,1.64,0,0,0,.135.614,5.884,5.884,0,0,1,.47,2.795c.022.95.05,1.9.123,2.849.011.138.273.328.449.369a1.573,1.573,0,0,0,1.864-1.282c.051-.954.053-1.91.089-2.866a9.164,9.164,0,0,1,.383-2.491,5.315,5.315,0,0,0-.049-3.437,6.328,6.328,0,0,1-.338-1.861,2.659,2.659,0,0,0-.114-.943,13.966,13.966,0,0,0-1.614-3.085,1.445,1.445,0,0,0-1.4-.579,1.662,1.662,0,0,0-1.311,1.224C6056.39,4493.284,6056.367,4493.708,6056.319,4494.387Zm-13.027.666a2.692,2.692,0,0,0-.545.268,3.329,3.329,0,0,0-.885,1.671,3.25,3.25,0,0,0-.108,1.569,10.8,10.8,0,0,0,.712,2.433,30.252,30.252,0,0,0,1.894,3.693c.668,1.077,1.615,1.964,2.312,3.042a1.38,1.38,0,0,0,1.461.424.571.571,0,0,0,.369-.415,5.637,5.637,0,0,0-.236-.905c-.448-2.067-1.114-4.084-1.488-6.162-.154-.854-.583-1.589-.731-2.432a10.438,10.438,0,0,0-.572-1.477C6045.112,4495.715,6044.178,4495.421,6043.292,4495.053Zm23.289,3.273a4.03,4.03,0,0,0-.19-1.321,12.9,12.9,0,0,0-1.274-3.249c-.062-.086-.136-.164-.2-.25a1.6,1.6,0,0,0-1.73-.5,1.469,1.469,0,0,0-.972,1.778,5.857,5.857,0,0,1,.521,1.49c.051,2.669.024,5.34.009,8.01a1.3,1.3,0,0,1-.187.6c-.329.578.205,1.255-.228,1.819-.052.067-.016.206-.01.311.012.229.121.431.336.457a.878.878,0,0,0,.588-.125,2.585,2.585,0,0,0,.639-.7,30.3,30.3,0,0,0,2.369-5.889A6.122,6.122,0,0,0,6066.581,4498.326Zm-11.445,34.509c.011-1.8-.483-3.317-2.261-4.173a9.953,9.953,0,0,1-1.285-.923.913.913,0,0,0-1.136.247,1.639,1.639,0,0,0-.462.8,24.541,24.541,0,0,0,.018,2.528,1.089,1.089,0,0,0,.235.577,2.84,2.84,0,0,0,2.328,1.425,10,10,0,0,1,1.565.159C6054.9,4533.579,6055.132,4533.443,6055.136,4532.835Zm8.884-4.519c-.095-.146-.2-.5-.435-.625a1.083,1.083,0,0,0-.907-.055,23.859,23.859,0,0,0-2.6,1.742,4.1,4.1,0,0,0-1.605,2.607c-.022.144.226.479.291.464a13.918,13.918,0,0,0,3.256-1.02,2.826,2.826,0,0,0,1.491-1.525A3.069,3.069,0,0,0,6064.02,4528.316Z" transform="translate(-6048.122 -4389.761)" fill="#fff"/>
</g>
</svg>