<svg xmlns="http://www.w3.org/2000/svg" width="12.545" height="16" viewBox="0 0 12.545 16"><defs><style>.a{fill:#89634a;}</style></defs><path class="a" d="M31.419,19.2l.21-.267.061-.319.158-.255.116-.283.259-.189.255-.192.171-.247.01-.353.2-.226.123-.278.213-.219.277-.177.072-.312.177-.243.239-.2.108-.289.069-.315.321-.147-.01-.367.221-.214.136-.27.162-.254.231-.2.125.271.031.287-.08.309,0,.3.08.281.039.288.247.249.084.247.019.282.263.162.284-.132.089-.3.189-.236.164-.26.094-.287.095-.287.076-.292.038-.3.064-.294-.023-.309-.012-.3.213-.264-.069-.312.055-.288.127-.273-.04-.306.108-.277-.045-.307.216-.257.11-.277.048-.289.008-.3-.1-.316.033-.291.256-.253-.069-.309-.037-.3.034-.286.131-.327-.309-.117-.274.032-.28.075-.344-.028-.2.275-.334.031-.233.2L35.8,8.45l-.215.224L35.3,8.8l-.147.307-.342.058-.185.255-.25.175-.2.229-.185.244-.258.17-.211.221-.262.156L33,10.768l-.232.2-.219.212-.247.172-.228.195-.236.208-.243.223-.079.32-.027.335.318.087.292.085h.311l.311-.027.314.02.29.02-.124.251-.189.234-.207.223-.005.344-.3.167.018.358-.287.175-.111.281-.109.282-.143.261-.205.224-.062.31-.229.209-.246.2-.016.336-.116.276-.333.178-.178.278.016.369-.217.239.046.3,0,.315.194.265.3.1.317-.008Z" transform="translate(-25.497 -7.708)"/><path class="a" d="M18.425,31.085c-.006-.3-.01-.6-.029-.9-.007-.107-.094-.264-.061-.37l.1-.312.032-.315v-.316l-.083-.316.015-.3.088-.3-.04-.3-.065-.3.034-.3.006-.3a4.931,4.931,0,0,1,.165-2.1l.033-.32a2.741,2.741,0,0,1,.148-1.3.3.3,0,0,1,.077-.113,1.4,1.4,0,0,1,.758-.1l.3-.057.3-.044.3-.026.3-.006.3-.025.3.057.3.029.3-.134.3-.046.3.08.3-.015.3.094.3-.118.3.016.3-.006.3.043.3-.04h.3l.3-.094.325.066-.094.447.018.219-.256.032a15.1,15.1,0,0,1-1.638.074,24.574,24.574,0,0,0-2.752-.014c-.076.01-.216.08-.282.078l-.35-.013-.354.01-.338.164-.1.272-.066.275-.086.267-.076.273-.04.281-.063.288-.022.292-.059.289.058.3-.081.288.03.3,0,.292a1.755,1.755,0,0,1-.032.307,7.768,7.768,0,0,0-.045.851,5.5,5.5,0,0,0,.015.909,2.507,2.507,0,0,1,.064.432l-.059.338.071.3-.034.306-.044.307a5.745,5.745,0,0,0,.075.775l.345.092a10.677,10.677,0,0,0,2.3.072c.16.008.321.016.481.034.087.01.174.024.262.031a3.824,3.824,0,0,0,.829-.006c.1-.016.2-.109.3-.109l.312.038.3-.106.318.116a2.432,2.432,0,0,1,.672-.074c.187,0,.374,0,.562,0l1.3-.01a4.015,4.015,0,0,0,.017-1.065l-.007-.337-.093-.332.115-.345-.04-.325-.1-.324.059-.326a8.617,8.617,0,0,1,.014-2.357.082.082,0,0,1,.1-.089c.265-.02.385-.038.564.155l.048.3c.042.382-.042.821,0,1.223A5.577,5.577,0,0,0,27.746,29l.042.3-.017.295-.038.294-.052.294.1.3-.069.305a3.626,3.626,0,0,1,.019,1.381.263.263,0,0,1-.071.17.272.272,0,0,1-.131.047c-.979.163-1.978-.088-2.96.084l-.31.028-.312,0-.313,0-.3.1-.263-.06-.257.01-.259.053-.322.017-.32-.062-.322.02-.32-.108a2.813,2.813,0,0,1-.965,0l-.294,0a8.644,8.644,0,0,1-1.182-.038.382.382,0,0,1-.238-.065.368.368,0,0,1-.1-.238A9.235,9.235,0,0,1,18.425,31.085Z" transform="translate(-18.327 -16.619)"/></svg>