<svg xmlns="http://www.w3.org/2000/svg" width="130.768" height="146.558" viewBox="0 0 130.768 146.558">
  <g id="イラスト" transform="translate(-217.037 -4295.568)">
    <g id="気球" transform="translate(-67.216 3529.638)">
      <path id="パス_27568" data-name="パス 27568" d="M397.925,852.168c1.528.288,4.637-.461,6.613,1.129a.984.984,0,0,1,1.358.295.953.953,0,0,1,.094.189,1.131,1.131,0,0,0,.323-.484c3.834,1.454,6.022,5.38,7.419,8.871a.444.444,0,0,1-.484.323c.1.731.741.081.806.968-.131-.031-.161-.162-.323-.161,1.414,2.019.472,3.832,1.29,5-.941,1.983.472,4.881-.968,6.29.675.091-.154.591.161,1.29a.9.9,0,0,1-.645.161c.7.544-.6,2.1-.161,2.9-.131-.031-.161-.162-.323-.161-.378,2.1-1.944,4.394-2.419,6.936-.585-.587.015.834-.806.484a3.752,3.752,0,0,1-.162,1.613c-.084.194-.515.282-.645.484-.8,1.249-1.06,3.876-2.258,4.194.546,1.028-.9,1.316-.806,2.419-.625-.1-.664-.134-1.129.161.04.416.278-.221.645,0-.54.847-.667,3.1-2.418,3.226-.463,2.265-.039,5.124-1.613,6.613.157.452.429-.234.645.161-.581.309.617.993-.161.968.8.42.15,2.661.323,2.419,1.086,3.544-3.646,3.638-6.129,4.032-1.891-1.041-1.269-4.46-1.129-7.419-.924-1.215-.581-3.677-1.129-5.806-.071-.239-.207.064-.484,0a71.319,71.319,0,0,0-5.323-7.742v-.806c-1.936-1.933-2.226-3.858-3.549-6.936-.026-.189-.294-.136-.484-.161a13.562,13.562,0,0,0-.806-3.71,22.2,22.2,0,0,1-.968-7.1c.043-2.061-.055-3.679-.161-5.806.578.2.085-1.238.645-1.129.089-.358-.308-.23-.323-.484.818-2.311,1.285-4.464,2.581-6.452,1.116-1.711,3.458-2.769,4.194-3.71,2.738-1.442,5.667-3.057,9.032-2.742C398.177,852.347,398.106,852.2,397.925,852.168Zm.645,43.548c.021-.45-.285-1.119-.323-1.774-.158-2.871-.253-8.3-.16-11.935-1.3-8.29-3.034-18.2,0-28.064-1.263.351-2.291.106-3.387.968-.99.777-3.272,4.546-3.387,6.29-1.693,2.172-1.1,6.012-1.452,7.581a12.622,12.622,0,0,0,.161,4.355c.063.766.228,1.373.323,2.1.162,1.235.032,2.28.16,3.065.192,1.169,1.312,2.668.807,3.71,1.4,1.492,1.107,4.234,2.258,5.645-.039.23-.266.272-.323.484.949-.2.6,2.364,1.291,2.258.189.428-.309.95,0,.968,1.04,1.592,1.6,4.666,2.582,6.452.574-.382.981-.07,1.29-.161a9.959,9.959,0,0,1,.161-1.942Zm4.677-3.871c.4-.5-.291.35.161.323.105-.2.462.439.645.323a9.884,9.884,0,0,0-1.452,3.871,45.1,45.1,0,0,0,2.742-4.839c.181-.017.251.234.323,0-.181-.034-.251-.179-.323-.323.973-1.056,1.36-2.628,1.935-3.064-.271-.66.783-2.642.968-1.936-.285-.529.244-1.807.645-1.613-.115-.814.5-.9.323-1.774a3.041,3.041,0,0,0,.806-1.774c.591.239.446-2.393,1.452-2.742.227.042.184.354.323.484.44.015.325-.269.645,0a.909.909,0,0,1,.161-.645c-.789-.014-.435-.691-1.29-.323.491-1.283.7-2.849,1.451-3.871-.331-3.446.539-7.01-.645-10.484-.036.125,0,.318-.161.323.227-1.348-1.331-2.108-.484-3.064-.72.232-1-1.138-1.452-1.935a11.486,11.486,0,0,0-4.516-4.032c-.068.359-.856.126-.968,0,1.646,1.872,2.237,4.544,3.064,6.451.7,1.6.445,4.073.968,5.323.182.435-.09-.092,0,.323.048.218.429.212.484.484a3.39,3.39,0,0,1-.323,1.452c.009.162.537.323.484.645-.222,1.337,0,2.893-.323,4.032.125.036.318,0,.323.161-.093,3.641-2.681,10.051-3.387,13.871-.381,2.063-2.035,3.877-2.258,4.355-.381-.473.31-.6,0-.806-.176.107-.638.731-.32.8Zm-4.677,7.419c.791,1.71.632,2.8.484,5.161.768-.058,1.206-.088,1.613-.161A19.762,19.762,0,0,1,401.8,899.1c-1.38.124-1.333.064-3.225.162Zm-3.064.484c.341,1.378,1.048,3.348.807,5a2.35,2.35,0,0,0,1.451-.323c-.644-1.568-.023-2.742-.161-5-.9-.079-1.507-.264-2.1.324Zm.807,6.452a28.162,28.162,0,0,0,.484,4.032c1.141.378,2.415-.524,3.71,0-.591-1.272.292-2.356.161-4.032C398.657,906.1,397.344,906.258,396.313,906.2Z" fill="#26333b" fill-rule="evenodd"/>
    </g>
    <g id="太陽" transform="translate(-67.216 3529.638)">
      <path id="パス_27559" data-name="パス 27559" d="M285.165,794.28c-.006-.217-.273-.173-.446-.223.133-.893,1.891.345,1.785-.67a1.126,1.126,0,0,1,.67.67c.684-.927,2.045.01,2.9.67.184.631-.314.578-.223,1.116a3.876,3.876,0,0,0-2.232.67c-.972-1.407-3.608-.2-3.348-2.455C284.673,794.028,284.743,794.33,285.165,794.28Z" fill="#26333b" fill-rule="evenodd"/>
      <path id="パス_27560" data-name="パス 27560" d="M321.767,787.585c1.043-.147,3.549.933,3.348,2.009,2.394.425,1.669,2.621,3.348,3.794-.489.774-.46.411.223.67-.224.3-.211.83-.67.893a1.582,1.582,0,0,0,.67.446c-.345,3.289.512,5.752-.893,7.811-.4.587-.309.4-.446.893-.292,1.056-2.226,2.994-3.348,3.794-.652.465-1.8.181-1.785,1.116-.965-.57-2.477.916-3.124,0-3.6,1.972-7.665-.166-10.713-2.232.494-.321-.281-.545.223-.669-2.851-3.158-3.788-7.311-2.232-9.82-.522-.309.537-3.824,1.339-4.91a9.785,9.785,0,0,1,1.116-.67c1.523-1.315,3.143-4.163,4.91-2.9.036-.26-.049-.4-.223-.446C315.687,786.814,319.561,785.272,321.767,787.585Zm-1.339,1.562c-1.794.08-3.672,0-5.356,0a10.681,10.681,0,0,0-6.472,7.588,24.657,24.657,0,0,0-.669,2.9c.021.189.608.113.669.223.659,1.175.169,2.786,1.339,4.018A16.734,16.734,0,0,0,313.51,807c2.961-1.248,5.676.025,8.927-1.339.849-.862.968-2.454,2.455-2.678.091-.538-.407-.485-.223-1.116.334-.038.824.08.893-.223-.322-.495-.545.281-.67-.224a8.066,8.066,0,0,0,.893-4.463c-.064-1.11-.236-3.362-1.116-3.571.3-1.932-3.113-3.054-3.794-4.018C320.75,789.9,319.818,789.506,320.428,789.147Z" fill="#26333b" fill-rule="evenodd"/>
      <path id="パス_27562" data-name="パス 27562" d="M305.028,766.159c.4.028.471-.273.893-.223,1.882.265,3.509,3.921,2.9,6.026-.991.49-.9-.615-1.339.223C305.228,770.223,305.957,768.44,305.028,766.159Z" fill="#26333b" fill-rule="evenodd"/>
      <path id="パス_27563" data-name="パス 27563" d="M341.407,774.2c-.7,2.463-3.394,3.215-5.356,3.794-.1-.425-.48-.561-.446-1.116C337.7,775.9,339.013,771.928,341.407,774.2Z" fill="#26333b" fill-rule="evenodd"/>
      <path id="パス_27564" data-name="パス 27564" d="M347.88,803.877a7.051,7.051,0,0,1-7.365-.893c.494-1.869,3.021-.733,4.018-1.339C344.08,802.387,348.212,801.114,347.88,803.877Z" fill="#26333b" fill-rule="evenodd"/>
      <path id="パス_27565" data-name="パス 27565" d="M291.638,814.813c.192.18.133.611.446.67-.585,1.682-4.363,5.281-4.91,2.232C289.213,816.66,289.527,814.849,291.638,814.813Z" fill="#26333b" fill-rule="evenodd"/>
      <path id="パス_27566" data-name="パス 27566" d="M332.48,824.856c.755.063,1.369.268,1.339,1.116,1.491-.266,3.347,2.809,3.348,3.348.738.335-.464.546-.223,1.116C334.242,829.2,331.946,827.1,332.48,824.856Z" fill="#26333b" fill-rule="evenodd"/>
      <path id="パス_27567" data-name="パス 27567" d="M310.384,827.534c.458.484.969-.027.223-.223a1.827,1.827,0,0,1,1.339-.446c.356.165-.051,1.092.67.892-.434,1.884.014,5.342-.67,7.142-.537.473-1.186.037-1.562,0-.775-2.667-.465-3.753-.223-6.919C310.81,828.3,310.412,828.152,310.384,827.534Z" fill="#26333b" fill-rule="evenodd"/>
    </g>
  </g>
</svg>
