<svg xmlns="http://www.w3.org/2000/svg" width="112.046" height="235.969" viewBox="0 0 112.046 235.969">
  <defs>
    <style>
      .cls-1 {
        fill: #26333b;
      }
    </style>
  </defs>
  <g id="イラストL" transform="translate(-3134.46 -3620.456)">
    <g id="グループ_5339" data-name="グループ 5339">
      <g id="ケーキ">
        <path id="パス_28986" data-name="パス 28986" class="cls-1" d="M3141.365,3844.557l-2.683-1.407-2.609-1.809-1.32-2.867-.293-3.125,1.822-2.587,1.7-2.028,2.351-1.219,2.27-1.363,2.205-1.392-.566-2.558-.393-1.454-.757-1.321-.221-1.511-.9-1.223-.7-1.347-1-.914-.21-1.348-.529-1.257.158-1.358-.364-1.3.061-1.243-.149-1.251.771-1,.593-1.11,1.149-.532,2.816-2.209,3.132-1.731,2.824-2.2,3.139-1.719,2.826-2.185,2.05-1.093,1.883-1.371,2.137-.945,1.559-1.716,1.357-1.884.185-1.926,1.081-1.589.94-1.676,1.631-1.018,1.539-1.154.65-.01.234-.6.539-.349-.121-.63.271-.565.091-3.569,1.409-3.286,1.546-3.223,2.506-2.553,2.482-2.594,3.159-.7,3.221-.067,2.8,1.592,2.484,2.054,1.224,3,.77,1.214-.041,1.436.471,1.356.02,1.442,1,.871.226.3.215-.306.361.067-.194-.327.272-.284-.18-1.4.892-1.136.655-1.286,1.233-.752,1.1-.945,1.1.259,1.122-.005.882.7,1.089.285.949.789.916-1.4,1.585.191,1.575.331,1.311.967,1.6.235,1.237.875,1.386.577.831,1.245.984,1.128.133,1.494.36.233-.051.423.427-.04.183.385.4-.159,1.389.871,1.533.585,1.07,1.244,1.292,1.011.651,1.5,1.075,1.846.245,2.114.1,2.119-1.3,1.7-.25,2.063.454,2.827.907,2.728.315,2.858.894,2.731.55,2.944,3.906-1.684,4.148.464,3.912,1.441,2.269,3.445.332,4.117-.385.294.282.367-.154.437.441.141.1.432,3.449,3.53.809,4.791-2.015,4.417-4.34,2.316-4.7,1.145-1.492,4.619-2.658,4.188-4.2,2.644-4.67,1.677-4.92-.635-1.915.686-1.861.809-1.46,1.425-1.832.881-1.74,1.022-3.007.709-2.986.828-3.093-.175-3.1-.055-2.915-1.047-.737.081-.661-.346-.662.343-.741-.084-.5.562-2.4.951-2.228,1.3-2.506.6-2.389.97-2.566.244-2.432.529-2.46-.378-2.478-.229-2.137-1.266-2.078-1.364-.147-.584-.586-.029-.425-.405-.508.294-.563-.114-5.67,1.668-5.917.18-5.893-.476-4.579-3.5Zm39.9-71.7-1.3,1.777-.335,2.228-.68,2.15.066,2.256.064,2.321.228-2.291.8-2.068.245-2.2.7-2.1L3181,3772.7l.406.02-.082-.336.336-.081-.263-.224.225-.263-.282.066.213-.2-.265.117.173-.232-.151.2-.109-.251-.071.012-.014.225.278,0-.292.047.258.223-.3.157.271.2-.289.175.283.187-.142-.141v0l.108.051ZM3145.2,3830.15l-3.833,1.39-2.821,2.923-1.35,3.75,2.891,2.686,3.879,1.2,1.773.953-.869,1.9-.665,1.969-.213,2.026,1.727,1.161,2.847,1.534,3.225.254,3.228.209,3.141-.794,3.185-.542,1.407-.789,1.531-.552,1.322-.961,1.509.358,1.149,1.069,3.6,3.258,4.882.394,4.859-.765,4.353-2.318,4.164-2.611,3.908-.1,3.752,1.67,4.072.237,4.048-.545,3.532-2.082,1.116-.382.725-.926,1.026-.577.544-1.042.907-.761,1.764-1.3,2.18.829,2.286.4,2.273.467,2.135-.91,2.645-1.085,1.944-2.084,1.872-2.151.8-2.735.707-2.767.008-1.393,1.276-.506,1.3-.469,1.383.219,1.311-.482,2.2-.219,1.735-1.344,1.581-1.519.1-2.168-.536-2.094-1.16-1.147-1.225-1.131-1.579-.577-.921-1.339-.091-1.612,1.35-3.4-2.413-2.724-3.435-1.4-3.6.8-2.44,2.683.2,4.789-2.372,4.137-3.307,3.455-4.3,2.127-4.372,1.961-9.882,3.089-9.979,2.771-10.262,1.394-10.289,1.189-10.36-.077-2.512.424-2.536-.143-2.517.356-2.516-.346-2.535.019-1.716-.741-1.513-1.09-.425-1.842-.645-1.777-.052-1.894-.106.167-.067-.275.066.276-.172-.1Zm79.249-21.67-8.549,4.39-8.833,3.785-9.313,2.388-9.314,2.385-9.481,1.6-6.208,1.318-6.329.479-6.3.763-6.346-.082-6.306.2-.138,1.974.439,2.083.127,2.129,1.158,1.762,1.668,1.225,6.24.076,6.238.229,6.213-.6,6.238-.162,6.2-.708,7.04-.6,6.835-1.8,6.851-1.739,6.567-2.618,6.687-2.286,3.538-2.03,3.221-2.493,1.587-3.741.778-3.993-.721-4.026.095-.161.087.27-.088-.27.163.059Zm-3.216-13.632-9.484,2.971-9.541,2.781-9.8,1.7-9.749,1.936-9.861,1.265-6.1,1.228-6.208.513-6.141,1.038-6.2.553-6.037,1.306-.235,2.107.714,2.1,1.137,1.884,2.173.426,2.2.253,12.663-.477,12.659-.64,12.5-2.1,12.4-2.626,11.878-4.4,2.5-.914,2.274-1.388,2.509-.9,2.211-1.482,2.413-1.124.436-1.208.154-1.305-.675-1.155-.232-1.313-.735-1.111.135-.184v0l.131.091Zm-76.017,12.062,9.391-.618,9.293-1.492,9.338-1.168,9.22-1.891,9.3-1.428,4.163-1.184,4.29-.544,4.17-1.144,4.256-.767,4.008-1.612.329.172.083-.357.366.031-.187-.315.156-.365-3.268-.584-2.076-2.492-.591-3.211,1.28-3.051,1.489-2.965.894-1.049-.1-1.392.447-1.294.61-1.195,1.476-.138-.975-.819-.776-.88-1.156-.223-.988-.633-1.131-.047-1.254.552-.481,1.353-.725,1.239-.032,1.438-.5,1.343-.026.894-.818.295-.841.222-.435-.758-.439-.757.366-1.117-.1-1.172.557-1.036.111-1.171.742-.957-.454.048-.206-.348-.362.179-.166-.369-.4.126-1.222-1.078-1.454.386-1.1,1.148-.692,1.466-1.6.655,3.5,1.629,2.255,3.09,1.579,3.479-.894,3.656-2.664,2.667-1.276.637-.755,1.236-1.181.82-1.026,1.01-1.452.019-2.188.949-2.3.587-2.135,1.04-2.359.147-2.362.106-.067-.31-.2.243-.119-.292-.069.3-.27-.153-.55.715-.906-.015-.827.364-.868-.264-.826.342-1.837-.242-1.844-.214-1.595-.973-1.817-.385-1.769-.586-1.331.084-1.029-.85-1.175-.63-.756-1.114-1.168.074-4.118,2.292-3.862,2.686-4.126,2.261-3.683,2.925-3.8,2.778.129.242-.067-.275.066.276.106-.151Zm77.633-18.446-.2-2.5-1.56-1.965-1.715-1.835-2.353-.9-2.319-.973-.231.24-.195-.28-.1.322-.323-.091.171.3-.968,1.6-.711,1.723-1.225,1.415-.535,1.782-.63,1.749,1.955,2.272,3.055.89,3.164-.5,3.122-.712,1.6-2.525.145-.153-.009.283.008-.283,0,.283Zm-36.936,6.74,1.362.2,1.266-.536,1.351-.272.742-1.133.571-1.235-.38-1.145.191-1.192-.488-1.1-.334-1.153-1.15.082-.89.022-.739.509-.891-.1-.8.4-.867-.215-1.051.268-1.07-.25-.463.887-.342,1.019.277,1.054-.208,1.317.666,1.137.677,1.126,1.309.2,1.269.384h-.007l.009-.283-.01.283.145-.145Zm-21.377,23.491.351.8.6.875.04,1.068.665.823.724.681,2.049-.519,2.117-.018,2.024-.617,2.116-.076,1.965-.609-.059-.683-.288-.817.474-.738.006-.867.366-.884-2.62.543-2.661-.022-2.606.543-2.669-.021Zm11.615-31.832-1.532,2.408-.152,2.918.622,2.838,2.611,1.163,2.969-.116-.917-1.509-.018-1.631-.3-1.6.388-1.586-.183-1.518-.569-.505-.83-.016-.628-.544-.824-.014Zm12.169,28.761.357.737.7.429.124.81.546.576.6.336,1.712-.73,1.853-.177,1.716-.725,1.854-.173,1.72-.721,1.158.011.869-.718.75-.808-.313-1.107-.042-1.256-2.682,1.1-2.8.455-2.678.941-2.818.357-2.692.905-.169-.1.275-.068-.275.07.032-.128Zm-20.4-25.415-.227,1.414.919,1.11.851,1.163,1.39.184.969-.835-.208-1.487.5-1.41.087-1.493.767-1.284.383-1.454.66-.729-.445-.81-.684-.642-.894.36-.933.205-.865,1.055-1.1.824-.451,1.3-.744,1.152Zm55.513,12.98-2.432,1-2.183,1.457-2.454.928-2.2,1.429-2.484.96.721.492.275.72.715.239.613.432.591-.48,2.375-.847,2.125-1.345,2.309-1.01,1.663-1.855.419-2.316-.261.071.283.007-.283-.008.018.073Zm-23.545-14.846,1.733-1.854-.488-2.538-1.023-2.387-2.121-1.493-2.423-.879-.351.494-.491.349.178.6-.323.525.231.564-.177.381.433.041.172.4.411-.153.192.387,1.382.574.855,1.229,1.072,1.045.34,1.457.609,1.368-.239.12.2-.2-.2.2-.024-.031Zm-7.828-2.736.557,1.464.711,1.393.022,1.571.568,1.459.65,1.359,2.041-1.629.712-2.568-1.108-2.459-1.933-1.81-2.218,1.41-.131.049.046-.28-.044.28-.073-.243Zm-46.52,33.939.083,1.309.918.923.87.966,1.306.053,1.273.279.55-.22.465.393.574-.182.53.3.375-.283.127-.893-.18-.955.607-.763.278-.932.79-.745-1.8.371-1.744-.251-1.73.323-1.755-.141-1.647.612-.059,0,.046-.28-.044.28v-.279Zm14.281,3.671.239.1-.283,0,.283-.006-.283-.008.176.13.707-.314.723.338.751-.257.786.137.3-.678.205-.749-.523-.606-.2-.775-.752-.274-.558-.583-2.421.112-2.384.421-1.03,1.927,1.911,1.245,2.428-.2-.006.283.028-.282-.025.282-.09-.047Zm26.087-52.576-1.019,2.788-.168,2.965-.463,2.933.307,2.953-.132,2.976.279-.227.349.09-.084-.35.346-.1-.247-.273.539-2.73-.1-2.78.393-2.753-.247-2.771.247-2.77-.119-.136-.044.28.046-.28-.063.275Zm1.289,48.326-1.553-1.273-2.04.073-2.04.1-1.435,1.322,1.075,1.428,1.226-.581,1.3.081,1.2-.485,1.3-.056.994-.821.062.257.04-.281-.038.281.114-.033Zm24-6.71-1.423-1.524-2.061.079-1.953.706-.783,1.851,1.541.892.885-.652,1.068-.127.851-.656,1.069-.133.856-.655.041.273.028-.282-.025.282.1-.031Zm-22.99-39.615-.849,2.12.022,2.286-.3,2.265.4,2.251-.063,2.4.777-2.244.43-2.261-.385-2.283.1-2.307-.416-2.27.13.14.028-.282-.025.282.061-.275Z"/>
      </g>
      <g id="グループ_5335" data-name="グループ 5335">
        <g id="パス_28936" data-name="パス 28936">
          <path id="パス_28987" data-name="パス 28987" class="cls-1" d="M3171.362,3659.955l-3.976-3.661-2.893-4.748-2.056-5.179-2.539-4.954-2.481-4.976-.767-.92-.084-1.206-.214-1.188.852-.856.74-.966,5.05-2.247,5.02-2.312,5.3-1.575,5.092-2.145,5.188-1.9.971-.666,1.168.1,1.168-.1.809.844.9.744,2.074,4.386,2.292,4.279,1.6,4.583,2.062,4.391,1.6,4.582.759,1.139.009,1.361.21,1.347-.849,1.047-.913,1.008-5.276,1.82-5.018,2.444-5.261,1.859-5.145,2.164Zm-5.935-13.3.617,1.953,1.269,1.785.883,2,1.4,1.681.89,2.005,2.215.437,2.3-.177,2.091-1.018,2.246-.584,2.062-1.049.461.1.192-.438.4-.227-.392-.289.057-.479-.741-.781-.205-1.057-.686-.83-.132-1.069-.623-.864-.271-1.374-.678-1.231-.143-1.4-.8-1.151-.757-1.283-2.261,1.285-2.468.759-2.243,1.279-2.476.762Zm24.795-14.071-.281-1.659-.995-1.519-.624-1.7-1.154-1.4-.606-1.712-.522-.316-.114-.6-.573.077-.561-.174-.428.435-1.768.3-1.58.849-1.765.315-1.582.846-1.743.289-.9,2,.546,2.5,1.359,2.189.922,2.407,1.106,2.129,2.354-.788,2.142-1.311,2.381-.8,2.142-1.311Z"/>
        </g>
      </g>
      <g id="グループ_5336" data-name="グループ 5336">
        <g id="パス_28939" data-name="パス 28939">
          <path id="パス_28988" data-name="パス 28988" class="cls-1" d="M3216.149,3667.321l1.558-1.586,1.58-1.733,2.246-.614,2.321-.136,2.079,1.26,1.781-1.76,2.3-.709,2.374-.317,1.929,1.41,1.6,1.79-.031.493.477-.029.333.34.388-.291.421.255,2.315.066,1.532,1.755,1.127,2.047-.283,2.323-.583,2.161,1.362,1.744,1.388,1.834-.075,2.287-.113,2.283.235,2.266,1.314,1.107.376,1.649.407,1.642-.663,1.556-.637,1.567-.253-.141.173.233-.25-.147.167.237-.238-.16-.933,1.539-1.181,1.355-.8,1.618-1.561.848-1.678.571-.861-.276-.889.2-.87-.294-.736.52-.827.37-1.077,1.337-1.706.206-1.688.327-1.721-.168-1.388.966-1.918,1.275-2.056,1.026-2.2-.7-2.214-.656-2.086-1.033-2.58.033-2.223-1.218-1.535-1.975-.025-2.581-1.667-1.649-1.436-1.274-1.43-1.247-.5-1.832-.581-1.808.358-1.9-1.443-1.416-1.464-1.383-1.427-1.415-.021-2.013.051-2.022.814-1.516.745-1.552,1.543-.79,1.33-1.073,1.078-1.274.514-2.668,2.1-1.709,2.486-1.088,2.656.581Zm21.943,27.46.7.219.535-.476.689-.2.063-.716.4-.608-.236-.6.456-.446.091-.632.617-.161.385-.5,1.165-.47.307-1.209.2-1.232-.837-.938-.76-.994-.877-.294-.436-.8-.407-.781.578-.731.139-.915.993-1.886-.51-2-1.407-1.527-1.976-.823-.068-1.961.541-1.106.88-.912.132-1.253.2-1.241-.939-.824-.319-.456-.537.183-.507-.255-.39.412-.559.005-2.185.076-.98-2.219-1.531-1.8-2.167.2-1.4,1.974-.764.442-.5.726-.843-.153-.86-.073-.487-.731-2.554-1.076-2.37,1.321-1.283,2.576-2.34,1.192-2.312-1.549-1.257-1.113-1.653.306-1.551.658-.587,1.581-.319,1.646-.021,1.764-1.6.721-1.6.752-1.534.848-.3,1.754-.374,1.171.7.981.7.983,1.2.218,1.082.516,1.487,1.559-.591,2.262.08,2.3.894,2.07,2.221.613,2.17,1.007.3,2.444-.453,2.531,2.2.984,2.564.045,1.131-.475.843.85.942.742.688.995,1.2-.128,1.642-.269.825-1.472,1.143-1.215,1.4-.779,1.412.952,1.727.028,1.631-.441.818-1.541,1.306-1.066,1.624-.259.3.486.549-.073.369.413.524-.18.443.333h.008v0l.141-.144Z"/>
        </g>
        <g id="パス_28941" data-name="パス 28941">
          <path id="パス_28989" data-name="パス 28989" class="cls-1" d="M3233.065,3680.579l-.523.781-.647.686-.9-.331-.9-.319.041-.954-.179-.512.472-.258.153-.515.533.068.427-.327.392.368.537-.013.1.528.443.3Z"/>
        </g>
        <g id="パス_28942" data-name="パス 28942">
          <path id="パス_28990" data-name="パス 28990" class="cls-1" d="M3216.723,3677.808l-.516.727-.607.658-.849-.339-.879-.251-.074-.9.016-.95.928-.237.927-.254.595.732Z"/>
        </g>
        <g id="パス_28943" data-name="パス 28943">
          <path id="パス_28991" data-name="パス 28991" class="cls-1" d="M3226.821,3691.2l-.376-.349-.51.047-.1-.5-.441-.261.217-.465-.2-.468.445-.247.106-.5.506.058.377-.342.38.344.51-.053.1.5.444.256-.211.467.208.469-.445.254-.107.5-.509-.056-.381.343,0-.283,0,.283,0-.283,0,.283Z"/>
        </g>
        <g id="パス_28944" data-name="パス 28944">
          <path id="パス_28992" data-name="パス 28992" class="cls-1" d="M3221.632,3689.743l.363.4.533.023.058.531.418.332-.265.464.149.5-.478.216-.167.5-.515-.1-.426.31-.363-.4-.533-.023-.058-.531-.418-.332.265-.464-.148-.5.478-.215.167-.5.515.1Z"/>
        </g>
        <g id="パス_28945" data-name="パス 28945">
          <path id="パス_28993" data-name="パス 28993" class="cls-1" d="M3224.071,3684.456l-.356-.4-.529-.027-.05-.528-.413-.332.27-.456-.157-.472.457-.2.123-.481.49.081.372-.338.692.578.646.629-.323.853-.289.861Z"/>
        </g>
        <g id="パス_28946" data-name="パス 28946">
          <path id="パス_28994" data-name="パス 28994" class="cls-1" d="M3228.468,3672.156l.39.32.5-.087.127.488.454.221-.185.47.237.447-.425.271-.07.5-.5-.03-.351.363-.039-.282-.017.284-.028-.283-.027.283-.03-.284-.447.237-.271-.426-.5-.07.03-.5-.363-.351.32-.391-.087-.5.488-.127.221-.454.47.185.012-.284.033.283.022-.284.023.284Z"/>
        </g>
        <g id="パス_28947" data-name="パス 28947">
          <path id="パス_28995" data-name="パス 28995" class="cls-1" d="M3223.429,3676l-.483.748-.527.72-.877-.2-.88-.175-.045-.9-.1-.9.851-.284.848-.308.628.636Z"/>
        </g>
        <g id="パス_28948" data-name="パス 28948">
          <path id="パス_28996" data-name="パス 28996" class="cls-1" d="M3233.626,3685.205l.748.5.675.595-.314.857-.316.852-.908-.1-.485.153-.2-.469-.482-.161.117-.494-.295-.414.372-.3-.037-.476.475-.051.227-.421Z"/>
        </g>
        <g id="パス_28949" data-name="パス 28949">
          <path id="パス_28997" data-name="パス 28997" class="cls-1" d="M3218.212,3686.544l-.369-.338-.5.064-.1-.492-.442-.24.207-.459-.223-.434.423-.242.06-.483.486.038.318-.365.8.413.738.51-.239.88-.236.877Z"/>
        </g>
      </g>
    </g>
  </g>
</svg>
