<svg xmlns="http://www.w3.org/2000/svg" width="104" height="262.001" viewBox="0 0 104 262.001">
  <defs>
    <style>
      .cls-1 {
        fill: #26333b;
        fill-rule: evenodd;
      }
    </style>
  </defs>
  <g id="イラストR" transform="translate(-1582.001 195)">
    <g id="稲" transform="translate(1522.742 -1867.901)">
      <g id="グループ_5338" data-name="グループ 5338" transform="translate(119.795 1824.164)">
        <path id="パス_28956" data-name="パス 28956" class="cls-1" d="M333.526,1831.781c.129.394-.265.557-.084.987l.07,0,.008.14.07,0,.008.14.07,0,.008.14.144.062.012.21.07,0c0,.047.005.094.008.14.023.032.1.055.148.132l.21-.012.128-.218c.119-.089.161-.006.272-.156.433,0,.5.171.79.306l.284.054.078.136.284.054.078.135.284.054,0,.07,1.6-.3c.144,0,.144.062.144.062l1.045-.13,0-.07.839-.048.8-.677.416-.094,0-.07.21-.012,0-.07.14-.008,0-.07.21-.012.326-.44.14-.008.062-.144.14-.008,0-.07.268-.226c0-.047-.005-.094-.008-.14l.136-.078-.008-.14.132-.148-.008-.14.07,0-.008-.14.136-.078-.008-.14.2-.152.054-.284.07,0-.012-.21.136-.078-.008-.14.2-.152-.008-.14.136-.078q.05-.354.1-.708l.07,0-.012-.21.07,0-.008-.14.07,0,.046-.424.07,0-.008-.14.07,0-.016-.28.07,0-.2-1.041.07,0a4.174,4.174,0,0,0-.072-1.259c-.085-.266-.17-.2-.37-.33l-.152-.2-.14.008,0-.07-.21.012,0-.07-.49.028,0-.07-.28.016,0-.07-.21.012,0-.07-.21.012,0-.07-.21.012,0-.07-.428-.116,0-.07-1.959.111,0,.07-.346.09,0,.07-.21.012,0,.07-.35.02,0,.07-.21.012,0,.07-.276.086,0,.07-.42.024,0,.07-.21.012,0,.07-.276.086,0,.07-.21.012,0,.07-.21.012,0,.07-.14.008,0,.07-.14.008-.392.514.008.14-.07,0c-.017.118-.033.236-.05.354l-.136.078.008.14-.136.078.008.14-.532.521-.236.786-.2.152,0,.07-.206.082.008.14-.334.3.008.14-.132.148-.14.008-.194.292-.14.008,0,.07-.2.152.008.14-.07,0,.008.14-.07,0,.016.28-.07,0c0,.047.005.093.008.14l-.136.078.008.14-.07,0,.2,1.041Zm1.857-.667.2-.152a3.066,3.066,0,0,0,.454-.657l-.008-.14.07,0-.008-.14.132-.148-.008-.14.07,0,.058-.214.136-.078-.012-.21.136-.078-.008-.14.4-.374.058-.214.136-.078-.008-.14.2-.152-.008-.14.532-.521.128-.218.618-.246.194-.292,1.4-.01,0-.07.14-.008.128-.218.21-.012,0-.07.84-.048c.148.157.42.254.518.461l.024.42.144.062.086.276.07,0c.018.112-.1.091-.132.148l.008.14-.136.078.068,1.189-.07,0,.012.21-.07,0c0,.047.005.093.008.14l-.326.44-.14.008-.132.148c0,.047.005.094.008.14l-.466.448-.062.144-.14.008-.326.439-.951.545-.42.024,0,.07-.21.012,0,.07-.21.012,0,.07-.559.032,0,.07a2.157,2.157,0,0,1-1.263,0l-.28.016,0-.07-.14.008,0-.07-.427-.116-.078-.136-.14.008-.078-.136-.14.008,0-.07-.218-.128Z" transform="translate(-305.451 -1824.164)"/>
        <path id="パス_28957" data-name="パス 28957" class="cls-1" d="M288.5,1865.519l.056.979-.07,0,.012.21-.07,0,.012.21-.07,0q.01.175.02.35l-.07,0,.02.35-.07,0,.012.21-.07,0,.012.21-.07,0,.064,1.119.07,0,.008.14.07,0,.016.28.07,0,.008.14.292.194.008.14.218.128.106.625.522.532.14-.008.078.136a11.618,11.618,0,0,0,2.522-.074c.07-.092.12-.08.2-.152l0-.07.14-.008.26-.365.14-.008.458-.587.2-.152.116-.428.07,0,.058-.214.136-.078.054-.284.136-.078.116-.428.136-.078-.008-.14.07,0-.008-.14.4-.374-.008-.14.07,0c.014-.165.028-.329.042-.494l.07,0-.008-.14.07,0q.023-.212.046-.423l.07,0q.019-.282.038-.563l.07,0,.054-.284.07,0-.016-.28.136-.078.116-.427.136-.078-.008-.14.136-.078q-.032-.56-.064-1.119a2.369,2.369,0,0,0-.43-1.379c0-.047-.005-.094-.008-.14l-.07,0-.008-.14-.144-.062-.09-.346a1.562,1.562,0,0,0-.727-.45l0-.07-.42.024c-.113.146-.158.068-.272.156l-.194.292-.14.008-.128.218-.909.052,0,.07-.276.086-.062.144-.276.086-.062.144-.482.168-.19.362-.14.008-.062.144-.14.008-.062.144-.206.082,0,.07-.346.09-.524.661-.861.891-.054.284-.136.078-.054.284Zm2.112,1.353.07,0-.052-.909.136-.078.054-.284.136-.078-.008-.14.2-.152-.008-.14.136-.078-.008-.14.4-.374,0-.07.28-.016,0-.07.14-.008,0-.07.14-.008,0-.07.14-.008.132-.148.14-.008.062-.144.14-.008.062-.144.35-.02,0-.07.21-.012,0,.07c.3,0,.239.03.428.116q.03.525.06,1.049l-.07,0,.012.21-.07,0q-.019.282-.038.563l-.07,0,.008.14-.136.078q-.011.422-.022.844l-.07,0,.008.14-.2.152-.054.284-.136.078c0,.047.005.093.008.14l-.268.225q-.027.142-.054.284l-.07,0-.054.283-.07,0-.054.284-.07,0,.012.21c-.008.017-.1.074-.132.148a3.563,3.563,0,0,1-1.979-.238A2.977,2.977,0,0,1,290.613,1866.872Z" transform="translate(-270.85 -1852.396)"/>
        <path id="パス_28958" data-name="パス 28958" class="cls-1" d="M331.2,1875.509l.494.042,0,.07.428.116,0,.07.42-.023,0,.07.21-.012,0,.07.284.054,0,.07.7-.04.152.2a3.059,3.059,0,0,0,1.057.08l0-.07.346-.09.062-.144.14-.008,0-.07,1.185-.138.94-.755.058-.214.07,0,.062-.144.14-.008.26-.366.664-.669-.008-.14.132-.148.14-.008.194-.292.14-.008.062-.144.334-.3-.008-.14.136-.078-.012-.21.136-.078-.008-.14.2-.152-.008-.14.268-.226-.012-.21.07,0,.116-.428.07,0-.028-.49.07,0,.054-.284.07,0c-.005-.094-.01-.187-.016-.28l.07,0q-.042-.734-.084-1.469l-.522-.532-.214-.058-.008-.14-.218-.128a1.42,1.42,0,0,0-1.431-.48l0,.07-.42.024,0,.07-1.259.072,0,.07-.412.164-.062.144-.276.086,0,.07-.49.028,0,.07-.276.086,0,.07-.691.18,0,.07-.276.086,0,.07-.486.1-.128.218-.14.008-.128.218-.07,0-.062.144-.14.008-.128.218-.14.008,0,.07-.14.008,0,.07-.14.008c0,.024,0,.047,0,.07l-.21.012,0,.07-.14.008,0,.07-.28.016-.466.448.008.14-.136.078.008.14-.07,0-.046.424-.07,0,.008.14-.07,0,.008.14-.136.078.008.14-.136.078-.054.284-.07,0q.028.489.056.979l-.07,0,.012.21-.136.078.008.14-.07,0q.024.42.048.84l-.07,0q.067.558.134,1.115Zm1.9-2.354-.032-.56.07,0-.008-.14.07,0c0-.07-.008-.14-.012-.21l.07,0q-.022-.385-.044-.77l.07,0,.128-.218.14-.008.128-.218.276-.086.326-.439.14-.008.062-.144.14-.008.062-.144c.168-.115.4-.006.626-.106l0-.07.14-.008.062-.144.276-.086,0-.07.35-.02,0-.07.21-.012,0-.07.14-.008,0-.07.555-.1,0-.07.14-.008.062-.144.21-.012,0-.07a2.863,2.863,0,0,1,1.193,0c.1.415.229.41.048.84,0,.046.005.093.008.14l-.07,0-.058.214-.136.078.02.35-.07,0-.05.354-.136.078.012.21-.07,0-.326.44-.14.008-.392.513-.136.078-.116.428-.136.078-.26.365c-.2.163-.334.151-.4.444a3.252,3.252,0,0,0-.878.611l-.424-.046,0-.07-.98.055c0-.023,0-.046,0-.07l-.21.012-.078-.136-.424-.046,0-.07-.14.008c-.035-.019-.064-.094-.148-.132A2.924,2.924,0,0,1,333.105,1873.155Z" transform="translate(-303.488 -1856.923)"/>
        <path id="パス_28959" data-name="パス 28959" class="cls-1" d="M254.195,1915.108l.012.21.07,0,.012.21.07,0,.122.905c.089.03.176.016.284.054l0,.07.21-.012.374.4a.516.516,0,0,1-.252.506l.028.49.218.128.008.14.144.062.008.14.214.058.078.136.14-.008,0,.07.14-.008,0,.07.21-.012,0,.07.42-.024,0,.07.14-.008.078.136.14-.008,0,.07,1.119-.064,0-.07.14-.008.128-.218.276-.086.062-.144.346-.09,0-.07.276-.086.128-.218.14-.008.132-.148-.008-.14.136-.078-.008-.14.268-.226c0-.047-.005-.093-.008-.14l.136-.078.116-.427.136-.078-.008-.14.136-.078-.008-.14.136-.078-.008-.14.4-.374-.008-.14.2-.152-.012-.21.07,0c0-.07-.008-.14-.012-.21l.07,0,.054-.284.07,0-.028-.49.07,0-.024-.42.07,0-.012-.21.07,0-.012-.21.07,0c0-.046-.005-.093-.008-.14l.07,0-.008-.14.136-.078.054-.284.07,0c.127-.421-.26-.942-.347-1.173q-.016-.279-.032-.56l-.07,0q-.009-.771-.018-1.543l-.07,0c-.005-.093-.01-.187-.016-.28l-.07,0-.086-.276-.07,0-.052-.909-2-1.851-.979.056a2.946,2.946,0,0,1-.54.382l-.128.218-.618.246-.26.365-.136.078.008.14-.136.078.008.14-.268.226.008.14-.136.078-.326.439-.14.008-.062.144-.07,0-.174.642-.268.226.008.14-.136.078.012.21-.07,0,.008.14-.07,0,.012.21-.136.078.032.56-.07,0,.036.629-.07,0,.012.21-.07,0,.008.14-.07,0,.016.28-.07,0,.016.28-.07,0,.008.14-.136.078.008.14-.132.148.008.14-.07,0,.008.14-.136.078.122.905q-.013.387-.026.774Zm1.691.114-.012-.21.07,0,.1-.778.07,0a1.353,1.353,0,0,0-.04-.7q-.038-.665-.076-1.329l.6-.6-.008-.14.136-.078.058-.214.07,0,.054-.284.136-.078.054-.284.07,0-.02-.35.07,0-.012-.21.136-.078-.008-.14,1.134-1.047.214.058.082.206.07,0c.157.164.376.29.452.536.111.113.093.4.106.626q.044.769.088,1.539l.122.905.07,0q-.015.352-.03.7.024.42.048.839l-.2.152.008.14-.132.148c0,.046.005.093.008.14l-.07,0,.008.14-.07,0,.008.14-.136.078.008.14-.136.078.008.14-.466.448-.058.214c-.176.215-.528.288-.672.53l-.769.044,0-.07-.809-.656c-.131-.163-.124-.3-.3-.4a1.474,1.474,0,0,0-.086-.276Z" transform="translate(-244.67 -1886.925)"/>
        <path id="パス_28960" data-name="パス 28960" class="cls-1" d="M307.308,1913.4l-.21.012-.062.144-.14.008,0,.07-.21.012c0,.023,0,.047,0,.07l-.21.012,0,.07-.412.164,0,.07-.276.086-.26.366-.618.246-.194.292-.136.078.008.14-.136.078c0,.047.005.093.008.14-.071.1-.17.054-.268.226l-.14.008-.116.428-.136.078-.054.284-.458.587-.14.008,0,.07-.268.226c.075,1.325-.979,2.351-.674,3.809a.868.868,0,0,0,.678.771c1.481.53,3.174.029,4.669-.145l0-.07.14-.008.062-.144.412-.164.062-.144.14-.008.194-.292.206-.082.058-.214.334-.3-.008-.14.136-.078-.008-.14.136-.078-.008-.14.2-.152.174-.641.2-.152-.008-.14.466-.448-.008-.14.07,0-.008-.14.07,0-.012-.21.136-.078.058-.214.07,0c0-.047-.005-.094-.008-.14l.07,0-.008-.14.136-.078-.008-.14.07,0-.02-.35.07,0,.116-.427.07,0q-.02-.35-.04-.7c.064-.243.4-.577.224-1l-.07,0-.008-.14-.144-.062-.008-.14-.07,0q-.024-.42-.048-.839l-.07,0c-.159-.306-.389-.661-.743-.73-.2-.156-.868.047-1.189.068l-.49.028-.062.144-.276.086-.062.144-.14.008-.062.144-.14.008,0,.07-.63.036Zm.321,1.947.28-.016.062-.144.14-.008,0-.07c.21-.1.4-.016.552-.172l.354.05a2.052,2.052,0,0,1-.154.991l-.136.078q-.021.246-.042.494l-.136.078.008.14-.07,0,.008.14-.07,0,.008.14-.132.148.008.14-.136.078-.116.428-.136.078.008.14-.07,0,.008.14-.268.226.008.14-.136.078c-.081.154.016.3-.042.494l-.07,0,.012.21-.334.3,0,.07-.691.18-.062.144-.14.008,0,.07-.14.008,0,.07-.56.032,0,.07a1.881,1.881,0,0,1-.633-.034q-.042-.735-.084-1.469l.07,0,.116-.428.07,0,.054-.284.268-.226-.008-.14.334-.3q.025-.177.05-.354l.07,0c0-.07-.008-.14-.012-.21l.136-.078-.008-.14,1.06-1.113.7-.11Z" transform="translate(-281.604 -1891.958)"/>
        <path id="パス_28961" data-name="パス 28961" class="cls-1" d="M277.095,1963.332a.18.18,0,0,0-.214-.058l0,.07-.28.016,0,.07-.28.016-.062.144-.14.008,0,.07-.769.044,0,.07c-.2.072-.34,0-.486.1l-.062.144-.14.008,0,.07-.7.04-.062.144-.14.008,0,.07-.556.1-.062.144-.14.008-.26.366-.14.008-.132.148-.14.008,0,.07-.14.008-.062.144-.14.008,0,.07-.14.008-.318.579-.14.008-.132.148-.14.008-.062.144-.14.008a1.034,1.034,0,0,0-.33.37l-.14.008.008.14-.334.3,0,.07-.14.008-.062.144-.136.078q-.025.177-.05.354l-.07,0c0,.046.005.093.008.14l-.136.078.008.14-.07,0q.012.209.024.42l-.07,0,.008.14-.07,0-.116.428-.07,0a3.487,3.487,0,0,0,.138,1.185l.07,0,.164.411-.07,0-.054.284-.07,0-.006,1.124.07,0c.068,1.338.733,1.028,1.223,1.755a2.632,2.632,0,0,1,.847.092l.7-.04,0,.07.14-.008,0,.07.35-.02c0,.023,0,.046,0,.07a1.6,1.6,0,0,0,.9-.261l0-.07.835-.117,0-.07.21-.012,0-.07.14-.008,0-.07.35-.02,0-.07.14-.008,0-.07.14-.008.062-.144.556-.1,0-.07.14-.008,0-.07c.321-.19.65-.2.738-.6.224-.072.509-.432.667-.6l.062-.144.14-.008,0-.07.2-.152-.008-.14.2-.152-.008-.14.132-.148-.008-.14.07,0-.008-.14.07,0-.008-.14.07,0-.008-.14.136-.078-.008-.14.07,0q.013-.387.026-.773l.136-.078c0-.046-.005-.093-.008-.14l.07,0-.012-.21.07,0-.012-.21.07,0-.012-.21.07,0-.012-.21.07,0-.016-.28.07,0a3.546,3.546,0,0,0-.22-1.391c-.029-.148.062-.144.062-.144l-.02-.35.07,0a1.667,1.667,0,0,0-.266-.968l-.07,0-.016-.28-.07,0q-.018-.315-.036-.63l-.144-.062,0-.07-.14.008-.078-.136-.14.008-.152-.2-.14.008-.152-.2-.284-.054,0-.07Zm-.4,5.216-.07,0,.008.14-.07,0-.174.641-.136.078c-.017.118-.033.236-.05.354l-.136.078.008.14-.07,0,.012.21-.136.078-.054.284c-.079.132-.3.2-.4.3l-.26.366-.14.008,0,.07-.14.008,0,.07-.21.012,0,.07-.21.012-.128.218-.346.09-.062.144-.14.008,0,.07-1.679.1,0-.07-.21.012,0-.07a1.062,1.062,0,0,1-.451-.535l-.016-.28-.07,0-.008-.14-.144-.062-.012-.21-.07,0c-.157-.41.172-.578.236-.786l-.028-.49.07,0-.012-.21.136-.078-.008-.14.07,0c.12-.361-.152-.567-.056-.979l.07,0-.008-.139.206-.082,0-.07.618-.246,0-.07.552-.172.062-.144.276-.086.062-.144.14-.008.128-.218.14-.008.062-.144.412-.164.062-.144.14-.008,0-.07.276-.086,0-.07.21-.012,0-.07c.219-.094.4-.02.552-.172l.769-.044c0,.023,0,.046,0,.07.211.146.04.062.156.272l.07,0,.086.275.07,0,.012.21.07,0c.03.117-.059.126-.062.144q.01.175.02.35l-.07,0a1.313,1.313,0,0,0,.339,1.033C276.922,1968.324,276.815,1968.372,276.69,1968.548Z" transform="translate(-256.308 -1930.878)"/>
        <path id="パス_28962" data-name="パス 28962" class="cls-1" d="M227.079,1972.651l-.152-.2-.769.044,0,.07-.14.008-.062.144-.14.008,0,.07-.28.016,0,.07-.21.012-.062.144-.14.008-.062.144-.14.008-.062.144-.07,0,.008.14-.07,0,.008.14-.268.226.008.14-.07,0c0,.07.008.14.012.21l-.07,0,.008.14-.07,0,.008.14-.136.078-.054.284-.07,0,.028.49-.07,0,.012.21-.07,0,.008.14-.07,0q-.007.491-.014.983l.07,0q.059.417.118.836l-.07,0,.064,1.119.07,0,.012.21.07,0,.164.412.07,0q.01.175.02.35l.07,0,.164.412.07,0,.008.14.144.062.008.14.292.194q0,.07.008.14l.214.058.152.2.14-.008.078.136.14-.008.078.136.428.116.078.136.14-.008.6.6.428.116.078.136.21-.012,0,.07.14-.008,0,.07.14-.008.078.136.21-.012,0,.07c1.642-.094,2.836.1,3.357-1.8a7.676,7.676,0,0,0,0-3.373l-.07,0q-.018-.314-.036-.63l-.07,0-.008-.14-.07,0c-.069-1.218-2.023-2.56-2.725-3.494l-.152-.2-.14.008,0-.07-.354-.05-.078-.136-.14.008,0-.07-.769.044,0-.07Zm.7,2.417.21-.012,0,.07.35-.02.078.136.14-.008.078.136.07,0c0,.046.005.094.008.14l.07,0,.008.14.07,0,.012.21.07,0,.024.42.218.128c0,.047.005.093.008.14l.218.128.008.14.144.062.008.14.218.128.008.14.07,0,.1,1.679.07,0,.024.42.07,0a3.56,3.56,0,0,1-.01,1.053,2.49,2.49,0,0,1-1.045.13l0-.07-.21.012-.078-.136-.214-.058,0-.07-.14.008-.226-.268-.14.008-.226-.268c-.344-.305-.923-.682-1.117-1.129l-.04-.7-.144-.062-.09-.346-.07,0a1.226,1.226,0,0,1,.1-.778q0-.666-.006-1.333a3.2,3.2,0,0,0,.108-.568.527.527,0,0,0,.268-.226C227.425,1974.556,227.408,1974.9,227.778,1975.068Z" transform="translate(-221.532 -1937.925)"/>
        <path id="パス_28963" data-name="パス 28963" class="cls-1" d="M213.9,2028.931l-.07,0,.126.976.07,0,.012.21.218.128.008.14.144.062.008.14.148.132c0,.047.005.094.008.14l.07,0,.008.14.07,0,.008.14.07,0,.086.275.144.062.008.14c.111.169.237.23.308.474l.214.058,0,.07.14-.008,0,.07.21-.012,0,.07.21-.012,0,.07.14-.008,0,.07.14-.008.3.334.14-.008.078.136.14-.008a1.508,1.508,0,0,0,.148.132l0,.07.21-.012,0,.07a2.073,2.073,0,0,0,1.045-.13l.128-.218.63-.036,0-.07.14-.008.128-.218.346-.09.062-.144.14-.008.128-.218.14-.008.062-.144.14-.008,0-.07.21-.012,0-.07.206-.082.062-.144.14-.008.062-.144.14-.008.326-.44-.012-.21.07,0-.012-.21.136-.078.116-.428.136-.078.054-.284.07,0-.024-.42.07,0-.012-.21.07,0q-.016-.279-.032-.56l.07,0-.012-.21.07,0a3.558,3.558,0,0,0-.227-1.531l-.024-.42-.07,0-.086-.276-.144-.062-.008-.14-.144-.062-.008-.14-.07,0-.04-.7-.07,0-.016-.28-.07,0-.02-.35-.07,0-.024-.42-.07,0-.016-.28-.07,0-.02-.35-.07,0-.012-.21-.07,0-.008-.14-.07,0-.094-.416-.07,0-.008-.14-.07,0-.012-.21-.07,0-.012-.21-.144-.062-.008-.14-.362-.19-.008-.14-.07,0-.012-.21-.07,0-.028-.49-.07,0c-.132-.235-.233-.4-.518-.462a4.776,4.776,0,0,0-1.4.01l-.062.144-.14.008,0,.07-.14.008,0,.07-.14.008,0,.07-.14.008-.132.148-.14.008-.062.144-.14.008-.326.44-.14.008-.458.587-.14.008-.128.218-.14.008-.128.218-.206.082c-.116.094-.166.261-.33.37q-.007.492-.014.983l-.07,0,.1.486-.07,0-.046.424-.07,0,.012.21-.07,0-.054.284-.07,0,.008.14-.136.078.008.14-.07,0,.068,1.189-.07,0,.012.21-.07,0,.012.21-.07,0,.012.21-.07,0,.012.21-.07,0-.116.427-.07,0,.1.556-.07,0Zm2.385-1.259.07,0-.008-.14.07,0q.019-.282.038-.564l.07,0-.008-.14.2-.152c.089-.159.046-.377.108-.567l.07,0-.012-.21.07,0q.013-.387.026-.773l-.07,0-.012-.21-.07,0,.1-.638.07,0-.008-.14.466-.448-.008-.14.136-.078-.008-.14.4-.374c.2.041.175.077.292.194l.07,0,.082.206.14-.008,0,.07.14-.008.152.2.07,0,.094.416.07,0,.246.618.07,0c.068.16-.054.377-.046.424l.07,0,.024.42.07,0,.016.28.07,0,.028.49.07,0,.086.276.07,0,.437,1.519-.07,0,.008.14-.07,0-.116.427-.136.078-.054.284-.07,0,.024.42-.606.456-.14.008,0,.07a1.743,1.743,0,0,0-.446.8c-.434.033-.852.067-1.061-.15-.322-.068-.363-.283-.521-.532l-.07,0-.008-.14-.07,0c0-.07-.008-.14-.012-.21l-.144-.062-.09-.346-.07,0-.012-.21-.07,0-.086-.276-.07,0-.016-.28-.07,0Q216.272,2028.094,216.284,2027.673Z" transform="translate(-213.829 -1974.525)"/>
        <path id="パス_28964" data-name="パス 28964" class="cls-1" d="M274.5,2021.437l-.144-.062-.008-.14-.07,0-.008-.139-.07,0-.008-.14-.07,0-.008-.14-.07,0-.008-.14-.07,0-.012-.21-.07,0-.008-.14-.07,0c0-.047-.005-.093-.008-.14l-.07,0-.082-.206-.218-.128c-.147-.239.046-.361-.032-.56l-.07,0c0-.047-.005-.094-.008-.14l-.292-.194-.008-.14-.07,0-.008-.14c-.027-.038-.1-.049-.148-.132a6.753,6.753,0,0,1-1.341-.134,1.642,1.642,0,0,0-1.037.27l-.774-.026,0,.07-.14.008,0,.07-.14.008c0,.024,0,.047,0,.07l-.14.008-.132.148-.14.008,0,.07-.206.082-.062.144-.14.008-.446.8c-.226.261-.782.68-.854,1.031a6.691,6.691,0,0,0-1.084.693l.012.21-.07,0,.008.14-.136.078q-.087.32-.174.642c-.289.094-.24.249-.4.443l-.268.226.008.14-.136.078-.058.214-.07,0,.008.14-.2.152-.236.786-.136.078q.024.42.048.84l-.07,0,.008.14-.2.152.012.21-.07,0c-.178.651.437.975.3,1.527l-.07,0,.012.21-.07,0,.012.21-.07,0q.028.489.056.979l-.07,0-.054.284-.07,0c-.109.368.174.646.258.828l.094.416.809.656.14-.008.078.136.14-.008.226.268.354.05,0,.07a2,2,0,0,0,1.235-.491l.128-.218.346-.09,0-.07c.136-.035.6.131.843.022l0-.07.14-.008.458-.588.14-.008.062-.144.753-.323.062-.144.14-.008.062-.144.14-.008.062-.144.268-.226.194-.292.14-.008.132-.147.14-.008,0-.07.14-.008,0-.07.14-.008,0-.07.14-.008.062-.144.14-.008.52-.731.07,0,.062-.144.14-.008.524-.661.2-.152-.008-.14.132-.148-.008-.14.07,0-.008-.14.07,0-.008-.14.07,0,.054-.284.136-.078-.008-.14.07,0q.017-.317.034-.633l.07,0,.054-.284.07,0-.012-.209.07,0-.032-.56c-.04-.722-.205-1.678.164-2.044A.946.946,0,0,0,274.5,2021.437Zm-2.061,2.012q.022.385.044.77l-.07,0,.012.21-.136.078.008.14-.07,0q-.021.247-.042.494l-.136.078.008.14-.136.078-.054.284-.136.078c0,.046.005.093.008.14l-.07,0,.008.14-.132.148.008.14-.136.078-.326.439-.14.008-.59.735-.14.008-.26.365-.412.164-.062.144-.14.008-.326.439-.14.008-.062.144-.276.086,0,.07-.14.008,0,.07-.412.164,0,.07-.416.094,0,.07a1.051,1.051,0,0,1-.568-.108l-.078-.136-.14.008-.152-.2-.07,0,0-.07c-.059-.08.006-.007-.074-.067l.1-.637.2-.152c.014-.165.028-.329.042-.493l.07,0-.008-.14.136-.078a1.622,1.622,0,0,0-.048-.839l-.07,0-.086-.276-.292-.194c-.119-.11-.151-.252-.3-.334a.676.676,0,0,1,.178-.572l.07,0-.008-.14.136-.078-.008-.14.334-.3-.008-.14.532-.521c.055-.09.036-.293.12-.358l.21-.012.524-.661.14-.008.062-.144.334-.3q.027-.142.054-.284l.136-.078-.008-.14.136-.078-.008-.14.07,0-.008-.139.206-.082.128-.218.14-.008.062-.144.416-.094,0-.07.276-.086,0-.07.21-.012,0-.07c.2-.115.409-.141.544-.312l.28-.016,0,.07.07,0,.1.486.07,0,.164.412.07,0c.007.116.013.233.02.349l.07,0,.008.14.144.062.008.14.07,0,.024.42.07,0,.126.975Z" transform="translate(-252.319 -1973.201)"/>
        <path id="パス_28965" data-name="パス 28965" class="cls-1" d="M253.811,2133.829q0-.07.008-.139l-.6-.6-.112-.5-.136-.078q0-.07.008-.14l-.136-.078c0-.047.005-.094.008-.14l-.2-.152-.05-.354-.07,0c0-.047.005-.093.008-.139l-.136-.078-.054-.283-.466-.448c0-.047.005-.093.008-.14l-.132-.148q0-.07.008-.14l-.136-.078-.054-.284-.2-.152q0-.07.008-.14l-.136-.078q0-.07.008-.14l-.136-.078-.054-.284-.07,0,.008-.14-.07,0-.116-.428-.07,0q-.023-.212-.046-.424l-.136-.078.008-.14-.136-.078c0-.047.005-.094.008-.14l-.136-.078-.326-.439-.268-.226.043-.77-.07,0q0-.07.008-.14l-.136-.078c0-.047.005-.093.008-.14l-.136-.078c0-.07.008-.14.012-.21l-.07,0q0-.07.008-.14l-.07,0,.008-.139-.136-.078-.054-.284-.136-.078-.415-1.357-.136-.078.008-.14-.2-.152c0-.047.005-.093.008-.14l-.136-.078c0-.046.005-.093.008-.14l-.136-.078c0-.046.005-.093.008-.14l-.07,0c-.015-.141-.031-.282-.046-.423l-.07,0c0-.047.005-.094.008-.14l-.136-.078-.1-.637-.2-.152c0-.047.005-.093.008-.14l-.07,0-.116-.428-.07,0,.012-.21-.07,0c.005-.093.01-.187.016-.28l-.07,0c.027,0-.92-4.333-1.02-4.729a24.8,24.8,0,0,1-.932-5.486l-.07,0,.012-.21-.07,0,.008-.14-.07,0-.031-.7-.07,0,.012-.21-.07,0,.012-.21-.07,0,.117-.836-.07,0q.014-.876.028-1.753l.051-.909-.07,0c0-.047.005-.094.008-.14l-.07,0c0-.047.005-.093.008-.14l-.136-.078q.116-2.064.232-4.127c.113-2.012.035-3.959.272-6.033.085-.744.773-3.052.414-3.683l.07,0q.006-.105.012-.21l.07,0,.105-.626.07,0,.012-.21.07,0,.012-.21.07,0,.031-.56.07,0,.016-.28.07,0,.09-.346.07,0a1.652,1.652,0,0,0-.093-.847l-.07,0c0-.047.005-.094.008-.14l-.07,0-.058-.214c-.181-.163-.413-.169-.54-.381l-.56-.031,0,.07-.14-.008-.152.2-.14-.008-.078.136c-.223.134-.438.17-.583.388l-.14-.008a.621.621,0,0,1-.156.272l-.07,0c0,.07-.008.14-.012.21l-.07,0q-.065,1.154-.13,2.308l-.144.063c0,.047-.005.093-.01.14-.375-.021-.5,2.662-.531,2.947-.2,1.6-.393,3.194-.491,4.8-.083,1.365.223,2.763.149,4.064l.07,0-.067,1.189a4.373,4.373,0,0,1-.017,1.543l-.07,0c-.337-.017.5,4.992.562,5.344.088.5,1.12,7.1,1.4,7.117l.07,0-.008.14.07,0-.012.21.07,0q0,.561.007,1.123l.07,0,.116.427.07,0-.055.979.07,0q0,.07-.008.14l.136.078.093.847.07,0-.012.21.07,0-.008.139.07,0-.012.21.07,0,.054.284.07,0,.1.707.07,0,.054.283.07,0,.054.284.136.078.054.284.136.078q0,.069-.008.14l.2.152.054.284.136.078.108.568.4.373.1.638.07,0c0,.047-.005.094-.008.14l.136.078c0,.047-.005.094-.008.14l.07,0-.012.21.07,0,.116.428.07,0-.008.14.07,0,.054.284.136.078.19.361.14.008.062.144.268.226c0,.047-.005.093-.008.14l.07,0-.012.21.07,0,.031.7.07,0-.008.14.2.152-.008.14.136.078.175.641.136.078c0,.047-.005.093-.008.14l.07,0q-.01.175-.02.35l.4.374-.008.14.136.078.054.284.268.225-.008.14.136.078q0,.07-.008.14l.07,0c0,.046-.005.093-.008.14l.07,0c-.005.093-.01.186-.016.28l.07,0,.116.428.07,0-.008.14.07,0-.012.21.07,0c0,.046-.005.093-.008.14l.136.078.054.284.136.078.058.214.07,0q.027.142.054.284l.2.152c0,.046-.005.093-.008.139l.466.448.058.214c.1.124.252.15.334.3l1.259.071,0-.07.284-.054,0-.07.366-.26c.072-.319.122-.421-.031-.7l-.136-.078.055-.979Z" transform="translate(-235.465 -2025.384)"/>
      </g>
      <path id="パス_28966" data-name="パス 28966" class="cls-1" d="M301.638,2113.958l-.208-.031.01-.069-.267-.11.01-.069-.208-.031.01-.069-1.525-.228-.01.069-.437.077c0,.023-.007.046-.01.069l-.762-.114-.01.069-.277-.042-.011.07-.208-.031-.01.069c-.373.071-.855-.176-1.258-.117l-.01.069-.277-.042-.01.069-.288.028-.01.07-.7-.035-.01.069-.437.077-.01.07-.555-.083-.01.069-.139-.021-.17.187-.139-.02-.09.128-.288.028-.01.069-.5,0-.01.07-.139-.021-.09.128-.139-.021-.17.187-.288.028-.01.069-.277-.042-.09.128-.139-.021-.09.128-.138-.021-.09.128-.138-.021-.09.128-.288.028-.09.128-.218.038-.249.246-.436.077-.09.128-.138-.021-.01.069-.357.017-.09.128-.288.028-.01.069-.149.049-.031.208-.308.167-.01.069-.139-.021-.09.128-.139-.021-.727.6-.388.225q-.01.069-.021.138l-.149.049q-.011.069-.021.138l-.388.225-.02.139-.627.4-.021.139-.308.166-.021.139-.149.048-.021.139-.229.107-.021.139-.467.284-.2.4-.149.048-.021.138-.069-.01q-.01.07-.021.138l-.706.461-.111.267-.069-.01-.021.139-.159.118-.021.139-.149.049-.2.4-.308.166-.031.208-.149.048c-.007.046-.014.093-.021.139l-.069-.01-.021.138-.149.049-.111.267-.149.049-.142.475-.149.048-.021.139-.149.048-.021.139-.229.107-.052.346-.069-.01-.111.267-.069-.01-.021.138-.149.049c-.007.046-.014.092-.021.138l-.229.108-.2.395-.149.048-.232.6-.229.108-.408,1.781-.069-.01-.041.277-.069-.01-.031.208-.069-.01-.041.277-.069-.011-.111.267-.069-.01-.131.405-.149.049c-.007.046-.014.092-.021.138l-.069-.01-.173.683-.069-.01-.2.4-.069-.01-.031.208-.149.048c-.007.047-.014.092-.021.139l-.069-.011-.021.139-.069-.01-.152.544.069.011-.083.554-.229.108-.021.138-.069-.01-.072.485-.069-.01-.031.208-.069-.01-.021.138-.069-.01-.232.6-.069-.01q-.011.069-.021.139l-.149.049-.031.208-.069-.01-.539,2.186-.069-.01-.052.347-.069-.01-.041.277-.069-.01a1.279,1.279,0,0,0-.232.6,10.593,10.593,0,0,1-.681,2.661l-.331,2.217-.29,1.94c.059.349.361.619.42.984q-.187,1.247-.373,2.494l.069.01-.031.208.069.01q.014.144.028.288l.069.01q-.041.278-.083.554l.069.011-.031.208.069.01.028.288.069.01c.076.328-.193.956-.1,1.119.044.283,0,.09.177.239l-.01.07.139.02-.01.069.139.021-.01.069.128.09-.021.138.128.09.191,1.092c.031.211-.091.393-.013.565l.61.657-.021.139.069.01-.031.208.069.01-.031.208.069.01.076.437.069.01-.021.139.069.01c.009.1.019.191.028.287l.128.09-.021.138.718.886.565.014.09-.128.139.021.01-.069.426-.007.01-.069a1.256,1.256,0,0,0,.429-.5c.014-.093.027-.185.041-.278l.069.01.2-.4.069.011.245-2.585.069.01.3-2.009.069.01.062-.416.069.011.166-1.109.069.01.041-.277.069.01.062-.416-.069-.01c-.017-.2.179-.484.232-.6q.012-.317.024-.634l.069.01.2-.395.069.01.442-2.484a28.341,28.341,0,0,1,1.438-3.827,37.641,37.641,0,0,1,2.259-3.986,64.4,64.4,0,0,1,3.359-5.712c.674-1.042,2.245-2.737,2.409-3.834l.308-.167.021-.138.149-.049.111-.267.149-.049.021-.138.069.01c.007-.046.014-.092.021-.139l.229-.107.021-.139.547-.343c.007-.047.014-.092.02-.139l.149-.048.021-.139.069.01.031-.208.149-.049.021-.139.149-.048.02-.139.149-.048.111-.267.388-.225.09-.128.139.021.09-.128.069.01.021-.138.159-.118.021-.139.069.01q.01-.069.021-.138l.069.01q.01-.069.021-.138l.069.01.021-.138.149-.049.1-.2.069.01a.732.732,0,0,0,.26-.315,1.8,1.8,0,0,0,.6-.194l.139.02.09-.128.139.021.329-.305.149-.049.021-.138.149-.049.021-.138.069.01.111-.266.308-.167.09-.128.139.021.09-.128.218-.038.01-.069.288-.028.419-.433.139.021.17-.187.139.021.17-.187.627-.4.021-.138.308-.167.021-.139.388-.225c.007-.046.014-.093.021-.138l.627-.4.021-.138.229-.108.09-.128.139.02.09-.128.069.01.211-.465.069.01.09-.128.139.021.329-.305.139.021.09-.128.308-.167.021-.138.149-.049.111-.266.069.01q.01-.069.021-.139l.069.01.021-.138.069.01.021-.139.069.01.072-.485-.4-.627-.336-.121-.048-.149-.336-.121Zm-2.767,1.924c-.1.061-.093.107-.169.188l-.069-.01-.031.208-.547.344-.09.128-.139-.021-.09.128-.388.225-.021.139-.069-.01-.021.138-.069-.01-.09.128L296,2118l-.121.336-.707.461-.09.128-.139-.02-.409.364-.437.077-.09.128-.139-.021-.17.188-.139-.021-.159.118-.021.138-.866.579c-.007.046-.014.092-.021.139l-.308.166-.021.138-.229.107-.01.069-.139-.021-.249.246-.069-.01-.021.139-.149.048-.021.139-.149.048q-.011.069-.021.139l-.149.048-.132.406-.069-.01-.17.187-.139-.021-.09.128-.308.166c-.007.047-.014.093-.021.139l-.149.048-.111.267-.069-.01-.1.2c-.369.043-.3.244-.5.492l-.069-.01-.021.139-.218.038-.159.118-.021.139-.149.048q-.026.174-.052.347l-.069-.01-.021.139-.149.048q-.01.069-.021.138l-.229.108-.02.139-.149.049-.121.336-.547.344-.021.138-.16.118c-.007.046-.014.092-.021.138l-.149.049-.152.544-.069-.01-.2.4-.069-.01-.021.139-.149.048c-.007.046-.014.092-.021.139l-.149.048-.021.139-.149.048-.2.4-.229.108-.021.138-.149.049-.2.4-.149.049-.121.336-.149.049c-.007.046-.014.092-.021.138l-.069-.01-.083.554-.069-.01-.111.267-.069-.01-.02.138-.149.049-.021.139-.149.048c-.007.047-.014.093-.021.139l-.069-.01-.083.554-.069-.01-.021.139-.149.048-.021.139-.159.118-.021.138-.069-.01-.021.138-.149.049-.152.544-.069-.011-.111.267-.069-.01-.142.475-.069-.01-.021.139-.467.284c-.114.129-.039.3-.142.475l-.069-.01-.021.139-.229.107-.111.267-.069-.01-.107,1.189-.069-.01-.111.267-.069-.01-.2.891-.069-.01-.111.267-.069-.01-.1.693-.069-.01-.031.208-.149.049-.021.138-.069-.01-.183.752-.07-.01c-.471-.065-1.22,3-1.32,3.339-.107.357-.948,4.554-.919,4.545l-.149.048-.021.139-.229.107-.2,1.316.069.01-.021.139.069.01c.022.2-.231.406-.291.524l-.062.416-.069-.01c-.1.219-.016.485-.162.613l-.1.2c-.55-.15-.788-.8-1.251-1.108,0-.153-.083-.294,0-.5l.069.011.114-.762-.069-.011.031-.208-.069-.01-.028-.288c-.488-.074,1.09-9.968,1.411-9.92l-.069-.011.183-.751.069.01.021-.138.069.01.031-.208.069.011.013-.565.069.011.152-.544.069.01.093-.624.069.01.3-.593.229-.108.031-.208.069.01.148-1.466.069.01.111-.267.069.01.041-.277.069.01c-.136-.02,2.72-5.139,2.943-5.5s1.1-2.017,1.456-2.133l.111-.267.149-.049.021-.139.069.01c-.359-.054,1.979-2.012,2.09-2.1.6-.489,1.961-1.309,2.09-2.162l.021-.138.537-.274.121-.336.727-.6.138.02.09-.128.288-.028.568-.482.139.021.249-.246.139.021.966-.777.139.02.09-.128.714-.035.09-.128.139.021.17-.187.139.021.09-.128.139.021.01-.07.138.021.01-.069.208.031.011-.07.138.021.01-.07.347.052.01-.069.437-.077.01-.069.208.031.01-.069.5,0,.169-.187.832.124.01-.069.139.021.17-.187.97.145.01-.07.139.021.01-.069c.195-.05.417.044.575-.055a2.443,2.443,0,0,1,.752.183Z" transform="translate(-139.493 -221.857)"/>
      <path id="パス_28967" data-name="パス 28967" class="cls-1" d="M112.87,2193.39c.8.326,1.582.678,2.347,1.065.454.229,1.653,1.306,2.195,1.156l.135-.037c.052.017.073.076.172.1l.037.135a1.52,1.52,0,0,1,.652.256l.018.068a3.722,3.722,0,0,1,.547.14l.363.263.2-.056.019.068.135-.037.019.068.135-.037.1.116.135-.037.191.166.135-.037.1.116.135-.037.019.067.326.128.21.233.135-.037,1.483.9.037.135.154.03.037.135.068-.019.037.135.068-.019.161.319.24.079.019.068.135-.037.191.165.135-.037.277.214.068-.019.037.135.154.03c.112.1.184.4.284.5l.566.207.142.251.154.031.123.184.068-.018.142.251.738.305c.3.176.369.508.794.508a1.7,1.7,0,0,0,.524.583l.135-.037.1.116.24.08.037.135.24.08.019.067.135-.037.172.1.037.135.757.373.037.135.24.079.037.135.154.031.142.251.24.079.037.135.221.012.191.165.135-.037.536.361.24.079.037.135.24.079.056.2.068-.019.037.135.067-.019.037.135.068-.019.037.135.068-.019.142.252.652.257.247.368.154.03.037.135.326.128.056.2.068-.018.149.54.068-.019c.22.313.172.558.591.564.176.086.386-.1.626-.1l.019.067c.458,0,.88-.43,1.074-.586l.2-.056-.019-.068.135-.037-.019-.067.2-.056-.018-.068.165-.191a5.93,5.93,0,0,0-.919-1.491l-.174-.9-.068.019-.075-.27-.068.018-.037-.135-.154-.03-.056-.2-.068.019-.335-1.216-.154-.03-.161-.319-.067.019-.316-1.148-.068.019-.142-.251-.412-.177-.037-.135-.24-.079-.261-.946-.068.019-.142-.252-.24-.08-.037-.135-.068.019-.037-.135-.068.019-.056-.2-.068.019-.056-.2-.24-.079-.037-.135-.154-.03-.247-.368-.154-.03-.037-.135-.068.019c-.131-.141-.088-.413-.235-.59l-.154-.03-.037-.135-.068.019-.037-.135-.068.019-.179-.387-.154-.031-.037-.135-.154-.03-.037-.135-.173-.1-.135.037-.019-.067-.24-.08-.247-.368-.154-.03-.179-.387-.068.019-.247-.368-.068.019-.037-.135-.068.019-.037-.135-.068.019-.037-.135-.068.018-.037-.135-.068.018-.037-.135-.068.018-.037-.135-.068.019-.142-.251-.068.019c-.18-.251-.124-.723-.328-.927l-.929-.471-.161-.32-.154-.03-.037-.135-.068.019-.037-.135-.068.019-.056-.2-.068.019-.037-.135-.068.019-.056-.2-.154-.031-.037-.135-.068.019-.321-.638-1.1-.569-.468-.379-.16-.32-.757-.373-.037-.135-.154-.031-.142-.251-.068.019a2.017,2.017,0,0,1-.437-.534l-.135.037-.622-.41-.154-.031c-.52-.1-1.689-1.5-2.269-1.873a38.014,38.014,0,0,0-4.462-2.423,21.389,21.389,0,0,0-4.732-1.524,34.921,34.921,0,0,0-9.859-.421c-.17.014-3.332.637-3.248.944l.019.067c.057.208-2.794,1.469-3.089,1.674-.85.594-4.632,4.063-2.076,4.908l.123.184.326.128.352.485.135-.037.019.067.811-.223.018.068.443.023.019.068.27-.075.018.068.135-.037c.344-.095.871.481,1.156.534a18.737,18.737,0,0,0,2.471-.013,39.861,39.861,0,0,1,4.57.346,42.924,42.924,0,0,1,8.279,2.134Q112.077,2193.068,112.87,2193.39Zm-1.407-2.788c-.169-.068-.329-.138-.474-.208a21.781,21.781,0,0,0-5.218-1.615,24.552,24.552,0,0,1-2.928-.42l-.019-.068-.289.007-.019-.067-.2.056-.019-.068-.405.112-.1-.116-.356.026-.019-.068-.743.2-.1-.116-.135.037-.019-.068-.135.037-.018-.068-.338.093-.1-.116-.135.037-.019-.068-.135.037-.018-.067-.356.026-.1-.117-.289.007-.018-.067-.608.167-.1-.116-.135.037-.363-.264-.135.037-.019-.067-.86.309-.019-.068-.289.007-.1-.117-.356.025-.019-.067-.2.055-.018-.067-.135.037-.019-.068-.2.056-.019-.068c-.3-.018-.4.162-.645.032-.12-.037-.151-.1-.258-.147l-.074-.27.068-.019-.037-.135.466-.419-.019-.067.522-.217.031-.154.135-.037-.019-.068.135-.037.1-.172.135-.037.031-.154.135-.037-.019-.068c1.2-.329,2.059-1.068,3.281-1.312.228-.045,3.436-.948,3.5-.7l.2-.056.019.067.2-.056.019.068.27-.074.019.068.443.023.018.068.792-.291.019.067.54-.148.019.067.473-.13.019.067.289-.007.019.067.2-.055.019.067.559-.081,1.353.427.676-.186.019.068.135-.037.1.116.566.208.492-.063.019.067.443.024.019.067.338-.093.1.116.135-.037.363.263.135-.037.1.116.221.012.037.135.154.031.037.135.326.128.019.067.135-.037.1.116c.143.159,1.595.4,1.929.56,1.023.5,2,1.155,2.974,1.747a47.013,47.013,0,0,1,4,2.672c1.126.858,1.584,1.749,2.867,2.391l.037.135.154.03.037.135.154.03.037.135.154.03.056.2.068-.019.075.27.068-.018.16.319.068-.019.037.135.068-.019.037.135.5.226.16.319.154.03.247.368.068-.018.247.368.068-.019.179.387.154.03.037.135.068-.018.216.522.068-.019.037.135.154.031.037.135.068-.019.112.405.068-.019.037.135.068-.019.037.135.068-.019.037.135.172.1.037.135.154.031.363.263.584.275c.084.115-.062.44.1.626l.24.079.037.135.068-.019.037.135.068-.019.056.2.068-.019.056.2.068-.019.056.2.068-.019.056.2.068-.019.142.251.068-.018.235.589.566.208.161.319.154.031a1.86,1.86,0,0,1,.4.908.688.688,0,0,1-.652-.256l-.056-.2-.412-.177-.363-.263-.154-.03-.037-.135-.24-.079-.037-.135-.135.037-.191-.165-.929-.471-.037-.135-.5-.226-.037-.135-.154-.03-.093-.338-.068.019-.037-.135-.757-.373-.037-.135-.154-.03-.019-.068-.135.037a.76.76,0,0,0-.3-.282l-.068.019-.037-.135-.154-.03-.142-.252-.154-.031-.037-.135-.412-.177-.161-.319-.068.019-.1-.117-.135.037-.277-.214-.068.019-.037-.135-.154-.03-.037-.135-.154-.03-.037-.135-.068.019-.037-.135-.172-.1-.037-.135-.24-.079-.622-.41-.135.037-.1-.117-.135.037-.019-.067-.135.037-.019-.067-.135.037-.019-.068-.135.037-.173-.1-.135.037-.019-.068-.412-.177c-.144-.112.05-.089-.191-.165l-.037-.135a2.218,2.218,0,0,1-1.15-.483l-.142-.251-.154-.031-.449-.312-.135.037-.1-.116-.068.019-.363-.263-.154-.03-.123-.184-.135.037-.1-.116-.442-.023-.191-.166-.135.037-.1-.116-.424.044-.019-.068-.135.037-.1-.117a2.2,2.2,0,0,0-.9.174l-.3-.571-.154-.03-.018-.068-.135.037-.191-.165-.135.037-.277-.215-.135.037-.1-.117-.443-.023-.535-.361A16.369,16.369,0,0,0,111.462,2190.6Z" transform="translate(0 -273.988)"/>
    </g>
    <g id="クリ" transform="translate(1312.151 -1676.452)">
      <path id="パス_28968" data-name="パス 28968" class="cls-1" d="M300.808,1525.246a20.579,20.579,0,0,0,1.591,2.6c.294.418.929,1.854,1.375,1.965l.967.242.484.725h.484v.242h.483l.242.484,1.451.483.242.484c-.032-.063.6.1.625.108.381.124.734.368,1.124.5a9.539,9.539,0,0,0,2.438.407c.313.017,6.21-.064,6.21-.043v-.242h.484v-.242l2.418.242v-.242s2.642,0,2.875-.021a.633.633,0,0,0,.043-.2c.76-.036,1.533-.129,2.3-.216a11.4,11.4,0,0,0,3.651-1.3c.611-.3,1.132-.725,1.715-1.042.223-.122.435-.092.626-.234a4.416,4.416,0,0,0,.638-.855h.484l.242-.483.967-.726v-.483l.967-.726v-.725h.242l.242-1.209.484-.242v-.484h.242l.484-.725a8.681,8.681,0,0,0,3.143.242v-.242c.554.079,1.112.178,1.668.229.06-.227,3.524-.261,3.409-.47a.638.638,0,0,0,.725.242v-.242l1.45.242v-.242a8.667,8.667,0,0,0,.94-.021,1.763,1.763,0,0,0,.05-.2c1.605.253,3.732-.461,5.234-1.016a21.2,21.2,0,0,0,2.623-1.174,3.963,3.963,0,0,0,1.55-1.22h.484v-.242a1.88,1.88,0,0,1,.967-.484c.289-1.031.959-1,1.209-2.176.942-.275.319-.061.725-.725h.242v-.484h.242v-.725c.9-.45.861-1.871,1.133-2.779a11.718,11.718,0,0,0,.427-3.6c-.024-1.269-.173-2.531-.249-3.8-.036-.606-.386-3.039-1.05-3.151a9.325,9.325,0,0,0-1.038-3.222,20.137,20.137,0,0,0-3.415-4.846c-.835-.894-1.734-1.729-2.509-2.675-.788-.962-1.844-1.457-2.524-2.523a3.119,3.119,0,0,0-.346-.485,2.646,2.646,0,0,0-.5-.381l-1.794-1.156a9.2,9.2,0,0,1-1.8-1.379c-.219-.234-.413-.492-.651-.707a9.814,9.814,0,0,0-1.522-1.075c-.484-.325-.881-.95-1.342-1.215a3.327,3.327,0,0,0-.959-.137c-.34.034.1.245-.242.242v-.242a3.333,3.333,0,0,0-2.659,2.418h-.725v.242l-.725.484v.484a9.916,9.916,0,0,0-2.447,2.913c-1.143,1.931-3.771,3.587-4.323,5.791l-.483.242-.242.967-.725.484a15.064,15.064,0,0,0-2.489,3.276c-.046.082-.1.172-.194.191a.323.323,0,0,1-.236-.077,6.634,6.634,0,0,1-1.187-1.186,4.65,4.65,0,0,0-1.067-.771c-.872-.569-1.543-1.386-2.35-2.034a31.858,31.858,0,0,0-2.884-2.141c-.158-.1-2.892-1.4-2.892-1.128v-.242a3.792,3.792,0,0,0-1.115.241c-.233.168-.269.381-.42.606-.544.811-1.506,1.008-2.06,1.916a2.6,2.6,0,0,1-.258.387,2.693,2.693,0,0,1-.418.339,10.433,10.433,0,0,0-1.638,2.078c-.67.817-1.559,1.512-2.274,2.3-.6.661-1.239,1.327-1.774,2.044-.4.532-.925.957-1.34,1.475-.2.246-.631,1.589-.793,1.67l-.483.242c-.127.063-.163.6-.224.745a11.37,11.37,0,0,1-.708,1.215l-1.342,2.3a26.265,26.265,0,0,0-3.468,7.8,12.38,12.38,0,0,0,.046,3.454,15.746,15.746,0,0,0,.377,3.349,7.155,7.155,0,0,0,.329,1.541C300.748,1525.125,300.778,1525.186,300.808,1525.246Zm60.753-18.406v.242h.242v2.418h-.242v.483h-.242v1.209h-.242v.484h-.242l.242.725-.484.242a3.479,3.479,0,0,1-.979,2.152c-.168.2-.373.364-.548.557-.523.577-.839,1.3-1.368,1.874-.147.161-.4.648-.512.72a4.426,4.426,0,0,1-1.428.258l-.242.484h-.484v.242l-.967.242v.242c0-.216-2.632.614-2.836.672a6.338,6.338,0,0,1-2,.537c-.094.026-.058.3-.484.242a.391.391,0,0,0-.483-.242v.242h-.725v.242c0-.227-1.264.085-1.355.088-1.906.063-3.81.18-5.715.291-.218.013-2.5.215-2.5,0,.018-.684.613-1.357.839-2a6.994,6.994,0,0,0,.245-2.791c-.054-1.121.117-2.244-.013-3.363a11.929,11.929,0,0,0-.791-2.572c-.321-.937.237-.775,1.067-.775v.242h2.176v-.242h.242v.242h2.418a38.991,38.991,0,0,0,6.437-.939c.562-.093,1.123-.185,1.688-.255a42.523,42.523,0,0,1,5.174-.256v-.242h.484l.242-.484,1.209-.242.484-.725h.967v-.242Zm-30.706-7.4a9.579,9.579,0,0,1,.8-1.155,3.415,3.415,0,0,1,1.854-1.357c.069-1.417,1.526-2.849,2.367-3.868,1.142-1.381,2.263-2.779,3.384-4.177a15.516,15.516,0,0,1,2.469-2.594l.242-.967h.242a2.571,2.571,0,0,0,.725-1.209h1.934l1.451,1.934h.484l.242.484.725.242v.242h.484a44.844,44.844,0,0,0,5.631,5.177,39.106,39.106,0,0,1,3.136,2.728,17.062,17.062,0,0,1,2.02,2.522,5.911,5.911,0,0,1,.792,1.313,5.212,5.212,0,0,1,.048,1.06.67.67,0,0,1,.2.037,6.691,6.691,0,0,1,.021.7h.242l.483,1.451h.242a11.864,11.864,0,0,1,.242,2.9l-.967.242v-.242h-.242a.691.691,0,0,1-.017.25c-.621.032-.829.807-1.416.738,0,0-.047.228-.017.221l-.967.242v.242h-1.209l-.242.484-2.66.242a.622.622,0,0,0-.725-.242v.242h-.484v.242h-3.385v.242H348.5v.242H347.3v.242h-3.143v.242h-.484a.3.3,0,0,1-.02.222c-.6.041-1.234-.111-1.848-.1a15.777,15.777,0,0,1-2.291-.192,14.24,14.24,0,0,0-1.886-.169v-.242l-1.934-1.693v-.484l-.484-.242v-.484L334,1504.18v-.484a2.719,2.719,0,0,0-1-.936,4.848,4.848,0,0,1-.676-.285c-.117-.1-.057-.323-.178-.431-.252-.223-1.969-1.431-1.725-1.856C330.561,1499.937,330.705,1499.686,330.856,1499.438Zm-27.524,14.195q.489-.859.985-1.715c1.506-2.6,2.853-4.9,4.451-7.514.676-1.108,1.684-1.96,2.379-3.09a3.79,3.79,0,0,1,.592-.8,4.889,4.889,0,0,1,.67-.479c1.34-.888,1.9-2.5,3.067-3.642l1.832-1.8a1.2,1.2,0,0,1,1.762-.195,6.873,6.873,0,0,1,2.6,2.045l.967.242.242.484c.813.762,1.681,1.872,2.9,2.176.272,1.013.81.873,1.451,1.451.584.527,1.114,1.109,1.644,1.689a5.967,5.967,0,0,0,.815.888c.264.184.582.147.81.434a4.192,4.192,0,0,0,.393.574,1.819,1.819,0,0,0,.355.216,8.975,8.975,0,0,1,2.5,2.613c.648.987,1.482,1.855,2.047,2.9.253.465.671,3,.838,3.022a6.621,6.621,0,0,1,.025.965h-.242v.242h-1.451v.242h-.483l-.242.484c-.063.126-.923-.076-1.064-.009-.353.168-.354.362-.753.492-.432.141-.877.185-1.321.353a16.723,16.723,0,0,1-4.229.741q-1.122.112-2.246.194c-1.088.079-2.178.137-3.269.151-.671.009-1.342,0-2.014-.007-.871-.01-1.745,0-2.616-.031-.374-.013-1.283-.378-1.371.046-.234.007-.468,0-.7,0v.242c0-.057-5.663.438-6.319.436a4.072,4.072,0,0,1-.778-.052c-.26-.052-.507-.153-.763-.22a7.267,7.267,0,0,0-1.474-.144,1.91,1.91,0,0,1-1-.3,7.8,7.8,0,0,1-1.822-1.069.537.537,0,0,1-.18-.344.6.6,0,0,1,.1-.29Q302.871,1514.441,303.332,1513.633Zm-.766,4.33c0,1.2,5.8.483,5.8.966v.242l1.451-.242v-.242h1.451l6.286-.242v-.242c.488-.077.484.242.484.242h2.418c0-.081,0-.161,0-.242a.419.419,0,0,1,.533.318,2.144,2.144,0,0,1,1.657-.373,2.9,2.9,0,0,0,.524.1c.441.009.842-.316,1.283-.287a3.413,3.413,0,0,1,.5.113,10.516,10.516,0,0,0,2.256-.089,24.439,24.439,0,0,0,2.686-.021,14.487,14.487,0,0,0,2.049-.548,4.165,4.165,0,0,0,.593-.234,6.511,6.511,0,0,1,2.181-.91c.157-.66,1.531-.929,2.126-1.089a6.741,6.741,0,0,1-.2,2.955,28.779,28.779,0,0,0-.952,2.771,7.2,7.2,0,0,1-.718,2.419c-.521.994-1.331,1.8-1.813,2.8a7.426,7.426,0,0,1-5.083,3.772,17.409,17.409,0,0,1-1.919.479c-.4.037-.993-.314-.9.386-.436.04-5.295.007-5.295.018v.242c0,.139-8.953.4-8.946,0v-.241l-1.209-.242v-.242h-.483v-.242h-1.209l-.484-.725-.967-.242v-.241c0-.06-1.54-1.09-1.693-1.318-.935-1.391-2.065-3.13-2.2-4.85C302.666,1521.107,302.567,1519.552,302.565,1517.963Z"/>
      <path id="パス_28969" data-name="パス 28969" class="cls-1" d="M362.212,1567.518a1.984,1.984,0,0,1,.128-.259c.345-.544.627-1.193.968-1.758a13.8,13.8,0,0,1,2.678-3.466v-1.451h-.242c-.274-.271,0-.1-.484-.242-.221-.063-1.336.889-1.558,1.039a2.184,2.184,0,0,0-.914.99c-.651,1.227-1.288,2.46-1.932,3.69-.2.384-.4.858-.174,1.227a1.12,1.12,0,0,0,1.3.438A.521.521,0,0,0,362.212,1567.518Z" transform="translate(-47.705 -61.965)"/>
      <path id="パス_28970" data-name="パス 28970" class="cls-1" d="M346.584,1603.666a1.534,1.534,0,0,0,.259-.543.274.274,0,0,0,0-.167.311.311,0,0,0-.144-.13,1.6,1.6,0,0,0-1.447-.287c-.239.12-.768,1.278-.868,1.278h-.242v.483c0,.085-.617.273-.694.345-.275.258-.159.2-.3.524-.168.38-.37.669-.039,1.068a2.041,2.041,0,0,0,.782.5.573.573,0,0,0,.511.052.554.554,0,0,0,.174-.2,18,18,0,0,1,1.561-2.377C346.286,1604.031,346.449,1603.856,346.584,1603.666Z" transform="translate(-33.838 -95.042)"/>
      <path id="パス_28971" data-name="パス 28971" class="cls-1" d="M556.552,1621.22H555.1c-.277.555-.81,1.037-.392,1.694a1.053,1.053,0,0,0,1.114.443,1.888,1.888,0,0,0,.4-.167,1.6,1.6,0,0,0,.7-.575C557.191,1622.146,556.7,1621.658,556.552,1621.22Z" transform="translate(-200.069 -109.787)"/>
      <path id="パス_28972" data-name="パス 28972" class="cls-1" d="M501.416,1625.15a1.06,1.06,0,0,0,.006-1.106c-.305-.628-.8-.574-1.414-.574-.349,0-.646,1.235-.444,1.51a1.513,1.513,0,0,0,1.786.242A.735.735,0,0,0,501.416,1625.15Z" transform="translate(-156.823 -111.553)"/>
      <path id="パス_28973" data-name="パス 28973" class="cls-1" d="M534.629,1637.131a1.54,1.54,0,0,0-.166.428,4.308,4.308,0,0,0-.027,1.154c.483.146.208-.034.483.242h.967v-.242l.725-.242c-.016-.836-.121-1.791-1.207-1.752A.859.859,0,0,0,534.629,1637.131Z" transform="translate(-184.238 -121.96)"/>
      <path id="パス_28974" data-name="パス 28974" class="cls-1" d="M503.156,1647.142c-.6,0-2.58-.042-2.009,1.16a1.3,1.3,0,0,0,.87.621,1.146,1.146,0,0,0,.947-.085,3.311,3.311,0,0,0,.635-.514,3.042,3.042,0,0,0,.042-.94C503.157,1647.239,503.432,1647.417,503.156,1647.142Z" transform="translate(-158.036 -130.148)"/>
      <path id="パス_28975" data-name="パス 28975" class="cls-1" d="M426.981,1659.949v.242c.683-.181.694-.432,1.209-.725a3.683,3.683,0,0,0-.484-2.176c-.6.01-1.123.007-1.486.5C425.52,1658.735,426.161,1659.5,426.981,1659.949Z" transform="translate(-99.028 -138.118)"/>
      <path id="パス_28976" data-name="パス 28976" class="cls-1" d="M350.031,1668.731a1.072,1.072,0,0,0,.526-.043.749.749,0,0,0,.416-.928,1.06,1.06,0,0,1,.224,0,3.49,3.49,0,0,0-.725-1.209c0-.081,0-.161,0-.242a1.456,1.456,0,0,0-1.361.627,1.07,1.07,0,0,0-.074,1.327,1.4,1.4,0,0,0,.609.373A2.023,2.023,0,0,0,350.031,1668.731Z" transform="translate(-38.477 -145.202)"/>
      <path id="パス_28977" data-name="パス 28977" class="cls-1" d="M389.369,1677.323a1.275,1.275,0,0,0,.962-.86c.024-.159-.322-1.14-.489-1.14-.589,0-2.628.327-1.751,1.5a1.054,1.054,0,0,0,.389.28,1.67,1.67,0,0,0,.705.234A.822.822,0,0,0,389.369,1677.323Z" transform="translate(-69.143 -152.285)"/>
      <path id="パス_28978" data-name="パス 28978" class="cls-1" d="M419.511,1684.564a1.054,1.054,0,0,0-.27-1.257c-1.653-1.325-2.661,1.569-.936,1.781a1.4,1.4,0,0,0,.615-.08,1.224,1.224,0,0,0,.41-.217A.773.773,0,0,0,419.511,1684.564Z" transform="translate(-92.341 -158.284)"/>
      <path id="パス_28979" data-name="パス 28979" class="cls-1" d="M365.649,1694.81c-.056-1.042-.149-.819-.484-1.451h-1.209a1.811,1.811,0,0,1-.725.483c.128,1.016.342.786.725,1.451A2.114,2.114,0,0,0,365.649,1694.81Z" transform="translate(-49.785 -166.451)"/>
    </g>
    <g id="おにぎり" transform="translate(1126.654 -1966.015)">
      <path id="パス_28980" data-name="パス 28980" class="cls-1" d="M519.28,1896.992l-.076,0,.007-.3h-.076c-.117-.431.1-.931-.047-1.287l-.076,0c0-.05,0-.1,0-.151h-.076c0-.076,0-.152.005-.227h-.076l0-.151-.076,0,0-.151-.3-.233,0-.152-.224-.156,0-.151-.15-.079-.071-.229h-.076l-.069-.3-.3-.234,0-.075-.15-.079,0-.151-.223-.156-.141-.457-.076,0,.012-.529q.009-.378.017-.756l.076,0q0-.113.005-.227l.076,0,0-.151.076,0a.667.667,0,0,0-.21-.761c.008-.376.079-.477.316-.6-.006-.683-.494-.708-.808-1.077l-.07-.229-.076,0,0-.151-.15-.079,0-.151-.224-.157,0-.151c-.082-.106-.244-.092-.375-.159l0-.076-.3-.007,0-.076c-.083-.068,0,0-.074-.077l-.076,0,0-.151-.076,0q0-.114.005-.227l-.076,0a1.717,1.717,0,0,1,.165-.6h.076l.084-.376h.076c.054-.074.2-.3.162-.45l-.076,0,0-.151-.223-.156-.069-.3-.15-.079-.141-.457-.076,0,0-.151-.15-.079-.067-.38-.076,0q0-.114.005-.227l-.3-.234a2.824,2.824,0,0,1-.44-.615c0-.05,0-.1,0-.151l-.076,0,0-.151-.076,0q.014-.6.027-1.21a4.09,4.09,0,0,0-.2-1.366q.005-.227.01-.454h-.076l-.067-.38-.224-.156-.067-.38-.223-.156,0-.075-.225-.081,0-.151-.15-.079-.07-.228c-.157-.118-.4-.01-.6-.089l0-.076-.151,0,0-.075-.526-.163-.072-.153-.151,0,0-.075-.223-.156a.667.667,0,0,1,.084-.376l.076,0c0-.051,0-.1,0-.151l.076,0,.089-.6.076,0a1.667,1.667,0,0,0,.165-.6l-.076,0,0-.151-.076,0c0-.076,0-.151.005-.227l-.076,0c-.061-.191.03-.377-.064-.531l-.519-.466-.067-.38-.076,0,0-.151-.15-.079-.067-.38-.076,0c0-.05,0-.1,0-.151h-.076q0-.114.005-.227a2.135,2.135,0,0,1-.212-.686.764.764,0,0,1-.449-.237c-.166-.2.014-.76-.129-.987l-.076,0-.072-.153-.151,0-.071-.228-.815-.775c0-.051,0-.1,0-.151l-.3-.234.012-.529-.076,0-.069-.3-.076,0c-.049-.189.1-.349.161-.45l.076,0a3.39,3.39,0,0,0-.048-1.212.82.82,0,0,1-.373-.235l0-.076-.225-.081-.072-.153c-.26-.131-.622.047-.83-.094l-.366-.538-1.184-1.161,0-.151h-.076l-.069-.3-.076,0c0-.1,0-.2.007-.3l-.076,0c0-.075,0-.151.005-.227l-.6-.468-.151,0-1.406-1.393q.013-.567.025-1.135h-.076l-.069-.3-.076,0,.007-.3-.076,0,0-.151-.076,0c0-.051,0-.1,0-.151l-.15-.079-.516-.617-.151,0-.146-.23-.151,0-.072-.153-.225-.081-.141-.457-.3-.083c-.053.031-.006.11-.153.072l0-.075-.83-.094,0,.075-.681-.015-.072-.153-.151,0-.072-.153-.445-.388,0-.151-.224-.156,0-.151-.148-.155,0-.152h-.076c0-.051,0-.1,0-.151l-.15-.079q-.03-.341-.06-.682l-.445-.388,0-.076-.3-.082-.072-.153-.151,0c0-.025,0-.051,0-.076l-.756-.017-.146-.23-.376-.084c0-.025,0-.051,0-.076l-.151,0c0-.025,0-.05,0-.075l-.151,0-.072-.153-.151,0,0-.076-.456.066c0-.025,0-.051,0-.076a2.734,2.734,0,0,1-.743-.622l-.072-.153-.151,0,0-.076-.227-.005,0-.075-.227-.005c0-.025,0-.05,0-.076l-.151,0c0-.025,0-.05,0-.075l-.151,0-.072-.153-.452-.086-.072-.153-.3-.083,0-.076-2.119.028a1.434,1.434,0,0,1-.679-.091l-.146-.23-.151,0,0-.076c-.382-.154-1.255.272-1.521.344l-1.512-.034-.079.15-.151,0,0,.075-.151,0,0,.076-.6-.014-.156.223c-.2.135-.4.165-.538.366l-1.664-.037-.22-.308-1.664-.037,0,.076-.151,0-.079.15-.38.067-.538.366,0,.151-.23.146,0,.151-.076,0c-.131.251.1.083-.158.3l0,.076-.455.065,0,.075-.151,0-.079.149-.76.134,0,.076-.151,0-.079.149-.53-.012,0,.076-.151,0-.079.15-.151,0,0,.075-.684.136-.62.667-.228.071,0,.151-.076,0-.156.223-.151,0-.079.149-.3.069-.079.15-.151,0-.39.521-.151,0-.234.3-.151,0,0,.076-.23.146-.242.676-.383.218-.466.519-.308.22,0,.151-.153.073,0,.151-.153.072-.166.677-.076,0-.082.3h-.076l-.007.3-.076,0c-.033.161.152.62.055.909l-.076,0c0,.1,0,.2-.007.3l-.153.072,0,.151-.153.072,0,.151-.153.073,0,.151-.076,0-.009.378-.076,0-.086.452-.153.072-.082.3-.617.516,0,.151-.23.146,0,.151-.308.22q0,.076,0,.151l-.153.072-.234.3-.151,0-.388.445,0,.152-.153.072,0,.151-.155.148c0,.051,0,.1,0,.151l-.076,0,0,.151-.076,0q-.006.265-.012.53l-.076,0,0,.151h-.076l0,.151-.153.072q-.051.566-.1,1.133l-.153.072,0,.151-.076,0-.088.528-.153.072,0,.151-.155.148c0,.05,0,.1,0,.151h-.076l0,.151-.076,0,0,.151-.076,0c0,.05,0,.1,0,.151l-.076,0-.161.45-.076,0c0,.076,0,.151-.005.227l-.076,0-.088.528.076,0c0,.1,0,.2-.007.3l-.075,0q-.005.227-.01.454t-.01.454h-.075l0,.151-.076,0-.084.376-.153.073-.082.3-.153.073,0,.151-.462.368-.082.3-.076,0-.1.906-.076,0-.084.376-.153.072c-.161.339.124.73-.022.983l-.849.738c-.1.149-.017.341-.088.528h-.076l-.084.376-.153.072,0,.151-.076,0,0,.151-.076,0-.17.829-.153.072,0,.151-.153.072,0,.151-.153.072-.082.3-.076,0q0,.189-.008.378l-.076,0q0,.114-.005.227l-.076,0-.082.3-.076,0q0,.113-.005.227l-.075,0c-.152.428.084.834-.178,1.207l-.617.516c-.191.258-.249.6-.472.822l-.615.44-.242.676-.153.072,0,.151-.153.072-.084.376h-.076q-.046.339-.091.679l-.076,0-.082.3-.23.146,0,.151h-.076c0,.1,0,.2-.007.3-.174.489.041,1.308-.116,1.813l-.076,0q-.048.453-.1.906l.076,0q.024.606.048,1.212l-.153.072,0,.151-.076,0,0,.151-.155.148c0,.051,0,.1,0,.151l-.153.072,0,.151-.23.146c0,.051,0,.1,0,.151l-.23.146q0,.076,0,.151l-.153.072-.089.6a4.877,4.877,0,0,0-.116,1.813c.087.072.081.178.146.23l.151,0,.072.153.151,0,.07.228.15.079c0,.05,0,.1,0,.151l.076,0,.06.682-.076,0q0,.189-.008.378a3.693,3.693,0,0,0,.729,1.227.817.817,0,0,1-.163.526l-.153.072q-.007.3-.014.6l-.076,0,0,.151-.385.294q0,.075,0,.151l-.153.072-.166.678-.076,0,0,.151-.076,0-.161.45-.076,0-.007.3-.076,0a1.555,1.555,0,0,0,.2,1.064l.136.684.368.462.151,0,.442.54.151,0,.22.307.076,0,0,.151.076,0c0,.05,0,.1,0,.151l.15.079q0,.114-.005.227l.076,0q-.012.529-.023,1.059h.076c0,.076,0,.151-.005.227l.15.079,0,.151.223.156,0,.151.149.079,0,.151a4.1,4.1,0,0,0,.292.46l.151,0,.146.23.151,0,0,.075c.2.214.1.359.444.464.2.181.858-.045,1.062-.127l.667.62,0,.151.15.079.069.3h.076l0,.151.149.079c.187.3.209.581.59.694a4.912,4.912,0,0,0,1.511.11l0-.076.151,0,0-.076.227,0,0-.075.827.245a2.936,2.936,0,0,1,.985-.053,9.81,9.81,0,0,0,2.57.133c.18-.011.421-.145.682-.06l0,.075.3.007.072.153.151,0,0,.075.679.091,0,.076.3.082,0,.076.227,0,0,.076.832.019.157-.223.3-.069,0-.076,1.133.1,3.252.073,0,.076.151,0,.072.153.227.005,0,.076.529.012,0,.075.3.007,0,.076.227,0,0,.076.756.017,0,.076c.48.142.721-.214,1.214-.124a3.577,3.577,0,0,0,1.433.183l0-.075.151,0,.156-.224.151,0,.156-.224.151,0,0-.076.832.019,0-.076.151,0c0-.025,0-.05,0-.075l.227.005,0-.076,3.934.012,0-.075.227.005.156-.223.227,0c0-.025,0-.05,0-.075.6-.176.787.559,1.277.407,0-.025,0-.05,0-.076l.151,0,.156-.224.456-.065,0,.076.076,0,0-.076.227.005,0-.076.151,0,.079-.149.227.005,0-.076c.2-.057.35.067.452.086l1.892-.033,0-.076.455-.065c.148.037.351.223.6.165l0-.076.378.009c0-.025,0-.051,0-.076l.227.005,0-.076.3.007,0-.076,1.361.031a3.427,3.427,0,0,0,1.141-.277l.454.01,0-.075.531-.064,0,.075.151,0,0,.076.227.005,0,.075.3.083,0,.076.227.005,0,.075.756.017,0,.075a1.869,1.869,0,0,0,1.2.254l0-.076.227,0,0-.075.227,0,0-.075c.462-.133.765.292.978.249l0-.076.151,0,.156-.224c.32-.135.608.287.981.1l.156-.223.3-.069,0-.076.681.015,0-.075.151,0,.156-.223.38-.067,0-.075.229-.071.079-.15.3-.069.079-.149.454.01,0-.075.227.005.156-.224a3.308,3.308,0,0,1,1.136-.05l2.343.128,0,.076.3.082,0,.076.909-.055,0-.075.151,0c0-.025,0-.05,0-.076l1.287-.047,0-.075.151,0c0-.025,0-.051,0-.076l.457-.141.469-.67c0-.076,0-.151.005-.227h.076l0-.151c.023-.035.107-.064.155-.148.385,0,.613.011.751.244.368,0,.365-.033.534-.215h.076l.081-.225.151,0,.079-.149.151,0,.156-.223.151,0c.214-.153.361-.752.477-1.049l.076,0c.164-.466-.12-1.145.109-1.511l.153-.072.161-.45.153-.072.17-.829.153-.072,0-.151.153-.072.242-.676.076,0a2.182,2.182,0,0,0-.2-1.367q0-.227.01-.454c-.046-.151-.257-.451-.134-.76l.076,0,0-.151.153-.072.168-.753.076,0,.082-.3.076,0q.046-.339.091-.679l.076,0q0-.189.008-.378l.076,0c0-.025,0-.051,0-.076l-.076,0Q519.276,1897.181,519.28,1896.992Zm-2.47,5.543-.54.442c0,.05,0,.1,0,.151l-.23.146c0,.051,0,.1,0,.152l-.153.072-.082.3-.23.146,0,.151-.153.072c-.09.093-.131.218-.234.3q-.016.719-.032,1.437l-.153.072a1.886,1.886,0,0,1-1.375.574c-.09.312-.285.377-.541.518l0,.075-.151,0,0,.076-.151,0,0,.076-.151,0-.079.149-.38.067,0,.075-.3.069,0,.076-1.059-.024-.681-.015,0-.076-.45-.161c0-.025,0-.051,0-.076l-1.437-.032-.983-.022c0,.025,0,.051,0,.076l-.457.141c0,.025,0,.051,0,.076l-.529-.012,0,.076-.151,0,0,.076-.151,0-.156.223-.229.071-.079.149-.456.066,0,.075-.457.141,0,.075-.3.069-.079.149c-.493.279-1.017-.187-1.37.348-.366,0-.836.05-.98-.173-.12-.18.083-.354.089-.6,0-.164-.072-.153-.072-.153q.014-.6.027-1.21l.076,0-.129-.987-.076,0q.009-.378.017-.756h-.076c0-.076,0-.151.005-.227l-.076,0q.009-.378.017-.756c-.042-.125-.334-.421-.289-.612.03-.129.383-.423.318-.674l-.076,0-.141-.457h-.076a1.783,1.783,0,0,1,.175-1.056c.083-.278-.091-.521-.136-.684q.031-1.361.061-2.723H501.4q0-.189.008-.378l-.076,0,.007-.3-.076,0,.01-.454-.076,0q.016-.719.032-1.437l-.076,0,.01-.454-.076,0q0-.151.007-.3l-.076,0,0-.151-.076,0q.029-1.286.058-2.571l-.076,0q0-.114.005-.227l-.15-.079-.139-.533-.076,0,0-.151H500.5l0-.151-.076,0,0-.151-.076,0-.069-.3-.15-.079q0-.151.007-.3l-.076,0q0-.152.007-.3l.076,0q-.018-.908-.035-1.817l-.076,0c0-.075,0-.151.005-.227l-.15-.079c0-.076,0-.152.005-.227l-.076,0q.008-.34.015-.681l-.076,0,0-.151-.149-.079,0-.151-.076,0-.07-.229-.223-.156.005-.227-.076,0q.049-.528.1-1.057H499.2c-.031-.762-.315-.275-.822-.473l0-.075-.45-.162,0-.075-.151,0,0-.076-1.361-.03,0,.076a2.182,2.182,0,0,1-1.055-.175c0-.025,0-.05,0-.076-.13-.028-.129.067-.153.072a.789.789,0,0,1-.754-.092l-.3-.234q0-.075,0-.151l-.151,0,0-.076c-.121-.045-.389.17-.459.217l0,.076-.227-.005,0,.076-1.889-.118c0,.025,0,.051,0,.076l-.378-.009-.079.15-.38.067,0,.076-.378-.009,0,.076-.378-.009,0,.076-.076,0,0-.075-.227-.005,0-.076-.907-.021,0,.076-.456.065,0-.076-.151,0,0-.076-2.042-.046,0,.076-.3.069,0,.075-1.514.042,0,.076-.227,0c0,.025,0,.05,0,.075l-.151,0,0,.076c-.271.084-.469-.116-.6-.165a3.886,3.886,0,0,0-1.359-.106l0,.075-.227,0c0,.025,0,.05,0,.075l-.151,0,0,.076-.227-.005,0,.076-1.815-.041,0,.076-.151,0c0,.025,0,.05,0,.075l-.151,0-.079.15-.454-.01a4.954,4.954,0,0,1-.687.287,2.211,2.211,0,0,1-.316.6l0,.151h-.076l-.084.377-.23.146,0,.076-.228.071-.083.3-.076,0-.025,1.135-.076,0q-.013.567-.025,1.135a1.6,1.6,0,0,1,.059.758l-.075,0q0,.114-.005.227l-.076,0,0,.075q.024.606.049,1.212l-.076,0-.166.677.075,0,0,.151.076,0a1.964,1.964,0,0,1,.124,1.213l-.076,0c0,.1,0,.2-.007.3l-.076,0-.015.681-.076,0-.018.832-.076,0-.012.529.076,0c0,.126-.005.252-.008.378h.075c.113.43-.052,1.129.042,1.514.089.364-.174.678-.247.9q-.011.491-.022.983a7.564,7.564,0,0,0-.044,1.966,5.152,5.152,0,0,0,.338,1.823q-.012.53-.024,1.059l-.076,0q.027.493.054.985l-.076,0q0,.189-.009.378h.076l.069.3.15.079,0,.151.076,0-.022.983.076,0,0,.151.076,0q-.006.264-.012.529c0,.025,0,.051,0,.076l-.076,0c-.142.473.108,1.126-.183,1.434-.17.5-.887.025-1.366.2,0,.025,0,.051,0,.076l-.151,0-.156.223-.151,0,0,.075-.983-.022-2.5-.056-.3-.007,0-.075-.076,0,0,.076-.3-.007,0,.076a.653.653,0,0,1-.306.144c-.059.037,0,.1-.153.072l0-.075-.3-.083-.072-.153-.6-.089c0-.025,0-.05,0-.075l-.3-.083,0-.075-.227-.005,0-.075-.832-.019,0-.075-.3-.007,0,.075-1.133-.1,0,.076-1.437-.032-.072-.153c-.144-.092-.17,0-.3-.158l-1.588-.035-.294-.385-.076,0-.072-.153-.151,0-.442-.54-.151,0-.072-.153-.151,0,0-.076-.3-.007-.072-.153-.151,0,0-.075-.151,0,0-.075-.53-.012,0,.075-.076,0,0-.076-.227-.005c0-.025,0-.05,0-.075l-.667-.62-.067-.38-.076,0,0-.151-.149-.079.005-.227-.076,0q.01-.454.02-.907h.076l0-.076-.076,0q0-.189.008-.378l-.359-.841c-.16-.063-.588-.013-.755-.093l-.072-.153-.151,0c-.044-.03-.056-.1-.148-.155a8.3,8.3,0,0,1-.043-1.439c.237-.186.287-.5.471-.746l.308-.22,0-.151.153-.072.081-.225h.076l0-.151.153-.072c0-.05,0-.1,0-.151l.385-.294.009-.378.076,0c.109-.26.127-.436.316-.6.011-.659.035-.507-.284-.839l-.146-.23-.151,0L458.9,1897l-.151,0c0-.025,0-.051,0-.076l-.076,0,0-.151H458.6l.019-.832-.223-.156-.065-.456a3.013,3.013,0,0,0-.659-1,1.427,1.427,0,0,1,.089-.6l.23-.146,0-.151h.076l.005-.227h.076l.082-.3.076,0,.082-.3.153-.072.083-.3.153-.072,0-.151.153-.073,0-.151.153-.073c0-.05,0-.1,0-.151l.076,0a.534.534,0,0,0,.16-.375l.076,0,0-.151c-.138-.183.034-.5-.059-.758l-.076,0c0-.05,0-.1,0-.151l-.223-.157a.713.713,0,0,1,.239-.524l.076,0c0-.076,0-.151.005-.227l.076,0,.007-.3h-.076q.054-.717.108-1.435l.076,0,.082-.3.076,0c0-.076,0-.151.005-.227l.076,0,.086-.452.153-.072q0-.114.005-.227l.076,0,.087-.528.076,0,0-.151.076,0,.084-.376.153-.073.081-.225.229-.071c.14-.128.166-.422.314-.523l.3-.069.156-.223.151,0,.079-.149.151,0,.079-.15.54-.442q.026-1.172.052-2.344l.308-.22,0-.151.153-.072.083-.3.076,0c.111-.283-.047-.616.094-.83l.23-.146,0-.151.385-.294c0-.051,0-.1,0-.151l.153-.073c0-.05,0-.1,0-.151l.153-.072,0-.151.076,0q0-.114.005-.227l.076,0,.083-.3h.075q.006-.264.012-.529l.076,0,0-.151.153-.072q0-.114.005-.227l.076,0,.007-.3.076,0,0-.151.076,0c0-.051,0-.1,0-.151l.23-.146a.188.188,0,0,0-.07-.229q.048-.452.1-.906l.076,0,.082-.3.153-.072,0-.151.153-.072,0-.151.153-.073q0-.075,0-.151l.153-.072c0-.05,0-.1,0-.151l.153-.072.082-.3.076,0,.082-.3.076,0,.171-.9c-.029-.143-.268-.493-.134-.76l.385-.294.082-.3.153-.073a3.328,3.328,0,0,0,.1-1.208h-.076l.007-.3.308-.22.166-.677.153-.072.082-.3.23-.146.086-.452.076,0,.081-.225.153-.072.009-.378.23-.146.005-.227.076,0q0-.113.005-.227l.076,0,0-.151.076,0c0-.051,0-.1,0-.151l.153-.072,0-.152.23-.146,0-.151.153-.072.311-.371.308-.22.17-.829.075,0a1.515,1.515,0,0,1,.691-.439l.007-.3-.223-.156a1.637,1.637,0,0,1-.055-.909l.076,0,0-.151.153-.072,0-.151.307-.22,0-.151.075,0,.084-.377-.075,0,.007-.3.617-.516,0-.151.153-.072.081-.225.076,0,.162-.45.462-.368.933-1.115.605.014.079-.15.151,0a.656.656,0,0,1,.158-.3l.076,0,.087-.528.462-.368.151,0,0-.075.151,0,.079-.15.455-.065c0-.025,0-.051,0-.076l.151,0,.079-.15.227.005,0-.076,1.662.113c.133-.153.287-.173.461-.292l.62-.667.23-.146.084-.376.153-.072c0-.05,0-.1,0-.151l.076,0,.156-.223,1.435.107,0,.076.227.005,0,.075.6.089,0-.075h.076l0,.076.983.022.079-.15.151,0,.156-.224.151,0,.079-.149.151,0,.311-.371.756.017,0-.076.151,0,.079-.15.151,0,0-.075a3.365,3.365,0,0,1,1.208.1l0,.076.151,0,0,.076.753.168,0,.075.3.083,0,.075,2.723.061.072.153.225.081c0,.025,0,.051,0,.076l.451.161.072.153.376.084,0,.075.225.081.072.153.151,0,.146.23.378.009,0,.075.227.005.072.153.151,0,0,.075.6.089.22.308.151,0,0,.076.3.233.135.76.149.079,0,.151.15.079.071.229.151,0,.072.153.223.156c0,.05,0,.1,0,.151l.445.388,0,.076.452.086.072.153.452.086,0,.075.906.1,0,.076.3.083.22.308.151,0,.146.23.151,0,.072.153.3.082.072.153.371.311,0,.151.076,0,0,.151.076,0c0,.076,0,.151-.005.227l.076,0,0,.151.076,0c0,.075,0,.151-.005.227l.15.079.069.3.076,0-.01.454.076,0,0,.151.076,0c0,.051,0,.1,0,.151l.149.079.067.38.3.234.072.153.151,0,.22.308.151,0c.079.312.3.4.361.765.187.057.122.042.224.156l.076,0,0,.151.371.311,0,.076.151,0,.072.153.151,0,0,.076.151,0,.148.155.151,0,.294.385.151,0,0,.075.151,0,.148.155.151,0,.59.694c.211.219.5.272.591.619.336.4-.24,1.486-.046,2.042h.076l0,.151.15.079,0,.151.223.156,0,.151.15.079.141.457.526.163.146.23.151,0,.146.23c.269.277.636.488.736.924.2.22-.018.641-.168.753a1.571,1.571,0,0,0,.58,1.148l0,.075.151,0,.072.153.151,0,.146.23.151,0,0,.076c.244.235.037.006.144.306l.076,0q-.007.3-.014.6l-.23.146,0,.151h-.076q0,.189-.008.378l-.076,0-.082.3-.153.072a1.335,1.335,0,0,0-.089.6c.361.319.4.851.961,1.005l0,.076.529.012,0-.076a4.1,4.1,0,0,1,.828.17c.612.174.747,1.287,1.173,1.691q-.006.3-.013.6h-.076l0,.151-.076,0c0,.051,0,.1,0,.151l-.076,0,0,.151a1.478,1.478,0,0,1-.469.67c0,.427.069.394.212.686h.076q0,.114-.005.227l.076,0q0,.151-.007.3l.076,0q0,.114-.005.227l.076,0,.069.3.076,0,0,.151.815.775.227.005,0,.075.3.234a3.934,3.934,0,0,1-.647,1.877l-.151,0-.082.3a1.972,1.972,0,0,1,.513.768l.3.083,0,.076.3.007,0,.076.151,0,.072.153.376.084,0,.076.151,0,.072.153.151,0,0,.076.151,0,0,.076.225.081a7.113,7.113,0,0,0,.358.916c.153.521-.229.84-.328,1.128a5.136,5.136,0,0,0,.038,1.665l.076,0,0,.151.076,0q-.005.227-.01.454l-.076,0a4.173,4.173,0,0,0,.188,1.745c.1.412.316.268.595.467l.072.153.223.156.07.229.223.156,0,.151.224.156a1.09,1.09,0,0,1-.165.6l-.076,0q-.01.454-.02.907l-.1,1.057.065.455-.076,0a1.444,1.444,0,0,1-.314.523.768.768,0,0,0,.141.457l.149.079.065.456.076,0,.069.3.076,0q-.005.227-.01.454l.076,0Q516.825,1901.893,516.81,1902.536Z" transform="translate(0 0)"/>
      <path id="パス_28981" data-name="パス 28981" class="cls-1" d="M596.408,1890.458l-.076,0,0-.151h-.076q.006-.265.012-.53l-.076,0,0-.151-.15-.079-.069-.3-.076,0,.088-.528-.076,0c-.116-.262-.221-.455-.518-.541l0-.076-.454-.01c-.176.15-.492-.021-.758.059l0,.075-.227,0,0,.076-.151,0,0,.075c-.2.081-.453.009-.609.137-.349.085-.376.322-.543.594l-.076,0,0,.151-.153.072,0,.151-.155.148-.151,0,0,.076-.23.146,0,.151-.153.072c-.124.177-.151.383-.314.522q-.005.227-.01.454l.15.079,0,.151h.075l.072.153.151,0,.072.153.151,0,0,.075.151,0,0,.076c.17.107.1-.027.224.156l.3.007,0-.076.151,0,.081-.226.308-.22,0-.151h.076l.015-.681.076,0,0-.151.307-.22,0-.151.076,0,0-.151c.029-.043.1-.054.155-.148.57.011.518.072.67.469q0,.113-.005.227l.15.079.071.229.076,0,.069.3.445.388.212.686c.07.116.145.132.222.232a.976.976,0,0,0,.608-.138q.017-.756.034-1.512l-.15-.079C596.406,1890.559,596.407,1890.509,596.408,1890.458Z" transform="translate(-103.439 -28.179)"/>
      <path id="パス_28982" data-name="パス 28982" class="cls-1" d="M548.833,1927.283l0-.076-.151,0-.073-.153-.151,0,0-.076c-.323.031-.343.154-.61.213-.078-.1-.131-.081-.224-.156l0-.076-.151,0-.146-.23-.151,0,0-.076-1.513-.034-.543.593-.153.072q-.046.339-.091.679l-.153.072,0,.151-.153.072q0,.076,0,.151l-.076,0-.082.3-.076,0c-.193.417.029,1.272-.262,1.583q.032.265.064.531h.076l.59.694.3.082c0,.026,0,.051,0,.076l.151,0,.146.23.376.084,0,.076.3.007,0-.076.3.007.156-.224.151,0,0-.076.38-.067.079-.149.151,0,0-.075.227.005,0-.076.23-.146c0-.076,0-.151.005-.227l.076,0,.079-.15.151,0,.466-.519.538-.366,0-.151h.076c.1-.2-.033-.2.16-.375q.022-.983.044-1.966l-.075,0C549.077,1927.17,549.126,1927.411,548.833,1927.283Zm-1.1,2.018-.153.072-.393.672c-.152.042-.065-.012-.153.073a1.576,1.576,0,0,1-.9-.172l.094-.83.538-.366.161-.45.076,0,.311-.371.3.007c0,.025,0,.05,0,.076h.076c.042.152-.012.065.072.153Q547.742,1928.734,547.729,1929.3Z" transform="translate(-67.457 -57.471)"/>
      <path id="パス_28983" data-name="パス 28983" class="cls-1" d="M642.844,1953.36l0-.151-.3-.234q-.034-.152-.069-.3l-.225-.081-.072-.153-.151,0-.072-.153-.3-.082,0-.076a2.2,2.2,0,0,0-.674-.318q.008-.341.015-.681l-.15-.079,0-.152-.15-.079,0-.151-.076,0-.141-.457-.076,0q.01-.453.02-.907l-.076,0c0-.1,0-.2.007-.3l-.076,0-.141-.457-.076,0,0-.151-.076,0c0-.05,0-.1,0-.151l-.225-.081-.146-.23-.151,0-.072-.153c-.272-.174-.484-.021-.674-.318a1.5,1.5,0,0,0-.682.061l-.079.149-.151,0,0,.075-.454-.01-.156.223-.151,0c0,.025,0,.05,0,.076l-.378-.009,0,.076-.227-.005c0,.025,0,.05,0,.076l-.457.141c0,.025,0,.05,0,.075l-.3.069-.234.3-.153.072,0,.151-.23.146q0,.114-.005.227l-.076,0a.913.913,0,0,0,.289.612l.076,0,0,.151.075,0,0,.076.227.005,0,.076.076,0,0-.076c.733-.023.349-.14.617-.516l.538-.366.081-.225.153-.072c0-.051,0-.1,0-.151l.538-.366.151,0,0-.076.227.005,0-.076c.253-.055.351.137.449.237a1.73,1.73,0,0,1,.368.462q-.014.643-.029,1.286l.076,0c0,.05,0,.1,0,.151l.224.156.129.986c-.084.066-.017-.014-.077.074,0,.025,0,.05,0,.075l-.23.146c-.091.091-.132.217-.234.3q0,.189-.008.378l.075,0,0,.151.076,0,.07.228.3.083c0,.025,0,.051,0,.076l.605.013,0,.076.151,0,0,.076.227,0c0,.025,0,.051,0,.076l.227.005,0,.076.227.005.072.153.151,0,.072.153.151,0,0,.075.445.388q-.007.3-.013.605l-.153.072-.242.676-.076,0c-.108.32.107.632.131.911a1.37,1.37,0,0,1,.6.392c.663.018.458-.047.691-.439l.076,0,0-.151.23-.146q.008-.378.017-.757l.076,0,.005-.227.153-.073,0-.151.075,0c.1-.231,0-.426.165-.6a1.172,1.172,0,0,0-.208-.837Z" transform="translate(-136.578 -73.305)"/>
      <path id="パス_28984" data-name="パス 28984" class="cls-1" d="M503.891,2026.4l0-.151h-.076l.007-.3-.076,0,0-.151-.076,0,0-.151-.15-.079-.067-.38-.224-.156.022-.983-.076,0,0-.151-.223-.156-.069-.3-.076,0c-.175-.209-.009-.023-.223-.156,0-.025,0-.05,0-.076l-.151,0c0-.025,0-.05,0-.076l-.151,0-.072-.153-.151,0,0-.076-.983-.022c-.133.207-.224.187-.461.292l0,.075-.3-.007,0,.075-.151,0-.466.519-.151,0c0,.025,0,.051,0,.076l-.23.146,0,.151-.076,0a1.689,1.689,0,0,0-.171.9l.076,0q0,.189-.008.378h.076c0,.1,0,.2-.007.3l.076,0q-.009.378-.017.756l.076,0c.111.432-.08.806.126,1.138h.076l.294.385.225.081c0,.025,0,.05,0,.076.27.021.536.133.756.017.119-.062.231-.344.388-.445a.684.684,0,0,0-.067-.38l-.076,0,0-.151-.076,0q.009-.378.017-.756l-.3-.234q-.028-.417-.057-.833h.076q-.032-.265-.064-.531l.076,0c0-.076,0-.151.005-.227l.54-.442.166-.677c.756.058.337.446.507.995l.076,0q0,.114-.005.227l.15.079,0,.151h.076c.123.346-.089.888.048,1.212l.076,0q0,.075,0,.151l.15.079,0,.151.15.079,0,.151c.085.113.2.066.3.234.546.034.955.083,1.067-.354l.076,0-.07-.229Z" transform="translate(-33.235 -130.643)"/>
      <path id="パス_28985" data-name="パス 28985" class="cls-1" d="M677.1,2037.85q0-.076,0-.151l-.076,0q0-.114.005-.227h-.076c-.1-.327.029-.731-.129-.987l-.149-.079-.072-.153-.529-.012c0-.025,0-.05,0-.075l-.227-.005-.072-.153-.151,0,0-.076-.6-.089a.208.208,0,0,1-.229.07l0-.075-.454-.01,0,.076-.227-.005c0,.025,0,.05,0,.076a1.926,1.926,0,0,0-.155.148l-.151,0-.079.15-.151,0c-.133.09-.2.27-.387.37,0,.43.011.327.215.535l.072.153.151,0,0,.076.151,0,0,.075a5.31,5.31,0,0,1,1.511.109q-.013.567-.025,1.135l-.153.072,0,.152-.076,0c0,.05,0,.1,0,.151l-.076,0q-.008.378-.017.756l-.076,0c-.11.217-.211.313-.314.523.144.134.061.182.144.306l.076,0,.072.153.151,0,.294.385.151,0,0,.076.455-.065c0-.025,0-.051,0-.076l.227.005,0-.075.151,0,.234-.3h.075l0-.151.153-.073,0-.151.076,0q.008-.34.015-.681l.076,0,.01-.454.076,0,0-.151.153-.073a4.511,4.511,0,0,0,.027-1.21Z" transform="translate(-165.624 -140.503)"/>
    </g>
  </g>
</svg>
