<svg xmlns="http://www.w3.org/2000/svg" xmlns:xlink="http://www.w3.org/1999/xlink" width="117.54" height="257" viewBox="0 0 117.54 257">
  <defs>
    <style>
      .cls-1 {
        fill: #fff;
        stroke: #707070;
      }

      .cls-2 {
        clip-path: url(#clip-path);
      }

      .cls-3 {
        fill: #26333b;
        fill-rule: evenodd;
      }
            @keyframes ani02 {
        0% {
          transform: translate(-1550.755px, -163.825px);
        }
        50% {
          transform: translate(-1550.755px, -149.825px);
        }
        100% {
          transform: translate(-1550.755px, -163.825px);
        }
      }
      #kbaloon {
        animation: ani02 2s ease-in-out infinite;
      }
    </style>
    <clipPath id="clip-path">
      <rect id="長方形_1890" data-name="長方形 1890" class="cls-1" width="117.54" height="257" transform="translate(1550.755 163.825)"/>
    </clipPath>
  </defs>
  <g id="kbaloon" data-name="マスクグループ 47" class="cls-2" transform="translate(-1550.755 -163.825)">
    <g id="風船" transform="translate(1550.755 163.825)">
      <g id="グループ_5422" data-name="グループ 5422" transform="translate(0)">
        <path id="パス_28411" data-name="パス 28411" class="cls-3" d="M2453.168-210.463l-.2-.81h-.2l-.2-1.418h-.2l-.608-.81a4.423,4.423,0,0,0-2.836.608l-.2.4h-.608l-.405.608h-.405v.2h-1.013v.2h-.608l-.2.405h-.405l-.405.608h-.608v.2h-.608v.2l-.81.2v.2h-.405l-.405.608h-.2l-.2.608h-.405l-.405.608h-.405l-.405.608h-.405l-.608.81-1.013.2-1.215,1.418-.608.2-.405.608h-.405v.2h-.405v.2l-2.228-.2s-.037.168-.405.2h-1.215a4.451,4.451,0,0,0-2.026,2.026h-3.444v.2h-.811c-.418-.072-.586-.554-1.215-.405v.2h-.608v.2l-2.228-.2v.2h-.405v.2h-1.013v.2h-.81v.2h-.607v.2H2416.5v.2h-.405v.2h-1.013v.2h-.405v.2h-.608l-.405.608h-.607v.2l-.81.2c0,.518-.225,1.7-.2,1.823h.2v.81h.2v.608h.2l.2,1.621h.2v.405h.2v.405l.405.2.405,1.215h.2v.4h.2c.174.491-.211,1.32-.2,1.418h.2v.608l.405.2q.2.911.405,1.823l.405.2.2.405h.405v.2h1.013v-.2l.81-.2,1.013-1.215.608-.2v-.405l.608-.405v-.405l.405-.405h.405l.2-.405h.405l.405-.608,1.013-.2v-.2l.608-.2c.227-.876.911-1.06,1.418-1.621l.2-.608,1.013-.608c.864-.794.8-1.672,2.431-1.823q-.1.608-.2,1.215h-.2v1.013h-.2v.405h-.2v.81h-.2v.608h-.2l-.2,1.621h-.2v.4h-.2v1.013l-.405.2v.405h-.2v.405h-.2v1.215h-.2v.608l-.405.2v.405h-.2l.2.81h-.2v.81h-.2l-.2.81h-.2v.81h-.2l-.2.81-.81.608-.2,2.431h-.2v.608h-.2v.4h-.2v1.621h-.2v.405l-.405.2v.405h-.2v.81h-.2v.608h-.2v.608h-.2v.608h-.2v.608h-.2l-.2,1.215h-.2c-.017,1.89.184,1.38.81,2.431h1.823v.2h.405v.2h1.621v.2c1.322.375,3.151-.444,3.849-.81l.405-1.418h.2q-.1-1.62-.2-3.241h.2v-1.621h.2l-.2-1.621h.2v-1.215h.2v-.81h.2v-2.431l.405-.2-.2-1.013h.2v-2.431h.2v-.405h.2v-.81h.2v-3.646h.2v-1.418h.2v-1.418h.2v-.405h.2v-1.013h.2v-.4h.2v-1.013h.2c.168-.679.513-.888,1.215-1.013.23-.227,0-.087.405-.2l.608.81h.2c.271.42-.011.871.2,1.418h.2q.1.4.2.81l.4.2v.405h.2v.608h.2l.2.81h.2v.608h.2l.405,1.215h.2v.405h.2v.608l.405.2.2.608h.2l.608,1.823.405.2v.608h.2l.2.81h.2l.608,1.823h.2v.405h.2v.608h.2v.405l.405.2v.405l.405.2v.81l.607.405.608,1.823.405.2v.405h.2q.2,1.114.405,2.228h.2a1.707,1.707,0,0,1,.405.81c1.328-.007,1.393.114,2.026-.608h.2V-174l.405-.405h.405l.2-.405h.405v-.2l.81-.608v-.405l.405-.405h.405l.2-.405c.587,0,.658-.077.666-.695a9.893,9.893,0,0,0-.1-1.329,1.285,1.285,0,0,0-.111-.446c-.131-.248-.422-.408-.475-.684-.024-.127.007-.258-.014-.386a3.389,3.389,0,0,0-.159-.414,4.441,4.441,0,0,1-.058-.592,5.84,5.84,0,0,0-.487-1.123c-.166-.419-.171-.612-.675-.612-.6-.438-.188-.939-1.215-1.215a3.1,3.1,0,0,0-.81-1.621h-.405l-.2-.405h-.2l-.608-2.026-1.418-1.215V-190l-.405-.2-.2-.81-.811-.608v-.405l-.405-.2-.405-1.823-.81-.405-.2-.81-1.621-1.418v-.405l-.608-.2-.405-1.215,1.013-.2v-.2h3.849v-.2h.405v-.2h2.228v-.2h.405v-.2l2.025.2v.2a5.707,5.707,0,0,0,2.633-.405,4.969,4.969,0,0,1,2.229.2,4.008,4.008,0,0,1,1.215-1.418q-.1-1.62-.2-3.241h-.2c-.236-.88.387-1.42,0-2.431h-.2v-.405h-.2c-.193-.546.231-1.9.2-2.025h-.2v-.405h-.2v-.608h-.2v-.405Zm-26.987,13.031-.064.022c-.328.123-.247.184-.45.506-.259.412-.785.456-1.061.823l-.608.81c-.617.421-.734.037-1.215.81h-.405c-.2.781-.738.94-1.216,1.418l-1.215,1.418h-.406l-.2.4-1.216.405v.2a1.431,1.431,0,0,1-1.013.405l-.2-1.215-.405-.2v-.608h-.2q-.1-.911-.2-1.823h-.2v-.405l-.405-.2-.2-2.633h.2c.4-1.251.812-.215,1.823-.608v-.2h.405l.405-.608h1.216v-.2h.81v-.2h1.621v-.2l.81.2v.2c.484.151.786-.234,1.013-.2,0,.067,0,.135,0,.2a6.682,6.682,0,0,0,2.277,0,7.221,7.221,0,0,1,.851-.207,6.086,6.086,0,0,0,1.742-.222.19.19,0,0,1,.1-.018.126.126,0,0,1,.086.146.341.341,0,0,1-.092.161,3.04,3.04,0,0,1-.639.558,4.242,4.242,0,0,0-.531.359,4.781,4.781,0,0,1-.458.446A2.484,2.484,0,0,1,2426.181-197.432Zm2.315,11.868c0,.405-.041.625-.041,1.03h-.2v1.013h-.2v1.215h-.2l.2,1.013h-.2v.405h-.2v1.418h-.2v1.621h-.2q.1,1.215.2,2.431h-.2v.405h-.2q-.1,2.127-.2,4.254h.2c-.079.654-.184.592-.405,1.013l-2.633.2v-.2h-.607v-.2h-.2a2.572,2.572,0,0,1,.2-1.013h.405l-.2-1.013h.2v-.4h.2v-1.013h.2V-174h.2v-.608h.2v-1.013h.2v-.405h.2v-.608h.2v-1.215l.405-.2v-.405h.2v-.81h.2v-.405l.405-.2v-.405h.2q.1-1.013.2-2.026h.2v-.405h.2l.2-1.215h.2v-.405h.2v-.608c.068,0,.106-.364.174-.364,0-.405.095-.52.095-.925.067,0,.193-.925.261-.925,0-.067.746-3.444.746-3.511.067,0,.361-.739.429-.739,0,.135-.725,3.735-.725,3.87.068,0-.233,1.139-.166,1.139Zm4.444-12.277a.763.763,0,0,1-.118.03c-.11.018-.223.007-.332.031-.09.019-.174.061-.262.087a.757.757,0,0,1-.821-.307,1.477,1.477,0,0,1-.178-.6l-.094-.636a1.072,1.072,0,0,1-.005-.433c.073-.276.346-.444.6-.583.3-.169.515-.161.593-.484a.936.936,0,0,0,.427-.168.889.889,0,0,0,.713.153,1.307,1.307,0,0,1,.393-.077.5.5,0,0,1,.377.281,1.435,1.435,0,0,1,.127.471,2.615,2.615,0,0,1-.055,1.367.611.611,0,0,1-.412.4C2433.543-198.243,2433.252-197.947,2432.94-197.841Zm6.048,4.191.405.2v.405h.2v.608l.608.4.2.81,1.013.81v.81h.2v.405l.811.608.2.608.608.405.2,1.013.81.608.2,1.013.405.2.2.81c1.234.342.355.4.81,1.215l1.62,1.215v.405l.405.2.2,1.013h.2v1.215h-.2l-1.215,1.62v.2h-.608a5.558,5.558,0,0,0-.81-1.621v-.405l-.405-.2-.2-1.013-.81-.608-.405-1.418-.405-.2-.406-2.228-.607-.2-1.013-3.038-.405-.2-.2-.81h-.2l-.2-.608-.405-.2v-.608h-.2v-.405h-.2l-.2-1.013h-.2v-.608h-.2v-.405h-.2c-.073,0-.347-1.12-.591-1.212a7.249,7.249,0,0,0-.92-2.278c-.049-.116-.067-.3.056-.322a5.553,5.553,0,0,1,1.223,1.519C2438.573-194.52,2438.732-194.051,2438.988-193.65Zm13.167-9.115-.2.81-.81.2v.2a.53.53,0,0,1-.607-.2h-.81v.2l-1.013-.2v.2c-.533.038-1.133-.708-2.026-.405v.2h-.405v.2h-2.431a4.408,4.408,0,0,1-2.229.405v-.2h-1.215v.2a10.618,10.618,0,0,1-3.646-.2l-.2-.2,1.621-1.418v-.405c.413-.519.718.022,1.013-1.013l.811-.2v-.2h.607l.81-1.013h.405l.405-.608h.405l.2-.405h.406l1.013-1.215h1.013l.608-.81.81-.2.2-.405h.608a6.326,6.326,0,0,0,2.431-1.418c.654.079.592.184,1.013.405a17.768,17.768,0,0,0,1.013,5.064v2.025h.2l.2.608Z" transform="translate(-2348.644 401.352)"/>
        <path id="パス_28412" data-name="パス 28412" class="cls-3" d="M2427.062-997.967l-.012.206,2.224.131c0,.068-.008.137-.012.206l.809.048-.012.206.607.036-.012.206.607.036-.012.206.8.253-.012.206c.9.4,2.336.012,3.045-.026a4.662,4.662,0,0,0,.155.834l-.2-.012q-.024.412-.047.823l-.2-.012-.475,1.21-.618.17c-.322.729-.382,1.7-.748,2.431l-.2-.012-.249.81-.2-.012q-.024.411-.047.822l-.2-.012c-.06,1.663.558,1.532,1.072,2.539l3.854.022-.012.205.809.048q-.028,2.267-.056,4.535l-.2-.012-.284,1.427c-.22,2.123-.036,4.807-.578,6.567q-.023.411-.047.822l.2.012q-.112,1.953-.223,3.906l-.2-.012q-.077,1.336-.153,2.672l-.2-.012q-.053.925-.106,1.85a6.626,6.626,0,0,0-.581,3.06l.2.012q-.029.514-.059,1.028l.2.012c.148.678-.338,1.292-.3,1.633l.2.012-.059,1.028.2.012-.379,3.072-.2-.012.167.629q-.135,2.364-.271,4.728-.04,2.473-.08,4.946l.167.629-.2-.012q-.024.411-.047.822l-.2-.012q.042,1.034.085,2.068l-.2-.012q-.082,1.439-.165,2.878a.559.559,0,0,0-.237.605l.2.012q-.154.919-.308,1.838l.167.629c-.035.276-.362.491-.261,1.016a14.213,14.213,0,0,1-.056,4.535l-.2-.012q-.07,1.233-.141,2.467c-.069.283-.226-.1-.214.194l.2.012q-.03.514-.059,1.028l.2.012-.308,1.838c.347,1.629-.421,4.037-.127,5.768l.2.012-.249.81q.025,1.342.05,2.685l-.25.811.2.012q-.023.411-.047.822l.2.012q-.036.617-.071,1.234l.2.012q-.035.617-.071,1.234l.2.012q-.082,1.439-.165,2.878l-.2-.012c-.063,1.1-.735,10.429-.8,11.526l-.2-.012q-.053.925-.106,1.85l-.2-.012-.024.411-.2-.012a2.671,2.671,0,0,0,.12,1.451l.2.012q-.088,1.542-.176,3.084l-.4-.024c.088.83-1.247,16.088-1.159,16.918l-.2-.012-.76,2.637.2.012.334,1.257.2.012c.266.918-.453,3.144-.628,3.882l.929,1.5a2.612,2.612,0,0,0,2.057-.5,57.193,57.193,0,0,0,.329-5.756l.32-2.044c-.052-.253,1.048-16.185,1.136-16.507.529-1.941.481-4.87.614-7.184.055-.959.72-10.155.774-11.115l.2.012q-.007-1.651-.014-3.3l.2-3.5-.2-.012.023-.411-.2-.012c-.056-.35.213-.352.226-.4q.064-1.131.129-2.262l-.2-.012q.03-.514.059-1.028l-.2-.012q.07-1.233.141-2.467l-.2-.012c-.213-1.007.579-1.99.534-2.237l-.393-.23q.088-1.542.176-3.084c.144-2.512-.029-5.9.661-8.006q.036-.617.071-1.233l-.2-.012a14.939,14.939,0,0,1,.473-4.717q.022-2.164.044-4.329a4.755,4.755,0,0,0,.32-2.044l-.2-.012q.137-.611.273-1.222-.037-1.136-.073-2.273.071-1.233.141-2.467a.526.526,0,0,0,.238-.6l-.2-.012-.155-.834.2.012q.018-.308.035-.617l.416-.182c.06-.194-.637-1.562-.263-2.491l.2.012q.012-.206.024-.411l.2.012a3.18,3.18,0,0,0-.108-1.657l-.2-.012.273-1.222c-.191-1,.153-2.639.021-3.918l-.2-.012c0-.069.008-.137.012-.206l.2.012.51-1.827.2.012c.149-.481-.329-2.006-.038-2.89l.2.012c.179-.556-.124-.984-.132-1.246l.249-.81a11.824,11.824,0,0,1,.033-4.124l.2.012q.16-1.022.32-2.044l-.2-.012q.053-.925.106-1.85l.2.012.272-1.221.2.012c.165-.631-.655-.862-.31-1.669l.416-.182q.024-.411.047-.822l-.2-.012a6.784,6.784,0,0,1,.39-3.278q.012-.205.024-.411c.244-.331,2.34-.061,2.854-.244l.012-.206.4.024.226-.4.4.024c.365-.232.553-.719,1.07-.968q-.071-.52-.143-1.04l-.2-.012.082-1.439-.2-.012-.334-1.258-.2-.012-.156-.834-.393-.229q-.077-.417-.155-.834l-.393-.229q-.066-.623-.132-1.246l-.2-.012c.086-1.026.219-.845.88-1.186l.012-.206.821-.158q.012-.206.024-.411l.2.012,1.082-1.174.4.024.654-.787.4.024,1.082-1.174.4.024,1.082-1.174.416-.182c.008-.137.016-.274.024-.411l.416-.182.023-.411,1.272-.956q.023-.411.047-.822l1.047-.557q.011-.206.023-.411l.844-.569q.012-.206.024-.411l.416-.182.238-.605.2.012.023-.411,1.058-.763q.012-.205.024-.411l1.046-.557.261-1.016.63-.375q.012-.205.024-.411l.416-.182.023-.411.416-.182.023-.411.2.012.273-1.222.2.012q.012-.205.024-.411l.416-.182.023-.411.2.012q.041-.72.082-1.439l.2.012.475-1.209.2.012q.012-.205.023-.411l.2.012.023-.411.2.012q.041-.719.082-1.439l.416-.182.083-1.439.2.012.035-.617.2.012.023-.411.2.012.343-2.455.2.012q.012-.206.024-.411l.2.012q.053-.925.106-1.85a4.65,4.65,0,0,0,.51-1.826l-.167-.629.2.012q.041-.72.082-1.439l-.2-.012q.166-1.124.332-2.25l-.2-.012q-.031-1.239-.061-2.479l-.2-.012.035-.617-.2-.012q.047-.823.094-1.645l-.773-.665.094-1.645-.2-.012.035-.617-.2-.012q-.066-.623-.132-1.246l-.393-.229q.041-.719.083-1.439l-.393-.229c.008-.137.016-.274.024-.411l-.2-.012q.03-.514.059-1.028l-.393-.229q.018-.308.035-.617l-.2-.012.023-.411-.2-.012.035-.617-.2-.012c-.069-.283.072-.025.214-.193l.011-.206-.2-.012q.018-.308.035-.617l-.393-.23q.011-.205.023-.411l-.393-.229.023-.411-.964-.882-.143-1.04-.774-.665-.155-.834-.583-.447c.008-.137.015-.274.023-.411l-.583-.447q.012-.206.023-.411l-.393-.229c-.341-.545.233-.344-.571-.653-.172-.869-.828-1.163-1.322-1.729l-1.691-2.369-1.19-.483-.179-.423c-.556-.382-.768.115-1.4-.289l-.369-.641-1.011-.06-.369-.641-.8-.253.011-.206-1.415-.083c0-.069.008-.137.011-.206l-.4-.024.011-.206-1.82-.108c-.326-.124-1.249-.633-1.8-.519l-.012.205-1.213-.072a3.684,3.684,0,0,0-1.808-.313l-.012.205-1.618-.1c0,.069-.008.137-.012.205l-2.224-.131-.012.206-.4-.024-.012.206-1.808-.313-.44.593-2.26.485q-.005.1-.011.206l-.821.158-.012.206-1.214-.072-.011.205-.4-.024-1.082,1.174-.821.158-.226.4-.4-.024-.654.786-.607-.036-.665.992a8.376,8.376,0,0,1-3.341,1.659l-.487,1.415a2.338,2.338,0,0,0-1.035.351q-.018.308-.035.617l-.2-.012-.44.593-.4-.024-.238.605-.2-.012-.023.411-.2-.012-.023.411-.63.375-.023.411-.428.387q-.012.206-.024.411l-.2-.012q-.012.205-.024.411l-.416.182q-.012.205-.024.411l-.2-.012-.713,1.814-.047.822-.416.182q-.018.308-.035.617l-.416.182-.023.411-.2-.012-.249.811-.2-.012-.07,1.233-.2-.012-.023.411-.2-.012q-.018.309-.035.617l-.416.182q-.094,1.644-.188,3.289l-.2-.012q-.018.308-.035.617l-.2-.012-.082,1.439-.2-.012q-.012.205-.023.411l-.416.182q-.19,1.536-.379,3.072l.2.012q-.029.514-.059,1.028l-.2-.012q-.07,1.233-.141,2.467l.2.012q-.018.308-.035.616l.2.012q-.082,1.439-.164,2.878l.2.012q-.023.411-.047.822l.2.012q-.018.309-.035.617l.2.012q.025,1.342.049,2.685l.2.012q-.012.206-.024.411l.2.012q-.035.616-.071,1.233l.393.23c-.008.137-.016.274-.024.411l.2.012q.131,1.245.263,2.491l.2.012-.023.411.774.664q-.018.309-.035.617l.2.012-.023.411.393.229-.023.411.2.012.489,2.092,1.154,1.1.287,2.08.2.012-.023.411.583.447q-.012.205-.024.411l1.155,1.1-.012.205.4.024a5.74,5.74,0,0,0,.727,1.487l.334,1.257.2.012c.147.368-.1.6.155.834l1.19.483.167.629.2.012c.3.382.208.476.774.664.1.418-.038.175.179.423.355.367,1.175.212,1.594.507l.178.423.4.024.381.435q-.011.205-.023.411l.393.23c0,.069-.008.137-.012.206l1.225-.134.179.423.4.024-.012.206Zm-.442-2.914-.56-.858-.4-.024.012-.205-1.011-.06.012-.206-.4-.024-.179-.423-.4-.024.012-.205-.4-.024.012-.206-.607-.036c-.24-.181-.192-.794-.346-1.052l-.964-.882-.167-.629-.393-.229.023-.411-.2-.012.023-.411-.2-.012.047-.822-1.166-.894a8.026,8.026,0,0,1-1.119-1.717q.011-.206.023-.411l-.583-.447q-.066-.623-.132-1.246c-.4-.148-.176.018-.393-.229l-.2-.012.261-1.016-.774-.665q.012-.205.024-.411l-.393-.23.035-.617-.393-.23.023-.411-.2-.012q-.077-.417-.155-.834l-.2-.012q.023-.411.047-.822l-.2-.012.023-.411-.2-.012q.011-.206.023-.411l-.2-.012q.012-.205.024-.411l-.2-.012q-.167-.629-.334-1.257l-.2-.012q.035-.617.071-1.234l-.2-.012q.023-.411.047-.822l-.2-.012-.155-.835-.2-.012q.047-.822.094-1.645l-.2-.012q.059-1.028.118-2.056l-.393-.229q-.031-1.239-.061-2.479c.014-.051.271-.049.226-.4l-.2-.012q.036-.617.071-1.234l-.2-.012c-.268-1.191.6-3.918.877-4.693l.308-1.838.2.012.023-.411.2.012q-.06-.726-.12-1.451l.416-.182q.024-.411.047-.822l.2.012q.012-.206.023-.411l.2.012.083-1.439.2.012.035-.617.2.012q.012-.205.024-.411l.2.012.273-1.222.2.012q.011-.205.023-.411l.2.012.023-.411.416-.182c.008-.137.016-.274.023-.411l.2.012q.023-.411.047-.822l.2.012q.018-.309.035-.617l.416-.182q.024-.412.047-.822l.2.012.475-1.21.2.012q.012-.205.023-.411l.619-.169.475-1.21a5.887,5.887,0,0,0,1.879-.92q.017-.309.035-.617l.2.012.237-.6c.755-.644,1.092.307,1.486-1.15.814-.178,1.034-.762,1.879-.921q.012-.205.024-.411a3.655,3.655,0,0,0,1.474-.944l.012-.206.4.024.226-.4.4.024.868-.98.607.036.012-.206.821-.158q.006-.1.012-.205l.606.036.012-.206,1.237-.339.012-.206.809.048.012-.206.607.036.012-.206,1.618.1c0-.068.008-.137.012-.205l.607.036.012-.206,1.416.084.012-.206,3.652.009-.012.206,2.427.144-.012.206,2.224.131-.012.205,1.19.483c0,.068-.008.137-.012.206l1.225-.134-.012.206.8.253-.012.206.607.036-.012.205.4.024.179.423.8.253.179.423.4.024.179.423.4.024.179.423.2.012q-.018.308-.035.616l.393.229-.012.206.4.024.381.435q-.012.205-.024.411l.785.459c-.008.137-.016.274-.024.411l.774.665-.023.411,1.345,1.317.334,1.257.774.665q-.012.205-.024.411l.2.012c.33.827-.3.881.738,1.281l.633,3.132.393.229.155.834.2.012q.077.417.155.834l.2.012q.048.931.1,1.862l.2.012-.023.411.393.229q-.012.206-.024.411l.2.012q-.041.719-.082,1.439l.393.229q-.035.617-.071,1.234l.2.012q-.018.308-.035.617l.2.012q-.018.308-.035.617l.2.012c.154.632-.367,1.09-.284,1.427l.393.229q-.118,2.056-.235,4.112l.2.012-.047.822-.2-.012c-.015.2.33.738.132,1.245l-.2-.012-.023.411-.2-.012a.563.563,0,0,0,.167.629l-.308,1.839-.416.182c-.008.137-.016.274-.023.411l-.2-.012-.639,4.088-.417.182-.059,1.028-.416.182c-.008.137-.016.274-.023.411l-.2-.012q-.023.411-.047.822l-.2-.012q-.012.206-.024.411l-.2-.012q-.023.411-.047.823l-.2-.012-.25.81-.2-.012q-.024.412-.047.823l-.2-.012q-.018.308-.035.617l-.2-.012q-.018.309-.035.617l-1.331,1.984-.4-.024c-.3.9-.817.688-1.105,1.585l-.821.158-.07,1.233-1.486,1.15q-.012.206-.024.411l-.416.182q-.012.206-.024.411l-.416.182-.023.411-1.058.763-.249.81-1.058.763-.012.205-.607-.036-.226.4-.2-.012q-.012.205-.024.411l-1.058.763q-.012.205-.024.411l-1.879.921-.439.593-.4-.024-.012.206-.63.375-.226.4-.607-.036-.44.593-.809-.048-.44.593-.607-.036c-.06.029-.213.288-.428.387q-.053.925-.106,1.85l.393.229-.023.411.2.012q-.012.205-.024.411l.393.23-.047.822.393.229.155.834.583.447q-.012.206-.024.411l.2.012c.294.623.262,1.236.715,1.693l-.238.6c-.829-.163-1.023-1.009-1.987-.736,0,.069-.008.137-.012.206l-.4-.024-.226.4c-.669.251-3.942-.349-4.437-.469l.023-.411.416-.182q.036-.617.071-1.234l.844-.569.059-1.028.2.012.249-.81.2.012.25-.81.416-.182c.252-.376,0-.993.284-1.427l.2.012c.063-.889.167-1.667-.287-2.08-.34-.309-.209.191-.583-.447l-2.237.074-.011.206c-.965.227-2.428-.581-3-.8l-1.213-.072.012-.206-.4-.024.012-.206-2.225-.132.012-.206-.4-.024.012-.206-.607-.036.012-.206-.4-.024.012-.206Z" transform="translate(-2347.204 1063.472)"/>
        <path id="パス_28413" data-name="パス 28413" class="cls-3" d="M2202.563-703.6l-.188.077-.151-.382-.188.077-.6-1.529.188-.076-1.282-3.249.188-.077-1.395-2.982-2.187-5.543-.188.077-.377-.956-.188.077-.377-.956-.188.077-.566-1.988-.188.077-.528-1.338-.188.077-.453-1.147-.188.077-.642-2.179c-1.619-2.166-2.516-6.132-4.146-8.294-.438-.581-.222-1.455-.491-1.8l-.451-.038c-.458-.5-.089-1.035-.34-1.415l-.188.077-.226-.573-.188.077-.151-.382-.188.077-.679-1.72-.188.077-.452-1.147-.188.077-.151-.382-.188.077-1.282-3.249-.188.077-.377-.956-.188.077-.377-.956-.188.077-.377-.956-.188.077-.528-1.338-.188.077-.189-1.032-.188.077-.3-.764c-.008-.043.229-.169.037-.459l-.188.077-.565-.879-.188.076a.341.341,0,0,1,.037-.459l-1.168-2.408-.188.077-.3-.765-.188.077-.98-2.485-.188.077-.226-.574-.188.077-.151-.382-.188.077-.452-1.147-.188.076c-.407-.546-.165-.971-.34-1.414s-.613-.577-.716-1.261a.554.554,0,0,0-.038-.65l-.188.077-.453-1.147-.188.077-1.056-2.676a17.37,17.37,0,0,1-2.866-7.263l-1.584-4.014.188-.077-.3-.765.188-.077-.377-.956.188-.077-.151-.382.188-.077-.6-1.529.188-.077-.3-.764.188-.077-.64-1.07.188-.077-.265-1.223.677-.5.076.191,2.068-.844a12.638,12.638,0,0,0,1.427-1.914,4.213,4.213,0,0,0-1.167-1.3l-.188.077-.34-1.415-.188.077-.151-.382-.715-.152-.565-.879-.188.077-.151-.382-.451-.038-.49-.688-.978-.267-.227-.573-.188.077-.3-.765.489-.421c.012-.153.025-.306.037-.459l.677-.5.375-1.262.376-.153.975-3.061,1.165-.919-.075-.191.526-.88-.151-.382.413-.612q.018-.23.037-.459l.376-.153.6-1.8.376-.153a2.527,2.527,0,0,1,.187-1.186l.188-.077q-.095-.516-.189-1.032l.188-.077q-.057-.42-.114-.841a5.5,5.5,0,0,0,.224-1.645l.376-.153q-.038-.65-.076-1.3l.3-.344-.226-.574.3-.344-.226-.573.188-.077-.151-.382.188-.076-.151-.383.3-.344-.377-.956.188-.077-.114-.841.188-.077-.227-.573.3-.345-.226-.573.413-.612-.226-.573.3-.344-.3-.765.188-.077-.226-.573.188-.077-.528-1.338.188-.077-.226-.573.188-.077-.226-.573.188-.077-.83-2.1.188-.077-.566-1.988.188-.077-.716-1.261.188-.077-.151-.382.188-.077-1.358-3.44.188-.077-.114-.841.188-.077-1.621-3.555-.188.077-.642-2.179-.188.077-.3-.764-.188.076-.6-1.529-.188.077-.828-.994-.188.077-.528-1.338-.188.077-.151-.382-.451-.038-.3-.765-.451-.038-.226-.573-.188.077-.151-.382-.188.077-.3-.765-.188.077-.226-.573-.188.077-.151-.382-.188.077-.377-.956-.188.077-.151-.382-.188.077-.3-.765-.188.077-.151-.382-.451-.038-.151-.382a2.7,2.7,0,0,1-1.318-1.681c-1.073.273-.815-.056-1.505-.5l-1.242-.381-.151-.382-.451-.038-.151-.382-.715-.152-.075-.191-.376.153-1.919-.992-.376.153-.6-.42-.376.153-.339-.305-.564.23-.339-.306-.376.153-.075-.191-.376.153-.076-.191-.564.23-.339-.306-.376.154-.075-.191-.752.307-.339-.305-.376.153-.075-.191-.376.154-.075-.191-.94.383-.076-.191-.752.307-.075-.191-.376.153-.075-.191-2.444,1,.075.191-.752.307-.075-.191a13.205,13.205,0,0,0-4.249,1.955l-1.316.537.075.191-.564.23.075.191c-.523.429-1.3.24-1.579.422l.075.191-.94.383.075.191-1.8.958.075.191-.376.153.075.191-.188.077-.075-.191-.752.307-.075-.191a4.2,4.2,0,0,1-.677.5c.138,1.082-.366.8-.939,1.492l.075.191-.376.153.075.191-.376.154-.225.535-.677.5q-.018.23-.037.459l-.865.575.3.765c-1.181,1.23-1.1,1.95-1.463,3.482l-.413.612.151.382-.413.612q.038.65.076,1.3l-.489.421-.149.727-.188.077.377.956-.188.076.151.382-.3.344.265,1.224-.188.077.226.573-.188.077a1.765,1.765,0,0,0,.152,1.491l-.489.421.528,1.338-.3.345.189,1.032-.188.077,2.112,5.352-.188.077.6,1.529-.188.077.075.191.188-.077.565.879-.188.077q.132.612.264,1.224l-.188.077,1.169,2.408.151.382-.188.077c.092.409.339.306.339.306l.754,1.911.188-.077.415,1.606.188-.076.226.573.188-.077.528,1.338-.188.077c.079.344.3.254.339.305l.377.956.188-.076,1.131,2.867.188-.077.49.688.188-.077c.318.376.059.526.038.65l.414.5.188-.077.377.956.188-.077.151.382.715.152,1.055,1.567,1.242.381.151.382.188-.077.151.382.452.038.565.879c.5.419,1.1.512,1.543,1.146l.376-.154.075.191.978.267.226.573.451.038.151.382.715.152.151.382.451.038.151.382.978.267.226.574,2.032.724.151.382.527.229.376-.153.339.305.376-.154.866.535.451.038.414.5.376-.154.527.229.376-.154.076.191.376-.153.075.191.376-.153.339.306.376-.154.866.535,2.106-.194.6.42.639-.039.076.191.376-.153.075.191.376-.154.076.191.564-.23,1.693.419a8.361,8.361,0,0,1-.073,2.027l-.188.077.453,1.147-.413.612.151.382-.188.077.453,1.147-.3.344.151.382-.188.077c-.013.14.1,1.212.34,1.415l.188-.077c.58.758.463.315,1.241.381l.075.191.564-.23.075.191.564-.23.339.306c.4-.033.579-.571.789-.766l.075.191a6.99,6.99,0,0,1,2.144-.652c.218.358.675.64.716,1.261l-.188.077.151.382-.188.077c.044.689.622.8.716,1.261l-.188.077.3.764-.188.077.377.956-.188.077.226.574-.188.076.453,1.147-.188.077.6,1.529c.178,1.677,1.4,3.96,2.075,5.811l.68,2.829.188-.077.3.765.188-.076.377.955.188-.077.377.956.188-.076,1.282,3.249-.188.077.792,1.452c.008.04-.235.172-.037.459l.188-.077.565.879.188-.076.679,1.72.188-.077.867,1.643.188-.077c.244.4-.1.887.34,1.415l.188-.077.151.382.188-.077,1.772,3.937a.544.544,0,0,0,.038.65l.188-.077.3.765.188-.077,1.168,2.408.188-.076.528,1.338.188-.077.151.382.188-.077,1.131,2.867.188-.077.151.382.188-.077.83,2.1.188-.077.151.383.188-.077.528,1.338.188-.077.679,1.72.188-.077.905,2.294.188-.076.453,1.147.188-.077.905,2.293.188-.077.717,2.37.188-.077.6,1.529.188-.077.075.191-.188.077,1.132,2.867.188-.077.226.573.188-.076.151.382.188-.077,2.414,6.116.188-.077.226.573.188-.077.905,2.293-.188.077.075.191.188-.077.226.573.188-.077c.738.911.332,1.383.981,2.485.147.25.179-.164.263.115l-.188.077.226.573-.188.077,1.056,2.676.188-.077.3.764-.188.077,1.961,4.97a13.372,13.372,0,0,0,1.2.84c.845-.377.805-.6,1.353-1C2203.014-701.7,2203.235-702.809,2202.563-703.6Zm-40.07-82.178.075.191a3.894,3.894,0,0,1-2.67.424l-.529-2.447.3-.345q-.019-.325-.038-.65l.188-.077-.3-.764.188-.077-.151-.382.188-.077-.151-.382.3-.345-.226-.573.188-.077c0-.329-.111-.577-.114-.841a3.674,3.674,0,0,1-.79-.343l-.94.383-.075-.191-.827.116-.6-.42-.827.115-.941-.725-.376.153-.075-.191-.564.23-.075-.191-1.279.078-.075-.191-.376.153-.075-.191-.376.154-.075-.191-.564.23-.6-.42-.639.039-.151-.383-1.2.269-1.393-.763-.376.153-2.183-1.107-.978-.267-.151-.382-.715-.152-.565-.879-1.769-.61-.151-.382-.452-.038-.226-.573-1.166-.19-.829-.993-.978-.267-.151-.382-.188.077-.226-.574-.451-.038-.151-.382-.715-.152-.151-.382-.188.076-.151-.382-.188.077-.226-.574-.715-.152-.565-.879-.188.077-.829-.994-.188.077-.754-1.911-.188.076-.151-.382-.188.077-.452-1.147-.451-.038-.189-1.032-.188.077-1.433-3.632-.188.077-1.546-3.364.188-.077-.075-.191c-.133-.43-.8-.748-.792-1.452l.3-.345-1.886-4.778c-.248-.634-.345-1.49-.491-1.8-.116-.244-.515-.35-.565-.879l.188-.077-.226-.573.188-.077-.151-.382.188-.077-.3-.765.188-.077-.452-1.147.188-.076-.3-.765.188-.077-.226-.574.188-.077-.226-.573.3-.345-.226-.573.188-.077c.088-.409.009-.313.413-.612q-.057-.975-.115-1.95l.3-.344q-.038-.65-.076-1.3l.3-.345-.264-1.223.188-.077a3.114,3.114,0,0,0,.3-1.454,4.789,4.789,0,0,0,1.577-2.64l1.052-.651c-.141-1.2.875-1.823,1.051-2.869a5.686,5.686,0,0,0,1.353-1l2.068-.844-.075-.191.94-.383-.075-.191.752-.307.075.191,1.428-.8-.075-.191.376-.154-.076-.191.376-.153-.075-.191,2.407-.538-.075-.191a22.308,22.308,0,0,1,5-2.261l.075.191,1.015-.192.339.306.94-.383.075.191.564-.23.075.191.564-.23.6.42.752-.307.339.305.564-.23.339.306.376-.154.339.306.376-.153.075.191.376-.154.075.191.715.152.075.191.075.191.188-.077.151.382c1.1-.137,1.6.621,2.6.494l.377.956.451.038.226.573.978.267.075.191.715.152.151.382.188-.076.151.382.188-.077.226.574.451.038.565.879.451.038.49.688.188-.077.528,1.338.188-.076.151.382.188-.077.226.573.188-.077.828.993.188-.076.377.955.451.038.453,1.147.188-.077.151.382.188-.076.716,1.261.188-.077,1.358,3.44-.188.076a.542.542,0,0,0,.414.5l1.433,3.632-.188.077.227.573-.188.077,1.433,3.631-.188.077.151.382-.188.077.641,1.07-.188.077.114.841-.188.077.943,2.943-.413.612.528,1.338-.3.345c0,.5.419.437.49.688l-.188.077.226.573-.3.344.151.382-.3.345.567,1.988-.526.88.151.382-.3.344.264,1.224-.188.077.151.382-.3.344.151.382-.3.344.226.574-.188.076.151.382-.413.612.151.382-.3.344q.057.421.114.841l-.3.345.151.382-.413.612-.6,1.8-.376.153q.019.325.038.65l-.751,1.416c-.012.153-.025.306-.037.459-.457.721-.924.851-1.051,1.76l-.376.153c.081.87-.028.291-.338.8l-.15.727-.752.307.075.191-.376.153q-.019.23-.037.459c-.339.536-.407-.067-.338.8l-.489.421.075.191-.376.153q-.019.23-.037.459l-.677.5.075.191-.94.383c-.213.195.1.075-.113.268l.6,1.529.188-.077.151.382.188-.077.226.573.978.267.49.688.188-.077.3.765.188-.077.151.383.188-.077.151.382.451.038.226.573.9.075c.316.194.187.439.677.611q.019.325.038.65l-1.2.269.075.191-1.692.69C2163.315-785.918,2162.8-786.138,2162.494-785.774Z" transform="translate(-2118.928 901.12)"/>
        <path id="パス_28414" data-name="パス 28414" class="cls-3" d="M2504.715-135.633c-.649-.03-1.3-.043-1.964-.035-.224,0-.452,0-.68,0,0,.134.007.269.011.4h-.2q.008.262.015.523h-.2a4.258,4.258,0,0,0,.254,1.83h.2q.055,1.96.11,3.921h-.406c.165,1.045.247,20.481.412,21.526h-.2q-.256,1.7-.513,3.4h.2l.45,1.568h.2c.35,1.143-.16,4.019-.266,4.967L2503.2-95.7c1.357-.009,1.214-.212,2.006-.785.188-1.815-.18-4.776-.205-7.32q.064-1.307.129-2.614c-.076-.317-.455-20.589-.4-21A53.562,53.562,0,0,0,2504.715-135.633Z" transform="translate(-2418.787 339.701)"/>
        <path id="パス_28415" data-name="パス 28415" class="cls-3" d="M2520.543-99.672l-.11-.4-.2.056-.439-1.586.2-.056-.932-3.37.2-.056-1.073-3.116-1.59-5.749-.195.056-.274-.991-.2.056-.274-.991-.2.056-.353-2.038-.2.056-.384-1.388-.2.056-.329-1.189-.195.056q-.2-1.118-.408-2.236c-1.381-2.329-1.855-6.371-3.248-8.7a1.363,1.363,0,0,1-.167-.471q-1.093.47-2.23.934l.276,1,.2-.056.658,2.379.2-.056.463,2.435.2-.056.438,1.586.2-.056.055.2-.2.056.823,2.974.2-.056.164.595.2-.056.11.4.2-.056,1.755,6.344.195-.056.165.595.195-.056.658,2.379-.2.056.055.2.2-.056.164.595.2-.056c.637.986.184,1.411.713,2.577.12.264.2-.144.25.143l-.2.056.164.595-.195.056.768,2.775.2-.056.219.793-.2.056,1.426,5.155a13.463,13.463,0,0,0,1.109.966c.88-.282.864-.506,1.45-.842-.02-.555.316-1.635-.268-2.49Z" transform="translate(-2423.652 336.538)"/>
      </g>
    </g>
  </g>
</svg>
