<svg xmlns="http://www.w3.org/2000/svg" width="574.867" height="201.085" viewBox="0 0 574.867 201.085">
  <path id="パス_28222" data-name="パス 28222" d="M481.411,1873.478a1.386,1.386,0,0,1-1.331-1.772c.608-2.1,2.459-4.616,4.6-7.531,3.546-4.822,7.958-10.822,6.934-15.744-.486-2.339-2.149-4.32-5.08-6.053-12.634-3.888-22.76-4.216-41.08-4.81-4.032-.13-8.6-.278-13.629-.48-33.747-1.353-59.282-5.724-80.36-13.752-26.768-10.2-45.073-26.886-48.963-44.644-4.449-20.312,12.127-41.142,37.738-47.422a1.386,1.386,0,1,1,.66,2.692c-24.138,5.918-39.815,25.306-35.69,44.137,3.689,16.842,21.35,32.784,47.242,42.646,20.79,7.919,46.046,12.231,79.484,13.573,5.018.2,9.581.349,13.608.479,18.635.6,28.9.936,41.962,4.979a1.4,1.4,0,0,1,.287.125c3.682,2.141,5.88,4.819,6.534,7.964,1.276,6.132-3.542,12.685-7.415,17.951-.4.543-.793,1.08-1.172,1.6,29.749-17.081,129.086-35.007,157.874-36.72,21.638-1.288,43.664-.229,64.965.8,10.543.507,21.446,1.031,32.159,1.263,40.521.89,70.123-3.251,93.185-13,17.716-7.487,31.388-19.623,36.572-32.464,3.022-7.487,3.066-14.769.13-21.646-7.059-16.531-35.328-33.254-75.7-33.254h-.091a1.386,1.386,0,0,1-.11-2.768c13.081-1.038,25.475-7.41,31.573-16.234,3.526-5.1,4.619-10.461,3.16-15.493-4.205-14.5-29.156-24.783-50.381-20.752a1.385,1.385,0,1,1-.517-2.722c22.888-4.348,48.916,6.686,53.56,22.7,1.7,5.859.475,12.029-3.542,17.841-4.763,6.892-12.72,12.271-22.026,15.181,28.42,2.542,58.014,14.249,66.624,34.411a30.4,30.4,0,0,1-.109,23.771c-5.453,13.509-19.682,26.212-38.063,33.979-23.435,9.9-53.413,14.108-94.324,13.216-10.751-.234-21.672-.76-32.234-1.267-21.226-1.021-43.179-2.076-64.666-.8-34.018,2.025-142.683,23.107-161.453,39.664A1.385,1.385,0,0,1,481.411,1873.478Z" transform="translate(-301.222 -1672.893)" fill="#fff" stroke="#fff" stroke-width="1"/>
</svg>
