<svg xmlns="http://www.w3.org/2000/svg" width="93.446" height="184.871" viewBox="0 0 93.446 184.871">
  <defs>
    <style>
      .cls-1 {
        fill: #26333b;
      }
    </style>
  </defs>
  <g id="イラストL" transform="translate(-329.58 -3163)">
    <g id="キラキラ-2" transform="translate(-38.253 3030.638)">
      <g id="グループ_5190-2" data-name="グループ 5190-2">
        <path id="パス_28752-2" data-name="パス 28752-2" class="cls-1" d="M411.076,268.437l-1.2-.91.128-1.5-.436-1.444.989-1.142.49-1.421,1.469-.343,1.24-.865,1.388.588,1.506.029.779,1.293,1.2.908-.129,1.5.437,1.443-.989,1.143-.495,1.424-1.466.344-1.24.864-1.386-.591-1.507-.029Zm4.886-4.846-1-.151-.631-.792-.9.467-.975-.271-.448.9-.948.354.166,1-.558.844.721.71.046,1.012,1,.15.631.792.9-.468.977.27.451-.907.948-.353-.173-1,.559-.843-.719-.707Z"/>
      </g>
      <g id="グループ_5195-2" data-name="グループ 5195-2">
        <path id="パス_28757-2" data-name="パス 28757-2" class="cls-1" d="M386.267,199.58l-.638.745-.972-.018-.286.931-.916.328.186.937-.693,1.432.382,1.55-.638,1.47.409,1.553-.62,1.468.4.6-.692.18-.017.716-.666-.259-.436.561-.376-.6-.689.188.059-.713-.669-.253.462-.55-.473-1.526.562-1.494-.484-1.526.546-1.507-.524-1.5.3-.918-.861-.472-.163-.97-.973-.066-.624-.757-1.543.363-1.467-.625-1.527.434-1.479-.6-1.515.45-.416-.611-.712.187.019-.736-.687-.265.459-.586-.389-.626.711-.192.058-.734.689.261.475-.563,1.467.6,1.518-.451,1.481.574,1.511-.487,1.517.48.634-.727.962-.017.222-.949.908-.345-.074-.947.821-1.337-.358-1.561.621-1.478-.455-1.541.553-1.495-.408-.558.679-.158,0-.7.644.268.41-.559.353.6.669-.2-.078.69.659.23-.464.531.515,1.512-.526,1.509.515,1.509-.523,1.512.514,1.509-.3.857.842.421.081.936.927.175.454.841,1.633-.31,1.514.674,1.62-.382,1.538.644,1.607-.4.326.592L395,197.1l-.077.675.652.2-.461.5.407.544-.67.121,0,.679-.613-.294-.386.556-1.5-.548-1.515.5-1.515-.529-1.513.532Z"/>
      </g>
      <g id="グループ_5196-2" data-name="グループ 5196-2">
        <path id="パス_28758-2" data-name="パス 28758-2" class="cls-1" d="M439.59,148.069l-.637.745-.972-.019-.287.931-.916.328.186.938-.693,1.431.383,1.55-.638,1.471.409,1.552-.62,1.468.4.6-.692.181-.018.715-.665-.259-.437.561-.375-.6-.69.187.059-.713-.668-.252.462-.551-.474-1.526.562-1.493-.483-1.527.546-1.506-.524-1.5.3-.918-.862-.473-.162-.969-.973-.066-.624-.757-1.544.363-1.466-.625-1.528.433-1.478-.6-1.516.449-.415-.611-.712.188.019-.736-.687-.265.459-.586-.389-.627.711-.192.057-.734.689.261.476-.562,1.467.6,1.517-.451,1.481.575,1.511-.488,1.517.48.635-.727.961-.017.222-.949.908-.346-.073-.947.82-1.336-.357-1.562.621-1.477-.455-1.541.553-1.5-.408-.558.679-.158,0-.7.645.267.409-.558.354.6.669-.2-.079.69.659.23-.464.53.516,1.513-.526,1.508.514,1.51-.523,1.511.514,1.51-.3.857.841.421.082.936.927.174.454.841,1.633-.31,1.514.674,1.619-.382,1.538.645,1.608-.4.326.592.641-.227-.077.676.652.2-.462.5.406.546-.669.12,0,.68-.613-.3-.386.556-1.5-.548-1.515.495-1.514-.528-1.514.531Z"/>
      </g>
      <g id="グループ_5197-2" data-name="グループ 5197-2">
        <path id="パス_28759-2" data-name="パス 28759-2" class="cls-1" d="M454.256,308l-.438.681-.794-.126-.132.792-.788.171.263.741-.645,1.054.417,1.169-.609,1.086.437,1.168-.594,1.087.425.473-.63.071.076.63-.55-.312-.312.55-.253-.58-.58.253.143-.617-.619-.137.473-.427-.488-1.14.551-1.112-.492-1.143.539-1.134-.523-1.112.346-.715-.758-.29-.024-.811-.806.053-.428-.691-1.163.413-1.075-.6-1.15.451-1.094-.579-1.137.467-.284-.584-.6.254.11-.637-.634-.146.467-.448-.418-.494.643-.077-.041-.645.567.315.342-.552,1.089.579,1.135-.471,1.1.561,1.138-.5,1.134.49.444-.667.788.1.072-.8.782-.178-.174-.764.743-.968-.4-1.177.594-1.1-.473-1.155.545-1.114-.431-.442.622-.056-.094-.614.535.319.294-.548.236.576.562-.263-.154.6.614.12-.476.413.517,1.13-.527,1.121.516,1.132-.524,1.137.515,1.12-.355.664.745.252-.041.783.783.035.286.744,1.238-.362,1.117.635,1.222-.414,1.138.613,1.209-.432.218.571.542-.285-.153.591.606.088-.474.387.43.435-.611.024.089.605-.51-.339-.273.545-1.118-.541-1.136.5-1.13-.525-1.138.529Z"/>
      </g>
    </g>
  </g>
</svg>
