<svg id="気球_イラスト" xmlns="http://www.w3.org/2000/svg" width="97.812" height="145.683" viewBox="0 0 97.812 145.683">
  <defs>
    <style>
      .cls-1 {
        fill: #26333b;
        fill-rule: evenodd;
      }
    </style>
  </defs>
  <path id="パス_27568" data-name="パス 27568" class="cls-1" d="M397.925,852.168c1.528.288,4.637-.461,6.613,1.129a.984.984,0,0,1,1.358.295.953.953,0,0,1,.094.189,1.131,1.131,0,0,0,.323-.484c3.834,1.454,6.022,5.38,7.419,8.871a.444.444,0,0,1-.484.323c.1.731.741.081.806.968-.131-.031-.161-.162-.323-.161,1.414,2.019.472,3.832,1.29,5-.941,1.983.472,4.881-.968,6.29.675.091-.154.591.161,1.29a.9.9,0,0,1-.645.161c.7.544-.6,2.1-.161,2.9-.131-.031-.161-.162-.323-.161-.378,2.1-1.944,4.394-2.419,6.936-.585-.587.015.834-.806.484a3.752,3.752,0,0,1-.162,1.613c-.084.194-.515.282-.645.484-.8,1.249-1.06,3.876-2.258,4.194.546,1.028-.9,1.316-.806,2.419-.625-.1-.664-.134-1.129.161.04.416.278-.221.645,0-.54.847-.667,3.1-2.418,3.226-.463,2.265-.039,5.124-1.613,6.613.157.452.429-.234.645.161-.581.309.617.993-.161.968.8.42.15,2.661.323,2.419,1.086,3.544-3.646,3.638-6.129,4.032-1.891-1.041-1.269-4.46-1.129-7.419-.924-1.215-.581-3.677-1.129-5.806-.071-.239-.207.064-.484,0a71.319,71.319,0,0,0-5.323-7.742v-.806c-1.936-1.933-2.226-3.858-3.549-6.936-.026-.189-.294-.136-.484-.161a13.562,13.562,0,0,0-.806-3.71,22.2,22.2,0,0,1-.968-7.1c.043-2.061-.055-3.679-.161-5.806.578.2.085-1.238.645-1.129.089-.358-.308-.23-.323-.484.818-2.311,1.285-4.464,2.581-6.452,1.116-1.711,3.458-2.769,4.194-3.71,2.738-1.442,5.667-3.057,9.032-2.742C398.177,852.347,398.106,852.2,397.925,852.168Zm.645,43.548c.021-.45-.285-1.119-.323-1.774-.158-2.871-.253-8.3-.16-11.935-1.3-8.29-3.034-18.2,0-28.064-1.263.351-2.291.106-3.387.968-.99.777-3.272,4.546-3.387,6.29-1.693,2.172-1.1,6.012-1.452,7.581a12.622,12.622,0,0,0,.161,4.355c.063.766.228,1.373.323,2.1.162,1.235.032,2.28.16,3.065.192,1.169,1.312,2.668.807,3.71,1.4,1.492,1.107,4.234,2.258,5.645-.039.23-.266.272-.323.484.949-.2.6,2.364,1.291,2.258.189.428-.309.95,0,.968,1.04,1.592,1.6,4.666,2.582,6.452.574-.382.981-.07,1.29-.161a9.959,9.959,0,0,1,.161-1.942Zm4.677-3.871c.4-.5-.291.35.161.323.105-.2.462.439.645.323a9.884,9.884,0,0,0-1.452,3.871,45.1,45.1,0,0,0,2.742-4.839c.181-.017.251.234.323,0-.181-.034-.251-.179-.323-.323.973-1.056,1.36-2.628,1.935-3.064-.271-.66.783-2.642.968-1.936-.285-.529.244-1.807.645-1.613-.115-.814.5-.9.323-1.774a3.041,3.041,0,0,0,.806-1.774c.591.239.446-2.393,1.452-2.742.227.042.184.354.323.484.44.015.325-.269.645,0a.909.909,0,0,1,.161-.645c-.789-.014-.435-.691-1.29-.323.491-1.283.7-2.849,1.451-3.871-.331-3.446.539-7.01-.645-10.484-.036.125,0,.318-.161.323.227-1.348-1.331-2.108-.484-3.064-.72.232-1-1.138-1.452-1.935a11.486,11.486,0,0,0-4.516-4.032c-.068.359-.856.126-.968,0,1.646,1.872,2.237,4.544,3.064,6.451.7,1.6.445,4.073.968,5.323.182.435-.09-.092,0,.323.048.218.429.212.484.484a3.39,3.39,0,0,1-.323,1.452c.009.162.537.323.484.645-.222,1.337,0,2.893-.323,4.032.125.036.318,0,.323.161-.093,3.641-2.681,10.051-3.387,13.871-.381,2.063-2.035,3.877-2.258,4.355-.381-.473.31-.6,0-.806-.176.107-.638.731-.32.8Zm-4.677,7.419c.791,1.71.632,2.8.484,5.161.768-.058,1.206-.088,1.613-.161A19.762,19.762,0,0,1,401.8,899.1c-1.38.124-1.333.064-3.225.162Zm-3.064.484c.341,1.378,1.048,3.348.807,5a2.35,2.35,0,0,0,1.451-.323c-.644-1.568-.023-2.742-.161-5-.9-.079-1.507-.264-2.1.324Zm.807,6.452a28.162,28.162,0,0,0,.484,4.032c1.141.378,2.415-.524,3.71,0-.591-1.272.292-2.356.161-4.032C398.657,906.1,397.344,906.258,396.313,906.2Z" transform="translate(-317.209 -852.168)"/>
  <path id="パス_27569" data-name="パス 27569" class="cls-1" d="M338.179,917.846c2.026.382,6.149-.611,8.77,1.5a1.3,1.3,0,0,1,1.925.642,1.5,1.5,0,0,0,.428-.642c5.085,1.928,7.987,7.135,9.84,11.765a.588.588,0,0,1-.642.428c.13.97.983.107,1.07,1.283-.173-.04-.213-.215-.428-.214,1.875,2.678.626,5.082,1.711,6.631-1.249,2.631.626,6.473-1.283,8.342.895.121-.2.784.214,1.711a1.194,1.194,0,0,1-.855.214c.926.721-.791,2.78-.214,3.85-.173-.041-.213-.215-.428-.214-.5,2.789-2.578,5.827-3.209,9.2-.775-.779.021,1.106-1.068.642a4.984,4.984,0,0,1-.214,2.139c-.113.257-.684.373-.855.642-1.061,1.657-1.407,5.14-2.995,5.562.725,1.363-1.2,1.745-1.07,3.209-.828-.133-.881-.177-1.5.214.051.552.368-.294.855,0-.716,1.123-.886,4.106-3.208,4.278-.614,3-.051,6.8-2.139,8.77.21.6.571-.311.855.214-.77.41.819,1.317-.214,1.283,1.067.557.2,3.529.428,3.209,1.438,4.7-4.83,4.824-8.129,5.347-2.508-1.381-1.683-5.914-1.5-9.839-1.225-1.611-.771-4.876-1.5-7.7-.094-.317-.272.084-.641,0a94.757,94.757,0,0,0-7.059-10.267v-1.07c-2.567-2.563-2.952-5.116-4.707-9.2-.034-.251-.39-.18-.641-.214.126-1.291-.718-3.646-1.07-4.92a29.407,29.407,0,0,1-1.283-9.412c.056-2.733-.073-4.88-.214-7.7.766.258.112-1.642.856-1.5.118-.474-.408-.3-.428-.642,1.085-3.064,1.7-5.92,3.422-8.556,1.479-2.269,4.586-3.672,5.562-4.92,3.631-1.912,7.515-4.054,11.979-3.637C338.512,918.083,338.419,917.891,338.179,917.846Zm5.348,53.262c-.131-.012-.253-.032-.214-.214a75.316,75.316,0,0,1,3.636-9.412c.283-.616-.02-1.488.214-2.353.437-1.617,1.846-4.5,1.925-5.134.417-3.321,1.676-7.035,1.07-11.337.413-.087.019-.98.856-.642.228-.8-.8-.339-.642-1.07-.8-6.615-1.609-16.244-7.059-20.749a4.313,4.313,0,0,1-2.567-.214c-2.49,4.732-2.833,10.144-2.567,15.4a190.172,190.172,0,0,0,2.781,21.6c-.706,1.8.34,3.6.428,5.562.043.958-.519,2.225-.428,3.422,0,.045.4.071.428.428.248,3.316-.522,6.308.214,8.984.857-1.332,1.1-4.135,1.926-4.271Zm-4.492,4.492c.027-.6-.38-1.485-.428-2.353-.211-3.807-.337-11-.214-15.829-1.722-10.994-4.024-24.136,0-37.219-1.676.465-3.038.141-4.492,1.283-1.312,1.031-4.339,6.029-4.491,8.342-2.245,2.88-1.462,7.972-1.925,10.053-.511,2.286.088,4.235.213,5.775.083,1.016.3,1.82.428,2.781.215,1.638.043,3.024.214,4.064.255,1.551,1.739,3.538,1.07,4.92,1.853,1.978,1.468,5.615,2.995,7.487-.051.3-.352.361-.428.642,1.259-.268.789,3.136,1.711,2.995.251.567-.41,1.26,0,1.283,1.379,2.111,2.124,6.189,3.422,8.556.763-.505,1.3-.093,1.712-.213a13.153,13.153,0,0,1,.212-2.567Zm5.989-5.775c.73.241-.068.829.428,1.07.14-.266.613.583.856.428a13.093,13.093,0,0,0-1.925,5.134,59.939,59.939,0,0,0,3.636-6.417c.24-.022.333.311.428,0-.24-.045-.333-.237-.428-.428,1.291-1.4,1.8-3.485,2.567-4.064-.359-.875,1.039-3.5,1.284-2.567-.379-.7.323-2.4.855-2.139-.152-1.079.658-1.2.428-2.353a4.034,4.034,0,0,0,1.07-2.353c.783.316.591-3.174,1.925-3.637.3.056.244.469.428.642.583.019.43-.356.856,0a1.2,1.2,0,0,1,.214-.856c-1.047-.018-.578-.917-1.711-.428.652-1.7.927-3.779,1.925-5.134-.439-4.571.714-9.3-.856-13.9-.048.166-.006.422-.214.428.3-1.788-1.766-2.8-.642-4.064-.956.307-1.324-1.509-1.925-2.567-1.157-2.037-3.161-3.727-5.99-5.348-.09.476-1.135.167-1.283,0,2.184,2.483,2.966,6.026,4.064,8.556.923,2.127.591,5.4,1.283,7.059.241.576-.12-.122,0,.428.063.289.569.281.642.642a4.492,4.492,0,0,1-.428,1.925c.012.214.712.428.642.856-.294,1.773.006,3.836-.428,5.347.166.048.422.006.428.214-.123,4.829-3.556,13.33-4.492,18.4-.506,2.736-2.7,5.141-3,5.776-.5-.627.411-.795,0-1.07,0,.345-.594.111-.638.424Zm-15.4-47.059c-.032.468-.539.459-1.07.428-.473.308.269.522-.214.642-3.649,2.055-5.8,5.6-7.487,9.626.114-.62-.833.328-.214.214.606-.321-.04,1.971-.214,2.139-.762.737.129-.288.214.214.292,1.722-.777,4.377-.856,6.2,0-.008.412.066.428.214.138,1.274-.765,2.993,0,4.492a5.091,5.091,0,0,1-.855.856.993.993,0,0,0,.642-.214c.841,2.1.707,5.006,1.283,6.845-.032.246,1.372,2.235.428,2.781,1.342,1.431,2.5,5.154,2.995,6.845,1.162.557,1.312,1.939,1.5,3.208,1.786,1.236,2.479,4.209,4.064,6.417.047-.167.179-.249.428-.214.289,1.349,1.534,5.593,3.851,4.706-.525-1.679-2.307-3.91-2.567-5.989-.137-1.1-.5-1.122-.856-2.139-2.774-7.909-5.5-18.037-5.989-26.31-.1-1.608.633-2.7-.214-3.209a30.664,30.664,0,0,0,.642-5.989c-.065-.493.618-.238.642-.642-.533-3.232,2.361-7.053,3.209-9.2.24-.022.333.311.428,0-1.061-.327,1.124-1.536.427-2.139-.4.658-.559.686-.646.218Zm9.412,57.54c1.049,2.267.837,3.718.642,6.845,1.019-.077,1.6-.117,2.139-.214.112-2.95.836-4.324,1.5-6.845-1.835.164-1.772.084-4.283.214Zm-4.064.642c.451,1.827,1.388,4.44,1.07,6.631a3.121,3.121,0,0,0,1.925-.428c-.855-2.079-.031-3.637-.214-6.631-1.2-.106-2-.352-2.783.428Zm1.07,8.556c.02,2.783.367,2.626.642,5.347,1.513.5,3.2-.7,4.92,0-.783-1.686.388-3.124.214-5.347-2.669-.135-4.411.076-5.779,0Z" transform="translate(-317.209 -852.168)"/>
</svg>
