<svg xmlns="http://www.w3.org/2000/svg" width="93.43" height="184.868" viewBox="0 0 93.43 184.868">
  <defs>
    <style>
      .cls-1 {
        fill: #26333b;
      }
    </style>
  </defs>
  <g id="イラストR" transform="translate(-1454.597 -3256.313)">
    <g id="キラキラ" transform="translate(13.747 2034.947)">
      <g id="グループ_5190" data-name="グループ 5190">
        <path id="パス_28752" data-name="パス 28752" class="cls-1" d="M1491.054,1357.438l1.2-.91-.128-1.5.437-1.443-.99-1.143-.493-1.424-1.469-.342-1.239-.865-1.389.586-1.507.029-.779,1.293-1.2.909.129,1.5-.438,1.442.989,1.143.495,1.425,1.469.343,1.24.865,1.389-.586,1.506-.03Zm-4.886-4.846,1-.151.631-.792.9.467.975-.271.451.906.949.354-.167,1,.558.845-.721.709-.046,1.012-1,.151-.631.791-.9-.468-.977.27-.451-.907-.948-.353.168-1-.559-.843.721-.71Z"/>
      </g>
      <g id="グループ_5195" data-name="グループ 5195">
        <path id="パス_28757" data-name="パス 28757" class="cls-1" d="M1515.863,1288.581l.637.745.972-.018.287.931.915.328-.186.937.693,1.432-.382,1.55.638,1.47-.409,1.553.62,1.467-.4.6.692.18.017.716.664-.256.437.561.375-.6.69.187-.06-.713.669-.252-.462-.551.474-1.526-.562-1.493.483-1.527-.546-1.506.524-1.5-.3-.918.862-.473.162-.969.973-.066.624-.757,1.543.363,1.453-.624,1.528.433,1.478-.6,1.516.45.415-.611.712.188-.019-.736.687-.266-.453-.58.39-.626-.711-.192-.058-.734-.689.261-.475-.563-1.467.6-1.518-.451-1.481.575-1.511-.488-1.519.481-.634-.727-.962-.017-.222-.949-.908-.345.073-.947-.823-1.339.358-1.562-.619-1.479.455-1.542-.553-1.5.408-.558-.679-.158,0-.7-.645.267-.412-.561-.354.6-.669-.2.076.693-.659.228.464.531-.516,1.513.526,1.508-.515,1.515.523,1.512-.514,1.509.305.857-.842.421-.081.936-.927.175-.455.841-1.633-.31-1.514.674-1.619-.382-1.538.644-1.6-.4-.328.594-.641-.227.077.676-.653.191.461.5-.406.545.669.12,0,.68.613-.295.386.556,1.5-.548,1.518.5,1.515-.528,1.513.531Z"/>
      </g>
      <g id="グループ_5196" data-name="グループ 5196">
        <path id="パス_28758" data-name="パス 28758" class="cls-1" d="M1462.538,1237.069l.638.745.971-.018.287.931.916.328-.186.937.693,1.431-.382,1.551.637,1.47L1465.7,1246l.62,1.468-.4.6.692.18.018.716.664-.256.436.561.376-.6.689.188-.059-.713.669-.252-.463-.551.474-1.526-.562-1.493.484-1.527-.546-1.506.524-1.5-.3-.918.861-.473.163-.969.973-.066.624-.757,1.543.363,1.453-.624,1.527.433,1.479-.6,1.515.45.416-.611.712.188-.02-.736.688-.266-.454-.58.39-.626-.711-.192-.057-.734-.689.261-.476-.563-1.467.6-1.517-.451-1.48.575-1.512-.487-1.519.481-.634-.727-.962-.017-.222-.949-.908-.346.074-.947-.824-1.339.358-1.561-.619-1.48.456-1.542-.554-1.495.409-.558-.679-.158,0-.7-.644.268-.413-.561-.353.6-.669-.2.076.692-.66.229.464.531-.515,1.512.526,1.509-.516,1.515.523,1.511-.514,1.51.3.857-.842.421-.081.936-.927.175-.454.84-1.633-.31-1.514.674-1.62-.381-1.538.644-1.6-.4-.329.593-.641-.227.077.676-.653.192.462.5-.406.545.669.121,0,.679.613-.3.386.556,1.5-.548,1.519.5,1.514-.528,1.514.531Z"/>
      </g>
      <g id="グループ_5197" data-name="グループ 5197">
        <path id="パス_28759" data-name="パス 28759" class="cls-1" d="M1447.873,1397l.438.681.794-.126.133.792.787.171-.262.741.645,1.054-.418,1.169.609,1.086-.437,1.168.595,1.087-.426.473.63.071-.076.63.55-.312.312.55.253-.58.58.253-.143-.617.619-.137-.473-.427.488-1.14-.55-1.112.491-1.144-.533-1.129.523-1.111-.347-.715.758-.291.024-.81.806.053.429-.691,1.167.4,1.075-.6,1.15.452,1.094-.578,1.138.467.283-.584.6.254-.11-.637.631-.144-.468-.448.418-.494-.642-.077.042-.645-.567.314-.341-.551-1.089.578-1.139-.468-1.1.56-1.137-.495-1.134.49-.44-.665-.788.1-.072-.8-.782-.178.172-.767-.743-.968.4-1.178-.595-1.1.472-1.157-.545-1.113.432-.442-.623-.056.092-.616-.534.319-.294-.549-.236.576-.564-.262.154.6-.614.12.475.414-.517,1.13.524,1.124-.517,1.132.524,1.137-.515,1.12.355.664-.742.251.041.782-.783.035-.286.744-1.238-.361-1.117.635-1.222-.415-1.138.613-1.207-.431-.219.57-.542-.285.152.593-.606.088.474.387-.43.434.611.024-.089.6.51-.339.273.545,1.118-.54,1.136.505,1.13-.526,1.138.53Z"/>
      </g>
    </g>
  </g>
</svg>
