<svg xmlns="http://www.w3.org/2000/svg" width="72" height="110.738" viewBox="0 0 72 110.738">
  <g id="イラストR" transform="translate(-1614.001 43.737)">
    <g id="稲" transform="translate(1522.742 -1867.901)">
      <g id="グループ_5338" data-name="グループ 5338" transform="translate(119.795 1824.164)">
        <path id="パス_28956" data-name="パス 28956" d="M333.526,1831.781c.129.394-.265.557-.084.987l.07,0,.008.14.07,0,.008.14.07,0,.008.14.144.062.012.21.07,0c0,.047.005.094.008.14.023.032.1.055.148.132l.21-.012.128-.218c.119-.089.161-.006.272-.156.433,0,.5.171.79.306l.284.054.078.136.284.054.078.135.284.054,0,.07,1.6-.3c.144,0,.144.062.144.062l1.045-.13,0-.07.839-.048.8-.677.416-.094,0-.07.21-.012,0-.07.14-.008,0-.07.21-.012.326-.44.14-.008.062-.144.14-.008,0-.07.268-.226c0-.047-.005-.094-.008-.14l.136-.078-.008-.14.132-.148-.008-.14.07,0-.008-.14.136-.078-.008-.14.2-.152.054-.284.07,0-.012-.21.136-.078-.008-.14.2-.152-.008-.14.136-.078q.05-.354.1-.708l.07,0-.012-.21.07,0-.008-.14.07,0,.046-.424.07,0-.008-.14.07,0-.016-.28.07,0-.2-1.041.07,0a4.174,4.174,0,0,0-.072-1.259c-.085-.266-.17-.2-.37-.33l-.152-.2-.14.008,0-.07-.21.012,0-.07-.49.028,0-.07-.28.016,0-.07-.21.012,0-.07-.21.012,0-.07-.21.012,0-.07-.428-.116,0-.07-1.959.111,0,.07-.346.09,0,.07-.21.012,0,.07-.35.02,0,.07-.21.012,0,.07-.276.086,0,.07-.42.024,0,.07-.21.012,0,.07-.276.086,0,.07-.21.012,0,.07-.21.012,0,.07-.14.008,0,.07-.14.008-.392.514.008.14-.07,0c-.017.118-.033.236-.05.354l-.136.078.008.14-.136.078.008.14-.532.521-.236.786-.2.152,0,.07-.206.082.008.14-.334.3.008.14-.132.148-.14.008-.194.292-.14.008,0,.07-.2.152.008.14-.07,0,.008.14-.07,0,.016.28-.07,0c0,.047.005.093.008.14l-.136.078.008.14-.07,0,.2,1.041Zm1.857-.667.2-.152a3.066,3.066,0,0,0,.454-.657l-.008-.14.07,0-.008-.14.132-.148-.008-.14.07,0,.058-.214.136-.078-.012-.21.136-.078-.008-.14.4-.374.058-.214.136-.078-.008-.14.2-.152-.008-.14.532-.521.128-.218.618-.246.194-.292,1.4-.01,0-.07.14-.008.128-.218.21-.012,0-.07.84-.048c.148.157.42.254.518.461l.024.42.144.062.086.276.07,0c.018.112-.1.091-.132.148l.008.14-.136.078.068,1.189-.07,0,.012.21-.07,0c0,.047.005.093.008.14l-.326.44-.14.008-.132.148c0,.047.005.094.008.14l-.466.448-.062.144-.14.008-.326.439-.951.545-.42.024,0,.07-.21.012,0,.07-.21.012,0,.07-.559.032,0,.07a2.157,2.157,0,0,1-1.263,0l-.28.016,0-.07-.14.008,0-.07-.427-.116-.078-.136-.14.008-.078-.136-.14.008,0-.07-.218-.128Z" transform="translate(-305.451 -1824.164)" fill="#26333b" fill-rule="evenodd"/>
        <path id="パス_28957" data-name="パス 28957" d="M288.5,1865.519l.056.979-.07,0,.012.21-.07,0,.012.21-.07,0q.01.175.02.35l-.07,0,.02.35-.07,0,.012.21-.07,0,.012.21-.07,0,.064,1.119.07,0,.008.14.07,0,.016.28.07,0,.008.14.292.194.008.14.218.128.106.625.522.532.14-.008.078.136a11.618,11.618,0,0,0,2.522-.074c.07-.092.12-.08.2-.152l0-.07.14-.008.26-.365.14-.008.458-.587.2-.152.116-.428.07,0,.058-.214.136-.078.054-.284.136-.078.116-.428.136-.078-.008-.14.07,0-.008-.14.4-.374-.008-.14.07,0c.014-.165.028-.329.042-.494l.07,0-.008-.14.07,0q.023-.212.046-.423l.07,0q.019-.282.038-.563l.07,0,.054-.284.07,0-.016-.28.136-.078.116-.427.136-.078-.008-.14.136-.078q-.032-.56-.064-1.119a2.369,2.369,0,0,0-.43-1.379c0-.047-.005-.094-.008-.14l-.07,0-.008-.14-.144-.062-.09-.346a1.562,1.562,0,0,0-.727-.45l0-.07-.42.024c-.113.146-.158.068-.272.156l-.194.292-.14.008-.128.218-.909.052,0,.07-.276.086-.062.144-.276.086-.062.144-.482.168-.19.362-.14.008-.062.144-.14.008-.062.144-.206.082,0,.07-.346.09-.524.661-.861.891-.054.284-.136.078-.054.284Zm2.112,1.353.07,0-.052-.909.136-.078.054-.284.136-.078-.008-.14.2-.152-.008-.14.136-.078-.008-.14.4-.374,0-.07.28-.016,0-.07.14-.008,0-.07.14-.008,0-.07.14-.008.132-.148.14-.008.062-.144.14-.008.062-.144.35-.02,0-.07.21-.012,0,.07c.3,0,.239.03.428.116q.03.525.06,1.049l-.07,0,.012.21-.07,0q-.019.282-.038.563l-.07,0,.008.14-.136.078q-.011.422-.022.844l-.07,0,.008.14-.2.152-.054.284-.136.078c0,.047.005.093.008.14l-.268.225q-.027.142-.054.284l-.07,0-.054.283-.07,0-.054.284-.07,0,.012.21c-.008.017-.1.074-.132.148a3.563,3.563,0,0,1-1.979-.238A2.977,2.977,0,0,1,290.613,1866.872Z" transform="translate(-270.85 -1852.396)" fill="#26333b" fill-rule="evenodd"/>
        <path id="パス_28958" data-name="パス 28958" d="M331.2,1875.509l.494.042,0,.07.428.116,0,.07.42-.023,0,.07.21-.012,0,.07.284.054,0,.07.7-.04.152.2a3.059,3.059,0,0,0,1.057.08l0-.07.346-.09.062-.144.14-.008,0-.07,1.185-.138.94-.755.058-.214.07,0,.062-.144.14-.008.26-.366.664-.669-.008-.14.132-.148.14-.008.194-.292.14-.008.062-.144.334-.3-.008-.14.136-.078-.012-.21.136-.078-.008-.14.2-.152-.008-.14.268-.226-.012-.21.07,0,.116-.428.07,0-.028-.49.07,0,.054-.284.07,0c-.005-.094-.01-.187-.016-.28l.07,0q-.042-.734-.084-1.469l-.522-.532-.214-.058-.008-.14-.218-.128a1.42,1.42,0,0,0-1.431-.48l0,.07-.42.024,0,.07-1.259.072,0,.07-.412.164-.062.144-.276.086,0,.07-.49.028,0,.07-.276.086,0,.07-.691.18,0,.07-.276.086,0,.07-.486.1-.128.218-.14.008-.128.218-.07,0-.062.144-.14.008-.128.218-.14.008,0,.07-.14.008,0,.07-.14.008c0,.024,0,.047,0,.07l-.21.012,0,.07-.14.008,0,.07-.28.016-.466.448.008.14-.136.078.008.14-.07,0-.046.424-.07,0,.008.14-.07,0,.008.14-.136.078.008.14-.136.078-.054.284-.07,0q.028.489.056.979l-.07,0,.012.21-.136.078.008.14-.07,0q.024.42.048.84l-.07,0q.067.558.134,1.115Zm1.9-2.354-.032-.56.07,0-.008-.14.07,0c0-.07-.008-.14-.012-.21l.07,0q-.022-.385-.044-.77l.07,0,.128-.218.14-.008.128-.218.276-.086.326-.439.14-.008.062-.144.14-.008.062-.144c.168-.115.4-.006.626-.106l0-.07.14-.008.062-.144.276-.086,0-.07.35-.02,0-.07.21-.012,0-.07.14-.008,0-.07.555-.1,0-.07.14-.008.062-.144.21-.012,0-.07a2.863,2.863,0,0,1,1.193,0c.1.415.229.41.048.84,0,.046.005.093.008.14l-.07,0-.058.214-.136.078.02.35-.07,0-.05.354-.136.078.012.21-.07,0-.326.44-.14.008-.392.513-.136.078-.116.428-.136.078-.26.365c-.2.163-.334.151-.4.444a3.252,3.252,0,0,0-.878.611l-.424-.046,0-.07-.98.055c0-.023,0-.046,0-.07l-.21.012-.078-.136-.424-.046,0-.07-.14.008c-.035-.019-.064-.094-.148-.132A2.924,2.924,0,0,1,333.105,1873.155Z" transform="translate(-303.488 -1856.923)" fill="#26333b" fill-rule="evenodd"/>
        <path id="パス_28959" data-name="パス 28959" d="M254.195,1915.108l.012.21.07,0,.012.21.07,0,.122.905c.089.03.176.016.284.054l0,.07.21-.012.374.4a.516.516,0,0,1-.252.506l.028.49.218.128.008.14.144.062.008.14.214.058.078.136.14-.008,0,.07.14-.008,0,.07.21-.012,0,.07.42-.024,0,.07.14-.008.078.136.14-.008,0,.07,1.119-.064,0-.07.14-.008.128-.218.276-.086.062-.144.346-.09,0-.07.276-.086.128-.218.14-.008.132-.148-.008-.14.136-.078-.008-.14.268-.226c0-.047-.005-.093-.008-.14l.136-.078.116-.427.136-.078-.008-.14.136-.078-.008-.14.136-.078-.008-.14.4-.374-.008-.14.2-.152-.012-.21.07,0c0-.07-.008-.14-.012-.21l.07,0,.054-.284.07,0-.028-.49.07,0-.024-.42.07,0-.012-.21.07,0-.012-.21.07,0c0-.046-.005-.093-.008-.14l.07,0-.008-.14.136-.078.054-.284.07,0c.127-.421-.26-.942-.347-1.173q-.016-.279-.032-.56l-.07,0q-.009-.771-.018-1.543l-.07,0c-.005-.093-.01-.187-.016-.28l-.07,0-.086-.276-.07,0-.052-.909-2-1.851-.979.056a2.946,2.946,0,0,1-.54.382l-.128.218-.618.246-.26.365-.136.078.008.14-.136.078.008.14-.268.226.008.14-.136.078-.326.439-.14.008-.062.144-.07,0-.174.642-.268.226.008.14-.136.078.012.21-.07,0,.008.14-.07,0,.012.21-.136.078.032.56-.07,0,.036.629-.07,0,.012.21-.07,0,.008.14-.07,0,.016.28-.07,0,.016.28-.07,0,.008.14-.136.078.008.14-.132.148.008.14-.07,0,.008.14-.136.078.122.905q-.013.387-.026.774Zm1.691.114-.012-.21.07,0,.1-.778.07,0a1.353,1.353,0,0,0-.04-.7q-.038-.665-.076-1.329l.6-.6-.008-.14.136-.078.058-.214.07,0,.054-.284.136-.078.054-.284.07,0-.02-.35.07,0-.012-.21.136-.078-.008-.14,1.134-1.047.214.058.082.206.07,0c.157.164.376.29.452.536.111.113.093.4.106.626q.044.769.088,1.539l.122.905.07,0q-.015.352-.03.7.024.42.048.839l-.2.152.008.14-.132.148c0,.046.005.093.008.14l-.07,0,.008.14-.07,0,.008.14-.136.078.008.14-.136.078.008.14-.466.448-.058.214c-.176.215-.528.288-.672.53l-.769.044,0-.07-.809-.656c-.131-.163-.124-.3-.3-.4a1.474,1.474,0,0,0-.086-.276Z" transform="translate(-244.67 -1886.925)" fill="#26333b" fill-rule="evenodd"/>
        <path id="パス_28960" data-name="パス 28960" d="M307.308,1913.4l-.21.012-.062.144-.14.008,0,.07-.21.012c0,.023,0,.047,0,.07l-.21.012,0,.07-.412.164,0,.07-.276.086-.26.366-.618.246-.194.292-.136.078.008.14-.136.078c0,.047.005.093.008.14-.071.1-.17.054-.268.226l-.14.008-.116.428-.136.078-.054.284-.458.587-.14.008,0,.07-.268.226c.075,1.325-.979,2.351-.674,3.809a.868.868,0,0,0,.678.771c1.481.53,3.174.029,4.669-.145l0-.07.14-.008.062-.144.412-.164.062-.144.14-.008.194-.292.206-.082.058-.214.334-.3-.008-.14.136-.078-.008-.14.136-.078-.008-.14.2-.152.174-.641.2-.152-.008-.14.466-.448-.008-.14.07,0-.008-.14.07,0-.012-.21.136-.078.058-.214.07,0c0-.047-.005-.094-.008-.14l.07,0-.008-.14.136-.078-.008-.14.07,0-.02-.35.07,0,.116-.427.07,0q-.02-.35-.04-.7c.064-.243.4-.577.224-1l-.07,0-.008-.14-.144-.062-.008-.14-.07,0q-.024-.42-.048-.839l-.07,0c-.159-.306-.389-.661-.743-.73-.2-.156-.868.047-1.189.068l-.49.028-.062.144-.276.086-.062.144-.14.008-.062.144-.14.008,0,.07-.63.036Zm.321,1.947.28-.016.062-.144.14-.008,0-.07c.21-.1.4-.016.552-.172l.354.05a2.052,2.052,0,0,1-.154.991l-.136.078q-.021.246-.042.494l-.136.078.008.14-.07,0,.008.14-.07,0,.008.14-.132.148.008.14-.136.078-.116.428-.136.078.008.14-.07,0,.008.14-.268.226.008.14-.136.078c-.081.154.016.3-.042.494l-.07,0,.012.21-.334.3,0,.07-.691.18-.062.144-.14.008,0,.07-.14.008,0,.07-.56.032,0,.07a1.881,1.881,0,0,1-.633-.034q-.042-.735-.084-1.469l.07,0,.116-.428.07,0,.054-.284.268-.226-.008-.14.334-.3q.025-.177.05-.354l.07,0c0-.07-.008-.14-.012-.21l.136-.078-.008-.14,1.06-1.113.7-.11Z" transform="translate(-281.604 -1891.958)" fill="#26333b" fill-rule="evenodd"/>
        <path id="パス_28961" data-name="パス 28961" d="M277.095,1963.332a.18.18,0,0,0-.214-.058l0,.07-.28.016,0,.07-.28.016-.062.144-.14.008,0,.07-.769.044,0,.07c-.2.072-.34,0-.486.1l-.062.144-.14.008,0,.07-.7.04-.062.144-.14.008,0,.07-.556.1-.062.144-.14.008-.26.366-.14.008-.132.148-.14.008,0,.07-.14.008-.062.144-.14.008,0,.07-.14.008-.318.579-.14.008-.132.148-.14.008-.062.144-.14.008a1.034,1.034,0,0,0-.33.37l-.14.008.008.14-.334.3,0,.07-.14.008-.062.144-.136.078q-.025.177-.05.354l-.07,0c0,.046.005.093.008.14l-.136.078.008.14-.07,0q.012.209.024.42l-.07,0,.008.14-.07,0-.116.428-.07,0a3.487,3.487,0,0,0,.138,1.185l.07,0,.164.411-.07,0-.054.284-.07,0-.006,1.124.07,0c.068,1.338.733,1.028,1.223,1.755a2.632,2.632,0,0,1,.847.092l.7-.04,0,.07.14-.008,0,.07.35-.02c0,.023,0,.046,0,.07a1.6,1.6,0,0,0,.9-.261l0-.07.835-.117,0-.07.21-.012,0-.07.14-.008,0-.07.35-.02,0-.07.14-.008,0-.07.14-.008.062-.144.556-.1,0-.07.14-.008,0-.07c.321-.19.65-.2.738-.6.224-.072.509-.432.667-.6l.062-.144.14-.008,0-.07.2-.152-.008-.14.2-.152-.008-.14.132-.148-.008-.14.07,0-.008-.14.07,0-.008-.14.07,0-.008-.14.136-.078-.008-.14.07,0q.013-.387.026-.773l.136-.078c0-.046-.005-.093-.008-.14l.07,0-.012-.21.07,0-.012-.21.07,0-.012-.21.07,0-.012-.21.07,0-.016-.28.07,0a3.546,3.546,0,0,0-.22-1.391c-.029-.148.062-.144.062-.144l-.02-.35.07,0a1.667,1.667,0,0,0-.266-.968l-.07,0-.016-.28-.07,0q-.018-.315-.036-.63l-.144-.062,0-.07-.14.008-.078-.136-.14.008-.152-.2-.14.008-.152-.2-.284-.054,0-.07Zm-.4,5.216-.07,0,.008.14-.07,0-.174.641-.136.078c-.017.118-.033.236-.05.354l-.136.078.008.14-.07,0,.012.21-.136.078-.054.284c-.079.132-.3.2-.4.3l-.26.366-.14.008,0,.07-.14.008,0,.07-.21.012,0,.07-.21.012-.128.218-.346.09-.062.144-.14.008,0,.07-1.679.1,0-.07-.21.012,0-.07a1.062,1.062,0,0,1-.451-.535l-.016-.28-.07,0-.008-.14-.144-.062-.012-.21-.07,0c-.157-.41.172-.578.236-.786l-.028-.49.07,0-.012-.21.136-.078-.008-.14.07,0c.12-.361-.152-.567-.056-.979l.07,0-.008-.139.206-.082,0-.07.618-.246,0-.07.552-.172.062-.144.276-.086.062-.144.14-.008.128-.218.14-.008.062-.144.412-.164.062-.144.14-.008,0-.07.276-.086,0-.07.21-.012,0-.07c.219-.094.4-.02.552-.172l.769-.044c0,.023,0,.046,0,.07.211.146.04.062.156.272l.07,0,.086.275.07,0,.012.21.07,0c.03.117-.059.126-.062.144q.01.175.02.35l-.07,0a1.313,1.313,0,0,0,.339,1.033C276.922,1968.324,276.815,1968.372,276.69,1968.548Z" transform="translate(-256.308 -1930.878)" fill="#26333b" fill-rule="evenodd"/>
        <path id="パス_28962" data-name="パス 28962" d="M227.079,1972.651l-.152-.2-.769.044,0,.07-.14.008-.062.144-.14.008,0,.07-.28.016,0,.07-.21.012-.062.144-.14.008-.062.144-.14.008-.062.144-.07,0,.008.14-.07,0,.008.14-.268.226.008.14-.07,0c0,.07.008.14.012.21l-.07,0,.008.14-.07,0,.008.14-.136.078-.054.284-.07,0,.028.49-.07,0,.012.21-.07,0,.008.14-.07,0q-.007.491-.014.983l.07,0q.059.417.118.836l-.07,0,.064,1.119.07,0,.012.21.07,0,.164.412.07,0q.01.175.02.35l.07,0,.164.412.07,0,.008.14.144.062.008.14.292.194q0,.07.008.14l.214.058.152.2.14-.008.078.136.14-.008.078.136.428.116.078.136.14-.008.6.6.428.116.078.136.21-.012,0,.07.14-.008,0,.07.14-.008.078.136.21-.012,0,.07c1.642-.094,2.836.1,3.357-1.8a7.676,7.676,0,0,0,0-3.373l-.07,0q-.018-.314-.036-.63l-.07,0-.008-.14-.07,0c-.069-1.218-2.023-2.56-2.725-3.494l-.152-.2-.14.008,0-.07-.354-.05-.078-.136-.14.008,0-.07-.769.044,0-.07Zm.7,2.417.21-.012,0,.07.35-.02.078.136.14-.008.078.136.07,0c0,.046.005.094.008.14l.07,0,.008.14.07,0,.012.21.07,0,.024.42.218.128c0,.047.005.093.008.14l.218.128.008.14.144.062.008.14.218.128.008.14.07,0,.1,1.679.07,0,.024.42.07,0a3.56,3.56,0,0,1-.01,1.053,2.49,2.49,0,0,1-1.045.13l0-.07-.21.012-.078-.136-.214-.058,0-.07-.14.008-.226-.268-.14.008-.226-.268c-.344-.305-.923-.682-1.117-1.129l-.04-.7-.144-.062-.09-.346-.07,0a1.226,1.226,0,0,1,.1-.778q0-.666-.006-1.333a3.2,3.2,0,0,0,.108-.568.527.527,0,0,0,.268-.226C227.425,1974.556,227.408,1974.9,227.778,1975.068Z" transform="translate(-221.532 -1937.925)" fill="#26333b" fill-rule="evenodd"/>
        <path id="パス_28963" data-name="パス 28963" d="M213.9,2028.931l-.07,0,.126.976.07,0,.012.21.218.128.008.14.144.062.008.14.148.132c0,.047.005.094.008.14l.07,0,.008.14.07,0,.008.14.07,0,.086.275.144.062.008.14c.111.169.237.23.308.474l.214.058,0,.07.14-.008,0,.07.21-.012,0,.07.21-.012,0,.07.14-.008,0,.07.14-.008.3.334.14-.008.078.136.14-.008a1.508,1.508,0,0,0,.148.132l0,.07.21-.012,0,.07a2.073,2.073,0,0,0,1.045-.13l.128-.218.63-.036,0-.07.14-.008.128-.218.346-.09.062-.144.14-.008.128-.218.14-.008.062-.144.14-.008,0-.07.21-.012,0-.07.206-.082.062-.144.14-.008.062-.144.14-.008.326-.44-.012-.21.07,0-.012-.21.136-.078.116-.428.136-.078.054-.284.07,0-.024-.42.07,0-.012-.21.07,0q-.016-.279-.032-.56l.07,0-.012-.21.07,0a3.558,3.558,0,0,0-.227-1.531l-.024-.42-.07,0-.086-.276-.144-.062-.008-.14-.144-.062-.008-.14-.07,0-.04-.7-.07,0-.016-.28-.07,0-.02-.35-.07,0-.024-.42-.07,0-.016-.28-.07,0-.02-.35-.07,0-.012-.21-.07,0-.008-.14-.07,0-.094-.416-.07,0-.008-.14-.07,0-.012-.21-.07,0-.012-.21-.144-.062-.008-.14-.362-.19-.008-.14-.07,0-.012-.21-.07,0-.028-.49-.07,0c-.132-.235-.233-.4-.518-.462a4.776,4.776,0,0,0-1.4.01l-.062.144-.14.008,0,.07-.14.008,0,.07-.14.008,0,.07-.14.008-.132.148-.14.008-.062.144-.14.008-.326.44-.14.008-.458.587-.14.008-.128.218-.14.008-.128.218-.206.082c-.116.094-.166.261-.33.37q-.007.492-.014.983l-.07,0,.1.486-.07,0-.046.424-.07,0,.012.21-.07,0-.054.284-.07,0,.008.14-.136.078.008.14-.07,0,.068,1.189-.07,0,.012.21-.07,0,.012.21-.07,0,.012.21-.07,0,.012.21-.07,0-.116.427-.07,0,.1.556-.07,0Zm2.385-1.259.07,0-.008-.14.07,0q.019-.282.038-.564l.07,0-.008-.14.2-.152c.089-.159.046-.377.108-.567l.07,0-.012-.21.07,0q.013-.387.026-.773l-.07,0-.012-.21-.07,0,.1-.638.07,0-.008-.14.466-.448-.008-.14.136-.078-.008-.14.4-.374c.2.041.175.077.292.194l.07,0,.082.206.14-.008,0,.07.14-.008.152.2.07,0,.094.416.07,0,.246.618.07,0c.068.16-.054.377-.046.424l.07,0,.024.42.07,0,.016.28.07,0,.028.49.07,0,.086.276.07,0,.437,1.519-.07,0,.008.14-.07,0-.116.427-.136.078-.054.284-.07,0,.024.42-.606.456-.14.008,0,.07a1.743,1.743,0,0,0-.446.8c-.434.033-.852.067-1.061-.15-.322-.068-.363-.283-.521-.532l-.07,0-.008-.14-.07,0c0-.07-.008-.14-.012-.21l-.144-.062-.09-.346-.07,0-.012-.21-.07,0-.086-.276-.07,0-.016-.28-.07,0Q216.272,2028.094,216.284,2027.673Z" transform="translate(-213.829 -1974.525)" fill="#26333b" fill-rule="evenodd"/>
        <path id="パス_28964" data-name="パス 28964" d="M274.5,2021.437l-.144-.062-.008-.14-.07,0-.008-.139-.07,0-.008-.14-.07,0-.008-.14-.07,0-.008-.14-.07,0-.012-.21-.07,0-.008-.14-.07,0c0-.047-.005-.093-.008-.14l-.07,0-.082-.206-.218-.128c-.147-.239.046-.361-.032-.56l-.07,0c0-.047-.005-.094-.008-.14l-.292-.194-.008-.14-.07,0-.008-.14c-.027-.038-.1-.049-.148-.132a6.753,6.753,0,0,1-1.341-.134,1.642,1.642,0,0,0-1.037.27l-.774-.026,0,.07-.14.008,0,.07-.14.008c0,.024,0,.047,0,.07l-.14.008-.132.148-.14.008,0,.07-.206.082-.062.144-.14.008-.446.8c-.226.261-.782.68-.854,1.031a6.691,6.691,0,0,0-1.084.693l.012.21-.07,0,.008.14-.136.078q-.087.32-.174.642c-.289.094-.24.249-.4.443l-.268.226.008.14-.136.078-.058.214-.07,0,.008.14-.2.152-.236.786-.136.078q.024.42.048.84l-.07,0,.008.14-.2.152.012.21-.07,0c-.178.651.437.975.3,1.527l-.07,0,.012.21-.07,0,.012.21-.07,0q.028.489.056.979l-.07,0-.054.284-.07,0c-.109.368.174.646.258.828l.094.416.809.656.14-.008.078.136.14-.008.226.268.354.05,0,.07a2,2,0,0,0,1.235-.491l.128-.218.346-.09,0-.07c.136-.035.6.131.843.022l0-.07.14-.008.458-.588.14-.008.062-.144.753-.323.062-.144.14-.008.062-.144.14-.008.062-.144.268-.226.194-.292.14-.008.132-.147.14-.008,0-.07.14-.008,0-.07.14-.008,0-.07.14-.008.062-.144.14-.008.52-.731.07,0,.062-.144.14-.008.524-.661.2-.152-.008-.14.132-.148-.008-.14.07,0-.008-.14.07,0-.008-.14.07,0,.054-.284.136-.078-.008-.14.07,0q.017-.317.034-.633l.07,0,.054-.284.07,0-.012-.209.07,0-.032-.56c-.04-.722-.205-1.678.164-2.044A.946.946,0,0,0,274.5,2021.437Zm-2.061,2.012q.022.385.044.77l-.07,0,.012.21-.136.078.008.14-.07,0q-.021.247-.042.494l-.136.078.008.14-.136.078-.054.284-.136.078c0,.046.005.093.008.14l-.07,0,.008.14-.132.148.008.14-.136.078-.326.439-.14.008-.59.735-.14.008-.26.365-.412.164-.062.144-.14.008-.326.439-.14.008-.062.144-.276.086,0,.07-.14.008,0,.07-.412.164,0,.07-.416.094,0,.07a1.051,1.051,0,0,1-.568-.108l-.078-.136-.14.008-.152-.2-.07,0,0-.07c-.059-.08.006-.007-.074-.067l.1-.637.2-.152c.014-.165.028-.329.042-.493l.07,0-.008-.14.136-.078a1.622,1.622,0,0,0-.048-.839l-.07,0-.086-.276-.292-.194c-.119-.11-.151-.252-.3-.334a.676.676,0,0,1,.178-.572l.07,0-.008-.14.136-.078-.008-.14.334-.3-.008-.14.532-.521c.055-.09.036-.293.12-.358l.21-.012.524-.661.14-.008.062-.144.334-.3q.027-.142.054-.284l.136-.078-.008-.14.136-.078-.008-.14.07,0-.008-.139.206-.082.128-.218.14-.008.062-.144.416-.094,0-.07.276-.086,0-.07.21-.012,0-.07c.2-.115.409-.141.544-.312l.28-.016,0,.07.07,0,.1.486.07,0,.164.412.07,0c.007.116.013.233.02.349l.07,0,.008.14.144.062.008.14.07,0,.024.42.07,0,.126.975Z" transform="translate(-252.319 -1973.201)" fill="#26333b" fill-rule="evenodd"/>
        <path id="パス_28965" data-name="パス 28965" d="M253.811,2133.829q0-.07.008-.139l-.6-.6-.112-.5-.136-.078q0-.07.008-.14l-.136-.078c0-.047.005-.094.008-.14l-.2-.152-.05-.354-.07,0c0-.047.005-.093.008-.139l-.136-.078-.054-.283-.466-.448c0-.047.005-.093.008-.14l-.132-.148q0-.07.008-.14l-.136-.078-.054-.284-.2-.152q0-.07.008-.14l-.136-.078q0-.07.008-.14l-.136-.078-.054-.284-.07,0,.008-.14-.07,0-.116-.428-.07,0q-.023-.212-.046-.424l-.136-.078.008-.14-.136-.078c0-.047.005-.094.008-.14l-.136-.078-.326-.439-.268-.226.043-.77-.07,0q0-.07.008-.14l-.136-.078c0-.047.005-.093.008-.14l-.136-.078c0-.07.008-.14.012-.21l-.07,0q0-.07.008-.14l-.07,0,.008-.139-.136-.078-.054-.284-.136-.078-.415-1.357-.136-.078.008-.14-.2-.152c0-.047.005-.093.008-.14l-.136-.078c0-.046.005-.093.008-.14l-.136-.078c0-.046.005-.093.008-.14l-.07,0c-.015-.141-.031-.282-.046-.423l-.07,0c0-.047.005-.094.008-.14l-.136-.078-.1-.637-.2-.152c0-.047.005-.093.008-.14l-.07,0-.116-.428-.07,0,.012-.21-.07,0c.005-.093.01-.187.016-.28l-.07,0c.027,0-.92-4.333-1.02-4.729a24.8,24.8,0,0,1-.932-5.486l-.07,0,.012-.21-.07,0,.008-.14-.07,0-.031-.7-.07,0,.012-.21-.07,0,.012-.21-.07,0,.117-.836-.07,0q.014-.876.028-1.753l.051-.909-.07,0c0-.047.005-.094.008-.14l-.07,0c0-.047.005-.093.008-.14l-.136-.078q.116-2.064.232-4.127c.113-2.012.035-3.959.272-6.033.085-.744.773-3.052.414-3.683l.07,0q.006-.105.012-.21l.07,0,.105-.626.07,0,.012-.21.07,0,.012-.21.07,0,.031-.56.07,0,.016-.28.07,0,.09-.346.07,0a1.652,1.652,0,0,0-.093-.847l-.07,0c0-.047.005-.094.008-.14l-.07,0-.058-.214c-.181-.163-.413-.169-.54-.381l-.56-.031,0,.07-.14-.008-.152.2-.14-.008-.078.136c-.223.134-.438.17-.583.388l-.14-.008a.621.621,0,0,1-.156.272l-.07,0c0,.07-.008.14-.012.21l-.07,0q-.065,1.154-.13,2.308l-.144.063c0,.047-.005.093-.01.14-.375-.021-.5,2.662-.531,2.947-.2,1.6-.393,3.194-.491,4.8-.083,1.365.223,2.763.149,4.064l.07,0-.067,1.189a4.373,4.373,0,0,1-.017,1.543l-.07,0c-.337-.017.5,4.992.562,5.344.088.5,1.12,7.1,1.4,7.117l.07,0-.008.14.07,0-.012.21.07,0q0,.561.007,1.123l.07,0,.116.427.07,0-.055.979.07,0q0,.07-.008.14l.136.078.093.847.07,0-.012.21.07,0-.008.139.07,0-.012.21.07,0,.054.284.07,0,.1.707.07,0,.054.283.07,0,.054.284.136.078.054.284.136.078q0,.069-.008.14l.2.152.054.284.136.078.108.568.4.373.1.638.07,0c0,.047-.005.094-.008.14l.136.078c0,.047-.005.094-.008.14l.07,0-.012.21.07,0,.116.428.07,0-.008.14.07,0,.054.284.136.078.19.361.14.008.062.144.268.226c0,.047-.005.093-.008.14l.07,0-.012.21.07,0,.031.7.07,0-.008.14.2.152-.008.14.136.078.175.641.136.078c0,.047-.005.093-.008.14l.07,0q-.01.175-.02.35l.4.374-.008.14.136.078.054.284.268.225-.008.14.136.078q0,.07-.008.14l.07,0c0,.046-.005.093-.008.14l.07,0c-.005.093-.01.186-.016.28l.07,0,.116.428.07,0-.008.14.07,0-.012.21.07,0c0,.046-.005.093-.008.14l.136.078.054.284.136.078.058.214.07,0q.027.142.054.284l.2.152c0,.046-.005.093-.008.139l.466.448.058.214c.1.124.252.15.334.3l1.259.071,0-.07.284-.054,0-.07.366-.26c.072-.319.122-.421-.031-.7l-.136-.078.055-.979Z" transform="translate(-235.465 -2025.384)" fill="#26333b" fill-rule="evenodd"/>
      </g>
      <path id="パス_28966" data-name="パス 28966" d="M301.638,2113.958l-.208-.031.01-.069-.267-.11.01-.069-.208-.031.01-.069-1.525-.228-.01.069-.437.077c0,.023-.007.046-.01.069l-.762-.114-.01.069-.277-.042-.011.07-.208-.031-.01.069c-.373.071-.855-.176-1.258-.117l-.01.069-.277-.042-.01.069-.288.028-.01.07-.7-.035-.01.069-.437.077-.01.07-.555-.083-.01.069-.139-.021-.17.187-.139-.02-.09.128-.288.028-.01.069-.5,0-.01.07-.139-.021-.09.128-.139-.021-.17.187-.288.028-.01.069-.277-.042-.09.128-.139-.021-.09.128-.138-.021-.09.128-.138-.021-.09.128-.288.028-.09.128-.218.038-.249.246-.436.077-.09.128-.138-.021-.01.069-.357.017-.09.128-.288.028-.01.069-.149.049-.031.208-.308.167-.01.069-.139-.021-.09.128-.139-.021-.727.6-.388.225q-.01.069-.021.138l-.149.049q-.011.069-.021.138l-.388.225-.02.139-.627.4-.021.139-.308.166-.021.139-.149.048-.021.139-.229.107-.021.139-.467.284-.2.4-.149.048-.021.138-.069-.01q-.01.07-.021.138l-.706.461-.111.267-.069-.01-.021.139-.159.118-.021.139-.149.049-.2.4-.308.166-.031.208-.149.048c-.007.046-.014.093-.021.139l-.069-.01-.021.138-.149.049-.111.267-.149.049-.142.475-.149.048-.021.139-.149.048-.021.139-.229.107-.052.346-.069-.01-.111.267-.069-.01-.021.138-.149.049c-.007.046-.014.092-.021.138l-.229.108-.2.395-.149.048-.232.6-.229.108-.408,1.781-.069-.01-.041.277-.069-.01-.031.208-.069-.01-.041.277-.069-.011-.111.267-.069-.01-.131.405-.149.049c-.007.046-.014.092-.021.138l-.069-.01-.173.683-.069-.01-.2.4-.069-.01-.031.208-.149.048c-.007.047-.014.092-.021.139l-.069-.011-.021.139-.069-.01-.152.544.069.011-.083.554-.229.108-.021.138-.069-.01-.072.485-.069-.01-.031.208-.069-.01-.021.138-.069-.01-.232.6-.069-.01q-.011.069-.021.139l-.149.049-.031.208-.069-.01-.539,2.186-.069-.01-.052.347-.069-.01-.041.277-.069-.01a1.279,1.279,0,0,0-.232.6,10.593,10.593,0,0,1-.681,2.661l-.331,2.217-.29,1.94c.059.349.361.619.42.984q-.187,1.247-.373,2.494l.069.01-.031.208.069.01q.014.144.028.288l.069.01q-.041.278-.083.554l.069.011-.031.208.069.01.028.288.069.01c.076.328-.193.956-.1,1.119.044.283,0,.09.177.239l-.01.07.139.02-.01.069.139.021-.01.069.128.09-.021.138.128.09.191,1.092c.031.211-.091.393-.013.565l.61.657-.021.139.069.01-.031.208.069.01-.031.208.069.01.076.437.069.01-.021.139.069.01c.009.1.019.191.028.287l.128.09-.021.138.718.886.565.014.09-.128.139.021.01-.069.426-.007.01-.069a1.256,1.256,0,0,0,.429-.5c.014-.093.027-.185.041-.278l.069.01.2-.4.069.011.245-2.585.069.01.3-2.009.069.01.062-.416.069.011.166-1.109.069.01.041-.277.069.01.062-.416-.069-.01c-.017-.2.179-.484.232-.6q.012-.317.024-.634l.069.01.2-.395.069.01.442-2.484a28.341,28.341,0,0,1,1.438-3.827,37.641,37.641,0,0,1,2.259-3.986,64.4,64.4,0,0,1,3.359-5.712c.674-1.042,2.245-2.737,2.409-3.834l.308-.167.021-.138.149-.049.111-.267.149-.049.021-.138.069.01c.007-.046.014-.092.021-.139l.229-.107.021-.139.547-.343c.007-.047.014-.092.02-.139l.149-.048.021-.139.069.01.031-.208.149-.049.021-.139.149-.048.02-.139.149-.048.111-.267.388-.225.09-.128.139.021.09-.128.069.01.021-.138.159-.118.021-.139.069.01q.01-.069.021-.138l.069.01q.01-.069.021-.138l.069.01.021-.138.149-.049.1-.2.069.01a.732.732,0,0,0,.26-.315,1.8,1.8,0,0,0,.6-.194l.139.02.09-.128.139.021.329-.305.149-.049.021-.138.149-.049.021-.138.069.01.111-.266.308-.167.09-.128.139.021.09-.128.218-.038.01-.069.288-.028.419-.433.139.021.17-.187.139.021.17-.187.627-.4.021-.138.308-.167.021-.139.388-.225c.007-.046.014-.093.021-.138l.627-.4.021-.138.229-.108.09-.128.139.02.09-.128.069.01.211-.465.069.01.09-.128.139.021.329-.305.139.021.09-.128.308-.167.021-.138.149-.049.111-.266.069.01q.01-.069.021-.139l.069.01.021-.138.069.01.021-.139.069.01.072-.485-.4-.627-.336-.121-.048-.149-.336-.121Zm-2.767,1.924c-.1.061-.093.107-.169.188l-.069-.01-.031.208-.547.344-.09.128-.139-.021-.09.128-.388.225-.021.139-.069-.01-.021.138-.069-.01-.09.128L296,2118l-.121.336-.707.461-.09.128-.139-.02-.409.364-.437.077-.09.128-.139-.021-.17.188-.139-.021-.159.118-.021.138-.866.579c-.007.046-.014.092-.021.139l-.308.166-.021.138-.229.107-.01.069-.139-.021-.249.246-.069-.01-.021.139-.149.048-.021.139-.149.048q-.011.069-.021.139l-.149.048-.132.406-.069-.01-.17.187-.139-.021-.09.128-.308.166c-.007.047-.014.093-.021.139l-.149.048-.111.267-.069-.01-.1.2c-.369.043-.3.244-.5.492l-.069-.01-.021.139-.218.038-.159.118-.021.139-.149.048q-.026.174-.052.347l-.069-.01-.021.139-.149.048q-.01.069-.021.138l-.229.108-.02.139-.149.049-.121.336-.547.344-.021.138-.16.118c-.007.046-.014.092-.021.138l-.149.049-.152.544-.069-.01-.2.4-.069-.01-.021.139-.149.048c-.007.046-.014.092-.021.139l-.149.048-.021.139-.149.048-.2.4-.229.108-.021.138-.149.049-.2.4-.149.049-.121.336-.149.049c-.007.046-.014.092-.021.138l-.069-.01-.083.554-.069-.01-.111.267-.069-.01-.02.138-.149.049-.021.139-.149.048c-.007.047-.014.093-.021.139l-.069-.01-.083.554-.069-.01-.021.139-.149.048-.021.139-.159.118-.021.138-.069-.01-.021.138-.149.049-.152.544-.069-.011-.111.267-.069-.01-.142.475-.069-.01-.021.139-.467.284c-.114.129-.039.3-.142.475l-.069-.01-.021.139-.229.107-.111.267-.069-.01-.107,1.189-.069-.01-.111.267-.069-.01-.2.891-.069-.01-.111.267-.069-.01-.1.693-.069-.01-.031.208-.149.049-.021.138-.069-.01-.183.752-.07-.01c-.471-.065-1.22,3-1.32,3.339-.107.357-.948,4.554-.919,4.545l-.149.048-.021.139-.229.107-.2,1.316.069.01-.021.139.069.01c.022.2-.231.406-.291.524l-.062.416-.069-.01c-.1.219-.016.485-.162.613l-.1.2c-.55-.15-.788-.8-1.251-1.108,0-.153-.083-.294,0-.5l.069.011.114-.762-.069-.011.031-.208-.069-.01-.028-.288c-.488-.074,1.09-9.968,1.411-9.92l-.069-.011.183-.751.069.01.021-.138.069.01.031-.208.069.011.013-.565.069.011.152-.544.069.01.093-.624.069.01.3-.593.229-.108.031-.208.069.01.148-1.466.069.01.111-.267.069.01.041-.277.069.01c-.136-.02,2.72-5.139,2.943-5.5s1.1-2.017,1.456-2.133l.111-.267.149-.049.021-.139.069.01c-.359-.054,1.979-2.012,2.09-2.1.6-.489,1.961-1.309,2.09-2.162l.021-.138.537-.274.121-.336.727-.6.138.02.09-.128.288-.028.568-.482.139.021.249-.246.139.021.966-.777.139.02.09-.128.714-.035.09-.128.139.021.17-.187.139.021.09-.128.139.021.01-.07.138.021.01-.069.208.031.011-.07.138.021.01-.07.347.052.01-.069.437-.077.01-.069.208.031.01-.069.5,0,.169-.187.832.124.01-.069.139.021.17-.187.97.145.01-.07.139.021.01-.069c.195-.05.417.044.575-.055a2.443,2.443,0,0,1,.752.183Z" transform="translate(-139.493 -221.857)" fill="#26333b" fill-rule="evenodd"/>
      <path id="パス_28967" data-name="パス 28967" d="M112.87,2193.39c.8.326,1.582.678,2.347,1.065.454.229,1.653,1.306,2.195,1.156l.135-.037c.052.017.073.076.172.1l.037.135a1.52,1.52,0,0,1,.652.256l.018.068a3.722,3.722,0,0,1,.547.14l.363.263.2-.056.019.068.135-.037.019.068.135-.037.1.116.135-.037.191.166.135-.037.1.116.135-.037.019.067.326.128.21.233.135-.037,1.483.9.037.135.154.03.037.135.068-.019.037.135.068-.019.161.319.24.079.019.068.135-.037.191.165.135-.037.277.214.068-.019.037.135.154.03c.112.1.184.4.284.5l.566.207.142.251.154.031.123.184.068-.018.142.251.738.305c.3.176.369.508.794.508a1.7,1.7,0,0,0,.524.583l.135-.037.1.116.24.08.037.135.24.08.019.067.135-.037.172.1.037.135.757.373.037.135.24.079.037.135.154.031.142.251.24.079.037.135.221.012.191.165.135-.037.536.361.24.079.037.135.24.079.056.2.068-.019.037.135.067-.019.037.135.068-.019.037.135.068-.019.142.252.652.257.247.368.154.03.037.135.326.128.056.2.068-.018.149.54.068-.019c.22.313.172.558.591.564.176.086.386-.1.626-.1l.019.067c.458,0,.88-.43,1.074-.586l.2-.056-.019-.068.135-.037-.019-.067.2-.056-.018-.068.165-.191a5.93,5.93,0,0,0-.919-1.491l-.174-.9-.068.019-.075-.27-.068.018-.037-.135-.154-.03-.056-.2-.068.019-.335-1.216-.154-.03-.161-.319-.067.019-.316-1.148-.068.019-.142-.251-.412-.177-.037-.135-.24-.079-.261-.946-.068.019-.142-.252-.24-.08-.037-.135-.068.019-.037-.135-.068.019-.056-.2-.068.019-.056-.2-.24-.079-.037-.135-.154-.03-.247-.368-.154-.03-.037-.135-.068.019c-.131-.141-.088-.413-.235-.59l-.154-.03-.037-.135-.068.019-.037-.135-.068.019-.179-.387-.154-.031-.037-.135-.154-.03-.037-.135-.173-.1-.135.037-.019-.067-.24-.08-.247-.368-.154-.03-.179-.387-.068.019-.247-.368-.068.019-.037-.135-.068.019-.037-.135-.068.019-.037-.135-.068.018-.037-.135-.068.018-.037-.135-.068.018-.037-.135-.068.019-.142-.251-.068.019c-.18-.251-.124-.723-.328-.927l-.929-.471-.161-.32-.154-.03-.037-.135-.068.019-.037-.135-.068.019-.056-.2-.068.019-.037-.135-.068.019-.056-.2-.154-.031-.037-.135-.068.019-.321-.638-1.1-.569-.468-.379-.16-.32-.757-.373-.037-.135-.154-.031-.142-.251-.068.019a2.017,2.017,0,0,1-.437-.534l-.135.037-.622-.41-.154-.031c-.52-.1-1.689-1.5-2.269-1.873a38.014,38.014,0,0,0-4.462-2.423,21.389,21.389,0,0,0-4.732-1.524,34.921,34.921,0,0,0-9.859-.421c-.17.014-3.332.637-3.248.944l.019.067c.057.208-2.794,1.469-3.089,1.674-.85.594-4.632,4.063-2.076,4.908l.123.184.326.128.352.485.135-.037.019.067.811-.223.018.068.443.023.019.068.27-.075.018.068.135-.037c.344-.095.871.481,1.156.534a18.737,18.737,0,0,0,2.471-.013,39.861,39.861,0,0,1,4.57.346,42.924,42.924,0,0,1,8.279,2.134Q112.077,2193.068,112.87,2193.39Zm-1.407-2.788c-.169-.068-.329-.138-.474-.208a21.781,21.781,0,0,0-5.218-1.615,24.552,24.552,0,0,1-2.928-.42l-.019-.068-.289.007-.019-.067-.2.056-.019-.068-.405.112-.1-.116-.356.026-.019-.068-.743.2-.1-.116-.135.037-.019-.068-.135.037-.018-.068-.338.093-.1-.116-.135.037-.019-.068-.135.037-.018-.067-.356.026-.1-.117-.289.007-.018-.067-.608.167-.1-.116-.135.037-.363-.264-.135.037-.019-.067-.86.309-.019-.068-.289.007-.1-.117-.356.025-.019-.067-.2.055-.018-.067-.135.037-.019-.068-.2.056-.019-.068c-.3-.018-.4.162-.645.032-.12-.037-.151-.1-.258-.147l-.074-.27.068-.019-.037-.135.466-.419-.019-.067.522-.217.031-.154.135-.037-.019-.068.135-.037.1-.172.135-.037.031-.154.135-.037-.019-.068c1.2-.329,2.059-1.068,3.281-1.312.228-.045,3.436-.948,3.5-.7l.2-.056.019.067.2-.056.019.068.27-.074.019.068.443.023.018.068.792-.291.019.067.54-.148.019.067.473-.13.019.067.289-.007.019.067.2-.055.019.067.559-.081,1.353.427.676-.186.019.068.135-.037.1.116.566.208.492-.063.019.067.443.024.019.067.338-.093.1.116.135-.037.363.263.135-.037.1.116.221.012.037.135.154.031.037.135.326.128.019.067.135-.037.1.116c.143.159,1.595.4,1.929.56,1.023.5,2,1.155,2.974,1.747a47.013,47.013,0,0,1,4,2.672c1.126.858,1.584,1.749,2.867,2.391l.037.135.154.03.037.135.154.03.037.135.154.03.056.2.068-.019.075.27.068-.018.16.319.068-.019.037.135.068-.019.037.135.5.226.16.319.154.03.247.368.068-.018.247.368.068-.019.179.387.154.03.037.135.068-.018.216.522.068-.019.037.135.154.031.037.135.068-.019.112.405.068-.019.037.135.068-.019.037.135.068-.019.037.135.172.1.037.135.154.031.363.263.584.275c.084.115-.062.44.1.626l.24.079.037.135.068-.019.037.135.068-.019.056.2.068-.019.056.2.068-.019.056.2.068-.019.056.2.068-.019.142.251.068-.018.235.589.566.208.161.319.154.031a1.86,1.86,0,0,1,.4.908.688.688,0,0,1-.652-.256l-.056-.2-.412-.177-.363-.263-.154-.03-.037-.135-.24-.079-.037-.135-.135.037-.191-.165-.929-.471-.037-.135-.5-.226-.037-.135-.154-.03-.093-.338-.068.019-.037-.135-.757-.373-.037-.135-.154-.03-.019-.068-.135.037a.76.76,0,0,0-.3-.282l-.068.019-.037-.135-.154-.03-.142-.252-.154-.031-.037-.135-.412-.177-.161-.319-.068.019-.1-.117-.135.037-.277-.214-.068.019-.037-.135-.154-.03-.037-.135-.154-.03-.037-.135-.068.019-.037-.135-.172-.1-.037-.135-.24-.079-.622-.41-.135.037-.1-.117-.135.037-.019-.067-.135.037-.019-.067-.135.037-.019-.068-.135.037-.173-.1-.135.037-.019-.068-.412-.177c-.144-.112.05-.089-.191-.165l-.037-.135a2.218,2.218,0,0,1-1.15-.483l-.142-.251-.154-.031-.449-.312-.135.037-.1-.116-.068.019-.363-.263-.154-.03-.123-.184-.135.037-.1-.116-.442-.023-.191-.166-.135.037-.1-.116-.424.044-.019-.068-.135.037-.1-.117a2.2,2.2,0,0,0-.9.174l-.3-.571-.154-.03-.018-.068-.135.037-.191-.165-.135.037-.277-.215-.135.037-.1-.117-.443-.023-.535-.361A16.369,16.369,0,0,0,111.462,2190.6Z" transform="translate(0 -273.988)" fill="#26333b" fill-rule="evenodd"/>
    </g>
  </g>
</svg>
