<svg xmlns="http://www.w3.org/2000/svg" width="90.154" height="82.966" viewBox="0 0 90.154 82.966">
  <g id="イラストL" transform="translate(-3156.352 -3620.456)">
    <g id="グループ_5335" data-name="グループ 5335">
      <g id="パス_28936" data-name="パス 28936">
        <path id="パス_28987" data-name="パス 28987" d="M3171.362,3659.955l-3.976-3.661-2.893-4.748-2.056-5.179-2.539-4.954-2.481-4.976-.767-.92-.084-1.206-.214-1.188.852-.856.74-.966,5.05-2.247,5.02-2.312,5.3-1.575,5.092-2.145,5.188-1.9.971-.666,1.168.1,1.168-.1.809.844.9.744,2.074,4.386,2.292,4.279,1.6,4.583,2.062,4.391,1.6,4.582.759,1.139.009,1.361.21,1.347-.849,1.047-.913,1.008-5.276,1.82-5.018,2.444-5.261,1.859-5.145,2.164Zm-5.935-13.3.617,1.953,1.269,1.785.883,2,1.4,1.681.89,2.005,2.215.437,2.3-.177,2.091-1.018,2.246-.584,2.062-1.049.461.1.192-.438.4-.227-.392-.289.057-.479-.741-.781-.205-1.057-.686-.83-.132-1.069-.623-.864-.271-1.374-.678-1.231-.143-1.4-.8-1.151-.757-1.283-2.261,1.285-2.468.759-2.243,1.279-2.476.762Zm24.795-14.071-.281-1.659-.995-1.519-.624-1.7-1.154-1.4-.606-1.712-.522-.316-.114-.6-.573.077-.561-.174-.428.435-1.768.3-1.58.849-1.765.315-1.582.846-1.743.289-.9,2,.546,2.5,1.359,2.189.922,2.407,1.106,2.129,2.354-.788,2.142-1.311,2.381-.8,2.142-1.311Z" fill="#26333b"/>
      </g>
    </g>
    <g id="グループ_5336" data-name="グループ 5336">
      <g id="パス_28939" data-name="パス 28939">
        <path id="パス_28988" data-name="パス 28988" d="M3216.149,3667.321l1.558-1.586,1.58-1.733,2.246-.614,2.321-.136,2.079,1.26,1.781-1.76,2.3-.709,2.374-.317,1.929,1.41,1.6,1.79-.031.493.477-.029.333.34.388-.291.421.255,2.315.066,1.532,1.755,1.127,2.047-.283,2.323-.583,2.161,1.362,1.744,1.388,1.834-.075,2.287-.113,2.283.235,2.266,1.314,1.107.376,1.649.407,1.642-.663,1.556-.637,1.567-.253-.141.173.233-.25-.147.167.237-.238-.16-.933,1.539-1.181,1.355-.8,1.618-1.561.848-1.678.571-.861-.276-.889.2-.87-.294-.736.52-.827.37-1.077,1.337-1.706.206-1.688.327-1.721-.168-1.388.966-1.918,1.275-2.056,1.026-2.2-.7-2.214-.656-2.086-1.033-2.58.033-2.223-1.218-1.535-1.975-.025-2.581-1.667-1.649-1.436-1.274-1.43-1.247-.5-1.832-.581-1.808.358-1.9-1.443-1.416-1.464-1.383-1.427-1.415-.021-2.013.051-2.022.814-1.516.745-1.552,1.543-.79,1.33-1.073,1.078-1.274.514-2.668,2.1-1.709,2.486-1.088,2.656.581Zm21.943,27.46.7.219.535-.476.689-.2.063-.716.4-.608-.236-.6.456-.446.091-.632.617-.161.385-.5,1.165-.47.307-1.209.2-1.232-.837-.938-.76-.994-.877-.294-.436-.8-.407-.781.578-.731.139-.915.993-1.886-.51-2-1.407-1.527-1.976-.823-.068-1.961.541-1.106.88-.912.132-1.253.2-1.241-.939-.824-.319-.456-.537.183-.507-.255-.39.412-.559.005-2.185.076-.98-2.219-1.531-1.8-2.167.2-1.4,1.974-.764.442-.5.726-.843-.153-.86-.073-.487-.731-2.554-1.076-2.37,1.321-1.283,2.576-2.34,1.192-2.312-1.549-1.257-1.113-1.653.306-1.551.658-.587,1.581-.319,1.646-.021,1.764-1.6.721-1.6.752-1.534.848-.3,1.754-.374,1.171.7.981.7.983,1.2.218,1.082.516,1.487,1.559-.591,2.262.08,2.3.894,2.07,2.221.613,2.17,1.007.3,2.444-.453,2.531,2.2.984,2.564.045,1.131-.475.843.85.942.742.688.995,1.2-.128,1.642-.269.825-1.472,1.143-1.215,1.4-.779,1.412.952,1.727.028,1.631-.441.818-1.541,1.306-1.066,1.624-.259.3.486.549-.073.369.413.524-.18.443.333h.008v0l.141-.144Z" fill="#26333b"/>
      </g>
      <g id="パス_28941" data-name="パス 28941">
        <path id="パス_28989" data-name="パス 28989" d="M3233.065,3680.579l-.523.781-.647.686-.9-.331-.9-.319.041-.954-.179-.512.472-.258.153-.515.533.068.427-.327.392.368.537-.013.1.528.443.3Z" fill="#26333b"/>
      </g>
      <g id="パス_28942" data-name="パス 28942">
        <path id="パス_28990" data-name="パス 28990" d="M3216.723,3677.808l-.516.727-.607.658-.849-.339-.879-.251-.074-.9.016-.95.928-.237.927-.254.595.732Z" fill="#26333b"/>
      </g>
      <g id="パス_28943" data-name="パス 28943">
        <path id="パス_28991" data-name="パス 28991" d="M3226.821,3691.2l-.376-.349-.51.047-.1-.5-.441-.261.217-.465-.2-.468.445-.247.106-.5.506.058.377-.342.38.344.51-.053.1.5.444.256-.211.467.208.469-.445.254-.107.5-.509-.056-.381.343,0-.283,0,.283,0-.283,0,.283Z" fill="#26333b"/>
      </g>
      <g id="パス_28944" data-name="パス 28944">
        <path id="パス_28992" data-name="パス 28992" d="M3221.632,3689.743l.363.4.533.023.058.531.418.332-.265.464.149.5-.478.216-.167.5-.515-.1-.426.31-.363-.4-.533-.023-.058-.531-.418-.332.265-.464-.148-.5.478-.215.167-.5.515.1Z" fill="#26333b"/>
      </g>
      <g id="パス_28945" data-name="パス 28945">
        <path id="パス_28993" data-name="パス 28993" d="M3224.071,3684.456l-.356-.4-.529-.027-.05-.528-.413-.332.27-.456-.157-.472.457-.2.123-.481.49.081.372-.338.692.578.646.629-.323.853-.289.861Z" fill="#26333b"/>
      </g>
      <g id="パス_28946" data-name="パス 28946">
        <path id="パス_28994" data-name="パス 28994" d="M3228.468,3672.156l.39.32.5-.087.127.488.454.221-.185.47.237.447-.425.271-.07.5-.5-.03-.351.363-.039-.282-.017.284-.028-.283-.027.283-.03-.284-.447.237-.271-.426-.5-.07.03-.5-.363-.351.32-.391-.087-.5.488-.127.221-.454.47.185.012-.284.033.283.022-.284.023.284Z" fill="#26333b"/>
      </g>
      <g id="パス_28947" data-name="パス 28947">
        <path id="パス_28995" data-name="パス 28995" d="M3223.429,3676l-.483.748-.527.72-.877-.2-.88-.175-.045-.9-.1-.9.851-.284.848-.308.628.636Z" fill="#26333b"/>
      </g>
      <g id="パス_28948" data-name="パス 28948">
        <path id="パス_28996" data-name="パス 28996" d="M3233.626,3685.205l.748.5.675.595-.314.857-.316.852-.908-.1-.485.153-.2-.469-.482-.161.117-.494-.295-.414.372-.3-.037-.476.475-.051.227-.421Z" fill="#26333b"/>
      </g>
      <g id="パス_28949" data-name="パス 28949">
        <path id="パス_28997" data-name="パス 28997" d="M3218.212,3686.544l-.369-.338-.5.064-.1-.492-.442-.24.207-.459-.223-.434.423-.242.06-.483.486.038.318-.365.8.413.738.51-.239.88-.236.877Z" fill="#26333b"/>
      </g>
    </g>
  </g>
</svg>
