<svg xmlns="http://www.w3.org/2000/svg" width="164.069" height="167.668" viewBox="0 0 164.069 167.668">
  <defs>
    <style>
      .cls-1 {
        fill: #26333b;
        fill-rule: evenodd;
      }
    </style>
  </defs>
  <g id="おもちゃ" transform="translate(-315.641 -349.869)">
    <g id="グループ_5307" data-name="グループ 5307">
      <g id="パス_28882" data-name="パス 28882">
        <path id="パス_28902" data-name="パス 28902" class="cls-1" d="M359.773,373.771l.323,3.174L361.355,380l.492,3.266,1.138,3.1.175,3.422,3.139-.495,3.037.216,3.017-.395,2.877.92,2.689,1.34.66,2.24.886,2.155-.053,2.34.724,2.222.036,2.34,1.079,2.919.294,3.1.923,2.971-.116,3.1.433,3.033,1.4,3.935,1.974,3.735.889,4.125,1.1,4.075-.5,4.065-3.956,1.152-4.193.6-4.05,1.252-4.232.076-4.344.171-1.372-6.471-1.472-6.37-.6-6.516-1.834-6.269-2.228-6.183-4.022-.767-3.985-.568-3.85,1.16-3.722,1.514-2.185,3.326-1.435,6.639,1.023,6.765.674,6.807.915,6.779-1.514,6.566-3.184.936-3.432.433-3.286,1.089-3.431-.248-3.324-.81-1.479-3.008-1.255-3.12-.162-3.37-.822-3.272-.048-3.372-.963-3.351-.23-3.478-1.023-3.339L318.4,419l-.923-3.358-.011-3.185-.726-3.107.27-3.168L316.9,403l1.3-2.836,1.731-1.327,2.191-.521,1.953-1.118,2.241-.222,1.938-.728-.186-3.544-1.1-3.477-.381-3.621-1.108-3.473-.208-3.717-2.032.232-1.918-.1-1.764.787-1.9-.229-2.011-.129.727-3.232,1-3.089,2.274-2.336,1.94-2.617,2.549-2.033,2.539-3.3,3.15-2.724,2.61-3.247,3.2-2.659,2.677-3.189,4.159-.687L346.656,351l3.514,2.6,3.778,2.2,3.31,2.85,3.544,1.517,3.127,2.233,3.44,1.727,2.72,2.7,1.939,3.2-2.068,1.611-2.442,1.1-2.7-.049-2.611.669Zm-18.929-21.2.377-.185-.411-.008.218-.34-.24.325-.3-.272.284.411-.428-.146-.034.449-.4-.222.142.489-3.065,2.088-2.295,2.91-2.722,2.507-2.073,3.067-2.73,2.495-1.674,2.185-2.291,1.539-1.636,2.215-1.928,1.967-.721,2.471,2.967-.1,2.98-.952,3.117-.256,2.937-1.062,3.11-.255,3.015-1.063,3.185-.332,3.02-1.07,3.2-.17,3.116-.725,3.869.429,3.882-.166,3.866.439,3.753-.96,3.744-1.474-5.712-3.171-5.061-3.945-5.551-3.208L347,354.945l-6.019-2.207.115-.379-.1.385.094-.386-.025.39Zm-12.961,25.547.131,3.547.955,3.415.309,3.536,1.328,3.284,1.128,3.507,5.678-1.938,5.871-.7,5.773-1.288,5.891-.512,5.625-1.468-.246-3-1-3.023-.341-3.169-1.306-2.9-.96-3.142-5.944-.213-5.892.035-5.708,1.5-5.806,1.032-5.639,1.723-.179-.335.28.281-.281-.28.111-.055Zm-7.789,24.528-.513,4.473.65,4.458.13,4.505,1.109,4.367.514,4.582,3.213-.859,3.167-.325,3.02-1.019,3.178.11,2.946.052.437-7.063,3.149-6.383,6.415-3.143,7.111-.887,6.708,2.473,1.422,1.931.612,2.407,1.193,2.178.279,2.468.8,2.188,2.729.2,2.8-.56,2.846.2,2.782-.653,3-.032-.363-5.228-.106-5.151-1.293-4.993-.832-5.085-1.732-4.686-11.314-.362-11.3,1.377-11.289,1.5L330.638,398.9l-10.817,3.547.2.34-.239-.316.238.317-.138.04Zm46,19.634-.05,3.271.976,3.129.334,3.253,1.111,3.077.276,3.389,3.559-.61,3.492-.136,3.317-1.1,3.466-.387,3.2-1.015-.151-2.913-1.213-2.813-.68-2.986-1.472-2.686-.673-3.107-3.221.607-3.151-.246-3.112.565-3.159-.089-2.989,1-.2-.33.282.279-.284-.278.13-.058Zm-43.4,5.929-.025,3.8.88,3.7.322,3.8,1.471,3.5,1.483,3.545,2.729-.037,2.655.215,2.544-.821,2.664-.18,2.345-.922.558-3.707-.663-3.779L339.5,433.5l-1.043-3.692-.224-3.922-3.338-.2-3.218-.347-3.118.886-3.2.506L322.6,428.4l-.275-.261.356.176-.356-.174.161-.109Z"/>
      </g>
    </g>
    <g id="グループ_5308" data-name="グループ 5308">
      <g id="パス_28883" data-name="パス 28883">
        <path id="パス_28903" data-name="パス 28903" class="cls-1" d="M426.686,459.421l-5.668-10.838L419.393,436.4l3.914-11.648,7.852-9.411,11.67-3.672,5.612-.318,5.5,1.2,5.544.98,5.12,2.337,5.038,2.5,2.866,4.476,2.686,4.591,1.6,5.081,2.074,4.91.836,5.223-.117,9.834-3.46,9.186-5.8,7.89-8.891,4.067-9.744,1.108-2.129-.825-2.242-.418-1.919-1.252-2.256-.3-2.207-.566-2.587,1.3-2.345,1.715-1.279,2.633-1.761,2.337-1.123,2.705-1.989,2.11-1.452,2.506-2.009,2.089-.988,2.71-.976,2.712.785,2.733.84,2.719,1.693,2.31.431,2.8.356,2.825-3.447,5.966-5.891,3.666-6.985.325-6.923-1-5.744-3.93-2-1.86-1.051-2.53-1.423-2.34-.325-2.72-.735-2.644.793-3.052.667-3.077,1.9-2.51,1.806-2.581,2.883-1.209,1.33-.614,1.41.447,1.44-.3,1.431.364,1.322-.65,2.92-1.569,1.726-2.9,2.069-2.669,1.243-3.147,1.917-2.778,1.275-3.163,1.98-2.777,1.291-3.155,1.984-2.771Zm50.426-17.136-.42-4.588-1.659-4.3-1.332-4.417-2.539-3.848-2.621-3.787-5.684-3.234-6.059-2.473-6.534-.5-6.547-.311-6.361,1.267.108,2.222.709,2.321.02,2.432,1.092,2.163.858,2.378,3.014-.778,3.017-.035,2.9-.806,3.017.039,3.035-.643,1.168,3.094.937,3.1-.136,3.253.713,3.168.451,3.3,2.873-.231,2.766.284,2.719-.616,2.783.126,2.814-.627.346,2.42.66,2.25-.186,2.35.806,2.2.831,2.276,1.654-1.438L477.6,448.6l-.149-2.139.3-2.122-.629-2.053.2-.221v0l.022.4Zm-48.944-19.278-.194,2.811,1.311,2.534.8,2.734,1.474,2.445.364,2.947,3.13-.313,3.042-.073,2.826-1.151,3.015-.365,3.065-.638,1.158,3.44,1.322,3.292.238,3.547.9,3.435.22,3.661,2.958-.632,2.883-.021,2.743-.887,2.878-.136,2.856-.877.437,2.53.867,2.283-.077,2.44.6,2.371-.228,2.532,1.58-.241,1.437.318,1.36-.556,1.444.246,1.306-.421.868-.858.164-1.323.819-1.053-.012-1.334.653-1.283-.962.421-.929-.094-.65.686-.9-.206-.978.142-.372-2.381-.842-2.217.1-2.368-.6-2.3.136-2.51-2.857.5-2.766-.267-2.728.529-2.765-.246-2.819.562-.932-3.229-.927-3.143.133-3.288-.594-3.227-.087-3.409-3.256.855-3.245.042-3.144.809-3.245.03-3.226.847-.972-2.764-1.049-2.636-.1-2.846-1-2.657-.827-2.825-1.168,1.49-1.631.568-1.22,1.206-1.5.843-.292,1.678-.2-.232v0l.033,0ZM422.241,439.3l-.2,4.282L423.2,447.7l1.051,4.15,2.56,3.42,2.837,3.022-.795,3.751-2,3.409-1.63,3.6-2.432,3.119-1.686,3.575-2.122,3.238-1.406,3.622-2.295,3.131-2.087,3.276-3.436,1.652-1.68.578-1.723-.478-1.757.274-1.763-.272-1.46,1-1.332.619-.553,1.373-1.047,1.043-.219,1.464-.853,1.207-.091,4.543.8,4.478,2.784,3.609,3.167,3.279,4.326,1.393,4.368.866,4.356-.9,4.252-1.3,2.938-3.3,1.679-4.068-.727-2.474-.794-2.452-1.739-1.941-.6-2.507-.624-2.511,1.122-3.123,1.183-3.1,2.225-2.485,1.715-2.851,2.28-2.421,1.183-2.688,1.794-2.32,1.223-2.669,2.195-1.926,2.275-1.823,2.3-.015h2.3l1.926,1.288,2.216.645,2.048,1.065,3.724,0L456.9,472l3.572-1.057,3.642-.792,3.075-2.082,1.207-.4.666-1.085,1.138-.573.412-1.2.5-1.208-1.442.332-1.359-.352-1.341.434-1.324-.461-1.483-.049.031-2.327-.476-2.217.394-2.244-.452-2.222.015-2.4-2.939.867-2.952.154-2.81.907-2.956.023-3.005.62-.752-3.6-.947-3.454,0-3.589-.87-3.475-.562-3.656-3.219,1.051-3.238.355-3.11.979-3.255-.11-3.334.292-.662-2.881-1.126-2.616-.329-2.835-1.226-2.57-.994-2.82-.583,2.9-1.131,2.543-.339,2.77-1.051,2.583Z"/>
      </g>
      <g id="パス_28884" data-name="パス 28884">
        <path id="パス_28904" data-name="パス 28904" class="cls-1" d="M418.885,506.515l-2.372,1.478-2.56,1.054-2.744-.468-2.77-.283-2.187-1.6-1.074-2.816.2-3.061.081-3.064,1.82-2.424,2.487-1.7,3.548.7,3.185,1.723,1.546,3.3,1.139,3.462Zm-10.551-1.754,1.78.716,1.913.064,1.79.682,1.686-.8,1.536-1.157-.987-3.948-2.679-3-3.939.448-2.195,3.217,1.256,3.9-.323.217.281-.281-.28.281-.057-.162Z"/>
      </g>
    </g>
  </g>
</svg>
