<svg id="たんぽぽ" xmlns="http://www.w3.org/2000/svg" width="109.46" height="105.618" viewBox="0 0 109.46 105.618">
  <g id="パス_27613" data-name="パス 27613" transform="translate(-107.924 -77.172)">
    <path id="パス_28073" data-name="パス 28073" d="M213.518,104.32l-.864.664-.171,1.064-.858.653-.178,1.063-.867.643-.148.927-.859.372-.367.861-.924.153-.565.746-.283-.309.068.413-.3-.294.087.41-.313-.279-1.067,1.049-1.481.216-1.24.838-1.495-.056-1.373.6-1.346-.29-1.278.51-1.344-.294-1.285.49-1.331-.33-1.454.339-1.376-.587-1.494.072-1.248-.825-1.476-.2-1.483-1.116-1.778-.551-1.269-1.362-1.654-.853-1.011-1.562-1.266-.853-.579-1.413-1.158-1-.412-1.47-1.035-1.125-.04-1.2-.681-.985.219-1.178-.455-1.109.465-1.107-.232-1.36.664-1.206,0-1.376.856-1.078.228-1.359.778-.572.083-.961.784-.561.107-.959.8-.531-.054-.61.6-.124-.006-.615.611-.079.037-.611.764-.219.2-.772.771-.2.211-.769.773-.2.374-.891.938-.224.517-.814.963-.063.647-.716.964.068.684-.681.962.07.683-.683.964.064.406-.56.645.25.49-.489.6.348.558-.405.356.414.415-.358.3.458.459-.3.229.493,1.806.3,1.5,1.046,1.8.312,1.5,1.054,1.8.313-.059.4.237-.336-.076.4.259-.319-.1.4,1.094.173.674.879,1.086.217.639.906,1.08.264,1.218,1.529,1.651,1.042.968,1.695,1.473,1.282.7,1.823.653.353-.08.738.619.41-.144.728.579.46-.143.95.525.808-.382.884.3.916-.6.754.19.717-.561.487.21.714-.566.481.173.723-.6.436.119.733-.623.407.1.736-.629.423.3-.1-.182.357.21-.341-.173.362Zm-13.383-7.193.662-.384-.223-.732.4-.653-.546-.535.033-.768-.8-.369-.228-.852-.856-.174-.565-.667-.815.325-.093-.407-.231.346.026-.419-.252.333-.03-.417-.3.359-.2-.426-.28.377-.223-.412-.244.394-.89-.269-.679.64-.932.038-.432.827-.865.335-.126.751-.707.309.1.757-.476.6.511.576-.379.129.4-.016-.4.031.393.079-.395-.067.29.62-.321.6.585.369-.042.685.657.23.034.668.664.01.316.584.6-.279.535.39.452-.451.544.339.447-.46.548.332.445-.463,1.1.164.782-.786,1.072-.281.41-1.03.875-.681-.291.082.219-.335-.22.334.225-.33Zm-11.142-5.073.161.4.136-.41.224.37.067-.427.3.321-.164-.389.423.021-.353-.239.416-.1-.393-.154.382-.19-.421-.084.349-.25-.429-.02.313-.29-.842-1.046-.1-1.341-.846-1.045-.113-1.34-.867-1.025.146-.593-.58-.206.085-.61-.6-.15.033-.607-.435.1.019-.453-.31.33-.25-.378-.058.45-.242-.32.2.346-.271-.3.234.326-.276-.287-.133.6-.616-.022-.1.607-.616.008-.072.611-.8.239-.1.8-.375.688.748.368.224.793,1.275.661.734,1.234,1.285.643.743,1.229,1.286.642-.129.417.381-.211-.1.425.374-.223-.09.432.056.03.13-.378-.131.378.264-.181Zm2.6-12.014-.12-.4-.1.4-.158-.387-.064.413-.209-.366-.29.52-.544-.234-.276.523-.548-.225-.269.528-.593-.182-.13.58-.491.314.473.4-.228.574.418-.037-.31.282.414-.068-.3.294.414-.067-.021.876.7.527-.021.876.7.528-.022.875.643.418-.082.763.642.42-.079.763.647.414-.25.4.468.014-.119.455.391-.246.224.406.115-.454.469.01-.318-.368.412-.257-.415-.263.267-1.466-.532-1.392.262-1.467-.539-1.389.25-1.47-.449-.282.328-.412-.464-.248.3-.43-.479-.221.318-.255-.377.163.233-.338-.362.2.235-.34-.221.314.13-.378-.131.378-.136-.2Zm5.214,7.9.185-.355-.225.331.186-.354-.227.33.268-.11.072-1.058.8-.721.077-1.072.795-.723.072-1.072.454-.033-.286-.354.451-.065-.31-.334.442-.085-.34-.3.37-.264-.452-.05.145-.431-.4.226.118-.383-.15.371.094-.389-.126.38.1-.384-.612.177-.3-.563-.613.179-.316-.555-.6.2-.178-.473-.4.308-.217-.458-.377.338-.25-.438-.292.388-.388-.291.1.462-.445.172.408.273-.337.486.463.37-.325.5.462.372-.341.483.487.8-.316.877.479.8-.312.879.493.788-.342.369.457.217-.308.4.473.177-.27.43.416-.088-.122.4.275-.322.139.4.033-.421.216.338-.179-.359.263.3L196,88.637l.31.256-.148-.448.467.048-.176-.436.469.033-.176-.436.224-.07-.129.378.128-.379.107.292Zm-1.866,15.34-.425-.027.3.3-.425-.03.31.291-.423-.01.092.959-.664.7.094.958-.656.705.114.956-.572.513.207.74-.555.532.23.734-.54.547.327.468-.351.453.543.042.272.483.438-.371.373.4.37-.406.388.388.359-.417.4.381.484-.452.638.2.056-.643.5-.413-.383-.551.4-.166-.408-.135.387-.187-.413-.119.381-.2-.488-.862.308-.942-.49-.863.3-.945-.5-.856.341-.456-.461-.336.314-.476-.48-.307.284-.5-.428.052.213-.367-.369.209.081-.417-.282.318-.112-.367.1.4-.313-.266.168.377-.3-.271.011.35.18-.356-.181.356.008,0Zm12.057-3.1-.372-.148.366.162-.374-.142.362.171-.282.118.945-.03.62.7.934-.037.618.7.934-.031.093.464.322-.335.315.336-.077-.458.466-.027-.1-.789.628-.49-.126-.786.613-.507-.145-.783.441-.169-.421-.186.164-.427-.407.232-.174-.435-.937.326-.873-.473-.936.33-.885-.451-.916.373-.666-.377-.631.44-.688-.342-.607.472-.709-.305-.008.427-.375-.2.253.342-.421.056.406.128-.379.133.389-.1-.359.178.374-.145-.343.206.5.077-.128.49.5-.062.01.508.47-.2.127.513.488-.2.118.514.491-.192.117.514.093.023v0l-.084-.018Zm-29.7-6.747-.486.317.29.505-.486.314.3.5-.475.324.268.835-.4.791.731.32.735.43.728-.495,1.327.186,1.192-.611,1.329.17,1.188-.623,1.333.163.153-.449.346.318.115-.456.368.293.085-.463.259.3-.25-.317.367.169-.341-.212.39-.045-.406.03.329-.241-.382.141.246-.324-.3.26.048-.408-.248.337v-.419l-.223.354-.011-.412-1.01.087-.765-.668-1.012.088-.749-.685-1.013.04-.456-.578-.7.223-.529-.516-.67.31-.589-.445-.13.413-.3-.312.026.436-.343-.27.016.437-.078-.385v0l.046,0Zm10.12,4.881-.078-.4-.117.4-.1-.4-.091.4-.147-.39-1.349.647-1.489-.14-1.347.65-1.49-.134-1.342.66-.571-.29-.394.5-.585-.26-.376.519-.585-.251-.035.435-.4-.194.219.381-.433.075.4.179-.385.113.394-.074-.372.149.385-.112-.362.17.506.21-.228.5.518.18-.2.512.535.165-.168.538.55-.015.165.524.436-.334.442.326-.077-.4.215.343-.118-.387.249.319-.129-.389.537.2.2-.534.543.175.169-.545.552.144.877-.978,1.283-.293.873-.984,1.282-.3.867-.989.373.232-.09-.432.4.188-.137-.419.414.147-.321-.213.389-.113-.409,0,.373-.167-.408-.02.2-.224v0l.2.217Zm2.188,11.915-.116.382.145-.373-.106.386.146-.373.144.27.068-1.443.821-1.177.063-1.434.821-1.178.063-1.434.429-.028-.346-.254.424-.07-.371-.217.415-.118-.4-.063.362-.189-.4.1.269-.306-.311.248.049-.395-.119.39-.133-.385.04.406-.3-.284-.063.643-.635.09-.046.64-.633.1-.033.641-1.02.565-.412,1.092-1.016.572L187,108.13l-1.015.573.219.354-.386-.161.235.346-.395-.14.243.348-.48.011.314.356-.382.282.463.1-.142.452.3-.27-.2.352.262-.306-.15.374.239-.328.159.55.548-.162.188.539.537-.195.21.524.419-.274.308.4.188-.47.485.145-.123-.491.37.157-.347-.2.378.134-.359-.179.377.131-.306-.285.417.044-.323-.267.418.029-.323-.268-.016.078h0l.014-.072Zm-.336-8.98.4-.12-.4-.111.4-.114-.407-.04.25-.305-.269.32-.035-.414-.12.4-.182-.372.038.41-.575-.135-.174.567-.582-.114-.165.57-.581-.117-.927,1.012-1.336.319-.928,1.01-1.332.33-.911,1.027-.646-.039-.044.623-.437.429.58.283v.642l.486-.061-.091.48.48-.092-.06.485.478-.118-.04.456.331-.309.214.4.1-.441.4.214.011-.524.52.089,0-.527.522.07-.024-.526.593-.022.023-.592.592-.039,0-.593.59-.063.42-1.1,1.025-.586.415-1.107,1.021-.588.422-1.117-.046.154.4-.047-.4.05.223.176ZM179.231,89.433l-.408-.085.3.291-.4-.092.306.279-.4-.081.248.463-.436.295.478.179-.019.512.5-.179-.12.388.228-.335-.1.391.211-.345-.08.4,1.339.032,1.082.789,1.339.03,1.084.786,1.337.025.046.422.228-.362.1.418.192-.384.145.407.02-.409.3.279-.234-.335.4.052-.386-.133.4-.06-.4.046.387-.1-.39.087.374-.143-.4.067.318-.259-.393.118.284-.3-.363.179-.693-1.284-1.268-.724-.7-1.283-1.268-.722-.7-1.281-.321.248.211-.345-.3.275.186-.359-.3.28.032-.456-.318.321-.234-.386-.069.447-.417-.175.278.289-.332-.224.3.262-.353-.192.315.251-.571.112.092.576-.565.133.108.569-.564.131.358.049-.381.124.381-.123-.281.24Zm23.878,1.479-.467.077.282.379-.462.1.3.364-.456.127L202.7,92l-.234.338.346-.228-.143.389.258-.308.038.4.065-.4.172.372-.048-.407.248.321,1.045-.926,1.384-.2,1.045-.928,1.383-.208,1.038-.936.534.138-.065-.53.445-.29-.488-.242.121-.532-.549-.012.031-.546-.547.023,0-.547-.547.053L208,86.071l-.724.035-.625-.335-.254.7-.709.213-.289,1.031-.91.564-.252,1.042-.9.581-.25,1.039-.359-.078.393-.076-.393.078.278-.22Zm9.976,3.883.387.112-.34-.216.385.124-.346-.206.4.022-.461-.613.253-.722-.587-.491.082-.762-.681-.339.161-.381-.328.271-.011-.425-.206.372-.175-.39-.314.478-.492-.285-.271.5-.514-.245-.228.519-1.215.105-.882.845-1.215.124-.875.852-1.213.125.109.387-.24-.325.166.368-.3-.272.245.317L204,94.483l.3.283-.4-.093.355.2-.391.1.4-.075L204,95.2l.333-.235-.132.385.182-.35.357.407.375-.4.377.4.369-.4.369.4,1.318-.359,1.309.4L210.148,95l1.331.316,1.264-.522.169.372.014-.414.191.367.007-.413.183.369.152-.248-.385.106.386-.105-.112-.129Zm-7.393,6.527.343.2-.352-.189.361.171-.349-.2.295-.091-.644.112-.256-.587-.628.122-.256-.586-.628.123.074-.413-.288.3.057-.415-.274.317.036-.417-.146.378-.271-.311.16.383-.4-.1.371.134-.315.33.45.056-.275.36.453,0-.222.4,1.084.739.458,1.227,1.089.728.466,1.224,1.091.723-.166.423.443-.1-.137.435.436-.135-.114.437.4-.191.072.443.222-.391.319.317-.05-.446.309.256-.274-.293.334.222-.3-.263.347.2-.3-.269.331.228-.3-.268.342.209-.316-.246.9-.7.1-1.1.107-1.056-1.065-.4-.66-.919-.634.087-.248-.589-.627.129-.267-.581-.627.128-.1-.124.385-.1-.385.107.077.111Zm.441,7.934.41-.051-.389-.142.4-.1-.4-.1.387-.162-.425,0,.325-.265-.416.05.3-.289-.412.079-.364-1.419-1.1-.965-.5-1.378-1.187-.858-.62-1.325-.477.014.166-.463-.471.086-.151-.448-.156.458-.447-.045.368.3-.348.313.453.138-.324.341.42.022-.347.236.419-.009-.331.257.42-.031.1,1.341.842,1.047.1,1.341.847,1.044.109,1.339.521.167-.049.55.463-.261.44.306.2-.517.455.215.073-.5.468.192.061-.5.459.2.1-.227-.385.106.386-.105-.16-.143Zm-5.057-24.395-.714.667.024.972-.711.662.032.967-.7.666.3.367-.451.132.336.329-.437.177.368.286-.366.192.416-.059-.176.38.3-.291.082.411.02-.4.108.387-.06-.4.183.358-.153-.368.484.14-.013-.5.5.092-.061-.5.507.041.28-.981.9-.487.263-.985.892-.493.267-.984.771-.37-.031-.831.156-.774-.851-.133-.457-.716-.241.325.116-.387-.218.341.091-.395-.212.348-.1-.444-.215.4-.33-.308.051.449-.445-.067.169.513-.525.134.186.51-.524.144.188.5h-.354l.355-.183-.354.185.256-.275Zm.2,26.028.464-.131-.358-.325.381-.3-.454-.166.254-.392-.85-1.149-.1-1.431-.852-1.155-.1-1.431-.852-1.157.326-.286-.429.007.29-.316-.424.063.236-.365-.354.222.1-.4-.254.328-.017-.415-.146.388-.217-.289.267.31-.39-.121.33.242-.409-.018.394.122-.4.1.406.061-.382.149.414.033-.231,1.479.563,1.385-.23,1.478.566,1.385-.226,1.478.426.16-.352.289.439.122-.326.319.448.079-.307.28.4-.119-.217.357.353-.223-.083.416.532-.313.506.344.287-.54.611.037-.031-.612.009.214.329-.227-.328.228.082.069Z" fill="#deebdc"/>
  </g>
  <g id="パス_27614" data-name="パス 27614" transform="translate(-107.924 -77.172)">
    <path id="パス_28074" data-name="パス 28074" d="M167.336,121.047l-1.2,1.331-.614,1.684-1.366,1.159-.836,1.585-1.511.964.1.444-.42-.177.051.453-.4-.223v.457l-1.164.1-.88.766-1.165-.059-.976.641-1.146-.215-.121.409-.167-.4-.165.4-.129-.41-.2.38-.512-.464-.611.323-.508-.47-.606.332-.527-.447-1.2.276-1.071-.6-1.223.1-.974-.746-1.224-.077-.815-.791-1.136-.033-.825-.779-1.133-.078-.753-.853-1.984-.793-1.313-1.682-1.656-1.345-.754-2-1.179-1.776.047-1.1-.674-.88.143-1.1-.594-.936.24-1.079-.486-1.761.479-1.766-.151-1.823.8-1.647.191-1.822.854-.8.266-1.135,1.006-.59.51-1.049,1.115-.357.273-.7.743-.022.307-.677.744,0,.306-.676.533.131.1-.539.533.133.087-.541.543.1.126-.582.571.159.294-.515.5.325.441-.4.568.441.6-.4.62.359.536-.477.665.269-.076-.4.128.38-.033-.4.061.4.071-.4.946.563,1.058-.318,1,.469,1.073-.255.868.666.843-.068.548.651.843-.115.584.619.838-.162.214.509.507-.208.14.529.529-.14.078.548.518-.13.034.527.518-.1.034.528.514-.133,1.152,1.378,1.55.9.848,1.582,1.334,1.2.509,1.723.791.607.093.988.792.6.1.988.79.6-.266.331.426-.05-.3.308h.429l-.334.271.6.751-.241.933.486.832-.377.886.357.9-.424.14.375.234-.415.151.387.213-.407.177.359.811-.517.718.184.866-.653.6Zm-29.164-14.586-.173-.545-.472.294-.493-.251.036.563-.513.236.243.673-.52.492.278.66-.495.518.31.645-.473.647.42.653.134.737.783-.187.628.5.94-.324.856.5.952-.271.826.544.964-.218.47.468.548-.377.552.372.469-.473.6.264.066-.424.35.264-.128-.419.434.061-.316-.3.407-.161-.424-.117.293-.328-.431.083.125-.418-.413.182.068-.451-.412.195.05-.453-.4.211-.384-.727-.821-.053-.39-.725-.822-.054-.384-.728-.846-.08-.4-.748-.846-.085-.4-.75-.844-.086.311-.166h0l-.032.109Zm6.126,1.351.028.481.44-.2.03.484.441-.207.053.485.375-.26.028.455.362-.277.049.453.345-.3.031.4.023-.4.268.3-.219-.341.4.088-.38-.125.4.037-.4-.056.4-.035-.4.034.306-.4-.471-.188.285-.419-.48-.164.262-.439-.88-1.018-.152-1.337-.887-1.011-.158-1.336-.889-1.008.19-.5-.516,0-.162-.486-.314.422-.455-.266-.553.722-.9.078-.432.8-.882.218-.3.858-.556.042.211.493-.346.406.539.1.009.541,1.179.443.737,1.025,1.225.305.853.931,1.253.158.118.183h0l-.372-.1Zm2.654,14.06-.169.363.21-.341-.169.363.212-.34-.26.117.071.719-.647.366.061.741-.644.371.072.74-.5.171.336.389-.239.449.525-.059.1.519.822-.09.551.614.8-.194.624.54.777-.292.224.411.125-.441.409.208-.158-.431.453-.072-.388-.1.4.051-.392-.08.4.03-.393-.079.432-.147-.366-.271.419-.177-.385-.242.4-.206-.391-.447.4-.434-.4-.442.4-.439-.4-.444.411-.715-.387-.728.412-.715-.4-.724.4-.723-.41-.155.357-.255-.436-.048.28-.337-.437.061.086-.483-.44.212-.211-.44-.232.43-.429-.232.169.373-.341-.226.241.331-.38-.153.295.291-.718.411-.018.825-.7.429-.008.825-.705.428-.027.1h0l.376.1Zm8.919-9.656.128.411.189-.384.121.413.178-.39.142.4,1.167-.465,1.226.28,1.121-.567,1.246.17,1.066-.663.466.286.255-.485.471.281.242-.492.478.263.006-.435.4.17-.244-.363.427-.1-.411-.151.375-.143-.389.1.357-.183-.375.142.337-.217-.759-.545-.069-.933-.768-.532-.082-.931-.773-.521.17-.39-.342.265-.1-.42-.121.415-.329-.279.221.333-.251-.312.237.323-.265-.3.233.325-.28-.293.183.361-.293-.278.205.349-.311-.261-.8,1.261-1.336.667-.8,1.261-1.336.669-.8,1.261-.373-.177.256.331-.408-.091.316.275h-.421l.383.153-.4.064.4.087-.392.118.408.031-.194.236-.006-.4.007.4-.2-.214Zm-6.625-4.351.408.057-.344-.226.411.024-.361-.2.416-.038-.391-.36.419-.318-.366-.378.441-.287-.335-.418.628-1.052-.3-1.19.429-1.142-.375-1.164.487-1.116-.4-.188.319-.3-.434.07.089-.43-.317.306-.618-.5-.7.366-.706-.363-.615.5-.766-.211-.08.482-.473-.114.167.457-.469.13.369.318-.384.243.424.164-.351.289.441.11-.314.327.473.122-.255.416.481.092-.263.41.466.137-.156.778.626.489-.076.792.673.424,0,.794.569.158-.093.584.578.129-.063.588.585.1-.141.364.172-.371.05.406.127-.391.037.408.033-.4.007.4-.006-.4.082.016Zm8.553,7.646.081.456.353-.3.082.456.356-.3.094.457,1.165-.024.906.732,1.164-.025.906.731,1.165-.027.056.438.288-.335.089.433.263-.355.1.422.271-.366.307.342.014-.46.45.1-.259-.381.39.091-.384-.113.394.074-.389-.1.394.07-.253-.754.49-.625-.349-.714.4-.685-.44-.662.315-.37-.484-.029.039-.483-.409.261-.245-.415-.166.4-.226-.379-.114.426-.282-.339-.045.439-.665-.185-.426.543-.638-.264-.489.486-.606-.339-.513.47-.608-.328-.509.465-.61-.324-.5.475-.344-.345-.192.448-.364-.324-.166.459-.391-.3.112.4-.387-.14.337.237-.4.114.413,0-.333.225.35-.2-.285.283.307-.259-.225.333.321-.262-.147.387.324-.26-.148.387.334-.251-.117-.039,0,.4,0-.4-.19.132Zm-12.6-.468.364-.175-.4.038.372-.16-.39.1.2-.319-.26.34-.053-.425-.229.362-.091-.419-.193.382-.444-.426-.486.38-.451-.419-.49.374-.433-.438-.791.314-.7-.49-.8.3-.7-.49-.79.313-.253-.417-.291.393-.288-.395-.259.414-.316-.372-.213.44-.421-.252.1.462-.437.187.43.239-.221.793.567.6-.2.8.584.581-.176.8.452.038-.138.433.39-.234.142.432.179-.419.142.375-.1-.387.171.362-.133-.378.175.359-.016-.418.259.33-.04-.417.282.31-.069-.414,1.323-.242.95-.952,1.322-.244.949-.952,1.322-.246-.053-.426.334.27-.071-.423.345.256-.1-.415.306.258-.252-.317.349.2-.289-.283.373.159-.176.1,0-.4,0,.4-.072-.386Zm8.573.182.418-.124-.389-.195.4-.175-.411-.142.368-.241-.5-.279.249-.514-.517-.241.216-.528-.53-.21.265-.351-.434.073.182-.4-.408.165.094-.429-.661.074-.343-.57-.613.26-.492-.449-.515.425-.739-.217-.342.689-.723.258.127.757-.433.634.4-.016-.4.071.4-.026-.392.08.4-.035-.242.7.607.426-.017.742.707.221.2.7.868.123.644.608.786-.41.878.114.394-.794.44.107-.194-.408.45.033-.259-.37.45-.043-.191.132.006-.4-.007.4.032-.4Zm9.864,6.754.225-.33-.248.313.234-.324-.254.309.3-.113-.279-.295.422.081-.258-.344.424.066-.28-.325.493-.137-.331-.372.3-.4-.5.022-.039-.5-.521.171-.156-.527-.509.205-.191-.515-.492.239-.612-.632-.87.135-.627-.618-.867.153-.639-.606-.371.285-.077-.469-.331.323-.329-.315.116.453-.391.14.442.1-.281.351.452,0-.234.386.555.126-.1.561.562.1-.072.566.566.065-.014.593.592.049.016.592.593.036.013.594.569.031-.024.57.57.034-.021.57.574.026-.143.412.32-.285.111.414.092-.418.333.269-.231-.328.282.285-.26-.305.308.257-.285-.282.586-.083-.046-.591.583-.106-.058-.591.583-.108-.16.079v-.4l0,.4-.167-.309Zm-9.02-16.728.174-.36-.2.348.179-.358-.2.344.266-.112-.156-.552.56-.193-.148-.573.554-.209-.181-.561.485-.143-.276-.425.473-.182-.308-.4.453-.2-.335-.3.375-.268-.455-.068.147-.437-.41.212.137-.376-.156.368.122-.381-.142.374.127-.378-.557.2-.261-.532-.547.226-.285-.519-.536.252-.242-.45-.254.427-.471-.146.178.474-.469.194.342.4-.44.288.363.381-.424.311.383.364-.44.726.362.767-.433.729.372.761-.421.738.4.337-.385.355.425.308-.361.38.444.28-.217.276.265-.318-.01.414.167-.377.2.351-.083-.433.4.185-.152-.414.425.118-.216-.385.608-.2-.074-.636.6-.219-.085-.634.6-.221-.172.1,0-.4,0,.4-.18-.286Zm-10.17,15.718.52-.125-.186-.5.516-.121-.2-.5.518-.148-.279-.359.451-.058-.31-.333.445-.1-.335-.314.412-.027-.4-.047.324-.244-.354.2.119-.388-.154.37.034-.4-.056.4-.067-.395.031.4-.328-.338-.133.45-.36-.3-.085.462-.4-.259-.638.794-1.012.094-.626.8-1.012.105-.621.805-.367-.241.076.434-.392-.2.119.425-.4-.171.159.407-.44,0,.364.248-.355.262.441-.014-.3.267.32-.241-.276.29.3-.265-.257.306.681.087.153.67.685.057.182.662.686.026.084.525.439-.271.4.319.033-.525.523-.027.015-.757.677-.341-.018-.757.671-.354-.015-.76.352.014-.36.175.359-.176-.273.263Zm15.59,4.7.4-.1-.4-.114.392-.14-.411-.067.371-.195-.45-.089.289-.353-.456-.022.237-.389-.445.052-.412-1.087-1.023-.559-.428-1.084-1.029-.55-.434-1.082-.319.254.091-.4-.2.354-.043-.406.03.383-.342-.238.215.355-.4-.125.313.273-.418.018.4.172-.386.187.42.088-.349.249.431.02,0,1.168.756.889.011,1.167.763.883.022,1.167.5.108-.086.5.432-.24.338.364.156-.484.433.222.05-.487.446.2.026-.489.46.174-.172-.379.351.218-.214-.353.368.187-.244-.333.158-.078v0l-.013.4Zm-6.877,1.988.326.407.348-.389.328.407.336-.4.356.385.165-.438.422.2-.2-.415.427-.184-.422-.217.341-.353-.452-.189.32-.37-.461-.162.3-.39-.654-.667.1-.927-.66-.66.089-.929-.666-.651.292-.328-.44.017.249-.364-.436.069.207-.39-.231.305-.109-.39.006.408-.217-.346.164.359-.374-.159.313.263-.407-.044.373.169-.4.065.389,1.066-.409,1.059.393,1.065-.4,1.061.4,1.063-.391.145.413.068-.365.207.419,0-.325.268.422-.064-.27.327.413-.1-.248.344.406-.125-.224-.068.129.379-.13-.379-.136.189Zm4.486-22.593-.53.2.2.529-.528.194.2.527-.533.22.385.117-.383.126.394-.085-.31.257.33-.228-.176.36.207-.345-.027.4.067-.4.137.378-.042-.418.3.3-.107-.4.335.25-.17-.379.7-.138.125-.7.7-.146.116-.7.7-.157-.05-.582.532-.249-.424-.384.1-.564-.6.005.069-.439-.29.323-.184-.393-.045.431-.379-.21.268.3-.335-.221.3.261-.361-.175.331.23-.562.189.152.572-.555.2.154.573-.559.2.175.294,0-.4,0,.4-.083-.018Z" fill="#deebdc"/>
  </g>
  <g id="パス_27615" data-name="パス 27615" transform="translate(-107.924 -77.172)">
    <path id="パス_28075" data-name="パス 28075" d="M164.81,149.822l.749-.856,0-1.139.749-.857.014-1.139.777-.832.363-1.857,1.1-1.538.384-1.853,1.138-1.511.451-1.837,1.35-1.773.691-2.12,1.438-1.7.8-2.082,1.521-1.629.583-1.606,1.238-1.179.554-1.617,1.226-1.191.552-1.618.637-.263-.043-.689.636-.268-.043-.689.638-.265-.282-.3.374.168-.238-.335.345.222-.148-.389.476.28.364-.406.278.469.512-.188.03.549.49-.029-.243.42.44.2-.416.25.284.4-.4-.122.281.3-.382-.152.267.312-.383-.158-1.379,2.741-2.038,2.293-1.352,2.752-1.982,2.341-1.245,2.8-2.007,2.719-1.208,3.156-1.824,2.845-1,3.228-1.633,2.958L167.967,149,166.9,150.67l-.313,1.96-1.061,1.677-.316,1.959-.489.14.24.447-.493.125.249.443-.483.158.19.512-.546.011-.111.534-.468-.28-.365.395-.2-.432-.426.227.081-.476-.479-.066.345-.338-.4-.039.4-.013-.4-.069.4.017-.388-.105.411,0-.358-.2.409.036-.342-.227.408.059.182-1.578.928-1.288.182-1.577.928-1.288.182-1.577.07.235.233-.325-.232.326.046.025Z" fill="#deebdc"/>
  </g>
  <g id="パス_27616" data-name="パス 27616" transform="translate(-107.924 -77.172)">
    <path id="パス_28076" data-name="パス 28076" d="M139.147,175.609l-.591.171-.1.607-.542-.251-.537.261-.153-.6-.551-.017.182-.516-.466-.286.416-.355-.259-.481,1.339-1.975.544-2.323,1.248-2.032.5-2.333,1.258-2.027.266-1.751.968-1.483.167-1.763.883-1.536.067-1.77.864-1.755.078-1.954.842-1.765.05-1.955.813-1.779-.194-1.063.56-.923-.251-1.051.533-.94-.257-1.049.564-1.123-.233-1.235.558-1.126-.235-1.235.56-1.125-.331-.278.423.081-.106-.417.295.314.16-.4-.022.4.143-.376-.088.392.2-.347-.139.379.662-.032.048.659.589.3-.286.6.363.547-.533.835.247.962-.54.835.265.957-.5.856.175,1.822-.664,1.706.078,1.829-.753,1.669-.018,1.83-.828,1.768-.065,1.953-.865,1.751-.125,1.95-.935,1.715-.142,1.7-.933,1.433-.2,1.7-.966,1.411-.221,1.695-.95,1.349-.214,1.635-.964,1.339-.223,1.634-.963,1.34.308.319-.44.038.308.32-.439.033Z" fill="#deebdc"/>
  </g>
  <g id="グループ_4531" data-name="グループ 4531" transform="translate(-107.924 -77.172)">
    <g id="パス_27617" data-name="パス 27617">
      <path id="パス_28077" data-name="パス 28077" d="M215.754,154.9l-1.343.509-.859,1.147-1.343.509-.864,1.145-1.34.494-1.051,1.23-1.532.521-1.138,1.151-1.565.41-1.217,1.066-.683-.112-.329.609-.684-.1-.318.615-.687-.086v.486l-.485.014.359.311-.246.409.486-.054.012.525.515-.112.05.524.506-.147.084.519.352-.266.021.44.315-.311.031.44.332-.286,0,.466.461-.086-.24.4.437.17-.416.219.362.234-.423.077.362.232-.424.074.361.229-.459.151.187.448-.474-.1-.069.48-.372-.33-1.351.653-1.491-.129-1.344.659-1.491-.133-1.351.644-.552-.329-.466.44-.522-.375-.484.421-.523-.372-.163.41-.211-.388-.16.411-.222-.382-.139.419-.227-.365-.03.427-.335-.266.2.365-.413.07.417.1-.341.256.425-.029-.253.342.393-.155-.089.444.416-.188-.047.454.4-.222.008.464.633-.091.034.631.561.291-.343.53.283.565-.376-.137.369.154-.374-.142.367.159-.383-.114.31.383-.473.071.057.473-.4-.276-.2.442-1.048-.26-.938.535-1.048-.261-.943.525-1.043-.279-.463.442-.52-.374-.489.413-.508-.392-.492.41-.636-.386-.62.409-.634-.389-.616.415-.642-.375-.135.43-.406-.188.273.344-.352.269h.455l-.1.518h.528l-.069.523.528-.014-.06.529.553.021-.136.53.514.189-.3.46.427.339-.425.266.242.442-.5-.013-.044.5-.408-.293-.306.428-.367-.38-.333.41-.344-.4-.356.389-2.292-.538-2.347.171-2.244-.711-2.354-.007-2.184-.88-.707.233-.489-.562-.718.19-.472-.576-.722.189-.419-.618h-.743l-.21-.713-.709-.222.012-.744-.468-.061.305-.357-.438-.17.383-.273-.383-.272.506-.819-.28-.922.525-.807-.244-.932.568-.778-.174-.978.628-.771-.124-.985.648-.753-.118-.991.745-.826.061-1.107.835-.729.191-1.092.917-.629.041-.8.706-.367.032-.8.712-.358.061-.795.639-.184.014-.663.645-.153.044-.661.653-.126-.022-.5.43.25.271-.418.2.455.465-.178-.217.344.344-.217-.267.306.373-.162-.312.26.539.246-.263.531.461.372-.387.449.355.468-.418.275.387.326-.406.3.4.314-.4.311.391-.046-.286.281.317-.249-.176.362.209-.341-.015.4.067-.4.123.384-.074-.4.269.3-.2-.374.383.17-.233-.348.394.141-.253-.336,1.354-1.188.705-1.657,1.353-1.188.7-1.657,1.353-1.189-.281-.292.351.2-.27-.3.353.2-.288-.284.626-.109.288-.567.434.454.628-.006-.048.635.494.162-.261.458.485.208-.295.437.468.237-.35.266.427.105-.317.309.414-.1.025.427.194-.4.384.216-.2-.41.452-.037-.281-.361.454-.026-.275-.364.455-.039-.277-.364.456-.042.257-1.505,1.051-1.107.436-1.462,1.177-.972.611-1.4.683-.131.132-.678.687-.07.187-.665.691-.013.112-.5.379.341.381-.339.108.5.507-.05-.314.249.344-.206-.324.235.352-.191-.322.24.506.05-.232.452.473.186-.348.37.4.3-.4.4.382.424-.429.377.355.446-.451.355.326.788-.44.729.389.757-.38.762.449.725-.4.093.4.024-.387.118.405-.012-.379.136.426.037-.228.363.37-.216.029.428.173-.393.084.392-.059-.4.114.383-.09-.39.148.373.177-.5.472.238.152-.506.482.213.125-.511.935-.035.591-.726.936.028.639-.684.933.09.238-.5.455.3.315-.448.4.379.386-.386.328.411.336-.405.37.375.293-.438.4.337.667-.529.815.247.658-.541.815.248.669-.527,1.855.143,1.782-.535,1.82.383,1.837-.3,1.755.617.428-.344.329.44.409-.367.351.422.391-.388.275.448.479-.215.008.525.522.056-.254.474.485.349-.42.409.233.538-.573.128-.083.58-.379-.231.053.442-.378-.232.06.436Zm-7.469,2.235,1-.244.521-.888,1-.248.524-.892,1-.255-.087-.45.43.15-.121-.439.439.121-.158-.419.394.059-.39-.126.352-.21-.39.127.162-.376-.2.345.166-.364-.176.359.138-.375-.139.374-.05-.426-.234.36-.09-.42-.2.379-.134-.41-.471.4-.475-.4-.463.409-.481-.388-.462.415-.664-.394-.645.419-.676-.367-.627.446-.695-.338-.779.525-.9-.24-.75.562-.913-.208-.736.579-.645-.249-.431.541-.656-.217-.422.548-.653-.227-.617.628-.871-.089-.6.642-.85-.2-.75.447-.164-.373-.013.418-.263-.325.072.412-.3-.28-.475.7-.852.013-.45.723-.85.049-.417.739-.549-.125-.264.5-.327-.447-.547.093.021-.573-.544-.077.186-.516-.5-.23.328-.439-.409-.364.429-.8-.381-.824.411-.808-.4-.817.4-.815-.412-.269.379-.309-.425-.241.361-.329-.436-.211.309-.266-.375.178.084-.406-.2.363-.17-.378.094.39-.177-.36.151.372-.228-.33.212.338-.36-.212.2.371-.377-.183.206.365-.379-.183-.185.834-.772.361-.083.849-.724.451.017.856-.947,1-.213,1.36-.926,1.018-.2,1.363-.921,1.015.079.7-.593.4.223.682-.494.521.363.62-.4.033.385.126-.4-.031.365.176-.4-.074.265.349-.408-.154.013.435-.24-.364-.245.36.1-.388-.192.353.151-.372-.233.327.192-.353-.733-.106-.063-.736-.629-.389.237-.7-.421-.607.421-.483-.393-.508.394-.507-.42-.485.365-.525-.41-.155.365-.252-.434-.031.138-.409-.28.332-.248-.35.02.438-.371-.23.1.43-.385-.212.194.365-.356-.205.248.328-.379-.159.278.307-.767.377-.122.843-.766.375-.1.846-.751.406-.419,1.343-1.084.9-.317,1.369-.863,1.114.166,1.394-.42.034.241.348-.389-.174.127.407-.322-.273-.088.427-.161-.408-.319.3.1-.427-.415.1.02-.681-.6-.347.241-.647-.447-.526.442-.529-.339-.515.409-.462-.436-.437.308-.535-.515-.343.283-.329-.4.147.043-.428-.241.356-.217-.371.082.394-.207-.345.152.373-.265-.3.2.35-.319-.262.18.37-.338-.233.218.348-.369-.186-.6,1.472-1.213,1.028-.45,1.521-.994,1.238-.014,1.588-.44.087.327.3-.439.05.311.314-.443.035.086.991-.641.758.165.98-.579.806.241.964-.407.493.5.4-.116.628.631.1.2.6.455-.223.124.493.44-.256.161.482.421-.287,1.705.89,1.923.033,1.779.732,1.918-.142,1.837.568.4-.371.357.417.387-.39.37.406.382-.395.13.4.1-.407.175.38.047-.416.215.358-.057-.4.339.229-.283-.3.409-.012-.4-.075.381-.123-.386.108.365-.165-.371.151.357-.177-.415.044.29-.3-.4.129.217-.357-.363.209-.222-.765-.748-.272-.048-.794-.67-.429.124-.795-.507-.248.39-.363-.132-.513.517.17.3-.455.165.4.167-.4.128.409.2-.381.1.42,1.382-.261,1.314.5,1.364-.342,1.341.418,1.338-.422.716.339.638-.478.74.293.607-.515.755.249-.006-.413.329.252-.237-.34.415.01-.392-.136.377-.144-.395.084.317-.251-.352.2.245-.318-.437.12.126-.439-.434.141.1-.445-.434.157-.117-.71-.676-.237.04-.715-.61-.375.188-.7-.447-.1.4-.194-.311-.315.436.077-.066-.437.212.344-.077-.4.149.374-.007-.4.092.4.35-.425.392.384.37-.406.372.4.389-.386,1.783.424,1.77-.472,1.818.23,1.71-.658,1.832.035.027-.418.228.351v-.419l.25.337-.023-.419.407.243-.079-.456.45-.091-.428-.18.207-.417-.569-.052.02-.57-.571-.023.02-.57-.568-.048.033-.589-.583-.1.067-.588-.576-.133.1-.575-.448-.137.4-.258-.28-.388.478.028v-.479l.2.348-.1-.388.166.366-.064-.4.129.381.054-.415.173.381.1-.408.134.4.126-.4.675.367.6-.488.732.24.5-.586.762.1,1.273-1.079,1.617-.416,1.2-1.16,1.587-.521Z" fill="#deebdc"/>
    </g>
    <g id="パス_27618" data-name="パス 27618">
      <path id="パス_28078" data-name="パス 28078" d="M167.89,172.542l.738.083.381-.628.732.089.37-.635.728.061,2.667-1.913,3.075-1.15,2.724-1.83,3.088-1.112,2.713-1.847.989-.08.59-.8.985-.123.562-.818.98-.147.7-.861,1.1-.094.806-.76,1.106.056.9-.643.289.34.2-.409.161.425.337-.3-.008.456.537-.034-.175.507.454.287-.44.308.2.5-.4-.139.188.378-.355-.227.1.411-.3-.3-.786.782-1.106.057-.774.793-1.105.073-.763.8-.683-.106-.306.62-.686-.074-.3.625-.686-.081-.65.787-1.019.07-.655.783-1.018.08-.635.8-2.244.724-1.91,1.374-2.261.653-1.87,1.425-2.2.844-.487.765-.907.043-.54.729-.909.01-.542.727-.318-.289.02.429-.291-.315-.018.429-.271-.337-.106.43-.172-.4-.294.326.046-.437-.416.141.268-.312-.382.15.281-.3-.388.135.293-.288-.533-.174.294-.462-.32-.443.546-.08Z" fill="#deebdc"/>
    </g>
  </g>
  <g id="グループ_4532" data-name="グループ 4532" transform="translate(-107.924 -77.172)">
    <g id="パス_27619" data-name="パス 27619">
      <path id="パス_28079" data-name="パス 28079" d="M124.021,140.036l-.192,1.283.593,1.141-.2,1.27.593,1.14-.2,1.27.422.123-.364.251.428.109-.351.268.431.086-.265.389.453-.084.125.439.118-.445.45.11-.029-.639.612-.186-.068-.636.6-.223-.106-.63.653-.345.084-.742.693.142.673-.248.422.618.463-.213.011.5.487.057-.351.366.4.314-.419.454.384.483-.414.457.385.482-.414.459.329,1.8-.516,1.757.234,1.815-.607,1.728.139,1.825-.407.043.391.126-.4.076.4.1-.4.087.4.1-.316.273.391-.148-.1.407.23-.349.037.4.018-.4.128.381-.076-.4.2.35.244-.565.614.06.069-.612.6-.124-.119-.594.468-.086-.151-.462.47.125.078-.48.362.327.363-.412.324.442.473-.276.167.523.541-.109-.139.453.467.051-.334.331.392.259-.454.157.127,1.047-.639.834.13,1.043-.65.825.1,1.046-.737.982.009,1.227-.755.968v1.228l-.751.972.321.323-.439.118.356.283-.422.169.387.238-.29.228.348-.226-.124.4.265-.316.112.385.038-.454.372.262,0-.455.393.23-.039-.455.594.146.369-.486.449.413.557-.25.2.582.433-.16-.187.414.451.05-.359.278.377.251-.441.163.328.338-.455.123.292.369-.464.076-.259,1.505-1.007,1.147-.32,1.494-1.053,1.106-.381,1.483-1.066.878-.443,1.3-1.12.8-.531,1.27-1.171.72-.015.542-.527-.14-.186.512-.458-.3-.329.429-.993-.415-1.051.237-.838-.678-1.075-.069-.617-.887-.57.087-.087-.565-.567.068-.078-.566-.567.072-1.041-1.277-1.52-.636-1.043-1.277-1.522-.635-1.045-1.276-.306.274.134-.388-.286.3.122-.392-.292.289.071-.42-.323.284.061-.423-.362.229.243-.324-.445-.147.355-.309-.42-.212.4-.254-.385-.269.412,0-.262-.321.374.186-.165-.384.318.262.089-.477.379.308.23-.43.271.406.334-.346.325.463.465-.329.405.407.259-.492.556-.024-.277-.459.292-.452-.538-.133.1-.541-.55-.069-.365-1.234-1.03-.771-.387-1.227-1.043-.754-.408-1.221-.525-.056.183-.494-.5-.156.277-.448-.461-.249.383-.316-.3-.4.5-.033-.009-.5.422.264-.028-.4.1.391.007-.4.061.4.053-.4.336.433.422-.349.305.455.444-.32.277.475.289-.337.046.44.318-.306.039.441.3-.326.008.41.1-.395.14.383-.036-.406.3.283-.3-.278h.407l-.4-.1.378-.151-.4.071.241-.367-.437.064.221-.382-.434.084.21-.385-.979-.687-.332-1.151-.979-.689-.315-1.155-.962-.715.048-.691-.623-.3.1-.683-.6-.349.16-.674-.731-.8.033-1.079-.71-.814.048-1.079-.708-.814.351-.213-.41.016.365-.188-.41.008.358-.2-.49-.491.491-.464.085-.668.67.16.528-.432.253.411.344-.346.153.464.419-.251.029.483.739.058.265.695.742.05.269.694.742.052-.19.364.353-.208-.227.343.339-.229-.141.384.284-.3-.055.414.25-.334.042.414.066-.4.307.26-.249-.332.409.07-.34-.243.417-.036-.391-.184.4-.147-.4-.156.4-.166-.407-.152.42-.392-.374-.431.424-.383-.38-.427.41-.4-.384-.391.443-.322-.315-.447.49-.245-.238-.491.5-.209-.277-.472.471-.277-.339-.43.43-.337-.347-.538.481-.423-.265-.583.537-.35-.179-.613.929-1.132.194-1.452.929-1.134.195-1.452.932-1.134.031-.8.786-.147.494-.628.723.343.769-.218-.141.375.174-.36-.147.372.18-.358-.162.365.429-.188-.115.455.47,0-.29.369.426.166-.233.842.552.686-.232.849.552.685-.232.849.444.163-.339.329.444.161-.338.33.423.107-.1.283-.077-.393.125.381-.071-.395ZM121.9,142.4l-.084-.392.04.4-.086-.391.039.4.13-.266-.481-.347.294-.543-.489-.377.29-.546-.5-.369.323-.369-.458-.172.309-.379-.464-.156.295-.39h-.428l.269-.335-.392.161.024-.421-.151.389-.252-.323.114.4-.356-.216.236.343-.406-.092.143.651-.582.326.156.649-.576.336.167.647-.834,1.133.057,1.4-.6,1.274.332,1.366-.333,1.368.44.438-.4.467.349.509-.484.381.245.568-.492.245.329.439-.417.358.427.344-.315.447.471.233-.3.437.479.221-.284.445.486.207-.3.452.4.371-.5.182,0,.531-.514-.193-.366.529-.531-.357-.551.323-.328-.55-.634.059-.176-.64h-.666l-.193-.637-.665.012-.2-.634-.386.21.065-.439-.315.3-.212-.373.045.436-.431-.068.355.253-.364.242.439.069-.329.29.6.609-.117.845.67.527-.009.853.733.441.628,1.691,1.355,1.189.753,1.636,1.4,1.135.754,1.633.6.122.036.616h.617l.162.6.6-.125-.046.427.341-.261-.1.417.373-.212-.155.4.479-.024-.285.384.4.26-.456.144.171.446-.3-.269.274.292-.288-.278.264.3-.273-.291.067.448-.389-.233-.027.452-.332-.309-.132.439-.36-.39-.375.369-.261-.457-.446.281-.162-.505-.7.14-.417-.582-.691.186-.438-.566-.689.192.011-.4-.043.4-.139-.379.086.392-.31-.236.324.247-.407-.036.38.148-.4.08.4.011-.308.292.428-.037-.274.33.423-.076-.245.351.8.479.138.927.806.476.16.923.825.438-.012.586.59.028.054.588.591-.034.112.577.559-.1.132.553.553-.138.145.55.558-.119-.027.5.493.1-.4.282.154.47-.5-.127.132.394-.278-.3.08.4-.222-.346-.013.414-.435-.372-.381.423-.421-.382-.4.408-.4-.4-.284.375-.175-.439-.328.338-.168-.441-.294.367-.165-.371.063.411-.305-.281.124.4-.389-.186.407.078-.332.241.4-.086-.3.282.347-.207.808,1.151,1.305.526.813,1.147,1.312.505.845,1.129.615-.1.234.57.59-.176.3.539.562-.245.119.417.168-.4.255.355.028-.436.364.248-.043-.49.479.1-.094-.479.486.05-.138-.472.511.005-.125-.493.509-.013-.143-.488.507-.03.251-1.081.911-.632.247-1.082.908-.636.243-1.083.438.053-.258-.358.442.005-.3-.328.44-.043-.34-.256.424-.052-.372-.208.4-.154h-.409l.132-.4-.209.36-.254-.338.049.427-.34-.253-.217.549-.532-.262-.394.443-.411-.427-.512.284-.206-.508-.552.053.126-.54-.479-.281.42-.363-.359-.2.411.04-.322-.258.4.106-.284-.294.546-.148-.16-.545.539-.18-.189-.535.528-.208-.242-.47.492-.189-.27-.454.488-.2-.269-.456.74-.9-.013-1.168.742-.9-.017-1.169.733-.911-.31-.381.453-.182-.338-.352.439-.213-.361-.33.353-.189-.386.147.1-.4-.208.355-.211-.346-.072.5-.472-.187-.062.5-.478-.171-.037.506-.583-.111-.232.546-.541-.244-.352.478-.482-.362-.348.4-.2-.478-.5.126.122-.5-.479-.193.385-.151-.4-.1.408-.07-.371-.183h.418l-.354-.231h.419l-.336-.251.42.01-.346-.237.716-1.142-.1-1.343.633-1.189-.2-1.332.547-1.232-.348-.688.438-.634-.372-.674.419-.646-.387-.666.379-.18-.424-.03.305-.3-.41.1.064-.411-.142.407-.236-.354.015.425-.335-.261.139.407-.482-.1.09.481-.484-.066.095.481-.481-.09-.092.588-.579-.126-.268.529-.512-.3-.418.42-.354-.443-.529.2.017-.557-.492-.263.395-.4-.329-.486.448-.387-.365-.466.417-.421-.4-.425.266-1.255-.545-1.166.239-1.265-.557-1.16.238-1.264-.4.025h0l0,.029Z" fill="#deebdc"/>
    </g>
    <g id="パス_27620" data-name="パス 27620">
      <path id="パス_28080" data-name="パス 28080" d="M124.093,175.262l.167-.907-.608-.708.165-.918-.605-.71.17-.918-.461-.169.32-.37-.452-.187.337-.354-.443-.212.195-1.513-.592-1.405.2-1.512-.6-1.4.179-1.51-.6-1.6.158-1.7-.672-1.569.076-1.705-.745-1.534.343-.246-.423-.071.379-.2-.4-.144.407-.121-.338-.456.429-.376-.4-.408.373-.432-.451-.349.386-.137-.4-.1.409-.034-.358-.2.4.081-.267-.316.384.162-.193-.37.323.259-.014-.413.123.4.194-.368-.037.414.313-.273-.2.357.416-.07-.3.3.428.019-.353.243.416.084-.14,1.607.65,1.478-.143,1.608.642,1.481-.156,1.607.757,2.356-.039,2.474.749,2.359-.045,2.474.746,2.36-.24,1.141.549,1.028-.245,1.14.547,1.029-.245,1.139.44.254-.352.366.437.259-.365.353.421.284-.408.069.336.243-.408-.081.255.329-.236-.27-.178.386-.048-.421-.283.316.08-.416-.383.2.266-.345-.428.007.341-.259-.42-.081.386-.2-.461-.485.337-.574-.456-.486.341-.572-.455-.5.279.178-.123-.381.143.374-.014,0Z" fill="#deebdc"/>
    </g>
  </g>
</svg>
