<svg id="くま" xmlns="http://www.w3.org/2000/svg" width="176.585" height="101.396" viewBox="0 0 176.585 101.396">
  <g id="グループ_4668" data-name="グループ 4668" transform="translate(-145.718 -138.3)">
    <g id="グループ_4658" data-name="グループ 4658">
      <g id="グループ_4656" data-name="グループ 4656">
        <path id="パス_28135" data-name="パス 28135" d="M321.593,147.123l.365-.35-.459-.209.266-.428-.5-.086.153-.477-.46.067.08-.461-.42.208-.074-.463-.328.332.011-.4-.075.394,0-.4-.078.394v-.4l-.42.36-.346-.434-.417.365-.355-.429-.412.374-.345-.414-.365.4-.359-.4-.364.4-.349-.414-.413.386-.369-.425-.431.36-.343-.446-.456.333-.647-.561-.833.191-.606-.6-.844.135-.564-.641-1.05.029-.785-.7-1.048.08-.817-.66-1.042.131-.159-.456-.376.306-.134-.466-.394.282-.11-.474-1.537-.141-1.3-.827-1.543.015-1.38-.691-1.535.171-.084-.417-.2.374-.08-.417-.206.374-.088-.418-.571.318-.452-.476-.58.308-.442-.487-.591.288-.229-.464-.39.335-.266-.44-.357.37-.3-.414-.855.406-.884-.339-.8.509-.918-.228-.731.6-.57-.236-.338.524-.569-.25-.358.511-.56-.277-.4.5-.568-.293-.416.488-.565-.3-.417.483-.5-.312-.359.474-.508-.311-.361.474-.509-.311-.495.5-.647-.285-.5.5-.648-.289-.5.495-.971-.242-.842.543-.969-.251-.847.537-.962-.256.043.4-.078-.393.046.4-.08-.393.045.4-.536-.313-.41.468-.525-.335-.43.451-.5-.355-1.069.432-1.083-.4-1.1.365-1.057-.466-1.116.3-.488-.455-.572.341-.487-.456-.578.338-.493-.457-.823.311-.739-.483-.829.313-.747-.479-.827.32-1.238-.538-1.33.229-1.214-.585-1.339.189-1.207-.611-.752.272-.61-.52-.756.262-.6-.524-.75.258.031-.4-.123.383.031-.4-.127.382.028-.4-.467.316-.312-.469-.466.317-.314-.468-.464.319-.181-.441-.33.343-.179-.442-.332.343-.177-.443-.874.237-.728-.545-.876.253-.751-.521-.866.292-.525-.459-.6.356-.549-.426-.576.389-.583-.4-.708.454-.773-.325-.683.487-.787-.288-.661.52-.651-.3-.523.488-.649-.3-.522.489-.649-.3-.028.41-.156-.38-.03.41-.163-.378-.035.41-.813-.273-.685.517-.813-.275-.687.515-.812-.277-1.387.629-1.514-.141-1.369.667-1.516-.1-1.342.71-.947-.2-.785.569-.941-.229-.8.546-.94-.251-.667.505-.787-.292-.676.495-.776-.3-.673.489-.336-.36-.235.434-.344-.359-.242.435-.344-.359-.769.482-.837-.353-.811.409-.8-.428-.844.333-1.032-.52-1.129.244-1.009-.568-1.141.206-.989-.588-.224.366-.082-.422-.223.366-.088-.422-.23.364-1.161-.568-1.258.3-1.22-.427-1.213.446-1.262-.279-.584.473-.682-.32-.585.477-.687-.314-.583.48-.217-.375-.114.419-.221-.375-.118.419-.222-.374-.536.474-.645-.317-.532.48-.652-.3-.522.493-1.138-.187-.969.626-1.147-.132-.951.66-1.143-.109-.164.458-.371-.315-.165.458-.37-.315-.167.457-.967-.15-.738.644-.975-.092-.7.685-.977-.037L176.49,147.1l-1.857.523-1.4,1.329-1.769.77-1.205,1.505-.81.2-.269.791-.81.208-.259.8-.808.228-1.323,2-1.819,1.564-1.081,2.142-1.626,1.764-.827,2.253-.475.033.237.411-.472.053.257.4-.471.081.283.37-.459.07.282.37-.46.069.282.37-.373-.147.369.155-.374-.143.367.16-.375-.14.067.9-.676.609.072.909-.668.623.092.9-.767,1.1.029,1.343-.711,1.14.1,1.34-.653,1.172.084,1.792-.6,1.693.308,1.769-.382,1.755.526,1.715-.385.137.4.115-.411.032.34.233-.384-.125.162.454-.469.126.372.312-.333.353.486.061-.318.261.406-.033-.379.15.4.057-.4.086.4.291-.4.282.395.292-.406.277.393.3-.4.06.4.077-.4.062.4.083-.4.065.393.3-.407.283.393.3-.407.285.392.306-.412.507.387.527-.412.507.389.526-.409.509.4.268-.4.258.4.265-.4.261.4.265-.4.3.4.3-.4.294.4.3-.4.289.39.243-.413.2.378.262-.422.182.367.278-.492.508.27.653-.533.464.214.673-.57.42.273.426-.481.152.269.427-.482.149.267.428-.533.285.219.561-.532.292.225.565-.526.306.181.652-.587.34.111.668-.618.277.041.676-.565.137.117.572-.561.162.138.569-.557.189.03.823-.679.462.038.822-.676.466.043.819-.447,0,.271.356-.449.006.269.36-.449.008.31.276-.41-.07.315.272-.41-.065.317.269-.365-.165.36.174-.365-.164.358.179-.366-.16.27.368-.456.029.262.375-.457.016.248.383-.735.558,0,.924-.7.6.058.923-.665.642.129.956-.57.777.292.92-.429.864.447.854-.329.639.482.534-.292.658.511.505-.253.67.487.34-.28.527.5.319-.252.541.519.292.115,1.377.918,1.033.267,1.356,1.027.926.416,1.318.495-.014-.12.479.492-.054-.082.488.484-.093.257.743.78.109.306.725.785.058.353.7.624-.11.3.558.585-.244.416.478.519-.368.285.414.315-.387.283.41.312-.389.285.409.167-.395.141.4.167-.394.138.4.171-.394.591.427.6-.407.634.357.552-.473.671.283-.016-.406.13.383.023-.4.075.4.07-.4.3.408.284-.419.37.346.2-.465.424.269-.033-.4.15.38.039-.406.1.4.1-.4.014.4v-.4l.019.4.02-.4.008.4.009-.4.006.4.009-.4.013.4.013-.4.08.4.054-.4.142.382-.054-.4.264.3-.046-.428.3.317.089-.425.194.39.181-.387.612.322.39-.577.7,0,.074-.692.61-.332-.3-.322.442-.064-.335-.294.432-.114-.366-.26.43-.3-.423-.308.3-.427-.5-.147.141-.505-.849-.394-.256-.9-.866-.356-.293-.888-.88-.318.239-.328-.337.226.248-.321-.343.216.29-.26-.338-.054.346.2-.316-.247.34.212-.3-.267.391.17-.174-.388.375.2-.145-.4.356.231-.178-.372.372.179-.27-.313.4.1-.312-.271.383.129-.327-.237.375.15-.3-.269.344.21.35-.978.953-.414.4-.959.973-.363.454-.936,1.143-.457.582-1.082,1.107-.533.506-1.12,1.068-.608.14-.788.752-.28.136-.794.75-.285.125-.788.441.093-.179-.414.444.088-.176-.417.445.087.122-.805.742-.336.071-.812.718-.383.018-.815.384.135-.3-.27.381.142-.3-.276.38.146-.331-.225.346.2-.332-.224.352.192-.187-.322.148.4.12-.4.118.4.125-.4.121.4.177-.3-.342.206.347-.2-.341.209.346-.2-.31.258.372-.157-.316.252.377-.145-.327.237.467.032-.242.4.467.032-.24.4.47.036.077,1.012.781.647.057,1.015.759.677.007,1.016.734.712.027,1.023.773.672.082,1.021.809.628-.231.4.46-.007-.231.4.461-.005-.23.4.9.745.217,1.148.914.732.252,1.145.943.7.008.725.668.283,0,.724.661.285-.012.719.517.063-.156.5.516.061-.154.5.516.059-.043.64.622.164.006.642.631.113.05.632.446-.114.005.467.355-.305.224.411.167-.436.167.37.074-.4.007.407.216-.344-.111.4,1.085.077.827.7,1.071-.182.969.49,1-.423.413.372.366-.422.408.381.371-.415.4.385,0-.4.021.4,0-.4.028.4,0-.4.268.391.239-.409.269.39.236-.411.271.387.156-.41.22.38.126-.421.248.363.088-.429.389.315.194-.462.393.312.191-.463.394.31-.1-.388.111.384-.1-.388.118.382-.09-.39.417.305.216-.469.416.306.218-.468.414.31.177-.469.425.265.1-.49.461.2.02-.5.365.226-.084-.423.334.271-.021-.43.263.326.2-.468.477.2-.008-.516.515-.029-.237-.461.4.071-.333-.234.393.108-.321-.252.395.111-.34-.222.393.1-.352-.2.4.082-.359-.185.506-.373-.352-.52.365-.511-.5-.384.189-.6-.593-.214-.006-.63-.629-.018-.2-.6-.6.179-.4-.545-.654.191-.362-.576-.666.14-.317-.6-.255.32.1-.395-.259.316.115-.392-.256.317.184-.355-.192.351.18-.357-.2.349.275-.243-.676-.9.121-1.127-.632-.941.175-1.12-.584-.97.328-.455-.458-.328.334-.453-.455-.327.337-.446-.452-.319.338-.44-.455-.32.333-.446-.459-.313.3-.612-.492-.471.293-.614-.494-.468.292-.615-.514-.574.272-.725-.513-.581.277-.727-.508-.589.3-.665-.487-.547.311-.662-.478-.549.318-.655-.42-.121.373-.228-.42-.125.372-.232-.42-.128.4-.093-.4-.057.4-.06-.4-.074.356.076-.181-.328.116.383-.076-.393.117.383-.074-.394.186.366-.006-.41.18.368,0-.409.169.372.264-.462.421.323.268-.463.429.321.269-.463.757.255.6-.531.757.253.6-.532.757.251.907-.6,1.074.18.906-.6,1.075.177.906-.6.289.346.119-.435L211,204l.12-.435.288.347-.078-.392.093.389-.073-.393.1.387-.068-.394.536.293.369-.489.543.288.364-.5.548.277.369-.506.566.267.365-.509.568.263.362-.511.133.379-.073-.395.133.379-.071-.4.135.378.512-.55.72.223.514-.548.721.229.525-.542.783.226.61-.54.773.259.633-.514.76.293.937-.537,1.059.221.9-.6,1.071.149.859-.656.352.31.119-.455.352.309.12-.456.364.306-.094-.39.141.375-.093-.389.143.374.143-.3-.375.257.4.154-.4.157.4.146-.4.151h.4l-.4.006.4.007-.4.01.4.011-.4.2.418.131-.318.3.431-.067-.106.423.325-.248-.276.3.406-.034-.377.167.409.048-.4.054.4-.043-.4.061.4-.036-.4.065.414.09-.38.186.413.092-.381.185.414.093-.346.5.453.4-.333.507.467.388-.307.523.4-.013-.378.145.406-.012-.378.151.406-.008-.046,1.767.745,1.607-.022,1.769.782,1.59.034,1.771.41-.014-.363.191.41-.012-.361.2.412-.007-.124,1.1.656.889-.1,1.1.686.868-.05,1.1,1.039,1.743.28,2.013L235.6,224.4l.269,2.013,1.023,1.762.054,1.419.838,1.144.12,1.414.891,1.1.186,1.406.76.566.189.929.887.334.437.84.943.077.645.717.966-.05.7.67.959-.12.744.617.285-.342.116.43.255-.365.153.418.223-.387.3.418.344-.385.314.411.335-.394.323.4.473-.4.489.386.458-.423.5.367.44-.439.179.381.085-.413.181.38.09-.414.188.38.4-.452.493.344.4-.449.495.35.416-.441.518.356.426-.46.544.311.386-.494.569.263-.069-.4.138.378-.053-.4.116.384.069-.384.143.468.324-.365.322.367.14-.466.437.2.019-.462.394.26.092-.463.358.306.142-.446.781.16.466-.65.8-.006.32-.733.779-.171-.02-.57.558-.134-.206-.536.482-.312-.374-.442.369-.634-.509-.522.174-.707-.636-.355-.035-.727-.412.124.212-.377-.414.123.21-.378-.414.124.253-.324-.372.175.252-.325-.377.169.249-.33-.412.126.213-.373-.41.126.216-.371-.411.127.3-.276-.366.17.321-.244-.379.137.333-.23-.425.045.291-.312-.424.046.289-.317-.427.039.188-.516-.527-.16.189-.516-.526-.16.189-.517-.45,0,.265-.363h-.449l.262-.364H258.7l.208-.47-.5-.1.211-.469-.5-.116.219-.468-.462-.039.258-.385-.463-.037.257-.386-.462-.036.058-.8-.661-.455.071-.8-.646-.479.109-.8-1.11-1.749-.372-2.032-1.128-1.734-.4-2.023-1.151-1.709.29-.341-.447-.027.289-.342-.447-.027.288-.343-.4.078.333-.238-.4.076.331-.245-.418.031.424-.07-.334-.244.413.034-.337-.243.415.026-.331-.263.423.008-.325-.272.424.016-.31-.293.063.246.246-.316-.248.314.262-.3-.272.293.389-.177-.177.389.39-.175-.178.389.39-.174-.249.316.318-.247-.248.317.32-.244-.246.319.493-.07-.075.493.493-.071-.071.494.493-.076-.086.477.474-.1-.082.477.474-.1-.08.478.313-.255-.24.324.313-.254-.237.327.316-.252-.14.421.414-.158-.139.42.414-.156-.141.42.3-.264-.255.31.3-.265-.253.312.3-.264.1.654.657.079.1.654.656.082.1.654.352-.212-.223.345.359-.2-.231.341.363-.195-.295.271.3-.264-.291.274.3-.26-.289.277.383-.173-.2.368.379-.183-.188.377.37-.2.276.823.822.28.21.842.8.344.143.858.94.548.36,1.025.986.454.456.986,1.026.358.809,1.207,1.313.624.761,1.235,1.3.664.74,1.255.736.135.221.714.744.077.278.695.75.019.521.783.939.011.656.671.924-.164.771.538.193-.383.111.414.189-.383.117.414.2-.383.33.435.413-.36.333.437.418-.357.326.441.2-.376.085.418.216-.369.078.422.227-.365-.07.394.082-.392-.066.4.088-.39-.062.395.206-.369.061.418.2-.371.069.417.19-.377.123.416.189-.391.169.4.146-.409.211.38.038-.413.191.368.006-.414.2.358-.013-.412.191.362-.025-.408.18.366-.013-.408.154.377.391-.5.6.216.276-.572.629.085.149-.617.337.238-.188-.367.341.232-.2-.363.341.23-.255-.309.278.288-.256-.308.288.28-.128-.365.844.3.609-.643.88-.1.263-.846.746-.474-.247-.273.145.372-.131-.378.151.371-.127-.379.174.362-.1-.389.163.367-.086-.392.144.375-.031-.4.156.375-.007-.406.132.384.018-.406.985.211.72-.7,1-.131.44-.9.892-.461-.254-.324.4.113-.3-.288.415.035-.351-.219.453-.4-.386-.469.368-.484-.47-.385.266-.545-.44-.025.227-.379-.417.147.058-.438-.324.3-.118-.464-.4.256-.029-.477-.443.18.044-.483-.889-.2-.351-.837-.866-.272-.279-.864-.84-.344-.6-1.328-1.213-.81-.6-1.328L284,212.966l-.6-1.328-.346.211.257-.313-.342.218.252-.317-.34.22.256-.313-.336.225.257-.312-.339.221.262-.309-1.028-.572-.424-1.1-1.027-.574-.423-1.1-1.026-.575.1-.494-.5.028.1-.494-.5.025.106-.493-.328.231.282-.285-.328.231.28-.288-.329.23.164-.424-.445.094.164-.425-.445.1.164-.424-.362.191.246-.328-.363.19.242-.332-.367.185.107-.491-.506.024.1-.5-.509.027.091-.5-.674-.165-.089-.689-.683-.133-.123-.685-.687-.1.008-.534-.539-.006.115-.527-.526-.117.219-.493-.439-.025.31-.31-.437-.039.323-.3-.436-.055.042-1.413-.663-1.249.2-1.4-.519-1.314.355-1.366-.386-1.624.382-1.629-.447-1.611.325-1.643-.5-1.6.391-.2-.4-.172.4-.178-.4-.186.4-.18-.4-.08.4-.064-.4-.079.4-.067-.37-.177.328.244-.063-.4.191.361,0-.409.17.374-.024-.4.136.38-.034-.4.147.376-.052-.4.629.235.408-.532.627.238.411-.531.628.239-.072-.395.145.374-.071-.4.148.374-.069-.4.57.257.354-.515.57.255.353-.516.573.253,2.068-1.095,2.289-.484,1.909-1.353,2.207-.775,1.718-1.588.376.227-.074-.433.376.228-.072-.434.378.227.178-.6.629.055.175-.608.632.04.156-.613,1.709-.794,1.22-1.433,1.705-.8,1.213-1.436,1.7-.807.048-.547.545.071.032-.55.55.056.016-.543.4.179-.12-.425.4.181-.117-.426.4.184-.15-.4.368.211-.151-.4.369.211-.152-.4.482.114-.037-.494.482.117-.031-.5.481.122.549-.972,1.061-.353.557-.971,1.066-.349.562-.968.445.153-.038-.471.434.189,0-.473.416.226.49-.7.854.035.528-.673.851.081.564-.643.575.21.267-.55.59.16.22-.57.6.11.249-.635.681.019.212-.648.682-.02.173-.658.447.153-.057-.468.446.154-.059-.468.445.154-.245-.317.259.306-.239-.322.267.3-.234-.325.706-.059.208-.682.712-.053.224-.679.71-.031.382-.779.853-.167.326-.806.838-.228.267-.827.488.058-.143-.469.49-.02-.217-.44.479-.1-.235-.521.5-.284-.308-.482.451-.352-.372-.431.4-.424-.408-.415.387-.436-.416-.406Zm-12.26,10.343-.39-.2.194.392-.437-.006.35.261-.39.193.425.068-.288.322.418-.109-.133.41.375.081-.739-.136-.393.6-.7-.13-.369.611-.7-.1-.145.51-.481-.224-.167.5-.476-.239-.181.5-.385-.285-.006.47-.454-.122.177.435-.465.063.308.289-.413-.091.216.363-.373-.2.129.4-.415-.182.074.45-.423-.176.07.453-.423-.176-.769,1.11-1.261.491-.746,1.128-1.243.535-.691,1.164-.325-.248.2.354-.314-.259.195.358-.307-.267-.169.639-.662.009-.168.64-.661.011-.168.641-.252-.311.242.319-.258-.306.235.324-.261-.3-1.3,1.527-1.8.888-1.327,1.506-1.825.838L287.7,174.7l-1.126.27-.7.924-1.134.232-.728.9-1.137.18-.931.9-1.293.14-1,.835-1.3.044-1.054.758-1.379.016-1.156.757-1.383-.031-1.179.729-1.375-.053.059.4-.143-.377.057.4-.146-.376.057.4-1.222-.068-.986.726-1.226-.01-.951.771-1.223.048.081.4-.212-.347.077.4-.216-.345.074.4-1.08-.006-.783.744-1.081.016-.761.768-1.073.06-.108.1.4.037-.383-.124.4.051-.378-.138.427-.046-.343-.258.427-.039-.34-.263.428-.036-.357-.2.41.024-.358-.2.409.025-.359-.2.414.013-.362-.2.413-.015-.375-.173.411-.048-.4-.18.332-.286-.437.036.154-.411-.366.242-.092-.439-.21.4-.312-.322.031.447-.436-.11.27.327-.417-.066.3.292-.422-.023.332.262-.543.388.222.628-.541.394.229.629-.537.414.351.255-.427,0,.279.323-.41-.116.179.388-.3-.267.233.329-.323-.242.265.3-.319-.237.13.46-.47.093.365.311-.332.346.479.039-.316.248.357-.183-.336.218.363-.168-.361.072.234.689-.554.48.2.706-.58.449.158.715-.481.134.265.424-.483.143.263.431-.484.143-.228,1.7-.973,1.413-.229,1.7-.98,1.42-.237,1.711-.721.782.049,1.064-.694.81.076,1.067-.679.814.346.235-.417-.009.345.235h-.419l.343.241-.42-.007.333.256-.419-.026.322.27-.42-.031.351.2-.39-.1.351.2-.391-.1.35.2-.37-.151.353.188-.357-.182.342.208-.354-.187.329.233-.382-.131.353.2-.4-.05.392.1-.457.38.3.511-.507.307.222.549-.548.239.28.443-.44.275.409.32-.327.4.493.174.174,1.419.9,1.1.163,1.418.9,1.114.149,1.411.686.637-.065.936.678.653-.075.936.671.652-.372.146.375-.138-.37.151.377-.133-.368.156.742.761.024,1.064.774.73.067,1.061.8.7-.2.5.517.142-.2.5.518.141-.2.5.481.068-.232.428.484.074-.229.434.485.075-.3.3.419-.055-.3.3.419-.053-.3.3.418-.054-.3.3.417-.059-.3.3.416-.063-.285.3.415-.056-.335.251.418.031-.382.16.415.134-.309.31.432-.072-.124.419.347-.274,0,.453.4-.2-.128.43.439-.093-.229.39.4-.117-.265.32.392-.137-.259.325.391-.141-.321.238.328-.229-.319.242.332-.224-.316.246.382-.155-.27.31.383-.151-.274.308.384-.146-.136.516.517.14-.256.471.467.262-.363.394.389.208-.431.094.3.327-.437-.058.162.411-.475-.128.016.491-.465-.159-.013.491-.445-.191-.092.1.392.082-.383-.119.4.064-.389-.1.438-.338-.4-.382.357-.422-.47-.29.26-.486-.4.058.33-.244-.4.1.3-.284-.382.151.161-.41-.37.237-.07-.434-.2.393-.282-.336.021.439-.41-.161.234.373-.436.062.382.214-.381.144.41.025-.373.172.411.014-.37.181.407-.013-.376.157.407-.008-.379.147.406.007-.375.34.371.345-.461.208.25.44-.506.072.278.306-.345-.216.144.381-.223-.341-.025.406-.307-.371-.2.441-.359-.321-.127.465-.4-.263.043.419-.261-.329-.013.42-.213-.363-.121.414.23-.175-.378-.135.4.047-.391-.088.4-.011-.4-.126.39-.153-.414-.067.364-.207-.418-.006.264-.349-.42.129.057-.436-.3.321-.17-.4-.116.421-.336-.284.106.427-.434-.07.312.314-.494.181.12.51-.516-.09-.145.5-.427-.325-1.122.571-1.221-.285-1.169.452-1.186-.408-1.209.331-.017-.4-.094.392.01-.4-.128.383.035-.4-.892.173-.661-.622-.9.111-.617-.667-.908.048-.373-.666-.757-.076-.17-.741-.707-.284.043-.76-.906-1.057-.142-1.386-.855-1.1-.075-1.391-.8-1.137-.263-2.014-1.025-1.752-.275-2.014-1.037-1.753-.286-2.018-.692-.8.094-1.052-.654-.83.129-1.052-.635-.837-.089-1.984-.834-1.8-.028-1.987-.79-1.821.006-1.984-.518-.587.29-.726-.484-.617.332-.708-.447-.65.4-.32-.432-.259.314-.394-.484-.14.2-.459-.38.119.371-.159-.4.008.4-.079-.4-.065.4-.042-.4-.034.4-.034-.4-.052.4-.026-.4-.062.4-.041-.4-.052.4-.059-.4-.021.4-.032-.4-.017.4-.035-.4.007.4-.056-.414-.057.337-.248-.412.075.242-.342-.368.2.143-.388-.284.3.032-.413-.191.367-.082-.4-.012.4-.024-.4v.4l-.037-.4.013.4-.185-.385-.1.416-.22-.366-.055.424-.252-.343-.169.466-.4-.3-.162.47-.407-.288-.158.478-.858-.15-.635.593-.847-.2-.669.555-.834-.252-.083.422-.213-.372-.1.416-.2-.38-.11.414-.117-.391-.035.406-.118-.39-.033.406-.128-.387-1.128.58-1.257-.175-1.1.64-1.264-.108-1.061.7-.434-.3-.224.474-.434-.3-.22.477-.435-.3-.4.527-.618-.246-.411.523-.616-.254-.421.514-.708-.246-.537.528-.705-.259-.538.519-.7-.266-.229.454-.387-.329-.228.455-.389-.328-.226.456-.384-.327-.218.455-.386-.326-.217.456-.385-.326.067.395-.1-.387.071.394-.106-.387.064.4-.434-.316-.266.466-.434-.316-.266.466-.432-.318.076.393-.086-.391.07.394-.093-.389.067.4-.992-.2-.831.582-.994-.2-.832.578-1-.208-.114.456-.293-.349-.185.416-.207-.406-.275.364-.046-.41-.093.4-.173-.373.049.408-.283-.294.009.453-.366-.272-.07.45-.314-.329-.138.434-.114-.382.1.389-.135-.377.094.389-.137-.376-.592.6-.829-.165-.59.6-.833-.155-.581.612-1.551.1-1.32.822-1.555.017-1.36.754-1.554-.063-.056.419-.209-.368-.062.418-.207-.369-.063.418-.1-.388.041.4-.1-.387.038.4-.1-.387-.238.448-.378-.337-.232.452-.39-.33-.227.458-.489-.3-.306.485-.5-.289-.3.487-.491-.288-.157.452-.351-.324-.158.452-.353-.325-.158.45-.448-.29-.279.46-.4-.361-.351.408-.347-.42-.145.411-.212-.373-.076.423-.254-.347-.051.436.039-.38-.233.327.176-.361-.216.338.176-.359-.239.319.236-.323-.253.31.222-.333-.24.32.087-.41-.261.327-.045-.416-.145.393-.173-.381-.015.418-.276-.314.111.4-.36-.212.232.349-.368-.175.29.285-.375-.156.31.262-.379-.139-.2,1.121-.915.682-.281,1.106-.959.617-.354,1.081-1.14.793-.548,1.279-1.181.737-.612,1.25-1.216.675.266.3-.284-.281.264.3-.293-.273.26.306-.564-.017-.017.565-.565-.023-.032.566-.564-.042-.771,1.209-1.275.656-.681,1.263-1.224.746-.587,1.31-.388-.17.19.376-.372-.2.171.385-.358-.221.224.33-.207-.342.192.35-.205-.343.191.352-.225-.332.192.351-.25-.313.22.336-.29-.278.289.275-.312-.249.3.263-.317-.244.311.249-.559.2.241.546-.457.384.413.43-.3.517.374-.139-.357.179.365-.164-.355.185.364-.166-.337.214.34-.211-.32.24.331-.225-.312.25.436-.128.034.453.275-.363.292.348.013-.454.3.27-.208-.348.315.257-.218-.343.252.29.092-.314-.253.312.3-.268-.26.305.31-.255-.17.41.427-.12-.172.41.428-.12-.173.409.366-.189-.234.339.367-.188-.229.345.371-.183-.033.568.568.04-.032.567.566.037-.033.564.442-.044-.314.318.411.177-.427.133.283.346-.36-.172.366.162-.373-.145.363.168-.382-.121.308.3-.419-.094.148.4-.335-.268-.121.425.239-.27-.4-.04.4-.086-.4-.042.4-.045-.384-.137.408-.038-.39-.124.4-.064-.4-.089.344-.276h-.445l.173-.41-.393.207-.038-.442-.244.364-.232-.373-.03.438-.391-.2.2.391-.373-.158.313.254-.374-.152.322.245-.365-.163.168.317-.036-.4.011.4-.028-.4-.022.4-.246-.4-.135.447-.409-.225.1.455H162.6l.279.315-.419-.081.261.337-.416-.09.257.34-.362-.177.314.253-.363-.176.312.256-.269-.252-.455.5-.633-.3-.528.463-.6-.36-.572.413-.342-.417-.375.383-.338-.416-.374.384-.338-.415-.079.4-.043-.4-.079.4-.048-.4-.083.4-.248-.411-.283.388-.247-.412-.283.387-.243-.413-.27.37-.125-.441-.347.3-.024-.458-.4.221-.283-.66-.72-.012-.246-.678-.72-.055-.2-.691-.432.147.124-.441-.444.11.158-.43-.454.071-.417-1.319-1.024-.93-.259-1.359-.906-1.044-.1-1.379-.475-.174.3-.411-.466-.194.315-.39-.459-.2.351-.26-.428-.089.357-.254-.427-.1.359-.25-.4.06.392-.08-.4.059.39-.089-.4.055.368-.207-.418-.055.366-.208-.418-.051.366-.2-.5-.587.335-.693-.424-.641.413-.649-.347-.686.417-.144-.366-.25.429-.108-.341-.283.439-.069-.107-.945.677-.668-.038-.95.723-.617.03-.951.453,0-.261-.369.451-.011-.268-.365.446-.008-.316-.267.407.077-.315-.269.406.08-.311-.273.518-.144-.2-.5.518-.146-.2-.5.517-.147-.072-.758.645-.4-.069-.762.652-.409-.061-.765.535-.148-.159-.531.54-.127-.137-.537.543-.1v-.737l.655-.34-.079-.734.615-.407-.155-.721.525-.3-.223-.565.533-.295-.215-.569.535-.284-.372-.147.374.14-.37-.152.377.136-.37-.153.485-.152-.265-.433.483-.154-.268-.431.482-.156-.042-1.163.652-.963-.206-1.145.51-1.045-.363-1.1.4-.852-.394-.852.41-.849-.386-.853.415-.839-.393-.409.407-.4-.393-.41.4-.4-.4-.407.394-.116-.373-.183.415.025-.274-.314.379.177-.2-.377.424.049-.338-.261.407-.129-.425-.109.272-.994-.5-.9.32-.975-.454-.921.368-.96-.415-1.184.446-1.172-.292-1.22.563-1.12-.166-1.239.682-1.343-.054-1.508.764-1.3.038-1.509.842-1.25-.135-.768.616-.481-.127-.77.621-.469-.117-.767.533-.244-.193-.556.544-.222-.168-.563.554-.2.757-2.134,1.549-1.651,1-2.032,1.729-1.462,1.225-1.9.859-.277.308-.847.864-.259.326-.842.863-.239,1.15-1.427,1.7-.691,1.332-1.26,1.777-.454,1.49-1.07,1.316-.059,1.062-.779,1.317.018,1.106-.716,1.314.094-.056-.4.132.38-.059-.4.135.379-.058-.4.9.189.711-.585.9.2.73-.568.893.233.548-.5.676.3.565-.481.672.317.57-.473.292.367.194-.427.293.366.193-.427.295.365.525-.471.627.323.527-.469.626.325.528-.469.055.4-.044-.4.059.4-.037-.4.06.4,1.086-.487,1.128.379,1.137-.352,1.075.513,1.172-.212,1.229.648,1.379-.169,1.256.591,1.37-.231,1.282.534.488-.367.443.417.464-.4.469.391.436-.422,2.138.2,2.047-.65,2.146.088,2.01-.756,2.148-.025,1.006-.638,1.183.148,1.012-.623,1.171.175,1.026-.592.621.3.491-.485.617.306.5-.483.624.308-.047-.4.076.393-.049-.4.078.393-.044-.4.35.35.227-.441.351.35.227-.441.353.348,1.026-.572,1.156.218,1.029-.571,1.159.218,1.03-.57.925.238.814-.511.9.328.86-.428.862.413.7-.331.615.475.709-.309.6.494.724-.288.975.573,1.112-.208.97.585,1.113-.2.963.59.4-.33.247.457.406-.325.246.46.411-.322.429.5.593-.287.438.495.591-.3.45.483,1.392-.181,1.267.6,1.389-.208,1.282.561,1.373-.264.612.458.69-.333.61.468.693-.326.6.47.066-.395-.027.4.066-.4-.026.4.067-.4.552.465.644-.331.561.462.643-.337.562.455,1.21-.293,1.158.459,1.184-.388,1.191.365,1.148-.481.558.336.459-.467.575.317.446-.479.572.31.039-.413.169.378.039-.413.178.376.045-.413,1.141.215,1.009-.576,1.142.211,1.008-.578,1.142.208.171-.435.31.351.168-.437.312.349.167-.438.1.388-.04-.4.1.388-.037-.4.107.387.3-.462.447.324.3-.461.436.33.3-.455.936.242.779-.572.949.18.74-.621.958.118.686-.61.893.214.76-.517.855.336.822-.4.2.4.219-.39.165.418.258-.366.131.431.831-.23.679.534.821-.269.7.511.812-.286-.011.4.105-.389-.01.4.107-.389-.007.4,1.087-.232.942.59,1.1-.161.9.648,1.108-.091-.064.4.173-.365-.077.4.189-.357-.1.389.8-.1.518.616.79-.162.553.586.782-.189.236.485.462-.281.235.488.468-.273.222.493.409-.283.147.477.416-.275.137.476.413-.273-.123.38.154-.369-.126.38.156-.369-.12.382.442-.263.169.488.443-.267.179.486.437-.276.476.57.711-.2.492.557.709-.22.515.548.366-.334.223.44.333-.363.257.421.306-.389.276.412.3-.392.284.4.3-.4.285.4.078-.4.073.4.078-.4.071.4.127-.393-.159.024.145.374-.194-.351.145.374-.195-.35v.443l-.345-.279,0,.443-.349-.273.011.442-.379-.226.135.421-.436-.077.28.342-.426.078.324.368-.422.266.419.269-.321.382.483.13-.328.251.409-.045-.351.217.413-.01-.365.2.564.336.022.654.654-.037.383.531.526-.4.459.349.308-.478.51.25.2-.531.462.173.111.056-.444.024.255.365-.439-.071.174.408-.734.184-.189.733-.747.127-.246.716-.755.066-.1.566-.571-.073-.086.571-.572-.061-.074.568-.285-.285.212.343-.286-.284.208.345-.287-.283.117.418-.377-.212.117.417-.38-.21.114.418-.336-.237.16.382-.319-.264.121.4-.284-.3-.692.747-1.018-.029-.756.682-1.012-.119-.815.612-.2-.361.018.414-.252-.33.08.407Zm-34.408,46.942-.111.471.485-.055-.118.474.485-.049-.125.47.309-.254-.3.263.312-.251-.3.268.315-.246-.222.357.389-.159-.22.358.388-.161-.218.36,1.392,1,.784,1.521,1.391,1,.789,1.526,1.395,1-.048.556.557.034-.048.557.558.033-.048.556.433-.111-.172.413.433-.111-.171.413.433-.111-.228.347.375-.178-.227.349.381-.172-.223.354.494-.042-.111.483.494-.04-.112.483.494-.038-.044.561.565.047-.047.566.567.06-.055.57,1.031.6.48,1.091,1.09.483.6,1.032,1.135.361-.119.4.347-.239-.15.394.371-.2-.2.361.394-.12-.3.295.414-.053-.334.251.417,0-.384.123.387.115-.4-.068.3.272-.344-.218.239.33-.374-.16.319.253-.4-.065.369.166-.437.109.217.4-.435-.137.049.452-.4-.225.177.36-.236-.324.178.36-.239-.323.191.351-.436-.183-.045.474-.382-.285-.168.445-.288-.379-.007.4,0-.4-.016.4.012-.4-.205.271.387-.073-.4-.015h.4l-.4-.022.4-.006-.4-.137.4-.129-.4-.132.4-.147-.407-.111.381-.206-.42-.107.361-.239-.427-.067.338-.269-.446-.023.167-.415-.391.217-.081-.439-.221.391-.253-.354.019.432-.391-.186.226.37-.434.024.38.159-.407.054.4.1-.4.1.407.059-.394.561.321.6-.536.425.138.671-.635.258.209.379-.4-.167.121.415-.35-.253-.179.4.343-.3-.356-.255.435-.052-.3-.321.43.048-.254-.332.415.068-.334-.256.413-.076-.4-.107.341-.252L285.8,225l.219-.364-.381.193.11-.411-.24.32.21-.341-.235.324.192-.352-.218.336-.1-.457-.264.386-.347-.313.009.467-.464-.05.294.3-.414-.061.326.262-.418-.013.354.224-.428.062.357.243-.424.079.365.23-.421.093.189.757-.692.358-.228.744-.778-.049-.567.526-.52-.343-.488.4-.443-.45-.564.285-.34-.535-.384.295-.144-.458-.358.321-.174-.449-.334.345.037-.4-.122.383.013-.4-.078.395-.032-.4-.086.407-.2-.362.041.413-.3-.281.167.382-.318-.26.071.4-.186-.366-.08.4-.075-.41-.662.327-.524-.516-.706.205-.425-.6-.729.078-.383-.679-.782-.031-.307-.719-.774-.116-.228-.749-1.36-.741-.823-1.315-1.377-.713-.862-1.293-1.4-.663-.443-.919-.953-.364-.351-.958-.914-.453-.258-.986-.773-.367-.17-.841-.8-.3-.241-.824-.825-.232.263-.3-.285.28.281-.284-.3.261.293-.272-1.015-.517-.455-1.044-1.043-.458-.515-1.016-1.068-.4.2-.359-.336.235.218-.347-.349.215.233-.338-.83-.3-.265-.842L254,208.28l-.3-.831-.855-.227.216-.338-.273.3.192-.354-.262.306.263-.145-.042-1.257.737-1.032-.009-1.265.772-1.01.045-1.27.525-.246-.222-.535.525-.245-.221-.535.524-.244-.3-.336.447-.048-.3-.342.449-.052-.3-.342.869-1.126.122-1.42.864-1.128.117-1.423.859-1.138-.117-.86.62-.607-.159-.85.6-.63-.176-.85.442-.081-.257-.373.448.07-.111-.439.4.22.615-.767.982-.031.653-.736.982.017.686-.7.9.08.611-.665.9.086.612-.659.908.086.252-.522.525.241.277-.507.513.268.321-.495-.16.265.4-.032-.391.09.4-.021-.395.058.406.342-.394.353.406.347-.393.361.406.348-.374,1.463.425,1.449-.376,1.462.422,1.45-.381,1.463.472,1.4-.252,1.45.613,1.337-.1,1.469.748,1.266-.3.377.467.121-.279.394.471.1-.264.4.542.21-.122.57.574.1-.008.582.588-.012.125.666.666.095.089.667.661.125Zm-70.047,25.924-.392.26.38.278-.448.1.141.435-.421-.208-.11.179h.4l-.4-.008.406-.169-.394-.2.4-.179-.4-.193.4-.207-.415-.1.366-.216-.423-.039.333-.263-.422.023.221-.376-.4.179.005-.44-.259.354-.218-.377-.054.434-.377-.226.171.406-.44,0,.354.26-.4.114.4.134-.4.134.4.113-.391.144.384.295-.444.2.291.391-.481.073.175.453-.348-.208.213.346-.284-.29.114.389-.192-.356-.251.467-.42-.325-.277.453-.4-.347-.3.437-.467-.369-.42.423-.46-.379-.423.417-.45-.383-.023.4-.055-.4-.024.4-.057-.4-.027.4-.219-.392-.189.408-.22-.392-.186.409-.22-.39-.731.389-.671-.486-.8.224-.556-.614-.821.061-.176-.522-.539.151-.092-.552-.557.054.013-.555-.37.179.185-.372-.321.264.078-.407-.234.341v-.418l-.307.285.161-.387-.392.148.274-.329-.691-.335-.02-.766-.692-.327-.026-.769-.7-.334-.535-1.543-1.2-1.113-.5-1.553-1.162-1.152-.436-1.576-.76-.576-.038-.951-.741-.6-.006-.956-.722-.632-.123-1.248-.871-.9-.174-1.243-.907-.866-.224-1.233-.358.181.344-.206-.361.173.346-.2-.381.037.272.226-.117-.382.138.375-.108-.385.115.383.04-.421.223.359.044-.42.22.361.047-.42.094.389-.086-.391.1.387-.08-.392.1.387.135-.44.311.339.131-.442.321.331.119-.446.751.217.561-.544.742.247.578-.528.733.261-.04-.4.114.385-.039-.4.118.385-.038-.4.279.352.121-.433.281.351.12-.433.281.35.807-.581.972.193.79-.6.974.165.765-.625.739.2.506-.575.745.181.5-.584.745.173.186-.483.438.276.187-.483.437.278.19-.482.545.249.315-.514.544.256.314-.507.535.262-.1-.387.126.379-.1-.386.135.376-.089-.39.136.381-.02-.4.116.386-.01-.4-.108.258.392-.019-.394.091.4.035-.394.1.4.039-.383.26.417.2-.376.27.424.186-.362.288.584,1.118-.2,1.249.591,1.12-.195,1.254.593,1.11-.385.126.4-.007-.385.127.406,0-.384.13.515.659-.272.791.517.657-.271.791.518.656-.338.4.451.263-.336.4.452.271-.337.4.579,1.028-.184,1.169.626,1-.131,1.176.67.974-.334.28.432.066-.344.272.43.084-.358.244.457.2-.218.45.5-.021,0,.5.441-.24.065.451.35-.289.037.452.363-.275.022.452.18-.358-.144.373.174-.36-.141.375.174-.361.042.455.386-.247-.031.456.419-.18-.111.442.3-.258-.314.247.322-.237-.311.251.323-.235-.209.363.352-.228-.087.41.263-.327.045.417.148-.392.162.386.025-.418.273.317-.106-.407.222.332-.006-.4,0,.4.187-.355-.151.377.311-.276-.159.381.34-.232-.216.351.377-.17-.2.449.474.132-.337.358.407.276-.433.235.365.2-.411-.029.282.3-.353-.213.116.4.107-.212-.4.065.4-.067-.4.064.394-.068-.415-.056.372-.192-.416-.051.37-.2-.416-.043.307-.341-.455.02.084-.448-.353.286-.209-.4-.11.434-.377-.242.136.427-.448,0,.342.289-.4.093.4.122-.4.121.406.1Zm-41.02,4.318.195.159v-.4l-.149.333.349-.133h-.4l.4.039-.007-.1-.379.126.379-.126-.149.259Z" fill="#26333b"/>
      </g>
      <g id="グループ_4657" data-name="グループ 4657">
        <path id="パス_28136" data-name="パス 28136" d="M248.858,239.7l-.327-.4-.337.394-.318-.411-.348.385-.306-.419-.234.386-.162-.419-.265.364-.124-.433-.295.34-.752-.619-.968.117-.705-.672-.974.047-.653-.721-.975-.094-.466-.862-.911-.359-.211-.957-.776-.6-.189-1.411-.893-1.109-.122-1.419-.841-1.15-.055-1.425-1.022-1.756-.27-2.018-1.03-1.751-.278-2.007-1.037-1.741.048-1.109-.687-.871.1-1.107-.658-.9.124-1.1-.411.013.364-.189-.41.011.361-.2-.411.006-.035-1.772-.782-1.591.02-1.776-.745-1.607.045-1.771-.4.013.378-.146-.4.012.377-.151-.406.009.306-.526-.468-.391.333-.51-.453-.409.345-.5-.414-.094.381-.185-.413-.092.38-.186-.414-.09.39-.113-.4-.01.385-.127-.4.037.26-.277-.433.164.182-.424-.455-.08.356-.3-.406-.218.4-.1-.4-.089.4-.1-.4-.09.228-.291-.17.451-.32-.319-.08.443-.314-.321-.079.442-1.084-.111-.889.629-1.073-.183-.929.569-1.06-.254-.64.5-.761-.277-.616.526-.773-.244-.593.552-.716-.235-.522.546-.72-.225-.512.549-.716-.223.073.4-.133-.379.072.4-.134-.378.071.4-.57-.262-.363.51-.568-.264-.367.508-.567-.269-.352.5-.541-.284-.366.492-.537-.292-.363.487-.1-.388.067.4-.1-.387.066.395-.1-.388-.119.435-.288-.347-.119.435-.289-.347-.118.436-1.076-.177-.907.6-1.075-.178-.907.6-1.074-.182-.593.532-.757-.252-.6.531-.757-.253-.6.53-.423-.323-.261.462-.428-.322-.269.463-.429-.321.016.406-.157-.375.024.406-.165-.372.072.388-.295-.153.4.014-.4.032.4.005-.4.056.419.116-.373.224.42.121-.373.228.42.122-.318.654.477.547-.311.659.486.546-.3.663.507.586-.277.725.513.58-.271.728.514.574-.291.621.5.47-.294.616.492.468-.3.607.46.313-.333.448.455.322-.337.442.452.319-.338.446.454.323-.334.451.458.327-.328.456.58.944-.182,1.093.624.916-.128,1.1.664.876-.226.272.244-.324-.123.387.241-.327-.118.388.663-.119.332.587.653-.169.376.559.641-.218.335.574.66-.061.138.647.645.149-.071.659.566.338-.271.6.434.5-.445.487.257.607-.4-.073.353.2-.4-.086.346.211-.388-.108.317.254-.391-.114.326.245-.394-.1.346.205-.513.191.088.542-.547-.06-.154.528-.48-.284v.428l-.293-.3.085.413-.333-.258.129.4-.5-.144-.079.508-.465-.221-.158.489-.422-.292-.175.455-.369-.319-.171.457-.37-.318-.17.457-.145-.376.057.4-.146-.375.054.4-.149-.374-.206.467-.405-.307-.2.465-.4-.311-.2.462-.272-.35-.118.427-.244-.37-.15.417-.219-.387-.233.412-.271-.389-.238.41-.269-.391-.24.409-.418-.385-.383.416-.418-.381-.371.422-.417-.372-1.03.425-1-.493-1.1.175-.854-.713-1.11-.089.156-.373-.207.344.068-.395-.057.394-.113-.382-.228.449-.288-.413-.413.286-.057-.5-.49.07-.052-.634-.634-.117-.006-.643-.624-.166.041-.644-.517-.06.154-.5-.517-.062.156-.5-.517-.063.012-.72-.662-.286.007-.719-.667-.281-.007-.724-.94-.691-.249-1.14-.912-.728-.219-1.15-.9-.737.224-.411-.465,0,.226-.406-.463,0,.229-.4-.812-.634-.086-1.027-.776-.679-.029-1.03-.738-.719,0-1.01-.758-.672-.054-1.01-.782-.648-.073-1-.466-.029.243-.4-.469-.035.241-.4-.47-.036.338-.215-.365.165.333-.223-.362.172.183-.325-.089.4-.063-.4-.065.4-.069-.4-.022.4-.251-.243.308.263-.376-.151.311.26-.378-.146-.022.821-.723.39-.075.818-.746.343-.128.812-.441-.092.179.413-.444-.088.176.418-.444-.087-.128.788-.749.284-.135.793-.754.282-.142.79-1.073.615-.512,1.126-1.113.539-.589,1.089-1.149.462-.448.931-.968.358-.4.953-.948.409-.345.973-.336-.218.315.25-.369-.161.333.226-.376-.143.3.3-.41-.089.251.338-.387-.165.156.391-.331-.251.166.381-.346-.229.189.37-.385-.176.329-.009-.277.29.3-.26-.27.295.3-.267.316.885.876.341.277.9.861.378.238.91.544.095-.208.512.481.272-.368.413.361.414-.425.139.349.284-.44.1.314.323-.453.06.07.745-.714.215-.29.687-.731-.145-.583.471-.135-.411-.13.4-.21-.369,0,.423-.323-.277.118.4-.237-.337-.027.411-.141-.39-.093.4-.015-.4-.006.4-.027-.4-.013.4-.025-.4-.014.4-.012-.4-.02.4v-.4l-.024.4-.059-.4-.051.4-.1-.391v.4l-.181-.366-.172.49-.416-.306-.263.445-.352-.379-.341.389-.033-.4-.02.4-.1-.39.025.4-.133-.38-.541.506-.668-.319-.594.442-.628-.392-.639.372-.128-.4-.163.395-.137-.4-.166.4-.14-.4-.312.391-.286-.41-.313.388-.283-.412-.312.386-.489-.431-.58.3-.384-.53-.632.168-.26-.6-.793-.036-.336-.719-.79-.088-.288-.74-.782-.14.053-.5-.5.066.094-.492-.5.027.134-.48-1.084-.878-.35-1.352-.981-.994-.2-1.381-.865-1.1.237-.556-.515-.314.264-.541-.5-.339.291-.531-.528-.5.271-.67-.5-.525.309-.655-.466-.553.35-.92-.369-.912.5-.846-.208-.962.642-.746-.083-.927.686-.629-.028-.931.722-.587.028-.932.457-.006-.256-.378.456-.022-.269-.368.454-.028-.311-.281.414.056-.311-.279.412.065-.309-.28.462-.032-.256-.387.465-.039-.253-.392.464-.039-.057-.788.661-.436-.055-.788.666-.434-.045-.793.558-.192-.136-.573.564-.167-.113-.578.568-.141-.048-.666.613-.266-.116-.658.581-.328-.185-.64.526-.306-.224-.567.532-.294-.218-.564.533-.284-.267-.427.482-.148-.27-.426.481-.151-.274-.425.567-.411-.216-.664.53-.455-.271-.643.49-.5-.368-.273.422-.177-.38-.255.413-.2-.39-.236.4-.287-.4-.3.4-.294-.4-.3.4-.295-.4-.266.4-.262-.4-.266.4-.259-.4-.269.409-.509-.389-.526.412-.508-.387-.527.412-.507-.391-.372.408-.35-.391-.376.409-.359-.391-.377.406-.276-.394-.293.4-.278-.4-.288.4-.282-.4-.068.4-.08h-.4l.369-.164-.371.135.186-.485-.449-.266.429-.3-.247-.463.525-.047-.315-.246.4.039-.391-.1.4-.063-.407-.023.269-1.8-.42-1.766.49-1.748-.194-1.806.707-1.673-.129-1.344.684-1.163-.062-1.347.741-1.127.007-1.351.659-.628-.082-.9.67-.61-.068-.906.674-.6-.365-.165.376.137-.363-.168.378.132-.366-.161.459-.069-.282-.369.459-.07-.282-.368.458-.07-.263-.4.474-.073-.243-.413.476-.048-.227-.416,1.527-1.867.963-2.211,1.733-1.678,1.213-2.085,1.914-1.466.251-.8.811-.218.268-.8.813-.2.275-.791,1.728-.9,1.319-1.431,1.832-.657,1.5-1.24,1.906-.4.687-.709.983.063.726-.667.977.119.763-.623.367.317.165-.458.37.316.165-.458.371.314.946-.666,1.151.115.961-.647,1.147.154.99-.6.657.295.536-.486.653.311.535-.476.64.32.113-.419.218.375.117-.419.222.375.117-.419.686.312.586-.479.687.317.587-.475.68.322,1.2-.519,1.258.353,1.252-.372,1.206.5,1.288-.221.083.422.226-.366.081.421.232-.364.088.423,1.134-.2.995.581,1.13-.222,1.013.547,1.119-.275.77.463.818-.372.808.392.78-.445.841.315.234-.434.337.36.241-.435.345.359.242-.435.774.3.676-.491.777.3.67-.5.788.285.808-.537.936.242.793-.556.941.215.769-.581,1.52.069,1.359-.689,1.519.119,1.382-.648,1.519.16.687-.513.812.275.685-.515.813.273.685-.516.172.377.042-.412.172.377.051-.413.178.377.507-.488.635.3.507-.487.634.3.506-.484.8.268.675-.5.784.307.7-.472.765.344.575-.4.572.412.6-.373.546.442.615-.337.763.5.872-.27.741.536.884-.241.724.549.333-.341.179.442.331-.343.18.442.329-.345.3.465.454-.32.3.466.454-.318.3.467.135-.381-.02.4.136-.381-.015.4.139-.38.6.526.754-.26.6.523.751-.267.613.515,1.338-.178,1.206.6,1.331-.206,1.221.563,1.32-.258.745.475.828-.316.743.482.832-.312.736.484.58-.337.491.457.576-.34.487.455.572-.341,1.034.5,1.1-.331,1.062.434,1.077-.4,1.09.367.435-.441.511.345.413-.458.526.324.393-.475.084.392-.04-.4.074.393-.037-.4.083.392.838-.534.965.254.843-.539.972.247.84-.547.641.293.5-.5.65.286.5-.5.642.285.357-.474.507.311.36-.475.51.312.361-.475.564.3.417-.485.567.3.407-.49.565.288.367-.5.564.262.344-.517.567.242.329-.526.95.168.782-.56.921.28.845-.46.877.395.352-.385.3.428.385-.351.256.454.411-.315.421.493.58-.3.444.48.57-.315.448.473.2-.375.081.417.2-.374.088.417.2-.374,1.423.622,1.552-.091,1.355.763,1.553.067,1.27.9.394-.274.114.468.379-.3.141.46.361-.318.839.642,1.052-.1.808.683,1.055-.053.773.721.839-.109.577.619.831-.166.618.58.815-.221.313.453.431-.349.346.434.412-.374.368.414.376-.386.359.4.363-.4.356.4.377-.386.36.425.419-.369.352.433.418-.362.34.435.078-.394,0,.4.078-.4v.4l.088-.394.194.455.419-.258.037.491.48-.109-.121.483.524.051-.2.482.491.177-.314.418.433.292-.2.209v-.4l-.2.209.419.406-.383.44.413.409-.392.43.4.433-.426.406.339.478-.479.338.267.522-.523.266.244.441-.5.077.17.472-.5,0,.091.493-.835.265-.3.822-.853.2-.362.8-.866.142-.231.672-.71.043-.213.679-.706.056-.2.679-.264-.3.244.317-.262-.3.236.324-.268-.3.06.467-.445-.154.058.468-.446-.155.058.467-.683.041-.2.656-.686,0-.235.644-.687-.034-.2.584-.606-.13-.253.566-.592-.182-.3.541-.84-.107-.539.655-.846-.061-.5.684-.848-.015-.015.467-.416-.213.025.466-.433-.176.063.465-1.067.347-.561.97-1.066.354-.555.973-1.056.353.029.494-.481-.119.035.494-.481-.116.038.493-.367-.212.156.393-.367-.212.148.4-.373-.208.116.426-.4-.183.119.425-.4-.181.121.425-.547-.056-.025.548-.547-.063-.042.552-.549-.077-1.209,1.44-1.7.8-1.216,1.434-1.707.8-1.225,1.432-.63-.032-.164.609-.632-.048-.176.6-.624-.06.064.439-.38-.225.067.437-.378-.227.076.434-2.166.925-1.831,1.481-2.267.638-2.008,1.232-2.33.34-.353.516-.572-.254-.354.515-.571-.255-.354.515-.144-.375.072.4-.145-.375.068.4-.147-.375-.411.531-.628-.239-.409.532-.628-.237-.406.533-.162-.371.036.4-.145-.377.025.4-.136-.381.032.4-.125-.383.041.4-.136-.378.2.263-.392-.022.4.045-.4.035.4.048-.4.036.4.19-.4.175.4.178-.4.182.408.151-.3,1.653.475,1.609-.353,1.641.418,1.623-.414,1.625.444,1.33-.278,1.371.59,1.268-.123,1.394.727,1.195-.331.284.435.042-.319.3.437.026-.308.309.5.147-.182.49.521.043-.076.517.524-.063.15.69.693.124.114.694.686.157.077.7.508-.033-.094.5.508-.024-.1.5.5-.026-.085.518h.526l-.079.525.532.008-.079.526.5-.026-.106.493.5-.027-.1.494.5-.03.422,1.1,1.026.574.424,1.1,1.027.573.425,1.1.334-.226-.267.3.33-.231-.265.3.329-.233-.24.331.35-.21-.245.326.349-.209-.258.314,1.214.809.6,1.327,1.213.81.6,1.328,1.213.81.235.867.846.3.308.844.869.228.375.812.434-.159-.03.466.411-.224.053.464.358-.3.079.458.42-.2-.111.453.466-.017-.279.377.513.361-.315.539.43.453-.413.468.335.531-.427.04.319.282-.422-.047.261.336-.417-.115-.3,1-.99.323-.625.832-1.041-.03-.867.577-.112-.389,0,.4-.137-.381.027.4-.157-.373.086.391-.136-.377.106.387-.151-.371.227.285-.765.47-.285.853-.894.1-.618.655-.855-.282.147.341-.283-.282.282.284-.284-.282.276.29-.347-.225.194.364-.342-.23.188.367-.337-.239-.17.633-.652-.072-.3.583-.621-.208-.416.506-.152-.377.022.406-.175-.367.032.406-.186-.362v.415l-.212-.357-.012.415-.193-.367-.042.413-.225-.378-.163.409-.184-.4-.2.389-.136-.417-.181.378-.063-.415-.192.373-.054-.416-.2.37.055-.4-.092.39.054-.4-.094.39.057-.4-.224.365-.075-.42-.216.368-.082-.418-.2.377-.323-.44-.416.357-.329-.437-.41.361-.327-.435-.192.383-.113-.413-.191.382-.119-.414-.2.382-.8-.542-.948.158-.679-.68-.961-.021-.542-.8-.757-.024-.284-.7-.751-.082-.228-.72-.742-.141-.738-1.253-1.292-.66-.761-1.236-1.309-.621-.8-1.2-1.035-.365-.465-.994-.995-.463-.367-1.034-.947-.558-.138-.85-.791-.337-.2-.835-.815-.274-.27-.817-.373.2.186-.38-.383.179.2-.371-.387.169.225-.348-.366.192.224-.348-.358.2.217-.349-.656-.084-.1-.654-.656-.08-.1-.653-.657-.078.255-.31-.3.265.254-.311-.3.264.254-.312-.393.176.163-.4-.392.179.163-.4-.391.179.218-.344-.334.234.216-.346-.338.229.213-.349-.473.1.08-.477-.475.1.084-.477-.476.094.07-.494-.493.073.073-.493-.494.07.075-.494-.372.194.2-.37-.373.191.189-.376-.355.207-.091-.171.355.2-.4-.078.357.191-.4-.078.343.228-.409-.046.344.226-.407-.053.351.121-.354.175.394-.1-.34.221.4-.091-.339.225.447.026-.288.343.447.027-.289.342.447.028.415,2.023,1.14,1.724.383,2.026,1.118,1.743.364,2.04.631.491-.09.794.654.461-.062.8.66.444-.256.387.462.036-.257.386.462.038-.259.384.5.118-.215.468.5.109-.207.474.5.1-.26.368h.45l-.263.364.449,0-.267.361.593.292-.121.652.594.295-.12.654.6.3-.337.221.377-.141-.326.237.362-.176-.3.268.468-.055-.157.445.472-.05-.153.45.473-.05-.21.377.414-.123-.211.377.415-.12-.21.38.7.289-.055.756.59.476-.269.709.43.62-.424.424.283.533-.545.261.09.6-.6.071-.263.78-.814.1-.417.706-.818-.067-.557.606-.337-.329-.11.453-.365-.289-.052.462-.414-.231-.062.511-.425-.275-.264.431-.278-.423-.406.3.005-.378.084.392-.119-.383.089.391-.127-.38-.375.512-.567-.285-.417.48-.541-.332-.454.441-.477-.357-.4.445-.491-.347-.395.451-.492-.343-.087.414-.185-.38-.086.413-.191-.379-.1.415-.519-.357-.456.432-.5-.377-.473.414Zm-19.88-40.518.006.4.106-.386-.094.39.2-.347-.19.352.3-.264-.288.278.376-.137-.369.155.4.009-.4.159.4.153-.4.157.4.146-.4.149.4.138-.389.172.418.05-.284.309.365-.2-.128.4.4-.131-.309.288.419.052-.379.2.416.1-.378.2.415.1-.38.193.414.1-.346.492.453.4-.335.5.467.383-.308.519.406-.014-.379.146.406-.012-.378.151.406-.008-.047,1.765.745,1.6-.023,1.768.781,1.586.034,1.768.41-.013-.364.19.411-.011-.362.2.412-.007-.125,1.094.656.886-.1,1.1.684.864-.051,1.1,1.039,1.744.281,2.013,1.029,1.75.269,2.013,1.023,1.763.052,1.414.837,1.139.118,1.409.89,1.1.184,1.4.743.535.168.9.862.31.41.819.913.059.636.714.956-.054.689.666.95-.123.735.614.275-.344.1.429.244-.368.143.418.213-.388.778.438.8-.386.8.388.778-.437.829.335.086-.414.181.381.083-.413.186.38.089-.414.5.342.4-.451.5.346.413-.446.487.356.434-.44.521.335.4-.476.548.289.356-.507.147.375-.058-.4.133.38-.053-.4.134.379-.062-.4.058.394.089-.389-.092.39.191-.353.086.449.27-.369.264.373.09-.448.388.228.04-.475.418.245.11-.472.382.3.162-.452.753.169.439-.639.775.007.3-.716.757-.151-.046-.541.538-.1-.22-.5.474-.272-.377-.4.372-.6-.5-.491.186-.675-.62-.326-.016-.7-.414.121.211-.378-.414.122.21-.377-.413.124.155-.446-.47.052.151-.451-.474.047.152-.451-.361.182.3-.267-.378.144.324-.244-.388.116.123-.647-.593-.293.122-.651-.6-.295.121-.653h-.448l.265-.362-.448,0,.263-.363-.448,0,.205-.473-.5-.106.21-.472-.505-.119.218-.469-.461-.038.258-.385-.462-.036.258-.386-.463-.036.056-.8-.662-.458.07-.8-.648-.484.106-.8-1.108-1.748-.372-2.031-1.127-1.732-.4-2.021L252,211.3l.291-.341-.447-.027.289-.342-.446-.026.288-.343-.4.078.333-.239-.4.077.33-.245-.4.072.364-.166-.4.028.4-.043-.389-.1.393.082-.333-.247.412.041-.337-.241.414.031-.338-.243.424,0-.328-.269.425.007-.318-.283.426.021-.328-.232.338.217-.225-.332.239.322-.091-.391.106.387.054-.4-.033.4.185-.356-.189.346.428-.138-.135.431.428-.138-.128.437.436-.13-.075.494.494-.07-.075.493.492-.074-.07.493.474-.1-.084.476.474-.1-.082.476.473-.1-.218.344.334-.233-.217.345.339-.229-.215.349.392-.179-.161.4.392-.178-.162.4.393-.175-.255.309.3-.265-.255.31.3-.263-.253.311.657.079.1.654.656.081.1.654.656.085-.214.352.358-.2-.225.345.363-.2-.23.342.389-.165-.2.369.383-.178-.191.375.369-.2.285.831.828.288.219.85.8.352.15.867.932.537.352,1.015.977.445.447.977,1.016.349.812,1.21,1.315.627.764,1.238,1.3.666.743,1.257.728.129.214.708.737.07.269.689.743.014.5.772h.919l.635.664.9-.169.75.534.191-.383.11.413.188-.383.116.414.2-.383.334.436.415-.36.333.437.418-.357.325.441.2-.376.086.418.216-.369.08.422.33-.312-.324.238.4-.035-.379.139.4-.031-.251.286-.12-.272.4.026-.384-.122.4.022-.319-.238.216.369.192-.371.053.415.183-.376.063.413.2-.38.133.407.154-.4.177.391.113-.414.158.378.007-.411.188.365-.015-.41.194.361-.016-.412.2.36-.01-.411.177.369.007-.409.545.284.31-.53.593.162.191-.583.613.033-.187-.366.336.238-.2-.362.338.234-.2-.358.286.28-.254-.31.284.282-.252-.312.289.278-.216-.337.228.329-.11-.385.124.381.006-.4.776.308.555-.624.832-.066.224-.8.718-.427-.331-.227.34.214-.244-.318.256.308-.133-.378.189.357-.086-.395.182.36-.078-.395.153.372-.024-.406.161.374,0-.408.138.383.026-.406.943.22.68-.687.961-.109.408-.877.864-.428-.263-.312.391.131-.307-.275.409.055-.358-.2.45-.374-.388-.441.368-.457-.466-.358.273-.518-.421.019.258-.335-.384.177.1-.41-.279.318-.14-.471-.425.246-.051-.488-.461.167.025-.5-.894-.2-.355-.842-.871-.277-.283-.869-.845-.349-.6-1.328-1.212-.81-.6-1.328-1.213-.809L283.2,211.8l-.345.212.259-.311-.34.219.252-.316-.339.222.251-.319-.339.222.255-.314-.337.222.266-.3-1.028-.572-.424-1.1-1.027-.573-.423-1.1-1.026-.575.1-.494-.5.028.1-.494-.5.025.105-.494h-.524l.083-.519-.531-.007.079-.525-.532-.008.109-.49-.5.025.1-.5-.509.027.092-.5-.671-.162-.086-.686-.68-.13-.12-.682-.683-.094-.008-.55-.554-.025.1-.545-.537-.138.21-.514-.441-.028.31-.314-.439-.043.321-.3-.436-.059.038-1.427-.666-1.262.2-1.414-.52-1.329.354-1.38-.386-1.62.382-1.626-.447-1.608.325-1.64-.5-1.6.39-.2-.4-.172.4-.179-.4-.186.4-.181-.4-.08.4-.067-.4-.08.4-.073-.4-.084.4-.006-.365-.166.373.148-.274-.293.288.28-.1-.4.25.33-.013-.413.2.365.025-.413.128.382-.032-.4.137.379-.046-.4.154.373.406-.533.628.237.409-.532.628.239.412-.531.145.375-.072-.4.145.374-.068-.4.146.374.355-.514.57.256.353-.515.571.254.353-.517,2.3-.33,1.977-1.22,2.238-.624,1.8-1.465,2.138-.908-.076-.432.377.227-.073-.434.377.228-.07-.435.628.057.176-.6.628.051.165-.609.628.034,1.227-1.433,1.7-.8,1.218-1.435,1.7-.8,1.208-1.438.541.083.037-.548.544.065.027-.55.538.064-.12-.426.4.179-.119-.426.4.182-.115-.426.366.214-.156-.393.366.212-.148-.4.373.208-.037-.495.483.114-.033-.495.482.118-.028-.495,1.058-.354.554-.972,1.064-.352.562-.971,1.067-.346-.048-.478.448.164-.008-.478.433.2.035-.478.861.009.515-.689.859.055.552-.661.854.1.28-.533.573.189.234-.556.588.14.186-.574.673.042.225-.637.676,0,.188-.649.671-.033-.057-.467.447.154-.058-.469.446.154-.06-.467.264.3-.244-.317.262.3-.236-.324.268.3.2-.682.707-.057.216-.682.717-.048.238-.677.852-.132.349-.787.839-.193.29-.81.823-.253-.118-.464.478.036-.191-.439.477-.043-.26-.4.511-.233-.276-.487.472-.3-.343-.443.423-.369-.4-.42.392-.426-.413-.408.383-.434-.419-.4.4-.011h-.4l.4-.01-.426-.234.326-.359-.47-.12.223-.431h-.489l.173-.421-.422.156.039-.448-.348.285-.114-.437-.079.4.005-.4-.073.4,0-.4-.075.4-.339-.436-.42.362-.345-.432-.415.369-.357-.424-.377.385-.356-.4-.361.4-.354-.4-.373.386-.383-.414-.426.372-.36-.436-.449.347-.328-.457-.833.217-.636-.584-.849.161-.6-.625-.857.1-.76-.716-1.043.057-.795-.679-1.04.108-.827-.639-.374.315-.154-.464-.392.292-.128-.472-.407.269-1.246-.887-1.53-.059-1.33-.757-1.528.1-1.4-.618-.2.375-.083-.417-.2.375-.089-.418-.208.373-.454-.474-.575.315-.451-.482-.591.3-.431-.5-.391.32-.237-.45-.364.354-.276-.427-.33.386-.845-.394-.814.458-.888-.286-.751.554-.919-.178-.337.529-.578-.239-.348.518-.568-.261-.378.5-.566-.287-.4.49-.564-.3-.413.484-.556-.3-.364.475-.513-.31-.367.476-.516-.31-.367.476-.644-.284-.5.5-.649-.286-.506.5-.644-.293-.839.547-.971-.247-.845.54-.972-.253-.84.534-.078-.393.043.4-.075-.394.04.4-.086-.392-.4.476-.533-.323-.424.46-.523-.344-.448.442-1.107-.367-1.093.4-1.081-.434-1.115.332-1.052-.5-.574.341-.485-.455-.575.339-.49-.457-.582.338-.734-.484-.825.312-.744-.482-.828.317-.747-.476-1.328.257-1.23-.565-1.336.206-1.215-.6-1.345.177-.612-.515-.758.266-.607-.524-.752.26-.6-.526-.124.383.032-.4-.125.383.029-.4-.127.383-.313-.47-.47.316-.316-.469-.461.319-.309-.466-.331.344-.18-.442-.331.343-.179-.443-.332.343-.717-.548-.873.242-.734-.534-.868.27-.759-.5-.6.337-.532-.442-.579.373-.558-.41-.559.4-.752-.345-.686.47-.772-.307-.662.5-.784-.27-.508.485-.636-.3-.508.486-.634-.3-.507.488-.172-.378-.042.413-.173-.378-.05.414-.178-.376-.685.516-.813-.273-.686.516-.813-.276-.688.513-1.512-.161-1.373.646-1.514-.12-1.351.687-1.513-.071-.776.583-.949-.213-.8.557-.946-.241L217.4,143l-.791-.285-.677.5-.784-.3-.673.491-.775-.3-.233.434-.338-.36-.241.435-.344-.359-.242.435-.864-.313-.8.447-.832-.391-.84.371-.793-.465-1.12.275-1.016-.547-1.133.222-1-.582-1.129.2-.087-.423-.232.365-.091-.424-.235.364-.093-.424-1.259.226-1.178-.5-1.222.373-1.228-.354-1.17.516-.681-.322-.585.475-.685-.317-.584.479-.686-.312-.113.418-.218-.375-.117.419-.223-.374-.118.419-.639-.32-.535.476-.642-.313-.53.486-.652-.3-.976.6-1.132-.158-.948.643-1.141-.117-.927.661-.381-.312-.174.461-.377-.314-.168.459-.37-.316-.75.62-.965-.123-.712.662-.971-.067-.675.7-1.874.39-1.471,1.223-1.8.639-1.292,1.411-1.7.878-.273.789-.809.2-.262.791-.807.215-.247.8-1.9,1.445-1.194,2.063-1.716,1.655-.947,2.188L160.5,163.1l.231.408-.471.038.249.4-.469.062.268.389-.458.069.283.368-.459.069.281.37-.4-.007.065.347-.021-.4-.081.4-.025-.4.1.307-.2.092.2-.353-.1.39.2-.352-.223.167.081.857-.672.6.076.9-.664.614.1.895-.764,1.092.031,1.336-.709,1.133.1,1.332-.651,1.165.087,1.778-.6,1.678.308,1.754-.382,1.74.525,1.7-.382.169.391.161-.419.056.321.276-.4-.1.2.4-.449.05.367.262-.354.278.456.013-.3.3.417-.017-.364.2.408.082-.4.123.4.286-.4.277.395.29-.406.277.393.3-.408.353.391.369-.408.358.391.378-.408.358.387.526-.413.507.388.525-.411.508.391.524-.4.255.4.266-.4.259.4.264-.4.261.4.3-.4.3.4.3-.4.294.394.306-.408.218.384.258-.419.2.372.276-.427.178.3.651-.514.5.239.673-.554.452.183.691-.479.152.271.426-.482.15.268.429-.483.148.216.564-.53.281.221.563-.529.3.231.565-.573.384.14.675-.609.321.069.686-.64.257.108.569-.561.146.131.564-.556.171.151.561-.665.425.049.794-.663.435.059.785-.657.43.256.385-.463.034.254.392-.465.039.253.391-.408-.074.313.272-.409-.068.316.269-.409-.067.263.383-.461.04.257.385-.46.024.245.388-.731.551.007.916-.7.6.062.914-.662.635.135.935-.566.756.295.9-.428.842.446.833-.33.631.48.527-.292.65.509.5-.255.663.486.336-.28.523.5.315-.253.537.517.287.11,1.363.912,1.02.26,1.343,1.019.913.408,1.306.489-.022-.126.471.484-.062-.089.48.477-.1.25.738.773.1.3.72.777.052.346.7.6-.123.274.548.559-.252.388.474.493-.37.289.414.317-.387.284.41.312-.389.284.409.167-.395.142.4.167-.394.138.4.172-.394.578.426.591-.406.621.358.541-.471.658.286V234.6l.141.382.042-.4.089.4.087-.4.274.407.258-.418.346.349.176-.458.4.28-.005-.41.183.371.057-.41.12.4.114-.4,0,.4,0-.4.011.4.021-.4.015.4.048-.4.059.4.033-.4.1.391-.1-.378.385.241.055-.449.293.344.186-.412.205.414.457-.46.616.181.178-.617.63-.128-.13-.632.445-.036-.32-.306.435-.075-.353-.265.421-.116-.368-.333.376-.327-.458-.2.243-.435-.5-.027-.23-.9-.854-.37-.271-.891-.868-.333-.309-.877-.336.228.242-.327-.343.218.25-.32-.349.209.3-.27-.4.065.392-.09-.379-.136.386.112-.319-.242.346.2-.313-.25.34.212-.3-.27.4.154-.165-.4.386.189-.135-.408.367.222-.2-.353.36.189-.291-.287.391.118-.321-.252.389.117-.319-.252.38.143-.289-.285.354.2.354-.982.957-.419.4-.962.978-.366.458-.941,1.137-.451.576-1.077,1.1-.528.5-1.114,1.062-.6.14-.787.751-.279.135-.793.749-.285.125-.787.441.093-.179-.414.444.088-.175-.417.444.087.118-.8.737-.329.065-.8.714-.377.014-.807.386.133-.3-.272.382.141-.3-.278.381.144-.331-.224.347.2-.333-.222.352.19-.329-.228.346.2-.22-.335.237.323-.072-.4.092.391.119-.4.12.4.118-.4.125.4.125-.4.01.4.172-.362-.153.37.3-.263-.288.281.378-.149-.307.266.379-.146-.318.251.381-.134-.244.4.467.03-.241.4.469.035-.24.4.788.646.072,1.016.775.664.037,1.021.742.7,0,1.019.752.686.052,1.017.788.645.108,1.012.46-.006-.231.4.46-.006-.231.4.461,0,.209,1.147.9.739.23,1.145.924.713.275,1.135.669.275,0,.724.666.288-.007.724.661.289-.156.5.517.062-.156.5.517.06-.154.5.61.178-.024.635.62.13.024.633.633.085-.141.429.377-.229.053.438.221-.381.263.354.035-.418.139.394.192-.371-.019.418.3-.29.707.779,1.052-.068.873.591,1.008-.309.985.376.359-.426.414.377.372-.418.406.384.371-.415.281.391.254-.41.284.389.245-.411.276.387.148-.409.211.381.118-.42.237.364.08-.426.387.315.192-.461.392.312.19-.464.393.311-.048-.4.154.373-.046-.4.158.372-.043-.4.371.317.171-.457.371.318.173-.457.37.32.158-.463.406.273.082-.482.444.205,0-.487.376.216-.07-.43.348.264-.008-.437.284.319.158-.454.429.229-.034-.484.485.021-.252-.419.41.055-.33-.243.4.1-.317-.259.4.106-.344-.21.388.105-.356-.189.394.087-.361-.179.5-.336-.356-.481.368-.472-.488-.346.2-.563-.572-.181.018-.6-.6.007-.17-.575-.564.194-.409-.548-.661.189-.368-.579-.674.137-.324-.607-.251.322.109-.393-.253.32.116-.391-.253.319.17-.365-.285.286.233-.329-.339.216.33-.22-.679-.915.119-1.132-.632-.948.173-1.125-.585-.977.329-.452-.458-.324.334-.45-.454-.324.337-.443-.453-.326.337-.446-.455-.322.333-.446-.459-.313.3-.6-.49-.461.3-.6-.493-.459.294-.606-.518-.589.27-.738-.515-.591.276-.732-.508-.593.3-.657-.486-.539.312-.654-.477-.54.318-.647-.421-.131.372-.237-.421-.136.371-.242-.422-.138.4-.107-.4-.067.4-.072-.4-.081.4-.046-.378-.138.385.113-.264-.3.282.286-.084-.393.116.384-.077-.393.117.383-.075-.394.118.383-.005-.411.186.366,0-.41.177.37,0-.41.424.322.261-.462.428.321.27-.463.429.321.6-.53.757.254.6-.531.757.252.593-.533,1.072.184.907-.6,1.074.179.906-.6,1.075.177.118-.436.289.347.12-.436.289.348.221-.43-.2.339.368-.165-.314.253.37-.162-.138.351-.21-.205.381-.131-.4.036.38-.135-.31-.18.591.271.361-.489.536.29.357-.494.541.279.368-.506.566.267.363-.509.568.263.362-.51.132.378-.073-.394.133.378-.07-.4.135.378.512-.551.722.223.515-.548.723.228.525-.542.788.224.615-.541.778.258.638-.514.764.292.931-.536,1.051.222.893-.6,1.064.152.851-.655.352.311.119-.456.355.309.118-.455.361.307-.1-.39.143.375-.094-.39.145.374-.093-.39.119.382-.066-.4.074.393-.022-.4Zm19.968,38.863-.388-.4-.4.39-.375-.416-.415.376L247,237.56l-.091.4-.01-.4-.119.386.012-.4-.153.376-.692-.6-.906.14-.649-.648-.913.077-.6-.691-.79.015-.3-.732-.765-.206-.086-.787-.677-.412-.177-1.386-.882-1.084-.111-1.4-.83-1.125-.045-1.4-1.021-1.756-.267-2.009-1.03-1.753-.281-2.015-1.041-1.751.065-1.056-.671-.818.114-1.054-.644-.844.137-1.044-.865-1.792-.056-1.989-.81-1.819-.009-1.989-.778-1.829.267-.741-.5-.608.31-.726-.466-.636.351-.7-.4-.269.367-.321-.453-.18.272-.4-.488-.055.32-.26-.408.036.375-.162-.4-.057.4-.092-.4-.028.4-.044-.4-.043.4-.028-.4-.056.4-.028-.4-.055.4-.038-.4-.035.4-.056-.4-.006.4-.032-.4-.008.4-.039-.4.017.379-.154-.407.041.313-.263-.372.17.214-.348-.3.278.121-.388-.208.349.009-.406-.1.392-.177-.387-.106.415-.215-.369-.055.423-.246-.345-.168.466-.4-.3-.161.469-.406-.288-.156.477-.866-.147-.644.6-.855-.2-.678.557-.842-.251-.08.422-.211-.372-.1.416-.2-.38-.11.414-.125-.39-.042.407-.121-.39-.034.406-.127-.387-1.121.579-1.249-.177-1.088.639-1.257-.11-1.053.7-.436-.3-.225.475-.434-.295-.22.476-.433-.294-.41.528-.621-.245-.412.523-.615-.254-.42.514-.709-.247-.535.528-.711-.258-.539.52-.7-.266-.229.454-.387-.329-.227.455-.389-.329-.225.456-.385-.327-.217.455-.385-.326-.217.456-.385-.326.049.4-.121-.383.048.4-.123-.382.046.4-.415-.319-.248.462-.414-.32-.248.462-.413-.322-.839.585-1-.2-.838.581-1-.2-.844.577-.322-.315-.161.437-.266-.382-.255.39-.179-.431-.112.388-.06-.4.006.4-.184-.358.144.378-.414-.224-.052.466-.367-.291-.129.451-.322-.345.086.391-.135-.377.115.384-.144-.374.1.387-.824-.169-.593.6-.826-.162-.588.606-.834-.147-1.3.858-1.56.058-1.346.79-1.56-.021-1.385.72-.188-.371-.036.413-.182-.373-.036.414-.181-.374.014.4-.128-.383.013.4-.133-.382.009.4-.377-.34-.232.449-.381-.334-.229.454-.394-.324-.3.481-.489-.294-.3.486-.489-.29-.29.486-.361-.322-.163.454-.356-.323-.164.452-.365-.322-.262.487-.444-.324-.334.436-.385-.392-.391.379-.145-.385-.071.416-.218-.362-.03.422-.257-.337.058.4-.075-.393-.09.39.072-.394-.222.333.2-.348-.232.326.188-.353-.211.34.169-.363-.195.349.182-.356-.22.334.21-.34-.242.318.127-.391-.254.322.01-.41-.128.389-.137-.386.022.408-.24-.33.142.382-.33-.24.256.319-.365-.179.29.283-.371-.162.314.255-.376-.146-.208,1.131-.921.692-.287,1.115-.966.626-.36,1.089-1.142.8-.551,1.283-1.184.74-.616,1.253-1.219.678.266.3-.286-.28.264.3-.294-.272.258.306-.568-.012-.02.568-.567-.021-.034.567-.564-.042-.764,1.2-1.268.649-.675,1.256-1.218.74-.581,1.3-.4-.161.185.382-.379-.191.164.391-.365-.215.238.321-.242-.318.207.343-.222-.334.19.353-.217-.337.19.352-.24-.32.227.33-.311-.251.167.54-.5.259.342.447-.383.412.464.289-.193.346.317-.281.087.414.088-.414.32.279-.205-.35.306.264-.217-.341.315.254-.222-.339.283.286-.045-.4.074.4.187-.357-.16.37.295-.273-.248.316.3-.268-.258.308.313-.252-.106.485.5-.043-.1.49.5-.038-.1.491.568.04-.033.568.567.038-.032.566.567.037-.185.443.462.126-.375.3.345.331-.482.108.28.376-.45-.053.1.44-.382-.243-.1.442-.078-.393-.073.394.058-.4-.2.348.184-.356-.3.261.293-.273-.373.147.366-.164-.4.017.4-.088-.4-.042.4-.087-.4-.043.4-.049-.385-.135.408-.049-.389-.129.4-.063-.4-.088.352-.216-.412.075.2-.366-.335.252.021-.418-.182.373-.159-.384.023.415-.334-.246.24.34-.376-.153.314.255-.374-.154.323.242-.377-.143.3.261-.315-.247.183.356-.2-.347.038.4-.055-.4v.4l-.035-.4-.024.4.012-.4-.184.4-.275-.337.037.434-.4-.16.245.367-.433-.05.263.341-.423-.077.255.344-.419-.088.313.254-.362-.177.313.254-.363-.174.311.255-.342-.208.25.313-.262-.3.143.374-.157-.369-.494.512-.645-.3-.539.465-.615-.359-.582.413-.349-.417-.378.383-.339-.416-.375.384-.338-.415-.078.4-.044-.4-.079.4-.048-.4-.083.4-.248-.411-.284.388-.247-.412-.284.387-.243-.413-.3.366-.153-.447-.373.289-.051-.47-.421.206-.286-.662-.724-.015-.249-.68-.723-.059-.208-.693-.441.138.117-.447-.452.1.152-.438-.46.064-.427-1.333-1.032-.943-.266-1.373-.913-1.058-.1-1.394-.474-.176.3-.412-.468-.2.312-.4-.46-.208.351-.263-.429-.09.356-.256-.427-.1.359-.252-.4.061.391-.084-.4.063.39-.093-.4.057.368-.206-.418-.054.367-.207-.418-.05.366-.2-.5-.6.333-.708-.425-.657.413-.665-.346-.7.418-.154-.364-.26.432-.118-.338-.293.442-.08-.1-.953.679-.675-.035-.958.726-.625.034-.958.448.011-.265-.359h.446l-.273-.355h.442l-.309-.281.412.066-.31-.279.409.074-.31-.276.519-.145-.2-.5.517-.146-.2-.5.518-.146-.072-.759.645-.4-.067-.763.652-.408-.061-.765.538-.156-.156-.536.542-.131-.134-.543.546-.1-.008-.727.648-.329-.084-.723.61-.4-.159-.709.526-.3-.223-.568.534-.295-.216-.568.508-.238-.109-.32.054.4.051-.4.058.4-.116-.3.2-.1-.186.358.094-.392-.189.356.22-.229-.28-.328.48-.141-.271-.42.479-.144-.274-.418.713-.9-.128-1.14.579-.99-.287-1.11.435-1.062-.4-.835.406-.835-.39-.84.412-.822-.385-.834.4-.009-.4-.026.4-.006-.4-.029.4-.012-.393-.409.407-.4-.393-.41.4-.4-.4-.4.394-.153-.36-.235.431,0-.248-.352.406.149-.241-.332.4.1-.353-.209.4-.064-.413-.058.267-1.008-.5-.911.317-.991-.456-.934.368-.974-.415-1.2.446-1.184-.29-1.232.565-1.132-.164-1.251.683-1.349-.053-1.514.766-1.307.04-1.514.844-1.256-.134-.77.617-.484-.125-.772.621-.472-.116-.77.535-.249-.191-.559.546-.226-.166-.569.556-.2.764-2.146,1.558-1.663,1.006-2.044,1.738-1.473,1.235-1.916.859-.278.31-.848.866-.262.328-.844.868-.242,1.163-1.44,1.714-.7,1.347-1.269,1.793-.463,1.506-1.076,1.323-.062,1.069-.781,1.324.016,1.113-.718,1.322.092-.058-.4.132.38-.061-.4.134.379-.058-.4.9.188.714-.586.9.2.731-.568.9.233.544-.5.672.3.563-.481.668.317.562-.472.3.365.2-.428.3.366.2-.428.3.365.525-.471.627.323.528-.47.626.326.531-.469,1.176.307,1.137-.423,1.13.445,1.18-.281,1.065.58,1.375-.139,1.238.619,1.369-.2,1.265.562,1.358-.263.423.43.465-.383.449.4.445-.409.476.378,2.056-.6,2.135.145,2.022-.7,2.14.033,1.982-.807,1.181.143,1.012-.634,1.179.159,1.019-.61,1.171.2.488-.488.621.3.492-.484.62.307.5-.483.1.389-.021-.4.1.388-.019-.4.106.388.2-.435.324.354.2-.437.325.354.2-.438,1.157.217,1.026-.571,1.157.218,1.031-.571,1.165.219.8-.553.927.283L239.3,140l.9.371.893-.388.634.466.708-.319.612.485.728-.3.6.5,1.109-.215.974.58,1.117-.2.966.588,1.114-.2.25.456.4-.328.247.459.41-.323.248.461.591-.285.431.5.588-.292.442.489.584-.306,1.261.608,1.384-.192,1.273.584,1.376-.233,1.291.532.67-.34.6.461.68-.33.59.468.672-.327-.01.4.081-.393-.01.4.085-.393-.008.4.641-.331.555.464.644-.333.562.459.639-.342,1.132.5,1.19-.34,1.166.412,1.159-.434,1.2.317.464-.458.566.325.449-.473.569.312.437-.479.172.377.037-.412.172.377.045-.413.178.376,1.008-.575,1.142.213,1.008-.577,1.142.21,1.006-.58.308.353.169-.437.311.35.166-.438.312.349-.04-.4.1.388-.038-.4.106.387-.037-.4.445.324.3-.463.445.327.3-.458.431.333.789-.544.935.213.752-.6.947.151.713-.643.925.152.741-.57.9.272.811-.463.848.4.221-.4.191.409.25-.378.153.426.295-.351.658.551.82-.254.683.52.814-.28.689.5.108-.388-.009.4.11-.388-.005.4.111-.387.968.559,1.1-.2.93.621,1.112-.123.889.679.174-.366-.062.4.185-.36-.082.4.207-.348.485.636.788-.137.533.6.782-.181.55.577.125-.38-.1.386.124-.38-.094.389.129-.379.225.482.451-.284.222.484.456-.276.21.489.41-.282.15.477.417-.275.139.477.414-.273-.123.381.154-.369-.127.379.157-.368-.121.382.442-.264.166.487.441-.267.177.485.435-.276.473.569.707-.205.488.556.707-.221.513.548.354-.337.211.438.321-.365.246.42.3-.389.276.412.3-.392.282.4.292-.4.283.4.077-.4.071.4.079-.4.076.4.083-.4.009.4.222-.335-.2.349.363-.174-.351.2.4.036-.4-.009.326.234-.341-.212.16.368-.194-.351.146.374-.194-.351.144.374-.195-.35v.443l-.344-.279,0,.442-.348-.274.013.442-.337-.254.171.388-.406-.122.3.3-.415.026.329.344-.424.231.413.249-.332.35.472.106-.323.264.414-.033-.346.229h.415l-.362.206.535.265-.024.6.59-.081.312.509.451-.4.438.352.288-.473.49.259.186-.522.532.153-.122-.383.145.375.067-.4-.044.4.241-.322-.222.335.363-.173-.352.194.4.01-.4.014.319.327-.454.049.241.388-.454-.048.156.428-.739.19-.2.739-.753.132-.253.722-.761.071-.1.565-.569-.074-.084.569-.57-.062-.072.566-.284-.285.211.343-.286-.284.209.345-.288-.282.117.417-.377-.211.116.417-.38-.21.114.418-.341-.233.154.387-.325-.261.111.4-.294-.292-.7.752-1.03-.023-.769.687-1.024-.115-.828.615-.187-.366.033.409-.234-.337.1.4-.284-.3.2.343-.2-.346.207.342-.219-.335.21.341-.339-.241.23.346-.411-.061.362.2-.392.134.413.02-.311.274.388-.147-.172.378.3-.291-.148.373.317-.246-.3.264.394-.075-.389.1.385.114-.391-.092.289.279-.3-.261.13.379-.69-.161-.389.594-.7-.132-.364.609-.7-.1-.149.512-.486-.222-.17.5-.48-.237-.185.5-.344-.3.023.448-.418-.161.2.4-.446.021.294.32-.432-.06.2.389-.4-.172.1.418-.412-.186.079.447-.419-.179.074.45-.419-.179-.766,1.108-1.257.488-.742,1.125-1.24.532-.688,1.161-.33-.243.2.358-.317-.256.192.359-.309-.266-.169.64-.661.009-.168.64-.662.011-.167.64-.263-.3.242.318-.262-.3.232.326-.266-.3-1.3,1.525-1.8.887-1.325,1.5-1.823.836-1.384,1.452-1.13.273-.7.926-1.138.235-.732.9-1.141.183-.941.909-1.3.145-1.007.838-1.31.049-1.064.76-1.376.016-1.153.756-1.38-.032-1.177.729-1.372-.054.054.4-.147-.375.052.4-.15-.375.052.4-1.216-.069-.98.723-1.219-.012-.945.769-1.217.045.08.4-.213-.346.078.4-.218-.344.074.4-1.077-.007-.778.742-1.078.013-.757.767-1.076.061.082.394-.1-.388-.094.39.073-.4-.252.313.235-.326-.362.175.351-.195-.4.006.4-.027-.384-.121.4.034-.382-.129.4.047-.377-.141.427-.047-.343-.259.428-.04-.339-.265.428-.038-.359-.2.408.028-.358-.2.41.021-.357-.2.412.019-.363-.194.411-.008-.377-.164.41-.039-.4-.115.347-.229-.4.1.2-.367-.312.275-.028-.419-.137.4-.247-.341.09.411-.39-.161.28.312-.41-.078.312.278-.417-.035.338.248-.544.387.223.625-.54.393.229.627-.537.415.343.282-.436.02.26.35-.426-.1.158.408-.3-.272.24.322-.314-.251.269.3-.313-.247.168.413-.447.008.356.267-.355.267.446-.012-.305.263.361-.175-.328.232.367-.164-.343.207.383-.116-.379.131.4-.01-.4.024.387.1-.543.5.213.707-.569.471.173.718-.594.44.242.486-.5.2.24.489-.507.2.24.491-.951,1.356-.2,1.641-.952,1.354-.211,1.649-.959,1.359.028,1.062-.7.795.066,1.061-.684.817.085,1.053-.417-.006.346.232-.418-.007.343.241h-.419l.338.251-.421-.015.325.268-.421-.026.318.277-.389-.1.352.2-.391-.1.351.2-.392-.1.362.17-.368-.158.35.195-.366-.164.344.205-.36-.175.341.211-.372-.151.359.178-.392-.07.333.511-.486.369.256.553-.534.294.176.579-.46.149.359.334-.388.3.448.2-.272.4.908,1.1.169,1.42.9,1.11.159,1.424.892,1.114-.054.941.683.652-.069.939.672.649-.078.933.743.767.024,1.065.774.733.068,1.063.8.7-.229.439.487.079-.23.435.486.076-.23.435.515.134-.2.49.516.137-.2.5.518.139-.3.3.419-.055-.3.3.419-.053-.3.3.418-.055-.3.295.417-.06-.3.3.415-.066-.276.319.423-.034-.332.265.422.054-.379.185.408.076-.338.244.4-.1-.184.372.3-.294.039.47.428-.187-.093.458.463-.067-.208.422.4-.126-.27.314.389-.143-.261.322.389-.145-.257.328.391-.141-.264.319.389-.14-.268.319.548.1-.186.522.5.23-.307.462.435.344-.41.211.338.313-.457.06.211.409-.446-.1.025.494-.477-.138-.006.5-.468-.167-.034.5-.221-.335.018.4-.04-.4-.171.363.151-.372-.32.244.3-.264-.395.071.39-.094-.383-.118.39.089-.381-.124.392.083-.386-.108.4.055-.36-.4.4-.355-.435-.311.315-.431-.491-.213.346-.221-.4.086.321-.252-.382.14.287-.287-.375.179.109-.4-.236.341-.111-.4-.022.416-.307-.289.171.381-.4-.1.339.244-.4.111.41.032-.377.157.409.008-.372.173.411,0-.373.166.407-.006-.376.156h.407l-.383.136.423.32-.427.315.3.434-.5.173.171.5-.4-.124.174.381-.319-.272.006.42-.193-.374-.209.423-.316-.35-.141.449-.365-.3-.073.464-.294-.305v.426l-.252-.343-.059.422-.2-.375-.042.4.017-.4-.2.35.186-.355-.32.241.3-.261-.387.1.382-.12-.4-.057.4.035-.377-.135.391.087-.385-.109.4.045-.4-.049.4-.11-.406-.083.381-.164-.414-.022.352-.221-.406.08.205-.36-.314.272.012-.414-.145.389-.191-.375.029.415-.34-.239.243.337-.414-.018.226.52-.559.1-.06.566-.538-.186-.311.465-.849-.271-.75.493-.835-.329-.782.44Zm-19.092-40.767.117.408.225-.36v.424l.314-.285-.115.409.4-.172-.218.373.43-.04-.324.286.42.1-.4.059h.4l-.4.041.4.023-.4.045.4.024-.4.05.4.05-.4.042.4.065-.4.021.4.05-.4.026.4.03-.4.038.4.044-.4.044.4.01-.385.113.372-.132-.186.484.492.167-.31.418.433.287-.4.346.447.636-.331.7.482.6-.291.714.516.574-.007,1.981.79,1.819.027,1.982.834,1.8.088,1.981.635.837-.131,1.044.653.825-.1,1.048.69.794.287,2.018,1.036,1.754.276,2.016,1.026,1.754.262,2.013.8,1.132.073,1.386.853,1.1.14,1.38.9,1.053-.059.73.685.256.146.716.729.055.343.648.9-.051.608.663.892-.114.653.619.882-.175-.047.4.118-.384-.02.4.085-.393,0,.4,1.2-.331,1.176.408,1.159-.452,1.211.287,1.11-.569.37.338.1-.478.469.136-.148-.465.473-.124-.29-.376.471.018-.053-.469.4.259.181-.431.232.4.361-.3-.009.47.463-.079-.237.4.415-.008-.361.206.414.04-.383.164h.383l-.063.267-.09-.393.195.353-.116-.386.212.342.111-.481.4.286.181-.459.354.343.247-.426.1.388-.1-.387.239.32-.255-.307.342.206-.2-.444.478-.1-.315-.372.423-.244-.417-.253.384-.127-.4.012.38-.142-.4.021.377-.147-.415-.027.37-.189-.414-.03.375-.175-.413-.054.413-.238-.3-.364.473-.013-.084-.465.419.226.149-.451.248.4.36-.3.006.472.465-.081-.272.31.4-.115-.308.276.409-.062-.335.247.482.175-.31.407.445.251-.374.349.372.215.082.161-.1-.423.378.214-.114-.419.389.2-.2-.377.413.091-.316-.281.42-.053-.392-.162.366-.364-.461-.232.267-.442-.5-.113.153-.491-.384.146.271-.312-.384.149.27-.31-.38.157.247-.341-.4.128.254-.334-.4.126.271-.312-.429.065.2-.386-.4.162.1-.424-.329.274-.036-.459-.445.132.2-.422-.456-.093.369-.288-.409-.051.362-.191-.408.05.319-.26-.4.113.287-.319-.424.048.294-.308-.42.051.3-.3-.418.054.3-.3-.419.055.3-.3-.418.058.2-.493-.514-.131.2-.5-.517-.138.2-.5-.485-.077.23-.435-.486-.077.23-.434-.484-.076-.091-1.062-.79-.718-.047-1.067-.76-.75,0-1.066-.673-.657.075-.936-.68-.658.06-.948-.69-.649-.15-1.414-.9-1.109-.163-1.42-.9-1.1-.172-1.414-.507-.212.32-.44-.408-.361.445-.313-.268-.48.543-.228-.226-.536.5-.293-.3-.5.455-.367-.391-.12.4.027-.349-.207.393.105-.329-.231.389.107-.347-.207.391.1-.345-.211.393.1-.321-.269.418.032-.328-.261.418.022-.34-.242.417.007-.346-.232.417.007-.343-.241h.419l-.082-1.064.685-.816-.065-1.067.707-.8-.025-1.07.958-1.355.21-1.647.953-1.358.2-1.642.95-1.355-.241-.486.5-.2-.24-.49.507-.2-.24-.491.583-.409-.183-.687.56-.439-.22-.676.537-.468-.377.034.354-.185-.338.213.316-.244-.309.253.174-.492-.452-.262.434-.292-.224-.473.528-.008-.257-.319.329.233-.244-.321.31.258-.218-.339.364.2-.259-.324.406.087-.335-.246.411,0-.234-.632.54-.406-.222-.64.544-.4-.217-.637.427-.011-.314-.289.425.033-.283-.319.417.081-.105-.473.448.187.159-.459.283.394.379-.3.006.469.458-.1-.219.414.449.133-.391.256.38.167-.414.041.367.2-.416.01.352.218-.408-.029.36.2-.409-.026.357.2-.41-.022.359.2-.409-.027.359.2-.41-.026.1-.046h.972l.671-.722.987.028.692-.707.982.045-.079-.4.212.346-.078-.4.217.344-.076-.4,1.228-.05.957-.772,1.229.008.992-.727,1.228.066-.06-.4.144.376-.057-.4.147.376-.055-.4,1.377.054,1.171-.727,1.379.032,1.153-.756,1.376-.015,1.046-.756,1.293-.042.991-.831,1.285-.137.925-.9,1.131-.178.724-.893,1.125-.227.692-.922,1.121-.267,1.378-1.447,1.817-.832,1.321-1.5,1.792-.882,1.3-1.53.048.362.258-.31-.17.365.26-.308.031.377-.278-.093.284-.285-.345.208.283-.288-.353-.033.7-.052.167-.641.662-.011.169-.64.662-.008-.194-.358.309.264-.2-.354.315.258-.209-.348,1.228-.571.725-1.145,1.256-.511.764-1.118,1.265-.484-.075-.449.419.18-.07-.453.423.176-.068-.455.339.249-.18-.373.376.176-.274-.311.411.057-.239-.437.5-.009-.049-.495.462.185.132-.472.45.251.158-.5.468.236.149-.5.48.216.277-.582.627.148.3-.572.622.17.279-.539.213-.04-.4.1.32-.265-.416,0,.37-.193-.4-.229.439-.151-.254-.388.46.062-.055-.46.309.282-.064-.414.268.323,0-.419.222.357.8-.609,1,.123.745-.679,1.007.033.68-.742.271.306-.136-.388.309.271-.173-.372.326.245-.111-.42.383.207-.112-.421.38.21-.118-.417.286.284-.212-.342.286.283-.209-.344.288.281.076-.569.573.06.086-.57.574.07.1-.569.746-.06.238-.71.739-.119.181-.727.728-.177-.274-.292.31.254-.279-.288.317.246-.067.038-.385-.283-.145.461-.354-.329-.2.439-.324-.37-.594.406-.449-.554-.713-.011-.06-.71-.589-.4.367-.187-.411.016.353-.209-.406.053.333-.241-.5-.164.314-.415-.421-.307.426-.3-.316-.4.435-.113-.254-.383.458.055-.1-.45.412.205-.173-.36.181.357-.177-.359.2.348-.1.022-.142-.4-.163.4-.142-.4-.169.394-.14-.406-.313.388-.264-.422-.342.362-.231-.442-.374.333-.514-.548-.715.22-.5-.56-.719.2-.479-.571-.438.275-.181-.487-.446.265-.172-.488-.443.263.123-.381-.154.369.126-.38-.157.369.121-.382-.412.274-.133-.475-.412.277-.148-.477-.41.282-.2-.487-.453.277-.219-.483-.447.284-.219-.48-.124.38.1-.387-.121.382.091-.39-.127.379-.565-.581-.792.178-.545-.6-.8.132-.5-.641-.193.353.1-.391-.175.363.074-.4-.165.368-.876-.674-1.1.127-.916-.618-1.087.2-.954-.557-.1.389.011-.4-.106.389.008-.4-.108.388-.7-.506-.821.279-.694-.521-.831.252-.67-.554-.267.357-.137-.424-.228.38-.174-.407-.194.4-.816-.4-.782.459-.864-.276-.71.565-.895-.16-.727.648-.962-.147-.768.6-.95-.209-.8.547-.432-.334-.3.458-.439-.327-.293.461-.45-.323.04.4-.1-.388.038.4-.106-.387.037.4-.312-.348-.168.437-.312-.35-.17.437-.309-.353-1.007.58-1.142-.21-1.008.578-1.143-.213-1.009.575-.171-.377-.038.411-.171-.377-.045.413-.178-.376-.444.481-.578-.31-.453.474-.57-.325-.475.459-1.216-.316-1.178.435-1.187-.412-1.209.34-1.151-.506-.639.342-.56-.458-.646.333-.558-.464-.64.33.008-.4-.081.394.008-.4-.085.393.006-.4-.671.327-.585-.468-.675.331-.593-.462-.669.341-1.3-.533-1.385.232-1.272-.583-1.394.19-1.269-.609-.59.305-.448-.491-.6.29-.433-.5-.594.285-.245-.461-.408.324-.245-.458-.4.327-.248-.456-1.11.2-.96-.587-1.113.2-.976-.58-1.109.214-.593-.5-.713.3-.607-.485-.708.319-.616-.464-.868.387-.871-.371-.823.469-.9-.285-.777.549-1.166-.218-1.036.572-1.16-.218-1.029.572-1.155-.218-.2.437-.325-.353-.2.436-.324-.354-.2.436-.1-.388.021.4-.1-.388.017.4-.105-.389-.5.483-.62-.307-.495.484-.618-.3-.485.487-1.168-.2-1.017.61-1.172-.16-1,.631-1.181-.142-1.995.809-2.155-.031-2.036.705-2.15-.143-2.071.6-.491-.376-.461.41-.465-.4-.485.381-.436-.431-1.369.262-1.275-.563-1.38.2-1.249-.62-1.387.136-1.024-.574-1.141.285-1.088-.446-1.1.42-1.134-.313-.544.471-.637-.324-.536.471-.632-.323-.528.472-.295-.365-.194.427-.293-.366-.194.427-.293-.367-.569.473-.669-.317-.562.48-.676-.3-.54.5-.883-.235-.721.565-.892-.2-.708.584-.891-.19.057.4-.137-.378.055.4-.139-.377.049.4-1.308-.1-1.1.715-1.311-.02-1.056.777-1.31.057-1.475,1.063-1.761.446-1.318,1.252-1.685.681-1.135,1.417-.863.237-.322.838-.861.257-.306.846-.856.274-1.214,1.894-1.719,1.45-.988,2.02-1.541,1.638-.75,2.121-.551.191.171.558-.542.217.2.551-.532.239.117.768-.621.47.128.767-.615.479.134.768-.839,1.242-.035,1.5-.761,1.293.056,1.5-.68,1.334.168,1.229-.561,1.109.292,1.209-.446,1.16.415,1.174-.368.954.454.915-.322.97.5.891-.272.991.433.157-.414.169.319.313-.447-.013.172.414-.347-.213.293.28-.4-.077.38.141-.4.064.4.413-.4.412.394.418-.407.4.393.414-.4.008.4.026-.4.006.4.029-.4.012.385.834-.412.825.39.834-.406.83.4.833-.437,1.1.284,1.145-.585,1.024.12,1.174-.723.932.273.419-.479.145.27.421-.48.143.268.423-.38-.124.367.159-.379-.128.366.163-.382-.121.215.565-.533.283.219.566-.531.3.231.563-.6.453.112.741-.642.387.033.748-.679.318.129.534-.539.109.152.529-.535.133.173.523-.649.394.066.761-.647.4.072.756-.644.4.2.505-.52.15.2.5-.519.146.2.5-.406-.083.314.27-.406-.079.316.267-.407-.077.272.36-.452.016.265.368-.452.007.254.371-.74.582.009.942-.7.634.076.939-.649.682.331.286-.432.077.356.255-.422.117.379.224-.45.613.387.652-.376.658.46.6-.3.7.418.051-.367.207.418.054-.367.208.418.057-.39.089.4-.066-.391.088.4-.058-.39.094.426.094-.359.249.427.091-.355.254.429.082-.319.386.461.2-.309.393.468.178-.288.416.838,1.082.17,1.358.96.975.331,1.327,1.068.854-.185.411.441-.1-.149.427.432-.135-.113.439.711.072.22.679.713.029.26.665.717-.012-.04.45.358-.267.048.444.289-.34.15.421.282-.387.245.412.283-.388.246.412.283-.388.043.4.078-.4.045.4.083-.4.048.4L158,233.1l.339.415.375-.384.337.417.37-.383.547.388.515-.436.583.338.475-.479.628.281-.215-.32.35.194-.322-.238.351.193-.322-.239.416.093-.26-.337.416.089-.266-.332.426.062-.2-.443.475.085.022-.483.39.285.227-.426,0,.4,0-.4,0,.4,0-.4.166.317-.319-.245.357.182-.325-.235.353.19-.328-.228.468.037-.033-.469.379.279.21-.422.193.432.39-.273-.023.473.47-.058-.24.409.445.17-.4.083.4.088-.4.047.394.1-.4.11.039-.2.363.17-.346-.2.384.115-.372-.15.385.108-.368-.155.38.126-.363-.17.365.161-.3-.3.42-.063-.4-.139.336-.258-.412.087.034-.563-.565-.034.034-.566-.567-.039.033-.568-.479.062.12-.469-.484.056.116-.473-.48.06v-.274l.241.32-.272-.294.237.323-.264-.3-.083.493-.373-.332-.353.354-.106-.488-.494.074.313-.25-.333.222.317-.244-.341.21.323-.237-.351.19.349-.2-.366.16.349-.2-.377.134.286-.568-.42-.477.459-.439-.23-.592.583-.25-.317-.243.322.238-.3-.269.321.238-.283-.282.3.264-.216-.341.28.289-.184-.358.259.311-.16-.388.358.216-.188-.374.371.194-.213-.356,1.2-.8.639-1.291,1.255-.705.732-1.242,1.3-.612.034-.557.558.037.018-.561.559.023.008-.558.292.273-.26-.305.29.277-.256-.308.3.267.639-1.228,1.194-.7.574-1.259,1.157-.761.513-1.29.979-.581.314-1.089.934-.644.239-1.109.888-.708-.314-.26.381.14-.3-.279.374.162-.281-.293.409.127-.143-.4.35.25-.013-.431.263.342.118-.417.151.4.245-.356.013.433.344-.263-.217.336.246-.316-.227.33.252-.311-.232.327.22-.334-.182.357.171-.362-.164.365.029-.372.25.344.054-.423.217.368.1-.416.16.386.362-.38.354.393.306-.431.414.33.233-.479.368.321.165-.453.357.322.159-.452.352.323.3-.488.5.288.3-.487.493.293.308-.483.4.324.234-.455.387.333.244-.451.375.339-.015-.4.129.383-.013-.4.133.383-.011-.4.179.374.036-.413.179.374.034-.414.185.372,1.372-.717,1.548.024,1.334-.786,1.547-.056,1.292-.854.838.147.594-.609.833.16.592-.6.825.168-.1-.388.135.377-.1-.389.136.376-.075-.394.289.351.1-.439.329.309.023-.449.382.243-.08-.418.267.327.067-.416.145.4.193-.376.129.422.2-.393.223.382.107-.429.276.33.839-.578,1,.2.842-.583,1,.2.836-.584.429.319.259-.464.425.318.252-.463.419.319-.049-.4.121.383-.049-.4.123.382-.046-.4.386.326.217-.456.386.326.218-.455.385.327.226-.457.389.328.228-.455.389.329.229-.454.7.266.538-.519.7.26.535-.528.707.247.409-.511.6.258.4-.521.608.248.39-.523.451.29.232-.48.445.293.23-.476.439.3,1.065-.7,1.27.108,1.1-.642,1.263.175,1.134-.581.132.387.034-.407.122.389.035-.406.117.391.11-.414.193.381.1-.415.206.373.075-.421.828.253.664-.554.841.2.63-.592.852.153.16-.479.414.285.167-.471.4.3.167-.465.261.34.065-.426.231.364.108-.418.2.384-.011-.4.036.4.005-.4.027.4Zm79.375-39.779h0v0l0-.4v.4h0v0l-.2-.2Zm-112.66,75.567-.675-.434-.749.291-.578-.559-.791.143-.47-.66-.55.186-.155-.551-.565.091-.054-.569-.575-.015.244-.333-.339.227.164-.373-.259.315.043-.407-.29.326.044-.432-.39.19.2-.387-.423.062-.007-.748-.687-.322-.021-.763-.691-.323-.027-.769-1.206-1.107-.528-1.551-1.185-1.131-.478-1.568-1.133-1.185-.058-.957-.752-.591-.025-.96-.732-.62.007-.962-.85-.915-.147-1.241-.887-.881-.2-1.233-.922-.843.346-.2-.357.181.344-.205-.361.175.349-.2-.385.114.376-.142-.4-.009.4-.016-.371-.152.38.133-.311-.255.328.231-.211-.34.211.339-.117-.383.136.377-.1-.387.142.375-.1-.389.228.357.045-.421.223.36.047-.421.221.361.147-.443.321.337.138-.444.323.331.12-.446.75.217L183.3,210l.741.247.577-.528.732.26-.036-.4.118.384-.033-.4.121.384-.032-.4.28.351.124-.433.283.351.116-.433.275.352.8-.58.969.193.788-.6.97.166.761-.624.737.2.508-.576.745.181.491-.583.741.175.186-.483.439.276.188-.483.438.277.19-.482.547.248.316-.514.545.256.316-.508.537.262-.1-.387.128.379-.107-.386.137.377-.092-.39.149.377-.012-.4.126.384-.007-.4.109.388.025-.4-.005.4.144-.374-.128.38.257-.307-.246.316.344-.206-.335.22.391-.086-.387.1.4.034-.394.091.4.035-.394.1.4.038-.383.256.417.2-.378.265.424.182-.363.282.585,1.118-.2,1.25.591,1.119-.2,1.254.593,1.11-.385.126.4-.006-.385.127.406,0-.384.13.515.659-.272.79.517.657-.271.791.518.656-.338.4.451.263-.336.4.452.271-.337.4.578,1.024-.184,1.163.624,1-.131,1.171.668.969-.334.281.434.07-.344.274.431.089-.356.251.444.146-.248.4.465-.057-.043.467.392-.262.072.454.355-.288.042.454.365-.273.026.452.181-.357-.144.374.175-.36-.141.375.175-.36.059.462.4-.237-.016.466.436-.167-.1.457.3-.262-.3.267.322-.238-.3.26.323-.237-.236.334.321-.254-.121.391.225-.341.006.408.111-.392.122.39-.012-.408.237.332-.135-.388.286.3.031-.414.1.4.23-.344-.094.409.322-.268-.151.387.354-.219-.209.36.387-.156-.18.487.489.17-.327.4.41.317-.439.277.353.248-.426,0,.249.346-.385-.184.083.419-.194-.352.031.4-.051-.4-.116.384.1-.389-.25.313.236-.324-.349.2.338-.216-.4.058.373-.191-.416-.055.372-.192-.416-.046.368-.2-.426-.031.266-.333-.378.187.011-.421-.172.388-.231-.353.069.415-.38-.18.28.313-.418.054.4.126-.4.1.4.1-.394.127.408.072-.4.025.4-.009-.4.031.4-.052-.4.048.407.3-.427.253.258.426-.5-.038-.041.495-.189-.354.011.4-.031-.4-.146.374.126-.381-.283.285.268-.3-.372.15.365-.168-.4-.016.406-.174-.394-.2.4-.179-.4-.19.4-.2-.413-.08.369-.2-.419-.019.339-.246-.415.04.257-.32-.346.228.068-.409-.194.365-.148-.384,0,.416-.317-.27.2.363-.411-.068.365.2-.4.107.4.129-.4.127.4.108-.392.137.383.331-.449.238.281.424-.5.107.155.483-.368-.183.187.368-.31-.273.084.4-.223-.346-.26.469-.428-.323-.285.454-.41-.345-.311.437-.472-.369-.42.424-.464-.379-.427.417-.453-.383-.023.4-.055-.4-.024.4-.057-.4-.026.4-.219-.392-.188.408-.219-.392-.186.409-.221-.39-.039.4-.066-.4-.048.4-.059-.4Zm-15.783-21.777.192,1.184.884.83.152,1.2.852.864.1,1.208.718.625.006.953.739.6.038.953.757.568.433,1.57,1.158,1.146.5,1.552,1.194,1.107.533,1.538.7.334.028.771.7.335.021.767.689.332-.3.291.376-.161-.212.35.284-.292-.049.4.269-.33-.04.425.349-.246-.155.4.394-.151-.032.534.536-.075.071.534.514-.166.153.51.8-.068.533.61.777-.225.65.483.707-.392.221.39.186-.409.22.392.189-.408.22.392.024-.4.054.4.025-.4.057.4.027-.4.45.383.42-.417.457.38.417-.424.466.37.3-.436.393.348.269-.452.413.326.244-.465.161.366-.151-.372.258.307-.239-.321.326.233-.194-.427.467-.042-.3-.36.438-.166-.386-.261.391-.147-.4-.116.4-.137-.4-.139.4-.119-.341-.327.469-.056-.126-.456.433.189.118-.454.278.373.325-.338.049.467.449-.139-.183.431.394-.1-.343.218.4-.065-.357.2.373-.108.04.08-.4-.055.4-.028-.4-.064.4-.018-.328-.357.482-.059-.088-.477.438.206.178-.45.253.4.363-.3,0,.473.469-.061-.181.493-.081-.294.357-.248-.433-.042.293-.322-.429.06.261-.31-.34.225.2-.354-.305.272,0-.406-.013.454-.283-.322-.07.422-.185-.387-.182.389-.083-.425-.3.312.053-.429-.382.2.175-.4-.428.145.089-.439-.387.225.011-.448-.347.285.136-.377-.179.359.146-.373-.182.357.142-.374-.355.276-.026-.452-.354.282-.044-.45-.331.3-.166-.508-.527.1.078-.53-.516-.144.3-.447-.427-.09.351-.255-.429-.066.34-.27-.433-.056.1-1.186-.65-1,.155-1.18-.6-1.023.209-1.172-.452-.266.338-.4-.451-.27.336-.4-.452-.271.271-.791-.518-.656.272-.792-.517-.657.273-.791-.4,0,.385-.124-.4,0,.384-.129h-.4l.2-1.248-.593-1.114.2-1.25-.588-1.123.205-1.247-.431-.177.37-.282-.42-.2.38-.268-.415-.208.4-.036-.4.029.4-.044-.4.022.39-.087-.131.248-.129-.378.122.381-.133-.378.111.385-.536-.263-.316.508-.538-.258-.313.514-.547-.248-.189.481-.436-.278-.187.483-.438-.277-.185.484-.746-.174-.5.585-.745-.181-.51.577-.744-.2-.769.625-.98-.163-.789.6-.977-.191-.81.581-.271-.352-.108.431-.269-.354-.111.431-.268-.354.029.4-.126-.383.028.4-.13-.382.026.4-.732-.261-.572.527-.738-.248-.557.543-.748-.218-.12.447-.324-.331-.134.443-.315-.338-.137.44-.178-.37,0,.411-.177-.371,0,.41ZM281.046,228.8l-.344-.414-.4.356-.276-.461-.452.292-.21-.5-.373.3-.134-.456-.347.324-.164-.446-.325.346.042-.4-.119.384.026-.4-.071.394-.019-.4-.047.4-.164-.371.076.4-.27-.3.2.358-.36-.229.038.423-.243-.348-.121.407-.125-.415-.679.325-.539-.52-.722.2-.439-.607-.744.07-.394-.686-.792-.038-.318-.726-.783-.125-.237-.757-1.358-.738-.82-1.313-1.374-.71-.859-1.29-1.4-.661-.452-.927-.962-.373-.36-.966-.922-.463-.265-.995-.767-.36-.163-.834-.8-.294-.234-.817-.818-.226.266-.3-.294.271.271-.294-.3.26.288-.278-1.009-.51-.45-1.038-1.037-.451-.509-1.011-1.062-.392.193-.363-.34.23.213-.352-.353.211.227-.343-.826-.3-.261-.838-.839-.26-.3-.826-.85-.223.221-.334-.263.3.2-.35-.255.31.181-.359-.3.264.285-.283-.394.08.388-.105-.382-.125.727-1.04-.025-1.273.754-1.024.017-1.274.8-.994-.147-.726.6-.439-.145-.731.6-.442-.145-.732.869-1.129.125-1.424.865-1.131.116-1.421.854-1.127-.118-.856.618-.6-.159-.846.6-.626-.178-.845.455-.118-.234-.412.472.041-.078-.468.431.2.62-.769.987-.034.658-.738.987.015.692-.7.9.079.612-.665.9.086.612-.659.908.086.258-.525.53.24.283-.509.519.267.31-.494.1.387.043-.4-.029.4.17-.363-.154.371.274-.293-.261.3.352-.191-.344.205.395-.068-.387.109.4-.027-.391.094.4-.017-.394.062.406.346-.393.358.406.35-.393.366.406.352-.374,1.466.425,1.452-.376,1.462.422,1.449-.381,1.46.471,1.382-.253,1.437.611,1.324-.1,1.455.745,1.253-.3.371.465.115-.281.388.469.1-.267.394.532.189-.136.548.56.082-.024.564.57-.028.131.672.673.1.1.672.667.132.064.676.475-.073-.125.463.474-.065-.132.46.473-.062-.294.272.313-.249-.3.271.32-.241-.29.275.4-.145-.214.367.4-.152-.216.363.39-.16,1.247,2.056,1.85,1.53,1.248,2.057,1.857,1.537,1.25,2.06.495-.04-.11.483.494-.04-.112.483.495-.037-.044.562.566.049-.046.567.569.061-.054.571,1.022.589.471,1.081,1.079.473.586,1.023,1.124.353-.114.4.355-.233-.142.4.378-.2-.193.372.407-.1-.277.325.425-.036-.324.276.423.024-.375.18.382.166-.417-.01.271.317-.379-.18.267.3-.363-.171.343.208-.393-.084.378.13-.447.157.206.427-.468-.1.022.476-.435-.2.178.36-.237-.325.179.36-.238-.323.192.35-.458-.169-.074.486-.4-.28-.2.45-.315-.378-.071.4.044-.4-.181.358.157-.369-.286.28.272-.3-.35.2.333-.222-.391.085.391-.081-.4-.149.4-.136-.4-.139.4-.147-.407-.111.382-.194-.418-.1.363-.227-.425-.057.341-.258-.419.033.221-.358-.339.246-.023-.418-.14.4-.2-.367.07.407-.344-.228.262.319-.413-.03.384.135-.4.038.4.082-.4.086.4.042-.393.6.318.642-.546.463.123.705-.654.291.191.4-.417-.148.1.431-.373-.239,0,.443-.159-.368-.017.4,0-.4-.172.362.154-.371-.3.266.287-.28-.38.128.373-.147-.4-.03.419-.163-.35-.281.442-.076-.287-.345.445.023-.273-.305.395.116-.333-.24.409-.019-.4-.077.349-.216-.4.107.233-.339-.344.23.141-.388-.243.317.213-.339-.236.324.2-.346-.214.337-.028-.43-.185.389-.272-.334.073.425-.415-.113.3.285-.407-.073.33.25-.413-.027.357.209-.427.06.357.241-.423.076.366.226-.421.089.169.82-.727.413-.277.789-.836-.019-.636.54-.2-.374-.1.415-.185-.385-.132.407Zm-3.169-1.582.046.4.091-.393v.4l.135-.381-.023.407.34-.345.172.449.36-.32.146.459.389-.293.316.528.54-.289.417.448.464-.4.5.346.507-.512.721.082.187-.7.66-.3-.206-.7.423-.1-.364-.235.425-.085-.355-.248.429-.067-.351-.235h.422l-.32-.275.419.049-.288-.309.513-.011.056-.509.421.293.342-.383.173.484.223-.333-.185.355.241-.32-.2.344.244-.317-.082.434.412-.159-.205.39.44-.012-.334.285.409.085-.4.106.37.192-.418,0-.032.076.564-.215-.211-.569.5-.353-.347-.5.391-.467-.408-.071.4-.114-.4-.115.407-.068-.377-.175.458-.087-.193-.422.442.14.037-.462.317.341.29-.39.143.46.449-.176-.127.466.474.086-.335.279.43.077-.359.25.421.117-.379.217.4.068-.4.111.4.085-.4.1.269-.095.16.345.051-.436.328.291-.041-.437.374.225-.189-.354.245.319-.177-.361.248.317-.173-.363.36.249-.073-.43.392.192-.217-.37.425-.047-.362-.2.415.024-.306-.281.394.13-.221-.351.292.275-.279-.287.338.213-.363-.155.389-.029-.413.011.34-.236-.408.067.3-.279-.385.134.208-.352-.346.23.161-.383-.33.254.134-.392-1.149-.371-.609-1.042-1.1-.494-.492-1.1-1.041-.612.059-.566-.566-.057.048-.565-.567-.049.046-.56-.494.038.112-.483-.494.041.111-.483-.493.041-1.248-2.056-1.85-1.53-1.249-2.058-1.856-1.537-1.252-2.061-.388.162.219-.359-.39.159.221-.358-.39.157.288-.279-.322.239.287-.28-.323.237.286-.281-.471.064.135-.457-.472.067.127-.459-.47.079.3-.268-.308.255.31-.253-.308.255.3-.262-.653-.137-.07-.664-.659-.106-.1-.661-.659-.07-.062-.59-.6-.06.054-.6-.573-.177.169-.575-.475-.1.27-.4-.47-.114.286-.392-.468-.141.021-1.486-.685-1.318.174-1.475-.545-1.382.326-1.448-.419-1.448.378-1.459-.424-1.445.375-1.458-.426-1.445.394-.33-.4-.313.394-.334-.406-.321.38-.406-.47.361-.453-.281-.211.49-.466-.26-.189.5-.9-.089-.615.66-.9-.083-.609.664-.9-.081-.681.7-.977-.019-.646.733-.977.029-.61.765-.361-.244.142.41-.421-.1.276.334-.429.038.174.86-.6.634.155.864-.621.611.115.865-.855,1.129-.115,1.417-.866,1.133-.122,1.419-.874,1.14.147.726-.6.439.146.73-.6.441.145.732-.781.952,0,1.23-.743.986.038,1.227-.716,1,.322-.1-.229.329.251-.313-.229.329.261-.3.328.829.855.251.291.843.842.288.252.854.35-.21-.23.337.337-.229-.213.348.323-.249.548,1,1.061.433.49,1.036,1.034.492.436,1.068.846.252.251.834.814.313.179.852.783.38.25.975.9.444.343.948.944.355.433.911,1.408.665.863,1.294,1.382.718.824,1.317,1.363.742.218.741.763.107.3.711.771.023.371.673.71-.088.4.593.686-.211.5.512.639-.329.031.406.066-.4.119.385-.085-.392.278.289-.14-.4.335.266-.005-.427.238.355Z" fill="#26333b"/>
      </g>
    </g>
    <g id="グループ_4661" data-name="グループ 4661">
      <g id="グループ_4659" data-name="グループ 4659">
        <path id="パス_28137" data-name="パス 28137" d="M291.432,148.26l-.043-.444-.319.312-.067-.442-.307.324-.073-.439-.151.372.083-.393-.153.371.08-.394-.158.37-.214-.505-.508.207-.133-.531-.533.129-.06-.549-.394.191.205-.38-.431.032.339-.267-.408-.142.412-.138-.37-.226.427-.077-.335-.275.435-.021-.218-.434.481.061.012-.484.4.28.24-.426.034.411.149-.379.006.408.152-.379.014.409.075-.393-.067.394.078-.392-.063.4.081-.392.076.42.221-.366.071.421.231-.36.038.419.25-.328-.058.413.282-.306-.085.408.3-.29.061.44.23-.383.284.345v-.447l.421.148-.23-.387.435-.115-.407-.193.3-.337-.445.067.141-.412-.384.206.085-.427-.352.256.019-.438-.475.25-.222-.486-.439.305-.278-.456-.4.354-.325-.42-.315.424-.424-.315-.182.5-.5-.181-.217.676-.687.18.045.709-.573.42.305.648-.418.5.475.429-.189.611.607.2.071.635.321-.252-.186.364.315-.261-.175.37.31-.267-.237.322.246-.315-.234.324.251-.311-.23.327.28-.29-.2.35.28-.29-.2.353.274-.294.381.676.775-.064.459.627.762-.155.531.568.132-.379-.049.4.111-.386.009.4.022-.4.018.4.045-.4-.007.4.026-.4.01.4.123-.413.282.326-.06-.426.393.175-.239-.365.446-.017L292.1,149l.376-.229-.438-.036.208-.387-.382.185.144-.4-.347.245.074-.419Z" fill="#26333b"/>
      </g>
      <g id="グループ_4660" data-name="グループ 4660">
        <path id="パス_28138" data-name="パス 28138" d="M291.512,150.224l-.01-.4-.024.4,0-.4-.037.4-.009-.4-.049.4-.023-.4-.11.388.03-.4-.156.373-.544-.572-.775.151-.472-.633-.788.057-.391-.682-.271.3.194-.354-.285.287.191-.357-.288.285.157-.383-.324.255.167-.377-.327.25.184-.369-.671-.111.034-.678-.57-.37.3-.608-.378-.557.489-.556-.16-.729.665-.338.119-.737.743-.076.14-.535.5.238.286-.471.411.369.4-.375.312.44.433-.327.262.475.469-.275.2.5.348-.272-.038.442.384-.222-.1.432.41-.167-.141.469.47.137-.379.31.315.375-.489.046.072.478-.426-.226-.186.444-.249-.413-.392.282.09-.41-.291.3.075-.409-.268.317.037-.417-.229.359-.049-.418-.2.369-.061-.418-.325.3.349-.191-.4-.023.4-.078-.4-.026.284-.247.1.262-.4-.023.385.119-.4-.019.266.271-.12-.4-.15.379-.007-.408-.156.378-.029-.411-.174.422-.343-.289.061.445-.437-.1.254.372-.43,0,.339.262-.424.061.373.21-.41.121.4.091-.351.22.407-.08-.236.342.356-.224.049.54.521-.135.12.525.495-.211.2.5.153-.371-.083.393.152-.372-.08.394.152-.372.074.439.309-.323.069.442.326-.31.052.447.188-.35-.2.343.186-.355-.205.344.19-.35-.018.432.343-.263-.091.423.383-.2-.161.4.473-.026-.28.38.419.217-.434.186.258.389-.444-.046.11.438-.385-.238-.085.445Zm-2.029-6.851-.273-.385-.181.436-.354-.313-.074.466-.416-.221L288,144l-.656.144.068.668-.557.376.312.6-.417.448.464.386-.211.566.581.166.036.6.322-.251-.187.363.313-.262-.177.368.307-.27-.191.357.287-.285-.19.358.292-.282-.176.367.764-.026.4.643.751-.119.478.592.732-.206-.075.394.12-.382-.06.4.088-.391-.017.4.023-.4.016.4.023-.4.017.4.023-.4.15.385-.016-.412.292.291-.188-.366.386.136-.308-.281.416-.045-.4-.107.331-.253-.4.126.19-.374-.351.228.127-.4-.308.283.057-.415-.325.3-.053-.442-.312.32-.069-.439-.293.331.081-.394-.154.371.083-.393-.157.37.083-.393-.508.238-.192-.528-.538.16-.111-.551-.551.083.1-.435-.445.075.262-.368-.44-.1.385-.238-.385-.217.423-.125-.349-.269.436-.064-.31-.313.509-.107-.066-.516.5.145.181-.488.367.356.125-.384.009.408.147-.381.015.409.152-.38-.055.4.085-.391-.058.4.088-.391-.054.4.227-.365.079.421.226-.363.068.423.243-.354-.01.427.286-.311-.056.418.3-.292-.08.415.26-.328.121.4.04-.417.308.285-.174-.381.413.081L292,144.4l.388-.16h-.42l.23-.351-.384.191.126-.41-.355.241.07-.423-.314.288-.174-.491-.439.285-.234-.468-.4.334-.286-.437-.1.391-.023-.4-.088.4-.045-.4Z" fill="#26333b"/>
      </g>
    </g>
    <g id="グループ_4664" data-name="グループ 4664">
      <g id="グループ_4662" data-name="グループ 4662">
        <path id="パス_28139" data-name="パス 28139" d="M292.432,146.572l.134-.437-.441.129.1-.449-.431.16.065-.457-.444.2-.074-.477-.388.288-.178-.449-.315.368-.032-.4-.078.4-.06-.4-.041.4-.105-.391-.09.428-.311-.307.047.434-.391-.195.18.4-.43-.07.292.323-.431.062.377.217-.389.19.406.037-.37.176.407-.043-.323.252.389-.129-.227.353.365-.208-.107.406.282-.311.025.42.171-.384.149.392.046-.417.262.327-.086-.411.284.287-.231-.331.333.228-.285-.285.19.273.207-.326-.1.406.339-.244-.182.376.38-.174-.271.294.306-.26-.263.3.31-.255-.267.3.294-.271-.285.281.3-.268-.28.286.3-.264-.233.336.345-.219-.219.346.334-.237-.19.363.313-.268-.09.4.229-.342.02.412.13-.391.1.395.016-.407.179.366-.073-.4.245.322-.071-.431.422.119-.273-.343.425-.109-.412-.157.361-.225-.422,0,.308-.288-.414.083Z" fill="#26333b"/>
      </g>
      <g id="グループ_4663" data-name="グループ 4663">
        <path id="パス_28140" data-name="パス 28140" d="M292.1,148.391l-.111-.407-.214.363,0-.422-.3.293.116-.406-.328.248.2-.36-.346.221.222-.345-.35.212.261-.306-.314.251.258-.308-.316.249.262-.3-.343.215.242-.326-.324.244.2-.351-.214.317-.114-.325.239.322-.271-.3.214.339-.252-.312.055.429-.3-.313-.083.424-.186-.391-.209.379-.063-.43-.318.3.073-.428-.394.182.2-.384-.4.106.311-.277-.416.017.364-.2-.41-.064.389-.222-.37-.256.441-.093-.276-.356.449.041-.153-.428.421.17-.014-.453.348.292.128-.436.115.39.054-.4.074.4.092-.4.046.406.339-.366.2.456.411-.279.1.488.465-.182-.056.464.439-.153-.091.456.448-.122-.123.448.3-.27-.3.271.307-.257-.307.257.315-.247-.23.365.428-.06-.3.312.43.03-.355.251.416.222-.438.167.241.4-.463-.075.017.467-.264-.312.048.409-.2-.362-.041.41Zm-1.426-1.883,0,.4.06-.4-.053.4.119-.382-.112.384.3-.3-.076.42.36-.23-.162.4.4-.155-.273.29.3-.269-.264.3.308-.257-.266.3.355-.207-.226.343.346-.219-.209.351.321-.252-.105.4.237-.341.08.408.068-.409.256.324-.119-.4.374.181-.287-.3.414-.033-.4-.1.367-.2-.415.011.322-.262-.4.1.254-.332-.443.118.122-.438-.429.152.093-.445-.412.184.005-.464-.389.258-.1-.457-.323.338-.2-.422-.081.393-.034-.4-.052.4-.069-.4-.006.4-.221-.36.016.422-.321-.273.146.4-.39-.161.261.331L289.3,146l.348.238-.412.088.406.12-.389.122.4-.013-.36.187.391-.1-.307.264.368-.18-.2.359.293-.285-.077.4.194-.361.046.406.071-.4.17.372-.058-.4.276.3-.215-.337.3.27-.278-.288.337.216-.311-.252.345.2-.219-.336.235.325-.07-.4Z" fill="#26333b"/>
      </g>
    </g>
    <g id="グループ_4667" data-name="グループ 4667">
      <g id="グループ_4665" data-name="グループ 4665">
        <path id="パス_28141" data-name="パス 28141" d="M307.422,146.4l-.344-.4-.249.471-.5-.187v.532l-.526.073.274.416-.413.28.453.209-.2.456.494-.062-.072.435.364-.25-.007.442.325-.3.057.44.158-.373-.009.4.115-.388.031.4.072-.4.217.383.087-.431.325.3-.052-.437.4.181-.182-.4.437.05-.3-.324.431-.09-.384-.214.334-.45-.523-.2.053-.557-.552.1Z" fill="#26333b"/>
      </g>
      <g id="グループ_4666" data-name="グループ 4666">
        <path id="パス_28142" data-name="パス 28142" d="M307.447,149.255l-.066-.4-.107.393-.024-.407-.146.38.02-.406-.321.315-.043-.449-.363.268.022-.45-.4.211.018-.545-.527-.137.3-.453-.375-.4.5-.224-.1-.567.575.022.183-.544.5.284.415-.4-.046.4.059-.4-.057.4.078-.392-.079.392.571-.213.15.59.6.1-.173.583.46.4-.414.2.336.311-.454.057.222.4-.451-.087.09.449-.4-.221-.053.454-.312-.335Zm-.168-2.617-.306-.367-.122.462-.431-.205.084.469-.477,0,.3.351-.409.211.438.143-.236.4.446-.111-.087.425.348-.261-.023.434.308-.306.04.434.254-.364.219.385.084-.435.353.269-.1-.432.4.147-.263-.334.425.017-.355-.235.409-.118-.44-.264.228-.46-.514,0-.037-.512-.443.258.036-.4-.059.4,0-.4-.04.4Z" fill="#26333b"/>
      </g>
    </g>
  </g>
</svg>
