<svg xmlns="http://www.w3.org/2000/svg" xmlns:xlink="http://www.w3.org/1999/xlink" width="275.096" height="240" viewBox="0 0 275.096 240">
  <defs>
    <clipPath id="clip-path">
      <rect id="長方形_1852" data-name="長方形 1852" width="275.053" height="240" fill="#fff"/>
    </clipPath>
  </defs>
  <g id="logo__ffffff_50_" data-name="logo_#ffffff_50%" transform="translate(364 314)" opacity="0.5">
    <g id="グループ_4900" data-name="グループ 4900" transform="translate(-363.957 -314)">
      <g id="グループ_4899" data-name="グループ 4899" clip-path="url(#clip-path)">
        <path id="パス_28461" data-name="パス 28461" d="M-243.716-313.17c-9.183,3.261-18.223,12.372-22.122,22.3a11.165,11.165,0,0,0-.921,3.439,2.48,2.48,0,0,0,1.2.993c.532.248,1.029.461,1.1.5a16.054,16.054,0,0,1-.993,2.729l-1.1,2.659-3.191-2.411a54.072,54.072,0,0,0-13.081-7.231c-3.438-1.241-9.642-2.695-11.663-2.695a3.737,3.737,0,0,1-1.773-.425c-1.561-.957-11.062,1.843-18.116,5.388-6.133,3.084-13.685,8.4-17.477,12.3-1.241,1.312-1.311,1.489-.921,2.34.566,1.241,1.1,1.2,2.693-.213,1.384-1.2,5.211-4.147,6.1-4.679.284-.141,0,.425-.566,1.277a34.3,34.3,0,0,0-4.22,30.665,43.286,43.286,0,0,0,8.3,14.392c1.241,1.525,2.056,2.766,1.773,2.766a19.45,19.45,0,0,1-2.766-.78c-2.977-.957-9.11-1.029-13.294-.107a169.63,169.63,0,0,0-18.612,6.027c-1.809.922-4.645,3.758-6.381,6.345a43.463,43.463,0,0,0-2.695,5.14l-1.559,3.4v24.638l1.525,2.907a216.377,216.377,0,0,0,12.124,18.434c3.368,4.254,9.926,9.04,16.8,12.23,1.809.886,5.992,2.447,9.253,3.545l5.92,1.95-.993,2.907c-2.445,7.162-2.764,14.5-.814,18.329a23.936,23.936,0,0,0,5.99,6.168c5.211,3.3,10.742,4.4,22.334,4.431,9.642,0,10.387-.141,19.816-3.368,6.24-2.127,11.983-3.438,12.514-2.872.32.284-3.261,9.182-4.325,10.884-.85,1.275-.85,1.311-4.325,1.666-6.2.709-7.942.78-18.718.816-11.592.034-15.528.389-20.207,1.878-7.267,2.3-16.307,11.2-21.093,20.739a6.858,6.858,0,0,0-.993,4.715c.177,3.368.425,3.545,5.318,3.865,12.728.85,25.24,1.169,45.129,1.134,23.468-.036,41.441-.532,43.391-1.206.886-.319,1.384-.319,1.809-.035.425.248,4.077.318,11.558.248,46.013-.6,58.776-1.027,77.742-2.517,3.795-.283,8.083-.673,9.572-.85a8.391,8.391,0,0,1,3.3.036,5,5,0,0,0,3.511-.036c.814-.461.85-1.241.1-2.659-.318-.6-1.452-2.8-2.516-4.893-3.865-7.622-11.38-13.79-21.873-17.973-4.006-1.559-11.38-2.517-21.306-2.729-8.615-.213-11.592.035-18.257,1.382a17.612,17.612,0,0,1-4.715.5c-.709-.177-1.6-1.206-3.579-4.22-2.908-4.4-5.354-8.685-5.106-8.969a33.713,33.713,0,0,1,4.751,1.064c25.347,6.878,43.532,4.963,53.281-5.672a30.049,30.049,0,0,0,6.1-11.663,21.5,21.5,0,0,0-2.163-12.975l-.993-1.985,2.518-.78c11.556-3.688,22.759-9.785,30.594-16.662,5.388-4.681,10.917-11.487,12.9-15.812A28.886,28.886,0,0,0-96.385-198.1c-1.489-8.118-10.99-15.456-22.368-17.335-.745-.107-1.347-.318-1.347-.461a7.3,7.3,0,0,1,2.268-3.084c1.7-1.134,4.538-6.345,5.885-10.848,1.027-3.4,2.091-9.252,1.879-10.352a15.736,15.736,0,0,1,.389-3.863c.993-5.211.675-6.913-1.452-7.906-1.134-.532-1.206-.673-.993-1.879a61.214,61.214,0,0,0-.318-13.471,38.4,38.4,0,0,0-4.645-10.919,38.685,38.685,0,0,0-9.749-9.429c-6.1-3.97-11.735-6.274-21.27-8.685-9.785-2.482-16.023-2.518-23.5-.071a52.062,52.062,0,0,0-11.1,5.1,14.774,14.774,0,0,1-3.013,1.6c-.282,0-.921-1.17-1.523-2.766-4.4-11.84-10.955-20.277-15.741-20.277a2.275,2.275,0,0,0-1.489.532c-.391.461-.248.745.886,1.7a38.986,38.986,0,0,1,7.976,8.756,80.737,80.737,0,0,1,5.495,12.8l.638,2.02-1.206,1.1a4.932,4.932,0,0,1-1.6,1.1c-.248,0-.566-1.134-.814-2.695a27.954,27.954,0,0,0-4.786-11.449c-2.908-4.467-4.963-6.7-8.049-8.722-4.82-3.226-8.543-4.361-15.562-4.679a39.2,39.2,0,0,0-19.143,4.147,46.646,46.646,0,0,0-10.883,8.3,30.5,30.5,0,0,1-3.616,3.368c-.532.32-1.738,1.029-2.659,1.6a5.824,5.824,0,0,1-1.773.886,10.145,10.145,0,0,1,1.346-2.339c3.865-5.815,8.863-10.528,13.471-12.727,2.3-1.1,3.617-1.489,7.8-2.162,2.27-.354,2.447-.993.5-1.879-2.695-1.17-4.042-1.2-7.267-.071Zm22.936,10.387a47.692,47.692,0,0,1,11.521,4.963c3.191,2.161,4.147,3.368,7.054,9.074,3.4,6.7,4.113,9.005,4.431,14.11a38.235,38.235,0,0,0,.532,4.822,4.01,4.01,0,0,0,1.313,1.169c1.027.6,1.1.6,2.516-.105a4.546,4.546,0,0,1,1.631-.568c.107.107-.248.78-.78,1.525a5.92,5.92,0,0,0-.922,1.773c0,.425,1.809,1.489,2.552,1.489a11.536,11.536,0,0,0,2.729-2.482,60.478,60.478,0,0,1,11.805-9.678,38.928,38.928,0,0,1,22.086-5.459c5.92.248,8.756,1.064,17.548,5.07,6.2,2.836,6.7,3.154,7.445,4.466.638,1.17.745,1.6.425,2.093s-.141,1.666.78,5.352c1.668,6.524,2.127,10.317,1.879,15.953-.532,13.969-6.77,29.069-13.967,33.785a31.131,31.131,0,0,0-2.907,2.091c-1.561,1.418-.532,3.9,2.055,4.928a33.231,33.231,0,0,0,5.567,1.134c8.756,1.17,13.506,1.986,15.917,2.695a37.464,37.464,0,0,1,9.926,4.82c2.127,1.666,2.695,3.191,2.695,7.622.034,5.708-2.588,11.2-7.906,16.555-7.765,7.871-17.939,13.082-33.076,17.052-6.522,1.7-6.7,1.773-6.842,2.695-.141.886,1.843,2.02,4.609,2.623l1.986.461-.922.957c-.78.816-1.027.886-1.275.461a3.738,3.738,0,0,0-1.525-1.029c-1.809-.78-2.375-.177-2.093,2.163.213,1.809-.248,4.4-1.63,9.217-.957,3.368-1.666,4.75-2.093,4.006s-2.232-.354-5.423,1.134a53.822,53.822,0,0,1-19.179,5.176l-3.9.212-2.056-1.241c-2.766-1.736-3.261-1.843-4.111-.993-.816.815-.675,1.773.5,2.872,1.064.993,5.885,2.765,8.367,3.049,4,.46,9.783-.745,18.291-3.829,3.793-1.383,4.361-1.7,6.1-3.475l1.915-1.95-1.525,2.943c-1.809,3.4-4.4,6.452-6.488,7.657a30.667,30.667,0,0,1-5.388,1.879c-3.722.957-4.254.993-12.053.993-12.585,0-17.016-.922-28.856-5.92-5.318-2.234-9.112-4.5-8.828-5.247a33.062,33.062,0,0,1,2.943-2.517,104.621,104.621,0,0,0,12.726-12.656,51.49,51.49,0,0,0,6.631-11.167c.957-2.552,1.1-3.225.957-5.388-.213-3.191-1.666-6.133-4.467-8.969-3.154-3.261-7.586-4.5-13.719-3.934-5.813.566-10.671,2.659-17.123,7.445l-4.361,3.225-2.02-1.914a30.584,30.584,0,0,0-12.053-7.374,14.067,14.067,0,0,0-5.884-.638c-3.795.143-5.213.816-8.615,3.97-3.793,3.51-5.424,7.41-5.424,12.834,0,7.018,2.127,10.138,14.287,21.164,1.879,1.736,3.438,3.4,3.438,3.757,0,1.383-7.231,5.672-10.849,6.417a35.541,35.541,0,0,0-4.82,1.454c-5.495,2.055-8.4,2.587-15,2.587-5.14.036-6.488-.105-9.217-.78-7.94-2.02-11.1-5.069-11.451-11.131a16.891,16.891,0,0,1,1.809-8.792,8.557,8.557,0,0,0,1.027-4.325c-.071-3.227-.355-3.51-3.225-3.261a10.274,10.274,0,0,1-5.213-.675c-1.523-.5-3.509-1.064-4.359-1.311a75.516,75.516,0,0,1-7.976-3.686c-5.708-2.872-6.417-3.368-6.524-4.184-.107-.745-.354-.993-1.241-1.206-4.786-1.028-8.933-5.849-14.357-16.626-3.509-7.054-5.388-11.734-6.488-16.378l-.743-3.049.78-2.161c1.843-5.176,6.558-9.926,12.621-12.657,4.111-1.878,12.549-3.155,20.739-3.155,4.111,0,5.14-.107,6.558-.745a5.4,5.4,0,0,1,3.013-.5c1.1.177,1.346.107,1.843-.673.886-1.313.743-2.34-.532-3.652-.6-.638-1.029-1.241-.957-1.347a3.7,3.7,0,0,1,1.452.248c2.518.78,3.368-.815,1.17-2.2-1.027-.638-1.17-.886-.886-1.418.6-1.134.391-1.559-1.809-3.368-3.9-3.226-6.736-8.438-8.72-16.13-1.311-5.14-.957-7.586,2.588-17.157,2.232-5.956,3.757-9.076,5.034-10.353,1.418-1.453,5.247-2.836,9.181-3.368a12.873,12.873,0,0,0,3.758-.957c.532-.5,1.2-.5,6.2.036,10.883,1.134,13.471,2.234,20.561,8.649,3.225,2.943,4.041,3.227,5.352,1.843l.675-.744.638,1.1a1.732,1.732,0,0,0,1.773,1.1c1.241,0,1.559-.461,1.559-2.234,0-3.12,2.482-9.535,5.281-13.683,3.12-4.574,9.785-11.912,12.585-13.826a33.234,33.234,0,0,1,11.2-4.751,41.975,41.975,0,0,1,9.217.143Zm-88.981,18.717c-.5.922-1.809,1.845-2.234,1.561-.212-.107.143-.674.78-1.241,1.313-1.17,2.022-1.311,1.454-.32Zm32.508,1.277c1.986,1.525,1.311,1.6-2.161.248-2.588-.993-3.263-1.7-1.915-1.914,1.17-.213,2.2.248,4.077,1.666Zm138.364.177c.461.319.461.354,0,.354a2.519,2.519,0,0,1-1.064-.354c-.461-.318-.461-.354,0-.354a2.519,2.519,0,0,1,1.064.354Zm25.915,38.357-.32,1.17-.034-1.134a5.165,5.165,0,0,1,.212-1.773c.425-1.064.568.318.143,1.736Zm-10.494,5.815c-.461,1.559-1.17,2.8-.78,1.382.107-.39.284-1.241.425-1.879.141-.6.391-1.134.532-1.134.177,0,.107.745-.177,1.631Zm-192.5,11.131,1.027,1.064h-1.523c-1.241,0-1.49-.107-1.313-.568a4.027,4.027,0,0,0,.213-1.064c0-.78.5-.6,1.6.568Zm-6.522-.318c2.482.532,1.666.921-2.093.992-11.131.249-21.411,3.085-29,8.083-.957.6-.957.6-.532-.141,1.064-2.056,5.46-4.184,13.507-6.629,3.013-.886,6.522-1.879,7.8-2.127a30.686,30.686,0,0,1,10.317-.177Zm2.8,5.99c-.673.141-3.084.391-5.318.532-7.87.461-14.5,1.95-18.328,4.147-1.029.568-1.879.886-1.879.709,0-.425,1.879-2.056,3.154-2.693,1.313-.709,7.374-1.986,11.735-2.518,4.184-.5,12.692-.638,10.635-.177Zm193.985,2.907c-.248.248-.425.284-.425.071,0-.5.425-.921.673-.673.072.107-.034.391-.248.6Zm-222.629,37.471a22.149,22.149,0,0,1,1.6,4.4c-.177.532-2.588-2.907-3.509-4.963a33.264,33.264,0,0,1-2.02-7.2c0-.709,1.843,2.872,3.934,7.763Zm138.9,10.387c2.234,1.134,3.9,3.439,3.9,5.388,0,2.233-3.863,8.721-9.465,15.989a77.617,77.617,0,0,1-11.876,11.983c-1.206.886-2.695,1.985-3.227,2.411a2.348,2.348,0,0,1-1.666.566c-.6-.141-.709,0-.709.852,0,.566-.177,1.027-.355,1.027-.425,0-8.295-4.679-11.521-6.842a90.089,90.089,0,0,1-12.976-10.528c-4.75-4.679-5.423-6.1-5.459-11.521,0-5.956,1.6-7.8,6.736-7.729,4.75.071,8.508,1.879,14.5,7.02,6.2,5.318,6.2,5.318,8.685,2.234,3.263-4.006,11.239-9.926,15.032-11.1,2.516-.816,6.558-.673,8.4.248Zm89.335,4.325a2.213,2.213,0,0,1-.6.6c-.568.46-.6.425-.143-.143s.745-.743.745-.461Zm-209.583,11.982c4.325,2.2,11.628,4.893,13.258,4.893a.643.643,0,0,1,.32,1.2,18.253,18.253,0,0,1-4.5-1.064c-11.415-3.439-18.4-7.161-24.5-13.01a22.211,22.211,0,0,1-2.943-3.12,60.63,60.63,0,0,1,6.842,4.219c3.722,2.482,8.933,5.565,11.521,6.877ZM-125.773-163c0,.284-4.822,3.191-7.481,4.5a30.384,30.384,0,0,1-4.609,1.843c-2.161.6-6.274,1.134-5.92.78a34.423,34.423,0,0,1,3.865-1.489c2.02-.674,5.99-2.27,8.826-3.475,2.836-1.241,5.176-2.234,5.247-2.268.034-.036.071.034.071.105Zm-184.236,14.641a1.872,1.872,0,0,1-.886,0c-.248-.106-.071-.177.425-.177s.673.071.461.177Zm163.072,2.518a18.168,18.168,0,0,1,2.02,7.906c0,2.3-1.382,6.841-2.411,7.87-.638.638-.673.6-.212-1.6.886-4.219.318-12.373-1.136-16.059-.532-1.311.745.036,1.738,1.879Zm-165.022.673a34.1,34.1,0,0,0-2.27,5.779,26.235,26.235,0,0,0,.036,10.1c.816,3.049,3.474,7.906,5.247,9.465,1.807,1.631,1.134,1.809-1.6.425a15.407,15.407,0,0,1-6.133-6.2c-.957-1.807-.957-2.021-.78-6.168A30.057,30.057,0,0,1-314.9-143.4c.85-1.807,1.064-2.02,2.02-2.02.568,0,.993.107.922.248Zm159.243,12.728a7.683,7.683,0,0,1-3.261,4.786c-1.1.566-1.134.141-.177-1.313a30.2,30.2,0,0,0,2.268-4.891c1.347-3.545,1.347-3.581,1.454-2.056a15.261,15.261,0,0,1-.284,3.475Zm-151.515,3.934a22.389,22.389,0,0,0,10.351,5.247c4.218.922,4.466,1.1,2.056,1.418a19.027,19.027,0,0,1-9.856-1.134c-4.29-2.02-5.956-4.325-5.956-8.119l.036-2.091.743,1.382a15.754,15.754,0,0,0,2.624,3.3Zm66.22,3.12c.213.85-.141,14.144-.85,31.587-.177,4.643-.355,8.649-.355,8.863,0,.283-4.609.46-15.314.6-8.438.141-20.491.355-26.731.461-11.626.248-33.287-.391-33.678-.958-.637-1.028,3.829-6.664,7.02-8.934,5.885-4.111,10.849-4.927,24.568-4.006a46.862,46.862,0,0,0,10.812-.46c5.672-.675,12.976-1.667,14.712-2.022.568-.105,1.843-2.623,5.849-11.556,2.8-6.311,5.813-12.939,6.629-14.712l1.525-3.3,2.8,1.809c1.915,1.2,2.872,2.055,3.013,2.623Zm12.905-3.12c.532.354,1.984,1.347,3.261,2.27a35.472,35.472,0,0,0,3.758,2.375c1.346.673,1.773,1.276,4.572,6.488,5.211,9.677,10.671,18.08,12.762,19.746,1.559,1.241,5.281,1.6,13.294,1.382,4.006-.141,9.358-.5,11.876-.815,6.381-.814,14.251-.814,17.087-.035a21.035,21.035,0,0,1,9.147,5.175c3.722,3.333,3.758,3.474,1.666,3.722-4.218.532-11.733.958-23.4,1.277-19.532.532-23.22.709-29.14,1.454-7.481.921-16.094,1.666-22.547,1.95l-5.388.248-.212-3.333c-.143-1.843-.213-11.379-.143-21.234s-.034-18.257-.177-18.682c-.248-.638-.071-.922,1.064-1.666,1.631-1.064,1.384-1.029,2.518-.32Zm-44.952,4.893c0,.355-4.467,2.411-7.374,3.332a55.161,55.161,0,0,1-18.434,2.659,17.618,17.618,0,0,1-6.7-1.241c-.957-.355-1.1-1.169-.143-.85a45.623,45.623,0,0,0,9.36,1.241c3.438,0,12.549-1.914,18.541-3.863,4.536-1.49,4.75-1.561,4.75-1.277Zm0,0" transform="translate(363.957 314)" fill="#fff"/>
      </g>
    </g>
    <path id="パス_28462" data-name="パス 28462" d="M-193.134-212.505a11.679,11.679,0,0,0-7.445,3.793c-1.311,1.418-1.418,1.7-1.241,2.977.284,2.2.85,2.482,1.95.993,1.773-2.3,3.084-3.261,6.7-5a32.456,32.456,0,0,0,3.793-2.021c.391-.638-1.452-.993-3.757-.743Zm0,0" transform="translate(-104.644 -65.463)" fill="#fff"/>
    <path id="パス_28463" data-name="パス 28463" d="M-161.83-206.8c-.852.425-1.17.816-1.17,1.489,0,1.347.922,2.163,2.091,1.808a7.176,7.176,0,0,0,3.829-2.34c.5-.78.5-.957.071-1.241-.78-.5-3.579-.319-4.82.284Zm0,0" transform="translate(-129.744 -68.826)" fill="#fff"/>
    <path id="パス_28464" data-name="パス 28464" d="M-213.766-175.852-216-174.469v2.942c0,6.913,1.1,11.7,3.438,15.1,2.234,3.3,3.688,3.368,2.552.141a52.448,52.448,0,0,1-2.3-12.8c-.248-3.865-.248-3.936.709-5.354.959-1.454,1.1-2.482.391-2.729a9.567,9.567,0,0,0-2.552,1.311Zm0,0" transform="translate(-95.533 -88.327)" fill="#fff"/>
    <path id="パス_28465" data-name="パス 28465" d="M269.127-174.258c0,.106.425,1.454.957,2.942.922,2.552.993,3.191.993,7.906-.036,4.467-.141,5.6-.993,8.579a49.087,49.087,0,0,1-2.02,5.992A14.88,14.88,0,0,0,267-145.507c0,1.879,2.163,1.95,3.722.141,1.064-1.276,3.509-8.685,4.113-12.479a24.973,24.973,0,0,0-.745-10.954c-1.134-3.084-2.8-5.388-3.97-5.531-.568-.071-.993-.034-.993.071Zm0,0" transform="translate(-407.307 -90.134)" fill="#fff"/>
    <path id="パス_28466" data-name="パス 28466" d="M-64.635-170c-.886.886-.461,2.375,1.064,4.042,2.552,2.764,5.176,3.616,9.253,2.977,5.6-.85,8.083-3.12,5.813-5.247-.816-.78-2.729-1.064-2.729-.425,0,.355-2.659,1.17-5.034,1.6-1.631.248-3.3-.39-5.176-2.091-1.452-1.313-2.445-1.6-3.191-.852Zm0,0" transform="translate(-192.943 -92.692)" fill="#fff"/>
    <path id="パス_28467" data-name="パス 28467" d="M54.189-158.327c-.886.852.461,4.29,2.2,5.708,2.482,1.985,3.4,2.375,5.885,2.375,3.686,0,7.3-1.277,8.472-2.977,1.313-1.915,1.49-3.013.6-3.9-1.064-1.064-2.022-.922-3.263.5a8.98,8.98,0,0,1-5.813,2.34c-1.666.141-2.445-.284-4.4-2.34-1.668-1.843-2.979-2.445-3.688-1.7Zm0,0" transform="translate(-269.758 -100.286)" fill="#fff"/>
    <path id="パス_28468" data-name="パス 28468" d="M-122.279-103.582c-.78,2.482-.78,2.765.461,6.239,3.3,9.394,10.14,16.8,20.066,21.8,5.318,2.659,15.987,5.495,23.5,6.276a76.87,76.87,0,0,0,20.775-1.667,58.205,58.205,0,0,0,20.03-9.854A70.275,70.275,0,0,0-27.7-90c.673-.922,1.241-1.277,1.914-1.277,1.6,0,3.44-2.482,3.013-4.077-.282-1.2-2.02-2.8-4.572-4.29-1.17-.673-2.411-1.418-2.729-1.666-1.1-.743-1.843.461-1.95,3.12a10.114,10.114,0,0,1-.675,3.438c-2.232,4.431-7.692,10-11.379,11.7a72.864,72.864,0,0,1-29.353,6.736c-6.772.036-10.033-.461-14.889-2.268-14.428-5.283-24.354-13.33-28.4-22.972-1.134-2.8-2.232-3.9-3.827-3.9-1.064,0-1.17.107-1.738,1.879Zm0,0" transform="translate(-155.683 -134.611)" fill="#fff"/>
    <path id="パス_28469" data-name="パス 28469" d="M-262.291-30.127a16.433,16.433,0,0,0-5.565,2.659c-1.879,1.312-2.093,1.6-1.986,2.552a1.384,1.384,0,0,0,1.1,1.418c1.134.39,1.064.426,5.247-2.482,3.013-2.091,4.4-3.473,4.041-4-.213-.391-1.489-.461-2.836-.143Zm0,0" transform="translate(-60.764 -183.109)" fill="#fff"/>
    <path id="パス_28470" data-name="パス 28470" d="M-302.674-5.032c-1.1,1.134-1.311,1.666-1.559,3.652-.6,4.927-.32,7.658,1.241,12.869,2.375,7.763,4.288,10.883,8.047,13.046,3.581,2.055,4.361.921,1.454-2.2-2.588-2.764-4.786-7.338-6.276-12.9a19.466,19.466,0,0,1-.886-8.508c.427-7.3.461-7.054-.177-7.2-.318-.071-1.168.5-1.843,1.241Zm0,0" transform="translate(-38.389 -198.632)" fill="#fff"/>
    <path id="パス_28471" data-name="パス 28471" d="M285.555,6.88c-.675.426-.213,1.631,1.382,3.758a16.831,16.831,0,0,1,1.736,2.765c.816,2.091.284,5.495-1.382,9.394-.709,1.6-.745,1.95-.318,2.234.709.46,2.482,0,3.438-.852,1.17-1.1,2.2-4.786,2.2-8.011,0-3.333-.709-5-3.227-7.658-1.807-1.914-2.729-2.3-3.827-1.631Zm0,0" transform="translate(-419.09 -206.929)" fill="#fff"/>
    <path id="パス_28472" data-name="パス 28472" d="M293.13,9.046c-.921.355-.85.5.709,2.516a10.811,10.811,0,0,1,2.482,6.984c0,3.013-.743,5.176-3.12,8.757-2.8,4.254-5.175,6.238-11.06,9.358-5.459,2.907-5.884,3.368-3.863,4.609,1.347.85,1.984.745,5.529-.922,2.554-1.2,10.069-6.132,10.955-7.2a39.379,39.379,0,0,0,4.679-7.765c2.091-5.529.78-12.3-3.049-15.669-1.275-1.1-1.878-1.241-3.261-.673Zm0,0" transform="translate(-413.869 -208.314)" fill="#fff"/>
    <path id="パス_28473" data-name="パス 28473" d="M-250.606,88.819c-1.064.425-.391,1.738,1.7,3.3,6.1,4.538,7.656,5.318,10.6,5.318,1.773,0,2.729-.638,2.34-1.6a.985.985,0,0,0-.886-.532c-1.029,0-5.035-2.2-8.4-4.609-2.87-2.02-4-2.445-5.352-1.879Zm0,0" transform="translate(-72.874 -259.869)" fill="#fff"/>
    <path id="パス_28474" data-name="パス 28474" d="M-170.83,165.424c-.638.284-1.17.709-1.17.957a14.8,14.8,0,0,0,2.127,6.1c2.056,2.836,7.3,5.744,9.11,5,.568-.213.532-.284-.248-.816a28.518,28.518,0,0,1-3.4-3.12c-2.729-2.73-3.545-4.359-3.225-6.345.284-1.808-1.206-2.623-3.191-1.773Zm0,0" transform="translate(-123.935 -309.248)" fill="#fff"/>
    <path id="パス_28475" data-name="パス 28475" d="M325.559-278.836c-.213.6,1.027,2.87,4.041,7.408,3.9,5.814,6.063,10.671,6.522,14.535.32,2.766.532,3.368,1.1,3.368,1.559,0,2.445-4.679,1.418-7.835-1.418-4.359-8.9-16.519-10.812-17.512-1.311-.673-1.986-.673-2.268.036Zm0,0" transform="translate(-445.092 -22.352)" fill="#fff"/>
    <path id="パス_28476" data-name="パス 28476" d="M-280.936-274.227c-9.288,3.119-18.116,8.933-26.127,17.087-3.936,3.97-4.325,4.75-3.261,5.99.566.6.743.5,3.686-2.339a90.091,90.091,0,0,1,13.046-10.387c7.09-4.715,12.16-7.02,16.839-7.729,1.6-.248,1.666-.318,1.666-1.454a1.846,1.846,0,0,0-.78-1.7c-1.064-.745-1.384-.709-5.07.532Zm0,0" transform="translate(-34.319 -25.011)" fill="#fff"/>
    <path id="パス_28477" data-name="パス 28477" d="M361.962-170.379a79.178,79.178,0,0,1-2.127,17.371c-1.666,7.693-3.4,12.16-6.274,16.166-.993,1.418-1.134,1.807-.78,2.234a2.491,2.491,0,0,0,2.623.992c1.525-.389,5.211-8.331,7.09-15.208a78.443,78.443,0,0,0,2.375-22.511l-.248-3.013-1.311-.107-1.347-.106Zm0,0" transform="translate(-462.564 -90.007)" fill="#fff"/>
    <path id="パス_28478" data-name="パス 28478" d="M-297.881-169.146c-1.027,2.375-.1,10.174,1.7,14.819,1.206,3.013,3.191,5.991,4.679,6.983,2.3,1.561,2.377.852.391-3.191a43.255,43.255,0,0,1-3.616-13.258c-.391-3.545-1.311-6.063-2.27-6.381-.212-.071-.637.389-.886,1.027Zm0,0" transform="translate(-42.403 -92.835)" fill="#fff"/>
    <path id="パス_28479" data-name="パス 28479" d="M336.323-43.121c-.461.425-.354.743.638,1.878a2.759,2.759,0,0,0,1.736,1.1c2.3,0,9.642,4.184,13.081,7.481,4.254,4,5.354,6.913,5.354,14.144a24.585,24.585,0,0,1-.638,6.736,19.366,19.366,0,0,0-.709,2.836c-.107.957,1.029.745,2.447-.5C360.286-11.215,361-13.769,361-19.4c0-3.652-.141-4.644-.957-7.09-1.418-4.147-3.013-6.24-7.586-9.749C347.6-40,341.888-42.873,338.7-43.193a5.451,5.451,0,0,0-2.375.072Zm0,0" transform="translate(-451.885 -174.759)" fill="#fff"/>
    <g id="グループ_4902" data-name="グループ 4902" transform="translate(-363.957 -314)">
      <g id="グループ_4901" data-name="グループ 4901" clip-path="url(#clip-path)">
        <path id="パス_28480" data-name="パス 28480" d="M333.778,97.624A100.227,100.227,0,0,1,314.671,115.6a34.175,34.175,0,0,1-8.935,4.326c-1.134.318-1.736.637-1.736.992a2.435,2.435,0,0,0,1.418,2.517c.922.391,1.382.248,4.679-1.347,9.394-4.538,17.725-11.7,25.135-21.554,2.232-2.977,2.516-4.112,1.2-4.963-.673-.46-.886-.283-2.659,2.056Zm0,0" transform="translate(-67.233 49.757)" fill="#fff"/>
        <path id="パス_28481" data-name="パス 28481" d="M-364,117.162v2.624l3.368,3.368a71.751,71.751,0,0,0,26.2,16.378l2.8,1.028.638-.814c.957-1.206.85-1.6-.638-2.127-3.438-1.17-11.06-5.247-15.882-8.474-7.976-5.318-12.089-9.074-14.464-13.258-.425-.745-1.064-1.347-1.382-1.347-.568,0-.638.355-.638,2.623Zm0,0" transform="translate(363.957 37.38)" fill="#fff"/>
      </g>
    </g>
    <path id="パス_28482" data-name="パス 28482" d="M347.629,139.2a82.415,82.415,0,0,1-10.6,11.026c-7.729,6.593-12.089,9.429-17.016,10.99-2.729.85-3.013,1.027-3.013,1.843a1.952,1.952,0,0,0,1.311,2.091c.675.355,1.206.249,3.4-.673a68.625,68.625,0,0,0,12.017-6.913c5.6-4.041,16.946-16.307,16.946-18.293,0-.532-1.027-1.737-1.489-1.737a9.25,9.25,0,0,0-1.561,1.666Zm0,0" transform="translate(-439.582 -291.466)" fill="#fff"/>
    <g id="グループ_4903" data-name="グループ 4903" transform="translate(-364 -147.546)">
      <path id="パス_28483" data-name="パス 28483" d="M261.24,156.035c-.673.5-.637.568.532,2.942a44.881,44.881,0,0,1,1.845,4.325c1.63,4.644.141,10.671-3.795,15.493-1.382,1.666-1.134,2.268.922,2.268,4.609,0,8.472-8.508,7.126-15.7-.781-4.183-3.9-9.819-5.424-9.819a2.576,2.576,0,0,0-1.206.5Zm0,0" transform="translate(-38.115 -155.539)" fill="#fff"/>
      <path id="パス_28484" data-name="パス 28484" d="M-363.539,158.912c-.284.107-.461.886-.461,2.056,0,1.843.036,1.914,2.268,3.97,7.8,7.3,18.861,13.117,30.276,15.882,2.8.673,3.616.461,3.616-1.027,0-.638-.568-.958-4.147-2.127-12.337-4.042-25.383-11.876-29.353-17.548-.957-1.418-1.277-1.6-2.2-1.206Zm0,0" transform="translate(364 -157.601)" fill="#fff"/>
    </g>
  </g>
</svg>
