<svg xmlns="http://www.w3.org/2000/svg" width="1425.81" height="315.106" viewBox="0 0 1425.81 315.106">
  <defs>
    <style>
      .cls-1, .cls-2 {
        fill: #26333b;
      }

      .cls-1 {
        fill-rule: evenodd;
      }
    </style>
  </defs>
  <g id="グループ_5421" data-name="グループ 5421" transform="translate(-237.992 -6501)">
    <g id="気球_イラスト" transform="translate(237.992 6501)">
      <path id="パス_27568" data-name="パス 27568" class="cls-1" d="M397.925,852.168c1.528.288,4.637-.461,6.613,1.129a.984.984,0,0,1,1.358.295.953.953,0,0,1,.094.189,1.131,1.131,0,0,0,.323-.484c3.834,1.454,6.022,5.38,7.419,8.871a.444.444,0,0,1-.484.323c.1.731.741.081.806.968-.131-.031-.161-.162-.323-.161,1.414,2.019.472,3.832,1.29,5-.941,1.983.472,4.881-.968,6.29.675.091-.154.591.161,1.29a.9.9,0,0,1-.645.161c.7.544-.6,2.1-.161,2.9-.131-.031-.161-.162-.323-.161-.378,2.1-1.944,4.394-2.419,6.936-.585-.587.015.834-.806.484a3.752,3.752,0,0,1-.162,1.613c-.084.194-.515.282-.645.484-.8,1.249-1.06,3.876-2.258,4.194.546,1.028-.9,1.316-.806,2.419-.625-.1-.664-.134-1.129.161.04.416.278-.221.645,0-.54.847-.667,3.1-2.418,3.226-.463,2.265-.039,5.124-1.613,6.613.157.452.429-.234.645.161-.581.309.617.993-.161.968.8.42.15,2.661.323,2.419,1.086,3.544-3.646,3.638-6.129,4.032-1.891-1.041-1.269-4.46-1.129-7.419-.924-1.215-.581-3.677-1.129-5.806-.071-.239-.207.064-.484,0a71.319,71.319,0,0,0-5.323-7.742v-.806c-1.936-1.933-2.226-3.858-3.549-6.936-.026-.189-.294-.136-.484-.161a13.562,13.562,0,0,0-.806-3.71,22.2,22.2,0,0,1-.968-7.1c.043-2.061-.055-3.679-.161-5.806.578.2.085-1.238.645-1.129.089-.358-.308-.23-.323-.484.818-2.311,1.285-4.464,2.581-6.452,1.116-1.711,3.458-2.769,4.194-3.71,2.738-1.442,5.667-3.057,9.032-2.742C398.177,852.347,398.106,852.2,397.925,852.168Zm.645,43.548c.021-.45-.285-1.119-.323-1.774-.158-2.871-.253-8.3-.16-11.935-1.3-8.29-3.034-18.2,0-28.064-1.263.351-2.291.106-3.387.968-.99.777-3.272,4.546-3.387,6.29-1.693,2.172-1.1,6.012-1.452,7.581a12.622,12.622,0,0,0,.161,4.355c.063.766.228,1.373.323,2.1.162,1.235.032,2.28.16,3.065.192,1.169,1.312,2.668.807,3.71,1.4,1.492,1.107,4.234,2.258,5.645-.039.23-.266.272-.323.484.949-.2.6,2.364,1.291,2.258.189.428-.309.95,0,.968,1.04,1.592,1.6,4.666,2.582,6.452.574-.382.981-.07,1.29-.161a9.959,9.959,0,0,1,.161-1.942Zm4.677-3.871c.4-.5-.291.35.161.323.105-.2.462.439.645.323a9.884,9.884,0,0,0-1.452,3.871,45.1,45.1,0,0,0,2.742-4.839c.181-.017.251.234.323,0-.181-.034-.251-.179-.323-.323.973-1.056,1.36-2.628,1.935-3.064-.271-.66.783-2.642.968-1.936-.285-.529.244-1.807.645-1.613-.115-.814.5-.9.323-1.774a3.041,3.041,0,0,0,.806-1.774c.591.239.446-2.393,1.452-2.742.227.042.184.354.323.484.44.015.325-.269.645,0a.909.909,0,0,1,.161-.645c-.789-.014-.435-.691-1.29-.323.491-1.283.7-2.849,1.451-3.871-.331-3.446.539-7.01-.645-10.484-.036.125,0,.318-.161.323.227-1.348-1.331-2.108-.484-3.064-.72.232-1-1.138-1.452-1.935a11.486,11.486,0,0,0-4.516-4.032c-.068.359-.856.126-.968,0,1.646,1.872,2.237,4.544,3.064,6.451.7,1.6.445,4.073.968,5.323.182.435-.09-.092,0,.323.048.218.429.212.484.484a3.39,3.39,0,0,1-.323,1.452c.009.162.537.323.484.645-.222,1.337,0,2.893-.323,4.032.125.036.318,0,.323.161-.093,3.641-2.681,10.051-3.387,13.871-.381,2.063-2.035,3.877-2.258,4.355-.381-.473.31-.6,0-.806-.176.107-.638.731-.32.8Zm-4.677,7.419c.791,1.71.632,2.8.484,5.161.768-.058,1.206-.088,1.613-.161A19.762,19.762,0,0,1,401.8,899.1c-1.38.124-1.333.064-3.225.162Zm-3.064.484c.341,1.378,1.048,3.348.807,5a2.35,2.35,0,0,0,1.451-.323c-.644-1.568-.023-2.742-.161-5-.9-.079-1.507-.264-2.1.324Zm.807,6.452a28.162,28.162,0,0,0,.484,4.032c1.141.378,2.415-.524,3.71,0-.591-1.272.292-2.356.161-4.032C398.657,906.1,397.344,906.258,396.313,906.2Z" transform="translate(-317.209 -852.168)"/>
      <path id="パス_27569" data-name="パス 27569" class="cls-1" d="M338.179,917.846c2.026.382,6.149-.611,8.77,1.5a1.3,1.3,0,0,1,1.925.642,1.5,1.5,0,0,0,.428-.642c5.085,1.928,7.987,7.135,9.84,11.765a.588.588,0,0,1-.642.428c.13.97.983.107,1.07,1.283-.173-.04-.213-.215-.428-.214,1.875,2.678.626,5.082,1.711,6.631-1.249,2.631.626,6.473-1.283,8.342.895.121-.2.784.214,1.711a1.194,1.194,0,0,1-.855.214c.926.721-.791,2.78-.214,3.85-.173-.041-.213-.215-.428-.214-.5,2.789-2.578,5.827-3.209,9.2-.775-.779.021,1.106-1.068.642a4.984,4.984,0,0,1-.214,2.139c-.113.257-.684.373-.855.642-1.061,1.657-1.407,5.14-2.995,5.562.725,1.363-1.2,1.745-1.07,3.209-.828-.133-.881-.177-1.5.214.051.552.368-.294.855,0-.716,1.123-.886,4.106-3.208,4.278-.614,3-.051,6.8-2.139,8.77.21.6.571-.311.855.214-.77.41.819,1.317-.214,1.283,1.067.557.2,3.529.428,3.209,1.438,4.7-4.83,4.824-8.129,5.347-2.508-1.381-1.683-5.914-1.5-9.839-1.225-1.611-.771-4.876-1.5-7.7-.094-.317-.272.084-.641,0a94.757,94.757,0,0,0-7.059-10.267v-1.07c-2.567-2.563-2.952-5.116-4.707-9.2-.034-.251-.39-.18-.641-.214.126-1.291-.718-3.646-1.07-4.92a29.407,29.407,0,0,1-1.283-9.412c.056-2.733-.073-4.88-.214-7.7.766.258.112-1.642.856-1.5.118-.474-.408-.3-.428-.642,1.085-3.064,1.7-5.92,3.422-8.556,1.479-2.269,4.586-3.672,5.562-4.92,3.631-1.912,7.515-4.054,11.979-3.637C338.512,918.083,338.419,917.891,338.179,917.846Zm5.348,53.262c-.131-.012-.253-.032-.214-.214a75.316,75.316,0,0,1,3.636-9.412c.283-.616-.02-1.488.214-2.353.437-1.617,1.846-4.5,1.925-5.134.417-3.321,1.676-7.035,1.07-11.337.413-.087.019-.98.856-.642.228-.8-.8-.339-.642-1.07-.8-6.615-1.609-16.244-7.059-20.749a4.313,4.313,0,0,1-2.567-.214c-2.49,4.732-2.833,10.144-2.567,15.4a190.172,190.172,0,0,0,2.781,21.6c-.706,1.8.34,3.6.428,5.562.043.958-.519,2.225-.428,3.422,0,.045.4.071.428.428.248,3.316-.522,6.308.214,8.984.857-1.332,1.1-4.135,1.926-4.271Zm-4.492,4.492c.027-.6-.38-1.485-.428-2.353-.211-3.807-.337-11-.214-15.829-1.722-10.994-4.024-24.136,0-37.219-1.676.465-3.038.141-4.492,1.283-1.312,1.031-4.339,6.029-4.491,8.342-2.245,2.88-1.462,7.972-1.925,10.053-.511,2.286.088,4.235.213,5.775.083,1.016.3,1.82.428,2.781.215,1.638.043,3.024.214,4.064.255,1.551,1.739,3.538,1.07,4.92,1.853,1.978,1.468,5.615,2.995,7.487-.051.3-.352.361-.428.642,1.259-.268.789,3.136,1.711,2.995.251.567-.41,1.26,0,1.283,1.379,2.111,2.124,6.189,3.422,8.556.763-.505,1.3-.093,1.712-.213a13.153,13.153,0,0,1,.212-2.567Zm5.989-5.775c.73.241-.068.829.428,1.07.14-.266.613.583.856.428a13.093,13.093,0,0,0-1.925,5.134,59.939,59.939,0,0,0,3.636-6.417c.24-.022.333.311.428,0-.24-.045-.333-.237-.428-.428,1.291-1.4,1.8-3.485,2.567-4.064-.359-.875,1.039-3.5,1.284-2.567-.379-.7.323-2.4.855-2.139-.152-1.079.658-1.2.428-2.353a4.034,4.034,0,0,0,1.07-2.353c.783.316.591-3.174,1.925-3.637.3.056.244.469.428.642.583.019.43-.356.856,0a1.2,1.2,0,0,1,.214-.856c-1.047-.018-.578-.917-1.711-.428.652-1.7.927-3.779,1.925-5.134-.439-4.571.714-9.3-.856-13.9-.048.166-.006.422-.214.428.3-1.788-1.766-2.8-.642-4.064-.956.307-1.324-1.509-1.925-2.567-1.157-2.037-3.161-3.727-5.99-5.348-.09.476-1.135.167-1.283,0,2.184,2.483,2.966,6.026,4.064,8.556.923,2.127.591,5.4,1.283,7.059.241.576-.12-.122,0,.428.063.289.569.281.642.642a4.492,4.492,0,0,1-.428,1.925c.012.214.712.428.642.856-.294,1.773.006,3.836-.428,5.347.166.048.422.006.428.214-.123,4.829-3.556,13.33-4.492,18.4-.506,2.736-2.7,5.141-3,5.776-.5-.627.411-.795,0-1.07,0,.345-.594.111-.638.424Zm-15.4-47.059c-.032.468-.539.459-1.07.428-.473.308.269.522-.214.642-3.649,2.055-5.8,5.6-7.487,9.626.114-.62-.833.328-.214.214.606-.321-.04,1.971-.214,2.139-.762.737.129-.288.214.214.292,1.722-.777,4.377-.856,6.2,0-.008.412.066.428.214.138,1.274-.765,2.993,0,4.492a5.091,5.091,0,0,1-.855.856.993.993,0,0,0,.642-.214c.841,2.1.707,5.006,1.283,6.845-.032.246,1.372,2.235.428,2.781,1.342,1.431,2.5,5.154,2.995,6.845,1.162.557,1.312,1.939,1.5,3.208,1.786,1.236,2.479,4.209,4.064,6.417.047-.167.179-.249.428-.214.289,1.349,1.534,5.593,3.851,4.706-.525-1.679-2.307-3.91-2.567-5.989-.137-1.1-.5-1.122-.856-2.139-2.774-7.909-5.5-18.037-5.989-26.31-.1-1.608.633-2.7-.214-3.209a30.664,30.664,0,0,0,.642-5.989c-.065-.493.618-.238.642-.642-.533-3.232,2.361-7.053,3.209-9.2.24-.022.333.311.428,0-1.061-.327,1.124-1.536.427-2.139-.4.658-.559.686-.646.218Zm9.412,57.54c1.049,2.267.837,3.718.642,6.845,1.019-.077,1.6-.117,2.139-.214.112-2.95.836-4.324,1.5-6.845-1.835.164-1.772.084-4.283.214Zm-4.064.642c.451,1.827,1.388,4.44,1.07,6.631a3.121,3.121,0,0,0,1.925-.428c-.855-2.079-.031-3.637-.214-6.631-1.2-.106-2-.352-2.783.428Zm1.07,8.556c.02,2.783.367,2.626.642,5.347,1.513.5,3.2-.7,4.92,0-.783-1.686.388-3.124.214-5.347-2.669-.135-4.411.076-5.779,0Z" transform="translate(-317.209 -852.168)"/>
    </g>
    <g id="イラストR" transform="translate(1389.287 6678.237)">
      <g id="グループ_4560" data-name="グループ 4560">
        <g id="パス_27864" data-name="パス 27864">
          <path id="パス_28175" data-name="パス 28175" class="cls-2" d="M212.635,131.378l.013.4.232-.331-.133.382.236-.329.034.391-.251-.292.4.052-.371-.16.4.048-.3-.264.186.353.048-.4.064.4.052-.4.215.329-.359-.14.378-.143-.4.034.377-.147-.393-.089.334.22-.153-.374.251.317-.149-.376.35.174-.4.034.283-.29-.362.184.28-.294-.4.08.405.025-.317-.253.381.139-.314-.257.406.006-.373.147.2-.352-.3.27.2-.355-.369.178.4-.075-.369-.168.4.043-.367-.173.4-.093-.329.231.113-.389-.232.332.108-.391-.336.222.343-.346-.435-.176.353-.314-.436-.181.346-.343-.477-.064.248-.4-.469-.041.246-.4-.481-.071.353-.33-.431-.182.359-.3-.432-.188.351-.339-.481-.054.234-.405-.47-.027.232-.41-.473-.032.266-.37-.453-.019.266-.37-.455-.024.275-.221-.068-.306.289.333.072-.437.293.332.114-.444.166.425.243-.368.128.424.247-.367.171.426.11-.443.289.333.072-.437.293.332.114-.444.167.425.243-.368.128.424.247-.367.171.426.11-.443.289.333.072-.437.293.332.12-.445.121.433.256-.349.07.429.26-.348.116.435.118-.432.251.353.076-.428.254.352.119-.433.121.43.247-.356.082.427.251-.355.14.431.064-.446.3.311.005-.432.307.309.026-.44.269.345.065-.428.26.348.069-.429.322.321-.317-.19.382-.133-.4.013.381-.138-.4-.093.36.185-.2-.351.3.276-.2-.354.373.138-.384.075.246-.321-.33.234.243-.325-.383.141.4-.039-.359-.187.4.072-.357-.191.389-.085-.283.271.033-.4-.15.376.028-.4-.2.356.078-.429-.355.242.1-.418-.36.238.014-.454-.15.429-.252-.352-.072.428-.255-.351-.108.433-.143-.421-.219.373-.109-.42-.222.372-.162-.42-.051.445-.3-.308,0,.432-.31-.305-.054.448-.163-.416-.209.377-.115-.417-.212.377-.156-.418-.109.441L215.1,122l-.077.436-.289-.336-.12.443-.16-.427-.249.364-.121-.426-.253.363-.164-.428-.117.441-.283-.338-.079.436-.287-.337-.121.442-.159-.427-.249.364-.121-.426-.253.363-.158-.429-.154.435-.275-.354-.124.432-.279-.353-.34.33.4-.464-.38-.4.42-.364-.379-.407.42-.38-.437-.346.361-.408-.436-.335.36-.417-.437-.362.458-.329-.335-.429.456-.307-.333-.438.458-.324-.4-.389.4-.369-.4-.377.4-.378-.4-.4.489-.281-.289-.462.485-.259-.286-.47.49-.278-.408-.019.343-.216-.4.091.341-.221-.409-.026.384.133-.229-.335.327.24-.225-.339.39.113-.388.072.249-.32-.336.227.245-.323-.362.193.339-.23-.4.073.357-.191-.4.069.241-.315-.048.4-.236-.33.112.39L211,112l.007.411.135-.367-.339.218.273-.3-.342.215.13-.37.1.375-.326-.238.254.314-.329-.235.1.378.142-.355-.359.183.3-.269-.362.18.185-.352.005.392-.245-.32.155.372-.249-.318,0,.394.18-.357-.362.179.294-.278-.365.175-.053-.252.39.18-.39.142.408.078-.389.151.4.148-.418-.074.272.311-.39-.138.267.318-.424-.062.413.1-.37.183.413.021-.369.191.417.1-.423-.035.3.286-.4-.1.294.293-.428-.024.421.066-.352.216.413-.016-.35.223.424.056-.425.012.328.251-.41-.057.325.259-.428.021.425.03-.334.244.411-.048-.331.251.427.029-.425.027.333.245-.411-.049.33.252-.427.027.425.032-.337.24.412-.043-.334.248.427.037-.426.012.323.258-.409-.066.319.266-.428.009.426.185-.368.257.425.151-.367.262.427.188-.442.141.34.293-.438.108.339.3-.444.148.43.177-.361.268.429.142-.361.272.432.179-.437.154.35.282-.434.122.349.287-.439.159.431.189-.361.278.43.16-.361.283.375.33-.12-.407-.415.142.17-.4-.42.137.136-.435-.352.274.016-.433-.316.3.01-.436-.364.267.181-.409-.417.115.217-.373-.421.11.178-.414-.355.272.013-.432-.312.3.007-.435-.359.271.177-.411-.415.121.212-.376-.419.116.171-.418-.373.267-.011-.442-.338.288-.015-.444-.372.269.127-.439-.42.141.158-.412-.425.135.118-.447-.359.286-.035-.442-.324.3-.039-.443-.36.286.11-.444-.415.156.143-.418-.42.15.1-.451-.349.3-.047-.44-.314.314-.051-.442-.356.294.266-.311-.4.077.345-.216-.4.072.291-.3-.251.327.019-.406-.164.373.013-.408-.262.32.319-.259-.407.012.375-.159-.408.007.323-.259-.255.32.007-.407-.151.378V115.9l-.231.344.246-.334-.384.138.3-.275-.387.133.168-.372.144.3-.4-.016.38.14-.405-.011.327.244-.217-.333-.02.4-.091-.394-.025.4-.226-.327.354.169-.393.094.4.018-.392.1.368.156-.252-.3.014.4-.124-.384.009.4-.253-.307.367.139-.383.127.4-.016-.383.131.379.125-.166-.306-.132.38.051-.4-.135.379-.152-.331.339.037-.293.275.344-.209-.291.278h.367l-.2-.288-.089.392.006-.4-.092.392-.192-.306.321-.036-.2.349.267-.3-.2.35.352-.127-.312-.181.112.386-.188-.356.109.387-.269-.041.438-.158-.087.442.414-.182-.083.445.425-.173-.143.432.432-.124-.155.42.437-.117-.115.457.376-.277.045.447.341-.3.05.449.373-.28-.087.455.42-.161-.117.433.426-.155-.077.463.36-.295.063.445.328-.31.067.446.369-.29-.107.454.428-.135-.144.424.434-.13-.117.449.4-.23-.025.447.379-.243-.021.45.411-.22-.169.432.441-.081-.193.407.444-.077-.161.44.4-.245.007.449.362-.268.012.451.389-.252-.118.441.419-.149-.145.419.424-.143-.185.352.231.147-.306-.273.158.379-.311-.269.1.409-.191-.382-.087.407-.142-.392-.1.407-.213-.376.134.407-.358-.211.192.369-.364-.205.133.411-.212-.373-.082.407-.144-.39-.091.408-.217-.373.145.4-.364-.2.2.363-.37-.194.146.406-.3-.338-.078.427-.255-.353-.081.428-.3-.338.086.441-.385-.2.128.414-.39-.2.082.445-.3-.338-.077.427-.255-.353-.081.428-.3-.337.087.441-.385-.2.128.414-.391-.2.083.445-.3-.337-.076.427-.256-.352-.08.428-.294-.34.09.43-.359-.228.13.406-.367-.221.077.438-.242-.369-.107.413-.186-.383-.113.414-.248-.369.083.434-.362-.224.133.405-.371-.216.088.434-.273-.345-.062.422-.228-.36-.068.424-.307-.328.215.386-.415-.082.275.321-.418-.078.277.318-.41-.062.318.271-.415-.05.314.279-.426.1.368-.2-.051.411.253-.329-.043.414.241-.333.016.411.194-.368.034.415.2-.367.125.416-.076-.425.342.239-.155-.388.349.234-.1-.421.213.373.083-.409.153.388.088-.41.225.37-.106-.427.37.208-.155-.4.378.2-.105-.43.265.351.072-.419.212.368.078-.42.271.35-.113-.425.373.2-.16-.394.381.2-.11-.43.268.35.071-.42.213.368.077-.421.271.35-.111-.426.371.205-.157-.4.38.2-.108-.43.347.314.094-.443.317.326.1-.444.35.313-.035-.466.407.2-.061-.451.411.2-.025-.472.332.332.122-.436.3.344.127-.438.327.335.016-.465.382.244-.006-.455.386.242.058-.478.169.434.273-.347.094.433.277-.346.035.408.367-.154-.218.376.421-.105-.214.381.449-.06-.347.285.425.092-.36.246.426.1-.346.291.444-.072-.211.38.419-.114-.207.385.448-.067-.348.286.424.094-.361.244.425.1-.349.286.445-.06-.222.373.422-.1-.218.379.451-.05-.375.227.409.112-.39.165.409.117-.377.227.431-.08-.236.35.4-.132-.23.358.433-.081-.367.238.414.091-.381.184.414.1-.362.254.42-.128-.188.378.381-.184-.181.386.405-.157-.272.336.419-.065-.288.31.421-.06-.252.361.014-.3.336.22-.285-.283.338.218-.081-.354-.248.232.4.046-.4.035.4.049-.278.225-.085-.309.377.14-.341-.213.378.137-.157-.327-.191.28.4-.043-.383.122.4-.04-.225.28-.149-.277.4.044-.383-.123.4-.027Z"/>
        </g>
        <g id="パス_27865" data-name="パス 27865">
          <path id="パス_28176" data-name="パス 28176" class="cls-2" d="M210.678,134.373l-.416.172.381.229-.416.162.381.234-.41.233.469-.015-.208.393.439-.077-.205.4.445-.069-.239.379.443-.04-.241.376.445-.036-.194.429.37-.287.062.44.311-.32.066.442.32-.317.03.446.335-.292.026.445.339-.29.065.457-.139-.294.394.081-.37-.158.4.078-.2-.3-.163.288.4-.061-.377.14.4-.059-.21.29-.155-.289.4.066-.375-.144.4.063-.209-.292-.153.294.4-.076-.372.153.4-.073-.2.3-.16-.3.394.082-.369-.16.4.079-.186-.3.147.429.252-.359.106.427.256-.358.18.427.007-.461.367.242-.065-.433.373.237-.046-.444.344.28-.008-.439.336.283,0-.44.4.24-.265-.378.439-.019-.3-.318.44-.024-.3-.33.442.025-.265-.35.44.031-.263-.354.456-.011-.335.092.176-.362-.249.316.173-.363-.345.141.313.174-.107-.388.188.356-.1-.389.314.2-.33.129.151-.373-.227.333.147-.375-.335.164.325.153-.133-.38.211.343-.13-.382.327.174-.326.148.136-.379-.215.341.133-.381-.329.178.417-.239-.38-.269.418-.212-.38-.274.414-.269-.484-.072.237-.4-.467-.023.235-.4-.471-.029.26-.389-.464-.048.26-.389-.465-.053.224-.443-.448.2-.022-.464-.4.24-.027-.467-.4.242-.046-.458-.38.269-.058-.464-.384.267-.136-.481-.131.472-.364-.279-.053.458-.369-.276-.046.454-.378-.251-.011.459-.391-.245-.015.462-.442-.206.232.426-.458.038.266.377-.46.043.261.387h-.464l.229.4-.462-.006.226.4-.485.048.4.265-.389.245.41.213-.37.327Zm4.232-1.757-.388.137.4.048-.392.115.406.054-.37.194.365-.2-.185.364.313-.263-.18.368.381-.17-.4.092.365.183-.408-.025.363.188-.414.058.411-.063-.3.279.383-.14-.294.284.416-.031-.41-.049.281.295-.374-.163.277.3-.408-.091.4.1-.381.147.408.022-.38.153.4.132-.37-.189.161.376-.3-.278.156.38-.356-.222.347.231-.408.01.377.158-.41.016.33.258-.285-.3.025.408-.19-.362.019.41-.26-.329.244.339-.386-.134.295.284-.391-.128.193.371-.065-.4-.237.333.084-.4-.242.33.008-.418-.011.415-.218-.345.068.4-.224-.342-.049.413.135-.389-.349.21.241-.329-.354.205.176-.379-.17.379-.071-.4-.09.4-.077-.4-.2.364.276-.3-.4.058.353-.2-.4.052.342-.231-.424.067.27-.328-.417.081.267-.334-.446.005.425-.131-.356-.235.422-.053-.355-.24.429-.091-.41-.147.387-.18-.41-.115.387-.186-.4-.206.433.108-.179-.386.385.183-.171-.393.391.176-.18-.386.384.182-.181-.386.392.174-.117-.432.079.4.215-.345-.077.4.221-.343.008.415-.036-.411.253.319-.121-.389.258.316.006-.412-.127.387.346-.214-.246.325.35-.21-.176.376.151-.384.084.4.066-.4.089.4.19-.366-.287.289.4-.036-.365.18.407-.031-.324.26-.009-.252.372.151-.339-.215.373.148-.1-.317-.259.216.4.068-.4.009.4.072-.4.026,0-.054.4-.007-.4-.071.4-.01-.285-.236-.092.272.393-.082-.372.152.394-.08-.291.262-.084-.219.4.024-.393-.079.289.176Z"/>
        </g>
        <g id="パス_27866" data-name="パス 27866">
          <path id="パス_28177" data-name="パス 28177" class="cls-2" d="M218.651,121.452l-.411.22.388.26-.412.225.388.265-.4.289.491.035-.2.421.468-.018-.2.427.47-.016-.208.418.467-.014-.205.422.469-.009-.163.47.421-.256.081.459.372-.286.086.462.374-.285.074.461.373-.282.078.463.378-.28.147.478.128-.463.343.295.053-.451.348.292.052-.45.345.289.039-.451.352.286.044-.452.412.247-.225-.422.452-.015-.265-.368.454-.019-.262-.376.455.016-.237-.385.454.018-.235-.39.477-.039-.413-.236.379-.247-.418-.178.379-.252-.416-.168.336-.382-.452-.242.335-.393-.453-.248.311-.456-.547.037.019-.514-.511.085.014-.519-.5.09-.028-.5-.493.145-.044-.517-.5.141-.1-.546-.357.419-.351-.372-.291.426-.358-.372-.254.419-.428-.223-.1.5-.474-.2-.1.506-.5-.188.323.149-.368.165.4-.071-.367.168.377.1-.235-.3-.016.4-.082-.395-.019.4-.234-.307.368.077-.348.2.387-.111-.347.205.385.056-.265-.275.025.4-.121-.384.021.4-.264-.282.375.04-.327.236.374-.15-.325.239.389.017-.371-.178.19.36-.308-.266.186.363-.376-.173.4.085-.365.178.4-.033-.364.184.41.066-.394-.121.247.324-.348-.212.243.328-.4-.11.41.018-.331.237.394-.1-.328.241.409-.058-.4.105.4.073-.4.054.317-.088Zm2.067-1.714-.2.345.264-.305-.177.363.268-.3-.031.4-.173-.35.364.175-.306-.263.365.172-.166-.354-.077.375.321-.243-.248.318.324-.241-.112.38-.1-.378.319.246-.245-.32.322.244-.089-.381-.153.352.365-.173-.308.261.367-.17-.194.348.147-.4.132.391.077-.407.14.391.175-.392-.172.389.38-.163-.251.329.384-.156-.211.369.294-.305-.053.41.247-.332-.045.412.329-.275-.326.275.413.02-.37.185.415.027-.352.239.4-.146-.227.345.367-.19-.221.351.418-.1-.416.117.363.2-.417.025.361.214-.423.064.412.107-.383.166.412.07-.383.171.4.169-.407-.144.173.38-.352-.225.166.385-.381-.2.272.328-.406-.092.291.3-.411-.084.225.373-.246-.356-.086.409-.151-.389-.091.409-.216-.374.276.218-.4.053.4.027-.4.056.281.219.085-.3-.379.133.345-.205-.38.13.152-.323.211.243-.4.033.4.047-.4.036.27.233.1-.3-.385.116.355-.19-.387.113.17-.316.2.246-.4.027.4.052-.4.03.141.24.1-.414-.336.242.168-.379-.342.237.133-.4-.258.334.019-.413-.221.35.012-.416-.3.308.27-.33-.408.065.322-.261-.412.058.284-.32-.336.263.091-.4-.281.305.083-.408-.348.251.324-.275-.412-.006.364-.2-.415-.013.344-.251-.373.188.2-.356-.333.239.2-.359-.394.142.409-.073-.352-.209.407.045-.35-.215.419-.026-.417-.007.342-.223-.4.062.341-.23-.416-.053.4.122-.218-.346.342.225-.213-.351.384.168-.368-.2.407-.042-.387-.131.407-.048-.353-.227.174.318.122-.384-.028.4.126-.383.135.364-.324-.2.4-.065-.4-.03.4-.068-.325-.2.086.36.2-.348-.116.386.206-.346.055.383-.279-.257.4.015-.388-.109.4.011-.279-.259.013.37.268-.3-.19.355.271-.3-.195.352.149.039-.065-.394.055.4-.069-.394-.173.242.395-.082-.4-.039.4-.039-.4-.042.4-.042v.039l-.4.039.4.04-.4.041.333-.108.047.242-.305-.261.342.21-.3-.262.381.068-.315.187.159-.368-.208.343.247-.108Z"/>
        </g>
        <g id="パス_27867" data-name="パス 27867">
          <path id="パス_28178" data-name="パス 28178" class="cls-2" d="M201.786,115.2l.413-.2-.385-.235.413-.188-.386-.24.407-.254-.476,0,.209-.4-.451.053.206-.405-.455.046.237-.388-.451.02.238-.386-.454.015.2-.437-.4.262-.05-.449-.345.294-.054-.45-.352.291-.022-.454-.364.269-.02-.454-.368.267-.1-.474-.143.459-.334-.305-.069.449-.339-.3-.076.452-.315-.329-.1.441-.312-.33-.1.442-.372-.3.147.453-.447-.071.192.412-.449-.067.186.419-.444-.1.16.423-.442-.1.156.427-.477-.049.372.3-.412.187.387.238-.412.192.385.248-.427.158.366.266-.427.155.365.271-.425.223.475.036-.233.387.453-.023-.231.391.457-.017-.254.376h.452l-.254.376.455,0-.213.43.406-.25.038.451.354-.285.042.452.36-.282.016.453.365-.266.016.454.37-.264.081.473.182-.44.3.342.118-.439.3.341.124-.439.28.357.139-.43.28.358.144-.431.344.335-.112-.463.44.1-.162-.424.443.1-.157-.429.436.125-.139-.43.431.131-.134-.436.478.068-.363-.31.416-.176-.381-.248.417-.181-.375-.281.291.23-.074-.4.155.371-.071-.4.3.215-.324.124.143-.376-.219.338.141-.378-.331.163.306.171-.093-.392.173.364-.09-.393.307.2-.318.14.124-.383-.2.349.121-.384-.322.178.314.156-.112-.387.19.355-.109-.388.192.354.125-.186-.4,0,.4,0-.4,0,.2.2-.041-.4-.038.4-.04-.4-.041.4-.046-.4h.043l.038.4.04-.4.041.4-.088-.352.254-.008-.3.262.265-.3-.3.259.131-.361.11.364-.3-.27.257.308-.2-.32Zm-5.339-.154.321.167-.118-.385.2.349-.114-.386.319.207-.362.076.234-.328-.3.267.232-.33-.367.084.294.213-.064-.4.151.373-.06-.4.288.249-.37.025.277-.292-.335.223.274-.295-.375.032.265.251-.013-.4.1.389-.01-.4.255.282-.386-.125.384-.13-.406,0,.383-.136-.385-.133.308.259-.078-.4.2.351-.073-.4.292.289-.347-.214.405-.022-.391-.111.406-.028-.335-.231.226.333.033-.4.1.393.037-.4.2.357-.277-.3.4.086-.347-.21.4.082-.248-.32.2.379.1-.4.114.4.112-.4.159.394-.02-.423.259.323-.06-.411.268.319.042-.429-.044.425.32-.263-.142.39.327-.258-.1.413.232-.355.021.414.192-.368.03.416.286-.322-.285.319.413-.025-.344.232.416-.017-.316.289.262-.3-.048.4.149-.375-.044.4.281-.271-.38.044.331.23-.379-.138.329.234-.4.012.327-.213-.13.382.223-.336-.127.383.331-.206-.38-.036.276.294-.342-.214.273.3-.389-.07.36-.144-.2.35.282-.289-.2.352.364-.124-.43.027.324.261-.414-.048.32.27-.427-.009.39.169-.4.1.4.133-.4.108.368.231-.377-.21.108.4-.307-.282.1.406-.341-.258.217.365-.385-.157.241.34-.391-.15.163.4-.182-.392-.149.389-.083-.409-.157.388-.124-.409-.041.423-.219-.353,0,.417-.228-.352-.1.422.084-.422-.349.226.173-.379-.356.221.14-.4-.282.318.031-.415-.249.335.023-.418-.334.279.316-.294-.415-.021.363-.2-.418-.03.351-.244-.416.092.269-.317-.4.124.265-.325-.428.061.266.137-.032-.4.109.387-.029-.4.268.246-.232.143-.036-.4-.043.4-.038-.4-.221.293.247.1-.025-.4.1.389-.022-.4.263.251-.235.139-.027-.4-.051.4-.031-.4-.225.291.243.1-.014-.4.092.391-.012-.4.26.251-.248.138,0-.4-.073.4-.008-.4-.244.27.244.121v-.4l.079.4,0-.4.252.258-.255.13.014-.4-.092.391.011-.4-.257.257.239.133.017-.4.062.4.02-.4.24.268-.262.119.034-.4-.112.386.007-.4Z"/>
        </g>
        <g id="パス_27868" data-name="パス 27868">
          <path id="パス_28179" data-name="パス 28179" class="cls-2" d="M214.069,110.941l.4-.223-.4-.247.4-.245-.4-.253.394-.306-.494-.024.187-.43-.47.027.183-.434-.472.024.2-.425-.467.02.193-.429-.471.016.152-.475-.421.258-.088-.46-.373.288-.093-.462-.376.286-.078-.462-.374.281-.083-.463-.379.279-.133-.477-.135.436-.269-.341-.062.432-.274-.34-.076.435-.231-.375-.122.418-.221-.377-.125.418-.294-.353.146.433-.419-.117.207.381-.423-.111.191.4-.407-.167.146.409-.4-.179.141.414-.446-.112.372.265-.408.151.391.193-.407.156.384.236-.255-.246.006.4-.085-.393,0,.4-.258-.247.294-.124-.088.392.164-.367-.085.393.3-.189-.268-.18.019.4-.1-.39.016.4-.266-.238.29-.134-.076.395.152-.373-.072.4.3-.2-.275-.17.034.4-.112-.386.03.4-.277-.168.456.145-.318.337.451.115-.317.342.452.119-.33.326.445.129-.33.328.446.133-.305.387.476-.113-.075.456.438-.157-.071.461.442-.154-.092.455.441-.143-.09.457.444-.139-.037.491.33-.36.193.421.274-.376.2.421.279-.375.134.424.246-.368.134.424.25-.368.2.423.039-.462.356.264-.016-.445.359.262-.006-.449.334.3.028-.442.328.3.033-.443.394.257-.254-.393.441-.024-.3-.329.443-.028-.3-.312.422-.078-.359-.25.427-.1-.351-.151Zm-4.86-1.8.205.353-.006-.4.13.383,0-.4.247.321-.344-.207.4-.047-.4-.08.4-.052-.35-.205.243.318.006-.4.12.387.01-.4.225.34-.309-.261.4.036-.373-.159.4.031-.288-.281.121.376.158-.373-.037.4.162-.372.007.41.133-.407.16.391.111-.407.165.391.211-.391-.144.421.4-.146-.217.365.4-.137-.188.4.353-.256-.072.419.321-.278-.066.423.383-.229-.3.326.425.013-.337.258.427.019-.331.276.428-.024-.3.3.423-.035-.3.3.444.061-.371-.138.138.384-.275-.3.133.387-.338-.246.343.232-.407,0,.378.153-.409.008.324.259-.255-.323-.008.408-.147-.381-.014.409-.227-.35.24.338-.382-.141.3.275-.385-.135.214.356-.125-.391-.151.378,0-.408-.156.378-.045-.412-.118.414-.185-.382-.095.413-.191-.381-.206.4.162-.416-.411.111.246-.346-.414.106.229-.369-.394.178.171-.389-.379.193.163-.4-.43.126.378-.234-.4-.135.4-.155-.4-.14.392-.195-.435-.026.322-.279-.425.009.32-.285-.438-.037.331.118-.186-.355.242.32-.185-.356-.019.275.32,0-.378-.137.345.207-.38-.134.334.227.027-.054-.346-.2.379.133-.345-.206.363-.068-.024.262-.347-.2.3.264-.349-.2.186.344.153-.222-.4-.028.4-.027-.38.057Z"/>
        </g>
        <g id="パス_27869" data-name="パス 27869">
          <path id="パス_28180" data-name="パス 28180" class="cls-2" d="M195.186,129.749l-.4.094.4.1-.4.1.4.106-.384.185.394-.159-.192.366.346-.227-.186.372.393-.169-.362.223.41.052-.384.153.411.06-.358.235.373-.2-.148.386.317-.266-.141.391.37-.214-.332.266.413,0-.362.2.415.011-.312.295.364-.258-.029.427.3-.3-.024.429.33-.287-.113.42.364-.22-.134.406.374-.213-.06.446.18-.409.2.378.1-.416.205.377.129-.418.125.417.2-.379.1.416.2-.378.184.411-.065-.442.365.219-.137-.4.373.212-.129-.41.4.194-.1-.435.4.2-.088-.44.449.143-.31-.351.437-.089-.335-.3.438-.093-.327-.32.455,0-.259-.364.448.011-.257-.367.468-.043-.412-.219.382-.231-.416-.166.382-.235-.417-.177.4-.2-.4-.2.4-.2-.4-.205.389-.271-.448.1.151-.408-.4.175.145-.413-.416.157.211-.388-.424.1.223-.373-.427.093.165-.429-.314.331-.09-.426-.249.359-.093-.427-.267.354-.027-.44-.307.308-.014-.436-.31.307-.086-.451-.09.448-.3-.313-.021.436-.306-.312-.046.444-.256-.372-.143.418-.236-.376-.148.419-.3-.355.115.449-.422-.128.176.4-.427-.123.169.411-.422-.126.177.4-.421-.126.172.409-.465-.058.389.256-.4.191.4.188-.4.2.4.194-.407.167.392.2-.407.168.371.1Zm.789-.7.191.33.038-.4.04.4.041-.4.114.386-.116.013-.028-.4-.05.4-.031-.4-.162.362.159.035.028-.4.05.4.031-.4.161.363-.158.034-.028-.4-.05.4-.031-.4-.011.4-.006.005.055-.4.023.4.058-.4.224.26-.4-.1.377-.161-.41-.009.375-.167-.4-.128.364.2-.139-.384.286.293-.134-.388.337.249-.31-.279.4.061-.344-.223.407.055-.273-.318.205.36.083-.4.09.4.09-.4.156.389-.116-.4.311.265-.173-.371.317.262-.018-.413.028.463.36-.253-.038.44.364-.251-.056.429.391-.18-.139.419.407-.166-.133.424.463-.088-.4.248.388.212-.411.165.387.216-.41.153.357.247-.429.1.354.266-.43.106.291.376-.328-.337-.158.411-.212-.388-.162.411-.214-.387-.078.408-.141-.389-.075.408-.15-.389-.175.394.169-.392-.382.159.249-.331-.387.152.215-.368-.314.285.08-.406-.275.31.073-.409-.354.245.349-.249-.41-.061.385-.154-.411-.069.375-.2-.416.082.279-.306-.4.123.275-.313-.407.1.059.069.292-.275-.253.311.293-.273.021.312-.336-.185.4-.039-.4-.039.4-.042-.4-.043v.04l.4.039-.4.039.4.042-.4.039.2.2.008-.4-.009.4.007-.4-.149.339.272-.295-.313.25.276-.291-.3.262Z"/>
        </g>
      </g>
      <g id="グループ_4561" data-name="グループ 4561">
        <g id="パス_27870" data-name="パス 27870">
          <path id="パス_28181" data-name="パス 28181" class="cls-2" d="M244.729,88.827l-.089-.375-.145.375.066-.4-.148.374-.144-.33.333.025-.275.293.329-.231-.273.3.361-.015-.177-.287-.129.381.049-.4-.132.38-.158-.324.334.012-.263.3.319-.244-.261.306.367-.05-.267-.246.027.4-.11-.387.023.4-.245-.079.356-.228-.128.392.3-.286-.121.4.345-.247-.293.3.4-.074-.326.252.408-.067-.272.327.276-.32-.006.411.2-.363v.413l.269-.329-.241.346.394-.119-.295.288.4-.113-.24.351.26-.333,0,.411.184-.368.011.413.263-.334-.225.365.4-.123-.275.311.4-.116-.224.368.282-.323v.415l.215-.356.009.417.281-.326-.212.371.391-.14-.262.323.4-.133-.208.378.268-.335.019.415.2-.365.027.417.267-.338-.2.38.385-.156-.248.334.39-.149-.193.385.284-.329.026.42.226-.355.031.421.288-.329-.175.4.388-.16-.222.357.395-.152-.174.4.289-.325.019.42.232-.351.024.422.295-.323-.187.393.393-.147-.234.35.4-.139-.189.394.3-.312v.421l.248-.339,0,.423.316-.3-.232.368.408-.1-.28.313.413-.087-.24.364.333-.277-.054.415.281-.312-.045.419.339-.275-.249.355.41-.085-.289.3.415-.077-.248.359.337-.273-.057.415.284-.309-.048.419.322-.287-.2.369.37-.183-.239.337.375-.177-.215.062-.181.541-.595-.139-.223.569-.6-.138-.245.58-.566-.268-.35.5-.546-.275-.352.5-.558-.271-.3.539-.572-.214-.293.536-.574-.213-.317.544-.527-.338-.411.452-.507-.342-.413.452-.519-.34-.365.5-.538-.285-.357.494-.54-.285-.339.489-.272-.188.372.157-.4-.049.371.161-.4.057.4-.105-.274.3.371-.172-.27.307.409-.084-.412.048.353.2-.406-.049.351.21-.414.057.4-.117-.236.333.348-.214-.232.337.387-.158-.373.184.406.044-.391.119.406.051-.315.263.092-.367.248.322-.123-.387.252.319-.044-.411.011.41.2-.351-.075.4.208-.349.051.406-.172-.368.362.184-.279-.3.365.18-.189-.365.092.4.16-.373-.027.405.166-.371.089.4-.186-.362.364.18-.283-.291.367.176-.178-.368.212.39.149-.4.153.4.155-.4.212.392-.023-.442.335.267-.073-.421.34.264-.019-.445.209.391.149-.4.155.4.155-.4.213.392-.022-.443.335.267-.072-.422.34.264-.019-.446.209.391.149-.4.155.4.155-.4.21.392.161-.489.427.264.145-.485L248.8,99l.171-.493.369.362.261-.43.351.365.268-.43.378.361.162-.491.43.261.143-.486.436.258.167-.494.378.351.25-.437.363.355.257-.438.391.349.155-.5.449.241.137-.5.456.238.3-.5-.326.376.339.322-.444.156.338.328-.448.189.426.226-.37.285.425.2-.369.291.427.232-.446.183.339.322-.443.156.338.327-.448.189.425.227-.371.284.425.2-.37.29.426.234-.447.177.337.322-.444.15.336.328-.449.178.4.379-.4.366.4.364-.4.375.4.388-.474.292.311.44-.471.273.309.449-.475.3.4.385-.4.363.4.367-.4.372.4.386-.462.3.327.428-.461.289.326.437-.464.317.43.356-.368.394.43.333-.367.4.431.356-.342-.154.161.369-.243-.321.158.371-.345-.156.306-.167-.085.393.17-.365-.082.394.292-.255-.38.024.33.231-.373-.152.328.234-.364.059.148-.317.162.368-.076-.4.165.367.086-.378-.293.243.4-.007-.391.1.4,0-.285.25-.076-.291.384.118-.353-.192.385.116-.167-.316-.2.258.4,0-.395.077.4.005-.254.252-.13-.268.4.037-.385-.115.4.034-.228-.275-.14.292.394-.08-.371.156.395-.077-.184.3-.19-.259.4,0-.394-.079.4-.005-.231-.259-.122.327.375-.145-.335.223.377-.142-.171.333-.146-.326.378.138-.34-.216.38.135-.174-.329-.145.328.377-.141-.338.219.378-.138-.172.331-.142-.332.374.148-.333-.226.376.145-.169-.335-.146.327.378-.138-.339.216.379-.135-.183.329-.121-.343.359.181-.312-.254.361.178-.166-.346-.09.369.32-.244-.258.309.323-.241-.055.365-.255-.24.4-.038-.4-.052.4-.041-.332-.2.141.354.116-.385-.027.4.12-.385.169.328-.348-.044.3-.266-.354.192.3-.269-.383.017.223.26.055-.4.024.4.058-.4.215.288-.276.094.078-.394-.154.371.075-.4-.3.2.266.175-.017-.4.1.39-.014-.4.263.244-.255.142.006-.4-.085.393,0-.4-.253.261.266.122-.042-.4.118.384-.039-.4.28.2-.42-.283.378-.315-.42-.263.377-.322-.421-.291.455-.224-.331-.364.452-.2-.33-.371.456-.23-.417-.287.381-.311-.418-.267.381-.318-.418-.295.455-.222-.33-.365.453-.2-.329-.372.457-.23-.418-.286.38-.313-.419-.265.379-.32-.419-.293.439-.073-.33-.276.429-.023-.328-.283.441-.079-.424-.134.365-.228-.422-.082.364-.234-.426-.14.44-.071-.328-.279.429-.019-.326-.285.442-.075-.423-.138.367-.224-.421-.087.366-.23-.424-.145.44-.066-.324-.283.429-.014-.322-.289.442-.065-.416-.144.378-.2-.415-.093.377-.2-.416-.155.441-.026-.305-.3.425.028-.3-.3.443-.031-.415-.151.377-.2-.416-.094.376-.206-.417-.151.439-.039-.316-.287.426.012-.313-.293.441-.04-.409-.172.386-.19-.411-.131.386-.194-.2-.347.057.525.464-.127-.056.481.469-.122-.032.5.431-.244.082.474.411-.255.088.476.438-.241-.037.494.464-.127-.056.481.469-.123-.032.5.431-.244.081.474.411-.255.087.476.437-.241-.039.494.464-.127-.058.48.468-.123-.035.5.393-.262.046.456.369-.276.051.458.4-.258-.1.464.441-.123-.123.444.445-.119-.1.467.4-.252.035.457.375-.267.04.459.4-.251-.09.464.438-.134-.112.447.442-.131-.08.472.386-.278.069.453.355-.294.074.455.386-.279-.274.29.4-.067-.362.18.4-.063-.266.3.076-.383.2.352-.091-.394.2.35.033-.4-.172.361.352-.2-.282.29.355-.195-.146.369-.067-.385.312.257-.227-.335.315.254-.115-.388-.019.4.246-.321-.142.379.25-.319.042.388-.263-.292.4.03-.374-.158.405.025-.333-.241.288.288-.091-.395.21.347-.086-.4.32.243L268,104.13l.342-.217-.393.1.34-.222-.41,0,.4.069-.3-.271.371.164-.3-.275.4.015-.355.175.154-.375-.263.308.15-.377-.336.235.375-.158-.4-.073.4-.056-.4-.078.361-.185-.262.3.015-.4-.143.379.01-.406-.245.327.322-.246-.4.014.38-.141-.406.009.314-.258-.192.353-.071-.4-.059.4-.076-.4-.171.372.265-.305-.394.095.345-.213-.4.09.264-.31-.393.271-.068-.457-.367.285-.073-.459-.4.27.061-.473-.437.15.083-.457-.442.146.056-.477-.393.271-.068-.458-.368.284-.073-.46-.4.268.07-.473-.441.139.094-.455-.445.136.069-.475-.4.253-.046-.46-.381.266-.051-.462-.412.249.133-.437-.42.137.167-.407-.425.131.128-.443-.36.281-.024-.441-.325.3-.028-.442-.363.281.127-.438-.417.144.16-.41-.423.138.122-.444-.358.283-.025-.441-.325.3-.029-.442-.35.289.1-.432-.378.209.123-.414-.384.205.18-.2-.07-.361.409.232.027-.472.414.229.057-.485.349.339.172-.439.325.346.178-.44.356.338.055-.484.412.23.032-.474.418.227.061-.487.351.338.173-.44.326.345.179-.441.357.337.056-.484.413.23.033-.474.418.227.061-.487.195.386.116-.4.13.4.121-.4.2.386-.093-.422.343.239-.15-.391.35.233-.091-.426.2.385.116-.4.131.4.121-.4.2.386-.092-.423.343.239-.15-.391.35.233-.09-.426.2.385.116-.4.132.4.121-.4.194.388-.118-.4.328.246-.186-.366.334.242-.108-.409.112.405.161-.378.025.41.168-.377.115.408-.113-.405.334.239-.193-.363.34.234-.127-.4.161.39.1-.4.086.4.111-.4.2.376-.251-.329.4.074-.336-.233.4.068-.305-.287.238.313-.043-.4.125.382-.04-.4.281.225-.319.125.131-.38-.208.345.128-.382-.324.183.331.135-.154-.371.229.331-.151-.373.335.143-.276.2.029-.4-.112.386.026-.4-.267.259.35.052L268.9,92.3l.3.272-.231-.33.275-.046-.407.259L268.769,92l-.381.273-.07-.464-.343.285-.21-.4-.254.4-.256-.4-.26.4-.3-.4-.086.489-.411-.237-.046.475-.416-.234-.068.485-.364-.321-.152.449-.347-.327-.158.45-.378-.317-.029.488-.428-.2-.006.477-.434-.2-.036.493-.4-.313-.182.456-.376-.321-.188.457-.4-.312-.074.5-.445-.207-.055.491-.451-.2-.087.506-.379-.338-.213.442-.352-.346-.219.443-.368-.343-.157.473-.4-.29-.149.471-.4-.288-.189.48-.271-.424-.308.371-.234-.425-.314.371-.109-.364-.384-.143.357-.356-.437-.258.356-.363-.439-.283.433-.3-.364-.361.433-.282-.363-.369.434-.308-.443-.287.351-.372L256.106,91l.35-.38-.444-.291.432-.3-.365-.359.432-.282-.364-.366.433-.308-.445-.284.349-.373-.443-.262.348-.381-.446-.289.435-.153-.353-.27.432-.115-.352-.275.436-.15-.428-.164.364-.255-.426-.133.364-.259-.429-.176.445-.12-.332-.3.439-.081-.331-.3.446-.126-.43-.164.36-.261-.428-.124.359-.265-.432-.159.431-.155-.36-.261.429-.125-.359-.266.432-.165-.431-.045.333-.256-.419.019.331-.261-.433-.042.423-.093-.362-.214.418-.034-.36-.219.421-.121-.433.048.257-.331-.4.127.251-.339-.418.1.329-.272-.419.006.341-.244h-.421l.293-.326-.317.294.009-.416-.233.346V79.61l-.191.353-.136-.369,0,.412-.2-.364-.009.414-.3-.306.321.283-.413.029.371.185-.415.037.364.214-.418-.048.315.268-.409-.072.312.276-.43.023.429,0-.3.289.4-.095-.293.3.43-.025-.416.1.369.189-.414.025.367.2-.419.089.456.262-.334.387.454.244-.332.395.457.274-.432.307.365.357-.431.282.364.365-.432.3.436.293-.36.362.435.274-.359.369.437.3-.435.295.361.36-.434.275.36.368-.436.3.451.277-.34.381.449.252-.339.388.452.277-.428.159.363.25-.426.121.363.255-.429.16.437.129-.347.272.433.094-.346.276.438.14-.437.135.347.272-.433.094.346.277-.438.133.428.156-.364.25.426.121-.363.254.429.164-.44.1.336.277-.433.059.335.281-.378-.031-.041.277.1-.4-.274.307.1-.4-.324.272.242-.354-.4.115.272-.317-.406.108.223-.373-.3.312.007-.417-.235.345,0-.42-.3.317.2-.381-.391.145.248-.337-.4.137.195-.388-.276.333-.027-.418-.21.361-.032-.419-.283.33.209-.38-.4.124.261-.327-.4.116.215-.378-.3.307.016-.417-.247.338.007-.421-.308.307.218-.373-.4.123.263-.326-.4.115.216-.377-.3.308.013-.418-.244.34,0-.421-.306.309.213-.376-.4.129.258-.329-.4.121.209-.382-.325.3,0-.426-.273.326-.009-.429-.326.3.17-.407-.4.15.209-.371-.405.141.164-.413-.313.311-.019-.426-.261.336-.025-.428-.316.312.16-.411-.394.158.2-.376-.4.15.156-.416-.31.314-.022-.426-.259.338-.027-.428-.316.312.195-.387-.394.142.245-.34-.4.134.2-.389-.292.32-.007-.419-.232.349-.012-.42-.28.329.146-.4-.364.207.182-.378-.371.2.079-.433-.062.428-.275-.313.061.413-.283-.309.084.4-.331-.228.213.355-.363-.2.261.255Z"/>
        </g>
        <g id="パス_27871" data-name="パス 27871">
          <path id="パス_28182" data-name="パス 28182" class="cls-2" d="M270.3,109.656l.157.42.25-.375.166.42.255-.374.234.417.016-.473.389.224-.043-.449.394.222-.05-.445.4.2-.088-.44.411.186-.084-.443.456.136-.317-.353.437-.112-.342-.3.437-.116-.334-.322.461-.015-.255-.372.452,0-.252-.375.469-.041-.388-.269.4-.206-.395-.229.4-.21-.394-.236.418-.185-.38-.25.418-.184-.379-.256.413-.249-.479-.025.219-.4-.456.032.216-.4-.459.027.241-.388-.455.007.242-.388-.457,0,.2-.439-.408.25-.045-.452-.357.284-.049-.454-.363.282-.048-.467-.391.255-.048-.467-.4.252-.1-.484-.262.415-.273-.379-.214.418-.279-.378-.225.419-.243-.4-.25.395-.24-.4-.256.4-.3-.4-.027.492-.426-.192.025.469-.43-.189.03.465-.431-.168.06.462-.441-.16.056.466-.5-.09.327.467-.446.292.344.413-.448.3.346.391-.364.369.433.313-.363.4.433.322-.349.453.561.081-.1.527.539.039-.09.533.532.031-.042.524.534-.03-.027.539.54-.024.025.577.47-.326.293.445.412-.345.354.447Zm-2.935-4.071.429.01-.314-.277.417.048-.31-.286.43.014-.377-.2.412-.08-.382-.171.412-.086-.351-.263.377.219-.09-.409.308.284-.082-.413.339.264-.186-.384.378.178-.208-.364.385.172-.129-.421.177.4.171-.384.081.412.176-.383.144.41-.219-.284.4.057-.378-.136.4.055-.214-.288-.151.291.395-.071-.373.149.4-.068-.207.3-.152-.3.394.08-.37-.158.395.078-.2-.3-.168.282.4-.048-.381.127.4-.045-.229.281-.138-.287.395.071-.374-.147.4.068-.173-.3.034.432.261-.327-.031.418.269-.324,0,.429.181-.387.1.407.148-.392.107.407.242-.365-.2.386.4-.111-.271.32.409-.1-.249.351.374-.207-.159.386.35-.23-.151.393.411-.153-.39.195.392.15-.407.1.391.156-.4.162.277-.231-.046.4.126-.381-.043.4.282-.224-.3-.137.1.39-.175-.362.1.391-.308-.189.294-.165-.072.395.15-.373-.069.4.3-.205-.293-.156.073.4-.152-.372.07.4-.295-.209.3-.148-.088.392.164-.367-.084.394.3-.16-.441.063.321.287-.43.01.319.293-.44.045.385.213-.41.134.389.188-.41.137.371.26-.433-.122.162.4-.39-.182.153.405-.406-.166.211.381-.414-.118.222.368-.418-.113.147.432-.236-.385-.17.394-.14-.405-.176.394-.145-.406-.179.39-.133-.409-.186.389-.137-.409-.262.369.137-.43-.407.14.2-.38-.411.135.182-.4-.386.2.122-.413-.371.217.117-.417-.428.154.356-.278-.415-.115.381-.2-.415-.119.377-.224-.434-.051.335-.271-.429-.032.333-.276-.439-.084.2.189.118-.385-.042.4.121-.383.139.348-.237.034.086-.392-.16.368.083-.393-.176.363.051.017.158-.37-.083.393.16-.368-.173.332.254.045-.257-.308.224.332-.259-.306.083.376.133-.364-.295.273.255-.31-.226.314Z"/>
        </g>
        <g id="パス_27872" data-name="パス 27872">
          <path id="パス_28183" data-name="パス 28183" class="cls-2" d="M254.026,111.323l-.222-.4-.234.4-.229-.4-.239.4-.295-.393.008.487-.426-.173.064.458-.431-.169.066.457-.428-.164.081.453-.435-.158.077.456-.479-.107.322.366-.437.145.345.308-.438.15.344.317-.45.116.32.331-.449.113.318.337-.457.176.471.168-.3.37.463.116-.295.375.461.111-.276.38.467.083-.271.392.468.088-.236.447.47-.178.021.473.425-.217.026.477.426-.217.016.474.423-.216.021.476.427-.213.073.5.3-.4.263.394.25-.406.269.394.248-.406.235.386.19-.413.246.386.2-.414.306.373-.032-.478.422.171-.082-.45.426.168-.074-.457.41.208-.04-.453.406.211-.035-.457.451.169-.266-.4.451-.062-.3-.349.453-.067-.292-.359.459-.026-.261-.373.458-.023-.259-.378.478-.11-.482-.175.277-.392-.47-.108.274-.4-.468-.1.248-.4-.475-.063.241-.418-.478-.069.21-.465-.479.163-.013-.48-.442.2-.019-.483-.447.192.008-.482-.447.176.007-.483-.452.172-.046-.509-.329.385-.258-.405-.277.4-.333-.393Zm-.039,1.124.021.437.288-.315-.013.426.294-.312.018.437.222-.374.1.416.195-.379.105.416.27-.356-.144.421.4-.155-.2.376.4-.146-.175.4.358-.251-.074.421.331-.27-.069.424.4-.207-.344.282.415.092-.379.193.416.1-.378.2.41.1-.387.169.41.1-.387.174.4.194-.424-.124.174.384-.372-.2.166.391-.4-.17.272.335-.418-.063.291.306-.421-.058.238.374-.309-.313-.031.421-.232-.352-.036.423-.256-.346.029.427-.294-.3.048.42-.3-.3-.042.442-.024-.436-.293.3.069-.414-.3.295.017-.435-.166.4-.141-.4-.114.4-.146-.395-.2.39.135-.414-.377.182.206-.365-.384.174.182-.389-.339.26.1-.406-.316.277.094-.411-.389.205.367-.237-.4-.113.4-.14-.4-.118.393-.169-.426-.048.351-.235-.421-.025.35-.24-.427-.116.438.036-.252-.338.406.118L252.3,114l.425.087-.328-.279.422-.007-.339-.25.424-.012-.295-.33.349.268-.026-.422.276.319-.021-.424.309.3-.124-.412.356.226-.149-.4.364.22-.141-.4.153.354-.047-.4.055.4-.043-.4-.165.233.4,0-.4.038.4.04-.4.041.4.051V112.8l-.4-.037.4-.041-.4-.04.345-.18-.017.294-.314-.25.275.293-.316-.249.219.336.078-.07-.288-.278.324.236-.324-.214Z"/>
        </g>
        <g id="パス_27873" data-name="パス 27873">
          <path id="パス_28184" data-name="パス 28184" class="cls-2" d="M245.518,87.316l.406-.224-.393-.239.407-.22-.393-.245.4-.279-.484-.029.212-.408-.462.022.209-.414-.468.012.252-.391-.459-.027.255-.386-.462-.032.221-.436-.44.2,0-.46-.4.237-.009-.462-.394.239-.016-.457-.383.254-.025-.462-.388.252-.108-.483-.143.471-.364-.282-.064.459-.369-.28-.063.458-.366-.277-.053.458-.373-.275-.058.461-.423-.245.169.455-.461-.027.205.416-.464-.023.2.426-.461-.07.161.432-.458-.074.157.437-.491-.02.377.307-.409.213.391.248-.409.217.391.245-.4.226.4.225-.4.238.4.231-.388.3h.486l-.183.423.461-.052-.18.428.464-.048-.2.416.46-.032-.2.417.462-.027-.16.463.407-.267.079.454.356-.3.084.457.362-.294.059.459.367-.279.061.46.372-.277.124.475.169-.452.321.325.1-.446.325.323.107-.447.316.329.106-.444.32.328.11-.445.388.294-.179-.449.455.019-.228-.4.458.015-.227-.4.454.021-.23-.394.458.016-.227-.4.481-.041-.41-.25.383-.248-.415-.195.36-.332ZM242.832,89.6l.141-.256-.4.01.393-.088-.4.006.253-.256.136.251-.4,0,.393.083-.4,0,.257.254.132-.251-.4,0,.393-.083-.4,0,.254-.254.134.253-.4-.008.393.086-.4-.005.253.255.135-.252-.4.007.393-.085-.4,0,.229-.261-.153.411-.186-.382-.094.414-.192-.381-.186.4.1-.432-.375.194.173-.387-.384.187.15-.408-.341.265.074-.418-.319.278.069-.42-.389.218.333-.292-.419-.067.368-.211-.42-.072.36-.241-.431.013.306-.294-.422.037.3-.3-.441-.025.329.131-.143-.376.223.335-.141-.378.333.18-.348.117.188-.356-.262.305.186-.357-.352.13.314.178-.1-.388.188.356-.1-.39.312.213-.357.08.223-.334-.292.277.221-.337-.364.1.283.213-.044-.4.129.381-.042-.4.264.282-.365-.208.408-.047-.388-.135.408-.054-.351-.235.326.263-.075-.4.245.33-.069-.407.3.293L241,85.734l.4.1-.312-.266.4.1-.244-.345.212.362.073-.4.111.4.081-.4.179.382-.131-.4.332.242-.187-.366.337.237-.064-.417-.034.417.318-.261-.165.377.324-.256-.107.41.16-.388.092.4.1-.4.1.4.2-.375-.224.355.393-.119-.3.281.4-.113-.256.335.293-.3-.062.406.235-.337-.055.409.32-.277-.339.246.409.033-.383.149.41.04-.371.2.432-.043-.275.325.419-.072-.273.33.447,0-.425.129.357.233-.423.054.356.239-.429.085.4.162-.4.16.4.135-.4.165.384.238-.41-.176.1.414-.34-.255.1.417-.342-.254.079.416-.325-.274.074.419-.4-.2Z"/>
        </g>
        <g id="パス_27874" data-name="パス 27874">
          <path id="パス_28185" data-name="パス 28185" class="cls-2" d="M254.6,81.019l0,.429.272-.314-.067.411.28-.311.02.433.026-.43.266.319-.059-.411.274.315,0-.429.123.409.156-.385.069.41.165-.384.157.4-.114-.414.355.216-.188-.371.361.21-.142-.4.249.347.024-.415.2.366.032-.417.286.326-.222-.385.419.076-.27-.329.422.071L257.435,80l.392.194-.14-.4.366.219-.131-.408.417.161-.344-.281.42-.077-.37-.212.42-.083-.359-.253.435.043-.27-.33.418.077-.267-.335.447.005-.421-.141.365-.22-.421-.066.364-.226-.424-.093.392-.251-.407-.214.393-.244-.407-.22.381-.306-.485.015.173-.426-.458.066.17-.431-.461.062.194-.42-.458.045.193-.42-.461.04.15-.465-.4.279-.09-.451-.346.307-.1-.453-.351.305-.071-.457-.357.289-.072-.457-.363.288-.141-.471-.149.466-.354-.3-.083.456-.359-.3-.088.459-.341-.314-.1.45-.342-.313-.106.451-.4-.285.14.466-.458-.055.182.426-.461-.05.178.431-.457-.075.162.432-.457-.075.158.435-.489-.021.372.313-.413.205.386.257-.413.211.386.261-.419.148.377.23-.418.147.377.235-.414.218.465-.012-.218.384.434-.08-.213.391.446-.061-.259.363.441-.021-.264.357.444-.018-.227.407.4-.241-.005.442.348-.275v.444l.373-.26-.109.439.409-.167-.133.42.415-.162-.092.452.069-.376.205.347-.111-.387.209.345.046-.39-.25.295.4-.075-.365.172.4-.07-.254.3.023-.382.246.32-.157-.372.249.318v-.393l-.213.323.385-.122-.342.215.386-.118-.216.325-.023-.382.282.288-.2-.35.35.2Zm-1.928-3.445,0,.353-.079-.394.155.371-.076-.395.3.2-.278.17.04-.4-.118.384.036-.4-.278.224.282.149-.053-.4.131.381-.05-.4.285.217-.289.151.067-.4-.144.376.063-.4-.292.2.272.168-.029-.4.108.387-.025-.4.268.243-.389-.215.4-.151-.4-.169.4-.155-.379-.249.433.128-.145-.4.382.195-.14-.409.4.177-.206-.385.414.12-.219-.37.418.115-.15-.43.262.368.137-.407.182.391.142-.408.185.391.126-.412.192.384.126-.412.2.384.21-.4-.112.432.389-.171-.19.381.4-.162-.168.4.358-.246-.089.417.335-.262-.083.42.4-.2-.334.295.42.07-.366.216.421.076-.358.248.433-.015-.3.3.424-.04-.3.309.446.044-.44.067.317.285-.425-.016.314.29-.434.012.384.161-.406.059.392.125-.407.066.356.228-.33-.26.074.4-.246-.329.067.407-.3-.295.255.334-.391-.125.3.286-.4-.118.219.362-.185-.378-.109.4-.078-.4-.116.4-.143-.4.083.412-.3-.283.14.386-.3-.279.027.423-.053-.439-.284.315.026-.423-.289.312-.008-.434-.209.378-.1-.412-.179.384-.1-.413-.263.359.175-.406-.4.128.239-.35-.409.119.215-.378-.373.218.129-.4-.351.238.12-.409-.41.173.358-.259-.412-.1.384-.177-.412-.107.372-.234-.2.272-.087-.392.01.4-.089-.392.164.288-.142.115.038-.4.04.4.041-.4.056.4h-.053l-.038-.4-.041.4-.04-.4-.17.354.292-.037-.274-.292.311.253-.273-.294.2.313.1-.045-.319-.243.283.285.011-.025Z"/>
        </g>
        <g id="パス_27875" data-name="パス 27875">
          <path id="パス_28186" data-name="パス 28186" class="cls-2" d="M267.589,91.121l-.4.27.4.244-.4.262.4.25-.387.319.5.036-.194.43.475-.01-.191.435.474-.011-.192.43.471-.018-.189.436.475-.013-.143.484.416-.277.119.456.362-.306.125.457.359-.307.131.45.345-.322.142.453.351-.32.207.459.108-.476.374.268.042-.46.379.265.039-.458.38.254.018-.46.389.25.024-.462.442.209-.234-.426.458-.044-.269-.376.461-.048-.267-.382.463-.019-.248-.389.462-.018-.244-.393.482-.076-.422-.238.369-.274-.425-.184.37-.279-.424-.174.34-.317-.444-.156.337-.333-.445-.162.312-.394-.491.1.06-.469-.453.145.055-.473-.461.139.1-.467-.461.105.1-.465-.465.1.059-.5-.394.3-.139-.451-.352.319-.145-.453-.353.319-.135-.452-.349.319-.141-.454-.354.317-.208-.461-.05.468-.367-.248.034.443L268.8,87.6l.034.444-.367-.247.04.441-.372-.244.036.444-.427-.2.3.363-.438.072.329.3-.439.077.323.315-.449.019.282.343-.446.009.28.347-.463.067.429.18-.36.261.429.123-.324.347Zm3.123,2.614.063-.425-.326.273.079-.417-.33.27L270.25,93l-.275.333-.022-.425-.251.342-.027-.426-.333.3.257-.362-.424.029.31-.29-.426.023.3-.318-.418.109.234-.354-.4.128.227-.362-.445.047.421-.142-.36-.226.421-.053-.359-.232.428-.11-.3.183.1-.391-.17.365.091-.392-.306.184.259.186v-.4l.08.394,0-.4.254.251-.3.115.111-.386-.185.357.108-.388-.314.171.252.2.016-.4.064.4.019-.4.243.265-.3.1.111-.387-.184.358.107-.388-.31.14.42.055-.281-.3.391.132-.276-.308.417.079-.388-.168.4-.089-.4-.113.4-.1-.364-.223.334.258-.059-.408.245.333-.052-.411.281.314-.172-.382.346.223-.2-.36.351.218-.1-.413.077.417.224-.346-.032.411.231-.344.024.424.122-.416.189.378.08-.414.2.377.169-.409-.084.432.362-.215-.16.391.37-.208-.136.41.324-.282-.061.418.3-.295-.056.42.379-.23-.345.274.414.087-.382.18.414.093-.377.2.427.028-.343.248.422.01-.341.253.433.09-.432-.011.289.3-.406-.1.284.308-.43-.039.4.156-.393.141.4.1-.393.145.392.19-.4-.153.172.379-.349-.227.165.384-.371-.207.241.348-.392-.141.256.329-.4-.134.169.4-.165-.4-.181.376-.053-.413-.187.375-.09-.417.16.077-.263.3.3-.264-.261.3.314.008-.191-.329-.038.4-.04-.4-.042.4-.042-.4h.04l.038.4.04-.4.041.4-.064-.37.077-.032-.058.4-.02-.4-.061.4-.156-.359.3.051-.291.275.326-.232-.331.108Z"/>
        </g>
        <g id="パス_27876" data-name="パス 27876">
          <path id="パス_28187" data-name="パス 28187" class="cls-2" d="M237.054,100.367l-.41.189.389.225-.41.19.39.231-.4.248.471.024-.236.383.451-.027-.234.387.46-.01-.3.348.446.053-.3.337.448.058-.272.39.439-.175-.054.446.4-.214-.05.449.4-.211-.078.445.408-.19-.08.445.412-.187-.013.478.213-.415.239.371.134-.422.244.37.151-.424.19.4.2-.394.179.4.2-.394.246.395-.038-.461.392.2-.1-.429.4.2-.078-.444.366.257-.025-.44.356.263-.021-.442.409.222-.261-.382.44-.017-.3-.328.442-.021-.292-.338.433.047-.269-.338.426.06-.265-.343.453-.01-.42-.164.369-.224-.421-.1.368-.228-.424-.13.421-.135-.374-.217.419-.109-.373-.22.417-.18-.451.019.244-.356-.422.088.24-.361-.434.067.29-.326-.431.018.3-.311-.434.012.252-.38-.408.234,0-.449-.362.267-.008-.45-.386.252.1-.449-.419.16.121-.431-.425.154.069-.468-.326.337-.124-.43-.278.354-.129-.432-.292.351-.073-.448-.322.312-.065-.446-.326.31-.138-.456-.092.463-.346-.283-.023.448-.35-.281-.025.449L238,97.349l.027.424-.285-.314.021.425-.354-.268.273.348-.424-.019.318.281-.427-.013.3.317-.414-.131.209.369-.394-.158.2.376-.437-.087.4.2-.391.167.408.116-.391.172.409.129-.4.14.4.132-.4.134.364.022Zm.682.441.23.305-.014-.4.092.392-.011-.4.259.251-.249.137v-.4l-.078.394,0-.4-.249.264.246.126v-.4l.079.395,0-.4.249.263-.247.127,0-.4-.08.394v-.4l-.251.261.249.129,0-.4.082.393v-.4l.262.216-.4.026.306-.266-.377.15.3-.27-.407.023.386.116-.23-.334.327.24-.226-.337.383.147-.4-.059.362-.182-.4.052.361-.187-.4-.078.346.209-.14-.381.258.313-.136-.383.335.238-.376-.16.4-.084-.4-.052.4-.09-.34-.209.371.26-.011-.434.314.3,0-.436.326.291-.029-.434.331.28-.036-.431.337.277.051-.457.1.446.3-.315.012.433.3-.313.025.438.285-.329.038.432.284-.33.041.433.365-.281-.284.359.431.042-.333.279.432.046-.329.291.422-.039-.31.282.417-.054-.306.291.438.03-.434.052.323.269-.419-.03.321.274-.433.018.4.15-.392.153.407.1-.391.159.4.191-.418-.122.192.373-.372-.194.185.38-.391-.174.248.346-.4-.117.26.329-.408-.109.181.4-.15-.4-.189.368-.015-.414-.2.366-.08-.419-.007.424-.245-.332.054.41-.253-.329-.038.426.025-.424-.292.291.114-.4-.3.287.054-.422-.135.4-.134-.391-.072.407-.142-.39-.165.395.154-.395-.366.189.232-.341-.372.183.2-.374-.251.327.057-.4-.2.356.052-.4-.3.282.362-.19-.4-.081.4-.072-.4-.087.384-.159-.369.187.2-.357-.315.259.193-.36-.382.158.406-.054-.347-.214.4.072-.344-.22.416-.016-.411.047.309-.266-.385.134.305-.271-.413.041.273.179-.038-.4.112.386-.035-.4-.105.275.235.111-.212-.341.142.376-.215-.34.123.384.054-.026-.146-.374.215.339-.143-.376.048.344.235-.054-.361-.176.328.232-.362-.174.213.323.054-.359-.286.281.245-.317-.272.292Z"/>
        </g>
      </g>
      <g id="グループ_4562" data-name="グループ 4562">
        <g id="パス_27877" data-name="パス 27877">
          <path id="パス_28188" data-name="パス 28188" class="cls-2" d="M214.96,69.026l-.422.077.364.21-.418.037.362.215-.418.133.426-.089-.217.358.382-.172-.21.365.405-.143-.3.3.416-.048-.316.275.419-.039-.259.354.294-.322.038.418.207-.364.043.419L216,70.66l-.065.422.308-.283-.094.408.316-.278-.031.434-.132-.3.391.093-.364-.17.392.09-.192-.306-.164.293.4-.071-.373.15.4-.068-.205.3-.157-.291.4.069L216.44,71l.4.066-.21-.293-.145.3.39-.1-.363.173.392-.093-.186.307-.175-.281.4.044-.383-.124.4.041-.237-.278.185.4.152-.4.129.4.158-.4.219.388-.135-.422.391.161-.207-.37.4.153-.185-.393.362.234-.113-.407.342.25-.1-.414.406.184-.357-.262.412-.1-.385-.177.412-.108-.381-.208.431-.023-.33-.266.424,0-.328-.272.437-.058-.255.183-.007-.4-.072.4-.01-.4-.249.254.289.12-.084-.393.159.369-.081-.394.3.192-.248.184-.021-.4-.059.4-.024-.4-.241.263.293.11-.1-.39.172.363-.094-.391.307.177-.252.194-.016-.4-.064.4-.019-.4-.252.231.415-.125-.374-.191.415-.058-.373-.2.413-.146-.428.079.232-.348-.388.157.226-.355-.408.13.3-.3-.415.051.315-.276-.419.042.249-.362-.261.348-.088-.41-.159.387-.093-.41-.2.382.009-.427-.268.322.039-.417-.276.318-.059-.435-.022.445-.319-.284.058.422-.324-.281.031.435-.269-.34-.038.425-.246-.348-.044.426-.326-.309.237.378-.424-.047.291.311-.427-.042.277.337-.416-.124.215.367-.4-.142.208.375-.445-.064.412.173-.374.206.417.087-.332.307Z"/>
        </g>
        <g id="パス_27878" data-name="パス 27878">
          <path id="パス_28189" data-name="パス 28189" class="cls-2" d="M221.912,74.874l-.331-.172.144.376-.224-.334.141.378-.334-.173.338-.133-.161.369.24-.323-.158.371.341-.171-.353-.113.2.349-.273-.3.2.351-.357-.12.314-.183-.1.389.188-.356-.1.39.311-.221-.367-.057.252.314-.316-.249.25.316H221.4l.449-.113-.139.423.417-.152-.134.428.4-.163-.043.429.362-.259-.015.447.366-.257.073.471.1-.463.346.282.017-.448.35.28.008-.443.363.249-.035-.445.377.242-.031-.447.445.175-.356-.314.412-.169-.386-.226.412-.174-.386-.218.4-.19-.4-.181.4-.2-.4-.186.375-.288-.451.127.1-.431-.395.2.094-.436-.389.2.038-.432-.355.264.018-.444-.359.262-.083-.467-.043.469-.375-.235.054.441-.378-.232.064.434-.392-.192.113.428-.4-.184.107.433-.441-.144.368.107-.361.181.4-.076-.36.185.394.066-.317-.235.111.388-.213-.343.108.39-.321-.233.389.032-.331.232.382-.133-.329.236.4.007-.349-.185.168.367-.262-.307.165.369-.352-.182.389-.028-.292.279.357-.189-.2.35Z"/>
        </g>
        <g id="パス_27879" data-name="パス 27879">
          <path id="パス_28190" data-name="パス 28190" class="cls-2" d="M205.156,67.341l-.3-.28.161.374-.286-.29.156.377-.363-.2.4.1-.369.172.406-.026-.367.177.409.068-.4-.112.259.314-.355-.2.255.318-.4-.088.409-.017-.306.268.383-.139-.3.273.412-.049-.412,0,.336.229-.4-.092.334.235-.414.016.316-.191-.107.388.194-.353-.1.389.313-.223-.374-.038.274.3-.335-.224.272.3-.378-.042.286-.234-.049.4.14-.378-.045.4.276-.268-.376.021.317.248-.366-.168.315.251-.38.018.243-.276.019.4.073-.4.023.4.189-.351-.072.493.481-.083-.082.485.486-.078.009.538.259-.465.382.3.158-.465.389.3.126-.452.434.169-.017-.489.471.145-.011-.493.525.083-.352-.389.421-.246-.376-.315.421-.252-.373-.263.254-.371-.481-.069.233-.43-.484-.075.2-.477-.311.308-.055-.417-.2.37-.06-.418-.234.361.041-.427-.3.3.069-.415-.305.292-.024-.44-.037.436-.286-.307.055.417-.3-.3.022.43-.217-.369-.069.415-.187-.376-.075.416-.277-.343.227.375-.412-.08.289.305-.417-.071.254.355-.12-.342-.163.368.085-.393-.166.367-.128-.337.332.043-.291.277.341-.213-.289.28.363,0-.167-.3L205,67.2l.06-.4-.142.376-.15-.328.334.021-.272.3.327-.234-.27.3.345-.211-.345.021.347.2-.357-.181.34.011Z"/>
        </g>
        <g id="パス_27880" data-name="パス 27880">
          <path id="パス_28191" data-name="パス 28191" class="cls-2" d="M199.639,83.877l.214-.326-.368.162.326-.235-.369.16.137-.337.2.275-.4-.029.386.112-.4-.026.248.27.082-.338-.353.192.306-.261-.355.19.109-.348.226.258-.4,0,.394.08-.4.007.27.249.055-.344-.337.22.284-.285-.339.217.016-.327.11.455-.434-.127.144.427-.44-.121.153.415-.436-.031.251.376-.454,0,.249.38-.478.079.461.143-.3.339.451.064-.3.344.449.06-.288.347.451.04-.284.356.453.045-.237.424.4-.268.071.446.331-.311.076.448.326-.312.012.415.215-.359.021.417.22-.358.12.42-.083-.426.354.223-.168-.383.361.217-.138-.407.3.308-.04-.416.266.324-.031-.42.347.268-.317-.3.418-.03-.362-.21.419-.035-.351-.247.42.076L201.6,86.2,202,86.3l-.272-.321.432.045-.257.143.011-.4-.089.392.008-.4-.235.3.2.094.049-.4.029.4.052-.4.183.337-.208.058.008-.4-.086.393.005-.4-.235.3.206.1.044-.4.034.4.047-.4.02.4h-.021l-.035-.4-.042.4-.038-.4-.237.248.4-.184-.394-.16.405-.127-.394-.166.4-.206-.436.082.215-.366-.4.147.208-.374-.422.117.3-.314-.425.017.316-.284-.427.011.264-.362-.331.3-.023-.424-.251.342-.028-.426-.241.345-.067-.408-.169.385-.086-.411-.065.364Z"/>
        </g>
        <g id="パス_27881" data-name="パス 27881">
          <path id="パス_28192" data-name="パス 28192" class="cls-2" d="M208.625,89.15l.133-.409-.358.216.174-.382-.365.21.089-.43-.132.415-.209-.364-.035.417-.214-.362-.072.423-.116-.411-.165.385-.083-.411-.171.385-.179-.4.138.412-.38-.174.216.359-.387-.167.189.386-.336-.264.1.407-.309-.283.088.412-.369-.234.362.139-.377.144.4-.031-.376.149.391.1-.318-.24.116.387-.221-.339.112.389-.326-.23.391.039-.335.226.385-.122-.333.23.4.008-.364-.162.2.351-.292-.28.2.354-.369-.151.388-.053-.273.3.346-.21-.27.3.386-.133-.344.345.44.189-.347.334.441.2-.306.425.468-.218.1.466.391-.277.1.469.351-.288.238.383.238-.414.288.384.244-.414.378.358-.131-.5.477,0-.2-.437.48-.01-.215-.4.422-.159-.36-.313.433-.207-.359-.319.435-.246-.351.154.147-.377-.252.317.143-.379-.336.228.389-.1-.379-.142.4.023-.378-.146.382-.121-.28.28.039-.4-.156.373.034-.4-.261.311.345-.206-.4-.032.395-.089-.4-.036.334-.222-.191.346-.075-.4-.046.4-.2-.351Z"/>
        </g>
        <g id="パス_27882" data-name="パス 27882">
          <path id="パス_28193" data-name="パス 28193" class="cls-2" d="M215.835,90.889l-.35-.061.227.332-.29-.278.224.334-.355-.07.232-.255.046.4.039-.4.049.4.217-.3-.352,0,.273.3-.329-.232.271.3-.365-.021.2-.281.093.391-.01-.4.1.391.18-.322-.35.039.306.261-.354-.191.3.263-.333.064.409-.21-.051.44.376-.236-.047.442.367-.242-.011.437.341-.281,0,.444.345-.28.1.463.052-.468.368.247-.038-.443.371.244-.044-.439.378.223-.075-.437.384.219-.068-.441.448.154-.346-.318.42-.141-.373-.243.421-.146-.368-.268.418.056-.3-.278.4.1-.3-.285.427-.006-.42.04.271-.31-.385.147.267-.316-.411.1.372-.2-.409-.046.384-.15-.41-.054.342-.254-.317.28.038-.41-.225.346.031-.413-.272.324.185-.378-.358.2.222-.348-.363.2.154-.4.06.33-.353-.193.305.262-.355-.19.115.349.213-.277-.4.035.385-.117-.4.031.239-.275.1.326-.371-.155.331.229-.372-.153.151.335.183-.3-.395.076.371-.156-.4.073.209-.3.138.313-.385-.116.353.193-.386-.113.2.316-.145-.413-.189.38-.089-.414-.195.379-.181-.407.095.433-.374-.2.171.388-.382-.19.147.408-.338-.268.071.418-.316-.282.066.421-.386-.223.331.294-.419.063.367.212-.421.069.359.243-.431-.018.3.3-.421-.042.3.3-.441.018.3-.147-.083.393.162-.368-.08.394.3-.2-.309-.145.108.387-.185-.357.105.388-.314-.18.288-.174-.059.4.139-.378-.056.4.288-.222-.318-.125.132.38-.207-.345.129.381-.324-.162.269-.192-.019.4.1-.39.05.4Z"/>
        </g>
        <g id="パス_27883" data-name="パス 27883">
          <path id="パス_28194" data-name="パス 28194" class="cls-2" d="M201.109,76.6l.042.41.18-.364-.039.4.186-.363.091.4-.211-.347.385.129-.314-.258.388.124-.258-.325.23.342,0-.407.149.379V76.32l.263.316-.346-.214.4-.059-.4-.088.4-.065-.377-.173.359.2-.187-.361.3.272-.182-.364.379.156-.415-.114.367-.2-.415-.026.365-.2-.421-.064.411-.1-.385-.157.41-.069-.384-.166.4-.171-.4.16.159-.384-.339.242.152-.39-.375.208.285-.317-.409.072.31-.278-.413.064.257-.348-.3.313,0-.416-.22.354-.01-.418-.282.326.3-.252-.4.017.385-.121-.4.013.292-.26-.071.374-.208-.346.113.387-.211-.344-.037.394.23-.315-.388.111.347-.206-.389.107.221-.321.024.38-.287-.284.205.347-.29-.281.062.391.139-.366-.343.212.277-.294-.346.209.1-.369.14.367-.358-.188.285.287-.361-.185.2.357-.089-.394-.148.376.03-.4-.153.375-.121-.381.287.27-.4-.019.38.138-.4-.014.329.24-.243-.322.02.4-.139-.38.015.4-.267-.3.373.131-.378.146.4-.025-.377.15.394.1-.382-.168.2.355-.332-.239.2.36-.393-.148.406.09-.363.188.409-.023-.361.195.416.055-.416-.039.312.264-.393-.113.309.27-.419-.006.412-.055-.276.3.376-.161-.272.307.41-.092-.4.108.384.14-.408.032.384.147-.39.153.36-.215-.12.393.283-.3-.113.4.333-.26-.288.306.4-.085-.323.255.4-.079-.254.339.215-.36.076.4.111-.4.083.4.174-.385-.115.4.317-.261-.169.375.323-.256-.069.418.025-.419.253.323-.085-.4.351.234Z"/>
        </g>
        <g id="パス_27884" data-name="パス 27884">
          <path id="パス_28195" data-name="パス 28195" class="cls-2" d="M223.805,85.066l.329.294,0-.431.3.309V84.8l.372.263-.266-.365h.431l-.311-.3.434-.005-.3-.319.433.056-.259-.345.424.071-.255-.351.457-.023-.445-.082.3-.3-.429.015.3-.31-.429.016.279-.323-.427.054.275-.33-.43.048.229-.39-.183.356-.118-.389-.029.406-.124-.388-.127.395.181-.369-.356.2.264-.309-.36.192.164-.378-.058.4-.2-.351.067.4-.21-.349-.032.413.093-.4-.3.271.188-.361-.308.267.075-.405.033.407-.277-.3.153.377-.282-.294.049.411.134-.349-.36.181.308-.26-.362.178.148-.352.144.338-.371-.155.326.236-.373-.152.181.339.091-.363-.333.226.273-.3-.335.223.1-.366.2.31-.392-.093.36.18-.393-.09.233.3.026-.376-.285.285.211-.343-.288.282.009-.373.259.282-.4-.038.377.144-.4-.034.3.261-.147-.365-.1.39v-.4l-.109.389-.161-.357.334.19-.4.082.4.025-.395.086.364.162-.243-.309.009.4-.114-.387,0,.4-.255-.3.375.093-.359.184.4-.081-.358.188.394.062-.4-.139.218.35-.36-.2.213.356-.412-.116.41.111-.367.188.413.009-.365.2.419.069-.422.02.344.228L221.4,83.7l.341.235-.423.063.418-.069-.256.324.38-.162-.251.33.411-.11-.376.193.407.066-.39.136.408.073-.358.234.337-.251-.08.4.255-.323-.074.406.3-.295-.234.349.381-.155-.269.311.385-.149-.182.383.137-.4.165.376.023-.411.172.375.078-.415.008.42.224-.345-.043.409.231-.342.069.419-.115-.4.351.214-.215-.351.413.093Z"/>
        </g>
      </g>
    </g>
  </g>
</svg>
