<svg id="赤ちゃん" xmlns="http://www.w3.org/2000/svg" width="180.517" height="128.166" viewBox="0 0 180.517 128.166">
  <g id="赤ちゃん-2" data-name="赤ちゃん" transform="translate(-356.074 348.558)">
    <g id="緑">
      <path id="パス_27272" data-name="パス 27272" d="M435.49-339.027a1.467,1.467,0,0,1,.082-.466.927.927,0,0,1-.142.069.946.946,0,0,1-.59-.034,2.4,2.4,0,0,1-1.022-.41,11.591,11.591,0,0,0-2.806-1.469c-.765-.43-1.611-.724-2.356-1.181a5.294,5.294,0,0,0-2.759-.8,2.562,2.562,0,0,1-1.452-.41,3.923,3.923,0,0,0-1.689-.582,10.111,10.111,0,0,1-3.226-.8,3.862,3.862,0,0,0-1.5-.25c-1.063-.081-2.116-.223-3.168-.4a12.7,12.7,0,0,0-2.776-.1c-1.845.1-3.686.257-5.524.423a8.407,8.407,0,0,0-1.5.3,2.43,2.43,0,0,1-1.08.2,1.033,1.033,0,0,0-.768.25,1.524,1.524,0,0,1-.626.291c-1.672.156-3.114,1.114-4.766,1.337a2.943,2.943,0,0,0-.782.284c-1.608.718-3.162,1.544-4.688,2.413a14.809,14.809,0,0,0-1.168.965c-1.395.982-2.542,2.268-3.991,3.189a5.235,5.235,0,0,0-1.144,1.2,7.044,7.044,0,0,1-1.208,1.337,2.105,2.105,0,0,0-.491.663,5.368,5.368,0,0,1-.87,1.252,1.787,1.787,0,0,0-.471.839,2.893,2.893,0,0,1-.88,1.391,1.923,1.923,0,0,0-.684,1.171,1.3,1.3,0,0,1-.21.508c-.755,1.12-1.07,2.457-1.784,3.6a1.855,1.855,0,0,0-.139.528c-.064.271-.047.613-.21.8-.6.68-.531,1.543-.748,2.332a39.536,39.536,0,0,1-1,4.461,3.655,3.655,0,0,0-.092.961,29.988,29.988,0,0,0-.345,5.115,2.8,2.8,0,0,1-.66,1.929.851.851,0,0,1-1.174.265.85.85,0,0,1-.244-.234c-.176-.21-.288-.471-.454-.694a1.331,1.331,0,0,0-1.591-.528c-.488.149-1,.25-1.263.775a.733.733,0,0,1-.284.3,2.679,2.679,0,0,0-1.222,2.2c-.037.274-.108.545-.156.819a3.917,3.917,0,0,0,1.9,4.109,10.837,10.837,0,0,1,1.219,1.127c.339.311.8.244.873-.183.125-.7.6-1.242.768-1.919a3.529,3.529,0,0,1,.88-1.4.7.7,0,0,1,.987-.079l.013.011a1.413,1.413,0,0,1,.653,1.672c-.433,1.361-.843,2.728-1.252,4.1a6.282,6.282,0,0,0-.339,2.742,4.905,4.905,0,0,1,0,1.52,5.324,5.324,0,0,0,.342,3,6.119,6.119,0,0,1,.474,1.736,6.93,6.93,0,0,0,1,2.576,15.958,15.958,0,0,0,2.86,3.9c.866.833,1.774,1.608,2.664,2.413a15.191,15.191,0,0,0,1.686,1.631c.613.4,1.273.745,1.875,1.181a12.9,12.9,0,0,0,1.175.741c.921.531,1.848,1.049,2.769,1.581a3.875,3.875,0,0,0,1.652.66,2.146,2.146,0,0,1,1.046.345,11.406,11.406,0,0,0,2.813,1.178,5.955,5.955,0,0,1,.89.389A22.752,22.752,0,0,0,402.1-270.2a53.06,53.06,0,0,0,6.516,1.388,5.641,5.641,0,0,0,1.1.115,3.817,3.817,0,0,1,1.232.176,4.189,4.189,0,0,0,2.562.3,1.25,1.25,0,0,1,.816.1,8.209,8.209,0,0,0,2.024.447,1.951,1.951,0,0,0,1.1.01.871.871,0,0,1,.406-.074c1.72.281,3.388-.389,5.1-.247a7.672,7.672,0,0,0,2.732-.43c1.29-.372,2.627-.552,3.9-.971a10.762,10.762,0,0,0,4.285-2.176c.552-.528,1.385-.663,1.821-1.212a17.135,17.135,0,0,1,1.215-1.669,13.054,13.054,0,0,0,2.589-3.93A23.344,23.344,0,0,0,440.6-282.1a15.556,15.556,0,0,1,1.107-2.982,2.452,2.452,0,0,1,.2-.366.7.7,0,0,1,.883-.162,1.618,1.618,0,0,1,.883,1.611,18.149,18.149,0,0,1-.328,2.048,3.554,3.554,0,0,0-.071.823c.007.3.19.406.454.369q.554-.077,1.093-.2c.768-.179,1.523-.4,2.295-.552a1.85,1.85,0,0,0,1.317-.911c.345-.552.657-1.107.958-1.682a3.377,3.377,0,0,0-.041-3.429c-.159-.281-.24-.6-.376-.9a1.186,1.186,0,0,0-1.532-.679l-.062.026a6.748,6.748,0,0,0-.6.349c-.66.332-1.005.19-1.31-.467a1.77,1.77,0,0,1-.044-1.587,3.977,3.977,0,0,1,1.022-1.777.868.868,0,0,0,.22-.345,33.377,33.377,0,0,0,1.94-4.9,2.1,2.1,0,0,1,.217-.657c.647-.938.616-2.122,1.151-3.1a1.326,1.326,0,0,0,.108-.4c.4-2.224.711-4.465.955-6.712a1.444,1.444,0,0,0-.017-.552,11.274,11.274,0,0,1-.1-3.182,3.92,3.92,0,0,0,.051-.552c-.193-1.371-.312-2.759-.636-4.1-.335-1.4-.765-2.769-.968-4.2-.02-.135-.007-.335-.091-.4-.623-.467-.545-1.242-.836-1.852s-.656-1.225-.917-1.868a23.358,23.358,0,0,0-2.132-3.564,16.258,16.258,0,0,0-1.374-1.733,6,6,0,0,1-1.005-1.327,1,1,0,0,0-.359-.41,7.406,7.406,0,0,1-2-2.061,2.609,2.609,0,0,0-.708-.653,15.184,15.184,0,0,1-1.757-1.577,1.762,1.762,0,0,1-.328-.438C436.591-337.872,435.49-338.645,435.49-339.027Z" fill="#f2f0e0"/>
      <path id="パス_27273" data-name="パス 27273" d="M455.788-235.138c.2-.7.86-1.179,1.147-1.88h0a.937.937,0,0,0-.091-1.022A5.852,5.852,0,0,1,455.556-240a.452.452,0,0,0-.311-.24c-.769-.142-1.11-.8-1.564-1.3-.22-.244-.376-.525-.707-.619a2.469,2.469,0,0,1-1-.718c-.487-.477-1.036-.9-1.557-1.34-.873-.057-1.469-.731-2.265-1.009a9.928,9.928,0,0,1-2.545-1.408,2.064,2.064,0,0,0-1.794-.467,1.223,1.223,0,0,1-1.337-.528,3.582,3.582,0,0,1-.4-.562,34.788,34.788,0,0,1-2.254-5.372,10.657,10.657,0,0,0-.355-1.337,31.761,31.761,0,0,1-1.147-2.975,16.8,16.8,0,0,0-.941-2.461c-.521-1.029-1.164-2-1.746-2.992-.21-.359-.406-.724-.592-1.1-.474-.955-.931-1.916-1.4-2.867-.257-.521-.447-.6-1-.4a11.09,11.09,0,0,1-1.8.718c-1.818.332-3.551.985-5.365,1.317a11.537,11.537,0,0,1-2.884.345,11.626,11.626,0,0,0-2.474.054c-2.139.311-4.221-.159-6.33-.267a1.381,1.381,0,0,1-.515-.193,2.051,2.051,0,0,0-.8-.159,18.3,18.3,0,0,1-5.307-.823,1.074,1.074,0,0,0-.542-.088,9.4,9.4,0,0,1-2.349-.173,8.938,8.938,0,0,1-2.573-.552c-1.676-.66-3.317-1.4-5.04-1.933a1.833,1.833,0,0,1-.687-.45,1.717,1.717,0,0,0-1.256-.508,3.827,3.827,0,0,1-1.7-.542,25.818,25.818,0,0,0-3.05-1.323c-.552-.189-1.165-.613-1.706-.4-.406.163-.64.755-.948,1.158a3.293,3.293,0,0,0-.724,1.171,1.939,1.939,0,0,1-.589.931,5.489,5.489,0,0,0-1.6,3.175,4,4,0,0,1-.853,1.879,2.085,2.085,0,0,0-.43.86c-.335,1.344-.9,2.61-1.256,3.947a5.162,5.162,0,0,1-.741,1.94c-.484.626-.088,1.374-.362,2.017-.017.041-.037.081-.057.125a3.366,3.366,0,0,0-.034,1.374c0,.535-.528.877-.5,1.422.014.277.007.555.02.833a5,5,0,0,1-.2,1.787,3.343,3.343,0,0,0-.176.955,23.627,23.627,0,0,1-.535,3.148,1.771,1.771,0,0,1-1.564,1.7,4.484,4.484,0,0,0-.9.359,4.331,4.331,0,0,1-.772.284,5.058,5.058,0,0,0-3.1,1.327,2.552,2.552,0,0,1-.724.4,7.473,7.473,0,0,0-.856.457c-1.127.806-2.237,1.638-3.361,2.447a3.749,3.749,0,0,1-1.7.9c-.372.051-.457.267-.325.6a6.788,6.788,0,0,0,.68,1.51,6.149,6.149,0,0,1,.823,1.75,3.79,3.79,0,0,0,1.005,1.784,2.4,2.4,0,0,1,.508.819,35.08,35.08,0,0,0,1.811,4.316,1.484,1.484,0,0,1,.108.538.842.842,0,0,0,.846.768c1.059.1,2.122.193,3.182.3a36.651,36.651,0,0,1,3.852.457,46.9,46.9,0,0,0,6.35.538,20.835,20.835,0,0,0,3.737.115,1.324,1.324,0,0,1,.552.058,2.383,2.383,0,0,0,1.367.017,1.98,1.98,0,0,1,.823-.088,13.036,13.036,0,0,0,3.314-.054,4.627,4.627,0,0,1,1.8.1,1.6,1.6,0,0,0,1.32-.254.279.279,0,0,0,.153-.364.285.285,0,0,0-.078-.107c-.63-.542-1.029-1.283-1.73-1.78a7.725,7.725,0,0,1-1.537-1.391,11.142,11.142,0,0,0-1.412-1.493,23.782,23.782,0,0,1-2.386-2.5,1.328,1.328,0,0,1-.389-.565,5.584,5.584,0,0,0-1.215-2.153,10.649,10.649,0,0,0-1.262-1.987,1.4,1.4,0,0,1-.264-.775c-.1-.734-.176-1.472-.257-2.207a1.312,1.312,0,0,1,.362-1.015.614.614,0,0,1,.856-.147l.011.008c.474.366.934.755,1.391,1.144a1.031,1.031,0,0,1,.372.728,2.762,2.762,0,0,0,.535,1.259,5.409,5.409,0,0,1,1.107,2.061c.027.2.267.362.413.542a12.729,12.729,0,0,1,1.11,1.415,5,5,0,0,0,.843,1.076c.691.68,1.307,1.442,2,2.122.748.731,1.364,1.577,2.1,2.325.674.68,1.6,1.07,2.1,1.94a.5.5,0,0,0,.626.162,2.838,2.838,0,0,0,1-.464,16.066,16.066,0,0,1,2.376-1.686c.349-.247.707-.525.731-.968a15.487,15.487,0,0,0,.19-2.481,11.1,11.1,0,0,1,.03-3.6,6.422,6.422,0,0,0,.1-2.065,2.375,2.375,0,0,1,1.52-2.373.506.506,0,0,1,.606.217.874.874,0,0,1,.2.359c.146,1.191.376,2.366.606,3.541a.768.768,0,0,1-.034.274,13.426,13.426,0,0,0-.183,3.591,10.216,10.216,0,0,1-.152,2.349,10.952,10.952,0,0,0-.064,3.293.471.471,0,0,0,.3.426,7.217,7.217,0,0,0,1.354.3,1.012,1.012,0,0,0,.924-.515,3.742,3.742,0,0,0,.565-2.116c.02-1.019-.057-2.034-.057-3.053a21.615,21.615,0,0,1,.271-4.282,1.788,1.788,0,0,0,.01-.823c-.339-1.117.2-2.1.464-3.111a1.011,1.011,0,0,1,1.288-.62,1.077,1.077,0,0,1,.2.1,1.477,1.477,0,0,1,.762,1.242c.064.369-.146.728,0,1.1a5.28,5.28,0,0,1,.041,3.145,1.606,1.606,0,0,0-.088.812,4.434,4.434,0,0,1,.051,1.648,15.076,15.076,0,0,0,.237,2.623.954.954,0,0,0,.816.958,6.3,6.3,0,0,1,1.94.748,1.166,1.166,0,0,0,.508.206,5.331,5.331,0,0,1,1.987.565,1.922,1.922,0,0,0,2.048-.447,10.372,10.372,0,0,0,1.865-2.217,25.833,25.833,0,0,1,2.234-2.972,5.973,5.973,0,0,0,.518-.806,10.376,10.376,0,0,1,1.544-2.454,3.4,3.4,0,0,0,1.263-1.943,1.261,1.261,0,0,1,.365-.579,4.718,4.718,0,0,0,1-1.655,2.11,2.11,0,0,1,1.537-1.283,1.145,1.145,0,0,1,1.378.339,1.436,1.436,0,0,1,0,1.567,23.682,23.682,0,0,1-2.024,2.942,1.828,1.828,0,0,0-.366.589c-.342.762-.779,1.469-1.188,2.193a16.172,16.172,0,0,1-3.209,4.248,2.75,2.75,0,0,0-.619.914,6.859,6.859,0,0,1-1.828,2.42c-.3.281-.592.586-.87.9-.115.132-.267.322-.112.484a.861.861,0,0,0,.488.217,1.191,1.191,0,0,0,.545-.068,17.514,17.514,0,0,1,3.29-.525c1.181-.189,2.369-.335,3.561-.447,1.239-.115,2.484-.166,3.727-.24a1.045,1.045,0,0,1,.413.017,3.083,3.083,0,0,0,2.525.034.366.366,0,0,1,.274.007,13.586,13.586,0,0,0,2.616.227,11.246,11.246,0,0,0,1.926.24,21.067,21.067,0,0,1,3.439.44,1.745,1.745,0,0,0,.545.091,10.036,10.036,0,0,1,3.558.433,2.27,2.27,0,0,0,.267.068c.877.1,1.09-.017,1.486-.839a7.433,7.433,0,0,0,.359-.9c.433-1.317.843-2.64,1.286-3.954a14.12,14.12,0,0,0,.975-2.728.574.574,0,0,1,.122-.247A6.109,6.109,0,0,0,455.788-235.138Z" fill="#deebdc"/>
      <path id="パス_27274" data-name="パス 27274" d="M416.211-225.452c-.379-.169-.768-.311-1.161-.447-.376-.129-.572-.03-.812.3a2.592,2.592,0,0,0-.349,1.039.4.4,0,0,0,.253.506.4.4,0,0,0,.194.015,6.128,6.128,0,0,0,2.065-.735h0c.057-.024.071-.156.1-.24A.473.473,0,0,0,416.211-225.452Z" fill="#deebdc"/>
      <path id="パス_27275" data-name="パス 27275" d="M367.473-227.757c-.02-.088-.1-.159-.122-.247-.416-1.334-1.222-2.491-1.726-3.788a6.033,6.033,0,0,0-1.005-1.943,3.294,3.294,0,0,1-.7-1.493,7.107,7.107,0,0,0-1.063-2.082,1.273,1.273,0,0,0-.6-.562c-.911-.335-1.835-.646-2.772-.894a.619.619,0,0,0-.734.477.625.625,0,0,0,.054.41c.156.335.487.626.413,1.009a1.987,1.987,0,0,0,.315,1.445,2.015,2.015,0,0,1,.21.934,1.641,1.641,0,0,0,.6,1.472,1.163,1.163,0,0,1,.447.985,3.314,3.314,0,0,0,.653,1.794,22.622,22.622,0,0,1,1.879,3.838,1.2,1.2,0,0,0,.4.555,3.232,3.232,0,0,0,2.038.677,5.534,5.534,0,0,0,2.116-.711h0C367.741-226.508,367.612-227.134,367.473-227.757Z" fill="#deebdc"/>
      <path id="パス_27276" data-name="パス 27276" d="M405.5-225.618a3.217,3.217,0,0,0-1.5,1.185.42.42,0,0,0,.058.591l.023.018a3.255,3.255,0,0,0,.548.423c.327.184,1.011-.091,1.027-.422h0a3.467,3.467,0,0,1,.2-1.55C405.757-225.6,405.632-225.674,405.5-225.618Z" fill="#deebdc"/>
      <path id="パス_27277" data-name="パス 27277" d="M464.951-236.892a.636.636,0,0,0-.4,0,3.071,3.071,0,0,0-.355.207,5.54,5.54,0,0,1-3.737.41c-.217-.041-.386-.01-.474.159a23.563,23.563,0,0,0-1.5,2.66,4.381,4.381,0,0,1-.937,1.845c-.613.579-.291,1.439-.7,2.065a1.436,1.436,0,0,1-.132.244c-.819.816-.559,2.143-1.395,2.952a.313.313,0,0,0-.061.261,2.666,2.666,0,0,1-.267,1.618c-.135.4,0,.535.477.609a25.086,25.086,0,0,0,4,.075.376.376,0,0,0,.44-.237c.135-.244.237-.5.366-.751a10.476,10.476,0,0,1,.981-1.821,2.632,2.632,0,0,0,.616-1.5,2.055,2.055,0,0,1,.112-.677c.447-.921.694-1.923,1.107-2.84.731-1.61,1.236-3.292,1.93-4.914h0C465.077-236.662,465.094-236.827,464.951-236.892Z" fill="#deebdc"/>
      <path id="パス_27273-2" data-name="パス 27273" d="M464.954-236.892c.142.068.125.23.068.366-.694,1.618-1.2,3.3-1.922,4.915-.412.917-.66,1.919-1.107,2.84a2.054,2.054,0,0,0-.112.677,2.632,2.632,0,0,1-.616,1.5,10.474,10.474,0,0,0-.981,1.821c-.129.25-.23.508-.366.751a.373.373,0,0,1-.439.237,25.081,25.081,0,0,1-4-.074c-.481-.074-.614-.21-.478-.609a2.666,2.666,0,0,0,.267-1.618.313.313,0,0,1,.061-.261c.837-.809.575-2.136,1.395-2.952a1.437,1.437,0,0,0,.132-.244c.41-.626.088-1.486.7-2.065a4.377,4.377,0,0,0,.938-1.845,23.665,23.665,0,0,1,1.5-2.661c.088-.169.257-.2.474-.159a5.54,5.54,0,0,0,3.737-.41,2.93,2.93,0,0,1,.355-.206A.632.632,0,0,1,464.954-236.892Z" fill="#deebdc"/>
      <path id="パス_27274-2" data-name="パス 27274" d="M456.846-238.04a.939.939,0,0,1,.09,1.022c-.288.7-.951,1.178-1.144,1.892a6.068,6.068,0,0,1-.843,2.038.6.6,0,0,0-.122.247,14.031,14.031,0,0,1-.975,2.728c-.443,1.313-.853,2.637-1.286,3.953a7.122,7.122,0,0,1-.359.9c-.4.823-.609.934-1.486.839a2.207,2.207,0,0,1-.266-.068,10.056,10.056,0,0,0-3.557-.433,1.747,1.747,0,0,1-.546-.091,21.055,21.055,0,0,0-3.438-.44,11.257,11.257,0,0,1-1.927-.24,13.568,13.568,0,0,1-2.615-.227.373.373,0,0,0-.275-.007,3.083,3.083,0,0,1-2.525-.034,1.044,1.044,0,0,0-.413-.017c-1.241.074-2.488.125-3.727.24-1.192.112-2.38.257-3.561.447a17.54,17.54,0,0,0-3.29.525,1.189,1.189,0,0,1-.545.068.864.864,0,0,1-.487-.217c-.156-.162,0-.352.112-.484.278-.311.565-.616.87-.9a6.848,6.848,0,0,0,1.828-2.42,2.765,2.765,0,0,1,.619-.914,16.151,16.151,0,0,0,3.209-4.248c.41-.724.846-1.432,1.188-2.193a1.856,1.856,0,0,1,.366-.589,23.566,23.566,0,0,0,2.024-2.941,1.436,1.436,0,0,0,0-1.567,1.146,1.146,0,0,0-1.378-.339,2.113,2.113,0,0,0-1.537,1.283,4.7,4.7,0,0,1-1,1.655,1.271,1.271,0,0,0-.366.579,3.4,3.4,0,0,1-1.263,1.943,10.373,10.373,0,0,0-1.543,2.454,5.974,5.974,0,0,1-.518.806,26.066,26.066,0,0,0-2.234,2.972,10.343,10.343,0,0,1-1.865,2.217,1.922,1.922,0,0,1-2.048.447,5.331,5.331,0,0,0-1.987-.565,1.18,1.18,0,0,1-.508-.207,6.28,6.28,0,0,0-1.939-.748.955.955,0,0,1-.816-.958,15.166,15.166,0,0,1-.237-2.623,4.436,4.436,0,0,0-.051-1.648,1.618,1.618,0,0,1,.088-.812,5.269,5.269,0,0,0-.041-3.144c-.149-.372.061-.731,0-1.1a1.475,1.475,0,0,0-.762-1.242,1.009,1.009,0,0,0-1.393.315,1.058,1.058,0,0,0-.1.206c-.264,1.012-.8,1.994-.464,3.111a1.774,1.774,0,0,1-.01.823,21.622,21.622,0,0,0-.271,4.282c0,1.019.078,2.034.057,3.053a3.739,3.739,0,0,1-.565,2.115,1.009,1.009,0,0,1-.924.514,7.216,7.216,0,0,1-1.354-.3.473.473,0,0,1-.3-.426,10.958,10.958,0,0,1,.064-3.294,10.1,10.1,0,0,0,.152-2.349,13.47,13.47,0,0,1,.183-3.591.745.745,0,0,0,.034-.274c-.23-1.174-.46-2.349-.606-3.541a.862.862,0,0,0-.2-.359.508.508,0,0,0-.606-.217,2.377,2.377,0,0,0-1.52,2.373,6.4,6.4,0,0,1-.1,2.065,11.123,11.123,0,0,0-.031,3.6,15.374,15.374,0,0,1-.189,2.481,1.368,1.368,0,0,1-.73.968,16.09,16.09,0,0,0-2.376,1.686,2.838,2.838,0,0,1-1,.464.5.5,0,0,1-.626-.162c-.491-.87-1.422-1.259-2.1-1.94-.738-.748-1.354-1.594-2.1-2.325-.694-.68-1.31-1.442-2-2.122a4.965,4.965,0,0,1-.843-1.076,12.726,12.726,0,0,0-1.11-1.415c-.146-.179-.386-.345-.413-.542a5.436,5.436,0,0,0-1.107-2.061,2.762,2.762,0,0,1-.535-1.259,1.035,1.035,0,0,0-.372-.728c-.457-.389-.917-.779-1.391-1.144a.615.615,0,0,0-.859.129l-.007.01a1.309,1.309,0,0,0-.362,1.016c.081.735.152,1.472.257,2.207a1.387,1.387,0,0,0,.264.775,10.707,10.707,0,0,1,1.263,1.987,5.61,5.61,0,0,1,1.215,2.153,1.305,1.305,0,0,0,.389.565,23.682,23.682,0,0,0,2.386,2.5,11.2,11.2,0,0,1,1.411,1.493,7.67,7.67,0,0,0,1.537,1.391c.7.5,1.1,1.239,1.73,1.78a.279.279,0,0,1,.032.393.264.264,0,0,1-.106.078,1.6,1.6,0,0,1-1.32.254,4.627,4.627,0,0,0-1.8-.1,13.037,13.037,0,0,1-3.314.054,1.978,1.978,0,0,0-.823.088,2.383,2.383,0,0,1-1.367-.017,1.341,1.341,0,0,0-.552-.058,20.829,20.829,0,0,1-3.737-.115,46.881,46.881,0,0,1-6.35-.538,36.652,36.652,0,0,0-3.852-.457c-1.059-.112-2.122-.2-3.182-.3a.84.84,0,0,1-.846-.768,1.53,1.53,0,0,0-.108-.538A35.019,35.019,0,0,1,369-231.6a2.434,2.434,0,0,0-.508-.819,3.782,3.782,0,0,1-1-1.784,6.2,6.2,0,0,0-.823-1.75,6.725,6.725,0,0,1-.68-1.51c-.132-.332-.047-.548.325-.6a3.749,3.749,0,0,0,1.7-.9c1.124-.809,2.234-1.642,3.361-2.447a7.471,7.471,0,0,1,.856-.457,2.566,2.566,0,0,0,.724-.4,5.058,5.058,0,0,1,3.1-1.327,4.359,4.359,0,0,0,.772-.284,4.482,4.482,0,0,1,.9-.359,1.772,1.772,0,0,0,1.564-1.7,23.6,23.6,0,0,0,.535-3.148,3.31,3.31,0,0,1,.176-.955,5,5,0,0,0,.2-1.787c-.014-.278-.007-.555-.02-.833-.024-.545.508-.887.5-1.422a3.349,3.349,0,0,1,.034-1.374c.02-.044.041-.085.057-.125.274-.643-.122-1.391.362-2.017a5.2,5.2,0,0,0,.741-1.94c.352-1.337.921-2.6,1.256-3.947a2.073,2.073,0,0,1,.43-.86,4.017,4.017,0,0,0,.853-1.879,5.489,5.489,0,0,1,1.6-3.175,1.946,1.946,0,0,0,.589-.931,3.293,3.293,0,0,1,.724-1.171c.308-.4.542-1,.948-1.158.542-.213,1.154.21,1.706.4a25.813,25.813,0,0,1,3.05,1.323,3.823,3.823,0,0,0,1.7.542,1.72,1.72,0,0,1,1.256.508,1.833,1.833,0,0,0,.687.45c1.723.535,3.365,1.273,5.04,1.933a8.937,8.937,0,0,0,2.573.552,9.4,9.4,0,0,0,2.349.173,1.073,1.073,0,0,1,.542.088,18.332,18.332,0,0,0,5.307.822,2.051,2.051,0,0,1,.8.159,1.381,1.381,0,0,0,.515.193c2.109.108,4.19.579,6.33.267a11.626,11.626,0,0,1,2.474-.054,11.538,11.538,0,0,0,2.884-.345c1.814-.332,3.547-.985,5.365-1.317a11,11,0,0,0,1.8-.718c.555-.207.745-.125,1,.4.474.951.931,1.913,1.4,2.867.186.372.382.738.592,1.1.582,1,1.225,1.963,1.746,2.992a16.8,16.8,0,0,1,.941,2.461c.325,1.016.724,2,1.147,2.975a10.831,10.831,0,0,1,.355,1.337,34.789,34.789,0,0,0,2.254,5.372,3.579,3.579,0,0,0,.4.562,1.223,1.223,0,0,0,1.337.528,2.069,2.069,0,0,1,1.794.467,9.928,9.928,0,0,0,2.545,1.408c.8.278,1.391.951,2.265,1.009.521.443,1.07.863,1.557,1.34a2.451,2.451,0,0,0,1,.717c.332.1.487.376.707.619.454.5.8,1.158,1.564,1.3a.453.453,0,0,1,.312.24A5.835,5.835,0,0,0,456.846-238.04Z" fill="#f2f0e0"/>
      <path id="パス_27278" data-name="パス 27278" d="M416.507-225.015c-.034.085-.047.217-.1.24a6.111,6.111,0,0,1-2.058.734.4.4,0,0,1-.461-.326.4.4,0,0,1,.014-.195,2.592,2.592,0,0,1,.349-1.039c.24-.328.437-.426.812-.3.393.135.782.278,1.161.447A.471.471,0,0,1,416.507-225.015Z" fill="#deebdc"/>
      <path id="パス_27281" data-name="パス 27281" d="M405.85-225.374a3.481,3.481,0,0,0-.2,1.55c-.016.332-.7.606-1.029.423a3.3,3.3,0,0,1-.548-.423.42.42,0,0,1-.1-.586l.017-.023a3.217,3.217,0,0,1,1.5-1.185C405.63-225.675,405.756-225.6,405.85-225.374Z" fill="#deebdc"/>
      <path id="パス_27284" data-name="パス 27284" d="M367.48-227.756c.139.623.267,1.249.4,1.875a5.537,5.537,0,0,1-2.112.714,3.232,3.232,0,0,1-2.038-.677,1.2,1.2,0,0,1-.4-.555,22.546,22.546,0,0,0-1.879-3.838,3.314,3.314,0,0,1-.653-1.794,1.163,1.163,0,0,0-.447-.985,1.641,1.641,0,0,1-.6-1.472,2.015,2.015,0,0,0-.21-.934,1.986,1.986,0,0,1-.315-1.445c.074-.382-.257-.674-.413-1.009a.62.62,0,0,1,.27-.833.625.625,0,0,1,.41-.054c.938.247,1.862.559,2.772.894a1.273,1.273,0,0,1,.6.562,7.107,7.107,0,0,1,1.063,2.082,3.294,3.294,0,0,0,.7,1.493,6.033,6.033,0,0,1,1.005,1.943c.5,1.3,1.31,2.454,1.726,3.788C367.38-227.916,367.456-227.845,367.48-227.756Z" fill="#fff"/>
      <path id="パス_27278-2" data-name="パス 27278" d="M416.211-225.452c-.379-.169-.768-.311-1.161-.447-.376-.129-.572-.03-.812.3a2.592,2.592,0,0,0-.349,1.039.4.4,0,0,0,.253.506.4.4,0,0,0,.194.015,6.128,6.128,0,0,0,2.065-.735h0c.057-.024.071-.156.1-.24A.473.473,0,0,0,416.211-225.452Z" fill="#f2f0e0"/>
      <path id="パス_27279" data-name="パス 27279" d="M367.473-227.757c-.02-.088-.1-.159-.122-.247-.416-1.334-1.222-2.491-1.726-3.788a6.033,6.033,0,0,0-1.005-1.943,3.294,3.294,0,0,1-.7-1.493,7.107,7.107,0,0,0-1.063-2.082,1.273,1.273,0,0,0-.6-.562c-.911-.335-1.835-.646-2.772-.894a.619.619,0,0,0-.734.477.625.625,0,0,0,.054.41c.156.335.487.626.413,1.009a1.987,1.987,0,0,0,.315,1.445,2.015,2.015,0,0,1,.21.934,1.641,1.641,0,0,0,.6,1.472,1.163,1.163,0,0,1,.447.985,3.314,3.314,0,0,0,.653,1.794,22.622,22.622,0,0,1,1.879,3.838,1.2,1.2,0,0,0,.4.555,3.232,3.232,0,0,0,2.038.677,5.534,5.534,0,0,0,2.116-.711h0C367.741-226.508,367.612-227.134,367.473-227.757Z" fill="#f2f0e0"/>
      <path id="パス_27280" data-name="パス 27280" d="M405.5-225.618a3.217,3.217,0,0,0-1.5,1.185.42.42,0,0,0,.058.591l.023.018a3.255,3.255,0,0,0,.548.423c.327.184,1.011-.091,1.027-.422h0a3.467,3.467,0,0,1,.2-1.55C405.757-225.6,405.632-225.674,405.5-225.618Z" fill="#f2f0e0"/>
      <path id="パス_27281-2" data-name="パス 27281" d="M464.951-236.892a.636.636,0,0,0-.4,0,3.071,3.071,0,0,0-.355.207,5.54,5.54,0,0,1-3.737.41c-.217-.041-.386-.01-.474.159a23.563,23.563,0,0,0-1.5,2.66,4.381,4.381,0,0,1-.937,1.845c-.613.579-.291,1.439-.7,2.065a1.436,1.436,0,0,1-.132.244c-.819.816-.559,2.143-1.395,2.952a.313.313,0,0,0-.061.261,2.666,2.666,0,0,1-.267,1.618c-.135.4,0,.535.477.609a25.086,25.086,0,0,0,4,.075.376.376,0,0,0,.44-.237c.135-.244.237-.5.366-.751a10.476,10.476,0,0,1,.981-1.821,2.632,2.632,0,0,0,.616-1.5,2.055,2.055,0,0,1,.112-.677c.447-.921.694-1.923,1.107-2.84.731-1.61,1.236-3.292,1.93-4.914h0C465.077-236.662,465.094-236.827,464.951-236.892Z" fill="#f2f0e0"/>
    </g>
    <g id="グループ_4434" data-name="グループ 4434">
      <path id="パス_27275-2" data-name="パス 27275" d="M432.554-329.053a.85.85,0,0,1,.166,1.029,9.892,9.892,0,0,1-.917,1.709,3.678,3.678,0,0,0-.751,2.055,3.688,3.688,0,0,1-.2,1.086,10.965,10.965,0,0,0-.609,3.216,5.84,5.84,0,0,1-.891,2.891.879.879,0,0,1-1.036.511.992.992,0,0,1-.87-.944c-.068-.6-.084-1.2-.135-1.956a2.944,2.944,0,0,1,.1-.66c.5-1.452.443-3.019,1-4.458.277-.728.5-1.472.751-2.207a4.681,4.681,0,0,0,.267-.782c.19-1.151,1.083-1.547,2.014-1.879A1.086,1.086,0,0,1,432.554-329.053Z" fill="#26333b"/>
    </g>
    <g id="グループ_4435" data-name="グループ 4435" transform="translate(0 -5)">
      <path id="パス_27276-2" data-name="パス 27276" d="M426.387-338.151a.837.837,0,0,1,.315,1.142.826.826,0,0,1-.227.258,6.671,6.671,0,0,1-.586.366,5.194,5.194,0,0,0-2.586,3.436,4.135,4.135,0,0,1-.349.9,17.776,17.776,0,0,0-1.374,4.634,3.2,3.2,0,0,1-.129.68,7.919,7.919,0,0,0-.474,3.646.645.645,0,0,1,0,.139,8.178,8.178,0,0,0,.213,4.079,1.116,1.116,0,0,1-.328,1.141c-.461.5-.779.545-1.313.146a2.289,2.289,0,0,1-1.066-1.848,2.44,2.44,0,0,0-.176-.948,4.079,4.079,0,0,1-.271-1.967,3.905,3.905,0,0,1,.281-1.838,9.994,9.994,0,0,1,.318-2.728,10.714,10.714,0,0,1,.447-2.163,15.181,15.181,0,0,0,.633-2.21,16.484,16.484,0,0,1,3.916-6.458A1.973,1.973,0,0,1,426.387-338.151Z" fill="#26333b"/>
    </g>
    <g id="グループ_4436" data-name="グループ 4436">
      <path id="パス_27277-2" data-name="パス 27277" d="M424.674-309.1c1.818.518,3.165,1.787,3.077,3.733a6.906,6.906,0,0,1-1.049,3.382c-.081.162-.291.294-.3.453-.088,1.134-.954,1.862-1.415,2.8a1,1,0,0,1-.854.619,4.233,4.233,0,0,0-1.333.328,2.618,2.618,0,0,1-1.506.014c-.166-.034-.406-.152-.447-.284-.261-.863-1.186-1.459-.975-2.515.047-.247-.166-.535-.169-.8-.01-.718-.274-1.472.325-2.109a1.164,1.164,0,0,0,.267-.63,4.038,4.038,0,0,1,1.175-2.3,3.172,3.172,0,0,0,.846-1.567.6.6,0,0,1,.409-.518,7.838,7.838,0,0,0,1.544-.589A.667.667,0,0,1,424.674-309.1Z" fill="#26333b"/>
    </g>
    <g id="グループ_4438" data-name="グループ 4438">
      <path id="パス_27279-2" data-name="パス 27279" d="M414.48-340.792c.318.826.217,1.151-.556,1.574a4.7,4.7,0,0,0-1.053.87c-1.069,1.063-1.571,2.5-2.511,3.642a2.163,2.163,0,0,0-.255.633c-.034.085-.034.186-.074.264a1.53,1.53,0,0,1-1.239.768c-.474-.061-.692-.427-.887-.8a2.228,2.228,0,0,1-.169-1.073.9.9,0,0,1,.067-.423c.734-1.158.9-2.623,1.926-3.622.2-.193.349-.474.582-.589a4.187,4.187,0,0,0,1.371-1.3,2.2,2.2,0,0,1,2.163-.63C414.2-341.408,414.361-341.1,414.48-340.792Z" fill="#26333b"/>
    </g>
    <g id="グループ_4439" data-name="グループ 4439">
      <path id="パス_27280-2" data-name="パス 27280" d="M411.208-287.775a1.686,1.686,0,0,1-.517,1.77,3.3,3.3,0,0,1-3.091.606,28.79,28.79,0,0,1-4.278-2.278,1.45,1.45,0,0,1-.7-1.879,4.224,4.224,0,0,1,.23-.8,2.049,2.049,0,0,1,1.655-1.307c.691-.047,1.378-.146,1.784-.193a3.14,3.14,0,0,1,1.841.427,17.5,17.5,0,0,1,1.953,1.229,2.54,2.54,0,0,1,1.026,1.74A3.769,3.769,0,0,0,411.208-287.775Zm-3.116.406a1.185,1.185,0,0,0,1.225-.657,5.685,5.685,0,0,0-3.3-1.625c-.1.139-.26.257-.256.366a2.744,2.744,0,0,0,.342.978c.849.427,1.12.549,1.99.942Z" fill="#26333b"/>
    </g>
    <g id="グループ_4442" data-name="グループ 4442">
      <path id="パス_27283" data-name="パス 27283" d="M405.578-311.876c.278,1.374-.609,2.613-1.056,3.96a2.379,2.379,0,0,1-.623.907,7.716,7.716,0,0,0-.917,1.036,2.127,2.127,0,0,1-2.072.863c-.366-.037-.728-.1-1.1-.125a1.713,1.713,0,0,1-1.7-1.347c-.078-.267-.075-.552-.146-.819a5.815,5.815,0,0,1,.047-3.006,10.786,10.786,0,0,1,3.026-5.348,3.676,3.676,0,0,1,.772-.575,1.443,1.443,0,0,1,1.8.054c.274.237.687.264.944.565.477.552,1.022,1,.968,1.9A18.39,18.39,0,0,1,405.578-311.876Z" fill="#26333b"/>
    </g>
    <path id="パス_27282" data-name="パス 27282" d="M436.128-340.252a.956.956,0,0,0-.019-.336.956.956,0,0,1,.019.336Z" fill="#26333b"/>
    <path id="パス_27283-2" data-name="パス 27283" d="M437.857-337.149h0a1.762,1.762,0,0,0,.328.438A1.762,1.762,0,0,1,437.857-337.149Z" fill="#26333b"/>
    <path id="パス_27284-2" data-name="パス 27284" d="M435.43-339.424a.927.927,0,0,0,.142-.069,1.467,1.467,0,0,0-.082.466c0,.382,1.1,1.155,2.367,1.878a1.771,1.771,0,0,1-.193-1.207.879.879,0,0,1,.958-.79h.01a2.383,2.383,0,0,1,1.171.4,2.33,2.33,0,0,0-.343-.17,6.92,6.92,0,0,0-2.47-1.612,1.492,1.492,0,0,0-.862.275A.946.946,0,0,1,435.43-339.424Z" fill="#26333b"/>
    <path id="パス_27285" data-name="パス 27285" d="M468.333-239.043a2.244,2.244,0,0,0-2.85-1.4c-.484.149-.941.387-1.411.579s-.927.43-1.408.592a3.183,3.183,0,0,1-2.576-.054,6.843,6.843,0,0,1-2.647-2.173,13.324,13.324,0,0,0-5.176-4.515,3,3,0,0,1-.714-.416c-1.229-1.2-3-1.435-4.309-2.5a1.39,1.39,0,0,0-.66-.183,1.777,1.777,0,0,1-.883-.376,1.977,1.977,0,0,0-.7-.423,1.7,1.7,0,0,1-.965-.731,3.141,3.141,0,0,1-.982-2.075,1.819,1.819,0,0,0-.254-.64,3.634,3.634,0,0,1-.318-.765,4.67,4.67,0,0,0-.89-2.159.989.989,0,0,1-.24-.779,4.15,4.15,0,0,0-.836-2.86,3.534,3.534,0,0,1-.45-1,5.028,5.028,0,0,0-.836-1.743,12.787,12.787,0,0,1-1.9-3.52,5.267,5.267,0,0,0-.562-1.117c-.27-.484-.575-.951-.846-1.435-.3-.522-.224-.806.284-1.175a3.143,3.143,0,0,0,.582-.372c.9-1.049,1.781-2.129,2.681-3.185a22.142,22.142,0,0,1,1.723-2.478c.507-.457.535-1.246,1.235-1.628.654-.356,1.364-.23,2.011-.481a7.392,7.392,0,0,1,2.312-.437,2.488,2.488,0,0,0,1.466-.369c.549-.434,1.165-.748,1.74-1.134a2.727,2.727,0,0,0,.8-.765c.534-.86,1.012-1.757,1.506-2.64a1.365,1.365,0,0,0,.129-.393,8.921,8.921,0,0,0-.569-5.423,1.209,1.209,0,0,0-.714-.8,1.158,1.158,0,0,1-.823-.85,1.21,1.21,0,0,0-.393-.562c-.015-.009-.031-.02-.045-.03a.771.771,0,0,1-.175-1.077,7.291,7.291,0,0,0,.643-1.818,12.227,12.227,0,0,1,.626-1.814,18.87,18.87,0,0,0,1.591-5.3,1.3,1.3,0,0,1,.112-.535c.694-.958.383-2.169.833-3.185a9.462,9.462,0,0,1,.257-2.481,2.43,2.43,0,0,0-.1-1.628,1.089,1.089,0,0,1-.034-.677c.244-1.188.014-2.4.149-3.588a3.4,3.4,0,0,0-.081-.965c-.219-1.28-.466-2.553-.673-3.832a13.91,13.91,0,0,0-1.337-3.933,3.11,3.11,0,0,1-.318-.907,9.176,9.176,0,0,0-1.131-3.114,28.528,28.528,0,0,0-2.857-4.549,32.393,32.393,0,0,0-3.629-4.011,6.059,6.059,0,0,1-.985-1.164,11.4,11.4,0,0,0-2.938-2.718,2.383,2.383,0,0,0-1.171-.4h-.01a.879.879,0,0,0-.958.79,1.771,1.771,0,0,0,.193,1.207h0a1.762,1.762,0,0,0,.328.438,15.184,15.184,0,0,0,1.757,1.577,2.609,2.609,0,0,1,.708.653,7.406,7.406,0,0,0,2,2.061,1,1,0,0,1,.359.41,6,6,0,0,0,1.005,1.327,16.258,16.258,0,0,1,1.374,1.733,23.358,23.358,0,0,1,2.132,3.564c.261.643.626,1.258.917,1.868s.213,1.385.836,1.852c.084.065.071.265.091.4.2,1.431.633,2.8.968,4.2.324,1.341.443,2.729.636,4.1a3.92,3.92,0,0,1-.051.552,11.274,11.274,0,0,0,.1,3.182,1.444,1.444,0,0,1,.017.552c-.244,2.247-.555,4.488-.955,6.712a1.326,1.326,0,0,1-.108.4c-.535.978-.5,2.162-1.151,3.1a2.1,2.1,0,0,0-.217.657,33.377,33.377,0,0,1-1.94,4.9.868.868,0,0,1-.22.345,3.977,3.977,0,0,0-1.022,1.777,1.77,1.77,0,0,0,.044,1.587c.3.657.65.8,1.31.467a6.748,6.748,0,0,1,.6-.349l.062-.026a1.186,1.186,0,0,1,1.532.679c.136.3.217.619.376.9a3.377,3.377,0,0,1,.041,3.429c-.3.575-.613,1.13-.958,1.682a1.85,1.85,0,0,1-1.317.911c-.772.152-1.527.373-2.295.552q-.539.123-1.093.2c-.264.037-.447-.069-.454-.369a3.554,3.554,0,0,1,.071-.823,18.149,18.149,0,0,0,.328-2.048,1.618,1.618,0,0,0-.883-1.611.7.7,0,0,0-.883.162,2.452,2.452,0,0,0-.2.366A15.556,15.556,0,0,0,440.6-282.1a23.344,23.344,0,0,1-1.093,3.727,13.054,13.054,0,0,1-2.589,3.93,17.135,17.135,0,0,0-1.215,1.669c-.436.549-1.269.684-1.821,1.212a10.762,10.762,0,0,1-4.285,2.176c-1.273.419-2.61.6-3.9.971a7.672,7.672,0,0,1-2.732.43c-1.712-.142-3.38.528-5.1.247a.871.871,0,0,0-.406.074,1.951,1.951,0,0,1-1.1-.01,8.209,8.209,0,0,1-2.024-.447,1.25,1.25,0,0,0-.816-.1,4.189,4.189,0,0,1-2.562-.3,3.817,3.817,0,0,0-1.232-.176,5.641,5.641,0,0,1-1.1-.115A53.06,53.06,0,0,1,402.1-270.2a22.752,22.752,0,0,1-5.287-1.984,5.955,5.955,0,0,0-.89-.389,11.406,11.406,0,0,1-2.813-1.178,2.146,2.146,0,0,0-1.046-.345,3.875,3.875,0,0,1-1.652-.66c-.921-.532-1.848-1.05-2.769-1.581a12.9,12.9,0,0,1-1.175-.741c-.6-.436-1.262-.781-1.875-1.181a15.191,15.191,0,0,1-1.686-1.631c-.89-.8-1.8-1.58-2.664-2.413a15.958,15.958,0,0,1-2.86-3.9,6.93,6.93,0,0,1-1-2.576,6.119,6.119,0,0,0-.474-1.736,5.324,5.324,0,0,1-.342-3,4.905,4.905,0,0,0,0-1.52,6.282,6.282,0,0,1,.339-2.742c.409-1.372.819-2.739,1.252-4.1a1.413,1.413,0,0,0-.653-1.672l-.013-.011a.7.7,0,0,0-.987.079,3.529,3.529,0,0,0-.88,1.4c-.168.677-.643,1.219-.768,1.919-.073.427-.534.494-.873.183a10.837,10.837,0,0,0-1.219-1.127,3.917,3.917,0,0,1-1.9-4.109c.048-.274.119-.545.156-.819a2.679,2.679,0,0,1,1.222-2.2.733.733,0,0,0,.284-.3c.263-.525.775-.626,1.263-.775a1.331,1.331,0,0,1,1.591.528c.166.223.278.484.454.694a.85.85,0,0,0,.244.234.851.851,0,0,0,1.174-.265,2.8,2.8,0,0,0,.66-1.929,29.988,29.988,0,0,1,.345-5.115,3.655,3.655,0,0,1,.092-.961,39.536,39.536,0,0,0,1-4.461c.217-.789.148-1.652.748-2.332.163-.187.146-.529.21-.8a1.855,1.855,0,0,1,.139-.528c.714-1.143,1.029-2.48,1.784-3.6a1.3,1.3,0,0,0,.21-.508,1.923,1.923,0,0,1,.684-1.171,2.893,2.893,0,0,0,.88-1.391,1.787,1.787,0,0,1,.471-.839,5.368,5.368,0,0,0,.87-1.252,2.105,2.105,0,0,1,.491-.663A7.044,7.044,0,0,0,386.049-335a5.235,5.235,0,0,1,1.144-1.2c1.449-.921,2.6-2.207,3.991-3.189a14.809,14.809,0,0,1,1.168-.965c1.526-.869,3.08-1.7,4.688-2.413a2.943,2.943,0,0,1,.782-.284c1.652-.223,3.094-1.181,4.766-1.337a1.524,1.524,0,0,0,.626-.291,1.033,1.033,0,0,1,.768-.25,2.43,2.43,0,0,0,1.08-.2,8.407,8.407,0,0,1,1.5-.3c1.838-.166,3.679-.323,5.524-.423a12.7,12.7,0,0,1,2.776.1c1.052.177,2.105.319,3.168.4a3.862,3.862,0,0,1,1.5.25,10.111,10.111,0,0,0,3.226.8,3.923,3.923,0,0,1,1.689.582,2.562,2.562,0,0,0,1.452.41,5.294,5.294,0,0,1,2.759.8c.745.457,1.591.751,2.356,1.181a11.591,11.591,0,0,1,2.806,1.469,2.4,2.4,0,0,0,1.022.41.946.946,0,0,0,.59.034.946.946,0,0,0,.7-.828h0a.956.956,0,0,0-.019-.336,8.7,8.7,0,0,0-.224-.944.832.832,0,0,1,.247-.87,5.8,5.8,0,0,1,3.172-2.1.619.619,0,0,0,.369-.176c.519-.657,1.245-.457,1.919-.491,1.066-.061,1.935.6,2.935.785.176.034.3.325.46.491.477.5.942,1.026,1.442,1.5a.705.705,0,0,0,.233.175.708.708,0,0,0,.941-.344,1.819,1.819,0,0,0-.1-2.315,3.458,3.458,0,0,0-1.158-.982,10.927,10.927,0,0,1-1.4-.9,4.321,4.321,0,0,0-3.118-.971,10.916,10.916,0,0,0-4.282,1.066c-.633.383-1.34.592-1.74,1.283a1.2,1.2,0,0,1-.5.467,2.336,2.336,0,0,0-1.151,1.141l-.015.033a.87.87,0,0,1-1.153.431c-.176-.051-.338-.149-.514-.21-1.05-.362-1.981-.978-3.05-1.31-.973-.295-1.9-.735-2.858-1.063a26.7,26.7,0,0,0-4.241-1.3c-.823-.142-1.629-.348-2.451-.477-1.374-.21-2.765-.335-4.133-.579a18.649,18.649,0,0,0-3.7-.3,16.211,16.211,0,0,0-4.712.525,1.138,1.138,0,0,1-.413.068,20.207,20.207,0,0,0-4.082.731,14.383,14.383,0,0,0-1.875.453,49.03,49.03,0,0,1-5.125,1.682.7.7,0,0,0-.379.159,2.816,2.816,0,0,1-1.5.65,2.821,2.821,0,0,0-1.638.968,2.532,2.532,0,0,1-.762.589c-.68.4-1.381.761-2.065,1.147a2.937,2.937,0,0,0-.69.45A5.424,5.424,0,0,1,387.4-340c-.548.284-.694.964-1.269,1.259-.308.156-.472.592-.772.765a9.576,9.576,0,0,0-1.422,1.3c-.815.7-1.15,1.729-1.956,2.457a11,11,0,0,0-1.689,2.525c-.551.9-1,1.882-1.621,2.735a7.2,7.2,0,0,0-1.019,2.105,27.343,27.343,0,0,1-1.039,2.86,3.477,3.477,0,0,0-.393,1.158,3.819,3.819,0,0,1-.515,1.719,1.056,1.056,0,0,0-.193.646,1.922,1.922,0,0,1-.322,1.445,2.236,2.236,0,0,0-.254.792c-.23,1.733-.6,3.442-.917,5.165-.1.556-.192.742-.792.779a7.784,7.784,0,0,0-3.527,1.557,4.552,4.552,0,0,0-1.869,2.2,13.06,13.06,0,0,0-.812,3.067,8.38,8.38,0,0,0,.5,3.662,1.053,1.053,0,0,0,.352.582,4.535,4.535,0,0,1,1.855,1.99.261.261,0,0,0,.1.1c.975.423,1.421,1.431,2.244,2.031a1.924,1.924,0,0,1,.8,1.953,3.171,3.171,0,0,0,.179,1.909.7.7,0,0,1,.078.4c-.234,1.612.535,3.087.609,4.658a2.4,2.4,0,0,0,.362.887,10.328,10.328,0,0,1,.88,2.041,1.833,1.833,0,0,0,.437.85,3.922,3.922,0,0,1,.978,1.479,4.945,4.945,0,0,0,.806,1.124,48.833,48.833,0,0,0,4.343,4.265,2.726,2.726,0,0,0,.322.267q1.414,1.006,2.831,2.007c1.2.846,1.032.823.494,2.014a1.617,1.617,0,0,1-.414.542,2.984,2.984,0,0,0-.778,1.134,3.824,3.824,0,0,1-.578.941,15.566,15.566,0,0,0-2.339,4.546,4.088,4.088,0,0,1-.667,1.34,1.535,1.535,0,0,0-.43,1.144,1.123,1.123,0,0,1-.234.782,3.077,3.077,0,0,0-.539,1.273,34.966,34.966,0,0,0-1.333,5.528,17.429,17.429,0,0,1-.529,2.718,8.659,8.659,0,0,0-.341,2.193,15.663,15.663,0,0,1-.565,3.134,1.355,1.355,0,0,1-1.091,1.12,15.571,15.571,0,0,0-2.965,1.479,9.742,9.742,0,0,0-2.048,1.154c-.639.535-1.245,1.107-1.885,1.628a13.566,13.566,0,0,1-2.312,1.249c-.284.152-.548.348-.829.511a1.27,1.27,0,0,1-.508.213,6.769,6.769,0,0,1-3.642-.416,7.122,7.122,0,0,0-3.084-.6.99.99,0,0,0-.762.288,3.49,3.49,0,0,0-1.161,1.845,7.1,7.1,0,0,0,.523,3.914,5.743,5.743,0,0,1,.4,1.307,3.006,3.006,0,0,0,.9,2.119.936.936,0,0,1,.3.46,9.82,9.82,0,0,0,.433,1.6,6.784,6.784,0,0,1,.7,1.5.838.838,0,0,1,.051.271,2.829,2.829,0,0,0,.66,1.787c.259.44.583.843.8,1.3a5.388,5.388,0,0,0,1.584,1.865,4.888,4.888,0,0,0,4.265,1.1,2.568,2.568,0,0,1,.552-.058,4.992,4.992,0,0,0,3.138-.9,1.351,1.351,0,0,1,1.181-.257c1.97.555,4.051.382,6.018.944a21.733,21.733,0,0,1,3.182.271c.826.081,1.662.057,2.495.081a16.8,16.8,0,0,0,4.143.044,2.268,2.268,0,0,1,.823.1,22.705,22.705,0,0,0,4.153.183c1.469-.021,2.931-.2,4.414-.129a8.622,8.622,0,0,0,3.307-.257,1.5,1.5,0,0,1,1.648.443c.355.366.731.707,1.094,1.066a.759.759,0,0,0,.609.288,5.858,5.858,0,0,1,1.932.064.738.738,0,0,0,.532-.108,2.4,2.4,0,0,1,1.834-.366l.048,0a1.383,1.383,0,0,0,1.438-1.326,1.607,1.607,0,0,1,.267-.772.6.6,0,0,1,.149-.14.567.567,0,0,1,.785.17c.231.346.437.711.647,1.07a1.61,1.61,0,0,0,.7.657,4.037,4.037,0,0,0,2.566.443,7.641,7.641,0,0,0,3.117-1.11,2.249,2.249,0,0,1,2.082-.464c.487.135,1.029.074,1.513.213,1.237.362,2.5.088,3.737.247a.767.767,0,0,0,.528-.132,3.392,3.392,0,0,1,1.99-.5c.833-.067,1.645-.24,2.468-.389,1.32-.234,2.66-.352,3.994-.515a.577.577,0,0,1,.274,0,5.616,5.616,0,0,0,2.055.193c.877.048,1.761.058,2.627.19a6.763,6.763,0,0,0,1.791.081,2.468,2.468,0,0,1,1.882.227c.576.42,1.283-.186,1.889.176.037.023.081.04.122.064a1.828,1.828,0,0,0,.806.176,37.841,37.841,0,0,1,4.82.535,6.377,6.377,0,0,0,2.752.227,1.642,1.642,0,0,1,.667.129c1.161.261,2.3.725,3.524.261a.614.614,0,0,1,.406,0,9.254,9.254,0,0,0,3.155.2,1.047,1.047,0,0,0,.863-.369,8.082,8.082,0,0,0,.6-.768c.914-1.351,1.395-2.925,2.251-4.309a1.688,1.688,0,0,0,.2-.66,6.5,6.5,0,0,1,.633-1.682c.346-.788.745-1.546,1.026-2.369a14.823,14.823,0,0,1,1.134-3.1,12.426,12.426,0,0,0,.8-2.072c.277-.687-.082-1.469.318-2.153.071-.122-.034-.362-.1-.535ZM365.76-225.17a3.232,3.232,0,0,1-2.038-.677,1.2,1.2,0,0,1-.4-.555,22.622,22.622,0,0,0-1.879-3.838,3.314,3.314,0,0,1-.653-1.794,1.163,1.163,0,0,0-.447-.985,1.641,1.641,0,0,1-.6-1.472,2.015,2.015,0,0,0-.21-.934,1.987,1.987,0,0,1-.315-1.445c.074-.383-.257-.674-.413-1.009a.625.625,0,0,1-.054-.41.619.619,0,0,1,.734-.477c.937.248,1.861.559,2.772.894a1.273,1.273,0,0,1,.6.562,7.107,7.107,0,0,1,1.063,2.082,3.294,3.294,0,0,0,.7,1.493,6.033,6.033,0,0,1,1.005,1.943c.5,1.3,1.31,2.454,1.726,3.788.027.088.1.159.122.247.139.623.268,1.249.4,1.875h0A5.534,5.534,0,0,1,365.76-225.17Zm39.893,1.347c-.016.331-.7.606-1.027.422a3.255,3.255,0,0,1-.548-.423l-.023-.018a.42.42,0,0,1-.058-.591,3.217,3.217,0,0,1,1.5-1.185c.135-.056.26.017.355.244a3.467,3.467,0,0,0-.2,1.55Zm10.748-.951a6.128,6.128,0,0,1-2.065.735.4.4,0,0,1-.194-.015.4.4,0,0,1-.253-.506,2.592,2.592,0,0,1,.349-1.039c.24-.33.436-.429.812-.3.393.136.782.278,1.161.447a.473.473,0,0,1,.288.437c-.029.084-.043.216-.1.24Zm37.447-5.351c-.443,1.314-.853,2.637-1.286,3.954a7.433,7.433,0,0,1-.359.9c-.4.822-.609.934-1.486.839a2.27,2.27,0,0,1-.267-.068,10.036,10.036,0,0,0-3.558-.433,1.745,1.745,0,0,1-.545-.091,21.067,21.067,0,0,0-3.439-.44,11.246,11.246,0,0,1-1.926-.24,13.586,13.586,0,0,1-2.616-.227.366.366,0,0,0-.274-.007,3.083,3.083,0,0,1-2.525-.034,1.045,1.045,0,0,0-.413-.017c-1.243.074-2.488.125-3.727.24-1.192.112-2.38.258-3.561.447a17.514,17.514,0,0,0-3.29.525,1.191,1.191,0,0,1-.545.068.861.861,0,0,1-.488-.217c-.155-.162,0-.352.112-.484.278-.314.57-.619.87-.9a6.859,6.859,0,0,0,1.828-2.42,2.75,2.75,0,0,1,.619-.914,16.172,16.172,0,0,0,3.209-4.248c.409-.724.846-1.431,1.188-2.193a1.828,1.828,0,0,1,.366-.589,23.682,23.682,0,0,0,2.024-2.942,1.436,1.436,0,0,0,0-1.567,1.145,1.145,0,0,0-1.378-.339,2.11,2.11,0,0,0-1.537,1.283,4.718,4.718,0,0,1-1,1.655,1.261,1.261,0,0,0-.365.579,3.4,3.4,0,0,1-1.263,1.943,10.376,10.376,0,0,0-1.544,2.454,5.973,5.973,0,0,1-.518.806,25.833,25.833,0,0,0-2.234,2.972,10.372,10.372,0,0,1-1.865,2.217,1.922,1.922,0,0,1-2.048.447,5.331,5.331,0,0,0-1.987-.565,1.166,1.166,0,0,1-.508-.206,6.3,6.3,0,0,0-1.94-.748.954.954,0,0,1-.816-.958,15.076,15.076,0,0,1-.237-2.623,4.434,4.434,0,0,0-.051-1.648,1.606,1.606,0,0,1,.088-.812,5.28,5.28,0,0,0-.041-3.145c-.146-.372.064-.731,0-1.1a1.477,1.477,0,0,0-.762-1.242,1.077,1.077,0,0,0-.2-.1,1.011,1.011,0,0,0-1.288.62c-.264,1.011-.8,1.994-.464,3.111a1.788,1.788,0,0,1-.01.823,21.615,21.615,0,0,0-.271,4.282c0,1.019.077,2.034.057,3.053a3.742,3.742,0,0,1-.565,2.116,1.012,1.012,0,0,1-.924.515,7.217,7.217,0,0,1-1.354-.3.471.471,0,0,1-.3-.426,10.952,10.952,0,0,1,.064-3.293,10.216,10.216,0,0,0,.152-2.349,13.426,13.426,0,0,1,.183-3.591.768.768,0,0,0,.034-.274c-.23-1.175-.46-2.35-.606-3.541a.874.874,0,0,0-.2-.359.506.506,0,0,0-.606-.217,2.375,2.375,0,0,0-1.52,2.373,6.422,6.422,0,0,1-.1,2.065,11.1,11.1,0,0,0-.03,3.6,15.487,15.487,0,0,1-.19,2.481c-.024.443-.382.721-.731.968a16.066,16.066,0,0,0-2.376,1.686,2.838,2.838,0,0,1-1,.464.5.5,0,0,1-.626-.162c-.5-.87-1.426-1.26-2.1-1.94-.736-.748-1.352-1.594-2.1-2.325-.693-.68-1.309-1.442-2-2.122a5,5,0,0,1-.843-1.076,12.729,12.729,0,0,0-1.11-1.415c-.146-.18-.386-.342-.413-.542a5.409,5.409,0,0,0-1.107-2.061,2.762,2.762,0,0,1-.535-1.259,1.031,1.031,0,0,0-.372-.728c-.457-.389-.917-.778-1.391-1.144l-.011-.008a.614.614,0,0,0-.856.147,1.312,1.312,0,0,0-.362,1.015c.081.735.157,1.473.257,2.207a1.4,1.4,0,0,0,.264.775,10.649,10.649,0,0,1,1.262,1.987A5.584,5.584,0,0,1,390.675-233a1.328,1.328,0,0,0,.389.565,23.782,23.782,0,0,0,2.386,2.5,11.142,11.142,0,0,1,1.412,1.493,7.725,7.725,0,0,0,1.537,1.391c.7.5,1.1,1.238,1.73,1.78a.285.285,0,0,1,.078.107.279.279,0,0,1-.153.364,1.6,1.6,0,0,1-1.32.254,4.627,4.627,0,0,0-1.8-.1,13.036,13.036,0,0,1-3.314.054,1.98,1.98,0,0,0-.823.088,2.383,2.383,0,0,1-1.367-.017,1.324,1.324,0,0,0-.552-.058,20.835,20.835,0,0,1-3.737-.115,46.9,46.9,0,0,1-6.35-.538,36.651,36.651,0,0,0-3.852-.457c-1.06-.107-2.123-.2-3.182-.3a.842.842,0,0,1-.846-.768,1.484,1.484,0,0,0-.108-.538,35.08,35.08,0,0,1-1.811-4.316,2.4,2.4,0,0,0-.508-.819,3.79,3.79,0,0,1-1.005-1.784,6.149,6.149,0,0,0-.823-1.75,6.788,6.788,0,0,1-.68-1.51c-.132-.333-.047-.549.325-.6a3.749,3.749,0,0,0,1.7-.9c1.124-.809,2.234-1.641,3.361-2.447a7.473,7.473,0,0,1,.856-.457,2.552,2.552,0,0,0,.724-.4,5.058,5.058,0,0,1,3.1-1.327,4.331,4.331,0,0,0,.772-.284,4.484,4.484,0,0,1,.9-.359,1.771,1.771,0,0,0,1.564-1.7,23.627,23.627,0,0,0,.535-3.148,3.343,3.343,0,0,1,.176-.955,5,5,0,0,0,.2-1.787c-.013-.278-.006-.556-.02-.833-.028-.545.5-.887.5-1.422a3.366,3.366,0,0,1,.034-1.374c.02-.044.04-.084.057-.125.274-.643-.122-1.391.362-2.017a5.162,5.162,0,0,0,.741-1.94c.356-1.337.921-2.6,1.256-3.947a2.085,2.085,0,0,1,.43-.86,4,4,0,0,0,.853-1.879,5.489,5.489,0,0,1,1.6-3.175,1.939,1.939,0,0,0,.589-.931,3.293,3.293,0,0,1,.724-1.171c.308-.4.542-.995.948-1.158.541-.213,1.154.211,1.706.4a25.818,25.818,0,0,1,3.05,1.323,3.827,3.827,0,0,0,1.7.542,1.717,1.717,0,0,1,1.256.508,1.833,1.833,0,0,0,.687.45c1.723.533,3.364,1.273,5.04,1.933a8.938,8.938,0,0,0,2.573.552,9.4,9.4,0,0,0,2.349.173,1.074,1.074,0,0,1,.542.088,18.3,18.3,0,0,0,5.307.823,2.051,2.051,0,0,1,.8.159,1.381,1.381,0,0,0,.515.193c2.109.108,4.191.578,6.33.267a11.626,11.626,0,0,1,2.474-.054,11.537,11.537,0,0,0,2.884-.345c1.814-.332,3.547-.985,5.365-1.317a11.09,11.09,0,0,0,1.8-.718c.553-.2.743-.121,1,.4.469.951.926,1.912,1.4,2.867.186.376.382.741.592,1.1.582.992,1.225,1.963,1.746,2.992a16.8,16.8,0,0,1,.941,2.461,31.761,31.761,0,0,0,1.147,2.975,10.657,10.657,0,0,1,.355,1.337,34.788,34.788,0,0,0,2.254,5.372,3.582,3.582,0,0,0,.4.562,1.223,1.223,0,0,0,1.337.528,2.064,2.064,0,0,1,1.794.467,9.928,9.928,0,0,0,2.545,1.408c.8.278,1.392.952,2.265,1.009.521.44,1.07.863,1.557,1.34a2.469,2.469,0,0,0,1,.718c.331.094.487.375.707.619.454.5.8,1.158,1.564,1.3a.452.452,0,0,1,.311.24,5.852,5.852,0,0,0,1.286,1.956.937.937,0,0,1,.091,1.022h0c-.287.7-.951,1.178-1.147,1.88a6.109,6.109,0,0,1-.843,2.038.574.574,0,0,0-.122.247A14.12,14.12,0,0,1,453.848-230.125Zm11.174-6.4c-.694,1.622-1.2,3.3-1.93,4.914-.413.917-.66,1.919-1.107,2.84a2.055,2.055,0,0,0-.112.677,2.632,2.632,0,0,1-.616,1.5,10.476,10.476,0,0,0-.981,1.821c-.129.251-.231.507-.366.751a.376.376,0,0,1-.44.237,25.086,25.086,0,0,1-4-.075c-.477-.074-.612-.209-.477-.609a2.666,2.666,0,0,0,.267-1.618.313.313,0,0,1,.061-.261c.836-.809.576-2.136,1.395-2.952a1.436,1.436,0,0,0,.132-.244c.409-.626.087-1.486.7-2.065a4.381,4.381,0,0,0,.937-1.845,23.563,23.563,0,0,1,1.5-2.66c.088-.169.257-.2.474-.159a5.54,5.54,0,0,0,3.737-.41,3.071,3.071,0,0,1,.355-.207.636.636,0,0,1,.4,0c.143.065.126.23.068.365Z" fill="#26333b"/>
  </g>
  <g id="ボール" transform="translate(141.335 88)">
    <path id="パス_27221" data-name="パス 27221" d="M898.088,1109.811a18.8,18.8,0,0,1-2.3,10.745,17.634,17.634,0,0,1-4.313,4.643,16.654,16.654,0,0,1-10.005,3.754,21,21,0,0,1-11.315-2.559c-5.084-2.929-8.1-7.389-10.3-12.493a15.359,15.359,0,0,1-.9-6.279,19.859,19.859,0,0,1,1.168-7.083c1.727-4.076,4.4-7.535,8.8-9.187a14.869,14.869,0,0,0,2.423-1.066,8.447,8.447,0,0,1,5.868-1.219,26.9,26.9,0,0,0,4.12.224c2.881,0,5.108,1.537,7.236,3.153a36.957,36.957,0,0,1,4.344,4.1,14.527,14.527,0,0,1,1.721,2.623A21.987,21.987,0,0,1,898.088,1109.811Zm-6.17,12.279c3.17-3.3,3.988-7.443,3.883-11.78a22.635,22.635,0,0,0-1.147-5.7c-.5-1.7-1-3.754-3.367-3.621-2.332.133-4.646.6-6.964.968a.892.892,0,0,0-.132.736c.492.665,1.147,1.219,1.6,1.911a19.775,19.775,0,0,1,3.353,7.718c.492,3.244.855,6.506,1.273,9.757-.068.007-.139.013-.21.024-.041.36-.078.719-.119,1.079.349-.173.713-.326,1.049-.523A3.491,3.491,0,0,0,891.918,1122.09Zm-1.965-23.638c.763-.129.964-.4.461-.937-2.131-2.267-4.28-4.639-7.382-5.461a62.637,62.637,0,0,0-7.578-1.062c-2.209.977-4.612,2.033-7.005,3.119-.21.1-.339.366-.509.56a5.634,5.634,0,0,1,.672.122,62.153,62.153,0,0,1,6.618,1.955,41.683,41.683,0,0,1,5.047,2.905,2.851,2.851,0,0,0,2.349.255C885.035,1099.286,887.5,1098.869,889.953,1098.452Zm-1.935,22.977.1-.01c-.1-1.151-.153-2.308-.309-3.448a44.909,44.909,0,0,0-1.168-7.246,17.945,17.945,0,0,0-4.47-7.086,1.888,1.888,0,0,0-2.654-.027c-.838.58-1.731,1.083-2.545,1.7a38.689,38.689,0,0,0-5.182,4.12,13.272,13.272,0,0,0-2.854,4.819,39.767,39.767,0,0,0-.967,6.4,2.94,2.94,0,0,0,1.744,3.285,9.957,9.957,0,0,1,.974.536c4.6,2.99,9.564,3.014,14.641,1.7a3.3,3.3,0,0,0,2.6-3.489C887.93,1122.263,887.988,1121.846,888.019,1121.428Zm-9.673-19.5c.774-.485.7-.655.024-1.066a25.788,25.788,0,0,0-9.825-3.961,6.161,6.161,0,0,0-4.131.676,8.353,8.353,0,0,0-2.6,4,37.853,37.853,0,0,0-1.083,5.685,16.862,16.862,0,0,0,4.018,11.59,17.172,17.172,0,0,0,1.354,1.32,11.394,11.394,0,0,0,.394-2.1,15.536,15.536,0,0,1,5.681-11.926A47.054,47.054,0,0,1,878.346,1101.927Z" transform="translate(-858.943 -1088.959)" fill="#26333b"/>
    <path id="パス_27222" data-name="パス 27222" d="M947.429,1134.936c.105,4.337-.713,8.478-3.883,11.78a3.491,3.491,0,0,1-.787.57c-.336.2-.7.349-1.049.523.041-.36.078-.719.119-1.079.071-.01.142-.017.21-.024-.417-3.251-.781-6.513-1.273-9.757a19.775,19.775,0,0,0-3.353-7.718c-.448-.692-1.1-1.245-1.6-1.911a.892.892,0,0,1,.132-.736c2.318-.367,4.633-.835,6.964-.968,2.366-.132,2.868,1.918,3.367,3.621A22.632,22.632,0,0,1,947.429,1134.936Z" transform="translate(-910.572 -1113.586)" fill="#f2f0e0"/>
    <path id="パス_27223" data-name="パス 27223" d="M908.84,1101.678c.5.536.3.808-.461.937-2.454.417-4.918.835-7.328,1.456a2.851,2.851,0,0,1-2.349-.255,41.683,41.683,0,0,0-5.047-2.905,62.146,62.146,0,0,0-6.618-1.955,5.631,5.631,0,0,0-.672-.122c.17-.194.3-.465.509-.56,2.393-1.086,4.8-2.141,7-3.119a62.631,62.631,0,0,1,7.578,1.062C904.561,1097.039,906.709,1099.411,908.84,1101.678Z" transform="translate(-877.369 -1093.122)" fill="#f2f0e0"/>
    <path id="パス_27224" data-name="パス 27224" d="M906.511,1150.333l-.1.01c-.031.417-.088.835-.088,1.252a3.3,3.3,0,0,1-2.6,3.489c-5.077,1.317-10.039,1.293-14.641-1.7a9.963,9.963,0,0,0-.974-.536,2.94,2.94,0,0,1-1.744-3.285,39.761,39.761,0,0,1,.967-6.4,13.272,13.272,0,0,1,2.854-4.819,38.7,38.7,0,0,1,5.182-4.12c.815-.615,1.707-1.117,2.545-1.7a1.888,1.888,0,0,1,2.654.027,17.945,17.945,0,0,1,4.47,7.086,44.9,44.9,0,0,1,1.168,7.246C906.359,1148.025,906.41,1149.182,906.511,1150.333Z" transform="translate(-877.338 -1117.874)" fill="#f2f0e0"/>
    <path id="パス_27225" data-name="パス 27225" d="M882.032,1116.964c.672.411.75.58-.024,1.066a47.063,47.063,0,0,0-6.166,4.226,15.536,15.536,0,0,0-5.682,11.926,11.394,11.394,0,0,1-.394,2.1,17.152,17.152,0,0,1-1.354-1.32,16.862,16.862,0,0,1-4.018-11.59,37.878,37.878,0,0,1,1.083-5.685,8.353,8.353,0,0,1,2.6-4,6.159,6.159,0,0,1,4.131-.676A25.783,25.783,0,0,1,882.032,1116.964Z" transform="translate(-862.606 -1105.062)" fill="#f2f0e0"/>
  </g>
</svg>
