<svg xmlns="http://www.w3.org/2000/svg" xmlns:xlink="http://www.w3.org/1999/xlink" width="240" height="240" viewBox="0 0 240 240">
  <defs>
    <clipPath id="clip-path">
      <rect id="長方形_1854" data-name="長方形 1854" width="123.774" height="108" fill="#d5c770"/>
    </clipPath>
  </defs>
  <g id="no_image" transform="translate(-40 -40)">
    <rect id="長方形_1825" data-name="長方形 1825" width="240" height="240" transform="translate(40 40)" fill="#26333b" opacity="0.05"/>
    <g id="logo" transform="translate(-424 65)">
      <path id="泉の杜保育園" d="M12.094,2.3l-.516-.234A5.074,5.074,0,0,1,11.227.047a18.779,18.779,0,0,0-.07-2.109q-.094-1.031-.117-2.086t-.07-2.086l.094-1.828-.047-.187h-.328q-.516.047-1.031.047H8.625q-.516,0-1.031.023a6.527,6.527,0,0,0-.984.117,1.286,1.286,0,0,0-.164-.07q-.07-.023-.164-.047a.521.521,0,0,1-.164-.07,1.533,1.533,0,0,0-.164-.094,1.4,1.4,0,0,1-.211-.4,1.857,1.857,0,0,0-.187-.4.94.94,0,0,1-.141-.4,4.036,4.036,0,0,1-.023-.445q.141-.844.211-1.734t.141-1.758q.07-.867.188-1.734a5.669,5.669,0,0,1,.492-1.664q.7-.422,1.406-.867A16.413,16.413,0,0,0,9.188-18.7a7.575,7.575,0,0,1,1.383-.867,5.752,5.752,0,0,1,1.617-.492l.469.234a1.231,1.231,0,0,0,.117.188.515.515,0,0,1,.094.211,1.086,1.086,0,0,1,.023.211v.234l-.234.469a3.236,3.236,0,0,1-.68.375l-.7.281a2.742,2.742,0,0,0-.656.375,5.568,5.568,0,0,1-.633.422l-.047.141h.281l1.547-.047a15.061,15.061,0,0,0,1.664.094q.82,0,1.617.047l1.594.094a5.261,5.261,0,0,1,1.547.328,10.6,10.6,0,0,1,.328,1.758q.094.914.164,1.828t.188,1.852a10.758,10.758,0,0,1,.07,1.875l-.281.656a1.034,1.034,0,0,1-.4.188q-.211.047-.445.117a1.624,1.624,0,0,1-.469.07h-.469a5.011,5.011,0,0,0-.984-.094,6.634,6.634,0,0,1-.984-.07,6.634,6.634,0,0,0-.984-.07H12.891v.188l.047.8-.094,1.922.328,6.984-.234.469a1.231,1.231,0,0,0-.187.117.515.515,0,0,1-.211.094,1.086,1.086,0,0,1-.211.023ZM19.313.8,18.844.563q-.281-.281-.586-.609A4.636,4.636,0,0,0,17.6-.633q-.352-.258-.68-.516t-.656-.539a7.241,7.241,0,0,1-.609-.586q-.281-.3-.609-.609t-.656-.586a2.842,2.842,0,0,1-.562-.656l-.047-.562.234-.469q.656-.375,1.336-.7t1.359-.609q.68-.281,1.383-.539a5.128,5.128,0,0,1,1.453-.3l.469.234a1.231,1.231,0,0,0,.117.188.515.515,0,0,1,.094.211,1.087,1.087,0,0,1,.023.211q0,.094,0,.234l-.234.469a4.316,4.316,0,0,1-.914.375,9.933,9.933,0,0,0-.961.328q-.469.188-.914.375t-.914.422v.094l1.078.938.141.281q.328.234.656.492t.656.492a3.427,3.427,0,0,1,.609.563,1.6,1.6,0,0,0,.656.469,1.09,1.09,0,0,1,.164.211.729.729,0,0,1,.094.258,1.708,1.708,0,0,1,.023.281q0,.141,0,.281l-.234.469a1.231,1.231,0,0,0-.187.117.515.515,0,0,1-.211.094A1.086,1.086,0,0,1,19.547.8ZM5.2.422a1.286,1.286,0,0,0-.164-.07Q4.969.328,4.875.3a.521.521,0,0,1-.164-.07A1.532,1.532,0,0,0,4.547.141,1.232,1.232,0,0,0,4.43-.047a.515.515,0,0,1-.094-.211,1.086,1.086,0,0,1-.023-.211V-.7l.234-.469h.094l.188-.281a5.4,5.4,0,0,0,.82-.68,6.761,6.761,0,0,1,.82-.7,5.586,5.586,0,0,0,.8-.7q.375-.4.75-.773v-.141Q7.5-4.547,7.008-4.617a7.29,7.29,0,0,0-1.031-.07,7.8,7.8,0,0,1-1.055-.07,2.648,2.648,0,0,1-.937-.3,1.232,1.232,0,0,0-.117-.187.515.515,0,0,1-.094-.211,1.086,1.086,0,0,1-.023-.211v-.234l.234-.469A1.09,1.09,0,0,1,4.2-6.539a.729.729,0,0,1,.258-.094,1.708,1.708,0,0,1,.281-.023h.281a8.709,8.709,0,0,0,1.43.164,7.314,7.314,0,0,1,1.43.188q.7.164,1.406.258a5.17,5.17,0,0,1,1.359.375,1.231,1.231,0,0,0,.117.188.515.515,0,0,1,.094.211,1.192,1.192,0,0,1,.023.234v.258l-.281.516A8.252,8.252,0,0,0,9.445-3.187,15.638,15.638,0,0,1,8.32-2.039q-.586.539-1.2,1.031A10.316,10.316,0,0,0,6,.047H5.906V.141a1.532,1.532,0,0,0-.164.094,1.532,1.532,0,0,1-.164.094.416.416,0,0,1-.187.047A.416.416,0,0,0,5.2.422Zm11.859-10.5.047-.422-.094-.562-2.367-.187q-1.2-.094-2.414-.164T9.82-11.508a13.384,13.384,0,0,1-2.367-.258l-.187,1.734h.563l6.656-.141,2.438.188Zm-.234-2.812V-13.5a1.741,1.741,0,0,1-.07-.3,3.493,3.493,0,0,0-.07-.352,1.453,1.453,0,0,1-.047-.352v-.352q-.8-.094-1.57-.141t-1.57-.047q-.8,0-1.617-.07a11.208,11.208,0,0,0-1.617-.023l-.656.047-1.172-.047-.7.234-.141,1.266a9.648,9.648,0,0,0,2.25.3q1.172.023,2.367.094t2.32.164Q15.656-12.984,16.828-12.891Zm13.1,10.734a5.361,5.361,0,0,1-.844-.164,2.369,2.369,0,0,1-.773-.375q-.352-.258-.7-.539t-.68-.562a4.6,4.6,0,0,1-.562-.8,3.059,3.059,0,0,1-.328-.891,9.48,9.48,0,0,1-.141-.961,5.428,5.428,0,0,1,0-1.008,10.013,10.013,0,0,1,.422-1.594,5.813,5.813,0,0,1,.75-1.453q.469-.656.961-1.312a11.825,11.825,0,0,1,1.1-1.266q.609-.469,1.219-.914a3.308,3.308,0,0,1,1.359-.586,9.974,9.974,0,0,1,1.547-.164q.8-.023,1.594-.023a6.605,6.605,0,0,1,1.406.328q.656.234,1.266.516A5.81,5.81,0,0,1,38.7-13.2a12.473,12.473,0,0,1,1.078.961q.609.75,1.2,1.523A6.727,6.727,0,0,1,41.907-9a8.229,8.229,0,0,1,.469,1.9,16.055,16.055,0,0,1,.117,1.945q-.094.328-.164.7t-.164.7q-.094.328-.164.7a1.75,1.75,0,0,1-.258.656,1.231,1.231,0,0,0-.187.117.515.515,0,0,1-.211.094,1.086,1.086,0,0,1-.211.023H40.9l-.469-.234a1.231,1.231,0,0,0-.117-.187.515.515,0,0,1-.094-.211l-.047-.234a1.317,1.317,0,0,1-.023-.258q.094-.328.164-.656a5.173,5.173,0,0,1,.188-.656,3.319,3.319,0,0,0,.164-.68,2.826,2.826,0,0,0,0-.727,9.9,9.9,0,0,0-.211-1.5,5.41,5.41,0,0,0-.516-1.406,8.106,8.106,0,0,0-.844-1.266q-.492-.609-1.008-1.172-.328-.281-.68-.539a3.024,3.024,0,0,0-.727-.4,7.807,7.807,0,0,1-.75-.328,2.347,2.347,0,0,0-.8-.234,11.991,11.991,0,0,1-.211,2.719q-.258,1.313-.586,2.648a10.382,10.382,0,0,1-.984,2.531,9.614,9.614,0,0,1-1.641,2.18q-.187.141-.4.281a1.253,1.253,0,0,1-.422.188q-.211.047-.469.094A2.754,2.754,0,0,1,29.931-2.156Zm.516-1.969a5.071,5.071,0,0,0,1.406-1.9,19.24,19.24,0,0,0,.8-2.25,17.217,17.217,0,0,0,.492-2.3,13.14,13.14,0,0,0,.117-2.367h-.328a3.313,3.313,0,0,0-.891.117,2.369,2.369,0,0,0-.773.375q-.352.258-.7.563t-.68.633a11.383,11.383,0,0,0-.867,1.078,8.271,8.271,0,0,0-.7,1.2,8.093,8.093,0,0,0-.492,1.289,3.5,3.5,0,0,0-.094,1.406q.047.188.094.4a1.723,1.723,0,0,0,.141.4,2.617,2.617,0,0,0,.211.352,1.407,1.407,0,0,0,.3.3q.188.141.4.3a3.3,3.3,0,0,0,.422.281,2.492,2.492,0,0,0,.422.188,1.558,1.558,0,0,0,.492.07ZM52.783,2.2l-.469-.234a1.532,1.532,0,0,0-.094-.164.521.521,0,0,1-.07-.164q-.023-.094-.047-.164a1.286,1.286,0,0,0-.07-.164V-6.516L52.127-8.3h-.094q-.375.563-.773,1.1t-.82,1.078L49.6-5.039a6.525,6.525,0,0,0-.7,1.1,1.231,1.231,0,0,0-.187.117.515.515,0,0,1-.211.094,1.086,1.086,0,0,1-.211.023h-.234l-.469-.234q-.047-.094-.117-.211a.737.737,0,0,1-.094-.234,1.192,1.192,0,0,1-.023-.234v-.258A14.471,14.471,0,0,1,48.377-6.4q.563-.727,1.148-1.5A14.79,14.79,0,0,0,50.58-9.492a9.567,9.567,0,0,1,1.078-1.523l.563-.422v-.891a4.978,4.978,0,0,0-.961-.187q-.492-.047-.961-.117a5.258,5.258,0,0,0-1.008-.047,1.375,1.375,0,0,1-.914-.258,1.232,1.232,0,0,0-.117-.187.515.515,0,0,1-.094-.211,1.086,1.086,0,0,1-.023-.211v-.234l.234-.469a1.031,1.031,0,0,1,.422-.187,2.505,2.505,0,0,1,.492-.047H50.3l1.781.234v-.844l-.047-2.25a.885.885,0,0,0,.047-.281.688.688,0,0,1,.047-.258q.047-.117.094-.258a.588.588,0,0,1,.141-.234,1.231,1.231,0,0,0,.188-.117.515.515,0,0,1,.211-.094,1.087,1.087,0,0,1,.211-.023h.234l.469.234q.047.094.117.211a.737.737,0,0,1,.094.234,1.317,1.317,0,0,1,.023.258v.281l-.047,2.25.094.984a7.849,7.849,0,0,0,.867.047,2.739,2.739,0,0,1,.82.117,2.739,2.739,0,0,0,.82.117,1.3,1.3,0,0,1,.773.234,1.231,1.231,0,0,0,.117.188.515.515,0,0,1,.094.211,1.086,1.086,0,0,1,.023.211v.234l-.234.469q-.141.094-.258.164a.729.729,0,0,1-.258.094,1.856,1.856,0,0,1-.3.023h-.3q-.234-.047-.492-.094l-.516-.094a3.009,3.009,0,0,0-.539-.047,2.634,2.634,0,0,1-.516-.047v1.734q.375.422.82.867t.891.867q.445.422.867.844a3.183,3.183,0,0,0,.938.656,1.231,1.231,0,0,0,.117.188.515.515,0,0,1,.094.211,1.086,1.086,0,0,1,.023.211v.234l-.234.469a1.232,1.232,0,0,0-.187.117.515.515,0,0,1-.211.094,1.192,1.192,0,0,1-.234.023h-.258a1.7,1.7,0,0,1-.75-.375q-.328-.281-.656-.586l-.656-.609a6.64,6.64,0,0,0-.656-.539l-.094,1.406V1.5l-.234.469a1.231,1.231,0,0,0-.187.117.515.515,0,0,1-.211.094,1.086,1.086,0,0,1-.211.023ZM56.721.328q-.281-.047-.539-.07T55.619.234q-.3,0-.586-.023A.726.726,0,0,1,54.564,0a1.231,1.231,0,0,0-.117-.187A.515.515,0,0,1,54.353-.4a1.086,1.086,0,0,1-.023-.211V-.844l.234-.469a1.516,1.516,0,0,1,.375-.211,1.2,1.2,0,0,1,.422-.07H56.3l.8.094,4.359-.141v-.8q-.047-.891-.07-1.828t-.07-1.852q-.047-.914-.047-1.875t-.047-1.9a2.379,2.379,0,0,0-.656-.094,5.144,5.144,0,0,1-.68-.047,5.144,5.144,0,0,0-.68-.047h-.7l-1.172.141-.469-.234a1.232,1.232,0,0,0-.117-.187.515.515,0,0,1-.094-.211,1.086,1.086,0,0,1-.023-.211v-.234l.234-.469a1.107,1.107,0,0,1,.563-.3,3.235,3.235,0,0,1,.68-.07,4.8,4.8,0,0,0,.68-.047,2.646,2.646,0,0,1,.7,0l1.688.141v-1.242q0-.633.023-1.242t.023-1.219a2.055,2.055,0,0,1,.328-1.125,1.231,1.231,0,0,0,.188-.117.515.515,0,0,1,.211-.094,1.087,1.087,0,0,1,.211-.023h.234l.469.234a1.3,1.3,0,0,0,.117.258.729.729,0,0,1,.094.258,1.708,1.708,0,0,1,.023.281v.281L63-11.766l3,.047,1.266-.094.469.234a1.231,1.231,0,0,0,.117.188.515.515,0,0,1,.094.211,1.086,1.086,0,0,1,.023.211v.234l-.234.469a1.75,1.75,0,0,1-.656.258,6.147,6.147,0,0,1-.75.094q-.375.023-.75.023h-.75L63.1-9.937v3.047l.188,5.2h1.781q.516-.047,1.008-.07t.984-.023H69.1l.469.234a1.231,1.231,0,0,0,.117.188.515.515,0,0,1,.094.211,1.086,1.086,0,0,1,.023.211V-.7l-.234.469A15.206,15.206,0,0,1,66.4.094q-1.617,0-3.211.047L59.978.234ZM83.745,2.156l-.469-.234a3.386,3.386,0,0,1-.352-1.43Q82.9-.281,82.9-1.031V-2.555q0-.773-.047-1.523h-.094q-.516.516-.961,1.031a11.9,11.9,0,0,1-.984,1.008q-.539.492-1.031,1.008T78.823,0a.624.624,0,0,1-.211.141l-.234.094a.688.688,0,0,1-.258.047h-.281L77.37.047a1.231,1.231,0,0,0-.117-.187.515.515,0,0,1-.094-.211,1.086,1.086,0,0,1-.023-.211V-.8l.234-.469q.609-.516,1.219-1.125t1.2-1.219l1.172-1.219a8.324,8.324,0,0,0,1.008-1.266q-.609,0-1.219-.047t-1.219-.047H78.308a1.833,1.833,0,0,1-1.078-.328,1.231,1.231,0,0,0-.117-.187.515.515,0,0,1-.094-.211A1.086,1.086,0,0,1,77-7.125v-.234l.234-.469a1.231,1.231,0,0,0,.188-.117.515.515,0,0,1,.211-.094,1.192,1.192,0,0,1,.234-.023h.258a9.329,9.329,0,0,0,1.148.023,7.353,7.353,0,0,1,1.172.047,9.827,9.827,0,0,0,1.172.07h1.2a1.779,1.779,0,0,0,.117-.516q.023-.281.023-.562v-1.078l-.047-.234H81.5l-.609.047-.75-.047-.469.047a.837.837,0,0,0-.211-.07l-.234-.047a.737.737,0,0,1-.234-.094q-.117-.07-.211-.117-.047-.094-.117-.211a.737.737,0,0,1-.094-.234,1.192,1.192,0,0,1-.023-.234v-.258q.141-.891.234-1.781t.234-1.8q.141-.914.234-1.8a3.263,3.263,0,0,1,.656-1.641q.141-.094.258-.164a1.64,1.64,0,0,1,.234-.117.757.757,0,0,1,.281-.047h.3q.938.141,1.875.188t1.875.023a10.438,10.438,0,0,1,1.852.117,10.687,10.687,0,0,1,1.758.422l.188.188a4.576,4.576,0,0,1,.375,1.594q.047.844.117,1.664t.164,1.664q.094.844.141,1.688l-.234.469-.562.516a1.231,1.231,0,0,0-.187.117.516.516,0,0,1-.211.094,1.086,1.086,0,0,1-.211.023h-.234a4.665,4.665,0,0,0-.7-.141q-.375-.047-.75-.07t-.75-.023h-.75v.234l.047,1.547-.047.563a5.829,5.829,0,0,1,1.172.023q.563.07,1.148.094t1.172.023h1.2l.422-.047.469.234q.047.094.117.211a.737.737,0,0,1,.094.234,1.192,1.192,0,0,1,.023.234v.258l-.234.469a.994.994,0,0,1-.656.234h-2.3L85.62-6.187v.094l1.313,1.5,1.219.891a1.159,1.159,0,0,0,.352.375,2.076,2.076,0,0,1,.4.352,2.076,2.076,0,0,0,.4.352q.211.141.445.281v.094h.094a.588.588,0,0,0,.141.234.892.892,0,0,1,.164.234.624.624,0,0,1,.07.281q0,.141,0,.281l-.234.469a1.231,1.231,0,0,0-.187.117.515.515,0,0,1-.211.094,1.192,1.192,0,0,1-.234.023h-.258L88.62-.75l-.094-.234h-.094v-.094a4.665,4.665,0,0,1-.7-.539q-.328-.3-.68-.586l-.7-.562q-.352-.281-.68-.562l-.984-.984v.844q.047.609.047,1.219v1.242q0,.633.047,1.242t.047,1.219l-.234.469a1.231,1.231,0,0,0-.187.117.515.515,0,0,1-.211.094,1.086,1.086,0,0,1-.211.023Zm-8.906-.562a1.286,1.286,0,0,0-.164-.07q-.07-.023-.164-.047a.521.521,0,0,1-.164-.07,1.532,1.532,0,0,0-.164-.094,4.563,4.563,0,0,1-.352-1.9q.023-1.008-.047-2.016t-.07-2.016V-6.609L74-10.875H73.9l-.562.938a4.493,4.493,0,0,0-.445,1.008q-.164.539-.375,1.055t-.445.984a1.231,1.231,0,0,0-.187.117.515.515,0,0,1-.211.094,1.192,1.192,0,0,1-.234.023h-.258l-.469-.234a1.231,1.231,0,0,0-.117-.187.515.515,0,0,1-.094-.211,1.086,1.086,0,0,1-.023-.211v-.234a13.63,13.63,0,0,1,1.336-3.187q.867-1.5,1.734-2.977t1.664-3q.8-1.523,1.594-3.023A1.231,1.231,0,0,0,77-20.039a.515.515,0,0,1,.211-.094,1.087,1.087,0,0,1,.211-.023h.234l.469.234a1.231,1.231,0,0,0,.117.188.515.515,0,0,1,.094.211,1.192,1.192,0,0,1,.023.234v.258q-.328.656-.633,1.289t-.656,1.289q-.352.656-.7,1.289t-.68,1.289h.094a1.89,1.89,0,0,1,.164.3.883.883,0,0,1,.07.352v.75q-.141,1.078-.234,2.2t-.164,2.25q-.07,1.125-.07,2.273v2.273a5.884,5.884,0,0,1,.094,1.055q0,.539.023,1.078t.023,1.1A6.019,6.019,0,0,0,75.776.844l-.234.469a1.532,1.532,0,0,0-.164.094,1.532,1.532,0,0,1-.164.094.416.416,0,0,1-.187.047A.416.416,0,0,0,74.839,1.594ZM87.448-12.047v-.234l-.422-4.359a8.8,8.8,0,0,0-1.453-.164q-.75-.023-1.5-.023t-1.453-.047q-.7-.047-1.453-.094-.141.609-.234,1.2t-.164,1.2l-.141,1.219q-.07.609-.164,1.219l.984.047,4.641-.094ZM109.5,1.969l-.469-.234a1.365,1.365,0,0,1-.258-.727,6.92,6.92,0,0,0-.094-.8,4.712,4.712,0,0,1-.07-.82,2.251,2.251,0,0,0-.141-.8,5.013,5.013,0,0,0-1.008-.187,7.106,7.106,0,0,1-1.031-.164A5.47,5.47,0,0,0,105.4-1.9q-.539-.023-1.1-.023a6.367,6.367,0,0,1-.914.117q-.445.023-.914.023h-1.828l-.094,1.688.047,1.219-.234.469a1.231,1.231,0,0,0-.187.117.515.515,0,0,1-.211.094,1.086,1.086,0,0,1-.211.023h-.234l-.469-.234A1.95,1.95,0,0,1,98.84,1.1a2.133,2.133,0,0,1-.07-.562q0-.3-.023-.586t-.023-.562q.094-1.078.188-2.133t.258-2.086q.164-1.031.258-2.109A6.669,6.669,0,0,1,99.941-9a1.106,1.106,0,0,1,.516-.234q.281-.047.586-.117a2.01,2.01,0,0,1,.609-.047q.3.023.633.023a6.528,6.528,0,0,0,1.758.141,8.134,8.134,0,0,1,1.758.094q.844.141,1.688.3a6.961,6.961,0,0,1,1.641.539V-8.2h.094a14.2,14.2,0,0,1,.469,2.32q.141,1.2.328,2.367t.352,2.367q.164,1.2.211,2.414l-.234.469a1.231,1.231,0,0,0-.187.117.515.515,0,0,1-.211.094,1.086,1.086,0,0,1-.211.023Zm-1.312-5.344V-3.8l-.094-.328a5.536,5.536,0,0,0-1.711-.3q-.914-.023-1.828-.07t-1.781-.164a9.8,9.8,0,0,0-1.8-.07l-.141,1.125h2.625q.281-.047.586-.094a4,4,0,0,1,.609-.047h1.2q.281.094.563.164t.563.117q.281.047.586.07T108.191-3.375Zm-.375-2.766v-.234l-.094-.469q-.75-.141-1.5-.352a4.855,4.855,0,0,0-1.594-.164,9.192,9.192,0,0,1-1.617-.047,13.039,13.039,0,0,0-1.57-.094.261.261,0,0,0-.141.211,1.192,1.192,0,0,1-.023.234l-.047.234a1.317,1.317,0,0,0-.023.258,8.146,8.146,0,0,1,1.641.07q.8.117,1.641.164t1.664.047a7.037,7.037,0,0,1,1.617.188ZM110.488-8.2l-.469-.234a1.251,1.251,0,0,1-.234-.328,3.9,3.9,0,0,1-.164-.375,2.419,2.419,0,0,0-.164-.352q-.094-.164-.187-.352-.937-.047-1.9-.117l-1.922-.141a16.475,16.475,0,0,0-1.969-.023q-1.008.047-1.992,0-.375.047-.727.07t-.727.023q-.375,0-.75.023a3.3,3.3,0,0,0-.7.117,1.286,1.286,0,0,0-.164-.07q-.07-.023-.164-.047a.521.521,0,0,1-.164-.07,1.533,1.533,0,0,0-.164-.094,1.232,1.232,0,0,0-.117-.187.515.515,0,0,1-.094-.211,1.192,1.192,0,0,1-.023-.234v-.258a4.749,4.749,0,0,1,.633-1.078q.4-.516.8-1.008a12.344,12.344,0,0,1,.867-.961l.938-.937.563-.562H99.473a4.662,4.662,0,0,1-.492.07q-.258.023-.516.023a2.505,2.505,0,0,0-.492.047l-.469.094a1.286,1.286,0,0,0-.164-.07q-.07-.023-.164-.047a.521.521,0,0,1-.164-.07,1.532,1.532,0,0,0-.164-.094,1.232,1.232,0,0,0-.117-.187.515.515,0,0,1-.094-.211,1.086,1.086,0,0,1-.023-.211V-16.5l.234-.469a2.9,2.9,0,0,1,1.289-.352q.68-.023,1.383-.07t1.406-.047h1.406l1.078.094a4.8,4.8,0,0,0,.047-.68v-.68a3.124,3.124,0,0,1,.07-.656,1.107,1.107,0,0,1,.3-.562,1.231,1.231,0,0,0,.188-.117.529.529,0,0,1,.234-.094,1.474,1.474,0,0,1,.234-.023h.234l.469.234a1.231,1.231,0,0,0,.117.188.515.515,0,0,1,.094.211,1.192,1.192,0,0,1,.023.234v.258a.93.93,0,0,0-.094.422v.469q0,.234-.023.469t-.023.469a15.482,15.482,0,0,0,1.711.188l1.734.094q.867.047,1.711.164a11.33,11.33,0,0,1,1.641.352,1.231,1.231,0,0,0,.117.188.515.515,0,0,1,.094.211,1.086,1.086,0,0,1,.023.211v.234l-.234.469a2.62,2.62,0,0,1-.281.164.993.993,0,0,1-.281.094,1.856,1.856,0,0,1-.3.023h-.352a9.49,9.49,0,0,0-1.664-.234l-1.734-.094a15.482,15.482,0,0,1-1.711-.187,10.534,10.534,0,0,0-1.734-.141,4.812,4.812,0,0,0-.914.867,6,6,0,0,1-.891.891,8.351,8.351,0,0,0-.937.891q-.445.492-.82.961h.328A8,8,0,0,1,102-11.953h3.8q.281.047.586.094t.609.07q.3.023.609.023h.633v-.141q-.094-.281-.211-.586t-.258-.586q-.141-.281-.281-.539a1.03,1.03,0,0,1-.094-.633l.234-.469a1.231,1.231,0,0,0,.188-.117.515.515,0,0,1,.211-.094,1.086,1.086,0,0,1,.211-.023h.234l.469.234a7.39,7.39,0,0,1,.7,1.406,15.11,15.11,0,0,0,.633,1.453q.352.7.773,1.406a3.734,3.734,0,0,1,.516,1.5l-.234.516a1.231,1.231,0,0,0-.187.117.515.515,0,0,1-.211.094,1.086,1.086,0,0,1-.211.023Zm22.665,9.75L130.5,1.266q-1.336-.141-2.7-.164l-2.7-.047q-1.336-.023-2.7-.07-.516.047-1.031.047t-1.008.047q-.492.047-1.008.07a6.527,6.527,0,0,0-.984.117l-.469-.234a1.437,1.437,0,0,1-.141-.258q-.047-.117-.094-.258a.958.958,0,0,1-.047-.3v-.3a35.447,35.447,0,0,0,.258-4.664q-.023-2.367.117-4.711t.164-4.687a19.686,19.686,0,0,1,.586-4.594l.75-.375h5.25l1.641.094q.844.047,1.688.047t1.664.047q.82.047,1.664.047l1.031-.047a6.312,6.312,0,0,1,.938.07,6.634,6.634,0,0,0,.984.07q.516,0,.984.047a1.655,1.655,0,0,1,.844.328,5.3,5.3,0,0,1,.445,1.758q.07.914.07,1.875t0,1.9q0,.938.047,1.875l-.047,1.828q.047,1.266.117,2.508T136.95-4.2q.047,1.242.117,2.484T137.231.75L137,1.219a1.891,1.891,0,0,1-.3.164.883.883,0,0,1-.352.07,3.02,3.02,0,0,0-.375.023,3.021,3.021,0,0,1-.375.023l-1.031-.047Zm2.156-1.922V-.8q-.094-1.266-.141-2.531t-.117-2.531q-.07-1.266-.117-2.555t-.047-2.555l.047-1.172q-.047-.609-.047-1.219t0-1.219q0-.609-.023-1.219a9.3,9.3,0,0,0-.117-1.172l-3.281-.141-.891.047-2.3-.094v1.125a7.624,7.624,0,0,1,1.031.07q.516.07,1.031.117t1.031.07a2.1,2.1,0,0,1,.938.258,1.231,1.231,0,0,0,.117.188.515.515,0,0,1,.094.211,1.089,1.089,0,0,1,.023.211v.234l-.234.469a1.232,1.232,0,0,0-.187.117.515.515,0,0,1-.211.094l-.234.047a1.317,1.317,0,0,1-.258.023,4.321,4.321,0,0,1-.8-.07,4.189,4.189,0,0,0-.773-.07,3.177,3.177,0,0,1-.773-.094,2.243,2.243,0,0,0-.8-.047v.8q.75,0,1.453.047t1.406.117q.7.07,1.43.07a3.149,3.149,0,0,1,1.336.281,1.231,1.231,0,0,0,.117.188.515.515,0,0,1,.094.211,1.089,1.089,0,0,1,.023.211v.234l-.234.469q-.094.047-.211.117a.729.729,0,0,1-.258.094q-.141.023-.258.047a1.317,1.317,0,0,1-.258.023q-1.078-.047-2.133-.164T128.63-11.6a14.5,14.5,0,0,1-2.18-.211,10.011,10.011,0,0,0-2.156-.141q-.422.047-.867.07t-.867.07q-.422.047-.844.117a3.365,3.365,0,0,1-.891.023l-.469-.234a1.231,1.231,0,0,0-.117-.187.515.515,0,0,1-.094-.211,1.086,1.086,0,0,1-.023-.211v-.234l.234-.469a3.171,3.171,0,0,1,1.2-.328q.633-.047,1.289-.117t1.313-.094q.656-.023,1.313-.023l.938.141v-.75l-2.25-.047-.7.047a.885.885,0,0,0-.281-.047.885.885,0,0,1-.281-.047q-.141-.047-.258-.094a1.437,1.437,0,0,1-.258-.141,1.232,1.232,0,0,0-.117-.187.515.515,0,0,1-.094-.211,1.086,1.086,0,0,1-.023-.211v-.234l.234-.469q.141-.094.258-.164a.492.492,0,0,1,.258-.07h.609l.609.047,1.688-.047.609.047V-17.2q-.75-.047-1.523-.07t-1.547-.023h-3.117q-.187,2.063-.234,4.125t-.164,4.148q-.117,2.086-.094,4.172A40.736,40.736,0,0,1,119.559-.7h.422l3.8-.141,2.156.094V-.937l-.047-.281.047-3.422h-.047l-2.25,1.594a3.478,3.478,0,0,1-.4.258,2.3,2.3,0,0,0-.4.281,3.733,3.733,0,0,0-.352.352,1.458,1.458,0,0,0-.258.422,1.231,1.231,0,0,0-.187.117.515.515,0,0,1-.211.094,1.192,1.192,0,0,1-.234.023h-.258l-.469-.234a1.231,1.231,0,0,0-.117-.187.515.515,0,0,1-.094-.211,1.086,1.086,0,0,1-.023-.211v-.234a.813.813,0,0,1,.164-.328q.117-.141.234-.3a2.416,2.416,0,0,1,.258-.3l.281-.281.844-.656q.422-.328.844-.633a10.264,10.264,0,0,1,.867-.562A7.68,7.68,0,0,0,125-6.234v-.094h-.891a1.2,1.2,0,0,1-.422-.07,1.516,1.516,0,0,1-.375-.211,1.231,1.231,0,0,0-.117-.187.515.515,0,0,1-.094-.211,1.086,1.086,0,0,1-.023-.211v-.234l.188-.937q.094-.469.141-.937t.117-.961a2.2,2.2,0,0,1,.3-.867,2.62,2.62,0,0,1,.281-.164,1.01,1.01,0,0,1,.328-.094,2.843,2.843,0,0,1,.352-.023h.352q.75,0,1.57.047l1.594.094q.773.047,1.547.117a3.97,3.97,0,0,1,1.43.4,2.345,2.345,0,0,1,.281.938q.047.516.07,1.078t.07,1.078l.094,1.031-.234.469a1.231,1.231,0,0,0-.187.117.515.515,0,0,1-.211.094,1.087,1.087,0,0,1-.211.023h-.234a1.179,1.179,0,0,0-.516-.164l-.562-.047q-.281-.023-.586-.023h-.586v.047l.141.094a1.1,1.1,0,0,0,.352.3q.211.117.4.234t.4.234q.211.117.4.211.281-.187.539-.4t.539-.4a4.314,4.314,0,0,1,.586-.328,1.228,1.228,0,0,1,.68-.094l.469.234a1.231,1.231,0,0,0,.117.188.515.515,0,0,1,.094.211,1.089,1.089,0,0,1,.023.211V-5.2l-.234.469-1.172.7-.047.094-.187.141v.141l.422.328.609.609.281.234a1.231,1.231,0,0,0,.117.188.515.515,0,0,1,.094.211,1.089,1.089,0,0,1,.023.211v.234l-.234.469a1.231,1.231,0,0,0-.187.117.515.515,0,0,1-.211.094,1.193,1.193,0,0,1-.234.023h-.258l-.562-.281v-.094h-.094q-.375-.422-.773-.82l-.8-.8a5.338,5.338,0,0,0-.867-.7q-.469-.3-.938-.586h-.141L127.763-.75a12.465,12.465,0,0,1,1.547.094q.75.094,1.547.141t1.547.141a12.465,12.465,0,0,0,1.547.094Zm-5.484-7.594V-9l-.094-.281a4.853,4.853,0,0,0-1.078-.164l-1.125-.047q-.562-.023-1.125-.07a6.762,6.762,0,0,0-1.125,0L125.091-8.2h.234l.7-.047a5.482,5.482,0,0,0,.938.117l.984.047.938.047Q129.356-8.016,129.825-7.969Z" transform="translate(514.4 166)" fill="#d5c770"/>
      <g id="logomark" transform="translate(886 335)">
        <g id="グループ_4905" data-name="グループ 4905" transform="translate(-363.981 -314)">
          <g id="グループ_4904" data-name="グループ 4904" clip-path="url(#clip-path)">
            <path id="パス_28485" data-name="パス 28485" d="M-309.872-313.626a18.227,18.227,0,0,0-9.955,10.034,5.025,5.025,0,0,0-.414,1.547,1.116,1.116,0,0,0,.542.447c.239.112.463.208.495.224a7.222,7.222,0,0,1-.447,1.228l-.5,1.2-1.436-1.085a24.333,24.333,0,0,0-5.886-3.254,23.973,23.973,0,0,0-5.248-1.213,1.682,1.682,0,0,1-.8-.191c-.7-.431-4.978.829-8.152,2.425a34.1,34.1,0,0,0-7.865,5.535c-.558.59-.59.67-.414,1.053.255.558.494.542,1.212-.1.623-.542,2.345-1.866,2.744-2.106.128-.063,0,.191-.255.575a15.433,15.433,0,0,0-1.9,13.8,19.478,19.478,0,0,0,3.733,6.476c.558.686.925,1.244.8,1.244a8.754,8.754,0,0,1-1.244-.351,14.137,14.137,0,0,0-5.982-.048,76.339,76.339,0,0,0-8.375,2.712,9.885,9.885,0,0,0-2.871,2.855A19.555,19.555,0,0,0-363.3-268.3l-.7,1.532v11.087l.686,1.308a97.366,97.366,0,0,0,5.456,8.3,22.26,22.26,0,0,0,7.561,5.5c.814.4,2.7,1.1,4.164,1.6l2.664.877-.447,1.308c-1.1,3.223-1.244,6.525-.366,8.248a10.772,10.772,0,0,0,2.7,2.775c2.345,1.484,4.834,1.978,10.05,1.994,4.339,0,4.674-.063,8.917-1.516,2.808-.957,5.392-1.547,5.631-1.292a26.691,26.691,0,0,1-1.946,4.9c-.383.574-.383.59-1.946.75a58.515,58.515,0,0,1-8.423.367c-5.216.015-6.987.175-9.093.845-3.27,1.037-7.338,5.041-9.492,9.332a3.086,3.086,0,0,0-.447,2.122c.08,1.516.191,1.6,2.393,1.739,5.727.383,11.358.526,20.308.51,10.561-.016,18.648-.239,19.526-.543.4-.143.623-.143.814-.016a33.832,33.832,0,0,0,5.2.112c20.706-.271,26.449-.462,34.984-1.133,1.708-.127,3.637-.3,4.307-.383a3.776,3.776,0,0,1,1.484.016,2.248,2.248,0,0,0,1.58-.016c.366-.208.383-.558.047-1.2-.143-.271-.654-1.26-1.132-2.2-1.739-3.43-5.121-6.205-9.843-8.088-1.8-.7-5.121-1.133-9.588-1.228a29.5,29.5,0,0,0-8.216.622,7.925,7.925,0,0,1-2.122.224c-.319-.08-.718-.543-1.611-1.9a19.482,19.482,0,0,1-2.3-4.036,15.167,15.167,0,0,1,2.138.479c11.406,3.1,19.589,2.233,23.976-2.552a13.522,13.522,0,0,0,2.744-5.248,9.676,9.676,0,0,0-.973-5.839l-.447-.893,1.133-.351a40.08,40.08,0,0,0,13.767-7.5,25.915,25.915,0,0,0,5.806-7.115,13,13,0,0,0,.781-7.035c-.67-3.653-4.945-6.955-10.066-7.8-.335-.048-.606-.143-.606-.208a3.283,3.283,0,0,1,1.021-1.388c.766-.51,2.042-2.855,2.648-4.882a19.982,19.982,0,0,0,.846-4.658,7.081,7.081,0,0,1,.175-1.739c.447-2.345.3-3.111-.654-3.558-.51-.239-.543-.3-.447-.846a27.545,27.545,0,0,0-.143-6.062,17.281,17.281,0,0,0-2.09-4.913,17.408,17.408,0,0,0-4.387-4.243,28.891,28.891,0,0,0-9.572-3.908c-4.4-1.117-7.21-1.133-10.577-.032a23.428,23.428,0,0,0-4.993,2.3,6.649,6.649,0,0,1-1.356.718c-.127,0-.414-.527-.685-1.244-1.979-5.328-4.93-9.125-7.083-9.125a1.023,1.023,0,0,0-.67.239c-.176.208-.112.335.4.766a17.544,17.544,0,0,1,3.589,3.94,36.331,36.331,0,0,1,2.473,5.759l.287.909-.543.494a2.22,2.22,0,0,1-.718.495c-.112,0-.255-.51-.366-1.213a12.579,12.579,0,0,0-2.154-5.152,11.825,11.825,0,0,0-3.622-3.925,11.839,11.839,0,0,0-7-2.106,17.641,17.641,0,0,0-8.614,1.866,20.989,20.989,0,0,0-4.9,3.733,13.724,13.724,0,0,1-1.627,1.516c-.239.144-.782.463-1.2.718a2.621,2.621,0,0,1-.8.4,4.566,4.566,0,0,1,.606-1.053,16.58,16.58,0,0,1,6.062-5.727,10.6,10.6,0,0,1,3.51-.973c1.021-.16,1.1-.447.224-.846a3.617,3.617,0,0,0-3.27-.032Zm10.321,4.674a21.46,21.46,0,0,1,5.185,2.233c1.436.973,1.866,1.516,3.174,4.083,1.532,3.016,1.851,4.052,1.994,6.349a17.209,17.209,0,0,0,.239,2.17,1.8,1.8,0,0,0,.591.526c.462.272.494.272,1.132-.047a2.046,2.046,0,0,1,.734-.256c.048.048-.112.351-.351.686a2.665,2.665,0,0,0-.415.8c0,.191.814.67,1.148.67a5.19,5.19,0,0,0,1.228-1.117,27.215,27.215,0,0,1,5.312-4.355,17.518,17.518,0,0,1,9.939-2.456c2.664.111,3.94.479,7.9,2.281,2.792,1.276,3.015,1.419,3.35,2.01.287.527.335.718.191.942s-.064.75.351,2.408a21.617,21.617,0,0,1,.846,7.179c-.239,6.286-3.047,13.081-6.285,15.2a14,14,0,0,0-1.308.941c-.7.638-.239,1.755.925,2.218a14.954,14.954,0,0,0,2.505.51A59.125,59.125,0,0,1-254-264.764a16.858,16.858,0,0,1,4.467,2.169c.957.75,1.213,1.436,1.213,3.43.015,2.569-1.165,5.041-3.558,7.45-3.494,3.542-8.072,5.887-14.884,7.673-2.935.766-3.015.8-3.079,1.213s.829.909,2.074,1.18l.894.208-.415.431c-.351.367-.462.4-.574.208a1.683,1.683,0,0,0-.686-.463c-.814-.351-1.069-.08-.942.973a11.81,11.81,0,0,1-.733,4.148c-.431,1.516-.75,2.138-.942,1.8s-1-.16-2.44.51a24.22,24.22,0,0,1-8.631,2.329l-1.755.1-.925-.558c-1.244-.781-1.467-.829-1.85-.447-.367.367-.3.8.223,1.292a10.341,10.341,0,0,0,3.765,1.372c1.8.207,4.4-.335,8.231-1.723a5.409,5.409,0,0,0,2.744-1.564l.862-.877-.686,1.324a9.253,9.253,0,0,1-2.919,3.445,13.8,13.8,0,0,1-2.425.845c-1.675.431-1.914.447-5.424.447-5.663,0-7.657-.415-12.985-2.664-2.393-1.005-4.1-2.026-3.973-2.361a14.892,14.892,0,0,1,1.324-1.133,47.08,47.08,0,0,0,5.727-5.7,23.172,23.172,0,0,0,2.984-5.025,4.493,4.493,0,0,0,.431-2.425,6.272,6.272,0,0,0-2.01-4.036c-1.419-1.467-3.414-2.026-6.174-1.77-2.616.255-4.8,1.2-7.7,3.35l-1.962,1.451-.909-.861a13.763,13.763,0,0,0-5.424-3.318,6.331,6.331,0,0,0-2.648-.287c-1.708.064-2.346.367-3.877,1.787a7.226,7.226,0,0,0-2.441,5.775c0,3.158.957,4.562,6.429,9.524a7.655,7.655,0,0,1,1.547,1.691c0,.622-3.254,2.552-4.882,2.888a15.994,15.994,0,0,0-2.169.654,15.868,15.868,0,0,1-6.748,1.164,13.659,13.659,0,0,1-4.148-.351c-3.573-.909-4.993-2.281-5.153-5.009a7.6,7.6,0,0,1,.814-3.956,3.851,3.851,0,0,0,.462-1.946c-.032-1.452-.16-1.58-1.451-1.467a4.623,4.623,0,0,1-2.346-.3c-.685-.223-1.579-.479-1.962-.59a33.982,33.982,0,0,1-3.589-1.659c-2.569-1.292-2.888-1.516-2.936-1.883-.048-.335-.16-.447-.558-.543-2.154-.462-4.02-2.632-6.461-7.482a33.935,33.935,0,0,1-2.92-7.37l-.335-1.372.351-.973a10.537,10.537,0,0,1,5.68-5.7c1.85-.845,5.647-1.42,9.332-1.42,1.85,0,2.313-.048,2.951-.335a2.429,2.429,0,0,1,1.356-.223c.494.08.606.048.829-.3.4-.591.335-1.053-.239-1.643-.271-.287-.463-.558-.431-.606a1.665,1.665,0,0,1,.654.112c1.133.351,1.516-.367.527-.989-.462-.287-.527-.4-.4-.638.271-.51.176-.7-.814-1.516-1.755-1.452-3.031-3.8-3.924-7.258-.59-2.313-.431-3.414,1.165-7.721,1-2.68,1.691-4.084,2.265-4.659a8.236,8.236,0,0,1,4.131-1.515,5.794,5.794,0,0,0,1.691-.431c.239-.223.542-.223,2.792.016,4.9.51,6.062,1.005,9.253,3.892,1.451,1.324,1.818,1.452,2.408.83l.3-.335.287.494a.779.779,0,0,0,.8.495c.558,0,.7-.208.7-1.005a14.439,14.439,0,0,1,2.377-6.157,33.607,33.607,0,0,1,5.663-6.222,14.955,14.955,0,0,1,5.041-2.138,18.887,18.887,0,0,1,4.148.064Zm-40.041,8.423c-.223.415-.814.83-1.005.7-.1-.048.064-.3.351-.558.591-.527.91-.59.654-.144Zm14.629.574c.894.686.59.718-.973.112-1.165-.447-1.468-.766-.862-.861.527-.1.989.112,1.835.75Zm62.264.08c.208.143.208.16,0,.16a1.134,1.134,0,0,1-.479-.16c-.208-.143-.208-.16,0-.16a1.134,1.134,0,0,1,.479.16Zm11.662,17.261-.144.527-.015-.51a2.325,2.325,0,0,1,.1-.8c.191-.479.256.143.064.781ZM-255.761-280c-.208.7-.527,1.26-.351.622.048-.176.128-.558.191-.846.064-.271.176-.51.239-.51.08,0,.048.335-.08.734Zm-86.623,5.009.462.479h-.685c-.558,0-.671-.048-.591-.255a1.811,1.811,0,0,0,.1-.479c0-.351.223-.271.718.255Zm-2.935-.143c1.117.239.75.414-.942.446a25,25,0,0,0-13.049,3.637c-.431.271-.431.271-.239-.063.479-.925,2.457-1.883,6.078-2.983,1.356-.4,2.935-.846,3.51-.957a13.809,13.809,0,0,1,4.643-.08Zm1.26,2.7c-.3.064-1.388.176-2.393.239-3.541.208-6.524.877-8.247,1.866-.463.256-.846.4-.846.319,0-.191.846-.925,1.419-1.212a25.76,25.76,0,0,1,5.281-1.133c1.883-.223,5.711-.287,4.786-.08Zm87.293,1.308c-.112.112-.191.128-.191.032,0-.223.191-.414.3-.3.033.048-.015.176-.112.271Zm-100.183,16.862a9.966,9.966,0,0,1,.718,1.978c-.08.239-1.165-1.308-1.579-2.233a14.968,14.968,0,0,1-.909-3.239c0-.319.829,1.293,1.77,3.493Zm62.5,4.674a3.08,3.08,0,0,1,1.755,2.425c0,1-1.739,3.925-4.259,7.195a34.928,34.928,0,0,1-5.344,5.392c-.543.4-1.213.893-1.452,1.085a1.057,1.057,0,0,1-.75.255c-.271-.063-.319,0-.319.383,0,.255-.08.462-.16.462-.191,0-3.733-2.106-5.185-3.079a40.54,40.54,0,0,1-5.837-4.74c-2.137-2.106-2.44-2.744-2.456-5.185,0-2.68.718-3.51,3.031-3.478,2.137.032,3.829.846,6.524,3.159,2.792,2.393,2.792,2.393,3.908,1.005a20.337,20.337,0,0,1,6.764-4.993,6.167,6.167,0,0,1,3.781.112Zm40.2,1.946a1,1,0,0,1-.271.272c-.256.207-.271.191-.064-.064s.335-.335.335-.207Zm-94.312,5.392a25.826,25.826,0,0,0,5.966,2.2.29.29,0,0,1,.281.216.29.29,0,0,1-.137.326,8.213,8.213,0,0,1-2.027-.479c-5.137-1.547-8.279-3.222-11.023-5.855a10,10,0,0,1-1.324-1.4,27.28,27.28,0,0,1,3.079,1.9c1.675,1.117,4.02,2.5,5.185,3.1Zm91.76-3.8a22.049,22.049,0,0,1-3.366,2.026,13.669,13.669,0,0,1-2.074.829,7.755,7.755,0,0,1-2.664.351,15.5,15.5,0,0,1,1.739-.67c.909-.3,2.7-1.021,3.972-1.564s2.329-1.005,2.361-1.021c.015-.016.032.015.032.047Zm-82.906,6.588a.842.842,0,0,1-.4,0c-.112-.048-.032-.08.191-.08s.3.032.208.08Zm73.383,1.133a8.175,8.175,0,0,1,.909,3.558,7.549,7.549,0,0,1-1.085,3.541c-.287.287-.3.271-.1-.718a16.585,16.585,0,0,0-.511-7.227c-.239-.59.335.016.782.846Zm-74.26.3a15.341,15.341,0,0,0-1.021,2.6,11.808,11.808,0,0,0,.016,4.547,11.36,11.36,0,0,0,2.361,4.259c.813.734.51.814-.718.191a6.933,6.933,0,0,1-2.76-2.792c-.431-.813-.431-.909-.351-2.776a13.525,13.525,0,0,1,1.148-5.233c.383-.813.479-.909.909-.909.256,0,.447.048.415.111Zm71.659,5.728a3.457,3.457,0,0,1-1.467,2.154c-.5.255-.51.063-.08-.591a13.59,13.59,0,0,0,1.021-2.2c.606-1.6.606-1.612.654-.925a6.864,6.864,0,0,1-.128,1.564Zm-68.182,1.77a10.075,10.075,0,0,0,4.658,2.361c1.9.415,2.01.495.925.638a8.562,8.562,0,0,1-4.435-.51c-1.931-.909-2.68-1.946-2.68-3.654l.016-.941.335.622a7.087,7.087,0,0,0,1.181,1.484Zm29.8,1.4c.1.383-.064,6.365-.383,14.214-.08,2.089-.16,3.892-.16,3.988,0,.127-2.074.207-6.891.271-3.8.063-9.221.16-12.029.208-5.232.112-14.979-.176-15.155-.431-.287-.462,1.723-3,3.159-4.02,2.648-1.85,4.882-2.217,11.055-1.8a21.09,21.09,0,0,0,4.866-.207c2.552-.3,5.839-.75,6.62-.91.256-.047.829-1.18,2.632-5.2,1.26-2.84,2.616-5.823,2.983-6.62l.686-1.484,1.26.814c.862.542,1.293.925,1.356,1.18Zm5.807-1.4c.239.16.893.606,1.467,1.021a15.958,15.958,0,0,0,1.691,1.069c.606.3.8.574,2.058,2.92,2.345,4.355,4.8,8.136,5.743,8.886.7.558,2.377.718,5.982.622,1.8-.064,4.211-.223,5.344-.367a27.073,27.073,0,0,1,7.689-.016,9.466,9.466,0,0,1,4.116,2.329c1.675,1.5,1.691,1.563.75,1.675-1.9.239-5.28.431-10.529.574-8.789.239-10.449.319-13.113.654-3.366.414-7.242.75-10.146.877l-2.425.112-.1-1.5c-.064-.83-.1-5.12-.064-9.556s-.015-8.216-.08-8.407c-.112-.287-.032-.415.479-.75.734-.479.623-.463,1.133-.144Zm-20.228,2.2a13.467,13.467,0,0,1-3.318,1.5,24.822,24.822,0,0,1-8.3,1.2,7.927,7.927,0,0,1-3.015-.558c-.431-.16-.495-.526-.064-.383a20.53,20.53,0,0,0,4.212.558,38.377,38.377,0,0,0,8.343-1.739c2.041-.671,2.137-.7,2.137-.575Zm0,0" transform="translate(363.981 313.999)" fill="#d5c770"/>
          </g>
        </g>
        <path id="パス_28486" data-name="パス 28486" d="M-197.947-212.549a5.256,5.256,0,0,0-3.35,1.707c-.59.638-.638.766-.558,1.34.128.989.383,1.117.877.447a6.8,6.8,0,0,1,3.015-2.249,14.609,14.609,0,0,0,1.707-.909c.176-.287-.654-.447-1.691-.335Zm0,0" transform="translate(-136.253 -85.236)" fill="#d5c770"/>
        <path id="パス_28487" data-name="パス 28487" d="M-162.473-207.117c-.383.191-.527.367-.527.67,0,.606.415.973.941.814a3.229,3.229,0,0,0,1.723-1.053c.224-.351.224-.431.032-.558a3.34,3.34,0,0,0-2.169.128Zm0,0" transform="translate(-168.935 -89.616)" fill="#d5c770"/>
        <path id="パス_28488" data-name="パス 28488" d="M-214.995-176.574l-1.005.622v1.324c0,3.111.495,5.264,1.547,6.8,1.005,1.484,1.66,1.516,1.148.063a23.6,23.6,0,0,1-1.037-5.758c-.112-1.739-.112-1.771.319-2.409.431-.654.495-1.117.176-1.228a4.3,4.3,0,0,0-1.148.59Zm0,0" transform="translate(-124.39 -115.006)" fill="#d5c770"/>
        <path id="パス_28489" data-name="パス 28489" d="M267.957-174.317c0,.048.191.654.431,1.324a7.853,7.853,0,0,1,.447,3.558,11.317,11.317,0,0,1-.447,3.86,22.086,22.086,0,0,1-.909,2.7,6.7,6.7,0,0,0-.479,1.5c0,.846.973.877,1.675.064a20.906,20.906,0,0,0,1.851-5.615,11.237,11.237,0,0,0-.335-4.929c-.51-1.388-1.26-2.425-1.787-2.489-.256-.032-.447-.015-.447.032Zm0,0" transform="translate(-530.338 -117.36)" fill="#d5c770"/>
        <path id="パス_28490" data-name="パス 28490" d="M-64.886-170.219c-.4.4-.208,1.069.479,1.819a4.134,4.134,0,0,0,4.164,1.34c2.521-.383,3.637-1.4,2.616-2.361-.367-.351-1.228-.479-1.228-.191a5.823,5.823,0,0,1-2.265.718,2.832,2.832,0,0,1-2.329-.941c-.654-.591-1.1-.718-1.436-.383Zm0,0" transform="translate(-251.224 -120.691)" fill="#d5c770"/>
        <path id="パス_28491" data-name="パス 28491" d="M54.035-158.5c-.4.383.208,1.931.989,2.569a3.415,3.415,0,0,0,2.648,1.069c1.659,0,3.287-.574,3.812-1.34.591-.862.671-1.356.272-1.755-.479-.479-.91-.415-1.468.223a4.041,4.041,0,0,1-2.616,1.053c-.75.063-1.1-.128-1.978-1.053-.75-.829-1.341-1.1-1.66-.766Zm0,0" transform="translate(-351.241 -130.578)" fill="#d5c770"/>
        <path id="パス_28492" data-name="パス 28492" d="M-122.574-104.615c-.351,1.117-.351,1.244.208,2.807A17.413,17.413,0,0,0-113.337-92a37.382,37.382,0,0,0,10.576,2.824,34.591,34.591,0,0,0,9.349-.75A26.193,26.193,0,0,0-84.4-94.358a31.624,31.624,0,0,0,4.387-4.148c.3-.415.558-.575.861-.575a1.715,1.715,0,0,0,1.356-1.835c-.127-.542-.909-1.26-2.058-1.93-.527-.3-1.085-.638-1.228-.75-.5-.335-.829.208-.877,1.4a4.551,4.551,0,0,1-.3,1.547,13.786,13.786,0,0,1-5.12,5.264,32.789,32.789,0,0,1-13.209,3.031,16.2,16.2,0,0,1-6.7-1.021c-6.493-2.377-10.959-6-12.778-10.338-.51-1.26-1-1.755-1.722-1.755-.479,0-.527.048-.782.846Zm0,0" transform="translate(-202.709 -175.271)" fill="#d5c770"/>
        <path id="パス_28493" data-name="パス 28493" d="M-266.456-30.237a7.4,7.4,0,0,0-2.5,1.2c-.846.59-.942.718-.894,1.149a.623.623,0,0,0,.495.638c.51.176.479.192,2.361-1.117,1.356-.941,1.978-1.563,1.818-1.8-.1-.176-.67-.208-1.276-.064Zm0,0" transform="translate(-79.119 -238.419)" fill="#d5c770"/>
        <path id="パス_28494" data-name="パス 28494" d="M-303.693-5.718a2.2,2.2,0,0,0-.7,1.643,11.963,11.963,0,0,0,.558,5.791c1.069,3.493,1.93,4.9,3.621,5.871,1.612.925,1.962.414.654-.99A13.991,13.991,0,0,1-302.385.791a8.76,8.76,0,0,1-.4-3.829c.192-3.286.208-3.174-.08-3.239-.143-.032-.526.224-.829.558Zm0,0" transform="translate(-49.985 -258.631)" fill="#d5c770"/>
        <path id="パス_28495" data-name="パス 28495" d="M285.389,6.712c-.3.192-.1.734.622,1.691a7.578,7.578,0,0,1,.781,1.244c.367.941.128,2.473-.622,4.227-.319.718-.335.877-.143,1.005a1.634,1.634,0,0,0,1.547-.383,6.118,6.118,0,0,0,.989-3.6,4.226,4.226,0,0,0-1.452-3.446c-.813-.861-1.228-1.037-1.722-.734Zm0,0" transform="translate(-545.68 -269.434)" fill="#d5c770"/>
        <path id="パス_28496" data-name="パス 28496" d="M284.349,8.867c-.414.16-.383.223.319,1.132a4.865,4.865,0,0,1,1.117,3.143,6.433,6.433,0,0,1-1.4,3.941c-1.26,1.914-2.329,2.807-4.977,4.211-2.456,1.308-2.648,1.516-1.739,2.074.606.383.893.335,2.488-.415a32.16,32.16,0,0,0,4.93-3.238,17.721,17.721,0,0,0,2.106-3.494c.941-2.488.351-5.535-1.372-7.051-.574-.495-.845-.558-1.467-.3Zm0,0" transform="translate(-538.882 -271.237)" fill="#d5c770"/>
        <path id="パス_28497" data-name="パス 28497" d="M-250.88,88.693c-.479.191-.176.782.766,1.484,2.744,2.042,3.445,2.393,4.77,2.393.8,0,1.228-.287,1.053-.718a.443.443,0,0,0-.4-.239,13.142,13.142,0,0,1-3.781-2.074C-249.764,88.63-250.272,88.439-250.88,88.693Zm0,0" transform="translate(-94.886 -338.365)" fill="#d5c770"/>
        <path id="パス_28498" data-name="パス 28498" d="M-171.473,165.238c-.287.128-.527.319-.527.431a6.659,6.659,0,0,0,.957,2.744c.925,1.276,3.287,2.585,4.1,2.25.256-.1.239-.128-.112-.367a12.834,12.834,0,0,1-1.532-1.4c-1.228-1.228-1.6-1.962-1.451-2.855.128-.814-.543-1.18-1.436-.8Zm0,0" transform="translate(-161.371 -402.659)" fill="#d5c770"/>
        <path id="パス_28499" data-name="パス 28499" d="M325.547-279.131c-.1.271.462,1.292,1.818,3.334a16.108,16.108,0,0,1,2.935,6.541c.144,1.245.239,1.516.5,1.516.7,0,1.1-2.106.638-3.526-.638-1.962-4-7.434-4.866-7.88-.59-.3-.894-.3-1.021.016Zm0,0" transform="translate(-579.536 -29.104)" fill="#d5c770"/>
        <path id="パス_28500" data-name="パス 28500" d="M-297.379-274.791a30.124,30.124,0,0,0-11.757,7.689c-1.771,1.787-1.946,2.137-1.467,2.7.255.271.335.224,1.659-1.052a40.547,40.547,0,0,1,5.871-4.674c3.191-2.122,5.472-3.159,7.578-3.478.718-.112.75-.143.75-.654a.83.83,0,0,0-.351-.765c-.479-.335-.623-.319-2.281.239Zm0,0" transform="translate(-44.686 -32.566)" fill="#d5c770"/>
        <path id="パス_28501" data-name="パス 28501" d="M356.815-172.68a35.631,35.631,0,0,1-.957,7.817c-.75,3.462-1.532,5.472-2.823,7.275-.447.638-.51.813-.351,1.005a1.121,1.121,0,0,0,1.18.446c.686-.175,2.345-3.749,3.191-6.844a35.3,35.3,0,0,0,1.069-10.13l-.112-1.356-.59-.048-.606-.048Zm0,0" transform="translate(-602.286 -117.194)" fill="#d5c770"/>
        <path id="パス_28502" data-name="パス 28502" d="M-298.117-169.715c-.462,1.069-.047,4.578.766,6.668a7.773,7.773,0,0,0,2.106,3.143c1.037.7,1.069.383.176-1.436a19.465,19.465,0,0,1-1.627-5.966c-.176-1.6-.59-2.728-1.021-2.872-.1-.032-.287.175-.4.462Zm0,0" transform="translate(-55.211 -120.877)" fill="#d5c770"/>
        <path id="パス_28503" data-name="パス 28503" d="M336.178-43.2c-.208.191-.16.335.287.845a1.242,1.242,0,0,0,.781.495c1.037,0,4.339,1.883,5.886,3.366,1.914,1.8,2.409,3.111,2.409,6.365a11.062,11.062,0,0,1-.287,3.031,8.721,8.721,0,0,0-.319,1.276c-.048.431.463.335,1.1-.223.925-.8,1.244-1.947,1.244-4.483a7.9,7.9,0,0,0-.431-3.191c-.638-1.866-1.356-2.808-3.414-4.387-2.185-1.691-4.754-2.983-6.19-3.127a2.453,2.453,0,0,0-1.069.032Zm0,0" transform="translate(-588.381 -227.546)" fill="#d5c770"/>
        <g id="グループ_4907" data-name="グループ 4907" transform="translate(-363.981 -314)">
          <g id="グループ_4906" data-name="グループ 4906" clip-path="url(#clip-path)">
            <path id="パス_28504" data-name="パス 28504" d="M317.4,96.382a45.1,45.1,0,0,1-8.6,8.088,15.38,15.38,0,0,1-4.021,1.947c-.51.143-.781.287-.781.446a1.1,1.1,0,0,0,.638,1.133c.415.176.622.112,2.106-.606a31.255,31.255,0,0,0,11.311-9.7c1-1.34,1.132-1.85.542-2.233-.3-.207-.4-.127-1.2.925Zm0,0" transform="translate(-197.455 -30.06)" fill="#d5c770"/>
            <path id="パス_28505" data-name="パス 28505" d="M-364,115.719V116.9l1.516,1.516a32.288,32.288,0,0,0,11.789,7.37l1.261.462.287-.366c.431-.543.383-.718-.287-.957a41.545,41.545,0,0,1-7.147-3.813c-3.589-2.393-5.44-4.083-6.509-5.966-.191-.335-.479-.606-.622-.606-.256,0-.287.16-.287,1.18Zm0,0" transform="translate(363.981 -46.175)" fill="#d5c770"/>
          </g>
        </g>
        <path id="パス_28506" data-name="パス 28506" d="M330.783,138.289a37.087,37.087,0,0,1-4.77,4.962c-3.478,2.967-5.44,4.243-7.657,4.945-1.228.383-1.356.462-1.356.829a.878.878,0,0,0,.59.941c.3.16.543.112,1.532-.3a30.883,30.883,0,0,0,5.408-3.111c2.521-1.818,7.626-7.338,7.626-8.232,0-.239-.462-.782-.67-.782a4.161,4.161,0,0,0-.7.75Zm0,0" transform="translate(-572.362 -379.506)" fill="#d5c770"/>
        <g id="グループ_4908" data-name="グループ 4908" transform="translate(-364 -239.096)">
          <path id="パス_28507" data-name="パス 28507" d="M259.984,155.762c-.3.224-.287.255.239,1.324a20.2,20.2,0,0,1,.83,1.946c.733,2.09.063,4.8-1.708,6.972-.622.75-.51,1.021.415,1.021,2.074,0,3.812-3.829,3.207-7.067-.352-1.882-1.755-4.419-2.441-4.419a1.158,1.158,0,0,0-.543.223Zm0,0" transform="translate(-159.578 -155.539)" fill="#d5c770"/>
          <path id="パス_28508" data-name="パス 28508" d="M-363.792,158.813c-.128.048-.208.4-.208.925,0,.829.016.861,1.021,1.787a31.233,31.233,0,0,0,13.624,7.147c1.26.3,1.627.208,1.627-.462,0-.287-.256-.431-1.866-.957-5.552-1.819-11.422-5.344-13.209-7.9-.431-.638-.575-.718-.989-.543Zm0,0" transform="translate(364 -158.223)" fill="#d5c770"/>
        </g>
      </g>
    </g>
  </g>
</svg>
