<svg xmlns="http://www.w3.org/2000/svg" xmlns:xlink="http://www.w3.org/1999/xlink" width="240" height="240" viewBox="0 0 240 240">
  <defs>
    <clipPath id="clip-path">
      <rect id="長方形_1854" data-name="長方形 1854" width="123.774" height="108" fill="#8db987"/>
    </clipPath>
  </defs>
  <g id="no_image" transform="translate(-40 -40)">
    <rect id="長方形_1825" data-name="長方形 1825" width="240" height="240" transform="translate(40 40)" fill="#26333b" opacity="0.05"/>
    <g id="logo" transform="translate(-424 65)">
      <path id="第_明和ゆたか園" data-name="第２明和ゆたか園" d="M12.375,1.688l-.516-.234a1.454,1.454,0,0,1-.3-.984q.023-.562,0-1.1t-.023-1.078q0-.539,0-1.1h-.094q-.609.375-1.219.727a9.679,9.679,0,0,0-1.172.8q-.562.445-1.1.914T6.891.609A1.231,1.231,0,0,0,6.7.727.515.515,0,0,1,6.492.82a1.192,1.192,0,0,1-.234.023H6L5.531.609A1.232,1.232,0,0,0,5.414.422.515.515,0,0,1,5.32.211,1.086,1.086,0,0,1,5.3,0V-.234L5.531-.7h.094l.094-.187q.516-.422,1.031-.891A13.479,13.479,0,0,1,7.8-2.648q.539-.4,1.078-.773a7.537,7.537,0,0,1,1.148-.656v-.094l-3-.094-1.594.047a1.286,1.286,0,0,0-.164-.07q-.07-.023-.164-.047a.521.521,0,0,1-.164-.07A1.532,1.532,0,0,0,4.781-4.5a1.232,1.232,0,0,0-.117-.187A.515.515,0,0,1,4.57-4.9a1.192,1.192,0,0,1-.023-.234v-.258q.094-.469.188-.914T4.969-7.2q.141-.445.234-.891A5.535,5.535,0,0,1,5.484-9a1.89,1.89,0,0,1,.3-.164,2.319,2.319,0,0,1,.352-.117l.375-.094a.762.762,0,0,1,.375,0q.563.047,1.148.047T9.188-9.3q.563.023,1.125.094t1.125.117v-1.828H8.063l-1.031.094a.522.522,0,0,0-.234-.047,1.708,1.708,0,0,1-.281-.023.729.729,0,0,1-.258-.094q-.117-.07-.211-.117A1.232,1.232,0,0,0,5.93-11.3a.515.515,0,0,1-.094-.211,1.086,1.086,0,0,1-.023-.211v-.234l.234-.469a.892.892,0,0,1,.234-.164.993.993,0,0,1,.281-.094,1.708,1.708,0,0,1,.281-.023h.281l.563.047.281-.094h5.063a12.405,12.405,0,0,0,1.313.117l1.336.047,1.336.047a2.564,2.564,0,0,1,1.219.352q.094.141.164.258a.492.492,0,0,1,.07.258v.609q-.047.422-.07.891t-.047.914q-.023.445-.047.914a1.727,1.727,0,0,1-.258.844l-.656.281a2.591,2.591,0,0,1-.7.188,4.225,4.225,0,0,1-.773.023q-.4-.023-.773-.023a2.964,2.964,0,0,0-.422-.07q-.234-.023-.469-.023a4.036,4.036,0,0,1-.445-.023,4.036,4.036,0,0,0-.445-.023v1.313h.563a3.016,3.016,0,0,1,.4-.07,4.036,4.036,0,0,1,.445-.023h.891a4.476,4.476,0,0,0,.633.047,2.063,2.063,0,0,1,.609.094q.3.094.609.164a2.806,2.806,0,0,0,.633.07l.7-.047.8.375.281.516V.422l-.234.469a1.231,1.231,0,0,0-.187.117.515.515,0,0,1-.211.094,1.086,1.086,0,0,1-.211.023h-.234L18.375.891a1.713,1.713,0,0,1-.3-1.078q.023-.609.023-1.2V-3.75a2.287,2.287,0,0,1-.937-.094,5.3,5.3,0,0,0-.891-.211,6.47,6.47,0,0,0-.961-.07h-.961l-.984.094v1.172L13.453.984l-.234.469a1.231,1.231,0,0,0-.187.117.515.515,0,0,1-.211.094,1.086,1.086,0,0,1-.211.023Zm-.891-7.641V-7.125a7.874,7.874,0,0,0-1.055-.211q-.539-.07-1.1-.117A9.33,9.33,0,0,0,8.18-7.477q-.586.023-1.148.023a.7.7,0,0,0-.187.328,2.319,2.319,0,0,1-.117.352,1.3,1.3,0,0,0-.094.352,3.02,3.02,0,0,0-.023.375h.375l1.734-.047Zm5.016-3,.094-1.781-3.281-.141v1.828A6.232,6.232,0,0,0,14.086-9a6.232,6.232,0,0,1,.773.047,6.232,6.232,0,0,0,.773.047h.82ZM8.344-12.937l-.469-.234a.973.973,0,0,1-.211-.3,1.3,1.3,0,0,1-.094-.352L7.523-14.2a3.02,3.02,0,0,1-.023-.375l.141-1.406H6.563a1.4,1.4,0,0,1-.633.047.633.633,0,0,0-.562.164,1.225,1.225,0,0,0-.3.516,1.613,1.613,0,0,1-.281.539.578.578,0,0,1-.094.328.539.539,0,0,0-.094.3.539.539,0,0,1-.094.3l-.187.281a1.232,1.232,0,0,0-.187.117.515.515,0,0,1-.211.094,1.086,1.086,0,0,1-.211.023H3.469L3-13.5a1.232,1.232,0,0,0-.117-.187.515.515,0,0,1-.094-.211,1.192,1.192,0,0,1-.023-.234v-.258A5.2,5.2,0,0,1,3.211-15.7q.3-.609.633-1.242t.586-1.266a8.459,8.459,0,0,1,.633-1.242,1.231,1.231,0,0,0,.188-.117.515.515,0,0,1,.211-.094,1.087,1.087,0,0,1,.211-.023h.234l.469.234a1.231,1.231,0,0,0,.117.188.515.515,0,0,1,.094.211,1.192,1.192,0,0,1,.023.234v.258l-.328.8h.234l2.578-.047a3.56,3.56,0,0,0,.586.047,3.56,3.56,0,0,1,.586.047q.281.047.563.07a.936.936,0,0,1,.516.211,1.231,1.231,0,0,0,.117.188.515.515,0,0,1,.094.211,1.086,1.086,0,0,1,.023.211v.234l-.234.469a1.437,1.437,0,0,1-.258.141,1.243,1.243,0,0,1-.258.07q-.141.023-.3.047a2.164,2.164,0,0,1-.3.023l-.75-.094-.141,1.594.094.7-.234.469A1.231,1.231,0,0,0,9-13.055a.515.515,0,0,1-.211.094,1.086,1.086,0,0,1-.211.023Zm8.391-.047-.469-.234a1.232,1.232,0,0,0-.117-.187.515.515,0,0,1-.094-.211,1.192,1.192,0,0,1-.023-.234v-.258l.563-1.781-2.719-.047a.78.78,0,0,1-.117.422.94.94,0,0,0-.141.4,3.959,3.959,0,0,1-.07.422,1.034,1.034,0,0,1-.187.4,1.232,1.232,0,0,0-.187.117.515.515,0,0,1-.211.094,1.192,1.192,0,0,1-.234.023h-.258l-.516-.234a1.232,1.232,0,0,0-.117-.187.515.515,0,0,1-.094-.211q-.023-.117-.047-.211a.986.986,0,0,1-.023-.234,7.042,7.042,0,0,1,.375-1.1q.234-.539.445-1.078a8.575,8.575,0,0,0,.352-1.125,3.069,3.069,0,0,1,.469-1.055,1.231,1.231,0,0,0,.188-.117.515.515,0,0,1,.211-.094,1.087,1.087,0,0,1,.211-.023h.234l.469.234a1.231,1.231,0,0,0,.117.188.515.515,0,0,1,.094.211,1.193,1.193,0,0,1,.023.234v.258l-.281.844a12.4,12.4,0,0,1,1.711.023q.82.07,1.641.188a14.741,14.741,0,0,0,1.688.141,3.8,3.8,0,0,1,1.617.4,1.231,1.231,0,0,0,.117.188.515.515,0,0,1,.094.211,1.087,1.087,0,0,1,.023.211v.234l-.234.469a1.232,1.232,0,0,0-.187.117.515.515,0,0,1-.211.094l-.234.047a1.317,1.317,0,0,1-.258.023,3.705,3.705,0,0,1-.445-.117,1.4,1.4,0,0,0-.445-.07h-.937a3.525,3.525,0,0,1-.234.609q-.141.281-.258.586a4.541,4.541,0,0,0-.187.609,1.77,1.77,0,0,1-.258.586,1.232,1.232,0,0,0-.187.117.515.515,0,0,1-.211.094,1.086,1.086,0,0,1-.211.023ZM39.774.609l-2.6-.281Q35.884.188,34.571,0T31.946-.3q-1.312-.117-2.578-.352a1.231,1.231,0,0,0-.117-.187.515.515,0,0,1-.094-.211,1.086,1.086,0,0,1-.023-.211V-1.5l.234-.469L29.7-2.3a24.775,24.775,0,0,1,2.32-2.3q1.242-1.078,2.508-2.133t2.508-2.133a12.947,12.947,0,0,0,2.18-2.437v-.937a1.832,1.832,0,0,0-.141-.375l-.187-.375a1.162,1.162,0,0,0-.281-.352q-.187-.164-.328-.3a3.885,3.885,0,0,0-.7-.4,7.314,7.314,0,0,0-.75-.281,2.739,2.739,0,0,0-.82-.117h-.867a6.346,6.346,0,0,0-.867.234,6.754,6.754,0,0,0-.773.328,6.754,6.754,0,0,0-.727.422,3.471,3.471,0,0,0-.68.609l-.328.422a1.232,1.232,0,0,0-.187.117.515.515,0,0,1-.211.094,1.086,1.086,0,0,1-.211.023h-.234l-.469-.234a1.232,1.232,0,0,0-.117-.187.515.515,0,0,1-.094-.211,1.086,1.086,0,0,1-.023-.211v-.234a1.056,1.056,0,0,1,.188-.375q.141-.187.281-.352l.281-.328a2.048,2.048,0,0,1,.328-.3,7.6,7.6,0,0,1,1.1-.75,8.612,8.612,0,0,1,1.219-.562,5.368,5.368,0,0,1,1.336-.3,8.968,8.968,0,0,1,1.453-.023q.516.094,1.031.234a5.332,5.332,0,0,1,.984.375,7.778,7.778,0,0,1,.914.539,4.485,4.485,0,0,1,.82.727q.234.375.445.727a2.58,2.58,0,0,1,.3.773,5.267,5.267,0,0,1,.117.867q.023.445.023.914a3.446,3.446,0,0,1-.281.8,6.754,6.754,0,0,1-.422.727,4.473,4.473,0,0,1-.562.68l-.656.656q-.891.7-1.734,1.5a22.843,22.843,0,0,1-1.758,1.5q-.914.7-1.8,1.453a11.281,11.281,0,0,0-1.594,1.641q1.078.188,2.2.328t2.2.258q1.078.117,2.18.211a12.981,12.981,0,0,1,2.18.375A1.231,1.231,0,0,0,41.11-.8a.516.516,0,0,1,.094.211,1.086,1.086,0,0,1,.023.211v.234l-.234.469a2.62,2.62,0,0,1-.281.164.993.993,0,0,1-.281.094,1.856,1.856,0,0,1-.3.023Zm19.1.141L58.408.516a1.231,1.231,0,0,0-.117-.187A.515.515,0,0,1,58.2.117Q58.174,0,58.15-.094a.986.986,0,0,1-.023-.234q.375-2.2.563-4.453t.4-4.523q.211-2.273.352-4.523a30.516,30.516,0,0,1,.609-4.453l.234-.094v-.094q.141-.094.3-.211a.594.594,0,0,1,.352-.117h.8a7.744,7.744,0,0,0,1.406.258q.75.07,1.453.141t1.453.07a2.542,2.542,0,0,1,1.359.375,1.231,1.231,0,0,0,.117.188.515.515,0,0,1,.094.211,1.086,1.086,0,0,1,.023.211v.234a.833.833,0,0,0-.07.234,1.578,1.578,0,0,0-.023.258v.539l.047.047v5.719q.094,1.219.117,2.508T67.83-5.3q.094,1.219.188,2.461t.141,2.508l-.234.469a1.231,1.231,0,0,0-.187.117.515.515,0,0,1-.211.094,1.192,1.192,0,0,1-.234.023h-.258L66.564.141a2.641,2.641,0,0,1-.3-1.359,11.11,11.11,0,0,0-.047-1.453q-.07-.7-.117-1.43t-.141-1.43A12.547,12.547,0,0,1,64.643-5.7q-.656-.117-1.289-.187t-1.312-.094Q61.361-6,60.658-6q-.094.844-.187,1.641t-.187,1.617q-.094.82-.164,1.664a4.979,4.979,0,0,1-.4,1.594,1.231,1.231,0,0,0-.187.117.515.515,0,0,1-.211.094,1.086,1.086,0,0,1-.211.023ZM49.736-3.469,49.268-3.7a.99.99,0,0,1-.211-.562q-.023-.328-.023-.633V-6.187q.094-1.312.188-2.672t.188-2.672q.094-1.312.281-2.6a18.208,18.208,0,0,1,.563-2.555.973.973,0,0,1,.3-.211.944.944,0,0,1,.375-.07h.82l.656.047,1.172-.047a3.871,3.871,0,0,0,.633.047,4.322,4.322,0,0,1,.656.047,4.157,4.157,0,0,0,.633.047.767.767,0,0,1,.563.234v.094h.094q.094.141.188.3a3.212,3.212,0,0,1,.164.328.883.883,0,0,1,.07.352v.375a.832.832,0,0,0-.094.375v1.219q.047,1.125.094,2.227t.07,2.227q.023,1.125,0,2.25a8.024,8.024,0,0,0,.258,2.2l-.234.469a2.62,2.62,0,0,1-.281.164.624.624,0,0,1-.281.07h-.656l-.891-.094a2.937,2.937,0,0,1-.984.117q-.516-.023-1.008,0t-.984.07Q51.1-3.8,50.58-3.8V-3.7a1.231,1.231,0,0,0-.187.117.515.515,0,0,1-.211.094,1.086,1.086,0,0,1-.211.023Zm5.109-2.391V-9.328a5.888,5.888,0,0,1-.914-.164,3.577,3.577,0,0,0-.914-.117h-.961q-.492,0-.961-.047l-.234,4.031h.328l.914-.094a8.729,8.729,0,0,1,.914-.047h.938A4.1,4.1,0,0,0,54.846-5.859ZM65.861-7.453V-9.7l-.094-.7a7.043,7.043,0,0,0-1.148-.187l-1.2-.094q-.609-.047-1.2-.117t-1.2-.117L60.8-7.828q.656,0,1.289.023t1.266.094a9.906,9.906,0,0,1,1.219.211A3.512,3.512,0,0,0,65.861-7.453ZM54.752-11.2v-.609l-.094-3.094.047-.187-2.25-.047-.75.047q-.094.422-.164.867l-.141.891a8.617,8.617,0,0,0-.094.914q-.023.469-.07.938a7.85,7.85,0,0,0,.867.047h.891a5.7,5.7,0,0,1,.891.07,4.2,4.2,0,0,1,.82.211Zm11.016-1.078v-3.75l-.047-.469a7.978,7.978,0,0,1-1.078-.07q-.516-.07-1.031-.094a7.717,7.717,0,0,1-1.031-.117l-1.031-.187q-.047.516-.117,1.031t-.094,1.055L61.291-13.8a7.778,7.778,0,0,1-.117,1.055q.563.047,1.125.117t1.148.117l1.172.094Q65.205-12.375,65.768-12.281ZM76.292,1.5l-.469-.234a3.8,3.8,0,0,1-.4-1.617q-.023-.867-.023-2.18t-.07-2.18q-.07-.867-.07-1.711h-.094q-.328.516-.68,1.031t-.68,1.031q-.328.516-.633,1.031T72.542-2.3a1.231,1.231,0,0,0-.187.117.917.917,0,0,1-.211.117.627.627,0,0,1-.234.047h-.258l-.469-.234a1.231,1.231,0,0,0-.117-.187.515.515,0,0,1-.094-.211,1.086,1.086,0,0,1-.023-.211v-.234q.422-.8.867-1.57t.961-1.5q.516-.727,1.031-1.477a7.785,7.785,0,0,0,.844-1.594H71.511l-.187.094a.837.837,0,0,1-.211.07,1.192,1.192,0,0,1-.234.023h-.211L70.2-9.281a1.231,1.231,0,0,0-.117-.187.515.515,0,0,1-.094-.211,1.086,1.086,0,0,1-.023-.211v-.234l.234-.469a1.923,1.923,0,0,1,1.078-.422q.609-.047,1.219-.047h2.484l.328.047.094-3.656-.047-.422h-.094q-.375.094-.8.164a5.267,5.267,0,0,1-.867.07q-.445,0-.867.023t-.844.07a1.286,1.286,0,0,0-.164-.07q-.07-.023-.164-.047a.521.521,0,0,1-.164-.07,1.532,1.532,0,0,0-.164-.094,1.232,1.232,0,0,0-.117-.187.515.515,0,0,1-.094-.211A1.086,1.086,0,0,1,71-15.656v-.234l.234-.469a8.112,8.112,0,0,1,2.2-.352,13.743,13.743,0,0,0,2.25-.234,13.743,13.743,0,0,1,2.25-.234,15.652,15.652,0,0,0,2.25-.211l.469.234a1.231,1.231,0,0,0,.117.188.515.515,0,0,1,.094.211,1.086,1.086,0,0,1,.023.211v.234l-.234.469a1.286,1.286,0,0,1-.8.3,7.785,7.785,0,0,0-.891.094,7.749,7.749,0,0,1-.867.094q-.445.023-.914.07v.563l.047,1.641-.094,2.156a4.1,4.1,0,0,0,1.078.047,4.933,4.933,0,0,1,1.078.023q.516.07,1.055.094A2.826,2.826,0,0,1,81.4-10.5a1.231,1.231,0,0,0,.117.188.515.515,0,0,1,.094.211,1.192,1.192,0,0,1,.023.234v.258l-.234.469-.234.117a1.044,1.044,0,0,1-.258.094l-.234.047a1.317,1.317,0,0,1-.258.023,4.665,4.665,0,0,0-.7-.141,6.041,6.041,0,0,0-.75-.047h-1.5V-9l3.328,3.234v.094h.094A1.231,1.231,0,0,0,81-5.484a.917.917,0,0,1,.117.211.576.576,0,0,1,.047.211v.234l-.281.469a1.232,1.232,0,0,0-.187.117.515.515,0,0,1-.211.094,1.192,1.192,0,0,1-.234.023H80l-.469-.234L77.089-6.75v1.313a12.405,12.405,0,0,1,.117,1.313q.023.656.023,1.781t.023,1.8A6.76,6.76,0,0,0,77.417.75l-.281.516a1.231,1.231,0,0,0-.187.117.515.515,0,0,1-.211.094,1.086,1.086,0,0,1-.211.023Zm6.188-3.937-.469-.234a1.231,1.231,0,0,0-.117-.187A.515.515,0,0,1,81.8-3.07a1.086,1.086,0,0,1-.023-.211v-.234a24.907,24.907,0,0,0,.328-2.7q.094-1.383.211-2.766t.328-2.719a13.562,13.562,0,0,1,.68-2.6,2.62,2.62,0,0,1,.281-.164.725.725,0,0,1,.328-.07h.7l1.313.094a10.757,10.757,0,0,1,1.266.164,8.254,8.254,0,0,0,1.266.141,2.564,2.564,0,0,1,1.219.352v.094h.094a7.343,7.343,0,0,1,.516,2.484,24.012,24.012,0,0,0,.234,2.6q.188,1.289.492,2.531a12.58,12.58,0,0,1,.352,2.555l-.234.469-.562.281A1.568,1.568,0,0,1,90-2.6q-.3.023-.656.023h-.68l-1.5-.047-.984.094-2.016-.047Zm6.984-1.969v-.281a18.5,18.5,0,0,0-.375-1.852,14.711,14.711,0,0,1-.352-1.875q-.117-.961-.187-1.945t-.164-1.922q-.469-.047-.937-.117t-.937-.117l-.914-.094a9.206,9.206,0,0,0-.961-.047q-.187.984-.328,2.016T84.1-8.531q-.07,1.078-.164,2.109l-.187,2.063h.375l2.016-.047.7.047a.93.93,0,0,1,.422-.094h1.453Zm15.353,5.484-.469-.234a.97.97,0,0,1-.3-.633q-.023-.352-.023-.727V-1.969a.171.171,0,0,1-.211-.047.223.223,0,0,0-.187-.094.253.253,0,0,1-.187-.07.626.626,0,0,0-.164-.117.626.626,0,0,0-.117-.164.253.253,0,0,1-.07-.187.465.465,0,0,0-.047-.211.416.416,0,0,1-.047-.187,1.286,1.286,0,0,0,.07-.164q.023-.07.047-.164a.521.521,0,0,1,.07-.164,1.532,1.532,0,0,0,.094-.164.626.626,0,0,0,.164-.117.348.348,0,0,1,.164-.094.871.871,0,0,1,.211-.023h.211l.047-2.531-.047-.844q.047-.562.047-1.219t.023-1.242q.023-.586.094-1.2a6.356,6.356,0,0,0,.023-1.219h-.141a4.1,4.1,0,0,0-.891.188q-.422.141-.844.3a7.773,7.773,0,0,0-.82.375,2.555,2.555,0,0,0-.727.586,5.47,5.47,0,0,0-.891,1.43,14.479,14.479,0,0,0-.562,1.57q-.234.8-.4,1.641A9.929,9.929,0,0,1,98.488-4.5a1.232,1.232,0,0,0-.187.117.515.515,0,0,1-.211.094,1.192,1.192,0,0,1-.234.023H97.6L97.129-4.5a13.71,13.71,0,0,1-.445-2.437q-.117-1.266-.258-2.531T96.215-12q-.07-1.266-.117-2.531L96.332-15a1.231,1.231,0,0,0,.188-.117.515.515,0,0,1,.211-.094,1.086,1.086,0,0,1,.211-.023h.234l.469.234a2.519,2.519,0,0,1,.3,1.125L98-12.656q.023.609.07,1.219l.094,1.219h.094a7.778,7.778,0,0,1,.539-.914,6.984,6.984,0,0,1,.68-.844,6.061,6.061,0,0,1,.82-.727,6.262,6.262,0,0,1,.914-.562,4.02,4.02,0,0,0,.727-.258,3.857,3.857,0,0,1,.75-.258,7.1,7.1,0,0,1,.8-.141q.4-.047.867-.094.047-.469.047-.984t.023-1.008q.023-.492.07-.984a1.962,1.962,0,0,1,.281-.867,1.231,1.231,0,0,0,.188-.117.515.515,0,0,1,.211-.094,1.087,1.087,0,0,1,.211-.023h.234l.469.234q.047.094.117.211a.737.737,0,0,1,.094.234,1.192,1.192,0,0,1,.023.234v.258l-.141,2.859a5.374,5.374,0,0,1,1.008.094,6.7,6.7,0,0,1,.961.258,9.345,9.345,0,0,1,.914.375,1.987,1.987,0,0,1,.773.68l.141.281.328.188q.281.422.586.82a3.112,3.112,0,0,1,.469.867,4.088,4.088,0,0,1,.211.984q.047.516.047,1.078-.047.563-.141,1.125a8.68,8.68,0,0,1-.258,1.1,5.266,5.266,0,0,1-.422,1.008,10.254,10.254,0,0,1-.586.938l-1.078,1.031q-.375.234-.75.445a6.225,6.225,0,0,1-.8.375q-.422.164-.82.328a2.256,2.256,0,0,1-.867.164V.211a.963.963,0,0,1-.234.633,1.231,1.231,0,0,0-.187.117.515.515,0,0,1-.211.094,1.086,1.086,0,0,1-.211.023Zm2.391-5.344a1.712,1.712,0,0,1,.445-.234.922.922,0,0,0,.422-.3,2.13,2.13,0,0,1,.375-.375,4.272,4.272,0,0,0,.4-.352,3.853,3.853,0,0,0,.469-.82,6.272,6.272,0,0,0,.3-.914,4.983,4.983,0,0,0,.141-.984q.023-.516.023-1.031a3.392,3.392,0,0,0-.141-.492,2.191,2.191,0,0,0-.234-.469l-.281-.422a2.614,2.614,0,0,0-.328-.4l-.094-.047a.588.588,0,0,0-.141-.234,2.557,2.557,0,0,1-.187-.211.793.793,0,0,0-.211-.187,1.3,1.3,0,0,0-.258-.117,2.113,2.113,0,0,1-.445-.141,2.113,2.113,0,0,0-.445-.141,4.663,4.663,0,0,0-.492-.07q-.258-.023-.492-.023a8.649,8.649,0,0,1-.023,1.43,13.666,13.666,0,0,0-.07,1.406v1.453q0,.727-.047,1.43l.047,1.594-.047,1.172h.094ZM122.184.469l-.469-.234a2.62,2.62,0,0,1-.164-.281.989.989,0,0,1-.094-.3,2.489,2.489,0,0,1-.023-.352v-.375q.094-1.453.211-2.883t.141-2.883l.047-2.906q.023-1.453.164-2.906h-.609l-1.828.047a1.286,1.286,0,0,0-.164-.07q-.07-.023-.164-.047a.521.521,0,0,1-.164-.07,1.532,1.532,0,0,0-.164-.094,1.232,1.232,0,0,0-.117-.187.515.515,0,0,1-.094-.211,1.086,1.086,0,0,1-.023-.211v-.234l.234-.469a1.258,1.258,0,0,1,.75-.234h.844q.422,0,.82-.023t.82-.023a7.635,7.635,0,0,1,.047-.844q.047-.422.117-.82a6.929,6.929,0,0,0,.094-.82,1.229,1.229,0,0,1,.3-.75,1.231,1.231,0,0,0,.188-.117.515.515,0,0,1,.211-.094,1.087,1.087,0,0,1,.211-.023h.234l.469.234a1.231,1.231,0,0,0,.117.188.515.515,0,0,1,.094.211,1.192,1.192,0,0,1,.023.234v.258l-.094.563-.094.563q-.047.281-.07.563t-.023.609a3.276,3.276,0,0,0,.8.094h2.531l3.047-.094.469.234a1.231,1.231,0,0,0,.117.188.515.515,0,0,1,.094.211,1.2,1.2,0,0,1,.023.234v.258l-.234.469a4,4,0,0,1-1.5.281q-.8,0-1.594.023t-1.594.023h-1.594l-.7-.094a24.861,24.861,0,0,0-.164,3.258q.023,1.664-.047,3.281t-.187,3.234a29.659,29.659,0,0,1-.4,3.164,1.231,1.231,0,0,0-.187.117.515.515,0,0,1-.211.094,1.086,1.086,0,0,1-.211.023Zm8.484-.7a7.72,7.72,0,0,0-.867-.141,4.746,4.746,0,0,1-.844-.164,6.96,6.96,0,0,0-.82-.187,2.162,2.162,0,0,1-.8-.3.735.735,0,0,0-.141-.187.408.408,0,0,1-.117-.211,1.086,1.086,0,0,1-.023-.211v-.234l.281-.469q.094-.047.211-.117a.729.729,0,0,1,.258-.094,1.708,1.708,0,0,1,.281-.023h.281q.516.141,1.055.281a8.434,8.434,0,0,0,1.125.211,7.353,7.353,0,0,0,1.172.047q.586-.023,1.2-.023a3.162,3.162,0,0,1,.375-.07q.187-.023.352-.047a2.676,2.676,0,0,1,.375-.023h.4l.469.234a1.231,1.231,0,0,0,.117.188.515.515,0,0,1,.094.211,1.089,1.089,0,0,1,.023.211v.234l-.234.469a3.134,3.134,0,0,1-.984.3q-.516.07-1.055.117a8.28,8.28,0,0,1-1.078.023Q131.231-.234,130.669-.234ZM133.809-7.5a11.041,11.041,0,0,0-1.078-.422,5.8,5.8,0,0,0-1.172-.258,10.83,10.83,0,0,0-1.242-.07h-1.242l-.844.141-.469-.234q-.047-.094-.117-.211a.737.737,0,0,1-.094-.234A1.086,1.086,0,0,1,127.528-9v-.234l.234-.469a2.042,2.042,0,0,1,.727-.328,3.675,3.675,0,0,1,.844-.094h1.758q.469.094.938.141a7.585,7.585,0,0,1,.891.141,5.8,5.8,0,0,1,.844.258,3.345,3.345,0,0,1,.8.445,1.229,1.229,0,0,0,.117.188.53.53,0,0,1,.094.234,1.477,1.477,0,0,1,.023.234v.234l-.234.469a.625.625,0,0,0-.164.117.357.357,0,0,1-.187.094,1.086,1.086,0,0,1-.211.023A.416.416,0,0,0,133.809-7.5ZM152.115.234,151.646,0a1.231,1.231,0,0,0-.117-.187.917.917,0,0,1-.117-.211.627.627,0,0,1-.047-.234V-.891q.094-.75.188-1.523t.234-1.523a9.974,9.974,0,0,0,.164-1.547q.023-.8.023-1.594a3.7,3.7,0,0,0-.07-.727q-.07-.352-.164-.7a2.557,2.557,0,0,0-.258-.633,2.805,2.805,0,0,0-.445-.562q-.375-.234-.773-.469a5.668,5.668,0,0,0-.82-.4,3.37,3.37,0,0,0-.891-.211,4.7,4.7,0,0,0-.937,0q-.234,1.266-.516,2.555T146.56-5.7q-.258,1.242-.492,2.508A17.107,17.107,0,0,1,145.412-.7a1.231,1.231,0,0,0-.187.117.515.515,0,0,1-.211.094,1.086,1.086,0,0,1-.211.023h-.234L144.1-.7a1.231,1.231,0,0,0-.117-.187.528.528,0,0,1-.094-.187q-.023-.094-.047-.211a1.086,1.086,0,0,1-.023-.211,21.829,21.829,0,0,0,.539-2.32q.211-1.2.445-2.344t.492-2.344q.258-1.2.492-2.367h-2.016l-.516.094a1.286,1.286,0,0,0-.164-.07q-.07-.023-.164-.047a.521.521,0,0,1-.164-.07,1.533,1.533,0,0,0-.164-.094,1.231,1.231,0,0,0-.117-.187.515.515,0,0,1-.094-.211,1.086,1.086,0,0,1-.023-.211v-.234l.234-.469a1.9,1.9,0,0,1,.82-.281,8.5,8.5,0,0,1,.891-.047h1.852q.047-.422.141-.867t.188-.867a5.267,5.267,0,0,0,.117-.867,1.472,1.472,0,0,1,.3-.82,1.231,1.231,0,0,0,.188-.117.515.515,0,0,1,.211-.094,1.087,1.087,0,0,1,.211-.023h.234l.469.234a1.231,1.231,0,0,0,.117.188.515.515,0,0,1,.094.211,1.192,1.192,0,0,1,.023.234v.258a3.124,3.124,0,0,1-.07.656l-.141.656q-.07.328-.164.656a2.379,2.379,0,0,0-.094.656,3.957,3.957,0,0,1,1.148.07q.539.117,1.055.281a4.058,4.058,0,0,1,.984.469q.469.3.938.586v.094l.281.141.141.281h.094l.141.281h.094a4.875,4.875,0,0,1,.586,1.219,6.56,6.56,0,0,1,.281,1.336,13.666,13.666,0,0,1,.07,1.406v1.43a8.228,8.228,0,0,1-.187,1.266,10.846,10.846,0,0,0-.211,1.242q-.07.633-.117,1.289A3.208,3.208,0,0,1,152.959,0a1.231,1.231,0,0,0-.187.117.515.515,0,0,1-.211.094,1.086,1.086,0,0,1-.211.023Zm6.375-6.656-.469-.234q-.469-.891-.984-1.781T156.029-10.2a18.627,18.627,0,0,0-1.1-1.711,3.673,3.673,0,0,1-.7-1.828l.234-.469a1.231,1.231,0,0,0,.188-.117.515.515,0,0,1,.211-.094,1.086,1.086,0,0,1,.211-.023h.234l.469.234a13.69,13.69,0,0,0,.984,1.734q.563.844,1.055,1.711T158.842-9a5.635,5.635,0,0,1,.727,1.875l-.234.469a1.231,1.231,0,0,0-.187.117.515.515,0,0,1-.211.094,1.086,1.086,0,0,1-.211.023Zm20.743,7.969-2.648-.281q-1.336-.141-2.7-.164l-2.7-.047q-1.336-.023-2.7-.07-.516.047-1.031.047t-1.008.047q-.492.047-1.008.07a6.527,6.527,0,0,0-.984.117L164,1.031a1.437,1.437,0,0,1-.141-.258q-.047-.117-.094-.258a.958.958,0,0,1-.047-.3v-.3a35.447,35.447,0,0,0,.258-4.664q-.023-2.367.117-4.711t.164-4.687a19.686,19.686,0,0,1,.586-4.594l.75-.375h5.25l1.641.094q.844.047,1.688.047t1.664.047q.82.047,1.664.047l1.031-.047a6.312,6.312,0,0,1,.938.07,6.634,6.634,0,0,0,.984.07q.516,0,.984.047a1.655,1.655,0,0,1,.844.328,5.3,5.3,0,0,1,.445,1.758q.07.914.07,1.875v1.9q0,.938.047,1.875L182.8-9.187q.047,1.266.117,2.508T183.03-4.2q.047,1.242.117,2.484T183.311.75l-.234.469a1.89,1.89,0,0,1-.3.164.883.883,0,0,1-.352.07,3.021,3.021,0,0,0-.375.023,3.021,3.021,0,0,1-.375.023l-1.031-.047Zm2.156-1.922V-.8q-.094-1.266-.141-2.531t-.117-2.531q-.07-1.266-.117-2.555t-.047-2.555l.047-1.172q-.047-.609-.047-1.219v-1.219q0-.609-.023-1.219a9.3,9.3,0,0,0-.117-1.172l-3.281-.141-.891.047-2.3-.094v1.125a7.624,7.624,0,0,1,1.031.07q.516.07,1.031.117t1.031.07a2.1,2.1,0,0,1,.938.258,1.231,1.231,0,0,0,.117.188.515.515,0,0,1,.094.211,1.086,1.086,0,0,1,.023.211v.234l-.234.469a1.232,1.232,0,0,0-.187.117.515.515,0,0,1-.211.094l-.234.047a1.317,1.317,0,0,1-.258.023,4.321,4.321,0,0,1-.8-.07,4.189,4.189,0,0,0-.773-.07,3.177,3.177,0,0,1-.773-.094,2.243,2.243,0,0,0-.8-.047v.8q.75,0,1.453.047t1.406.117q.7.07,1.43.07a3.149,3.149,0,0,1,1.336.281,1.231,1.231,0,0,0,.117.188.515.515,0,0,1,.094.211,1.086,1.086,0,0,1,.023.211v.234l-.234.469q-.094.047-.211.117a.729.729,0,0,1-.258.094q-.141.023-.258.047A1.317,1.317,0,0,1,179-11.3q-1.078-.047-2.133-.164T174.71-11.6a14.5,14.5,0,0,1-2.18-.211,10.011,10.011,0,0,0-2.156-.141q-.422.047-.867.07t-.867.07q-.422.047-.844.117a3.365,3.365,0,0,1-.891.023l-.469-.234a1.231,1.231,0,0,0-.117-.187.515.515,0,0,1-.094-.211,1.086,1.086,0,0,1-.023-.211v-.234l.234-.469a3.171,3.171,0,0,1,1.2-.328q.633-.047,1.289-.117t1.313-.094q.656-.023,1.313-.023l.938.141v-.75l-2.25-.047-.7.047a.885.885,0,0,0-.281-.047.885.885,0,0,1-.281-.047q-.141-.047-.258-.094a1.437,1.437,0,0,1-.258-.141,1.232,1.232,0,0,0-.117-.187.515.515,0,0,1-.094-.211,1.086,1.086,0,0,1-.023-.211v-.234l.234-.469q.141-.094.258-.164a.492.492,0,0,1,.258-.07h.609l.609.047,1.688-.047.609.047V-17.2q-.75-.047-1.523-.07t-1.547-.023H166.3q-.187,2.063-.234,4.125T165.9-9.023q-.117,2.086-.094,4.172A40.736,40.736,0,0,1,165.639-.7h.422l3.8-.141,2.156.094V-.937l-.047-.281.047-3.422h-.047l-2.25,1.594a3.478,3.478,0,0,1-.4.258,2.3,2.3,0,0,0-.4.281,3.733,3.733,0,0,0-.352.352,1.458,1.458,0,0,0-.258.422,1.231,1.231,0,0,0-.187.117.515.515,0,0,1-.211.094,1.192,1.192,0,0,1-.234.023h-.258l-.469-.234a1.231,1.231,0,0,0-.117-.187.515.515,0,0,1-.094-.211,1.086,1.086,0,0,1-.023-.211v-.234a.813.813,0,0,1,.164-.328q.117-.141.234-.3a2.416,2.416,0,0,1,.258-.3l.281-.281.844-.656q.422-.328.844-.633a10.264,10.264,0,0,1,.867-.562,7.68,7.68,0,0,0,.867-.586v-.094h-.891a1.2,1.2,0,0,1-.422-.07,1.516,1.516,0,0,1-.375-.211,1.231,1.231,0,0,0-.117-.187.515.515,0,0,1-.094-.211,1.086,1.086,0,0,1-.023-.211v-.234l.188-.937q.094-.469.141-.937t.117-.961a2.2,2.2,0,0,1,.3-.867,2.62,2.62,0,0,1,.281-.164,1.01,1.01,0,0,1,.328-.094,2.843,2.843,0,0,1,.352-.023h.352q.75,0,1.57.047l1.594.094q.773.047,1.547.117a3.97,3.97,0,0,1,1.43.4,2.344,2.344,0,0,1,.281.938q.047.516.07,1.078t.07,1.078l.094,1.031-.234.469a1.231,1.231,0,0,0-.187.117.515.515,0,0,1-.211.094,1.086,1.086,0,0,1-.211.023H176.8a1.179,1.179,0,0,0-.516-.164l-.562-.047q-.281-.023-.586-.023h-.586v.047l.141.094a1.1,1.1,0,0,0,.352.3q.211.117.4.234t.4.234q.211.117.4.211.281-.187.539-.4t.539-.4a4.314,4.314,0,0,1,.586-.328,1.228,1.228,0,0,1,.68-.094l.469.234a1.231,1.231,0,0,0,.117.188.515.515,0,0,1,.094.211,1.086,1.086,0,0,1,.023.211V-5.2l-.234.469-1.172.7-.047.094-.187.141v.141l.422.328.609.609.281.234a1.231,1.231,0,0,0,.117.188.515.515,0,0,1,.094.211,1.086,1.086,0,0,1,.023.211v.234l-.234.469a1.231,1.231,0,0,0-.187.117.515.515,0,0,1-.211.094,1.192,1.192,0,0,1-.234.023h-.258l-.562-.281v-.094H177.4q-.375-.422-.773-.82l-.8-.8a5.336,5.336,0,0,0-.867-.7q-.469-.3-.937-.586h-.141L173.842-.75a12.465,12.465,0,0,1,1.547.094q.75.094,1.547.141t1.547.141a12.465,12.465,0,0,0,1.547.094ZM175.9-7.969V-9l-.094-.281a4.853,4.853,0,0,0-1.078-.164l-1.125-.047q-.562-.023-1.125-.07a6.762,6.762,0,0,0-1.125,0L171.171-8.2h.234l.7-.047a5.482,5.482,0,0,0,.938.117l.984.047.938.047Q175.436-8.016,175.9-7.969Z" transform="translate(491.36 166)" fill="#8db987"/>
      <g id="logomark" transform="translate(886 335)">
        <g id="グループ_4905" data-name="グループ 4905" transform="translate(-363.981 -314)">
          <g id="グループ_4904" data-name="グループ 4904" clip-path="url(#clip-path)">
            <path id="パス_28485" data-name="パス 28485" d="M-309.872-313.626a18.227,18.227,0,0,0-9.955,10.034,5.025,5.025,0,0,0-.414,1.547,1.116,1.116,0,0,0,.542.447c.239.112.463.208.495.224a7.222,7.222,0,0,1-.447,1.228l-.5,1.2-1.436-1.085a24.333,24.333,0,0,0-5.886-3.254,23.973,23.973,0,0,0-5.248-1.213,1.682,1.682,0,0,1-.8-.191c-.7-.431-4.978.829-8.152,2.425a34.1,34.1,0,0,0-7.865,5.535c-.558.59-.59.67-.414,1.053.255.558.494.542,1.212-.1.623-.542,2.345-1.866,2.744-2.106.128-.063,0,.191-.255.575a15.433,15.433,0,0,0-1.9,13.8,19.478,19.478,0,0,0,3.733,6.476c.558.686.925,1.244.8,1.244a8.754,8.754,0,0,1-1.244-.351,14.137,14.137,0,0,0-5.982-.048,76.339,76.339,0,0,0-8.375,2.712,9.885,9.885,0,0,0-2.871,2.855A19.555,19.555,0,0,0-363.3-268.3l-.7,1.532v11.087l.686,1.308a97.366,97.366,0,0,0,5.456,8.3,22.26,22.26,0,0,0,7.561,5.5c.814.4,2.7,1.1,4.164,1.6l2.664.877-.447,1.308c-1.1,3.223-1.244,6.525-.366,8.248a10.772,10.772,0,0,0,2.7,2.775c2.345,1.484,4.834,1.978,10.05,1.994,4.339,0,4.674-.063,8.917-1.516,2.808-.957,5.392-1.547,5.631-1.292a26.691,26.691,0,0,1-1.946,4.9c-.383.574-.383.59-1.946.75a58.515,58.515,0,0,1-8.423.367c-5.216.015-6.987.175-9.093.845-3.27,1.037-7.338,5.041-9.492,9.332a3.086,3.086,0,0,0-.447,2.122c.08,1.516.191,1.6,2.393,1.739,5.727.383,11.358.526,20.308.51,10.561-.016,18.648-.239,19.526-.543.4-.143.623-.143.814-.016a33.832,33.832,0,0,0,5.2.112c20.706-.271,26.449-.462,34.984-1.133,1.708-.127,3.637-.3,4.307-.383a3.776,3.776,0,0,1,1.484.016,2.248,2.248,0,0,0,1.58-.016c.366-.208.383-.558.047-1.2-.143-.271-.654-1.26-1.132-2.2-1.739-3.43-5.121-6.205-9.843-8.088-1.8-.7-5.121-1.133-9.588-1.228a29.5,29.5,0,0,0-8.216.622,7.925,7.925,0,0,1-2.122.224c-.319-.08-.718-.543-1.611-1.9a19.482,19.482,0,0,1-2.3-4.036,15.167,15.167,0,0,1,2.138.479c11.406,3.1,19.589,2.233,23.976-2.552a13.522,13.522,0,0,0,2.744-5.248,9.676,9.676,0,0,0-.973-5.839l-.447-.893,1.133-.351a40.08,40.08,0,0,0,13.767-7.5,25.915,25.915,0,0,0,5.806-7.115,13,13,0,0,0,.781-7.035c-.67-3.653-4.945-6.955-10.066-7.8-.335-.048-.606-.143-.606-.208a3.283,3.283,0,0,1,1.021-1.388c.766-.51,2.042-2.855,2.648-4.882a19.982,19.982,0,0,0,.846-4.658,7.081,7.081,0,0,1,.175-1.739c.447-2.345.3-3.111-.654-3.558-.51-.239-.543-.3-.447-.846a27.545,27.545,0,0,0-.143-6.062,17.281,17.281,0,0,0-2.09-4.913,17.408,17.408,0,0,0-4.387-4.243,28.891,28.891,0,0,0-9.572-3.908c-4.4-1.117-7.21-1.133-10.577-.032a23.428,23.428,0,0,0-4.993,2.3,6.649,6.649,0,0,1-1.356.718c-.127,0-.414-.527-.685-1.244-1.979-5.328-4.93-9.125-7.083-9.125a1.023,1.023,0,0,0-.67.239c-.176.208-.112.335.4.766a17.544,17.544,0,0,1,3.589,3.94,36.331,36.331,0,0,1,2.473,5.759l.287.909-.543.494a2.22,2.22,0,0,1-.718.495c-.112,0-.255-.51-.366-1.213a12.579,12.579,0,0,0-2.154-5.152,11.825,11.825,0,0,0-3.622-3.925,11.839,11.839,0,0,0-7-2.106,17.641,17.641,0,0,0-8.614,1.866,20.989,20.989,0,0,0-4.9,3.733,13.724,13.724,0,0,1-1.627,1.516c-.239.144-.782.463-1.2.718a2.621,2.621,0,0,1-.8.4,4.566,4.566,0,0,1,.606-1.053,16.58,16.58,0,0,1,6.062-5.727,10.6,10.6,0,0,1,3.51-.973c1.021-.16,1.1-.447.224-.846a3.617,3.617,0,0,0-3.27-.032Zm10.321,4.674a21.46,21.46,0,0,1,5.185,2.233c1.436.973,1.866,1.516,3.174,4.083,1.532,3.016,1.851,4.052,1.994,6.349a17.209,17.209,0,0,0,.239,2.17,1.8,1.8,0,0,0,.591.526c.462.272.494.272,1.132-.047a2.046,2.046,0,0,1,.734-.256c.048.048-.112.351-.351.686a2.665,2.665,0,0,0-.415.8c0,.191.814.67,1.148.67a5.19,5.19,0,0,0,1.228-1.117,27.215,27.215,0,0,1,5.312-4.355,17.518,17.518,0,0,1,9.939-2.456c2.664.111,3.94.479,7.9,2.281,2.792,1.276,3.015,1.419,3.35,2.01.287.527.335.718.191.942s-.064.75.351,2.408a21.617,21.617,0,0,1,.846,7.179c-.239,6.286-3.047,13.081-6.285,15.2a14,14,0,0,0-1.308.941c-.7.638-.239,1.755.925,2.218a14.954,14.954,0,0,0,2.505.51A59.125,59.125,0,0,1-254-264.764a16.858,16.858,0,0,1,4.467,2.169c.957.75,1.213,1.436,1.213,3.43.015,2.569-1.165,5.041-3.558,7.45-3.494,3.542-8.072,5.887-14.884,7.673-2.935.766-3.015.8-3.079,1.213s.829.909,2.074,1.18l.894.208-.415.431c-.351.367-.462.4-.574.208a1.683,1.683,0,0,0-.686-.463c-.814-.351-1.069-.08-.942.973a11.81,11.81,0,0,1-.733,4.148c-.431,1.516-.75,2.138-.942,1.8s-1-.16-2.44.51a24.22,24.22,0,0,1-8.631,2.329l-1.755.1-.925-.558c-1.244-.781-1.467-.829-1.85-.447-.367.367-.3.8.223,1.292a10.341,10.341,0,0,0,3.765,1.372c1.8.207,4.4-.335,8.231-1.723a5.409,5.409,0,0,0,2.744-1.564l.862-.877-.686,1.324a9.253,9.253,0,0,1-2.919,3.445,13.8,13.8,0,0,1-2.425.845c-1.675.431-1.914.447-5.424.447-5.663,0-7.657-.415-12.985-2.664-2.393-1.005-4.1-2.026-3.973-2.361a14.892,14.892,0,0,1,1.324-1.133,47.08,47.08,0,0,0,5.727-5.7,23.172,23.172,0,0,0,2.984-5.025,4.493,4.493,0,0,0,.431-2.425,6.272,6.272,0,0,0-2.01-4.036c-1.419-1.467-3.414-2.026-6.174-1.77-2.616.255-4.8,1.2-7.7,3.35l-1.962,1.451-.909-.861a13.763,13.763,0,0,0-5.424-3.318,6.331,6.331,0,0,0-2.648-.287c-1.708.064-2.346.367-3.877,1.787a7.226,7.226,0,0,0-2.441,5.775c0,3.158.957,4.562,6.429,9.524a7.655,7.655,0,0,1,1.547,1.691c0,.622-3.254,2.552-4.882,2.888a15.994,15.994,0,0,0-2.169.654,15.868,15.868,0,0,1-6.748,1.164,13.659,13.659,0,0,1-4.148-.351c-3.573-.909-4.993-2.281-5.153-5.009a7.6,7.6,0,0,1,.814-3.956,3.851,3.851,0,0,0,.462-1.946c-.032-1.452-.16-1.58-1.451-1.467a4.623,4.623,0,0,1-2.346-.3c-.685-.223-1.579-.479-1.962-.59a33.982,33.982,0,0,1-3.589-1.659c-2.569-1.292-2.888-1.516-2.936-1.883-.048-.335-.16-.447-.558-.543-2.154-.462-4.02-2.632-6.461-7.482a33.935,33.935,0,0,1-2.92-7.37l-.335-1.372.351-.973a10.537,10.537,0,0,1,5.68-5.7c1.85-.845,5.647-1.42,9.332-1.42,1.85,0,2.313-.048,2.951-.335a2.429,2.429,0,0,1,1.356-.223c.494.08.606.048.829-.3.4-.591.335-1.053-.239-1.643-.271-.287-.463-.558-.431-.606a1.665,1.665,0,0,1,.654.112c1.133.351,1.516-.367.527-.989-.462-.287-.527-.4-.4-.638.271-.51.176-.7-.814-1.516-1.755-1.452-3.031-3.8-3.924-7.258-.59-2.313-.431-3.414,1.165-7.721,1-2.68,1.691-4.084,2.265-4.659a8.236,8.236,0,0,1,4.131-1.515,5.794,5.794,0,0,0,1.691-.431c.239-.223.542-.223,2.792.016,4.9.51,6.062,1.005,9.253,3.892,1.451,1.324,1.818,1.452,2.408.83l.3-.335.287.494a.779.779,0,0,0,.8.495c.558,0,.7-.208.7-1.005a14.439,14.439,0,0,1,2.377-6.157,33.607,33.607,0,0,1,5.663-6.222,14.955,14.955,0,0,1,5.041-2.138,18.887,18.887,0,0,1,4.148.064Zm-40.041,8.423c-.223.415-.814.83-1.005.7-.1-.048.064-.3.351-.558.591-.527.91-.59.654-.144Zm14.629.574c.894.686.59.718-.973.112-1.165-.447-1.468-.766-.862-.861.527-.1.989.112,1.835.75Zm62.264.08c.208.143.208.16,0,.16a1.134,1.134,0,0,1-.479-.16c-.208-.143-.208-.16,0-.16a1.134,1.134,0,0,1,.479.16Zm11.662,17.261-.144.527-.015-.51a2.325,2.325,0,0,1,.1-.8c.191-.479.256.143.064.781ZM-255.761-280c-.208.7-.527,1.26-.351.622.048-.176.128-.558.191-.846.064-.271.176-.51.239-.51.08,0,.048.335-.08.734Zm-86.623,5.009.462.479h-.685c-.558,0-.671-.048-.591-.255a1.811,1.811,0,0,0,.1-.479c0-.351.223-.271.718.255Zm-2.935-.143c1.117.239.75.414-.942.446a25,25,0,0,0-13.049,3.637c-.431.271-.431.271-.239-.063.479-.925,2.457-1.883,6.078-2.983,1.356-.4,2.935-.846,3.51-.957a13.809,13.809,0,0,1,4.643-.08Zm1.26,2.7c-.3.064-1.388.176-2.393.239-3.541.208-6.524.877-8.247,1.866-.463.256-.846.4-.846.319,0-.191.846-.925,1.419-1.212a25.76,25.76,0,0,1,5.281-1.133c1.883-.223,5.711-.287,4.786-.08Zm87.293,1.308c-.112.112-.191.128-.191.032,0-.223.191-.414.3-.3.033.048-.015.176-.112.271Zm-100.183,16.862a9.966,9.966,0,0,1,.718,1.978c-.08.239-1.165-1.308-1.579-2.233a14.968,14.968,0,0,1-.909-3.239c0-.319.829,1.293,1.77,3.493Zm62.5,4.674a3.08,3.08,0,0,1,1.755,2.425c0,1-1.739,3.925-4.259,7.195a34.928,34.928,0,0,1-5.344,5.392c-.543.4-1.213.893-1.452,1.085a1.057,1.057,0,0,1-.75.255c-.271-.063-.319,0-.319.383,0,.255-.08.462-.16.462-.191,0-3.733-2.106-5.185-3.079a40.54,40.54,0,0,1-5.837-4.74c-2.137-2.106-2.44-2.744-2.456-5.185,0-2.68.718-3.51,3.031-3.478,2.137.032,3.829.846,6.524,3.159,2.792,2.393,2.792,2.393,3.908,1.005a20.337,20.337,0,0,1,6.764-4.993,6.167,6.167,0,0,1,3.781.112Zm40.2,1.946a1,1,0,0,1-.271.272c-.256.207-.271.191-.064-.064s.335-.335.335-.207Zm-94.312,5.392a25.826,25.826,0,0,0,5.966,2.2.29.29,0,0,1,.281.216.29.29,0,0,1-.137.326,8.213,8.213,0,0,1-2.027-.479c-5.137-1.547-8.279-3.222-11.023-5.855a10,10,0,0,1-1.324-1.4,27.28,27.28,0,0,1,3.079,1.9c1.675,1.117,4.02,2.5,5.185,3.1Zm91.76-3.8a22.049,22.049,0,0,1-3.366,2.026,13.669,13.669,0,0,1-2.074.829,7.755,7.755,0,0,1-2.664.351,15.5,15.5,0,0,1,1.739-.67c.909-.3,2.7-1.021,3.972-1.564s2.329-1.005,2.361-1.021c.015-.016.032.015.032.047Zm-82.906,6.588a.842.842,0,0,1-.4,0c-.112-.048-.032-.08.191-.08s.3.032.208.08Zm73.383,1.133a8.175,8.175,0,0,1,.909,3.558,7.549,7.549,0,0,1-1.085,3.541c-.287.287-.3.271-.1-.718a16.585,16.585,0,0,0-.511-7.227c-.239-.59.335.016.782.846Zm-74.26.3a15.341,15.341,0,0,0-1.021,2.6,11.808,11.808,0,0,0,.016,4.547,11.36,11.36,0,0,0,2.361,4.259c.813.734.51.814-.718.191a6.933,6.933,0,0,1-2.76-2.792c-.431-.813-.431-.909-.351-2.776a13.525,13.525,0,0,1,1.148-5.233c.383-.813.479-.909.909-.909.256,0,.447.048.415.111Zm71.659,5.728a3.457,3.457,0,0,1-1.467,2.154c-.5.255-.51.063-.08-.591a13.59,13.59,0,0,0,1.021-2.2c.606-1.6.606-1.612.654-.925a6.864,6.864,0,0,1-.128,1.564Zm-68.182,1.77a10.075,10.075,0,0,0,4.658,2.361c1.9.415,2.01.495.925.638a8.562,8.562,0,0,1-4.435-.51c-1.931-.909-2.68-1.946-2.68-3.654l.016-.941.335.622a7.087,7.087,0,0,0,1.181,1.484Zm29.8,1.4c.1.383-.064,6.365-.383,14.214-.08,2.089-.16,3.892-.16,3.988,0,.127-2.074.207-6.891.271-3.8.063-9.221.16-12.029.208-5.232.112-14.979-.176-15.155-.431-.287-.462,1.723-3,3.159-4.02,2.648-1.85,4.882-2.217,11.055-1.8a21.09,21.09,0,0,0,4.866-.207c2.552-.3,5.839-.75,6.62-.91.256-.047.829-1.18,2.632-5.2,1.26-2.84,2.616-5.823,2.983-6.62l.686-1.484,1.26.814c.862.542,1.293.925,1.356,1.18Zm5.807-1.4c.239.16.893.606,1.467,1.021a15.958,15.958,0,0,0,1.691,1.069c.606.3.8.574,2.058,2.92,2.345,4.355,4.8,8.136,5.743,8.886.7.558,2.377.718,5.982.622,1.8-.064,4.211-.223,5.344-.367a27.073,27.073,0,0,1,7.689-.016,9.466,9.466,0,0,1,4.116,2.329c1.675,1.5,1.691,1.563.75,1.675-1.9.239-5.28.431-10.529.574-8.789.239-10.449.319-13.113.654-3.366.414-7.242.75-10.146.877l-2.425.112-.1-1.5c-.064-.83-.1-5.12-.064-9.556s-.015-8.216-.08-8.407c-.112-.287-.032-.415.479-.75.734-.479.623-.463,1.133-.144Zm-20.228,2.2a13.467,13.467,0,0,1-3.318,1.5,24.822,24.822,0,0,1-8.3,1.2,7.927,7.927,0,0,1-3.015-.558c-.431-.16-.495-.526-.064-.383a20.53,20.53,0,0,0,4.212.558,38.377,38.377,0,0,0,8.343-1.739c2.041-.671,2.137-.7,2.137-.575Zm0,0" transform="translate(363.981 313.999)" fill="#8db987"/>
          </g>
        </g>
        <path id="パス_28486" data-name="パス 28486" d="M-197.947-212.549a5.256,5.256,0,0,0-3.35,1.707c-.59.638-.638.766-.558,1.34.128.989.383,1.117.877.447a6.8,6.8,0,0,1,3.015-2.249,14.609,14.609,0,0,0,1.707-.909c.176-.287-.654-.447-1.691-.335Zm0,0" transform="translate(-136.253 -85.236)" fill="#8db987"/>
        <path id="パス_28487" data-name="パス 28487" d="M-162.473-207.117c-.383.191-.527.367-.527.67,0,.606.415.973.941.814a3.229,3.229,0,0,0,1.723-1.053c.224-.351.224-.431.032-.558a3.34,3.34,0,0,0-2.169.128Zm0,0" transform="translate(-168.935 -89.616)" fill="#8db987"/>
        <path id="パス_28488" data-name="パス 28488" d="M-214.995-176.574l-1.005.622v1.324c0,3.111.495,5.264,1.547,6.8,1.005,1.484,1.66,1.516,1.148.063a23.6,23.6,0,0,1-1.037-5.758c-.112-1.739-.112-1.771.319-2.409.431-.654.495-1.117.176-1.228a4.3,4.3,0,0,0-1.148.59Zm0,0" transform="translate(-124.39 -115.006)" fill="#8db987"/>
        <path id="パス_28489" data-name="パス 28489" d="M267.957-174.317c0,.048.191.654.431,1.324a7.853,7.853,0,0,1,.447,3.558,11.317,11.317,0,0,1-.447,3.86,22.086,22.086,0,0,1-.909,2.7,6.7,6.7,0,0,0-.479,1.5c0,.846.973.877,1.675.064a20.906,20.906,0,0,0,1.851-5.615,11.237,11.237,0,0,0-.335-4.929c-.51-1.388-1.26-2.425-1.787-2.489-.256-.032-.447-.015-.447.032Zm0,0" transform="translate(-530.338 -117.36)" fill="#8db987"/>
        <path id="パス_28490" data-name="パス 28490" d="M-64.886-170.219c-.4.4-.208,1.069.479,1.819a4.134,4.134,0,0,0,4.164,1.34c2.521-.383,3.637-1.4,2.616-2.361-.367-.351-1.228-.479-1.228-.191a5.823,5.823,0,0,1-2.265.718,2.832,2.832,0,0,1-2.329-.941c-.654-.591-1.1-.718-1.436-.383Zm0,0" transform="translate(-251.224 -120.691)" fill="#8db987"/>
        <path id="パス_28491" data-name="パス 28491" d="M54.035-158.5c-.4.383.208,1.931.989,2.569a3.415,3.415,0,0,0,2.648,1.069c1.659,0,3.287-.574,3.812-1.34.591-.862.671-1.356.272-1.755-.479-.479-.91-.415-1.468.223a4.041,4.041,0,0,1-2.616,1.053c-.75.063-1.1-.128-1.978-1.053-.75-.829-1.341-1.1-1.66-.766Zm0,0" transform="translate(-351.241 -130.578)" fill="#8db987"/>
        <path id="パス_28492" data-name="パス 28492" d="M-122.574-104.615c-.351,1.117-.351,1.244.208,2.807A17.413,17.413,0,0,0-113.337-92a37.382,37.382,0,0,0,10.576,2.824,34.591,34.591,0,0,0,9.349-.75A26.193,26.193,0,0,0-84.4-94.358a31.624,31.624,0,0,0,4.387-4.148c.3-.415.558-.575.861-.575a1.715,1.715,0,0,0,1.356-1.835c-.127-.542-.909-1.26-2.058-1.93-.527-.3-1.085-.638-1.228-.75-.5-.335-.829.208-.877,1.4a4.551,4.551,0,0,1-.3,1.547,13.786,13.786,0,0,1-5.12,5.264,32.789,32.789,0,0,1-13.209,3.031,16.2,16.2,0,0,1-6.7-1.021c-6.493-2.377-10.959-6-12.778-10.338-.51-1.26-1-1.755-1.722-1.755-.479,0-.527.048-.782.846Zm0,0" transform="translate(-202.709 -175.271)" fill="#8db987"/>
        <path id="パス_28493" data-name="パス 28493" d="M-266.456-30.237a7.4,7.4,0,0,0-2.5,1.2c-.846.59-.942.718-.894,1.149a.623.623,0,0,0,.495.638c.51.176.479.192,2.361-1.117,1.356-.941,1.978-1.563,1.818-1.8-.1-.176-.67-.208-1.276-.064Zm0,0" transform="translate(-79.119 -238.419)" fill="#8db987"/>
        <path id="パス_28494" data-name="パス 28494" d="M-303.693-5.718a2.2,2.2,0,0,0-.7,1.643,11.963,11.963,0,0,0,.558,5.791c1.069,3.493,1.93,4.9,3.621,5.871,1.612.925,1.962.414.654-.99A13.991,13.991,0,0,1-302.385.791a8.76,8.76,0,0,1-.4-3.829c.192-3.286.208-3.174-.08-3.239-.143-.032-.526.224-.829.558Zm0,0" transform="translate(-49.985 -258.631)" fill="#8db987"/>
        <path id="パス_28495" data-name="パス 28495" d="M285.389,6.712c-.3.192-.1.734.622,1.691a7.578,7.578,0,0,1,.781,1.244c.367.941.128,2.473-.622,4.227-.319.718-.335.877-.143,1.005a1.634,1.634,0,0,0,1.547-.383,6.118,6.118,0,0,0,.989-3.6,4.226,4.226,0,0,0-1.452-3.446c-.813-.861-1.228-1.037-1.722-.734Zm0,0" transform="translate(-545.68 -269.434)" fill="#8db987"/>
        <path id="パス_28496" data-name="パス 28496" d="M284.349,8.867c-.414.16-.383.223.319,1.132a4.865,4.865,0,0,1,1.117,3.143,6.433,6.433,0,0,1-1.4,3.941c-1.26,1.914-2.329,2.807-4.977,4.211-2.456,1.308-2.648,1.516-1.739,2.074.606.383.893.335,2.488-.415a32.16,32.16,0,0,0,4.93-3.238,17.721,17.721,0,0,0,2.106-3.494c.941-2.488.351-5.535-1.372-7.051-.574-.495-.845-.558-1.467-.3Zm0,0" transform="translate(-538.882 -271.237)" fill="#8db987"/>
        <path id="パス_28497" data-name="パス 28497" d="M-250.88,88.693c-.479.191-.176.782.766,1.484,2.744,2.042,3.445,2.393,4.77,2.393.8,0,1.228-.287,1.053-.718a.443.443,0,0,0-.4-.239,13.142,13.142,0,0,1-3.781-2.074C-249.764,88.63-250.272,88.439-250.88,88.693Zm0,0" transform="translate(-94.886 -338.365)" fill="#8db987"/>
        <path id="パス_28498" data-name="パス 28498" d="M-171.473,165.238c-.287.128-.527.319-.527.431a6.659,6.659,0,0,0,.957,2.744c.925,1.276,3.287,2.585,4.1,2.25.256-.1.239-.128-.112-.367a12.834,12.834,0,0,1-1.532-1.4c-1.228-1.228-1.6-1.962-1.451-2.855.128-.814-.543-1.18-1.436-.8Zm0,0" transform="translate(-161.371 -402.659)" fill="#8db987"/>
        <path id="パス_28499" data-name="パス 28499" d="M325.547-279.131c-.1.271.462,1.292,1.818,3.334a16.108,16.108,0,0,1,2.935,6.541c.144,1.245.239,1.516.5,1.516.7,0,1.1-2.106.638-3.526-.638-1.962-4-7.434-4.866-7.88-.59-.3-.894-.3-1.021.016Zm0,0" transform="translate(-579.536 -29.104)" fill="#8db987"/>
        <path id="パス_28500" data-name="パス 28500" d="M-297.379-274.791a30.124,30.124,0,0,0-11.757,7.689c-1.771,1.787-1.946,2.137-1.467,2.7.255.271.335.224,1.659-1.052a40.547,40.547,0,0,1,5.871-4.674c3.191-2.122,5.472-3.159,7.578-3.478.718-.112.75-.143.75-.654a.83.83,0,0,0-.351-.765c-.479-.335-.623-.319-2.281.239Zm0,0" transform="translate(-44.686 -32.566)" fill="#8db987"/>
        <path id="パス_28501" data-name="パス 28501" d="M356.815-172.68a35.631,35.631,0,0,1-.957,7.817c-.75,3.462-1.532,5.472-2.823,7.275-.447.638-.51.813-.351,1.005a1.121,1.121,0,0,0,1.18.446c.686-.175,2.345-3.749,3.191-6.844a35.3,35.3,0,0,0,1.069-10.13l-.112-1.356-.59-.048-.606-.048Zm0,0" transform="translate(-602.286 -117.194)" fill="#8db987"/>
        <path id="パス_28502" data-name="パス 28502" d="M-298.117-169.715c-.462,1.069-.047,4.578.766,6.668a7.773,7.773,0,0,0,2.106,3.143c1.037.7,1.069.383.176-1.436a19.465,19.465,0,0,1-1.627-5.966c-.176-1.6-.59-2.728-1.021-2.872-.1-.032-.287.175-.4.462Zm0,0" transform="translate(-55.211 -120.877)" fill="#8db987"/>
        <path id="パス_28503" data-name="パス 28503" d="M336.178-43.2c-.208.191-.16.335.287.845a1.242,1.242,0,0,0,.781.495c1.037,0,4.339,1.883,5.886,3.366,1.914,1.8,2.409,3.111,2.409,6.365a11.062,11.062,0,0,1-.287,3.031,8.721,8.721,0,0,0-.319,1.276c-.048.431.463.335,1.1-.223.925-.8,1.244-1.947,1.244-4.483a7.9,7.9,0,0,0-.431-3.191c-.638-1.866-1.356-2.808-3.414-4.387-2.185-1.691-4.754-2.983-6.19-3.127a2.453,2.453,0,0,0-1.069.032Zm0,0" transform="translate(-588.381 -227.546)" fill="#8db987"/>
        <g id="グループ_4907" data-name="グループ 4907" transform="translate(-363.981 -314)">
          <g id="グループ_4906" data-name="グループ 4906" clip-path="url(#clip-path)">
            <path id="パス_28504" data-name="パス 28504" d="M317.4,96.382a45.1,45.1,0,0,1-8.6,8.088,15.38,15.38,0,0,1-4.021,1.947c-.51.143-.781.287-.781.446a1.1,1.1,0,0,0,.638,1.133c.415.176.622.112,2.106-.606a31.255,31.255,0,0,0,11.311-9.7c1-1.34,1.132-1.85.542-2.233-.3-.207-.4-.127-1.2.925Zm0,0" transform="translate(-197.455 -30.06)" fill="#8db987"/>
            <path id="パス_28505" data-name="パス 28505" d="M-364,115.719V116.9l1.516,1.516a32.288,32.288,0,0,0,11.789,7.37l1.261.462.287-.366c.431-.543.383-.718-.287-.957a41.545,41.545,0,0,1-7.147-3.813c-3.589-2.393-5.44-4.083-6.509-5.966-.191-.335-.479-.606-.622-.606-.256,0-.287.16-.287,1.18Zm0,0" transform="translate(363.981 -46.175)" fill="#8db987"/>
          </g>
        </g>
        <path id="パス_28506" data-name="パス 28506" d="M330.783,138.289a37.087,37.087,0,0,1-4.77,4.962c-3.478,2.967-5.44,4.243-7.657,4.945-1.228.383-1.356.462-1.356.829a.878.878,0,0,0,.59.941c.3.16.543.112,1.532-.3a30.883,30.883,0,0,0,5.408-3.111c2.521-1.818,7.626-7.338,7.626-8.232,0-.239-.462-.782-.67-.782a4.161,4.161,0,0,0-.7.75Zm0,0" transform="translate(-572.362 -379.506)" fill="#8db987"/>
        <g id="グループ_4908" data-name="グループ 4908" transform="translate(-364 -239.096)">
          <path id="パス_28507" data-name="パス 28507" d="M259.984,155.762c-.3.224-.287.255.239,1.324a20.2,20.2,0,0,1,.83,1.946c.733,2.09.063,4.8-1.708,6.972-.622.75-.51,1.021.415,1.021,2.074,0,3.812-3.829,3.207-7.067-.352-1.882-1.755-4.419-2.441-4.419a1.158,1.158,0,0,0-.543.223Zm0,0" transform="translate(-159.578 -155.539)" fill="#8db987"/>
          <path id="パス_28508" data-name="パス 28508" d="M-363.792,158.813c-.128.048-.208.4-.208.925,0,.829.016.861,1.021,1.787a31.233,31.233,0,0,0,13.624,7.147c1.26.3,1.627.208,1.627-.462,0-.287-.256-.431-1.866-.957-5.552-1.819-11.422-5.344-13.209-7.9-.431-.638-.575-.718-.989-.543Zm0,0" transform="translate(364 -158.223)" fill="#8db987"/>
        </g>
      </g>
    </g>
  </g>
</svg>
