<svg xmlns="http://www.w3.org/2000/svg" width="34.652" height="48" viewBox="0 0 34.652 48">
  <path id="icon" d="M22.73,55.943l-.246-1.151-.278-.894-.177-.946-.454-.8-.342-.855-.59-1.052-.982-.987.757-1.022-.145-.989-.262-.986.129-1,.169-1-.733-.97-.16-.99-.013-.994-.053-.993.156-1,.023-.995.562-1.012-.667-.974.417-1.008-.128-.99.149-1-.277-.985-.025-.994-.3-.985.469-1.011-.384-.981.333-1.007-.1-.991-.31-.984.36-1.009L19.3,23.4l.135-1-.617-.969.111-1.119-.8-.742-.642-.845-.781-.645-.623-.8-.256-.992-.947-.729-.2-1.056.3-1.045.107-1.027.3-1,.634-.83.689-.7.7-.646.692-.734,1.051.091.878-.592,1-.027.914.528.968.1.789.425.411.835.952.544-.008,1.018.409.923L25.3,13.6l1.108.44.471,1.128.953.523,1.179-.065.769.875,1.3-.371.886.49.9.458.6,1.107,1.219-.229.663.964.838.586,1.221-.222.975.3.661.96.813.637,1.11.018.853.554.746.772,1.013.224,1.056.137.724.814.846.565.982.288.879.5.457.53.8.521-.367.877.1,1.279-1.272.1-.954.275-.928.348L44.9,28.785l-.926.314-.9.392-.882.413-1.12-.346-.918.333-.711.874-.991.116-1.018.074-.857.467-.738.729-1.11-.115-.916.322-.63.966-1.005.12-.9.344-.777.649-.856.471L28.6,34.879l-.941.226-.719.765-.923.274-.7.669-.735.537-.938.558.347,1.1.052.919-.195.929-.258.957.062.953.4.937-.7,1.1.881.959-.263,1.083-.25,1.1.909.908-.484,1.145.446.981.308,1.006.09,1.043.285,1.054-.589.915L24.088,56Zm.48-22.995.646-.089,1-.219,1.043-.112.929-.408.971-.3.936-.392.708-.985,1.231.377.907-.465.864-.577,1-.211,1.019-.174.7-1.018.9-.484.954-.346.939-.383,1.014-.19.967-.312,1.16.189.72-.957,1.29-.189-1.057-.641-.77-.623-.973-.254-.852-.476-.984-.23-.64-.9L36.8,22.475l-.759-.727-.956-.3-1.03-.083-.812-.7-1.037-.034-.889-.476-1.122.238L29.41,19.6l-1-.149-.884-.462-.969-.238-1-.378-.942-.607-.991.556-.293.681-.361,1.014.092,1.064.076,1.019-.168,1.019-.147,1.019-.021,1.019.254,1.02L22.615,27.2l.45,1.019.03,1.02-.4,1.019.131,1.019L22.815,32.3Z" transform="translate(-14.674 -8)" fill="#fff"/>
</svg>
