<svg id="icon_ichiji" xmlns="http://www.w3.org/2000/svg" xmlns:xlink="http://www.w3.org/1999/xlink" width="56.61" height="48" viewBox="0 0 56.61 48">
  <defs>
    <clipPath id="clip-path">
      <rect id="長方形_1872" data-name="長方形 1872" width="56.61" height="48" fill="none"/>
    </clipPath>
  </defs>
  <g id="グループ_5393" data-name="グループ 5393" clip-path="url(#clip-path)">
    <path id="パス_29321" data-name="パス 29321" d="M51.3,18.583l-.361-.316-.185.212-.139-.245-.417.238a10.16,10.16,0,0,0-1.551,1.236,13.692,13.692,0,0,1-1.811,1.447C44.67,22.474,37.61,25,34.361,23.713a2.234,2.234,0,0,1-1.46-1.548c-.475-1.714,0-3.563.462-5.351a15.691,15.691,0,0,0,.687-4.208,12.851,12.851,0,0,0-4.3-9.541A13.227,13.227,0,0,0,19.408.1a15.478,15.478,0,0,0-11.9,7.927,18.321,18.321,0,0,1-2.2.34c-1.921.222-4.1.471-4.926,2.309a3.777,3.777,0,0,0-.077,3.167c.67,1.536,2.395,2.83,5.265,3.945-2.543,4.4-3.417,12.773-2.566,15.8.873,3.127,4.714,7.189,6.927,9.333,3.543,3.432,9.013,4.167,15.273,4.718,2.721.238,5.494.359,8.244.359,1.681,0,3.373-.044,5.034-.133,3.254-.206,6-1.655,8.658-3.056a28.754,28.754,0,0,1,4.052-1.89l.342-.113.181-.309a14.545,14.545,0,0,1,1.505-1.964,12.26,12.26,0,0,0,2.58-3.993c2.246-6.442-.515-14.486-4.5-17.957M3.681,12.26A13.517,13.517,0,0,1,6.5,11.58c0,.021-.009.043-.014.064a14.47,14.47,0,0,0-.392,2.37A2.676,2.676,0,0,1,3.681,12.26m5.877,1.154A10.975,10.975,0,0,1,19.4,3.79a10.506,10.506,0,0,1,8.243,2.184,9.38,9.38,0,0,1,3.151,6.913,21.564,21.564,0,0,1-.558,4.653c-.7,3.677-1.5,7.831,2.988,9.633l0,.015.451.154c6.006,2.046,13.354-1.643,16.9-4.644a14.734,14.734,0,0,1,2.519,10.34,9.6,9.6,0,0,1-4.051,7.054c-1.8,1.159-6.635,3.682-10.058,4.083-6.763.8-20.76-.185-24.363-2.118-2.674-1.433-7.937-7.126-8.409-10.2a19.808,19.808,0,0,1,.635-8.681,10.011,10.011,0,0,1,1.127-2.126,10.589,10.589,0,0,0,1.569-3.3,9.121,9.121,0,0,0,.077-3.015l-.479.041.479-.045a7.972,7.972,0,0,1-.06-1.312" transform="translate(0 0)" fill="#26333b"/>
    <path id="パス_29322" data-name="パス 29322" d="M15.536,13.911c.085,0,.174,0,.26-.01a4.147,4.147,0,0,0,3.619-2.839c.164-.641.319-2.278-1.778-3.627l-.373-.142c-3.366-.509-4.178,2.43-4.489,3.554-.043.158-.081.3-.12.4l-.131.352.145.347a3,3,0,0,0,2.867,1.961" transform="translate(-0.499 -0.288)" fill="#26333b"/>
  </g>
</svg>
