<svg xmlns="http://www.w3.org/2000/svg" width="46.606" height="48" viewBox="0 0 46.606 48">
  <g id="icon_event" transform="translate(-4611.212 -3608.443)">
    <path id="パス_29002" data-name="パス 29002" d="M4629.911,3613.417l-.068.066.1-.043-.057.087.1-.042-.038.1.046-.1.037.1.024-.1.038.1.038-.1-.008.107.074-.074-.021.1.075-.073,0,.109.024-.105.053.09.006-.1.054.09.022-.106,0,.108.066-.081-.01.1.067-.081.008.108.241-.1.241.1.239-.1.242.1.241-.1.236.113.245-.087.235.113.246-.087.238.113.238-.111.245.089.236-.111.245.089.238-.111.241.1.241-.1.239.1.243-.1.244.1.214-.143.246.055.208-.142.247.055.179-.123.093-.227-.1-.259.1-.257-.1-.26.1-.258-.106-.257.095-.26-.105-.256.095-.261-.105-.263.157-.234-.04-.273.156-.228-.04-.274.152-.219.072-.248.235-.133.079-.259.236-.134.1-.274.268.119.262-.077.244.123.262-.077.238.122.111-.045.021.132.128-.038.021.132.143-.024-.075.125.116.069-.082.106.115.069-.082.1.11.074-.089.1.11.077-.089.1.111.085-.118.075.08.109-.117.067.08.109-.118.073.1.093-.1.091.1.088-.1.091.1.093-.116.1.083.129-.116.1.083.13-.116.105.1.116-.1.12.1.112-.1.12.1.116-.113.108.087.126-.112.1.087.127-.112.11.113.108-.086.127.113.1-.085.127.112.1-.067.132.127.083-.066.136.127.083-.041.168.227-.082.194.112.206-.088.2.112.208-.088.189.122.21-.077.188.122.211-.077.192.123.2-.1.2.1.2-.1.2.1.2-.1.2.11.205-.09.2.11.206-.09.2.11.193-.121.209.079.189-.121.21.079.192-.121.115.1.115-.1.112.1.116-.1.116.1.1-.112.124.087.1-.112.125.087.107-.112.108.111.122-.089.1.111.124-.089.108.111.109-.109.121.091.105-.109.121.091.11-.109.112.108.124-.092.109.108.124-.092.146.1-.081-.147.1-.108-.1-.11.1-.108-.1-.112.11-.1-.09-.115.109-.1-.09-.115.109-.1-.116-.095.083-.12-.116-.089.083-.121-.116-.094.1-.106-.1-.11.1-.1-.1-.11.1-.105-.11-.1.09-.115-.109-.1.089-.115-.11-.1.112-.048-.086-.079.11-.039-.085-.081.112-.047-.106-.058.094-.07-.105-.051.094-.071-.106-.061.115-.04-.079-.086.113-.031-.079-.087.115-.037-.1-.07.1-.057-.1-.064.1-.058-.1-.075.121-.019-.062-.1.117-.01-.062-.1.117-.01-.039-.148.142-.06-.038-.149.142-.06-.031-.16.162.011.042-.148.152.019.042-.148.148.022.066-.133.145.052.072-.135.145.051.088-.139.1.129.138-.066.085.127.138-.066.078.125.145-.023.041.148.152-.019.041.148.165-.008-.044.166.137.086-.051.154.137.086-.052.15.121.1-.075.144.123.107-.075.145.124.114-.114.124.086.138-.114.117.086.139-.114.119.1.131-.1.126.1.129-.1.127.1.134-.121.111.077.143-.121.109.077.144-.122.114.106.077-.094.086.107.069-.094.086.107.075-.112.066.087.092-.111.061.087.092-.112.067.106.074-.093.086.106.069-.093.086.106.077-.115.062.082.1-.114.055.083.1-.115.06.1.078-.1.072.1.074-.1.072.07.027.162.1.19-.091.181.109.191-.091.184.109.184-.11.193.09.182-.11.193.09.186-.11.183.112.193-.088.181.111.194-.088.184.112.186-.1.19.1.186-.1.19.1.189-.1.177.121.2-.078.175.121.2-.078.177.121.1-.1.087.1.095-.1.087.1.1-.1.058.127.12-.062.051.126.121-.062.054.127.113-.077.067.118.111-.078.068.118.119-.075.031.137.13-.036.023.134.131-.036.021.131.13-.022.006.135.133-.019.006.135h.148l-.055.237.139.188-.058.227.139.189-.058.227.137.19-.06.226.137.19-.06.227.138.195-.1.218.1.209-.1.214.1.21-.1.216.117.2-.083.219.117.2-.083.22.118.206-.1.213.1.213-.1.21.1.214-.1.214.136.69-.064.7.136.69-.064.7.136.691-.09.7.11.694-.09.7.11.7-.09.7.125.692-.074.7.125.691-.074.7.125.693-.1.7.1.7-.1.7.1.7-.1.7.121.693-.08.7.121.692-.079.7.121.694-.1.254.1.255-.1.252.1.256-.1.255,0-.24.1-.235-.095-.24.1-.236-.1-.24.112-.25-.089-.258.112-.249-.089-.259.112-.25-.1-.24.1-.236-.1-.239.1-.237,0-.229-.106.243.094.256-.106.251.094.257-.107.254.116.345-.085.353.116.344-.085.354.116.346-.1.349.1.35-.1.348.1.35-.1.35.119.344-.082.354.119.343-.081.354.119.345-.1.35.1.349-.1.348.1.35-.1.35.117.345-.083.353.117.343-.083.354.117.348-.134.355.065.371-.134.352.065.371-.134.349.023.373-.173.334.023.376-.174.335.021.382-.244.293-.059.371-.242.289-.06.373-.241.287-.095.362-.269.262-.1.364-.27.264-.1.369-.319.207-.167.337-.317.2-.168.338-.316.2-.129.258-.268.113-.131.26-.269.114-.136.264-.292.054-.186.224-.287.051-.187.224-.286.05-.2.209-.289.029-.2.21-.29.03-.208.212-.294-.035-.244.159-.29-.037-.245.159-.287-.037-.256.135-.284-.064-.258.135-.285-.063-.264.135-.685-.106-.685.094-.684-.106-.686.094-.686-.106-.683.114-.686-.086-.682.114-.687-.087-.684.114-.684-.106-.685.094-.683-.106-.686.094-.686-.106-.683.115-.686-.085-.682.115-.687-.085-.684.115-.684-.1-.685.1-.684-.1-.686.1-.686-.1-.207.117-.22-.082-.2.117-.221-.082-.206.117-.215-.1-.21.1-.214-.1-.211.1-.217-.1-.2.124-.222-.075-.2.124-.223-.075-.2.124-.214-.1-.212.1-.212-.1-.213.1-.213-.1-.209.108-.215-.093-.208.108-.216-.093-.212.108-.545-.121-.552.079-.545-.121-.553.079-.546-.121-.551.092-.547-.109-.551.091-.548-.109-.555.091-.532-.175-.558.024-.53-.175-.558.023-.527-.175-.551-.055-.5-.249-.554-.056-.5-.249-.564-.06-.365-.427-.484-.266-.357-.422-.485-.267-.357-.422-.105.036.034-.109-.11.031.033-.11-.117.022.072-.094-.112-.018.077-.085-.113-.019.074-.092-.117.011.047-.1-.113.017.046-.1-.119.008.081-.086-.11-.028.084-.078-.111-.029.081-.086-.117,0,.052-.1-.114.011.052-.1h-.12l.02-.268-.169-.2.021-.265-.17-.205.021-.265-.163-.209.029-.264-.163-.21.029-.265-.164-.215.075-.259-.124-.235.076-.255-.124-.236.076-.255-.124-.235.075-.255-.124-.235.076-.256-.125-.24.112-.245-.089-.251.112-.242-.088-.251.112-.243-.1-.254.1-.253-.1-.253.1-.254-.1-.256.123-.245-.078-.26.122-.243-.078-.261.122-.243,0,.057-.1.054.1.065-.1.055,0,.062.108-.25-.092-.256.109-.25-.091-.257.108-.252-.11-.25.09-.257-.11-.249.09-.258-.111-.251.109-.866-.091-.867.109-.866-.091-.869.109-.867-.112-.865.088-.868-.113-.866.088-.869-.112-.867.108-.866-.092-.867.107-.866-.092-.869.108-.867-.111-.866.09-.868-.111-.866.089-.869-.111-.867.113-.866-.087-.868.112-.866-.087-.869.113-.867-.1-.141.1-.145-.1-.14.1-.146-.1-.146.125-.126-.072-.159.125-.121-.072-.159.125-.124-.083-.154.116-.13-.083-.153.116-.131-.083-.158.141-.108-.051-.167.14-.1-.051-.167.141-.106-.063-.163.131-.115-.064-.162.131-.115-.062-.169.135-.025-.037-.126.131-.016-.037-.126.131-.017-.042-.125.129-.022-.042-.125.13-.022-.037-.133.135.022.007-.132.129.028.007-.132.13.027,0-.133.13.019,0-.132.131.018.007-.139.12.069.054-.12.109.073.054-.12.109.073.117-.135.169.059.118-.135.17.059.124-.136.157.095.145-.105.152.1.146-.105.155.095.137-.117.16.082.135-.117.16.082.14-.118.149.1.151-.1.146.1.152-.1.15.1.138-.118.16.081.135-.118.16.081.1-.1.093-.142-.1-.177.1-.173-.1-.178.1-.174-.1-.179.1-.182-.1-.18.1-.183-.1-.184.119-.171-.08-.191.119-.17-.08-.192.119-.173-.1-.184.1-.181-.1-.182.1-.181-.1-.186.124-.168-.076-.192.124-.166-.075-.193.121-.158-.013-.177.166-.087-.009-.187.166-.088,0-.2.2.022.11-.154.187.031.111-.155.179.033.147-.1.163.1.157-.105.164.1.177-.1.058.193.183.04.042.183.184.041.035.174.139.111-.047.183.144.123-.046.184.146.131-.1.154.1.151-.1.146.1.152-.1.15.113.142-.087.157.113.14-.087.157.113.144-.107.146.093.153-.107.144.093.154-.107.148.117.139-.082.159.117.136-.082.16.117.138-.092.158.108.147-.092.158.108.147-.064.2.3-.106.28.089.274-.111.282.089.275-.111.274.107.277-.094.272.107.278-.094.275.107.271-.116.28.083.269-.116.281.083.271-.116.277.1.274-.1.276.1.275-.1.281.1.255-.145.285.052.251-.145.285.052.247-.144.075.043-.068-.082.1.019-.067-.083h.111l-.106-.037.09-.059-.106-.02.09-.06-.107-.031.108-.026-.088-.063.107-.015-.087-.064.108-.029-.109-.023.084-.067-.108-.01.084-.068-.11-.022.106-.034-.092-.057.106-.023-.092-.058.106-.037-.12-.082.077-.118-.119-.077.077-.119-.12-.083.1-.1-.1-.1.1-.1-.1-.1.1-.1-.114-.087.084-.114-.114-.084.084-.114-.115-.09.108-.1-.092-.108.108-.091-.092-.108.108-.1-.109-.094.091-.108-.109-.091.091-.109-.109-.1.11-.036-.087-.07.109-.027-.087-.071.11-.037-.108-.041.09-.065-.107-.032.09-.067-.108-.044.113-.027-.08-.077.11-.016-.08-.079.112-.023-.1-.06.1-.043-.1-.055.1-.045-.095-.069.117.007-.053-.1.11.018-.052-.1.1.028.016-.124.122.046.022-.128.123.045.035-.133.1.1.087-.1.087.1.087-.1.091.1.077-.111.1.088.074-.111.1.088.082-.111.074.116.1-.082.066.115.1-.082.066.115.105-.08.065.116.106-.08.065.116.14-.056-.066.208.126.162-.072.192.126.162-.072.192.121.164-.078.189.121.166-.078.19.122.169-.1.18.1.18-.1.178.1.181-.1.181.118.17-.082.188.118.168-.082.189.118.168-.076.184.123.159-.075.186.122.152ZM4613.4,3628.55l-.074.489.093.539-.107.536.093.54-.107.538.11.541-.091.544.11.541-.091.545.11.542-.111.541.09.544-.11.54.09.545-.111.542.111.541-.09.544.11.54-.089.545.11.542-.108.542.092.544-.108.541.092.545-.109.543.113.249-.088.256.112.247-.088.257.107.228.012-.19-.094-.216.106-.21-.093-.217.106-.212-.106-.251.094-.254-.106-.25.094-.255-.106-.251.107-.211-.092-.217.108-.21-.092-.218.014-.187.107.224-.087.256.114.246-.087.257.114.249-.114.281.086.288-.114.279.086.289-.114.281.1.285-.1.284.1.284-.1.285.1.286-.115.28.085.289-.115.279.085.29-.115.282.12.279-.08.29.12.277-.08.291.12.277-.074.291.125.273-.075.292.126.275-.074.3.158.2-.037.25.157.2-.037.251.157.2-.041.25.154.2-.041.25.154.2-.04.254.188.175,0,.252.186.171,0,.253.186.17.019.25.2.158.019.252.2.159.026.261.25.063.123.217.243.056.124.217.234.051.346.21.41.021.352.212.411.021.355.213.412-.037.378.16.409-.038.379.16.409-.038.381.151.408-.047.381.152.409-.047.385.152.4-.09.4.111.4-.09.4.111.4-.09.395.115.4-.085.395.115.4-.085.4.115.477-.131.488.069.474-.131.489.069.475-.131.487.063.473-.136.488.063.474-.136.491.063.466-.162.491.037.465-.162.492.037.468-.162.489.071.475-.129.487.071.476-.129.487.071.478-.116.485.084.478-.116.486.084.481-.117.536.129.545-.072.534.129.546-.072.537.129.54-.109.542.092.539-.109.542.092.538-.109.543.071.534-.13.544.07.535-.13.549.07.51-.212.548-.015.507-.211.549-.015.5-.211.54-.077.479-.268.543-.078.479-.269.548-.08.215-.245.312-.071.209-.242.313-.071.207-.241.3-.107.176-.266.3-.109.177-.267.307-.115.095-.312.254-.192.09-.307.255-.194.088-.3.212-.233.03-.318.214-.237.031-.319.217-.245-.063-.321.135-.289-.064-.313.135-.291-.064-.313.118-.189-.082-.207.118-.19-.082-.208.022-.175.1.241-.091.265.109.259-.091.266.109.262-.116.258.084.268-.117.256.084.269-.116.258.1.265-.1.261.1.264-.1.262.094.282-.018-.226-.12-.192.079-.213-.12-.193.079-.211-.132-.7.068-.712-.132-.7.068-.713-.132-.7.085-.711-.116-.706.084-.71-.116-.707.084-.712-.138-.7.063-.713-.138-.7.062-.714-.138-.7.082-.711-.118-.705.082-.711-.118-.707.082-.713-.137-.7.063-.712-.137-.7.063-.714-.137-.7.107-.125-.093-.133.107-.122-.093-.133.107-.125-.11-.122.09-.135-.11-.119.09-.135-.111-.124.111-.122-.089-.135.111-.118-.089-.136.111-.123-.109-.123.091-.134-.109-.12.09-.135-.109-.123.105-.13-.094-.137.106-.128-.095-.137.058-.181-1.652.154-1.655-.046-1.648.155-1.656-.046-1.649.155-1.654-.066-1.649.135-1.653-.066-1.65.135-1.655-.066-1.647.155-1.655-.046-1.647.155-1.655-.046-1.649.155-1.653-.066-1.65.135-1.653-.066-1.65.135-1.654-.066-1.646.154-1.653-.046-1.646.154-1.654-.046Zm24.294-8.32-.021-.109-.069.085-.017-.109-.071.084-.025-.11-.047.1-.051-.1-.039.1-.052-.1-.054.1v-.115l-.09.062.014-.109-.091.062.009-.112-.08.078-.009-.109-.076.08-.01-.11-.091.071.054-.1-.109.01.065-.089-.109.009.062-.094-.1.048.044-.094-.088.055.044-.1-.1.038.1-.05-.1-.03.1-.03-.1-.03.1-.044-.106.016.069-.079-.1.03.068-.08-.108.011.1-.029-.093-.048.1-.01-.092-.049.1-.026-.108,0,.078-.07-.1.018.077-.071h-.108l.1-.1-.1-.1.1-.1-.1-.1.1-.1-.114-.086.084-.112-.114-.083.084-.113-.114-.088.106-.1-.094-.1.106-.092-.094-.1.106-.1-.114-.087.083-.113-.115-.082.084-.113-.115-.086.1-.1-.1-.1.1-.1-.1-.1.1-.1-.113-.034.082-.08-.111-.027.081-.081-.113-.037.107-.05-.091-.069.107-.04-.091-.07.108-.048-.108-.046.091-.069-.107-.04.09-.071-.108-.051.113-.035-.081-.081.112-.025-.081-.082.114-.037-.109-.035.088-.067-.108-.022.087-.068-.07.015-.242-.11-.258.089-.25-.111-.26.089-.253-.111-.25.12-.262-.081-.247.119-.263-.081-.249.119-.258-.1-.254.1-.256-.1-.255.1-.258-.1-.248.122-.262-.078-.246.122-.263-.078-.249.122-.259-.1-.258.1-.257-.1-.259.1-.289-.092.084.24-.1.2.1.2-.1.2.1.2-.11.195.09.2-.11.193.09.2-.111.194.1.2-.1.2.1.2-.1.2.1.207-.153.167.041.218-.152.161.041.218-.146.15-.064.188-.207.05-.073.2-.208.05-.084.207-.085-.108-.092.083-.052-.113-.092.083-.056-.114-.083.1-.068-.1-.079.1-.069-.1-.088.095-.033-.125-.108.06-.024-.122-.11.059-.027-.123-.105.068-.035-.119-.1.069-.036-.119-.119.06.046-.123-.121-.017.058-.108-.122-.019.062-.1-.117-.137.08-.167-.119-.143.08-.168-.119-.147.1-.156-.1-.159.1-.154-.1-.16.1-.157-.113-.15.087-.164-.113-.148.087-.165-.113-.152.109-.153-.091-.162.109-.151-.092-.163.109-.155-.11-.152.09-.163-.111-.15.09-.163-.078-.107-.252-.043-.239.151-.28-.045-.24.151-.278-.046-.264.125-.285-.074-.267.126-.286-.074-.27.126-.28-.1-.277.1-.277-.1-.279.1-.279-.1-.273.114-.281-.086-.272.114-.283-.086-.274.115-.28-.107-.283.094-.279-.107-.284.093-.3-.1.073.168-.1.126.1.121-.1.127.1.125-.117.109.082.134-.117.1.082.134-.117.109.1.123-.1.121.1.12-.1.121.1.125-.121.1.076.137-.12.1.077.137-.121.1.1.127-.1.117.1.125-.1.117.1.129-.115.03.077.085-.113.022.077.086-.115.029.1.066-.1.053.1.059-.1.054.1.071-.119.013.063.1-.115,0,.062.1-.117.008.079.086-.112.024.08.083-.112.026.074.1-.117-.03.023.112-.108-.04.021.113-.108-.04.005.126-.123-.028,0,.127-.124-.027-.009.135-.1-.09-.069.106-.086-.093-.069.106-.085-.094-.071.1-.082-.1-.073.1-.083-.1-.086.1-.036-.129-.114.054-.024-.125-.115.054-.024-.125-.114.054-.024-.125-.114.054-.024-.125-.125.047.03-.13-.126-.007.039-.121-.127-.009.038-.123-.128,0,.033-.122h-.127l.032-.124-.133-.01.076-.109-.115-.053.08-.1-.116-.054.079-.1-.122-.042.067-.108-.121-.039.067-.108-.124-.048.1-.085-.1-.08.1-.077-.1-.08.1-.081-.112-.066.087-.093-.111-.062.087-.093-.112-.07.112-.069-.087-.093.111-.062-.087-.093.112-.068-.106-.076.094-.085-.106-.071.094-.086-.106-.077.113-.065-.085-.094.113-.06-.085-.095.113-.066-.106-.071.094-.081-.106-.065.094-.082-.075-.023-.187-.11-.214.087-.2-.113-.216.087-.209-.113-.2.135-.224-.063-.191.135-.225-.063-.187.134-.227-.03-.168.161-.231-.029-.168.162-.244-.023-.069.231-.212.092-.06.223-.212.093-.055.215-.147.165.042.228-.152.175.041.229-.154.184.108.319-.092.318.108.314-.092.32.108.316-.11.314.089.319-.11.313.089.32-.11.315.11.314-.09.319.11.313-.09.32.11.315-.109.315.091.319-.11.313.09.32-.109.315.106.31-.094.313.106.31-.094.314.064.261,1.655.049,1.659-.151,1.665.05,1.66-.151,1.666.05,1.658-.171,1.666.03,1.658-.171,1.667.03,1.659-.171,1.666.05,1.66-.15,1.666.05,1.661-.151,1.667.05,1.658-.17,1.667.03,1.657-.171,1.667.03,1.658-.171,1.667.05,1.66-.151,1.666.05,1.661-.151,1.673.049-.062-.243.1-.2-.1-.194.1-.2-.1-.2.112-.186-.088-.2.112-.185-.087-.2.112-.188-.108-.188.092-.2-.108-.187.092-.2-.108-.19.109-.187-.091-.2.109-.186-.091-.2.109-.19-.117-.184.083-.2-.117-.182.083-.2-.117-.184.1-.271-.1-.267.1-.27-.1-.268.1-.273-.131-.257.068-.278-.13-.255.068-.279-.129-.248-.013-.273-.2-.2-.016-.281-.2-.2-.029-.3-.3.016-.229-.167-.283.026-.23-.167-.279.027-.255-.121-.275.079-.26-.121-.276.078-.26-.121-.062.1-.048-.1-.061.1-.05-.1-.071.1-.016-.118-.094.066-.008-.115-.095.066-.017-.118-.072.095-.049-.1-.063.1-.05-.1-.071.1-.023-.116-.088.073-.018-.114-.089.073-.029-.117-.05.106-.062-.093-.038.106-.064-.093,0,.064-.084.213.115.211-.085.225.115.212-.084.226.12.21-.081.227.12.209-.08.228.119.216-.13.208.068.231-.13.2.068.231-.129.2.016.233-.173.166.014.239-.173.166,0,.256h-.251l-.159.174-.235-.011-.16.174-.221-.015-.227.047-.2-.15-.242.045-.2-.15-.264.034-.007-.266-.178-.171.007-.247-.179-.172.01-.24-.111-.216.088-.234-.112-.224.088-.236-.113-.23.134-.218-.064-.243.134-.213-.064-.244.134-.217-.1-.232.1-.225-.1-.229.1-.226-.076-.189-.284-.105-.322.084-.312-.116-.323.084-.315-.116-.321.109-.324-.092-.319.108-.325-.092-.322.109-.319-.113-.326.087-.318-.113-.327.087-.32-.113-.322.1-.322-.1-.321.1-.323-.1-.326.1-.31-.144-.333.055-.306-.144-.334.055-.329-.142.073.189-.091.151.109.14-.092.151.109.143-.107.142.093.15-.106.141.093.15-.106.145.115.137-.084.155.114.134-.084.156.115.139-.107.143.094.15-.107.14.094.15-.107.144.108.141-.091.151.108.139-.091.151.108.143-.107.011.084.062-.1,0,.084.063-.107.012.107.011-.084.062.1-.005-.084.063.107.013-.107.005.08.068-.1-.014.079.069h-.107l.1.036-.1.035.1.025-.1.036.1.047-.1-.037.043.1-.088-.056.042.1-.1-.049.056.1-.11-.014.059.095-.11-.013.047.107-.091-.073-.015.11-.077-.08-.016.111-.083-.078.006.113-.092-.062.01.111-.093-.061,0,.116-.061-.1-.047.1-.049-.1-.049.1-.057-.1-.019.113-.079-.077-.011.111-.08-.077-.021.114-.01-.1-.055.087.014-.1-.056.086-.01-.1.014.1-.072-.073.035.1-.073-.072.013.1-.006-.1-.058.084.018-.1-.059.084-.005-.105.008.1-.068-.076.03.1-.07-.076.019.1-.035-.1-.018.1-.021-.1.015.086Z" fill="#26333b"/>
  </g>
</svg>
