<svg xmlns="http://www.w3.org/2000/svg" width="53.386" height="48.506" viewBox="0 0 53.386 48.506">
  <g id="icon" transform="translate(-5.947 -7.834)">
    <g id="グループ_4850" data-name="グループ 4850" transform="translate(7.125 15.834)">
      <path id="パス_28425" data-name="パス 28425" d="M26.476,47.834,22.068,47.5l-4.413.26-4.4-.414-4.417.182-4.393-.493-.275.269-.057-.381L3.733,47l.154-.352-.362-.131-.353-5.649-.892-5.59L2.113,29.62,1.4,24l.02-5.661-.3-.218.361-.084-.161-.333.358.1.015-.371.27.253.187-.319.12.351.315-.194-.06.365.282-.161-.189.265.284-.16-.186.268.272-.171,1.651,1.754,2.1,1.185L8.513,22.5l2.162,1.063,1.828,1.57,1.079.322.733.857,1.078.329.727.864,1.077.343-.117.3.228-.232-.1.309.208-.25-.029.325-.14-.211.314.055-.305-.089.312.061-.305-.089,1.1-2.788.646-2.926L20.4,19.665l.921-2.848,1.558-2.557.189-1.136.761-.867.182-1.137.753-.876L24.929,9.1l.486-.243.022-.546.54-.029.306-.448.442.31.314-.244.083.39.378-.122-.041.4.394-.03.645,1.4,1.075,1.108.456,1.477.963,1.206.366,1.5.54.4-.031.672.547.4-.019.677.555.385.472,1.561,1.051,1.248.512,1.55,1.074,1.229.527,1.543.447.136-.1.455.446.136-.1.455.213.089,1.993-1.419,1.687-1.8,2.148-1.214,1.818-1.669,2.2-1.119.533-.746.893-.224.534-.752.893-.232.533-.763.308.191.083-.352.2.305.227-.282.044.359.327-.156-.116.342h.361l-.252.259.327.156-.654,5.567-.162,5.6-.934,5.526-.444,5.588L48.815,44.8l.212.557-.449.385.066.591-.556.2-.2.557-.4-.156-.175.391-.347-.254-.251.347-.3-.3-3.975.462-4-.207-3.982.4-3.994-.27ZM5.258,45.5l8.146.578,8.243-.17,8.238.329,8.233-.442,8.245.057.115-.323.156.309.1-.331.191.286,0-.337.369.053-.189-.343.37-.124-.257-.294.353-.164.53-5.214,1.036-5.138.281-5.234.791-5.181.032-5.227-.383.175-.275.573-.631.046-.271.568-.626.041-1.962,1.726-2.3,1.238-1.868,1.822-2.18,1.435L38.11,28.25l-.32-.14.034.347-.247-.247-.1.336-.141-.319-.211.278-.013-.348-.3.182.114-.33-.343.062v-.636l-.55-.318,0-.635-.551-.317,0-.636L34.4,24.293l-.529-1.558L32.8,21.486l-.5-1.568L31.26,18.642l0-.686-.556-.4.02-.686-.549-.412.029-.68-.9-1.142-.348-1.405-.956-1.085-.477-1.367-1.087-.951-.027-.155.277.156-.3-.119.28.152-.3-.112L26.208,10.9l-.755.883-.186,1.147L24.5,13.8l-.193,1.143-1.535,2.506-.9,2.788-1.369,2.589-.624,2.862L18.8,28.414l.246.309-.377.109.177.351-.393.006.059.389-.564-.035-.41.39-.429-.378-.556.123-.252-.517-1.075-.342-.719-.859-1.078-.328-.723-.851-1.071-.316-1.63-1.44L8.043,24.1,6.459,22.619,4.538,21.6l-1.745-1.51.6,5.156.054,5.126.763,5.07.208,5.122Z" transform="translate(-1.125 -7.834)" fill="#26333b" stroke="#26333b" stroke-width="1"/>
    </g>
    <circle id="楕円形_6500" data-name="楕円形 6500" cx="2" cy="2" r="2" transform="translate(31.125 7.834)" fill="#26333b"/>
    <circle id="楕円形_6501" data-name="楕円形 6501" cx="2" cy="2" r="2" transform="translate(7.125 17.834)" fill="#26333b"/>
    <circle id="楕円形_6502" data-name="楕円形 6502" cx="2" cy="2" r="2" transform="translate(54.125 17.834)" fill="#26333b"/>
  </g>
</svg>
