<svg xmlns="http://www.w3.org/2000/svg" width="45.448" height="49.292" viewBox="0 0 45.448 49.292">
  <path id="icon_tokuchou" d="M3589.907,2294.463s-.206.073-.308-.223l.151-.079-.079-.151-.151.079-.157-.3-.374.387.066-.61c-.847.021-.242-.223-.918-.289l-.079-.151-.223.308-.079-.151.151-.079-.079-.151-.151.079c-.305-.171-.2-.155-.61-.066q-.042-.265-.085-.531a2.016,2.016,0,0,1-1.056.55l-.308-.223-.3.157-.079-.151c-.279-.031-.319.035-.682.163l-.236-.453-.452.236-.157-.3-.374.386-.157-.3-.3.157-.465-.525-2.119.72-.308-.223.151-.079c-.343-.132-.1-.073-.531.085l.157.3-.839-.138-.072.229-.157-.3-.826.622-.157-.3-.833.242.157.3-.151.079-.079-.151c-.261-.083-.061.031-.308-.223l-.3.157.157.3-.761.013.079.151-.3.157-.157-.3a1.224,1.224,0,0,0-.525.465l-.079-.151c-.386-.039-.33-.022-.616-.446.1-.3.092-.07-.157-.3l.3-.157-.538-.3.3-.157c-.312-.358-.384-.195-.616-.446l.072-.23-.38.006-.393-.754-.151.079-.079-.151.151-.078-.308-.223.223-.308-.157-.3-.151.079a.678.678,0,0,1-.144.459,1.984,1.984,0,0,0-.013-.761l-.223.308-.079-.151-.151.079c-.338-.229-.141-.709-.242-.833,0,0-.2.1-.308-.223l.151-.079-.079-.151-.151.079-.157-.3-.151.079-.164-.682-.151.079-.157-.3-.61-.066c-.121-.248.159-.3.145-.459l-.157-.3-.452.236-.079-.151.151-.079c-.007-.327-.345-.438-.465-.525l-.151.079-.164-.682-.151.079c-.261-.082-.032-.06-.38.006-.279-.323-.332-.25-.616-.446l.38-.006-.314-.6-.374.387-.079-.151-.151.079-.079-.151.151-.079.079.151c.278.218-.006-.38-.006-.38l-.3.157a1.657,1.657,0,0,1-.163-.682l-.3.157c-.261-.082-.032-.06-.38.006a1.653,1.653,0,0,1-.164-.682c-.7.165-.219.013-.688-.217l-.151.079c-.374-.162-.48-.228-.773-.748l-.833.242-.236-.453a2.132,2.132,0,0,1-1.292.1l-.387-.374c-.4,0-.536.45-.676.544l-.308-.223c-.483.131-.2.427-.3.538l-1.358.707.236.453-.151.079a.677.677,0,0,0-.459-.145l.465.525-.151.079a.944.944,0,0,0-.761.012,5,5,0,0,1,.4,1.135l-.374.387.616.446-.453.236c.106.4.2.708-.06.99l.079.151c.129.074.057-.195.38-.006a3.6,3.6,0,0,1-.682.164l.236.453-.151.079c-.085.334.026.24-.3.537l.386.374-.151.079-.079-.151c-.278-.218.006.38.006.38l.151-.079c.353,0-.223.308-.223.308l.314.6c.217.1.157-.157.229.072l-.151.079.164.682-.453.236.079.151.151-.079.079.151-.151.079c.21.323.236.009.236.453l-.151.079c.118.227.347.133.314.6l-.3.537.308.223-.151.079-.079-.151c-.278-.218.007.38.007.38l-.151.079.387.374a1.238,1.238,0,0,0-.145.459l.151-.078.079.151-.3.157a1.442,1.442,0,0,1,.013.761l-.151.079.308.223-.3.157.308.223-.3.157.085.531c-.108.708-.654.564.1,1.292l-.676.544-.157-.3a2.762,2.762,0,0,0-.525.465l-.079-.151c-.433.063-.128-.024-.453.236l-.157-.3-.452.236.157.3c-.314.186-.433.421-.525.465l-.079-.151-.3.157.157.3c-.757-.039-.2-.182-.676.544l-.157-.3a1.661,1.661,0,0,0-.525.465l-.236-.453-.151.079q.043.266.085.531c-.092.2-.427-.152-.459-.144-.3.076-.177.266-.223.308a.284.284,0,0,1-.381.007l-.151.079.157.3c-.3.168-.369-.176-.459-.145a5.324,5.324,0,0,1-1.05.931l-.157-.3-.151.079.079.151-.151.079.308.223-.151.079a2.414,2.414,0,0,0-.99-.06l.236.453-.151.079-.078-.151-.453.236.157.3-.374.386.079.151-.3.157.079.151-.76.012.079.151c-.171.305-.155.2-.066.61l-.453.236.157.3-.827.622q0,.19.006.38l-.151.079-.079-.151-.223.308a1.428,1.428,0,0,1-.145.459l.236.453-.151.079.387.374-.3.157a3.953,3.953,0,0,1,.242.833l.3-.157.544.676.3-.157.393.754.453-.236.236.453.453-.236c.364.427.491.443,1.069.211l.157.3-.3.157.079.151.453-.236-.079-.151.531-.085.164.682.3-.157-.157-.3c.261.083.06-.031.308.223l.3-.157a1.66,1.66,0,0,1,.164.682c.223-.086.4-.359.531-.085-.125.205,0,.128.23.072l.465.525a1.329,1.329,0,0,1,1.062-.17l.079.151.223-.308.079.151a1.274,1.274,0,0,0-.3.538,4.488,4.488,0,0,0,.525-.465l.157.3.151-.079-.079-.151c.273.074.062-.038.308.223l.3-.157.387.374.151-.079q0,.19.006.38l.531-.085.157.3.223-.308.078.151-.151.079.544.676-.151.079.079.151.151-.079.085.531.453-.236-.072.23.387.374-.3.157.229.073.085.531-.151.079.308.223-.151.079-.079-.151c-.278-.218.006.38.006.38l-.3.157c.107.3.232,1.146.7.978l-.3.157c.256.735.233.547.478,1.286l-.223.308s-.2-.311-.229-.073l.157.3.151-.079.255,1.594-.3.157.308.223-.3.157.085.531-.223.308.622.827c.056.234-.163.007-.072.229.118.054.215-.168.229.072l-.223.308.236.453c.038.238-.162.006-.073.229.2.129.175-.162.229.073,0,0-.1.1.006.38-.552.094-.273.035-.754.393l.786,1.509-.3.538c.028.353.247-.018.38-.006q.042.266.085.531l.151-.079c.3.421-.081.432-.066.61.034.416.359.582.321.984l.151-.079a3.734,3.734,0,0,0,1,.44c.052-.431.184-.437.748-.773l.236.453.531-.085q0,.19.006.381l.6-.314-.308-.223.151-.079c1.088.682.986-.277,2.2-.569l.079.151c.214-.11-.124-.09.072-.229l.682-.163-.079-.151c.406-.494.43-.731,1.122-1.16l-.308-.223.151-.079.079.151.151-.079-.079-.151.6-.314-.308-.223c.363-.113.323.059.223-.308l-.151.079-.078-.151.151-.079.079.151c.155-.221-.028-.392.066-.61l.151-.079.079.151a2.475,2.475,0,0,1,.525-.465l-.386-.374.525-.465-.157-.3.531-.085-.157-.3c.408-.333.216-.46.748-.773l.079.151.151-.079-.157-.3-.151.079a3.6,3.6,0,0,0-.164-.682c.521-.485.146-.465.44-1l-.079-.151c.149-.189.1.054.23.072a1.137,1.137,0,0,0,.367-.767c-.348.072-.121.086-.38.007.363-.312.241-.376.6-.695l-.157-.3.3-.157-.157-.3.531-.085-.308-.223.151-.079c.377.136.477.149.682-.164l.079.151c.3.069.374.155.616.446a1.4,1.4,0,0,1,.833-.242l.079.151.453-.236c0,.127,0,.254.006.38l.151-.079a1.229,1.229,0,0,1,.616.447l.3-.157c.207.139,1.712.515,1.311,1.043l.6-.314.393.754,1.062-.17.623.826.984-.321.236.453.3-.157.157.3c.586-.138.551.11,1.141-.019l.157.3.3-.157c.326.36.218.316.688.217l.157.3.151-.079-.079-.151c-.019-.352.308.223.308.223l.3-.157.236.453.374-.387.465.525a6.063,6.063,0,0,1,.912-.092c.182-.157-.116-.08.072-.229l.308.223c.388-.035.554-.4.676-.544l.078.151-.151.079c-.218.278.38-.006.38-.006q0-.19-.006-.38l.531-.085-.079-.151.3-.157-.079-.151.453-.236-.079-.151c.129-.276.568-.9.06-.99l.453-.236.079.151.151-.079-.236-.452-.531.085c.042-.345.207-.176.223-.308l-.387-.374.223-.308-.157-.3.151-.079-.078-.151-.151.079c-.144-.176.137-.206-.314-.6l-.151.079-.085-.531c-.189-.148-.059.1-.229-.072l.151-.079c.261.082.032.06.38-.007l-.465-.525-.151.079-.393-.754.151-.079c-.125-.52-.472-.681-.7-.977l.3-.157c-.375-.422-.666-.335-1.075-.591l.3-.157-.314-.6.151-.079-.079-.151a.3.3,0,0,1-.308-.223c-.077-.228.214-.035.072-.229l-.151.079-.236-.453q0-.19-.006-.38l-.151.079-.465-.525.151-.079c-.1-.3-.338-.013-.236-.453l.3-.157a1.91,1.91,0,0,0-.688-.217l-.55-1.056-.229-.073.151-.079.079.151c.278.217-.006-.381-.006-.381-.542-.071-.68-.6-1.082-.971l.3-.157-.157-.3-.3.157-.085-.531.453-.236-.079-.151.151-.079.079.151.151-.079-.079-.151.453-.236-.079-.151c.083-.261.06-.032-.006-.38a1.654,1.654,0,0,0,.525-.465l.236.453.151-.079-.079-.151c.082-.261.06-.032-.006-.38l1.2-1.009-.164-.682c.258.006.144-.057.308.223.168-.2.037-.4.217-.688l.236.453.151-.079-.079-.151.151-.078-.387-.374,1.2-1.009.066-.61c.21-.117-.01.054.229.072l.374-.387-.314-.6.827-.622-.236-.453.826-.622-.157-.3.531-.085-.085-.531.676-.544-.079-.151c-.261-.082-.06.031-.308-.223l.682-.164-.157-.3c.3-.551-.076-.3-.012-.76.038-.276.4-.208.525-.465l-.079-.151-.151.079C3589.742,2294.922,3590.023,2294.614,3589.907,2294.463Zm-5.65,17.137.151-.079.157.3-.151.079Zm.084-8.675c-.086.458-.144.459-.144.459C3584.009,2303.295,3584.32,2302.982,3584.341,2302.925Zm-2.435,4.53c.035-.348-.011-.254.3-.538A1.317,1.317,0,0,1,3581.906,2307.455Zm4.348,9.819.072-.229-.229-.072c-.156-.389-.073-.333.066-.61l.538.3-.61-.066c.032.3.285.2.308.223C3586.547,2316.987,3586.317,2317.153,3586.254,2317.273Zm-16.624,2.331.151-.079-.079-.151.453-.236a2.35,2.35,0,0,1-.368.767Zm-10.181-26.537-.151.079-.157-.3.151-.079Zm28.8,2.26-.3.157.308.223-.151.079c-.261-.082-.032-.06-.38.007.323.329.434.329.242.833-.261-.082-.032-.06-.38.006l.085.531-.453.236.387.374-.531.085.079.151-.151.079-.079-.151c-.128.277-.053.027.006.38l-.453.236.236.453-.38.006.079.151c-.123.255.016.395-.066.61l-.38.006.079.151-.3.157.079.151-.223.308.157.3-.446.616-.236-.453-.151.079.079.151-.151.079q.043.265.085.531l-.682.164.157.3-.3.157.157.3-.676.544.079.151a.677.677,0,0,1,.459.145l-.3.157.078.151-.38.006.157.3-.38.006.079.151-.676.544.157.3-.151.079-.157-.3-.374.387a.277.277,0,0,0-.38.006s.079.146-.223.308c-.011-.008-.148-.3-.229-.072l.157.3-.223.308c-.04.351.175.342.013.761a.944.944,0,0,0-.761.012c.313.511.57.593.4,1.135-.033-.025-.5-.434-.537-.3l.078.151-.151.079c.431.363.873.694.55,1.056l.314.6.151-.079.157.3.151-.079.079.151-.151.079.393.754-.151.079.623.827-.151.079-.079-.151c-.278-.218.006.38.006.38l.38-.006.236.453.151-.079.387.374-.531.085.079.151c.456.055.347.122.695.6l.229.073c-.005.247-.323-.059-.223.308l.381-.006c.313.3.134.667.242.833l.151-.078.157.3.151-.079.079.151-.151.079.079.151.151-.079c.148.19-.156,0-.072.229s.083-.119.229.072l.163.682.151-.079-.079-.151c.149-.3.333.3.386.374-.041.326.457.821.78,1.128l-.073.229.3-.157.078.151-.151.079c.045.181.359.158.465.525l-.151.079.387.374-.151.079.242.833-.223.308.308.223c.008.153-.117.021.006.38a5.828,5.828,0,0,1-1.285.478l.157.3-.3.157-.236-.453-.151.079.079.151c-.126.075-.62.013-.911.091l-.465-.525-.453.236-.079-.151c-.261-.083-.06.031-.308-.223l-.453.236-.079-.151c-.261-.083-.061.031-.308-.223l-.682.164-.157-.3-.223.308.072-.229-.387-.374-.151.079.079.151c-.272.1-.372-.15-.459-.144l-.3.157-.079-.151c.009-.039.558-.181.223-.308l-.151.078-.079-.151c-.24-.02.008.165-.072.229l-.531.085-.387-.374.151-.079-.079-.151-.151.079-.157-.3-.3.157-.079-.151.151-.079c-.439-.187-.327.205-.682.163q0-.19-.006-.38c-.543-.185-.62.236-1.147-.362l-.531.085-.085-.531-.3.157-.079-.151c.009-.039.558-.181.223-.308l-.151.079-.079-.151-.223.308-.079-.151-.151.079-.157-.3-.38.006-.085-.531-.38.006-.079-.151-.374.387-.308-.223-.3.157-.308-.223-.151.079-.157-.3-.223.308a1.8,1.8,0,0,0-.163-.682l-.6.314-.079-.151a.676.676,0,0,0,.144-.459l-.984.321.079.151.151-.079c.309.2.1.526.164.682l.38-.006.079.151-.3.157-.157-.3-.3.157c-.17.012-.311-.385-.61-.066l.079.151-.151.079.236.453c-.324.279-.25.331-.446.616l-.079-.151.151-.079-.308-.223-.151.079c-.015.037.353.468.006.38l-.079-.151c-.214-.037-.245-.108-.459-.145l.236.453-.531.085.314.6-.3.157c.275.252.436.333.393.754l-.151.079.079.151.151-.079c.327.1-.2.288-.223.308l-.079-.151-.151.079.236.453c-.62.582-.072.247-.138.839l-.151.078.079.151-.525.465q-.033.3-.066.61l-.453.236.079.151c-.173.243-.409.385-.6.314l.157.3-.3.157.164.682-.984.321.308.223-.151.079c-.048.321.024.479-.374.386l.236.453c-.062.377-.562.288-.827.623,0,.126,0,.253.006.38l-.3.157.079.151-.151.079-.079-.151-.151.079.079.151c-.187.151,0-.139-.23-.072l-.151.079.079.151-.151.079-.079-.151-.6.314.079.151-.682.164.308.223-.151.079-.079-.151-.151.079-.242-.833-.6.314-.387-.374.3-.157-.079-.151-.151.079-.55-1.056.3-.157-.387-.374c.833-.653-.542-.474.663-1.3l-.236-.453-.453.236-.079-.151.151-.079q-.042-.265-.085-.531l.3-.157-.308-.223c-.122-.208.2-.024.072-.229l-.151.078-.157-.3-.151.079-.078-.151.151-.079-.308-.223.223-.308c.06-.544-.3-.192.217-.688l-.321-.984.151-.079-.308-.223.3-.157c.207-.765.579-.084.289-.918l-.3.157.072-.229-.387-.374.3-.157c-.78-.712-.238-1-.641-1.968l.531-.085-.236-.453-.3.157-.079-.151.151-.079-.314-.6.223-.308c-.056-.287-.291-.2-.308-.223l-.393-.754.151-.079-.465-.525c.258-.244.14-.05.223-.308-.627-.079-.368-.175-.623-.826l.3-.157-.544-.676-.223.308-1-.82-.151.079.079.151c.019.353-.308-.223-.308-.223l-.452.236a10.406,10.406,0,0,0-1.075-.591l-.531.085q0-.19-.006-.38l-.453.236-.616-.446c-.362-.028-.645.3-.754.393-.233-.043-.258-.339-.538-.3l.078.151-.151.079-.079-.151.072-.229-.453.236-.852-.9a8.82,8.82,0,0,0-1.213.248,1.744,1.744,0,0,0-1.914-.729l-.085-.531-.38.006-.157-.3c.393-.435.5-.067.138-.839.66-.314.567-.174,1.063-.17a.794.794,0,0,1,.138-.839q0,.19.006.38l.6-.314-.387-.374.3-.157.079.151.223-.308-.079-.151.682-.164-.157-.3c.5-.336.36-.426.748-.773l-.157-.3c.261.082.06-.031.308.223.591-.469.515-.522,1.05-.93l.157.3-.3.157.079.151.6-.314c.022-.357.173-.47.367-.767l.079.151a1.984,1.984,0,0,0,.761-.013l-.157-.3,1.352-1.088.079.151-.151.079c-.218.278.38-.006.38-.006.069-.23-.131-.1.072-.229l.079.151.151-.079c.057-.1.01-.266.145-.459,0,.126,0,.253.006.38l.151-.079.079.151c.236.006.62-.282.525-.465l.151-.079.157.3.374-.387.157.3.374-.386-.308-.223.151-.079a2.337,2.337,0,0,0,.839.138,1.222,1.222,0,0,0-.465-.525l.151-.079.079.151.151-.079-.079-.151.151-.079-.308-.223.151-.079.079.151.984-.321q-.042-.266-.085-.531l.223-.308-.079-.151-.151.079c-.157-.182.081.011.072-.229l-.236-.453.38-.006a.414.414,0,0,0-.386-.374q-.043-.266-.085-.531c.734-.645.168-.443.21-1.069l.38-.006-.164-.682.223-.308-.308-.223.3-.157-.079-.151-.151.079a2.543,2.543,0,0,0-.242-.833l.3-.157-.314-.6.446-.616-.314-.6.151-.079c.261.082.032.06.38-.006l-.085-.531-.151.079-.314-.6.151-.079-.157-.3.151-.079-.465-.525.151-.079-.157-.3.223-.308-.308-.223.151-.079c.261.082.032.06.38-.006a1.47,1.47,0,0,1-.242-.833l.151-.079-.308-.223.374-.386-.157-.3.151-.079.079.151a.726.726,0,0,0,.145-.459l.151-.079-.386-.374.223-.308-.236-.453.151-.079a1.944,1.944,0,0,0,.06-.99c.623-.26.514-.083.905-.471l.079.151c-.082.261-.06.032.006.381l.3-.157-.236-.452.151-.079.079.151.453-.236.078.151c-.017.12-.235.15.006.38l.151-.079.079.151.452-.236.157.3.682-.164.236.453.452-.236.774.748.151-.079c.125.22-.1.358.314.6l.61.066a.246.246,0,0,1,.006.38c.128.411.387.374.387.374q0,.19.006.38l.3-.157a2.639,2.639,0,0,1,1.389,1.194l-.3.157.157.3.374-.387c.037.222-.1.391.164.682l.223-.308a2.268,2.268,0,0,1,.629,1.207l.151-.079.157.3.151-.079.157.3.151-.079c.255.136.218.235.465.525l.151-.079c.177.2-.165.348-.145.459l.079.151.151-.079q0,.19.006.38c.137.244.329.045.459.145.24.185-.116.242-.223.308l.079.151.3-.157.079.151.223-.308.079.151a.679.679,0,0,0-.145.459l.374-.387.079.151-.151.079.085.531.3-.157.085.531.3-.157.321.984.151-.079.079.151.223-.308.079.151-.151.079.393.754-.072.229a1.221,1.221,0,0,0,.525-.465l.079.151c-.385.531-.249.358.17,1.063l.3-.157.308.223c.333-.059.671-.568.9-.852q0,.19.006.38l.453-.236c.079,0,.22.168.459.145l-.157-.3c.245-.273.173.162.308.223l.223-.308.079.151c.488-.033.327-.117.6-.314l.079.151.453-.236.079.151.3-.157.308.223.3-.157.079.151c.378-.041.372-.337.525-.466l.846.519.6-.314.079.151c.261.083.06-.031.308.223l.3-.157-.157-.3.151-.079c.3.429.226.386.616.446l.079.151.374-.387.537.3.453-.236.308.223.531-.085.079.151a1.757,1.757,0,0,0,.99.06l.157.3.151-.079-.079-.151c.439-.107.315.239.537.3l.374-.386c.136.463-.108.075.236.453l.453-.236.079.151.151-.079-.079-.151.38-.006Z" transform="translate(-3545.41 -2282.116)" fill="#26333b" stroke="#26333b" stroke-width="1" fill-rule="evenodd"/>
</svg>
