<svg xmlns="http://www.w3.org/2000/svg" width="41.964" height="48" viewBox="0 0 41.964 48">
  <g id="グループ_5333" data-name="グループ 5333" transform="translate(-5980.361 -1822.115)">
    <g id="グループ_5334" data-name="グループ 5334" transform="translate(5980.361 1822.115)">
      <g id="パス_28932" data-name="パス 28932" transform="translate(25.125 0.09)">
        <path id="パス_28934" data-name="パス 28934" d="M6021.158,1824.979l-1.1-1.174-1.451.6-1.138,1.161-.5,1.565-.615,1.44-.467-.642.042-.9-.206-.874.221-.871-.281-.863.139-.884-.568-.669-.569-.669-.84.178-.773.392-.417,1.2-.632,1.1-.157,1.261-.519,1.157-.171,1.271-.125-.16-.113.179-.007-.213-.118.178.06-.143-.354-1.541v-1.6l-.65-1.443-1.264-.649-1.1,1.123-1.336,4.123-.569,4.317-.419,4.333.9,4.245,2.106,3.762,1.187,3.8-.375,4.086-.19,4.1-.521,4.076.432,4.058.153,1.886,1.284,1.346,1.726.63,1.375-1.221.832-1.679.234-3.922.523-3.892.005-3.927.3-3.916-.222-3.92.765-1.243,1.175-.94,1.413-.575.985-1.152.931-1.2.915-3.286.875-3.3.036-3.411,0-3.412Zm-6.09,18.178-.9.137-.574.709-.672.617-.081.909-.214.876.244,4.035-.208,4.041.048,4.047-.6,4-.639,4.082-.8-4.016-.223-4.015.551-3.993.228-4.018.413-4-.223-.616.047-.659-.449-.484-.216-.625-.606-.27-1.8-2.6-1.013-3.01.15-3.187.2-3.186.848-3.053.3,1.524.256,1.617.868,1.38,1.242.925,1.054-1.217.439-1.1.048-1.21.437-1.125.032-1.208.346-1.055.417.881-.058,1.078.262,1.043-.09,1.076.472.95,1.341,1.3,1.229-1.406.908-1.677.382-1.882.794-1.7.01-.15.052.211.106-.19.058.212.2-.112.183,3.566.168,3.563-.808,3.468-1.341,3.291-2.87,2.047.04-.008v0l-.1.124Z" transform="translate(-6005.165 -1822.204)" fill="#26333b"/>
      </g>
      <g id="パス_28933" data-name="パス 28933">
        <path id="パス_28935" data-name="パス 28935" d="M5982.205,1827.214l-1.526,3.447-.318,3.76.253,3.762,1.8,3.3,2.641,2.671,1.043.37.9.65,1.047.379.583.93.471.974.112,4.842.142,4.849-.112,4.856.891,4.759,3.008,3.353.653-.35.719-.154.376-.632.539-.5v-.74l.468-4.744-.7-4.733-.368-4.766-.176-4.772,1.617-4.462.34-.881.62-.726.181-.937.482-.825.017-.967,1.014-6.487-1.878-6.3-4.152-5.026-6.277.336Zm11.655,16.265-1.576,4.571.389,4.9.4,4.907.626,4.875-.894,4.693-1-3.861-.142-4.083-.238-4.08.239-4.079-.325-4.072-.17-1.714-1.286-1.145-1.366-1.051-1.627-.607-1.3-1.127-2.19-2.393-.788-3.152-.207-3.246.987-3.1,1.313-2.978,2.051-1.91,2.564-1.113,2.71.695,2.343,1.538,1.189,2.551.989,2.985.036,3.142-.145,3.14-1.154,2.921Z" transform="translate(-5980.361 -1822.115)" fill="#26333b"/>
      </g>
    </g>
  </g>
</svg>
