<svg xmlns="http://www.w3.org/2000/svg" xmlns:xlink="http://www.w3.org/1999/xlink" width="478.319" height="108" viewBox="0 0 478.319 108">
  <defs>
    <clipPath id="clip-path">
      <rect id="長方形_1854" data-name="長方形 1854" width="123.774" height="108" fill="#26333b"/>
    </clipPath>
  </defs>
  <g id="logo" transform="translate(-198 -115)">
    <g id="logotype" transform="translate(0 -16)">
      <path id="パス_29475" data-name="パス 29475" d="M-152.506,1.8l-.781-.391A1.617,1.617,0,0,1-153.8.352q-.039-.586-.039-1.211V-3.281a.285.285,0,0,1-.352-.078.371.371,0,0,0-.312-.156.422.422,0,0,1-.312-.117,1.043,1.043,0,0,0-.273-.2,1.043,1.043,0,0,0-.2-.273.422.422,0,0,1-.117-.312.775.775,0,0,0-.078-.352.693.693,0,0,1-.078-.312,2.145,2.145,0,0,0,.117-.273q.039-.117.078-.273a.868.868,0,0,1,.117-.273,2.554,2.554,0,0,0,.156-.273,1.043,1.043,0,0,0,.273-.2.579.579,0,0,1,.273-.156,1.452,1.452,0,0,1,.352-.039h.352l.078-4.219-.078-1.406q.078-.937.078-2.031t.039-2.07q.039-.977.156-1.992a10.593,10.593,0,0,0,.039-2.031h-.234a6.828,6.828,0,0,0-1.484.313q-.7.234-1.406.508a12.955,12.955,0,0,0-1.367.625,4.258,4.258,0,0,0-1.211.977,9.116,9.116,0,0,0-1.484,2.383,24.133,24.133,0,0,0-.937,2.617q-.391,1.328-.664,2.734a16.549,16.549,0,0,1-.742,2.656,2.052,2.052,0,0,0-.312.2.859.859,0,0,1-.352.156,1.987,1.987,0,0,1-.391.039h-.43l-.781-.391a22.849,22.849,0,0,1-.742-4.062q-.2-2.109-.43-4.219T-166.842-20q-.117-2.109-.2-4.219l.391-.781a2.052,2.052,0,0,0,.313-.2.859.859,0,0,1,.352-.156,1.811,1.811,0,0,1,.352-.039h.391l.781.391a4.2,4.2,0,0,1,.508,1.875l.078,2.031q.039,1.016.117,2.031l.156,2.031h.156a12.964,12.964,0,0,1,.9-1.523,11.641,11.641,0,0,1,1.133-1.406,10.1,10.1,0,0,1,1.367-1.211,10.437,10.437,0,0,1,1.523-.937,6.7,6.7,0,0,0,1.211-.43,6.429,6.429,0,0,1,1.25-.43,11.83,11.83,0,0,1,1.328-.234q.664-.078,1.445-.156.078-.781.078-1.641t.039-1.68q.039-.82.117-1.641a3.271,3.271,0,0,1,.469-1.445,2.052,2.052,0,0,0,.313-.2.859.859,0,0,1,.352-.156,1.811,1.811,0,0,1,.352-.039h.391l.781.391q.078.156.2.352a1.228,1.228,0,0,1,.156.391,1.987,1.987,0,0,1,.039.391v.43l-.234,4.766a8.957,8.957,0,0,1,1.68.156,11.165,11.165,0,0,1,1.6.43,15.576,15.576,0,0,1,1.523.625,3.311,3.311,0,0,1,1.289,1.133l.234.469.547.313q.469.7.977,1.367a5.186,5.186,0,0,1,.781,1.445,6.813,6.813,0,0,1,.352,1.641q.078.859.078,1.8-.078.938-.234,1.875a14.467,14.467,0,0,1-.43,1.836,8.777,8.777,0,0,1-.7,1.68,17.09,17.09,0,0,1-.977,1.563l-1.8,1.719q-.625.391-1.25.742a10.375,10.375,0,0,1-1.328.625q-.7.273-1.367.547a3.759,3.759,0,0,1-1.445.273V.352a1.6,1.6,0,0,1-.391,1.055,2.052,2.052,0,0,0-.312.2.859.859,0,0,1-.352.156,1.81,1.81,0,0,1-.352.039Zm3.984-8.906a2.854,2.854,0,0,1,.742-.391,1.537,1.537,0,0,0,.7-.508,3.55,3.55,0,0,1,.625-.625,7.119,7.119,0,0,0,.664-.586,6.421,6.421,0,0,0,.781-1.367,10.453,10.453,0,0,0,.508-1.523,8.306,8.306,0,0,0,.234-1.641q.039-.859.039-1.719a5.652,5.652,0,0,0-.234-.82,3.651,3.651,0,0,0-.391-.781l-.469-.7a4.357,4.357,0,0,0-.547-.664l-.156-.078a.981.981,0,0,0-.234-.391,4.262,4.262,0,0,1-.312-.352,1.322,1.322,0,0,0-.352-.312,2.159,2.159,0,0,0-.43-.2,3.522,3.522,0,0,1-.742-.234,3.522,3.522,0,0,0-.742-.234,7.771,7.771,0,0,0-.82-.117q-.43-.039-.82-.039a14.416,14.416,0,0,1-.039,2.383,22.776,22.776,0,0,0-.117,2.344v2.422q0,1.211-.078,2.383l.078,2.656-.078,1.953h.156ZM-123.559.781l-.781-.391a4.367,4.367,0,0,1-.273-.469,1.649,1.649,0,0,1-.156-.508,4.149,4.149,0,0,1-.039-.586V-1.8q.156-2.422.352-4.8t.234-4.8l.078-4.844q.039-2.422.273-4.844h-1.016l-3.047.078a2.144,2.144,0,0,0-.273-.117q-.117-.039-.273-.078a.868.868,0,0,1-.273-.117,2.553,2.553,0,0,0-.273-.156,2.052,2.052,0,0,0-.2-.312.859.859,0,0,1-.156-.352,1.81,1.81,0,0,1-.039-.352v-.391l.391-.781a2.1,2.1,0,0,1,1.25-.391h1.406q.7,0,1.367-.039t1.367-.039a12.724,12.724,0,0,1,.078-1.406q.078-.7.2-1.367a11.547,11.547,0,0,0,.156-1.367,2.049,2.049,0,0,1,.508-1.25,2.052,2.052,0,0,0,.313-.2.859.859,0,0,1,.352-.156,1.811,1.811,0,0,1,.352-.039h.391l.781.391a2.053,2.053,0,0,0,.2.313.859.859,0,0,1,.156.352,1.988,1.988,0,0,1,.039.391v.43l-.156.938-.156.938q-.078.469-.117.938t-.039,1.016a5.46,5.46,0,0,0,1.328.156h4.219l5.078-.156.781.391a2.053,2.053,0,0,0,.2.313.859.859,0,0,1,.156.352,1.988,1.988,0,0,1,.039.391v.43l-.391.781a6.668,6.668,0,0,1-2.5.469q-1.328,0-2.656.039t-2.656.039h-2.656l-1.172-.156a41.435,41.435,0,0,0-.273,5.43q.039,2.773-.078,5.469t-.312,5.391a49.433,49.433,0,0,1-.664,5.273,2.052,2.052,0,0,0-.312.2.859.859,0,0,1-.352.156,1.81,1.81,0,0,1-.352.039Zm14.141-1.172a12.867,12.867,0,0,0-1.445-.234A7.91,7.91,0,0,1-112.27-.9a11.6,11.6,0,0,0-1.367-.312,3.6,3.6,0,0,1-1.328-.508,1.224,1.224,0,0,0-.234-.312.681.681,0,0,1-.2-.352,1.811,1.811,0,0,1-.039-.352v-.391l.469-.781q.156-.078.352-.2a1.215,1.215,0,0,1,.43-.156,2.847,2.847,0,0,1,.469-.039h.469q.859.234,1.758.469a14.056,14.056,0,0,0,1.875.352,12.256,12.256,0,0,0,1.953.078q.977-.039,1.992-.039a5.271,5.271,0,0,1,.625-.117q.313-.039.586-.078a4.46,4.46,0,0,1,.625-.039h.664l.781.391a2.053,2.053,0,0,0,.2.313.859.859,0,0,1,.156.352,1.811,1.811,0,0,1,.039.352v.391l-.391.781a5.223,5.223,0,0,1-1.641.508q-.859.117-1.758.2a13.8,13.8,0,0,1-1.8.039Q-108.481-.391-109.419-.391Zm5.234-12.109a18.4,18.4,0,0,0-1.8-.7,9.661,9.661,0,0,0-1.953-.43A18.049,18.049,0,0,0-110-13.75h-2.07l-1.406.234-.781-.391q-.078-.156-.2-.352a1.228,1.228,0,0,1-.156-.391,1.811,1.811,0,0,1-.039-.352v-.391l.391-.781a3.4,3.4,0,0,1,1.211-.547,6.124,6.124,0,0,1,1.406-.156h2.93q.781.156,1.563.234a12.642,12.642,0,0,1,1.484.234,9.659,9.659,0,0,1,1.406.43,5.574,5.574,0,0,1,1.328.742,2.053,2.053,0,0,0,.2.313.882.882,0,0,1,.156.391,2.456,2.456,0,0,1,.039.391v.391l-.391.781a1.043,1.043,0,0,0-.273.2.594.594,0,0,1-.312.156,1.81,1.81,0,0,1-.352.039A.693.693,0,0,0-104.184-12.5ZM-73.675.391-74.456,0a2.053,2.053,0,0,0-.2-.312,1.529,1.529,0,0,1-.2-.352,1.045,1.045,0,0,1-.078-.391v-.43q.156-1.25.313-2.539t.391-2.539a16.622,16.622,0,0,0,.273-2.578q.039-1.328.039-2.656a6.161,6.161,0,0,0-.117-1.211q-.117-.586-.273-1.172a4.261,4.261,0,0,0-.43-1.055,4.675,4.675,0,0,0-.742-.937q-.625-.391-1.289-.781a9.446,9.446,0,0,0-1.367-.664,5.618,5.618,0,0,0-1.484-.352,7.832,7.832,0,0,0-1.562,0q-.391,2.109-.859,4.258t-.9,4.219q-.43,2.07-.82,4.18a28.512,28.512,0,0,1-1.094,4.141,2.052,2.052,0,0,0-.312.2.859.859,0,0,1-.352.156,1.81,1.81,0,0,1-.352.039h-.391l-.781-.391a2.053,2.053,0,0,0-.2-.312.88.88,0,0,1-.156-.312q-.039-.156-.078-.352A1.811,1.811,0,0,1-87.5-2.5a36.382,36.382,0,0,0,.9-3.867q.352-1.992.742-3.906t.82-3.906q.43-1.992.82-3.945h-3.359l-.859.156a2.144,2.144,0,0,0-.273-.117q-.117-.039-.273-.078a.868.868,0,0,1-.273-.117,2.554,2.554,0,0,0-.273-.156,2.053,2.053,0,0,0-.2-.312.859.859,0,0,1-.156-.352,1.811,1.811,0,0,1-.039-.352v-.391l.391-.781a3.172,3.172,0,0,1,1.367-.469,14.17,14.17,0,0,1,1.484-.078H-83.6q.078-.7.234-1.445t.313-1.445a8.778,8.778,0,0,0,.2-1.445,2.453,2.453,0,0,1,.508-1.367,2.052,2.052,0,0,0,.313-.2.859.859,0,0,1,.352-.156,1.811,1.811,0,0,1,.352-.039h.391l.781.391a2.053,2.053,0,0,0,.2.313.859.859,0,0,1,.156.352,1.988,1.988,0,0,1,.039.391v.43a5.207,5.207,0,0,1-.117,1.094L-80.12-23.2q-.117.547-.273,1.094a3.965,3.965,0,0,0-.156,1.094,6.6,6.6,0,0,1,1.914.117q.9.2,1.758.469a6.764,6.764,0,0,1,1.641.781q.781.508,1.563.977v.156l.469.234.234.469h.156l.234.469h.156a8.124,8.124,0,0,1,.977,2.031,10.934,10.934,0,0,1,.469,2.227,22.776,22.776,0,0,1,.117,2.344v2.383a13.714,13.714,0,0,1-.312,2.109,18.077,18.077,0,0,0-.352,2.07q-.117,1.055-.2,2.148A5.347,5.347,0,0,1-72.269,0a2.052,2.052,0,0,0-.312.2.859.859,0,0,1-.352.156,1.81,1.81,0,0,1-.352.039ZM-63.05-10.7l-.781-.391q-.781-1.484-1.641-2.969t-1.68-2.93a31.045,31.045,0,0,0-1.836-2.852,6.122,6.122,0,0,1-1.172-3.047l.391-.781a2.052,2.052,0,0,0,.313-.2.859.859,0,0,1,.352-.156,1.811,1.811,0,0,1,.352-.039h.391l.781.391a22.817,22.817,0,0,0,1.641,2.891q.938,1.406,1.758,2.852T-62.464-15a9.391,9.391,0,0,1,1.211,3.125l-.391.781a2.052,2.052,0,0,0-.312.2.859.859,0,0,1-.352.156,1.81,1.81,0,0,1-.352.039ZM-44.181,3.125l-.781-.391-.234-.312-5.391-.078q-.469.078-.977.2a6.857,6.857,0,0,1-1.055.156l-1.055.078q-.508.039-1.055.117A2.143,2.143,0,0,0-55,2.773q-.117-.039-.273-.078a.868.868,0,0,1-.273-.117,2.554,2.554,0,0,0-.273-.156,2.052,2.052,0,0,0-.2-.312.859.859,0,0,1-.156-.352,1.81,1.81,0,0,1-.039-.352V1.016a9.758,9.758,0,0,0,.625-2.383q.156-1.211.313-2.5t.391-2.5a7.484,7.484,0,0,1,.859-2.3q.234-.156.43-.273a1.245,1.245,0,0,1,.469-.156,3.863,3.863,0,0,1,.547-.039h.508q1.016.078,2.109.078t2.109.078a10.3,10.3,0,0,1,1.992.352,16.631,16.631,0,0,1,1.914.664,18.333,18.333,0,0,1,.625,2.422q.234,1.25.352,2.5t.313,2.5q.2,1.25.273,2.5l-.391.781a2.052,2.052,0,0,0-.312.2.859.859,0,0,1-.352.156,1.81,1.81,0,0,1-.352.039ZM-30.822,1.8a6.169,6.169,0,0,1-.937-.234,4.318,4.318,0,0,1-.859-.391A7.109,7.109,0,0,1-33.4.625L-34.181,0a7.576,7.576,0,0,1-1.484-2.07A18.323,18.323,0,0,1-36.6-4.414q-.391-1.211-.7-2.422A19.535,19.535,0,0,1-37.775-9.3l.391-.781a2.052,2.052,0,0,0,.313-.2.859.859,0,0,1,.352-.156,1.81,1.81,0,0,1,.352-.039h.391l.781.391a7.036,7.036,0,0,1,.742,2.109,11.486,11.486,0,0,0,.586,2.109l.781,2.031a5.382,5.382,0,0,0,1.25,1.875q.234.156.508.313a5.353,5.353,0,0,0,.547.273,1.574,1.574,0,0,0,.625.117h.664q.547-.156,1.055-.273t1.055-.234A7.045,7.045,0,0,0-26.33-2.07q.508-.2.977-.43v-.156a2.053,2.053,0,0,0,.313-.2.859.859,0,0,1,.352-.156,1.81,1.81,0,0,1,.352-.039h.391l.781.391a2.052,2.052,0,0,0,.2.313.859.859,0,0,1,.156.352,1.988,1.988,0,0,1,.039.391q0,.2,0,.43l-.391.781-.469.234V0a6.053,6.053,0,0,1-1.641.82q-.859.273-1.758.469t-1.836.391A6.928,6.928,0,0,1-30.822,1.8ZM-41.213.156l-.781-.391a2.052,2.052,0,0,0-.2-.312A.859.859,0,0,1-42.345-.9a1.81,1.81,0,0,1-.039-.352v-.391a15.142,15.142,0,0,0,.547-1.641q.234-.859.43-1.68t.391-1.68a7.245,7.245,0,0,1,.586-1.641,2.052,2.052,0,0,0,.313-.2.859.859,0,0,1,.352-.156,1.811,1.811,0,0,1,.352-.039h.391l.859.391a2.052,2.052,0,0,0,.2.313.859.859,0,0,1,.156.352,1.81,1.81,0,0,1,.039.352v.391q-.234.859-.469,1.68t-.43,1.641q-.2.82-.391,1.68a4.646,4.646,0,0,1-.664,1.563,2.052,2.052,0,0,0-.312.2,1.529,1.529,0,0,1-.352.2,1.045,1.045,0,0,1-.391.078ZM-45.744-.7v-.391q-.078-.547-.2-1.094A7.968,7.968,0,0,1-46.1-3.359a7.968,7.968,0,0,0-.156-1.172q-.117-.547-.2-1.094A3.586,3.586,0,0,0-47.658-5.9l-1.367-.078q-.7-.039-1.367-.039h-1.367a7.1,7.1,0,0,0-.352,1.328,12.916,12.916,0,0,0-.156,1.445,7.959,7.959,0,0,1-.2,1.406,6.306,6.306,0,0,0-.156,1.445h.391a6.563,6.563,0,0,1,1.563-.273q.781-.039,1.6-.039h3.32Zm25.078-.7-.781-.391a9.775,9.775,0,0,1-.625-1.562A8.526,8.526,0,0,0-22.7-4.883q-.391-.742-.742-1.523a5.094,5.094,0,0,1-.43-1.641,2.143,2.143,0,0,0,.117-.273q.039-.117.078-.273a.868.868,0,0,1,.117-.273,2.555,2.555,0,0,0,.156-.273,2.053,2.053,0,0,0,.313-.2.859.859,0,0,1,.352-.156,1.811,1.811,0,0,1,.352-.039h.391l.781.391q.312.781.664,1.6t.742,1.6a12.215,12.215,0,0,1,.664,1.6,5.524,5.524,0,0,1,.273,1.758l-.391.781a2.052,2.052,0,0,0-.312.2.859.859,0,0,1-.352.156,1.81,1.81,0,0,1-.352.039Zm-8.125-3.828-.781-.391a3.7,3.7,0,0,1-.7-1.25,9,9,0,0,0-.586-1.367q-.352-.664-.625-1.328a3.759,3.759,0,0,1-.273-1.445l.391-.781a2.052,2.052,0,0,0,.313-.2.859.859,0,0,1,.352-.156,1.81,1.81,0,0,1,.352-.039h.391l.781.391a8.628,8.628,0,0,1,.664,1.289q.273.664.586,1.328t.586,1.328a5.111,5.111,0,0,1,.352,1.445l-.391.781a2.052,2.052,0,0,0-.312.2.859.859,0,0,1-.352.156,1.81,1.81,0,0,1-.352.039ZM-45.2-10.781a20.582,20.582,0,0,0-2.266-.352l-2.344-.234q-1.172-.117-2.3-.312a13.355,13.355,0,0,1-2.227-.586,2.052,2.052,0,0,0-.2-.312.859.859,0,0,1-.156-.352,1.81,1.81,0,0,1-.039-.352v-.391l.391-.859a1.816,1.816,0,0,1,.352-.273,1.215,1.215,0,0,1,.43-.156A2.847,2.847,0,0,1-53.088-15h.469a6.48,6.48,0,0,0,2.109.43,15.6,15.6,0,0,1,2.188.234A15.735,15.735,0,0,0-46.1-14.1a4.339,4.339,0,0,1,2.07.586,2.052,2.052,0,0,0,.2.313.859.859,0,0,1,.156.352,1.987,1.987,0,0,1,.039.391v.43l-.391.781a2.554,2.554,0,0,0-.273.156,2.554,2.554,0,0,1-.273.156.693.693,0,0,1-.312.078A.693.693,0,0,0-45.2-10.781Zm6.563-3.047a2.144,2.144,0,0,0-.273-.117q-.117-.039-.273-.078a.868.868,0,0,1-.273-.117,2.554,2.554,0,0,0-.273-.156,1.369,1.369,0,0,0-.2-.391.859.859,0,0,1-.156-.352,1.81,1.81,0,0,1-.039-.352v-.391l.391-.781h.156q.469-.625.859-1.25t.82-1.25q.43-.625.82-1.25a10.7,10.7,0,0,0,.7-1.328q-.312-.234-.625-.43l-.625-.391a2.882,2.882,0,0,0-.7-.312,2.228,2.228,0,0,1-.7-.352,2.052,2.052,0,0,0-.2-.312.859.859,0,0,1-.156-.352,1.81,1.81,0,0,1-.039-.352v-.391l.391-.781a2.052,2.052,0,0,0,.313-.2.882.882,0,0,1,.391-.156,2.456,2.456,0,0,1,.391-.039h.391a3.02,3.02,0,0,1,.859.273,6.9,6.9,0,0,1,.742.43q.352.234.742.508a2.078,2.078,0,0,0,.781.352,3.632,3.632,0,0,0,.547-.7,7.454,7.454,0,0,1,.508-.742,7.454,7.454,0,0,0,.508-.742,2.455,2.455,0,0,0,.313-.781h-2.812l-2.969.078a2.568,2.568,0,0,0-.625-.078h-.586a1.12,1.12,0,0,1-.508-.117,4.367,4.367,0,0,1-.469-.273,2.052,2.052,0,0,0-.2-.312.859.859,0,0,1-.156-.352,1.81,1.81,0,0,1-.039-.352v-.391l.391-.781a4.367,4.367,0,0,1,.469-.273,1.655,1.655,0,0,1,.469-.156,3.094,3.094,0,0,1,.508-.039h.586l3.047.078,2.813-.078q1.25.078,2.5.117t2.5.117q1.25.078,2.461.2a6.514,6.514,0,0,1,2.3.664,10.1,10.1,0,0,1,.547,3.359q0,1.8.078,3.516t.117,3.438a30.561,30.561,0,0,0,.273,3.438l-.391.781a1.224,1.224,0,0,0-.312.234.681.681,0,0,1-.352.2,1.81,1.81,0,0,1-.352.039h-.391l-.781-.469a7.613,7.613,0,0,1-.7-2.891q-.078-1.562-.117-3.125t-.117-3.086q-.078-1.523-.078-3.086l-3.437-.234-3.047,4.688,3.906,2.031a2.052,2.052,0,0,0,.2.313.859.859,0,0,1,.156.352,1.987,1.987,0,0,1,.039.391v.43l-.391.781a2.052,2.052,0,0,0-.312.2.859.859,0,0,1-.352.156,1.81,1.81,0,0,1-.352.039h-.391a3.435,3.435,0,0,1-1.133-.508,8.636,8.636,0,0,0-1.055-.625l-1.094-.547q-.547-.273-1.094-.508-.391.547-.742,1.133t-.742,1.133a7.148,7.148,0,0,0-.664,1.133,4.982,4.982,0,0,1-.742,1.133l-.547.7h-.156v.234a2.554,2.554,0,0,0-.273.156,2.554,2.554,0,0,1-.273.156.775.775,0,0,1-.352.078A.775.775,0,0,0-38.634-13.828Zm-7.109-2.5a8.265,8.265,0,0,0-2.031-.391q-1.094-.078-2.109-.234a11.217,11.217,0,0,0-2.109-.117,3.043,3.043,0,0,1-1.953-.586,2.052,2.052,0,0,0-.2-.312.859.859,0,0,1-.156-.352,1.81,1.81,0,0,1-.039-.352v-.391l.391-.781a2.052,2.052,0,0,0,.313-.2.859.859,0,0,1,.352-.156,1.987,1.987,0,0,1,.391-.039h.43q1.016.156,2.031.234t2.031.2q1.016.117,2.031.2a4.015,4.015,0,0,1,1.875.625,2.052,2.052,0,0,0,.2.313.859.859,0,0,1,.156.352,1.81,1.81,0,0,1,.039.352v.391l-.391.781a1.043,1.043,0,0,0-.273.2.594.594,0,0,1-.312.156,1.81,1.81,0,0,1-.352.039A.693.693,0,0,0-45.744-16.328Zm1.875-5.859a14.561,14.561,0,0,0-3.008-.312,29.844,29.844,0,0,1-3.047-.156,30.228,30.228,0,0,0-3.086-.156,6.083,6.083,0,0,1-2.891-.7,2.052,2.052,0,0,0-.2-.312.859.859,0,0,1-.156-.352,1.81,1.81,0,0,1-.039-.352v-.391l.391-.781a2.052,2.052,0,0,0,.313-.2.859.859,0,0,1,.352-.156,1.987,1.987,0,0,1,.391-.039h.43a10.676,10.676,0,0,0,1.563.2l1.6.078q.82.039,1.641.117t1.6.156V-25.7l-.781-.391q-.625-.7-1.172-1.406t-1.172-1.406q-.625-.7-1.172-1.406a2.6,2.6,0,0,1-.547-1.641l.391-.781a2.052,2.052,0,0,0,.313-.2.859.859,0,0,1,.352-.156,1.811,1.811,0,0,1,.352-.039h.391l.781.391a9.683,9.683,0,0,0,.859,1.172q.469.547.938,1.133l.938,1.172A6.01,6.01,0,0,0-46.447-28.2a2.052,2.052,0,0,0,.2.313.859.859,0,0,1,.156.352,1.81,1.81,0,0,1,.039.352v.391l-.391.781-.7.313v.156a4.03,4.03,0,0,1,1.25.039,10.245,10.245,0,0,0,1.25.156l1.25.078a1.844,1.844,0,0,1,1.094.43,2.052,2.052,0,0,0,.2.313,1.529,1.529,0,0,1,.2.352,1.045,1.045,0,0,1,.078.391v.43l-.391.781q-.156.078-.352.2a1.228,1.228,0,0,1-.391.156,2.195,2.195,0,0,1-.43.039ZM-12.187,2.5l-.781-.391a2.052,2.052,0,0,0-.2-.312.859.859,0,0,1-.156-.352,1.987,1.987,0,0,1-.039-.391V.625A23.517,23.517,0,0,0-12.3-2.227,23.517,23.517,0,0,1-11.25-5.078q.625-1.406,1.133-2.852A15.765,15.765,0,0,1-8.828-10.7a2.052,2.052,0,0,0,.313-.2.859.859,0,0,1,.352-.156,1.81,1.81,0,0,1,.352-.039h.391l.781.391a2.052,2.052,0,0,0,.2.313.859.859,0,0,1,.156.352,1.987,1.987,0,0,1,.039.391v.43q-.234.469-.469.977a7.3,7.3,0,0,0-.391,1.055q-.156.547-.352,1.055t-.352,1.055A10.782,10.782,0,0,1-6.172-4.8l1.563.391q.781.2,1.523.43a7.59,7.59,0,0,0,1.6.313l.078-2.656V-16.8A10.388,10.388,0,0,0-2.7-16.875q-.664,0-1.328.039a3.929,3.929,0,0,1-1.25-.117,3.484,3.484,0,0,0-1.289-.078l-.781.156a2.144,2.144,0,0,0-.273-.117q-.117-.039-.273-.078a.868.868,0,0,1-.273-.117,2.554,2.554,0,0,0-.273-.156,2.052,2.052,0,0,0-.2-.312.859.859,0,0,1-.156-.352,1.81,1.81,0,0,1-.039-.352v-.391l.391-.781a1.723,1.723,0,0,1,.664-.312q.352-.078.742-.156a4.176,4.176,0,0,1,.82-.078h.82q1.953.078,3.984.234t4.023.234l3.984.156a13.888,13.888,0,0,1,3.867.7,2.052,2.052,0,0,0,.2.313.859.859,0,0,1,.156.352,1.811,1.811,0,0,1,.039.352v.391l-.391.781a4.367,4.367,0,0,1-.469.273,1.12,1.12,0,0,1-.508.117H8.359q-.781-.078-1.6-.2a11.864,11.864,0,0,0-1.68-.117q-.859,0-1.68-.039t-1.68-.039v4.531H3.711q.977,0,1.914.078t1.875.2a6.166,6.166,0,0,1,1.8.508,2.052,2.052,0,0,0,.2.313.859.859,0,0,1,.156.352,1.811,1.811,0,0,1,.039.352v.391L9.3-9.062a1.224,1.224,0,0,0-.312.234.681.681,0,0,1-.352.2l-.391.078a2.195,2.195,0,0,1-.43.039q-.625-.156-1.328-.273a8.54,8.54,0,0,0-1.406-.117q-.7,0-1.445-.039T2.188-8.984L1.8-8.828,1.641-3.672,1.8-2.656q1.406.313,2.852.508t2.891.43q1.445.234,2.891.508a11.514,11.514,0,0,1,2.773.9A2.052,2.052,0,0,0,13.4,0a.859.859,0,0,1,.156.352A1.811,1.811,0,0,1,13.594.7v.391l-.391.781q-.156.078-.352.2a1.228,1.228,0,0,1-.391.156,1.987,1.987,0,0,1-.391.039h-.43a39.929,39.929,0,0,0-5.2-1.055A52.771,52.771,0,0,1,1.211.234Q-1.406-.391-3.945-1.094a28.964,28.964,0,0,0-5.2-.937A5.928,5.928,0,0,0-9.492-.937,5.018,5.018,0,0,1-9.844.117a8.127,8.127,0,0,0-.391,1.016,2.826,2.826,0,0,1-.547.977,2.052,2.052,0,0,0-.312.2.859.859,0,0,1-.352.156A1.81,1.81,0,0,1-11.8,2.5ZM13.828-15.234l-.781-.391a3.011,3.011,0,0,1-.508-1.562l-.078-1.719q-.039-.859-.117-1.68t-.078-1.68a46.061,46.061,0,0,0-5.391-.469l-5.508-.156q-2.773-.078-5.508-.2t-5.469-.273l-.391.078-.7-.156a14.548,14.548,0,0,1-.078,1.523q-.078.742-.117,1.484t-.078,1.523a2.878,2.878,0,0,1-.43,1.406,2.052,2.052,0,0,0-.312.2.859.859,0,0,1-.352.156,1.81,1.81,0,0,1-.352.039h-.391l-.781-.391q-.078-.156-.2-.352a1.215,1.215,0,0,1-.156-.43q-.039-.234-.078-.43a2.195,2.195,0,0,1-.039-.43l.156-1.719q.078-.859.117-1.758t.117-1.758a3.313,3.313,0,0,1,.547-1.562l.469-.312a1.8,1.8,0,0,1,.508-.234,2.124,2.124,0,0,1,.586-.078h.625l1.25.234,1.8-.078q.781.078,1.523.156t1.484.117q.742.039,1.523.039H-1.8v-4.961A2.344,2.344,0,0,1-1.328-32.5a2.052,2.052,0,0,0,.313-.2.859.859,0,0,1,.352-.156,1.811,1.811,0,0,1,.352-.039H.156l.781.391a2.227,2.227,0,0,1,.43,1.484q-.039.859-.039,1.719v3.359q1.719.078,3.438.078t3.438.117q1.719.117,3.438.313a18.775,18.775,0,0,1,3.281.664,3.725,3.725,0,0,1,.43,1.953,14.685,14.685,0,0,0,.078,2.148,19.443,19.443,0,0,1,.117,2.148q0,1.094.078,2.109l-.391.781a2.052,2.052,0,0,0-.312.2.859.859,0,0,1-.352.156,1.81,1.81,0,0,1-.352.039ZM44.65-.469q-2.031-.391-3.984-.859t-3.984-.937q-2.031-.469-4.023-.977a37.111,37.111,0,0,1-3.867-1.211,2.052,2.052,0,0,0-.2-.312.859.859,0,0,1-.156-.352,1.811,1.811,0,0,1-.039-.352v-.391l.391-.781q.234-.156.43-.273a.82.82,0,0,1,.43-.117h1.016A29.343,29.343,0,0,0,34.416-5.9q1.875.43,3.828.859t3.867.9q1.914.469,3.789.938a2.052,2.052,0,0,0,.2.313.859.859,0,0,1,.156.352,1.987,1.987,0,0,1,.039.391v.43L45.9-.937a1.043,1.043,0,0,0-.273.2.594.594,0,0,1-.312.156,1.81,1.81,0,0,1-.352.039A.693.693,0,0,0,44.65-.469Zm-.234-18.594a2.144,2.144,0,0,0-.273-.117q-.117-.039-.273-.078a.868.868,0,0,1-.273-.117,2.554,2.554,0,0,0-.273-.156,2.052,2.052,0,0,0-.2-.312.859.859,0,0,1-.156-.352,1.81,1.81,0,0,1-.039-.352v-.391l.391-.781h.156l.391-.859q-1.641-.391-3.32-.742a32.067,32.067,0,0,1-3.359-.9,17.241,17.241,0,0,0-3.4-.742,28.273,28.273,0,0,1-3.359-.586,2.053,2.053,0,0,0-.2-.312.859.859,0,0,1-.156-.352,1.811,1.811,0,0,1-.039-.352v-.391l.391-.781a3.15,3.15,0,0,1,.508-.273,2.159,2.159,0,0,1,.586-.156,5.035,5.035,0,0,1,.625-.039h.625a20.177,20.177,0,0,1,3.711.664q1.836.508,3.711,1.016t3.75.859a12.136,12.136,0,0,1,3.594,1.289,2.052,2.052,0,0,0,.2.313.859.859,0,0,1,.156.352,1.987,1.987,0,0,1,.039.391v.43l-.391.781a1.58,1.58,0,0,0-.586.586,5.8,5.8,0,0,1-.43.664q-.234.313-.469.664t-.469.664a2.554,2.554,0,0,0-.273.156,2.554,2.554,0,0,1-.273.156.693.693,0,0,1-.312.078A.693.693,0,0,0,44.416-19.062Zm41.837-3.75-.781-.391a2.8,2.8,0,0,1-.547-1.445q-.078-.82-.156-1.6t-.117-1.6q-.039-.82-.039-1.68L85-30.312a2.052,2.052,0,0,0,.313-.2.859.859,0,0,1,.352-.156,1.811,1.811,0,0,1,.352-.039h.391l.781.391a2.4,2.4,0,0,1,.469,1.484q0,.859.078,1.641t.156,1.6q.078.82.156,1.6l-.391.781a2.053,2.053,0,0,0-.312.2.859.859,0,0,1-.352.156,1.811,1.811,0,0,1-.352.039Zm5.156-.156-.781-.391a5.1,5.1,0,0,1-.547-1.484,10.767,10.767,0,0,1-.2-1.6q-.039-.82-.078-1.68t-.039-1.719l.391-.781a2.052,2.052,0,0,0,.313-.2.859.859,0,0,1,.352-.156,1.811,1.811,0,0,1,.352-.039h.391l.781.391a2.4,2.4,0,0,1,.469,1.484q0,.859.039,1.719a10.879,10.879,0,0,0,.2,1.641,8.351,8.351,0,0,1,.156,1.641l-.391.781a2.053,2.053,0,0,0-.312.2.859.859,0,0,1-.352.156,1.811,1.811,0,0,1-.352.039ZM77.347.625Q76.487.469,75.589.391A5.411,5.411,0,0,1,73.948,0,8.668,8.668,0,0,1,72.5-.781a8.712,8.712,0,0,1-1.328-1.094,6.836,6.836,0,0,1-1.016-1.484A7.245,7.245,0,0,1,69.573-5q-.2-.859-.352-1.758a10.7,10.7,0,0,1-.156-1.836,5.349,5.349,0,0,1,.391-1.6,7.436,7.436,0,0,1,.781-1.406q.469-.664.977-1.328a11.223,11.223,0,0,0,.9-1.367,29.017,29.017,0,0,1-1.68-3.047q-.742-1.562-1.367-3.125l-1.25-3.125a17,17,0,0,1-.937-3.281l.391-.781a2.052,2.052,0,0,0,.313-.2.859.859,0,0,1,.352-.156,1.811,1.811,0,0,1,.352-.039h.391l.781.391a20.3,20.3,0,0,1,1.211,2.773q.508,1.445,1.094,2.852t1.211,2.773q.625,1.367,1.328,2.773l.313.078a21.844,21.844,0,0,1,2.461-1.562A20.3,20.3,0,0,1,79.73-19.18q1.367-.508,2.734-.977a6.836,6.836,0,0,1,2.93-.312l.781.391a2.053,2.053,0,0,0,.2.313.859.859,0,0,1,.156.352,1.811,1.811,0,0,1,.039.352v.391l-.391.781q-1.406.313-2.852.742t-2.812.977A16.035,16.035,0,0,0,77.855-14.8q-1.289.82-2.539,1.68l-.078.156a5.639,5.639,0,0,0-.859.9L73.6-11.055a11.883,11.883,0,0,0-.7,1.016q-.313.508-.625,1.055l-.156,1.25.156,1.094a4.832,4.832,0,0,0,.273,1.055q.2.508.43,1.016a2.565,2.565,0,0,0,.7.9,4.292,4.292,0,0,0,1.563.9,7.059,7.059,0,0,0,1.875.313q1.016.039,1.992.039h1.914A3.21,3.21,0,0,1,82.5-2.7a5.928,5.928,0,0,0,1.523-.117A3.756,3.756,0,0,0,85.394-3.4a2.188,2.188,0,0,1,1.484-.352l.781.391a2.053,2.053,0,0,0,.2.313.859.859,0,0,1,.156.352,1.988,1.988,0,0,1,.039.391v.43l-.391.781A6.875,6.875,0,0,1,85.316,0a14,14,0,0,1-2.578.391q-1.328.078-2.656.2A19.059,19.059,0,0,1,77.347.625Zm38.712.156a11.206,11.206,0,0,1-1.836-.43,8.069,8.069,0,0,1-1.6-.742q-.781-.469-1.523-1.016a12.716,12.716,0,0,1-1.445-1.25,6.1,6.1,0,0,1-1.211-1.68,9.438,9.438,0,0,1-.664-1.875,16.761,16.761,0,0,1-.352-1.992q-.117-1.016-.2-2.109h-2.344l-1.484.156-.469-.078-.312.078a2.143,2.143,0,0,0-.273-.117q-.117-.039-.273-.078a.868.868,0,0,1-.273-.117,2.554,2.554,0,0,0-.273-.156,2.053,2.053,0,0,0-.2-.312.859.859,0,0,1-.156-.352,1.811,1.811,0,0,1-.039-.352v-.391l.391-.781a4.367,4.367,0,0,1,.469-.273,1.649,1.649,0,0,1,.508-.156,3.606,3.606,0,0,1,.508-.039h.547l.781.078A5.027,5.027,0,0,1,105-13.32a6.362,6.362,0,0,1,.7-.039h1.445v-3.594q0-.859.078-1.719t.078-1.719h-3.281l-.781.078-.781-.391a2.053,2.053,0,0,0-.2-.312.859.859,0,0,1-.156-.352,1.811,1.811,0,0,1-.039-.352v-.391l.391-.781a1.653,1.653,0,0,1,1.094-.508q.625-.039,1.289-.039h2.617q.156-.859.234-1.68t.234-1.68a12.863,12.863,0,0,0,.2-1.719,3.011,3.011,0,0,1,.508-1.562,2.052,2.052,0,0,0,.313-.2.859.859,0,0,1,.352-.156,1.811,1.811,0,0,1,.352-.039h.391l.781.391q.156.234.273.43a.82.82,0,0,1,.117.43V-28.2q-.078.625-.2,1.25l-.234,1.25a6.981,6.981,0,0,0-.117,1.289,5.3,5.3,0,0,1-.156,1.289,15.8,15.8,0,0,0,1.6.234l1.641.156,1.641.156a3.267,3.267,0,0,1,1.523.547,2.053,2.053,0,0,0,.2.313.859.859,0,0,1,.156.352,1.811,1.811,0,0,1,.039.352v.391l-.391.781q-.156.078-.352.2a1.228,1.228,0,0,1-.391.156,1.987,1.987,0,0,1-.391.039h-.43q-.7-.078-1.289-.2a6.368,6.368,0,0,0-1.25-.117,4.835,4.835,0,0,1-1.25-.156,4.68,4.68,0,0,0-1.211-.156L110.2-13.2h3.555q.9,0,1.836-.039a2.679,2.679,0,0,1,1.641.43,2.053,2.053,0,0,0,.2.313.859.859,0,0,1,.156.352,1.987,1.987,0,0,1,.039.391v.43l-.391.781a2.608,2.608,0,0,1-1.6.43q-.9-.039-1.8-.039h-3.477V-8.75l.156.938a9.1,9.1,0,0,0,.2.9,5.7,5.7,0,0,0,.313.859,8.138,8.138,0,0,0,.43.82l.156.078a2.306,2.306,0,0,0,.625.781q.391.313.781.586t.82.547q.43.273.82.508a5.654,5.654,0,0,1,.82.234,3.4,3.4,0,0,0,.82.2q.391.039.859.039h.859q.547-.156,1.055-.312t.977-.312a2.835,2.835,0,0,0,.9-.508q.43-.352.9-.664a3.689,3.689,0,0,0,.742-1.055,4.1,4.1,0,0,0,.352-1.289q.078-.7.117-1.367a2.274,2.274,0,0,1,.43-1.211,2.052,2.052,0,0,0,.313-.2.859.859,0,0,1,.352-.156,1.987,1.987,0,0,1,.391-.039h.43l.781.391a2.053,2.053,0,0,0,.2.313.859.859,0,0,1,.156.352,1.811,1.811,0,0,1,.039.352v.391a14.3,14.3,0,0,1-.234,1.523q-.156.742-.273,1.484a3.041,3.041,0,0,1-.586,1.367l-.937,1.25-.547.469-.625.313v.156a5.878,5.878,0,0,1-1.523.859q-.82.313-1.68.586a6.838,6.838,0,0,1-1.8.313Q117,.781,116.059.781Zm47.463,1.8q-2.187-.234-4.414-.469t-4.492-.273l-4.492-.078q-2.227-.039-4.492-.117-.859.078-1.719.078t-1.68.078q-.82.078-1.68.117a10.878,10.878,0,0,0-1.641.2l-.781-.391a2.394,2.394,0,0,1-.234-.43q-.078-.2-.156-.43a1.6,1.6,0,0,1-.078-.508V-.156a59.078,59.078,0,0,0,.43-7.773q-.039-3.945.2-7.852t.273-7.812a32.81,32.81,0,0,1,.977-7.656l1.25-.625h8.75q1.328.078,2.734.156t2.813.078q1.406,0,2.773.078t2.773.078l1.719-.078a10.519,10.519,0,0,1,1.563.117,11.057,11.057,0,0,0,1.641.117q.859,0,1.641.078a2.758,2.758,0,0,1,1.406.547,8.83,8.83,0,0,1,.742,2.93q.117,1.523.117,3.125v3.164q0,1.563.078,3.125l-.078,3.047q.078,2.109.2,4.18t.2,4.141q.078,2.07.2,4.141t.273,4.1l-.391.781a3.149,3.149,0,0,1-.508.273,1.472,1.472,0,0,1-.586.117,5.034,5.034,0,0,0-.625.039,5.034,5.034,0,0,1-.625.039l-1.719-.078Zm3.594-3.2v-.7q-.156-2.109-.234-4.219t-.2-4.219q-.117-2.109-.2-4.258t-.078-4.258l.078-1.953q-.078-1.016-.078-2.031V-24.3q0-1.016-.039-2.031a15.5,15.5,0,0,0-.2-1.953l-5.469-.234-1.484.078-3.828-.156v1.875a12.707,12.707,0,0,1,1.719.117q.859.117,1.719.2t1.719.117a3.5,3.5,0,0,1,1.563.43,2.052,2.052,0,0,0,.2.313.859.859,0,0,1,.156.352,1.81,1.81,0,0,1,.039.352v.391l-.391.781a2.053,2.053,0,0,0-.312.2.859.859,0,0,1-.352.156l-.391.078a2.195,2.195,0,0,1-.43.039,7.2,7.2,0,0,1-1.328-.117,6.981,6.981,0,0,0-1.289-.117,5.3,5.3,0,0,1-1.289-.156,3.738,3.738,0,0,0-1.328-.078v1.328q1.25,0,2.422.078t2.344.2q1.172.117,2.383.117a5.249,5.249,0,0,1,2.227.469,2.052,2.052,0,0,0,.2.313.859.859,0,0,1,.156.352,1.81,1.81,0,0,1,.039.352v.391l-.391.781q-.156.078-.352.2a1.215,1.215,0,0,1-.43.156q-.234.039-.43.078a2.195,2.195,0,0,1-.43.039q-1.8-.078-3.555-.273t-3.594-.234a24.173,24.173,0,0,1-3.633-.352,16.686,16.686,0,0,0-3.594-.234q-.7.078-1.445.117t-1.445.117q-.7.078-1.406.2a5.609,5.609,0,0,1-1.484.039l-.781-.391a2.052,2.052,0,0,0-.2-.312.859.859,0,0,1-.156-.352,1.81,1.81,0,0,1-.039-.352v-.391l.391-.781a5.285,5.285,0,0,1,1.992-.547q1.055-.078,2.148-.2t2.188-.156q1.094-.039,2.188-.039l1.563.234v-1.25l-3.75-.078-1.172.078a1.475,1.475,0,0,0-.469-.078,1.475,1.475,0,0,1-.469-.078q-.234-.078-.43-.156a2.4,2.4,0,0,1-.43-.234,2.052,2.052,0,0,0-.2-.312.859.859,0,0,1-.156-.352,1.81,1.81,0,0,1-.039-.352v-.391l.391-.781q.234-.156.43-.273a.82.82,0,0,1,.43-.117h1.016l1.016.078,2.813-.078,1.016.078v-1.641q-1.25-.078-2.539-.117t-2.578-.039h-5.2q-.312,3.437-.391,6.875t-.273,6.914q-.2,3.477-.156,6.953a67.894,67.894,0,0,1-.273,6.914h.7l6.328-.234,3.594.156v-.312l-.078-.469.078-5.7h-.078l-3.75,2.656a5.8,5.8,0,0,1-.664.43,3.836,3.836,0,0,0-.664.469,6.223,6.223,0,0,0-.586.586,2.43,2.43,0,0,0-.43.7,2.052,2.052,0,0,0-.312.2.859.859,0,0,1-.352.156,1.987,1.987,0,0,1-.391.039h-.43l-.781-.391a2.052,2.052,0,0,0-.2-.312.859.859,0,0,1-.156-.352,1.81,1.81,0,0,1-.039-.352V-4.3a1.355,1.355,0,0,1,.273-.547q.2-.234.391-.508a4.025,4.025,0,0,1,.43-.508l.469-.469,1.406-1.094q.7-.547,1.406-1.055a17.106,17.106,0,0,1,1.445-.937,12.8,12.8,0,0,0,1.445-.977v-.156h-1.484a1.991,1.991,0,0,1-.7-.117,2.526,2.526,0,0,1-.625-.352,2.052,2.052,0,0,0-.2-.312.859.859,0,0,1-.156-.352,1.81,1.81,0,0,1-.039-.352v-.391l.313-1.562q.156-.781.234-1.562t.2-1.6a3.673,3.673,0,0,1,.508-1.445,4.367,4.367,0,0,1,.469-.273,1.683,1.683,0,0,1,.547-.156,4.738,4.738,0,0,1,.586-.039h.586q1.25,0,2.617.078t2.656.156q1.289.078,2.578.2a6.617,6.617,0,0,1,2.383.664,3.907,3.907,0,0,1,.469,1.563q.078.859.117,1.8t.117,1.8l.156,1.719-.391.781a2.052,2.052,0,0,0-.312.2.859.859,0,0,1-.352.156,1.81,1.81,0,0,1-.352.039h-.391a1.964,1.964,0,0,0-.859-.273l-.937-.078q-.469-.039-.977-.039h-.977v.078l.234.156a1.839,1.839,0,0,0,.586.508q.352.2.664.391t.664.391q.352.2.664.352.469-.312.9-.664t.9-.664a7.19,7.19,0,0,1,.977-.547,2.047,2.047,0,0,1,1.133-.156l.781.391a2.052,2.052,0,0,0,.2.313.859.859,0,0,1,.156.352,1.81,1.81,0,0,1,.039.352v.391l-.391.781-1.953,1.172-.078.156-.312.234v.234l.7.547,1.016,1.016.469.391a2.052,2.052,0,0,0,.2.313.859.859,0,0,1,.156.352,1.81,1.81,0,0,1,.039.352v.391l-.391.781a2.052,2.052,0,0,0-.312.2.859.859,0,0,1-.352.156,1.987,1.987,0,0,1-.391.039h-.43l-.937-.469v-.156h-.156q-.625-.7-1.289-1.367l-1.328-1.328a8.894,8.894,0,0,0-1.445-1.172q-.781-.508-1.562-.977h-.234l-.078,5.781a20.774,20.774,0,0,1,2.578.156q1.25.156,2.578.234t2.578.234a20.774,20.774,0,0,0,2.578.156Zm-9.141-12.656V-15l-.156-.469a8.088,8.088,0,0,0-1.8-.273l-1.875-.078q-.937-.039-1.875-.117a11.27,11.27,0,0,0-1.875,0l-.312,2.266h.391l1.172-.078a9.137,9.137,0,0,0,1.563.2q.859.039,1.641.078l1.563.078Q157.194-13.359,157.975-13.281Z" transform="translate(506 217)" fill="#26333b"/>
      <path id="パス_29474" data-name="パス 29474" d="M-156,.656l-.469-.234a1.371,1.371,0,0,1-.281-.844q0-.469-.047-.937t-.047-.961q0-.492-.047-.961l.094-2.437h-.047L-158.672-3a1.231,1.231,0,0,0-.187.117.515.515,0,0,1-.211.094,1.086,1.086,0,0,1-.211.023h-.234L-159.984-3a1.231,1.231,0,0,0-.117-.187A.515.515,0,0,1-160.2-3.4a1.192,1.192,0,0,1-.023-.234v-.258A19.544,19.544,0,0,1-158.836-6q.773-1.031,1.453-2.086t1.453-2.062q.773-1.008,1.523-1.992l-2.3-.094-.8.094-.891-.047-.469.047-.469-.234a1.232,1.232,0,0,0-.117-.187.515.515,0,0,1-.094-.211,1.086,1.086,0,0,1-.023-.211v-.234l.234-.469a2.463,2.463,0,0,1,.375-.234.985.985,0,0,1,.445-.094h.961l.422.047.328-.047v-2.437l-.047-.8a1.286,1.286,0,0,0,.07-.164q.023-.07.047-.164a.521.521,0,0,1,.07-.164,1.532,1.532,0,0,0,.094-.164,1.231,1.231,0,0,0,.188-.117.515.515,0,0,1,.211-.094,1.087,1.087,0,0,1,.211-.023h.234l.469.234a1.646,1.646,0,0,1,.234.891q0,.516.023,1.008t.023,1.008q0,.516.047.984.375.047.75.07a6.147,6.147,0,0,1,.75.094,6.147,6.147,0,0,0,.75.094,1.107,1.107,0,0,1,.656.258,1.231,1.231,0,0,0,.117.188.917.917,0,0,1,.117.211.627.627,0,0,1,.047.234v.258l-.234.469-2.672,3.281v.141l.141.141a1.586,1.586,0,0,0,.375.422q.234.188.445.328t.445.3q.234.164.469.3l.7.7v.094l.516.281a1.231,1.231,0,0,0,.117.188.515.515,0,0,1,.094.211,1.086,1.086,0,0,1,.023.211V-5.3l-.234.469q-.094.047-.211.117a.737.737,0,0,1-.234.094,1.192,1.192,0,0,1-.234.023h-.258a1.819,1.819,0,0,1-.234-.094q-.094-.047-.211-.117a.793.793,0,0,1-.211-.187.588.588,0,0,0-.187-.164,2.576,2.576,0,0,0-.352-.375l-.4-.352a2.3,2.3,0,0,0-.4-.281q-.211-.117-.445-.258l-.141,3.563.141,2.813-.234.469a1.231,1.231,0,0,0-.187.117.515.515,0,0,1-.211.094,1.086,1.086,0,0,1-.211.023Zm4.5-.75-.469-.234a1.231,1.231,0,0,0-.117-.187.515.515,0,0,1-.094-.211,1.086,1.086,0,0,1-.023-.211v-.234l.234-.469a1.575,1.575,0,0,1,1.078-.352,7.951,7.951,0,0,0,1.219-.047q.609-.07,1.2-.117t1.2-.047l.094-4.687-.047-1.359a1.443,1.443,0,0,0,.094-.539v-1.758h-1.5l-1.219.094a.916.916,0,0,0-.187-.07l-.187-.047a.521.521,0,0,1-.164-.07,1.533,1.533,0,0,0-.164-.094,1.232,1.232,0,0,0-.117-.187.515.515,0,0,1-.094-.211,1.086,1.086,0,0,1-.023-.211v-.234l.234-.469a1.376,1.376,0,0,1,.82-.234,8.3,8.3,0,0,0,.914-.047,7.85,7.85,0,0,1,.867-.047h.914v-.961q0-.492.023-.937t.047-.914a1.5,1.5,0,0,1,.3-.844,1.231,1.231,0,0,0,.188-.117.515.515,0,0,1,.211-.094,1.087,1.087,0,0,1,.211-.023h.234l.469.234a1.231,1.231,0,0,0,.117.188.515.515,0,0,1,.094.211,1.086,1.086,0,0,1,.023.211v.234l-.094,2.859q.422,0,.844.023t.82.023h.82a1.258,1.258,0,0,1,.75.234,1.231,1.231,0,0,0,.117.188.515.515,0,0,1,.094.211,1.086,1.086,0,0,1,.023.211v.234l-.234.469a1.307,1.307,0,0,1-.445.211,2.04,2.04,0,0,1-.539.07h-1.078l-1.266-.047q0,.422.023.891a5.9,5.9,0,0,1-.023.914q-.047.445-.07.867t-.023.891l.047,1.078-.094,3.656q.609,0,1.2.023t1.2.023h1.219a1.833,1.833,0,0,1,1.078.328,1.231,1.231,0,0,0,.117.188.515.515,0,0,1,.094.211,1.086,1.086,0,0,1,.023.211v.234l-.234.469q-.094.047-.211.117a.737.737,0,0,1-.234.094,1.317,1.317,0,0,1-.258.023h-.281l-6.328-.094a3.879,3.879,0,0,1-.844.094,5.124,5.124,0,0,0-.844.07,5.267,5.267,0,0,1-.867.07A7.85,7.85,0,0,0-151.5-.094Zm31.828,2.063-.469-.234L-121.219.281Q-122.484.563-123.8.8a25.017,25.017,0,0,1-2.648.328q-1.336.094-2.672.234a23.16,23.16,0,0,0-2.6.422,1.286,1.286,0,0,0-.164-.07q-.07-.023-.164-.047a.521.521,0,0,1-.164-.07,1.532,1.532,0,0,0-.164-.094,1.231,1.231,0,0,0-.117-.187.917.917,0,0,1-.117-.211.627.627,0,0,1-.047-.234V.609a8.2,8.2,0,0,1,.914-1.43q.539-.68,1.008-1.359a11.757,11.757,0,0,1,1.055-1.312,10.7,10.7,0,0,0,1.055-1.336l-2.672-.094-.562.047a1.742,1.742,0,0,0-.3-.07,2.318,2.318,0,0,0-.328-.023.537.537,0,0,1-.281-.07q-.117-.07-.258-.164a1.231,1.231,0,0,0-.117-.187.515.515,0,0,1-.094-.211,1.086,1.086,0,0,1-.023-.211v-.234l.234-.469a1.09,1.09,0,0,1,.211-.164.729.729,0,0,1,.258-.094,1.708,1.708,0,0,1,.281-.023H-132l.656.094,1.453-.047q1.313.094,2.648.141t2.625.117q1.289.07,2.625.094a10.5,10.5,0,0,1,2.555.352,1.231,1.231,0,0,0,.117.188.515.515,0,0,1,.094.211,1.086,1.086,0,0,1,.023.211V-5.2l-.234.469a1.232,1.232,0,0,0-.187.117.515.515,0,0,1-.211.094,1.192,1.192,0,0,1-.234.023h-.258q-.7-.047-1.453-.047t-1.477-.07q-.727-.07-1.453-.07t-1.523-.047q-.469.516-.914,1.055t-.914,1.055q-.469.516-.891,1.078a11.723,11.723,0,0,0-.75,1.125h.469l1.781-.187q.891-.094,1.828-.164a13.206,13.206,0,0,0,1.8-.258q.867-.187,1.758-.328v-.094a1.521,1.521,0,0,0-.281-.445q-.187-.211-.352-.422a2.331,2.331,0,0,1-.281-.469.912.912,0,0,1-.07-.539l.234-.469a1.231,1.231,0,0,0,.188-.117.515.515,0,0,1,.211-.094,1.086,1.086,0,0,1,.211-.023h.234l.469.234q.469.563.891,1.172a8.031,8.031,0,0,1,.727,1.289,6.433,6.433,0,0,0,.75,1.266,2.727,2.727,0,0,1,.539,1.336l-.234.469a1.231,1.231,0,0,0-.187.117.515.515,0,0,1-.211.094,1.086,1.086,0,0,1-.211.023Zm2.813-9.937-.469-.234q-.234-.375-.516-.773t-.562-.75q-.281-.352-.586-.727a3.853,3.853,0,0,0-.68-.656q-.7-.8-1.406-1.617A14.025,14.025,0,0,0-122.6-14.25q-.82-.7-1.594-1.453t-1.57-1.453q-.844.75-1.664,1.43A17.412,17.412,0,0,0-129-14.25a17.412,17.412,0,0,1-1.57,1.477,13.6,13.6,0,0,0-1.523,1.477,3.364,3.364,0,0,0-.75.563q-.328.328-.656.7t-.656.727a6.043,6.043,0,0,0-.609.773,1.231,1.231,0,0,0-.187.117.515.515,0,0,1-.211.094,1.192,1.192,0,0,1-.234.023h-.258l-.469-.234a.821.821,0,0,0-.117-.234.515.515,0,0,1-.094-.211,1.086,1.086,0,0,1-.023-.211v-.234a1.718,1.718,0,0,1,.469-.727,8.416,8.416,0,0,0,.633-.656q.3-.352.609-.68t.633-.656q.844-.8,1.758-1.547a18.808,18.808,0,0,0,1.734-1.617,20.781,20.781,0,0,1,1.711-1.617q.891-.75,1.734-1.594a2.92,2.92,0,0,0,.422-.3.79.79,0,0,1,.469-.187,1.779,1.779,0,0,0,.516-.117.946.946,0,0,1,.516-.047l.469.234a1.946,1.946,0,0,0,.422.609l.563.563q.281.281.539.563t.539.563l.563.375,2.109,1.969a4.191,4.191,0,0,0,.352.492q.211.258.4.492a3.757,3.757,0,0,0,.422.445,1.648,1.648,0,0,1,.375.492l.75.656,1.313,1.594q.094.141.211.3l.234.328a.629.629,0,0,1,.117.375v.4l-.234.516a1.231,1.231,0,0,0-.187.117.515.515,0,0,1-.211.094,1.086,1.086,0,0,1-.211.023Zm-4.547-.844a7.464,7.464,0,0,0-2.039-.375l-2.133-.094a12.9,12.9,0,0,1-2.086-.258,17.82,17.82,0,0,0-2.039-.3l-.141.047a1.286,1.286,0,0,0-.164-.07q-.07-.023-.164-.047a.521.521,0,0,1-.164-.07,1.533,1.533,0,0,0-.164-.094,1.231,1.231,0,0,0-.117-.187.515.515,0,0,1-.094-.211,1.086,1.086,0,0,1-.023-.211v-.234l.234-.469a1.89,1.89,0,0,1,.3-.164,1.3,1.3,0,0,1,.352-.094,3.021,3.021,0,0,1,.375-.023h.375q1.031.234,2.133.422a13.107,13.107,0,0,0,2.2.188,20.157,20.157,0,0,1,2.18.117,7.174,7.174,0,0,1,2.063.539,1.231,1.231,0,0,0,.117.188.515.515,0,0,1,.094.211,1.086,1.086,0,0,1,.023.211v.234l-.234.469a1.231,1.231,0,0,0-.187.117.917.917,0,0,1-.211.117.627.627,0,0,1-.234.047ZM-102.8,1.875l-.469-.234q-.047-.094-.117-.211a.729.729,0,0,1-.094-.258q-.023-.141-.047-.258a1.317,1.317,0,0,1-.023-.258,13.5,13.5,0,0,1,.234-1.945,13.555,13.555,0,0,0,.234-1.969q.047-1.008.164-1.992a11.341,11.341,0,0,1,.4-1.922h.094l.094-.234a1.293,1.293,0,0,1,.7-.281q.422-.047.8-.094a6.232,6.232,0,0,1,.773-.047h.82a1.851,1.851,0,0,0,.281.07q.141.023.3.047a2.317,2.317,0,0,0,.328.023h.3l2.438-.094a2.64,2.64,0,0,0,.727.094,2.64,2.64,0,0,1,.727.094A2.64,2.64,0,0,0-93.4-7.5a1.027,1.027,0,0,1,.68.234A14.418,14.418,0,0,1-92.3-5.25q.141,1.031.234,2.063t.188,2.086q.094,1.055.141,2.086l-.234.469a3.417,3.417,0,0,1-1.336.3q-.727.023-1.477.023h-2.953l-2.437-.047-.234.047-.609-.047q-.187.047-.4.094a2.165,2.165,0,0,1-.469.047h-.914Zm-5.156-.141-.469-.234A1.592,1.592,0,0,1-108.7.727a8.5,8.5,0,0,1-.047-.891v-1.8l.094-4.641h-.094a4.078,4.078,0,0,1-.492.82,4.078,4.078,0,0,0-.492.82l-.375.844q-.187.422-.422.844a1.231,1.231,0,0,0-.187.117.515.515,0,0,1-.211.094,1.086,1.086,0,0,1-.211.023h-.234l-.469-.234a1.231,1.231,0,0,0-.117-.187.528.528,0,0,1-.094-.187q-.023-.094-.047-.211a1.086,1.086,0,0,1-.023-.211,12.216,12.216,0,0,1,1.219-2.484q.75-1.172,1.43-2.414t1.453-2.414q.773-1.172,1.523-2.3l-3.8-.094a.833.833,0,0,1-.234.07,1.243,1.243,0,0,0-.258.07.688.688,0,0,1-.258.047h-.281l-.469-.234a1.232,1.232,0,0,0-.117-.187.515.515,0,0,1-.094-.211,1.086,1.086,0,0,1-.023-.211v-.234l.234-.469a3.771,3.771,0,0,1,.68-.3,2.85,2.85,0,0,1,.727-.141q.375-.023.773-.023h.773V-15.7l-.281-2.906a1.286,1.286,0,0,0,.07-.164q.023-.07.047-.164a.521.521,0,0,1,.07-.164,1.532,1.532,0,0,0,.094-.164,1.231,1.231,0,0,0,.188-.117.515.515,0,0,1,.211-.094,1.087,1.087,0,0,1,.211-.023H-108l.469.234a1.3,1.3,0,0,1,.258.867,4.894,4.894,0,0,0,.047.961q.07.469.117.938l.094.938a4.062,4.062,0,0,1,.75.07,3.172,3.172,0,0,0,.773.047,6.386,6.386,0,0,1,.773,0,1.107,1.107,0,0,1,.656.258q.047.094.117.211a1.64,1.64,0,0,1,.117.234.627.627,0,0,1,.047.234v.258l-.234.469q-.375.422-.75.891t-.727.961q-.352.492-.656.984t-.633.961V-9.8a5.818,5.818,0,0,0,.539.727l.609.7a8.217,8.217,0,0,1,.563.727,6.3,6.3,0,0,1,.445.75l.422.234q.094.141.164.258l.141.234a.537.537,0,0,1,.07.281v.3l-.234.469a1.232,1.232,0,0,0-.187.117.515.515,0,0,1-.211.094,1.086,1.086,0,0,1-.211.023h-.234l-.469-.234-.516-.516-.937-1.172-.094,7.313.047.516-.234.469a1.231,1.231,0,0,0-.187.117.515.515,0,0,1-.211.094,1.086,1.086,0,0,1-.211.023ZM-93.609-.047V-.234L-93.8-2.25a2.826,2.826,0,0,1-.727,0q-.352-.047-.7-.07t-.727-.023h-.75v2.3Zm-4.922-.047V-2.3h-1.406l-.891.141L-101.3-2.2l-.281,2.2h.094l1.031-.094.234.047Zm4.547-3.984v-.141l-.281-1.547a1.916,1.916,0,0,0-.609-.094,4.158,4.158,0,0,1-.633-.047,4.158,4.158,0,0,0-.633-.047H-96.8v1.313l.047.469h1.406a3.028,3.028,0,0,1,.68.07A1.945,1.945,0,0,0-93.984-4.078Zm-4.594-.047v-.469l-.094-1.266-.469-.094A2.505,2.505,0,0,0-99.633-6h-1.008l-.281.047-.281,1.922h.75q.234-.047.445-.07a4.271,4.271,0,0,1,.469-.023h.961ZM-94.5-8.391a4.925,4.925,0,0,0-1.1-.164A6.513,6.513,0,0,1-96.727-8.7a5.283,5.283,0,0,0-1.125-.117H-99l-2.531.328-.516-.281a1.307,1.307,0,0,1-.211-.445,2.04,2.04,0,0,1-.07-.539v-1.078q.094-.469.141-.937t.07-.961a6.46,6.46,0,0,1,.117-.961,2.062,2.062,0,0,1,.375-.844,2.087,2.087,0,0,1,.586-.352,2.282,2.282,0,0,1,.68-.141,5.427,5.427,0,0,0,.727-.094,2.256,2.256,0,0,1,.727-.023,4.914,4.914,0,0,0,1.2.141h1.266a4.249,4.249,0,0,1,1.2.164,5.406,5.406,0,0,1,1.078.445,2.6,2.6,0,0,1,.352,1.242q.023.68.07,1.359a8.85,8.85,0,0,0,.188,1.313,6.145,6.145,0,0,1,.141,1.336l-.234.469a1.76,1.76,0,0,1-.187.164.515.515,0,0,1-.211.094,1.086,1.086,0,0,1-.211.023Zm-.891-2.016V-10.5q-.047-.281-.117-.586a2.806,2.806,0,0,1-.07-.633q0-.328-.023-.656t-.023-.656a2.952,2.952,0,0,0-.937-.141q-.516,0-1.008.023a3.929,3.929,0,0,1-.961-.07,5.011,5.011,0,0,0-.984-.094l-.656.141-.281,2.719h.188a3.255,3.255,0,0,1,.68-.117l.7-.047q.352-.023.7-.023h.727Zm1.547-5.531a2.679,2.679,0,0,0-.8-.164q-.422-.023-.844-.023h-1.687q-.281.047-.562.07t-.586.023q-.3,0-.586.023t-.562.023a.93.93,0,0,0-.422-.094H-101.3l-.469.047a.916.916,0,0,0-.187-.07l-.187-.047a.521.521,0,0,1-.164-.07,1.532,1.532,0,0,0-.164-.094,1.232,1.232,0,0,0-.117-.187.515.515,0,0,1-.094-.211,1.086,1.086,0,0,1-.023-.211v-.234l.234-.469a.824.824,0,0,1,.609-.234q.375,0,.727-.023t.7-.023h.68l.75.094q.469-.047.984-.07t.984-.07a6.794,6.794,0,0,1,.984-.023q.516.023,1.031.023a2.505,2.505,0,0,0,.492.047q.258,0,.516.023a1.475,1.475,0,0,1,.469.117,2.05,2.05,0,0,1,.4.234,1.231,1.231,0,0,0,.117.188.515.515,0,0,1,.094.211,1.086,1.086,0,0,1,.023.211v.234l-.234.469a1.533,1.533,0,0,0-.164.094,1.532,1.532,0,0,1-.164.094.416.416,0,0,1-.187.047A.416.416,0,0,0-93.844-15.937Zm9.938,17.859a1.286,1.286,0,0,0-.164-.07q-.07-.023-.164-.047a.521.521,0,0,1-.164-.07,1.532,1.532,0,0,0-.164-.094A1.693,1.693,0,0,1-84.844.68q0-.539-.023-1.055t-.023-1.055q0-.539-.047-1.055l.047-4.219h-.094l-2.156,3.281a1.231,1.231,0,0,0-.187.117.917.917,0,0,1-.211.117.627.627,0,0,1-.234.047h-.258l-.469-.234a1.231,1.231,0,0,0-.117-.187.515.515,0,0,1-.094-.211,1.086,1.086,0,0,1-.023-.211v-.234q.656-1.172,1.43-2.3t1.477-2.32a16.254,16.254,0,0,1,1.594-2.25q.891-1.055,1.781-2.086a7.456,7.456,0,0,1-1.453-.047q-.7-.094-1.43-.141a11.639,11.639,0,0,0-1.477,0,2.483,2.483,0,0,1-1.359-.281,1.232,1.232,0,0,0-.117-.187.515.515,0,0,1-.094-.211,1.086,1.086,0,0,1-.023-.211v-.234l.234-.469a1.258,1.258,0,0,1,.75-.234h2.578l.188.047v-.141L-84.8-18.7l.234-.469a1.231,1.231,0,0,0,.188-.117.515.515,0,0,1,.211-.094,1.087,1.087,0,0,1,.211-.023h.234l.469.234a1.523,1.523,0,0,1,.328.961q0,.539.023,1.078t.023,1.078q0,.539.047,1.055h.773a2.148,2.148,0,0,1,.727.117,3.3,3.3,0,0,0,.7.164,1.244,1.244,0,0,1,.656.281,1.231,1.231,0,0,0,.117.188.515.515,0,0,1,.094.211,1.086,1.086,0,0,1,.023.211v.234l-.234.469-.281.281a9.178,9.178,0,0,0-.633.7q-.3.375-.586.727a5.338,5.338,0,0,1-.656.68,2.8,2.8,0,0,0-.609.75l.094.047a8.2,8.2,0,0,1,.773,1.008,12.424,12.424,0,0,0,.75,1.031,12.024,12.024,0,0,0,.844.938,5.636,5.636,0,0,0,.961.773A1.231,1.231,0,0,0-79.2-6a.515.515,0,0,1,.094.211,1.086,1.086,0,0,1,.023.211v.234l-.234.469a1.232,1.232,0,0,0-.187.117.515.515,0,0,1-.211.094,1.192,1.192,0,0,1-.234.023H-80.2q-.141-.047-.258-.094a.624.624,0,0,1-.211-.141,1.09,1.09,0,0,0-.211-.164,1.09,1.09,0,0,1-.211-.164,4.019,4.019,0,0,0-.516-.516,4.019,4.019,0,0,1-.516-.516q-.234-.281-.445-.586a1.843,1.843,0,0,0-.492-.492v4.781l-.047.469.141,3.234-.234.469a1.532,1.532,0,0,0-.164.094,1.532,1.532,0,0,1-.164.094.416.416,0,0,1-.187.047A.416.416,0,0,0-83.906,1.922Zm3.844-.7a.837.837,0,0,0-.211-.07l-.234-.047a.515.515,0,0,1-.211-.094,1.231,1.231,0,0,0-.187-.117A1.231,1.231,0,0,0-81.023.7a.515.515,0,0,1-.094-.211,1.086,1.086,0,0,1-.023-.211V.047l.234-.469a1.231,1.231,0,0,0,.188-.117.515.515,0,0,1,.211-.094,1.192,1.192,0,0,1,.234-.023h.258l.234.047a3.493,3.493,0,0,1,.352-.07A2.489,2.489,0,0,1-79.078-.7h.75v-.562l-.094-3.984q.047-.609.047-1.219V-7.711q0-.633-.023-1.266a1.955,1.955,0,0,1,.3-1.148.821.821,0,0,0,.234-.117.515.515,0,0,1,.211-.094,1.086,1.086,0,0,1,.211-.023h.234l.469.234a2.184,2.184,0,0,1,.258,1.148q-.023.633-.023,1.242V-5.3l-.047,1.359.094,3.188h1.922V-14.2q-.047-.422-.07-.82t-.023-.844q0-.445-.023-.844t-.07-.82a.837.837,0,0,0,.07-.211q.023-.117.047-.211a.528.528,0,0,1,.094-.187,1.231,1.231,0,0,0,.117-.187,1.231,1.231,0,0,0,.188-.117.515.515,0,0,1,.211-.094,1.087,1.087,0,0,1,.211-.023h.234l.469.234a4.659,4.659,0,0,1,.258,1.688,15.856,15.856,0,0,0,.047,1.734q.07.844.07,1.711v1.758a9.014,9.014,0,0,0,1.125.023,6.779,6.779,0,0,1,1.125.047l1.1.141a3.146,3.146,0,0,1,1.008.3,1.231,1.231,0,0,0,.117.188.515.515,0,0,1,.094.211,1.086,1.086,0,0,1,.023.211v.234l-.234.469a1.232,1.232,0,0,0-.187.117.515.515,0,0,1-.211.094l-.234.047a1.317,1.317,0,0,1-.258.023,7.917,7.917,0,0,1-.844-.141,3.986,3.986,0,0,0-.867-.094q-.445,0-.867-.023t-.891-.023V-.75h.469q.469-.047.914-.07t.914-.023a5.853,5.853,0,0,0,.914-.07,3.564,3.564,0,0,1,.914-.023l.609.281a1.231,1.231,0,0,0,.117.188.515.515,0,0,1,.094.211,1.086,1.086,0,0,1,.023.211V.188l-.234.469a2.467,2.467,0,0,1-1.008.258l-1.078.047-1.1.047q-.562.023-1.078.07h-5.906ZM-45.7,1.125l-.469-.234A2.894,2.894,0,0,1-46.5.375q-.141-.281-.281-.539a4.69,4.69,0,0,1-.258-.562,3.02,3.02,0,0,1-.164-.586h-.187q-1.031.234-2.086.422t-2.109.445a16.358,16.358,0,0,1-2.156.375,20.424,20.424,0,0,0-2.18.352,1.286,1.286,0,0,0-.164-.07q-.07-.023-.164-.047a.521.521,0,0,1-.164-.07A1.532,1.532,0,0,0-56.578,0,1.231,1.231,0,0,0-56.7-.187.515.515,0,0,1-56.789-.4a1.192,1.192,0,0,1-.023-.234V-.891A12.252,12.252,0,0,1-56.227-2.6q.352-.82.68-1.664t.68-1.687q.352-.844.633-1.687h-1.453l-1.172.094a1.541,1.541,0,0,0-.375-.047,2.489,2.489,0,0,1-.352-.023,1.3,1.3,0,0,1-.328-.094.973.973,0,0,1-.3-.211,1.231,1.231,0,0,0-.117-.187.515.515,0,0,1-.094-.211,1.192,1.192,0,0,1-.023-.234v-.258l.234-.469a1.231,1.231,0,0,0,.188-.117.515.515,0,0,1,.211-.094,1.192,1.192,0,0,1,.234-.023h.258l1.313.094a4.211,4.211,0,0,1,.914-.094h.984q.492,0,.961-.047l.938-.094v-3.75h-.187a1.741,1.741,0,0,1-.3.07,2.489,2.489,0,0,1-.352.023h-.7l-.844-.094a1.741,1.741,0,0,1-.3.07,2.489,2.489,0,0,1-.352.023h-.7a1.286,1.286,0,0,0-.164-.07q-.07-.023-.164-.047a.521.521,0,0,1-.164-.07,1.532,1.532,0,0,0-.164-.094,1.232,1.232,0,0,0-.117-.187.515.515,0,0,1-.094-.211,1.086,1.086,0,0,1-.023-.211v-.234l.234-.469a.9.9,0,0,1,.656-.211,3.728,3.728,0,0,0,.727-.023q.352-.047.727-.07t.8-.023a1.286,1.286,0,0,0,.164.07.61.61,0,0,0,.188.023h.4l.656-.094q0-.469-.023-.961a4.894,4.894,0,0,1,.047-.961q.07-.469.094-.937a1.727,1.727,0,0,1,.258-.844,1.231,1.231,0,0,0,.188-.117.515.515,0,0,1,.211-.094,1.087,1.087,0,0,1,.211-.023h.234l.469.234a.892.892,0,0,1,.164.234,1.044,1.044,0,0,1,.094.258,1.456,1.456,0,0,1,.023.281v.3q-.047.328-.094.633a4.322,4.322,0,0,0-.047.656v1.336l1.031.188a7.718,7.718,0,0,0,1.031.117q.516.023,1.078,0a1.607,1.607,0,0,1,.984.258,1.231,1.231,0,0,0,.117.188.516.516,0,0,1,.094.211,1.086,1.086,0,0,1,.023.211v.234l-.234.469a1.4,1.4,0,0,1-.4.211,1.4,1.4,0,0,1-.445.07h-.984a3.416,3.416,0,0,0-.562-.047,3.009,3.009,0,0,1-.539-.047q-.258-.047-.539-.094a3.416,3.416,0,0,0-.562-.047v3.656l4.781.094.469-.047.469.234a1.231,1.231,0,0,0,.117.188.917.917,0,0,1,.117.211.688.688,0,0,1,.047.258v.281l-.234.469a1.08,1.08,0,0,1-.633.258q-.352.023-.727.023h-1.5q-.562-.047-1.1-.07t-1.125-.023h-2.273a8.882,8.882,0,0,0-.7,1.453q-.281.75-.586,1.5t-.633,1.477q-.328.727-.609,1.477h.188q.844-.094,1.641-.187a7.406,7.406,0,0,0,1.547-.352,5.83,5.83,0,0,1,1.57-.3A5.308,5.308,0,0,0-48-3.047v-.141q-.094-.281-.211-.562a5.715,5.715,0,0,0-.258-.539,5.715,5.715,0,0,1-.258-.539,1.138,1.138,0,0,1-.07-.609l.234-.469a1.231,1.231,0,0,0,.188-.117.515.515,0,0,1,.211-.094,1.086,1.086,0,0,1,.211-.023h.234l.469.234q.422.75.773,1.547t.656,1.594q.3.8.656,1.57A8.19,8.19,0,0,1-44.625.422l-.234.469a1.231,1.231,0,0,0-.187.117.515.515,0,0,1-.211.094,1.086,1.086,0,0,1-.211.023ZM-62.859.8l-.469-.234a1.231,1.231,0,0,0-.117-.187.515.515,0,0,1-.094-.211,1.192,1.192,0,0,1-.023-.234V-.328q.234-.562.422-1.148a5.381,5.381,0,0,1,.492-1.1q.3-.516.586-1.055a8.4,8.4,0,0,1,.656-1.055,1.231,1.231,0,0,0,.188-.117.917.917,0,0,1,.211-.117.627.627,0,0,1,.234-.047h.258l.469.234a1.231,1.231,0,0,0,.117.188.515.515,0,0,1,.094.211,1.086,1.086,0,0,1,.023.211v.234q-.281.563-.586,1.1l-.609,1.078A5.781,5.781,0,0,0-61.5-.562,4.608,4.608,0,0,1-62.016.563,1.231,1.231,0,0,0-62.2.68a.515.515,0,0,1-.211.094A1.086,1.086,0,0,1-62.625.8Zm2.3-9.234a2.932,2.932,0,0,1-.633-.375,6.017,6.017,0,0,1-.586-.516,6.017,6.017,0,0,0-.586-.516q-.3-.234-.586-.469l-.7-.609a1.231,1.231,0,0,0-.117-.187.515.515,0,0,1-.094-.211,1.086,1.086,0,0,1-.023-.211v-.234l.234-.469a1.231,1.231,0,0,0,.188-.117.515.515,0,0,1,.211-.094,1.193,1.193,0,0,1,.234-.023h.258l.656.375.422.422v.094l1.922,1.5a1.231,1.231,0,0,0,.117.188.917.917,0,0,1,.117.211.627.627,0,0,1,.047.234v.258l-.234.469a.735.735,0,0,0-.187.141.408.408,0,0,1-.211.117,1.086,1.086,0,0,1-.211.023Zm.844-5.25-.8-.516a5.157,5.157,0,0,0-.492-.516q-.258-.234-.539-.445t-.562-.445a6.594,6.594,0,0,0-.562-.422.588.588,0,0,0-.141-.234.892.892,0,0,1-.164-.234.624.624,0,0,1-.07-.281v-.281l.234-.469a1.231,1.231,0,0,0,.188-.117.515.515,0,0,1,.211-.094,1.087,1.087,0,0,1,.211-.023h.234l.469.234v.094h.094l2.438,2.109a.735.735,0,0,0,.141.188.588.588,0,0,1,.141.234.821.821,0,0,1,.047.258v.258l-.234.469a1.232,1.232,0,0,0-.187.117.515.515,0,0,1-.211.094,1.086,1.086,0,0,1-.211.023ZM-37.687.469l-.469-.234A.626.626,0,0,0-38.273.07a.253.253,0,0,1-.07-.187.465.465,0,0,0-.047-.211.416.416,0,0,1-.047-.187,26.6,26.6,0,0,1,1.8-4.43q1.1-2.133,2.18-4.312t2.25-4.289l2.344-4.219a1.232,1.232,0,0,0,.188-.117.515.515,0,0,1,.211-.094A1.087,1.087,0,0,1-29.25-18h.234l.469.234a1.231,1.231,0,0,0,.117.188.515.515,0,0,1,.094.211,1.193,1.193,0,0,1,.023.234v.258q-.328.75-.727,1.5t-.844,1.477q-.445.727-.867,1.453a8.977,8.977,0,0,0-.7,1.523l.141.094.188.188.7.938q.516.609,1.008,1.242t.961,1.242q.469.609.961,1.219t.961,1.219l2.344,2.766.516.563v.094h.094q.094.141.188.258a2.133,2.133,0,0,1,.164.234.537.537,0,0,1,.07.281q0,.164,0,.3l-.234.469A1.231,1.231,0,0,0-23.578.3.515.515,0,0,1-23.789.4a1.192,1.192,0,0,1-.234.023h-.258L-24.75.188l-.375-.562-.234-.141q-.891-1.078-1.781-2.109t-1.734-2.133q-.844-1.1-1.711-2.18t-1.758-2.2h-.094q-.609,1.172-1.2,2.344T-34.8-4.477q-.586,1.148-1.1,2.344T-36.844.234a1.231,1.231,0,0,0-.187.117.515.515,0,0,1-.211.094,1.086,1.086,0,0,1-.211.023Zm51.7,1.125a7.918,7.918,0,0,0-.844-.141q-.422-.047-.844-.07l-.844-.047q-.422-.023-.891-.023-.328.047-.656.07t-.633.07a4.322,4.322,0,0,1-.656.047h-.68l-.047-.047H2.25L1.078,1.406.75,1.453a2,2,0,0,0-.633-.094H-1.969l-.937.047a1.286,1.286,0,0,0-.164-.07q-.07-.023-.164-.047a.521.521,0,0,1-.164-.07,1.532,1.532,0,0,0-.164-.094A1.231,1.231,0,0,0-3.68.938.515.515,0,0,1-3.773.727,1.086,1.086,0,0,1-3.8.516V.281l.234-.469a1.9,1.9,0,0,1,.938-.234q.516,0,1.031-.023T-.562-.469H.469l.563.094L2.2-.422l.422.047V-.516L2.484-1.641l-.75-.047a.735.735,0,0,1-.187.141.916.916,0,0,1-.187.07.871.871,0,0,1-.211.023H.938L.469-1.687a1.437,1.437,0,0,1-.141-.258,2.95,2.95,0,0,1-.094-.281,1.189,1.189,0,0,1-.047-.328v-.3a9.325,9.325,0,0,0,.141-.984,9.325,9.325,0,0,1,.141-.984Q.563-5.3.68-5.789a2,2,0,0,1,.445-.867,1.261,1.261,0,0,1,.844-.258q.469.023.938,0t.938-.023h.938a14.244,14.244,0,0,0,1.664.094q.867,0,1.711.023T9.844-6.8a2.73,2.73,0,0,1,1.547.469,2.1,2.1,0,0,1,.258.938,4.053,4.053,0,0,0,.164.984A4.978,4.978,0,0,1,12-3.445q.047.492.094,1.008l-.234.469a1.231,1.231,0,0,0-.187.117.515.515,0,0,1-.211.094,1.192,1.192,0,0,1-.234.023h-.258a1.3,1.3,0,0,1-.258-.117.492.492,0,0,0-.258-.07H9.891a.832.832,0,0,1-.094.375q-.094.188-.164.352a1.319,1.319,0,0,0-.094.375,3.016,3.016,0,0,1-.07.4H9.75l2.109-.094a4.321,4.321,0,0,1,.8.07,6.155,6.155,0,0,0,.773.094q.4.023.8.07A1.541,1.541,0,0,1,14.953,0a1.231,1.231,0,0,0,.117.188A.515.515,0,0,1,15.164.4a1.086,1.086,0,0,1,.023.211V.844l-.234.469q-.094.047-.211.117a.737.737,0,0,1-.234.094l-.234.047A1.317,1.317,0,0,1,14.016,1.594ZM7.594-.422l.281-1.5H7.406a2.64,2.64,0,0,1-.727.094h-.82q-.422,0-.8.023t-.75.023v.141L4.453-.375H7.547ZM10.078-3.75v-.141L9.844-4.922,3.328-5.109l-.937.094L2.3-4.641a3.493,3.493,0,0,0-.07.352q-.023.164-.047.375a3.616,3.616,0,0,0-.023.4h.938A15.482,15.482,0,0,1,4.8-3.609q.867,0,1.758-.047t1.758-.07Q9.187-3.75,10.078-3.75Zm3.563-3.281L7.688-7.547l-3.7.141A9.563,9.563,0,0,0,2.32-7.547q-.867,0-1.711-.023t-1.687-.023a3.933,3.933,0,0,1-1.594-.328,1.231,1.231,0,0,0-.117-.187.515.515,0,0,1-.094-.211,1.192,1.192,0,0,1-.023-.234v-.258l.234-.469a.7.7,0,0,1,.328-.187,1.638,1.638,0,0,1,.4-.047h.82q.844.047,1.688.07t1.711.023a14.856,14.856,0,0,1,1.688.094,10.293,10.293,0,0,0,1.711.047l2.766-.141q.8.094,1.57.164t1.547.164q.773.094,1.594.117a4.409,4.409,0,0,1,1.523.3.821.821,0,0,0,.117.234.515.515,0,0,1,.094.211,1.086,1.086,0,0,1,.023.211v.234l-.234.469q-.094.047-.211.117A.729.729,0,0,1,14.2-7.1l-.281.047A1.708,1.708,0,0,1,13.641-7.031ZM10.078-9.562Q8.625-9.75,7.125-9.8t-2.977-.07q-1.477-.023-2.953,0a9.451,9.451,0,0,1-2.883-.4,1.89,1.89,0,0,1-.164-.3.883.883,0,0,1-.07-.352v-.75q.141-.75.211-1.547t.188-1.57l.234-1.547a6.64,6.64,0,0,1,.4-1.477l.141-.094.188-.375a1.031,1.031,0,0,1,.422-.187,2.385,2.385,0,0,1,.469-.047h.984l1.453.188v-.937a1.2,1.2,0,0,1,.07-.422,1.516,1.516,0,0,1,.211-.375,1.231,1.231,0,0,0,.188-.117.515.515,0,0,1,.211-.094,1.087,1.087,0,0,1,.211-.023h.234l.469.234a1.031,1.031,0,0,1,.188.422,2.505,2.505,0,0,1,.047.492v.516a2.505,2.505,0,0,0,.047.492L7.125-18q.047-.234.07-.469t.047-.445a1.423,1.423,0,0,1,.117-.422,2.05,2.05,0,0,1,.234-.4,1.232,1.232,0,0,0,.188-.117.515.515,0,0,1,.211-.094,1.087,1.087,0,0,1,.211-.023h.234l.469.234a1.231,1.231,0,0,0,.117.188.515.515,0,0,1,.094.211,1.193,1.193,0,0,1,.023.234v.258l-.187.938.844.094.844.094a3.3,3.3,0,0,1,.8.188,7.807,7.807,0,0,1,.75.328,6.574,6.574,0,0,1,.352,1.664q.07.867.117,1.734t.094,1.711q.047.844.094,1.734l-.281.516a1.12,1.12,0,0,1-.539.234,4.158,4.158,0,0,1-.633.047H10.078Zm.891-1.828v-.234L10.875-12.7a2.634,2.634,0,0,0-.516-.047H9.82a1.7,1.7,0,0,1-.492-.07,1.789,1.789,0,0,0-.516-.07v1.359Zm-3.984-.234v-1.312a1.443,1.443,0,0,0-.539-.094H5.813q-.328,0-.633-.023t-.586-.023v.328l.094,1.078Zm-4.125-.094v-.328l-.094-1.219q-.328,0-.68.023a2.245,2.245,0,0,1-.656-.047,2.915,2.915,0,0,0-.656-.07H.094l-.141,1.641Zm7.922-2.859v-.094L10.641-15.8a.686.686,0,0,0-.422-.141,2.048,2.048,0,0,1-.445-.047,2.048,2.048,0,0,0-.445-.047,1.743,1.743,0,0,1-.422-.047.378.378,0,0,0-.117.328,1.323,1.323,0,0,1,0,.352,2.317,2.317,0,0,0-.023.328v.352a2.634,2.634,0,0,1,.516.047q.234.047.469.07t.516.023Zm-3.844-.281v-.422l.094-.891-2.391-.141-.047,1.406Zm-4.172-.234v-.75l.047-.562a.983.983,0,0,0-.516-.141,3.416,3.416,0,0,1-.562-.047l-.562-.094a1.7,1.7,0,0,0-.562,0l-.234,1.5a1.989,1.989,0,0,1,.609,0q.281.047.563.07t.609.023ZM32.625,1.828l-.469-.234A1.107,1.107,0,0,1,31.9.938q-.023-.375-.047-.727T31.8-.516q-.023-.375-.023-.75-.516,0-1.031-.023T29.7-1.359l-1.055-.094a5.684,5.684,0,0,0-1.031,0,1.718,1.718,0,0,1-.328.07,2.843,2.843,0,0,1-.352.023H26.2a1.286,1.286,0,0,0-.164-.07q-.07-.023-.164-.047a.521.521,0,0,1-.164-.07,1.532,1.532,0,0,0-.164-.094,1.231,1.231,0,0,0-.117-.187.515.515,0,0,1-.094-.211,1.086,1.086,0,0,1-.023-.211v-.234l.234-.469a.948.948,0,0,1,.75-.234,3.6,3.6,0,0,0,.82,0q.4-.047.82-.07t.844-.023l2.859.188V-5.016l-2.2-.094-.8.047a1.286,1.286,0,0,0-.164-.07q-.07-.023-.164-.047a.521.521,0,0,1-.164-.07,1.532,1.532,0,0,0-.164-.094,1.231,1.231,0,0,0-.117-.187.515.515,0,0,1-.094-.211,1.086,1.086,0,0,1-.023-.211v-.234l.234-.469a.936.936,0,0,1,.516-.211q.281-.023.586-.023t.586-.023q.281-.023.656-.023l1.219.094V-8.484h-.094l-4.125.094-.469-.281a1.231,1.231,0,0,0-.117-.187.515.515,0,0,1-.094-.211,1.086,1.086,0,0,1-.023-.211v-.234l.234-.469a1.674,1.674,0,0,1,1.055-.3,9.78,9.78,0,0,0,1.172-.023,10.108,10.108,0,0,1,1.2-.023,9.648,9.648,0,0,0,1.172-.023l.047-1.219q-.562-.047-1.125-.047T29.3-11.672q-.516-.047-1.078-.047H27.094l-.516.047a1.541,1.541,0,0,0-.375-.047h-.4a.944.944,0,0,1-.375-.07,1.89,1.89,0,0,1-.3-.164,1.232,1.232,0,0,0-.117-.187.515.515,0,0,1-.094-.211,1.086,1.086,0,0,1-.023-.211V-12.8l.234-.469q.141-.094.3-.187a.7.7,0,0,1,.352-.094h.75l.516.047,2.156-.047,2.3.141v-1.828l-1.312-.094-2.437.141-.469-.234a1.232,1.232,0,0,0-.117-.187.515.515,0,0,1-.094-.211,1.086,1.086,0,0,1-.023-.211v-.234l.234-.469a1.257,1.257,0,0,1,.773-.3l.891-.047q.445-.023.938-.023a8.3,8.3,0,0,0,.914-.047l.75.094v-.562q0-.281.023-.539t.07-.516a.825.825,0,0,1,.234-.445,1.232,1.232,0,0,0,.188-.117.515.515,0,0,1,.211-.094,1.087,1.087,0,0,1,.211-.023h.234l.469.234a1.231,1.231,0,0,0,.117.188.515.515,0,0,1,.094.211,1.192,1.192,0,0,1,.023.234v.258l-.047,1.266q.563.047,1.1.117t1.078.117l1.078.094a2.327,2.327,0,0,1,1.008.328q.047.094.117.211a.737.737,0,0,1,.094.234,1.317,1.317,0,0,1,.023.258v.281l-.047.422q.047.234.094.445a1.94,1.94,0,0,1,.047.422q0,.211,0,.469a1.854,1.854,0,0,0,.047.445q.328.047.68.07t.68.023a3.124,3.124,0,0,1,.656.07,1.751,1.751,0,0,1,.609.258,1.231,1.231,0,0,0,.117.188.515.515,0,0,1,.094.211,1.192,1.192,0,0,1,.023.234v.258l-.234.469a1.231,1.231,0,0,0-.187.117.515.515,0,0,1-.211.094,1.086,1.086,0,0,1-.211.023H39.8a.879.879,0,0,0-.4-.094h-.422a3.216,3.216,0,0,1-.4-.023,3.427,3.427,0,0,0-.422-.023v.7L38.2-9.7l-.234.469-.187.094A.307.307,0,0,0,37.641-9a1.532,1.532,0,0,1-.094.164,1.532,1.532,0,0,0-.094.164,1.09,1.09,0,0,1-.211.164.737.737,0,0,1-.234.094,1.192,1.192,0,0,1-.234.023h-.258a1.766,1.766,0,0,0-.7-.141h-2.25l-.187.047v1.641q.422,0,.8.023t.773.023q.4,0,.8.023a1.136,1.136,0,0,1,.68.258,1.231,1.231,0,0,0,.117.188.515.515,0,0,1,.094.211,1.086,1.086,0,0,1,.023.211v.234l-.234.469a1.232,1.232,0,0,0-.187.117.515.515,0,0,1-.211.094q-.117.023-.211.047a.986.986,0,0,1-.234.023l-2.109-.094v1.828l.047.141L37.969-3l.844-.047.469.234a1.231,1.231,0,0,0,.117.188.515.515,0,0,1,.094.211,1.086,1.086,0,0,1,.023.211q0,.094,0,.234l-.234.469a1.806,1.806,0,0,1-.937.3q-.516.023-1.031.023H35.2l-1.594-.047v.328L33.7,1.125l-.234.469a1.231,1.231,0,0,0-.187.117.515.515,0,0,1-.211.094,1.086,1.086,0,0,1-.211.023ZM20.531.047l-.469-.234a1.231,1.231,0,0,0-.117-.187.515.515,0,0,1-.094-.211,1.192,1.192,0,0,1-.023-.234v-.258q.234-.516.492-.984t.539-.914a6.68,6.68,0,0,0,.492-.937,5.353,5.353,0,0,1,.539-.961,1.231,1.231,0,0,0,.188-.117.917.917,0,0,1,.211-.117.627.627,0,0,1,.234-.047h.258l.469.234a1.231,1.231,0,0,0,.117.188.515.515,0,0,1,.094.211,1.086,1.086,0,0,1,.023.211v.234q-.234.516-.469,1.008a8.348,8.348,0,0,1-.539.961q-.3.469-.562.961t-.539.961a1.231,1.231,0,0,0-.187.117.515.515,0,0,1-.211.094,1.086,1.086,0,0,1-.211.023Zm2.063-9.234a2.288,2.288,0,0,1-.68-.4,3.188,3.188,0,0,0-.633-.422,7.316,7.316,0,0,0-.7-.3,4.839,4.839,0,0,1-.7-.328,1.231,1.231,0,0,0-.117-.187.515.515,0,0,1-.094-.211,1.086,1.086,0,0,1-.023-.211v-.234l.234-.469a1.231,1.231,0,0,0,.188-.117.515.515,0,0,1,.211-.094,1.193,1.193,0,0,1,.234-.023h.258a2.152,2.152,0,0,1,.539.164l.516.234a4.883,4.883,0,0,1,.492.258l.469.281.609.469a1.231,1.231,0,0,0,.117.188.917.917,0,0,1,.117.211.627.627,0,0,1,.047.234v.258l-.234.469a1.231,1.231,0,0,0-.187.117.515.515,0,0,1-.211.094,1.086,1.086,0,0,1-.211.023Zm13.781-1.219V-10.5l-.047-.844q-.375,0-.75-.023a5.427,5.427,0,0,1-.727-.094,2.936,2.936,0,0,0-.75-.047q-.4.023-.773.023v1.125h.188l2.766-.047.047.047Zm-.234-2.766V-14.3l-.094-.609h-.7A2.379,2.379,0,0,1,34.688-15a2.462,2.462,0,0,0-.68-.094,4.8,4.8,0,0,1-.68-.047v1.828h.727q.352,0,.7.023a4.747,4.747,0,0,1,.68.094A2.1,2.1,0,0,0,36.141-13.172ZM23.3-14.531a1.973,1.973,0,0,1-.773-.492,5.183,5.183,0,0,0-.727-.609q-.375-.258-.773-.492a8.314,8.314,0,0,1-.773-.516,1.232,1.232,0,0,0-.117-.187.515.515,0,0,1-.094-.211,1.086,1.086,0,0,1-.023-.211v-.234l.234-.469a1.231,1.231,0,0,0,.188-.117.515.515,0,0,1,.211-.094,1.193,1.193,0,0,1,.234-.023h.258l1.969,1.172.844.75a.5.5,0,0,0,.164.234.692.692,0,0,1,.188.234.624.624,0,0,1,.07.281v.281l-.234.469a1.232,1.232,0,0,0-.187.117.515.515,0,0,1-.211.094,1.086,1.086,0,0,1-.211.023ZM59.391,2.016q-.469-.094-.937-.164a5.973,5.973,0,0,1-.914-.211,2.282,2.282,0,0,1-.82-.469l-.75-.656a3.489,3.489,0,0,1-.75-1.266,5.655,5.655,0,0,1-.281-1.43q-.047-.727-.07-1.5T54.8-5.2l.234-.469a1.231,1.231,0,0,0,.188-.117.515.515,0,0,1,.211-.094,1.086,1.086,0,0,1,.211-.023h.234l.469.234A2.1,2.1,0,0,1,56.7-4.406a13.535,13.535,0,0,0,.023,1.383q.047.68.141,1.336a1.836,1.836,0,0,0,.609,1.125,2.3,2.3,0,0,0,.539.4,1.9,1.9,0,0,0,.656.211q.352.047.68.094a4.978,4.978,0,0,0,.7.047.529.529,0,0,1,.375-.047A.618.618,0,0,0,60.8.117,3.452,3.452,0,0,1,61.172,0a.762.762,0,0,1,.375,0l.469.234a1.231,1.231,0,0,0,.117.188.515.515,0,0,1,.094.211,1.192,1.192,0,0,1,.023.234q0,.117,0,.258l-.234.469a2.243,2.243,0,0,1-.586.281,2.221,2.221,0,0,1-.656.094q-.352,0-.68.023T59.391,2.016ZM48.188,1.5a1.286,1.286,0,0,0-.164-.07q-.07-.023-.164-.047a.521.521,0,0,1-.164-.07,1.532,1.532,0,0,0-.164-.094,1.231,1.231,0,0,0-.117-.187A.515.515,0,0,1,47.32.82,1.086,1.086,0,0,1,47.3.609V.375q.375-.8.773-1.594t.844-1.57q.445-.773.914-1.547t.984-1.523A1.231,1.231,0,0,0,51-5.977a.917.917,0,0,1,.211-.117.627.627,0,0,1,.234-.047H51.7l.469.234a1.231,1.231,0,0,0,.117.188.515.515,0,0,1,.094.211,1.086,1.086,0,0,1,.023.211v.234q-.422.8-.914,1.547t-.937,1.547q-.445.8-.844,1.594t-.82,1.594a1.532,1.532,0,0,0-.164.094,1.532,1.532,0,0,1-.164.094.416.416,0,0,1-.187.047A.416.416,0,0,0,48.188,1.5ZM60.141-6.422a9.435,9.435,0,0,1-1.758-.164q-.867-.164-1.734-.258t-1.781-.141q-.914-.047-1.852-.047l-.7.094a1.286,1.286,0,0,0-.164-.07q-.07-.023-.164-.047a.521.521,0,0,1-.164-.07,1.532,1.532,0,0,0-.164-.094l-.141-.141q-.094-.141-.164-.258a.537.537,0,0,1-.07-.281v-.633q.188-1.266.258-2.555t.164-2.531q.094-1.242.164-2.531a5.334,5.334,0,0,1,.68-2.367.7.7,0,0,1,.328-.187,3.493,3.493,0,0,1,.352-.07A2.676,2.676,0,0,1,53.6-18.8h.445a11.222,11.222,0,0,0,1.641.258q.844.07,1.641.211t1.594.3a10.332,10.332,0,0,1,1.547.445,10.372,10.372,0,0,1,.375,2.414q.047,1.242.211,2.461t.234,2.461q.07,1.242.164,2.508l-.469.891-.141.141a1.532,1.532,0,0,0-.164.094,1.532,1.532,0,0,1-.164.094.416.416,0,0,1-.187.047A.416.416,0,0,0,60.141-6.422Zm-12-.047L47.672-6.7a1.1,1.1,0,0,1-.234-.492,3.15,3.15,0,0,1-.047-.562V-9q.047-1.125.07-2.273t.094-2.273a22.434,22.434,0,0,0,.023-2.3,5.2,5.2,0,0,1,.375-2.2,1.231,1.231,0,0,0,.188-.117.515.515,0,0,1,.211-.094,1.087,1.087,0,0,1,.211-.023H48.8l.469.234a1.231,1.231,0,0,0,.117.188.515.515,0,0,1,.094.211,1.192,1.192,0,0,1,.023.234v.258q-.094,1.313-.117,2.625t-.094,2.6q-.07,1.289-.047,2.648A10.618,10.618,0,0,1,48.984-6.7a1.231,1.231,0,0,0-.187.117.515.515,0,0,1-.211.094,1.086,1.086,0,0,1-.211.023ZM59.578-8.3v-.656l-.187-2.2a10.862,10.862,0,0,0-1.453-.281q-.75-.094-1.5-.141t-1.5-.141q-.75-.094-1.547-.141L53.2-8.906a11.655,11.655,0,0,1,1.664.023l1.57.141a13.116,13.116,0,0,1,1.57.234A10.539,10.539,0,0,0,59.578-8.3ZM59.2-13.078v-.094q-.047-.375-.094-.727t-.07-.727q-.023-.375-.023-.773a1.826,1.826,0,0,0-.141-.727l-1.219-.281a10.846,10.846,0,0,0-1.242-.211l-1.289-.141q-.656-.07-1.312-.164a4.321,4.321,0,0,1-.07.8q-.07.375-.117.8a7.429,7.429,0,0,0-.047.82,7.429,7.429,0,0,1-.047.82q.75.047,1.453.141t1.406.141l1.406.094A7.343,7.343,0,0,1,59.2-13.078ZM82.688,1.406a6.792,6.792,0,0,1-.961-.07q-.492-.07-.961-.094L79.8,1.2q-.492-.023-1.008-.023l-.75.094-1.312-.047-1.125.047q-.422-.047-.844-.07t-.844-.07a7.849,7.849,0,0,0-.867-.047h-.867a6.039,6.039,0,0,0-.609.117,2.508,2.508,0,0,1-.609.07,4.158,4.158,0,0,0-.633.047,4.158,4.158,0,0,1-.633.047,1.286,1.286,0,0,0-.164-.07q-.07-.023-.164-.047a.521.521,0,0,1-.164-.07,1.532,1.532,0,0,0-.164-.094A1.231,1.231,0,0,0,68.93.891.515.515,0,0,1,68.836.68a1.086,1.086,0,0,1-.023-.211V.234l.234-.469a2.519,2.519,0,0,1,1.125-.3,9.989,9.989,0,0,0,1.2-.117,7.554,7.554,0,0,1,1.2-.094h1.219a3.3,3.3,0,0,0,.7.117q.375.023.727.023t.727.023q.375.023.75.023L77.2-.609v-.8h-.891l-1.219.141a1.541,1.541,0,0,0-.375-.047h-.4a.944.944,0,0,1-.375-.07,1.89,1.89,0,0,1-.3-.164,1.231,1.231,0,0,0-.117-.187.515.515,0,0,1-.094-.211,1.086,1.086,0,0,1-.023-.211v-.234l.234-.469q.141-.094.3-.187a.7.7,0,0,1,.352-.094h.75l.328.047,1.781-.141v-.656H74.531a3.016,3.016,0,0,1-.4.07.647.647,0,0,0-.352.141.647.647,0,0,1-.352.141,3.016,3.016,0,0,0-.4.07,1.286,1.286,0,0,0-.164-.07q-.07-.023-.164-.047a.521.521,0,0,1-.164-.07,1.532,1.532,0,0,0-.164-.094l-.187-.422h-.094a1.437,1.437,0,0,1-.141-.258,2.95,2.95,0,0,1-.094-.281,1.189,1.189,0,0,1-.047-.328v-.3a8.846,8.846,0,0,0,.258-1.43q.07-.727.188-1.453t.211-1.453a2.987,2.987,0,0,1,.516-1.336l.375-.187V-11.3q.141-.094.258-.164a.492.492,0,0,1,.258-.07h.609q.328.047.633.07t.609.07a4.158,4.158,0,0,0,.633.047h.656l1.969-.047q.563.047,1.148.047a8.7,8.7,0,0,1,1.125.07q.539.07,1.055.188a3.344,3.344,0,0,1,.984.4,5.3,5.3,0,0,1,.469,1.43q.141.773.281,1.5T84.3-6.3a9.561,9.561,0,0,1,.117,1.523l-.234.469a3.208,3.208,0,0,1-1.219.328q-.656.047-1.312.047t-1.312.047q-.656.047-1.312.047v.563h2.906l.422-.047.516.281a1.231,1.231,0,0,0,.117.188.515.515,0,0,1,.094.211,1.086,1.086,0,0,1,.023.211V-2.2l-.234.469a1.406,1.406,0,0,1-.867.281h-2.93v.8q.563,0,1.1.023t1.055.094q.516.07,1.055.094t1.1.023q.328-.047.633-.07t.633-.023h1.313a.465.465,0,0,0,.211.047,1.192,1.192,0,0,1,.234.023.515.515,0,0,1,.211.094,1.231,1.231,0,0,0,.188.117,1.231,1.231,0,0,0,.117.188.515.515,0,0,1,.094.211,1.086,1.086,0,0,1,.023.211V.609l-.234.469a1.231,1.231,0,0,0-.187.117.515.515,0,0,1-.211.094l-.234.047a1.317,1.317,0,0,1-.258.023L84,1.313ZM77.063-5.719V-6.7h-.82a4.189,4.189,0,0,1-.773-.07,4.189,4.189,0,0,0-.773-.07h-.82l-.141,1.219h.281a3.082,3.082,0,0,1,.75-.094h2.3ZM82.5-5.766v-.281l-.047-.281a5.415,5.415,0,0,1-.891-.07l-.844-.141a4.149,4.149,0,0,0-.891-.047q-.469.023-.891.023v.891h.938Zm-.375-2.391V-8.3l-.234-.984q-.328-.094-.68-.164a3.7,3.7,0,0,0-.727-.07h-1.5v1.125H80.6a2.357,2.357,0,0,1,.75.117A2.434,2.434,0,0,0,82.125-8.156Zm-5.016-.375v-.984h-.68a4.8,4.8,0,0,1-.68-.047q-.328-.047-.68-.07t-.68-.07a.42.42,0,0,0-.117.234q-.023.141-.047.258a1.192,1.192,0,0,0-.023.234.821.821,0,0,1-.047.258h.75a2.549,2.549,0,0,1,.7.094,2.64,2.64,0,0,0,.727.094,5.162,5.162,0,0,1,.727.047Zm-8.484-3.281-.469-.234a1.232,1.232,0,0,0-.117-.187.515.515,0,0,1-.094-.211,1.086,1.086,0,0,1-.023-.211v-.234l.234-.469a3.152,3.152,0,0,1,1.43-.328,9.854,9.854,0,0,0,1.523-.117l1.5-.234a7.241,7.241,0,0,1,1.547-.07v-.609L74.109-15.8l.047-.141a4.712,4.712,0,0,1-.82-.07,4.712,4.712,0,0,0-.82-.07q-.422,0-.82-.023a1.365,1.365,0,0,1-.727-.258,1.232,1.232,0,0,0-.117-.187.515.515,0,0,1-.094-.211,1.086,1.086,0,0,1-.023-.211V-17.2l.234-.469a1.034,1.034,0,0,1,.4-.187,2.165,2.165,0,0,1,.469-.047H72.8a6.606,6.606,0,0,0,1.008.117q.539.023,1.078.023a7.29,7.29,0,0,1,1.031.07,4.7,4.7,0,0,0,1.055.023v-1.383a2.915,2.915,0,0,1,.07-.656A1.77,1.77,0,0,1,77.3-20.3a1.231,1.231,0,0,0,.188-.117.515.515,0,0,1,.211-.094,1.193,1.193,0,0,1,.234-.023h.258l.469.234a1.231,1.231,0,0,0,.117.188.515.515,0,0,1,.094.211,1.192,1.192,0,0,1,.023.234v.258l-.047,1.828h.8l2.953-.094a2.634,2.634,0,0,0,.516.047h.563q.281,0,.539.023a.7.7,0,0,1,.445.211,1.231,1.231,0,0,0,.117.188.515.515,0,0,1,.094.211,1.086,1.086,0,0,1,.023.211v.234l-.234.469a.7.7,0,0,1-.328.188q-.187.047-.4.094a1.84,1.84,0,0,1-.4.047h-.422l-2.062-.094v.375l.141,1.5,2.156.141q.375-.047.75-.07t.773-.023h1.57l.469.234a1.231,1.231,0,0,0,.117.188.515.515,0,0,1,.094.211,1.086,1.086,0,0,1,.023.211v.234l-.234.469a1.89,1.89,0,0,1-.3.164,1.3,1.3,0,0,1-.328.094,2.676,2.676,0,0,1-.375.023,1.126,1.126,0,0,0-.352.047l-1.5-.047L83.063-12q-.7-.047-1.406-.117t-1.43-.117q-.727-.047-1.453-.047H77.25l-1.125.094-.7-.047L75-12.187a1.376,1.376,0,0,0-.516-.094H72.8q-.516.094-1.008.188a10.264,10.264,0,0,1-1.031.141l-1.055.094Q69.188-11.812,68.625-11.812Zm10.734-2.3v-.562l-.141-1.078-2.156-.141-1.125.094v1.031l.047.7.656.047q.328-.047.656-.07t.68-.023h1.383ZM101.2,1.875l-.469-.234q-.047-.094-.117-.211a.729.729,0,0,1-.094-.258q-.023-.141-.047-.258a1.317,1.317,0,0,1-.023-.258,13.5,13.5,0,0,1,.234-1.945,13.555,13.555,0,0,0,.234-1.969q.047-1.008.164-1.992a11.341,11.341,0,0,1,.4-1.922h.094l.094-.234a1.293,1.293,0,0,1,.7-.281q.422-.047.8-.094a6.232,6.232,0,0,1,.773-.047h.82a1.851,1.851,0,0,0,.281.07q.141.023.3.047a2.317,2.317,0,0,0,.328.023h.3l2.438-.094a2.64,2.64,0,0,0,.727.094,2.64,2.64,0,0,1,.727.094,2.64,2.64,0,0,0,.727.094,1.027,1.027,0,0,1,.68.234A14.418,14.418,0,0,1,111.7-5.25q.141,1.031.234,2.063t.188,2.086q.094,1.055.141,2.086l-.234.469a3.417,3.417,0,0,1-1.336.3q-.727.023-1.477.023h-2.953l-2.437-.047-.234.047-.609-.047q-.187.047-.4.094a2.165,2.165,0,0,1-.469.047H101.2Zm-5.156-.141L95.578,1.5A1.592,1.592,0,0,1,95.3.727a8.5,8.5,0,0,1-.047-.891v-1.8l.094-4.641H95.25a4.078,4.078,0,0,1-.492.82,4.078,4.078,0,0,0-.492.82l-.375.844q-.187.422-.422.844a1.231,1.231,0,0,0-.187.117.515.515,0,0,1-.211.094,1.086,1.086,0,0,1-.211.023h-.234l-.469-.234a1.231,1.231,0,0,0-.117-.187.528.528,0,0,1-.094-.187q-.023-.094-.047-.211a1.086,1.086,0,0,1-.023-.211,12.216,12.216,0,0,1,1.219-2.484q.75-1.172,1.43-2.414t1.453-2.414q.773-1.172,1.523-2.3l-3.8-.094a.833.833,0,0,1-.234.07,1.243,1.243,0,0,0-.258.07.688.688,0,0,1-.258.047h-.281l-.469-.234a1.232,1.232,0,0,0-.117-.187.515.515,0,0,1-.094-.211,1.086,1.086,0,0,1-.023-.211v-.234l.234-.469a3.771,3.771,0,0,1,.68-.3,2.85,2.85,0,0,1,.727-.141q.375-.023.773-.023h.773V-15.7l-.281-2.906a1.286,1.286,0,0,0,.07-.164q.023-.07.047-.164a.521.521,0,0,1,.07-.164,1.532,1.532,0,0,0,.094-.164,1.231,1.231,0,0,0,.188-.117.515.515,0,0,1,.211-.094,1.087,1.087,0,0,1,.211-.023H96l.469.234a1.3,1.3,0,0,1,.258.867,4.894,4.894,0,0,0,.047.961q.07.469.117.938l.094.938a4.062,4.062,0,0,1,.75.07,3.172,3.172,0,0,0,.773.047,6.386,6.386,0,0,1,.773,0,1.107,1.107,0,0,1,.656.258q.047.094.117.211a1.64,1.64,0,0,1,.117.234.627.627,0,0,1,.047.234v.258l-.234.469q-.375.422-.75.891t-.727.961q-.352.492-.656.984t-.633.961V-9.8a5.818,5.818,0,0,0,.539.727l.609.7a8.217,8.217,0,0,1,.563.727,6.3,6.3,0,0,1,.445.75l.422.234q.094.141.164.258l.141.234a.537.537,0,0,1,.07.281v.3l-.234.469a1.232,1.232,0,0,0-.187.117.515.515,0,0,1-.211.094,1.086,1.086,0,0,1-.211.023h-.234l-.469-.234-.516-.516L97.172-6.8,97.078.516l.047.516-.234.469a1.231,1.231,0,0,0-.187.117.515.515,0,0,1-.211.094,1.086,1.086,0,0,1-.211.023ZM110.391-.047V-.234L110.2-2.25a2.826,2.826,0,0,1-.727,0q-.352-.047-.7-.07t-.727-.023h-.75v2.3Zm-4.922-.047V-2.3h-1.406l-.891.141L102.7-2.2,102.422,0h.094l1.031-.094.234.047Zm4.547-3.984v-.141l-.281-1.547a1.916,1.916,0,0,0-.609-.094,4.158,4.158,0,0,1-.633-.047,4.158,4.158,0,0,0-.633-.047H107.2v1.313l.047.469h1.406a3.028,3.028,0,0,1,.68.07A1.945,1.945,0,0,0,110.016-4.078Zm-4.594-.047v-.469l-.094-1.266-.469-.094A2.505,2.505,0,0,0,104.367-6h-1.008l-.281.047L102.8-4.031h.75q.234-.047.445-.07a4.271,4.271,0,0,1,.469-.023h.961ZM109.5-8.391a4.925,4.925,0,0,0-1.1-.164,6.513,6.513,0,0,1-1.125-.141,5.283,5.283,0,0,0-1.125-.117H105l-2.531.328-.516-.281a1.307,1.307,0,0,1-.211-.445,2.04,2.04,0,0,1-.07-.539v-1.078q.094-.469.141-.937t.07-.961a6.46,6.46,0,0,1,.117-.961,2.062,2.062,0,0,1,.375-.844,2.087,2.087,0,0,1,.586-.352,2.282,2.282,0,0,1,.68-.141,5.427,5.427,0,0,0,.727-.094,2.256,2.256,0,0,1,.727-.023,4.914,4.914,0,0,0,1.2.141h1.266a4.249,4.249,0,0,1,1.2.164,5.406,5.406,0,0,1,1.078.445,2.6,2.6,0,0,1,.352,1.242q.023.68.07,1.359a8.85,8.85,0,0,0,.188,1.313,6.145,6.145,0,0,1,.141,1.336l-.234.469a1.76,1.76,0,0,1-.187.164.515.515,0,0,1-.211.094,1.086,1.086,0,0,1-.211.023Zm-.891-2.016V-10.5q-.047-.281-.117-.586a2.806,2.806,0,0,1-.07-.633q0-.328-.023-.656t-.023-.656a2.952,2.952,0,0,0-.937-.141q-.516,0-1.008.023a3.929,3.929,0,0,1-.961-.07,5.011,5.011,0,0,0-.984-.094l-.656.141-.281,2.719h.188a3.255,3.255,0,0,1,.68-.117l.7-.047q.352-.023.7-.023h.727Zm1.547-5.531a2.679,2.679,0,0,0-.8-.164q-.422-.023-.844-.023h-1.687q-.281.047-.562.07t-.586.023q-.3,0-.586.023t-.562.023a.93.93,0,0,0-.422-.094H102.7l-.469.047a.916.916,0,0,0-.187-.07l-.187-.047a.521.521,0,0,1-.164-.07,1.532,1.532,0,0,0-.164-.094,1.232,1.232,0,0,0-.117-.187.515.515,0,0,1-.094-.211,1.086,1.086,0,0,1-.023-.211v-.234l.234-.469a.824.824,0,0,1,.609-.234q.375,0,.727-.023t.7-.023h.68l.75.094q.469-.047.984-.07t.984-.07a6.794,6.794,0,0,1,.984-.023q.516.023,1.031.023a2.505,2.505,0,0,0,.492.047q.258,0,.516.023a1.475,1.475,0,0,1,.469.117,2.05,2.05,0,0,1,.4.234,1.231,1.231,0,0,0,.117.188.515.515,0,0,1,.094.211,1.086,1.086,0,0,1,.023.211v.234l-.234.469a1.533,1.533,0,0,0-.164.094,1.532,1.532,0,0,1-.164.094.416.416,0,0,1-.187.047A.416.416,0,0,0,110.156-15.937Zm9.938,17.859a1.286,1.286,0,0,0-.164-.07q-.07-.023-.164-.047a.521.521,0,0,1-.164-.07,1.532,1.532,0,0,0-.164-.094,1.693,1.693,0,0,1-.281-.961q0-.539-.023-1.055t-.023-1.055q0-.539-.047-1.055l.047-4.219h-.094l-2.156,3.281a1.231,1.231,0,0,0-.187.117.917.917,0,0,1-.211.117.627.627,0,0,1-.234.047h-.258l-.469-.234a1.231,1.231,0,0,0-.117-.187.515.515,0,0,1-.094-.211,1.086,1.086,0,0,1-.023-.211v-.234q.656-1.172,1.43-2.3t1.477-2.32a16.254,16.254,0,0,1,1.594-2.25q.891-1.055,1.781-2.086a7.456,7.456,0,0,1-1.453-.047q-.7-.094-1.43-.141a11.639,11.639,0,0,0-1.477,0,2.483,2.483,0,0,1-1.359-.281,1.232,1.232,0,0,0-.117-.187.515.515,0,0,1-.094-.211,1.086,1.086,0,0,1-.023-.211v-.234l.234-.469a1.258,1.258,0,0,1,.75-.234h2.578l.188.047v-.141L119.2-18.7l.234-.469a1.231,1.231,0,0,0,.188-.117.515.515,0,0,1,.211-.094,1.087,1.087,0,0,1,.211-.023h.234l.469.234a1.523,1.523,0,0,1,.328.961q0,.539.023,1.078t.023,1.078q0,.539.047,1.055h.773a2.148,2.148,0,0,1,.727.117,3.3,3.3,0,0,0,.7.164,1.244,1.244,0,0,1,.656.281,1.231,1.231,0,0,0,.117.188.515.515,0,0,1,.094.211,1.086,1.086,0,0,1,.023.211v.234l-.234.469-.281.281a9.178,9.178,0,0,0-.633.7q-.3.375-.586.727a5.338,5.338,0,0,1-.656.68,2.8,2.8,0,0,0-.609.75l.094.047a8.2,8.2,0,0,1,.773,1.008,12.424,12.424,0,0,0,.75,1.031,12.024,12.024,0,0,0,.844.938,5.636,5.636,0,0,0,.961.773A1.231,1.231,0,0,0,124.8-6a.515.515,0,0,1,.094.211,1.086,1.086,0,0,1,.023.211v.234l-.234.469a1.232,1.232,0,0,0-.187.117.515.515,0,0,1-.211.094,1.192,1.192,0,0,1-.234.023H123.8q-.141-.047-.258-.094a.624.624,0,0,1-.211-.141,1.09,1.09,0,0,0-.211-.164,1.09,1.09,0,0,1-.211-.164,4.019,4.019,0,0,0-.516-.516,4.019,4.019,0,0,1-.516-.516q-.234-.281-.445-.586a1.843,1.843,0,0,0-.492-.492v4.781l-.047.469.141,3.234-.234.469a1.532,1.532,0,0,0-.164.094,1.532,1.532,0,0,1-.164.094.416.416,0,0,1-.187.047A.416.416,0,0,0,120.094,1.922Zm3.844-.7a.837.837,0,0,0-.211-.07l-.234-.047a.515.515,0,0,1-.211-.094,1.231,1.231,0,0,0-.187-.117A1.231,1.231,0,0,0,122.977.7a.515.515,0,0,1-.094-.211,1.086,1.086,0,0,1-.023-.211V.047l.234-.469a1.231,1.231,0,0,0,.188-.117.515.515,0,0,1,.211-.094,1.192,1.192,0,0,1,.234-.023h.258l.234.047a3.493,3.493,0,0,1,.352-.07,2.489,2.489,0,0,1,.352-.023h.75v-.562l-.094-3.984q.047-.609.047-1.219V-7.711q0-.633-.023-1.266a1.955,1.955,0,0,1,.3-1.148.821.821,0,0,0,.234-.117.515.515,0,0,1,.211-.094,1.086,1.086,0,0,1,.211-.023h.234l.469.234a2.184,2.184,0,0,1,.258,1.148q-.023.633-.023,1.242V-5.3l-.047,1.359.094,3.188h1.922V-14.2q-.047-.422-.07-.82t-.023-.844q0-.445-.023-.844t-.07-.82a.837.837,0,0,0,.07-.211q.023-.117.047-.211a.528.528,0,0,1,.094-.187,1.231,1.231,0,0,0,.117-.187,1.231,1.231,0,0,0,.188-.117.515.515,0,0,1,.211-.094,1.087,1.087,0,0,1,.211-.023h.234l.469.234a4.659,4.659,0,0,1,.258,1.688,15.856,15.856,0,0,0,.047,1.734q.07.844.07,1.711v1.758a9.014,9.014,0,0,0,1.125.023,6.779,6.779,0,0,1,1.125.047l1.1.141a3.146,3.146,0,0,1,1.008.3,1.231,1.231,0,0,0,.117.188.515.515,0,0,1,.094.211,1.086,1.086,0,0,1,.023.211v.234l-.234.469a1.232,1.232,0,0,0-.187.117.515.515,0,0,1-.211.094l-.234.047a1.317,1.317,0,0,1-.258.023,7.917,7.917,0,0,1-.844-.141,3.986,3.986,0,0,0-.867-.094q-.445,0-.867-.023t-.891-.023V-.75h.469q.469-.047.914-.07t.914-.023a5.853,5.853,0,0,0,.914-.07,3.564,3.564,0,0,1,.914-.023l.609.281a1.231,1.231,0,0,0,.117.188.515.515,0,0,1,.094.211,1.086,1.086,0,0,1,.023.211V.188l-.234.469a2.467,2.467,0,0,1-1.008.258l-1.078.047-1.1.047q-.562.023-1.078.07h-5.906Zm32.391.75-.469-.234L154.781.281Q153.516.563,152.2.8a25.017,25.017,0,0,1-2.648.328q-1.336.094-2.672.234a23.16,23.16,0,0,0-2.6.422,1.286,1.286,0,0,0-.164-.07q-.07-.023-.164-.047a.521.521,0,0,1-.164-.07,1.532,1.532,0,0,0-.164-.094,1.231,1.231,0,0,0-.117-.187.917.917,0,0,1-.117-.211.627.627,0,0,1-.047-.234V.609a8.2,8.2,0,0,1,.914-1.43q.539-.68,1.008-1.359a11.757,11.757,0,0,1,1.055-1.312,10.7,10.7,0,0,0,1.055-1.336L144.7-4.922l-.562.047a1.742,1.742,0,0,0-.3-.07,2.318,2.318,0,0,0-.328-.023.537.537,0,0,1-.281-.07q-.117-.07-.258-.164a1.231,1.231,0,0,0-.117-.187.515.515,0,0,1-.094-.211,1.086,1.086,0,0,1-.023-.211v-.234l.234-.469a1.09,1.09,0,0,1,.211-.164.729.729,0,0,1,.258-.094,1.708,1.708,0,0,1,.281-.023H144l.656.094,1.453-.047q1.313.094,2.648.141t2.625.117q1.289.07,2.625.094a10.5,10.5,0,0,1,2.555.352,1.231,1.231,0,0,0,.117.188.515.515,0,0,1,.094.211,1.086,1.086,0,0,1,.023.211V-5.2l-.234.469a1.232,1.232,0,0,0-.187.117.515.515,0,0,1-.211.094,1.192,1.192,0,0,1-.234.023h-.258q-.7-.047-1.453-.047t-1.477-.07q-.727-.07-1.453-.07t-1.523-.047q-.469.516-.914,1.055t-.914,1.055q-.469.516-.891,1.078a11.723,11.723,0,0,0-.75,1.125h.469l1.781-.187q.891-.094,1.828-.164a13.206,13.206,0,0,0,1.8-.258q.867-.187,1.758-.328v-.094a1.521,1.521,0,0,0-.281-.445q-.187-.211-.352-.422a2.331,2.331,0,0,1-.281-.469.912.912,0,0,1-.07-.539l.234-.469a1.231,1.231,0,0,0,.188-.117.515.515,0,0,1,.211-.094,1.086,1.086,0,0,1,.211-.023h.234l.469.234q.469.563.891,1.172a8.031,8.031,0,0,1,.727,1.289,6.433,6.433,0,0,0,.75,1.266,2.727,2.727,0,0,1,.539,1.336l-.234.469a1.231,1.231,0,0,0-.187.117.515.515,0,0,1-.211.094,1.086,1.086,0,0,1-.211.023Zm2.813-9.937-.469-.234q-.234-.375-.516-.773t-.562-.75q-.281-.352-.586-.727a3.853,3.853,0,0,0-.68-.656q-.7-.8-1.406-1.617A14.025,14.025,0,0,0,153.4-14.25q-.82-.7-1.594-1.453t-1.57-1.453q-.844.75-1.664,1.43A17.412,17.412,0,0,0,147-14.25a17.412,17.412,0,0,1-1.57,1.477,13.6,13.6,0,0,0-1.523,1.477,3.364,3.364,0,0,0-.75.563q-.328.328-.656.7t-.656.727a6.043,6.043,0,0,0-.609.773,1.231,1.231,0,0,0-.187.117.515.515,0,0,1-.211.094,1.192,1.192,0,0,1-.234.023h-.258l-.469-.234a.821.821,0,0,0-.117-.234.515.515,0,0,1-.094-.211,1.086,1.086,0,0,1-.023-.211v-.234a1.718,1.718,0,0,1,.469-.727,8.416,8.416,0,0,0,.633-.656q.3-.352.609-.68t.633-.656q.844-.8,1.758-1.547a18.808,18.808,0,0,0,1.734-1.617,20.781,20.781,0,0,1,1.711-1.617q.891-.75,1.734-1.594a2.92,2.92,0,0,0,.422-.3.79.79,0,0,1,.469-.187,1.779,1.779,0,0,0,.516-.117.946.946,0,0,1,.516-.047l.469.234a1.946,1.946,0,0,0,.422.609l.563.563q.281.281.539.563t.539.563l.563.375,2.109,1.969a4.191,4.191,0,0,0,.352.492q.211.258.4.492a3.757,3.757,0,0,0,.422.445,1.648,1.648,0,0,1,.375.492l.75.656,1.313,1.594q.094.141.211.3l.234.328a.629.629,0,0,1,.117.375v.4l-.234.516a1.231,1.231,0,0,0-.187.117.515.515,0,0,1-.211.094,1.086,1.086,0,0,1-.211.023Zm-4.547-.844a7.464,7.464,0,0,0-2.039-.375l-2.133-.094a12.9,12.9,0,0,1-2.086-.258,17.82,17.82,0,0,0-2.039-.3l-.141.047a1.286,1.286,0,0,0-.164-.07q-.07-.023-.164-.047a.521.521,0,0,1-.164-.07,1.533,1.533,0,0,0-.164-.094,1.231,1.231,0,0,0-.117-.187.515.515,0,0,1-.094-.211,1.086,1.086,0,0,1-.023-.211v-.234l.234-.469a1.89,1.89,0,0,1,.3-.164,1.3,1.3,0,0,1,.352-.094,3.021,3.021,0,0,1,.375-.023h.375q1.031.234,2.133.422a13.107,13.107,0,0,0,2.2.188,20.157,20.157,0,0,1,2.18.117,7.174,7.174,0,0,1,2.063.539,1.231,1.231,0,0,0,.117.188.515.515,0,0,1,.094.211,1.086,1.086,0,0,1,.023.211v.234l-.234.469a1.231,1.231,0,0,0-.187.117.917.917,0,0,1-.211.117.627.627,0,0,1-.234.047Z" transform="translate(506 169)" fill="#26333b"/>
    </g>
    <g id="logomark" transform="translate(562 429)">
      <g id="グループ_4905" data-name="グループ 4905" transform="translate(-363.981 -314)">
        <g id="グループ_4904" data-name="グループ 4904" transform="translate(0 0)" clip-path="url(#clip-path)">
          <path id="パス_28485" data-name="パス 28485" d="M-309.872-313.626a18.227,18.227,0,0,0-9.955,10.034,5.025,5.025,0,0,0-.414,1.547,1.116,1.116,0,0,0,.542.447c.239.112.463.208.495.224a7.225,7.225,0,0,1-.447,1.228l-.495,1.2-1.436-1.085a24.332,24.332,0,0,0-5.886-3.254,23.973,23.973,0,0,0-5.248-1.213,1.682,1.682,0,0,1-.8-.191c-.7-.431-4.978.829-8.152,2.425a34.1,34.1,0,0,0-7.865,5.535c-.558.59-.59.67-.414,1.053.255.558.494.542,1.212-.1.623-.542,2.345-1.866,2.744-2.106.128-.063,0,.191-.255.575a15.433,15.433,0,0,0-1.9,13.8,19.478,19.478,0,0,0,3.733,6.476c.558.686.925,1.244.8,1.244a8.752,8.752,0,0,1-1.244-.351,14.136,14.136,0,0,0-5.982-.048,76.335,76.335,0,0,0-8.375,2.712,9.885,9.885,0,0,0-2.871,2.855A19.559,19.559,0,0,0-363.3-268.3l-.7,1.532v11.087l.686,1.308a97.365,97.365,0,0,0,5.456,8.3,22.26,22.26,0,0,0,7.561,5.5c.814.4,2.7,1.1,4.164,1.6l2.664.877-.447,1.308c-1.1,3.223-1.244,6.525-.366,8.248a10.772,10.772,0,0,0,2.7,2.775c2.345,1.484,4.834,1.978,10.05,1.994,4.339,0,4.674-.063,8.917-1.516,2.808-.957,5.392-1.547,5.631-1.292a26.69,26.69,0,0,1-1.946,4.9c-.383.574-.383.59-1.946.75a58.518,58.518,0,0,1-8.423.367c-5.216.015-6.987.175-9.093.845-3.27,1.037-7.338,5.041-9.492,9.332a3.086,3.086,0,0,0-.447,2.122c.08,1.516.191,1.6,2.393,1.739,5.727.383,11.358.526,20.308.51,10.561-.016,18.648-.239,19.526-.543.4-.143.623-.143.814-.016a33.828,33.828,0,0,0,5.2.112c20.706-.271,26.449-.462,34.984-1.133,1.708-.127,3.637-.3,4.307-.383a3.776,3.776,0,0,1,1.484.016,2.248,2.248,0,0,0,1.58-.016c.366-.208.383-.558.047-1.2-.143-.271-.654-1.26-1.132-2.2-1.739-3.43-5.121-6.205-9.843-8.088-1.8-.7-5.121-1.133-9.588-1.228a29.5,29.5,0,0,0-8.216.622,7.925,7.925,0,0,1-2.122.224c-.319-.08-.718-.543-1.611-1.9a19.483,19.483,0,0,1-2.3-4.036,15.172,15.172,0,0,1,2.138.479c11.406,3.1,19.589,2.233,23.976-2.552a13.522,13.522,0,0,0,2.744-5.248,9.676,9.676,0,0,0-.973-5.839l-.447-.893,1.133-.351a40.08,40.08,0,0,0,13.767-7.5,25.915,25.915,0,0,0,5.806-7.115,13,13,0,0,0,.781-7.035c-.67-3.653-4.945-6.955-10.066-7.8-.335-.048-.606-.143-.606-.208a3.283,3.283,0,0,1,1.021-1.388c.766-.51,2.042-2.855,2.648-4.882a19.983,19.983,0,0,0,.846-4.658,7.081,7.081,0,0,1,.175-1.739c.447-2.345.3-3.111-.654-3.558-.51-.239-.543-.3-.447-.846a27.546,27.546,0,0,0-.143-6.062,17.281,17.281,0,0,0-2.09-4.913,17.408,17.408,0,0,0-4.387-4.243,28.891,28.891,0,0,0-9.572-3.908c-4.4-1.117-7.21-1.133-10.577-.032a23.427,23.427,0,0,0-4.993,2.3,6.649,6.649,0,0,1-1.356.718c-.127,0-.414-.527-.685-1.244-1.979-5.328-4.93-9.125-7.083-9.125a1.023,1.023,0,0,0-.67.239c-.176.208-.112.335.4.766a17.543,17.543,0,0,1,3.589,3.94,36.333,36.333,0,0,1,2.473,5.759l.287.909-.543.494a2.219,2.219,0,0,1-.718.495c-.112,0-.255-.51-.366-1.213a12.579,12.579,0,0,0-2.154-5.152,11.825,11.825,0,0,0-3.622-3.925,11.839,11.839,0,0,0-7-2.106,17.641,17.641,0,0,0-8.614,1.866,20.99,20.99,0,0,0-4.9,3.733,13.723,13.723,0,0,1-1.627,1.516c-.239.144-.782.463-1.2.718a2.621,2.621,0,0,1-.8.4,4.564,4.564,0,0,1,.606-1.053,16.58,16.58,0,0,1,6.062-5.727,10.6,10.6,0,0,1,3.51-.973c1.021-.16,1.1-.447.224-.846a3.617,3.617,0,0,0-3.27-.032Zm10.321,4.674a21.46,21.46,0,0,1,5.185,2.233c1.436.973,1.866,1.516,3.174,4.083,1.532,3.016,1.851,4.052,1.994,6.349a17.206,17.206,0,0,0,.239,2.17,1.8,1.8,0,0,0,.591.526c.462.272.494.272,1.132-.047a2.046,2.046,0,0,1,.734-.256c.048.048-.112.351-.351.686a2.664,2.664,0,0,0-.415.8c0,.191.814.67,1.148.67a5.191,5.191,0,0,0,1.228-1.117,27.215,27.215,0,0,1,5.312-4.355,17.518,17.518,0,0,1,9.939-2.456c2.664.111,3.94.479,7.9,2.281,2.792,1.276,3.015,1.419,3.35,2.01.287.527.335.718.191.942s-.064.75.351,2.408a21.617,21.617,0,0,1,.846,7.179c-.239,6.286-3.047,13.081-6.285,15.2a14.011,14.011,0,0,0-1.308.941c-.7.638-.239,1.755.925,2.218a14.958,14.958,0,0,0,2.505.51,59.128,59.128,0,0,1,7.162,1.213,16.858,16.858,0,0,1,4.467,2.169c.957.75,1.213,1.436,1.213,3.43.015,2.569-1.165,5.041-3.558,7.45-3.494,3.542-8.072,5.887-14.884,7.673-2.935.766-3.015.8-3.079,1.213-.063.4.829.909,2.074,1.18l.894.208-.415.431c-.351.367-.462.4-.574.208a1.683,1.683,0,0,0-.686-.463c-.814-.351-1.069-.08-.942.973a11.811,11.811,0,0,1-.733,4.148c-.431,1.516-.75,2.138-.942,1.8s-1-.16-2.44.51a24.22,24.22,0,0,1-8.631,2.329l-1.755.1-.925-.558c-1.244-.781-1.467-.829-1.85-.447-.367.367-.3.8.223,1.292a10.341,10.341,0,0,0,3.765,1.372c1.8.207,4.4-.335,8.231-1.723a5.409,5.409,0,0,0,2.744-1.564l.862-.877-.686,1.324a9.253,9.253,0,0,1-2.919,3.445,13.8,13.8,0,0,1-2.425.845c-1.675.431-1.914.447-5.424.447-5.663,0-7.657-.415-12.985-2.664-2.393-1.005-4.1-2.026-3.973-2.361a14.882,14.882,0,0,1,1.324-1.133,47.079,47.079,0,0,0,5.727-5.7,23.171,23.171,0,0,0,2.984-5.025,4.493,4.493,0,0,0,.431-2.425,6.272,6.272,0,0,0-2.01-4.036c-1.419-1.467-3.414-2.026-6.174-1.77-2.616.255-4.8,1.2-7.705,3.35l-1.962,1.451-.909-.861a13.763,13.763,0,0,0-5.424-3.318,6.331,6.331,0,0,0-2.648-.287c-1.708.064-2.346.367-3.877,1.787a7.226,7.226,0,0,0-2.441,5.775c0,3.158.957,4.562,6.429,9.524a7.655,7.655,0,0,1,1.547,1.691c0,.622-3.254,2.552-4.882,2.888a15.994,15.994,0,0,0-2.169.654,15.869,15.869,0,0,1-6.748,1.164,13.66,13.66,0,0,1-4.148-.351c-3.573-.909-4.993-2.281-5.153-5.009a7.6,7.6,0,0,1,.814-3.956,3.851,3.851,0,0,0,.462-1.946c-.032-1.452-.16-1.58-1.451-1.467a4.623,4.623,0,0,1-2.346-.3c-.685-.223-1.579-.479-1.962-.59a33.983,33.983,0,0,1-3.589-1.659c-2.569-1.292-2.888-1.516-2.936-1.883-.048-.335-.16-.447-.558-.543-2.154-.462-4.02-2.632-6.461-7.482a33.936,33.936,0,0,1-2.92-7.37l-.335-1.372.351-.973a10.537,10.537,0,0,1,5.68-5.7c1.85-.845,5.647-1.42,9.332-1.42,1.85,0,2.313-.048,2.951-.335a2.429,2.429,0,0,1,1.356-.223c.494.08.606.048.829-.3.4-.591.335-1.053-.239-1.643-.271-.287-.463-.558-.431-.606a1.665,1.665,0,0,1,.654.112c1.133.351,1.516-.367.527-.989-.462-.287-.527-.4-.4-.638.271-.51.176-.7-.814-1.516-1.755-1.452-3.031-3.8-3.924-7.258-.59-2.313-.431-3.414,1.165-7.721,1-2.68,1.691-4.084,2.265-4.659a8.236,8.236,0,0,1,4.131-1.515,5.794,5.794,0,0,0,1.691-.431c.239-.223.542-.223,2.792.016,4.9.51,6.062,1.005,9.253,3.892,1.451,1.324,1.818,1.452,2.408.83l.3-.335.287.494a.779.779,0,0,0,.8.495c.558,0,.7-.208.7-1.005a14.439,14.439,0,0,1,2.377-6.157,33.606,33.606,0,0,1,5.663-6.222,14.955,14.955,0,0,1,5.041-2.138,18.885,18.885,0,0,1,4.148.064Zm-40.041,8.423c-.223.415-.814.83-1.005.7-.1-.048.064-.3.351-.558.591-.527.91-.59.654-.144Zm14.629.574c.894.686.59.718-.973.112-1.165-.447-1.468-.766-.862-.861.527-.1.989.112,1.835.75Zm62.264.08c.208.143.208.16,0,.16a1.134,1.134,0,0,1-.479-.16c-.208-.143-.208-.16,0-.16a1.134,1.134,0,0,1,.479.16Zm11.662,17.261-.144.527-.015-.51a2.325,2.325,0,0,1,.1-.8c.191-.479.256.143.064.781ZM-255.761-280c-.208.7-.527,1.26-.351.622.048-.176.128-.558.191-.846.064-.271.176-.51.239-.51.08,0,.048.335-.08.734Zm-86.623,5.009.462.479h-.685c-.558,0-.671-.048-.591-.255a1.811,1.811,0,0,0,.1-.479c0-.351.223-.271.718.255Zm-2.935-.143c1.117.239.75.414-.942.446a25,25,0,0,0-13.049,3.637c-.431.271-.431.271-.239-.063.479-.925,2.457-1.883,6.078-2.983,1.356-.4,2.935-.846,3.51-.957a13.808,13.808,0,0,1,4.643-.08Zm1.26,2.7c-.3.064-1.388.176-2.393.239-3.541.208-6.524.877-8.247,1.866-.463.256-.846.4-.846.319,0-.191.846-.925,1.419-1.212a25.762,25.762,0,0,1,5.281-1.133c1.883-.223,5.711-.287,4.786-.08Zm87.293,1.308c-.112.112-.191.128-.191.032,0-.223.191-.414.3-.3.033.048-.015.176-.112.271Zm-100.183,16.862a9.967,9.967,0,0,1,.718,1.978c-.08.239-1.165-1.308-1.579-2.233a14.97,14.97,0,0,1-.909-3.239c0-.319.829,1.293,1.77,3.493Zm62.5,4.674a3.08,3.08,0,0,1,1.755,2.425c0,1.005-1.739,3.925-4.259,7.195a34.928,34.928,0,0,1-5.344,5.392c-.543.4-1.213.893-1.452,1.085a1.057,1.057,0,0,1-.75.255c-.271-.063-.319,0-.319.383,0,.255-.08.462-.16.462-.191,0-3.733-2.106-5.185-3.079A40.539,40.539,0,0,1-316-240.212c-2.137-2.106-2.44-2.744-2.456-5.185,0-2.68.718-3.51,3.031-3.478,2.137.032,3.829.846,6.524,3.159,2.792,2.393,2.792,2.393,3.908,1.005a20.336,20.336,0,0,1,6.764-4.993,6.167,6.167,0,0,1,3.781.112Zm40.2,1.946a1,1,0,0,1-.271.272c-.256.207-.271.191-.064-.064s.335-.335.335-.207Zm-94.312,5.392a25.827,25.827,0,0,0,5.966,2.2.29.29,0,0,1,.144.542,8.213,8.213,0,0,1-2.027-.479c-5.137-1.547-8.279-3.222-11.023-5.855a10,10,0,0,1-1.324-1.4,27.278,27.278,0,0,1,3.079,1.9c1.675,1.117,4.02,2.5,5.185,3.095Zm91.76-3.8a22.047,22.047,0,0,1-3.366,2.026,13.672,13.672,0,0,1-2.074.829,7.755,7.755,0,0,1-2.664.351,15.494,15.494,0,0,1,1.739-.67c.909-.3,2.7-1.021,3.972-1.564,1.276-.558,2.329-1.005,2.361-1.021.015-.016.032.015.032.047Zm-82.906,6.588a.842.842,0,0,1-.4,0c-.112-.048-.032-.08.191-.08s.3.032.208.08Zm73.383,1.133a8.176,8.176,0,0,1,.909,3.558,7.549,7.549,0,0,1-1.085,3.541c-.287.287-.3.271-.1-.718a16.585,16.585,0,0,0-.511-7.227c-.239-.59.335.016.782.846Zm-74.26.3a15.342,15.342,0,0,0-1.021,2.6,11.808,11.808,0,0,0,.016,4.547,11.36,11.36,0,0,0,2.361,4.259c.813.734.51.814-.718.191a6.933,6.933,0,0,1-2.76-2.792c-.431-.813-.431-.909-.351-2.776a13.526,13.526,0,0,1,1.148-5.233c.383-.813.479-.909.909-.909.256,0,.447.048.415.111Zm71.659,5.728a3.457,3.457,0,0,1-1.467,2.154c-.495.255-.51.063-.08-.591a13.591,13.591,0,0,0,1.021-2.2c.606-1.6.606-1.612.654-.925a6.866,6.866,0,0,1-.128,1.564Zm-68.182,1.77a10.075,10.075,0,0,0,4.658,2.361c1.9.415,2.01.495.925.638a8.562,8.562,0,0,1-4.435-.51c-1.931-.909-2.68-1.946-2.68-3.654l.016-.941.335.622a7.087,7.087,0,0,0,1.181,1.484Zm29.8,1.4c.1.383-.064,6.365-.383,14.214-.08,2.089-.16,3.892-.16,3.988,0,.127-2.074.207-6.891.271-3.8.063-9.221.16-12.029.208-5.232.112-14.979-.176-15.155-.431-.287-.462,1.723-3,3.159-4.02,2.648-1.85,4.882-2.217,11.055-1.8a21.089,21.089,0,0,0,4.866-.207c2.552-.3,5.839-.75,6.62-.91.256-.047.829-1.18,2.632-5.2,1.26-2.84,2.616-5.823,2.983-6.62l.686-1.484,1.26.814c.862.542,1.293.925,1.356,1.18Zm5.807-1.4c.239.16.893.606,1.467,1.021a15.96,15.96,0,0,0,1.691,1.069c.606.3.8.574,2.058,2.92,2.345,4.355,4.8,8.136,5.743,8.886.7.558,2.377.718,5.982.622,1.8-.064,4.211-.223,5.344-.367a27.073,27.073,0,0,1,7.689-.016,9.466,9.466,0,0,1,4.116,2.329c1.675,1.5,1.691,1.563.75,1.675-1.9.239-5.28.431-10.529.574-8.789.239-10.449.319-13.113.654-3.366.414-7.242.75-10.146.877l-2.425.112-.1-1.5c-.064-.83-.1-5.12-.064-9.556s-.015-8.216-.08-8.407c-.112-.287-.032-.415.479-.75.734-.479.623-.463,1.133-.144Zm-20.228,2.2a13.467,13.467,0,0,1-3.318,1.5,24.822,24.822,0,0,1-8.3,1.2,7.928,7.928,0,0,1-3.015-.558c-.431-.16-.495-.526-.064-.383a20.53,20.53,0,0,0,4.212.558,38.378,38.378,0,0,0,8.343-1.739c2.041-.671,2.137-.7,2.137-.575Zm0,0" transform="translate(363.981 313.999)" fill="#26333b"/>
        </g>
      </g>
      <path id="パス_28486" data-name="パス 28486" d="M-197.947-212.549a5.256,5.256,0,0,0-3.35,1.707c-.59.638-.638.766-.558,1.34.128.989.383,1.117.877.447a6.8,6.8,0,0,1,3.015-2.249,14.606,14.606,0,0,0,1.707-.909c.176-.287-.654-.447-1.691-.335Zm0,0" transform="translate(-136.253 -85.236)" fill="#26333b"/>
      <path id="パス_28487" data-name="パス 28487" d="M-162.473-207.117c-.383.191-.527.367-.527.67,0,.606.415.973.941.814a3.229,3.229,0,0,0,1.723-1.053c.224-.351.224-.431.032-.558a3.34,3.34,0,0,0-2.169.128Zm0,0" transform="translate(-168.935 -89.616)" fill="#26333b"/>
      <path id="パス_28488" data-name="パス 28488" d="M-214.995-176.574l-1.005.622v1.324c0,3.111.495,5.264,1.547,6.8,1.005,1.484,1.66,1.516,1.148.063a23.6,23.6,0,0,1-1.037-5.758c-.112-1.739-.112-1.771.319-2.409.431-.654.495-1.117.176-1.228a4.305,4.305,0,0,0-1.148.59Zm0,0" transform="translate(-124.39 -115.006)" fill="#26333b"/>
      <path id="パス_28489" data-name="パス 28489" d="M267.957-174.317c0,.048.191.654.431,1.324a7.852,7.852,0,0,1,.447,3.558,11.317,11.317,0,0,1-.447,3.86,22.084,22.084,0,0,1-.909,2.7,6.7,6.7,0,0,0-.479,1.5c0,.846.973.877,1.675.064a20.907,20.907,0,0,0,1.851-5.615,11.237,11.237,0,0,0-.335-4.929c-.51-1.388-1.26-2.425-1.787-2.489-.256-.032-.447-.015-.447.032Zm0,0" transform="translate(-530.338 -117.36)" fill="#26333b"/>
      <path id="パス_28490" data-name="パス 28490" d="M-64.886-170.219c-.4.4-.208,1.069.479,1.819a4.134,4.134,0,0,0,4.164,1.34c2.521-.383,3.637-1.4,2.616-2.361-.367-.351-1.228-.479-1.228-.191a5.823,5.823,0,0,1-2.265.718,2.832,2.832,0,0,1-2.329-.941c-.654-.591-1.1-.718-1.436-.383Zm0,0" transform="translate(-251.224 -120.691)" fill="#26333b"/>
      <path id="パス_28491" data-name="パス 28491" d="M54.035-158.5c-.4.383.208,1.931.989,2.569a3.415,3.415,0,0,0,2.648,1.069c1.659,0,3.287-.574,3.812-1.34.591-.862.671-1.356.272-1.755-.479-.479-.91-.415-1.468.223a4.041,4.041,0,0,1-2.616,1.053c-.75.063-1.1-.128-1.978-1.053-.75-.829-1.341-1.1-1.66-.766Zm0,0" transform="translate(-351.241 -130.578)" fill="#26333b"/>
      <path id="パス_28492" data-name="パス 28492" d="M-122.574-104.615c-.351,1.117-.351,1.244.208,2.807A17.413,17.413,0,0,0-113.337-92a37.382,37.382,0,0,0,10.576,2.824,34.591,34.591,0,0,0,9.349-.75A26.193,26.193,0,0,0-84.4-94.358a31.624,31.624,0,0,0,4.387-4.148c.3-.415.558-.575.861-.575a1.715,1.715,0,0,0,1.356-1.835c-.127-.542-.909-1.26-2.058-1.93-.527-.3-1.085-.638-1.228-.75-.495-.335-.829.208-.877,1.4a4.551,4.551,0,0,1-.3,1.547,13.786,13.786,0,0,1-5.12,5.264,32.789,32.789,0,0,1-13.209,3.031,16.2,16.2,0,0,1-6.7-1.021c-6.493-2.377-10.959-6-12.778-10.338-.51-1.26-1-1.755-1.722-1.755-.479,0-.527.048-.782.846Zm0,0" transform="translate(-202.709 -175.271)" fill="#26333b"/>
      <path id="パス_28493" data-name="パス 28493" d="M-266.456-30.237a7.4,7.4,0,0,0-2.5,1.2c-.846.59-.942.718-.894,1.149a.623.623,0,0,0,.495.638c.51.176.479.192,2.361-1.117,1.356-.941,1.978-1.563,1.818-1.8-.1-.176-.67-.208-1.276-.064Zm0,0" transform="translate(-79.119 -238.419)" fill="#26333b"/>
      <path id="パス_28494" data-name="パス 28494" d="M-303.693-5.718a2.2,2.2,0,0,0-.7,1.643,11.963,11.963,0,0,0,.558,5.791c1.069,3.493,1.93,4.9,3.621,5.871,1.612.925,1.962.414.654-.99A13.991,13.991,0,0,1-302.385.791a8.76,8.76,0,0,1-.4-3.829c.192-3.286.208-3.174-.08-3.239-.143-.032-.526.224-.829.558Zm0,0" transform="translate(-49.985 -258.631)" fill="#26333b"/>
      <path id="パス_28495" data-name="パス 28495" d="M285.389,6.712c-.3.192-.1.734.622,1.691a7.577,7.577,0,0,1,.781,1.244c.367.941.128,2.473-.622,4.227-.319.718-.335.877-.143,1.005a1.634,1.634,0,0,0,1.547-.383,6.118,6.118,0,0,0,.989-3.6,4.226,4.226,0,0,0-1.452-3.446c-.813-.861-1.228-1.037-1.722-.734Zm0,0" transform="translate(-545.68 -269.434)" fill="#26333b"/>
      <path id="パス_28496" data-name="パス 28496" d="M284.349,8.867c-.414.16-.383.223.319,1.132a4.865,4.865,0,0,1,1.117,3.143,6.433,6.433,0,0,1-1.4,3.941c-1.26,1.914-2.329,2.807-4.977,4.211-2.456,1.308-2.648,1.516-1.739,2.074.606.383.893.335,2.488-.415a32.161,32.161,0,0,0,4.93-3.238,17.721,17.721,0,0,0,2.106-3.494c.941-2.488.351-5.535-1.372-7.051-.574-.495-.845-.558-1.467-.3Zm0,0" transform="translate(-538.882 -271.237)" fill="#26333b"/>
      <path id="パス_28497" data-name="パス 28497" d="M-250.88,88.693c-.479.191-.176.782.766,1.484,2.744,2.042,3.445,2.393,4.77,2.393.8,0,1.228-.287,1.053-.718a.443.443,0,0,0-.4-.239,13.142,13.142,0,0,1-3.781-2.074c-1.292-.909-1.8-1.1-2.408-.846Zm0,0" transform="translate(-94.886 -338.365)" fill="#26333b"/>
      <path id="パス_28498" data-name="パス 28498" d="M-171.473,165.238c-.287.128-.527.319-.527.431a6.659,6.659,0,0,0,.957,2.744c.925,1.276,3.287,2.585,4.1,2.25.256-.1.239-.128-.112-.367a12.833,12.833,0,0,1-1.532-1.4c-1.228-1.228-1.6-1.962-1.451-2.855.128-.814-.543-1.18-1.436-.8Zm0,0" transform="translate(-161.371 -402.659)" fill="#26333b"/>
      <path id="パス_28499" data-name="パス 28499" d="M325.547-279.131c-.1.271.462,1.292,1.818,3.334a16.108,16.108,0,0,1,2.935,6.541c.144,1.245.239,1.516.495,1.516.7,0,1.1-2.106.638-3.526-.638-1.962-4-7.434-4.866-7.88-.59-.3-.894-.3-1.021.016Zm0,0" transform="translate(-579.536 -29.104)" fill="#26333b"/>
      <path id="パス_28500" data-name="パス 28500" d="M-297.379-274.791a30.123,30.123,0,0,0-11.757,7.689c-1.771,1.787-1.946,2.137-1.467,2.7.255.271.335.224,1.659-1.052a40.544,40.544,0,0,1,5.871-4.674c3.191-2.122,5.472-3.159,7.578-3.478.718-.112.75-.143.75-.654a.83.83,0,0,0-.351-.765c-.479-.335-.623-.319-2.281.239Zm0,0" transform="translate(-44.686 -32.566)" fill="#26333b"/>
      <path id="パス_28501" data-name="パス 28501" d="M356.815-172.68a35.631,35.631,0,0,1-.957,7.817c-.75,3.462-1.532,5.472-2.823,7.275-.447.638-.51.813-.351,1.005a1.121,1.121,0,0,0,1.18.446c.686-.175,2.345-3.749,3.191-6.844a35.3,35.3,0,0,0,1.069-10.13l-.112-1.356-.59-.048-.606-.048Zm0,0" transform="translate(-602.286 -117.194)" fill="#26333b"/>
      <path id="パス_28502" data-name="パス 28502" d="M-298.117-169.715c-.462,1.069-.047,4.578.766,6.668a7.773,7.773,0,0,0,2.106,3.143c1.037.7,1.069.383.176-1.436a19.466,19.466,0,0,1-1.627-5.966c-.176-1.6-.59-2.728-1.021-2.872-.1-.032-.287.175-.4.462Zm0,0" transform="translate(-55.211 -120.877)" fill="#26333b"/>
      <path id="パス_28503" data-name="パス 28503" d="M336.178-43.2c-.208.191-.16.335.287.845a1.242,1.242,0,0,0,.781.495c1.037,0,4.339,1.883,5.886,3.366,1.914,1.8,2.409,3.111,2.409,6.365a11.062,11.062,0,0,1-.287,3.031,8.717,8.717,0,0,0-.319,1.276c-.048.431.463.335,1.1-.223.925-.8,1.244-1.947,1.244-4.483a7.9,7.9,0,0,0-.431-3.191c-.638-1.866-1.356-2.808-3.414-4.387-2.185-1.691-4.754-2.983-6.19-3.127a2.453,2.453,0,0,0-1.069.032Zm0,0" transform="translate(-588.381 -227.546)" fill="#26333b"/>
      <g id="グループ_4907" data-name="グループ 4907" transform="translate(-363.981 -314)">
        <g id="グループ_4906" data-name="グループ 4906" transform="translate(0 0)" clip-path="url(#clip-path)">
          <path id="パス_28504" data-name="パス 28504" d="M317.4,96.382a45.1,45.1,0,0,1-8.6,8.088,15.379,15.379,0,0,1-4.021,1.947c-.51.143-.781.287-.781.446a1.1,1.1,0,0,0,.638,1.133c.415.176.622.112,2.106-.606a31.255,31.255,0,0,0,11.311-9.7c1-1.34,1.132-1.85.542-2.233-.3-.207-.4-.127-1.2.925Zm0,0" transform="translate(-197.455 -30.06)" fill="#26333b"/>
          <path id="パス_28505" data-name="パス 28505" d="M-364,115.719V116.9l1.516,1.516a32.288,32.288,0,0,0,11.789,7.37l1.261.462.287-.366c.431-.543.383-.718-.287-.957a41.545,41.545,0,0,1-7.147-3.813c-3.589-2.393-5.44-4.083-6.509-5.966-.191-.335-.479-.606-.622-.606-.256,0-.287.16-.287,1.18Zm0,0" transform="translate(363.981 -46.175)" fill="#26333b"/>
        </g>
      </g>
      <path id="パス_28506" data-name="パス 28506" d="M330.783,138.289a37.085,37.085,0,0,1-4.77,4.962c-3.478,2.967-5.44,4.243-7.657,4.945-1.228.383-1.356.462-1.356.829a.878.878,0,0,0,.59.941c.3.16.543.112,1.532-.3a30.881,30.881,0,0,0,5.408-3.111c2.521-1.818,7.626-7.338,7.626-8.232,0-.239-.462-.782-.67-.782a4.161,4.161,0,0,0-.7.75Zm0,0" transform="translate(-572.362 -379.506)" fill="#26333b"/>
      <g id="グループ_4908" data-name="グループ 4908" transform="translate(-364 -239.096)">
        <path id="パス_28507" data-name="パス 28507" d="M259.984,155.762c-.3.224-.287.255.239,1.324a20.2,20.2,0,0,1,.83,1.946c.733,2.09.063,4.8-1.708,6.972-.622.75-.51,1.021.415,1.021,2.074,0,3.812-3.829,3.207-7.067-.352-1.882-1.755-4.419-2.441-4.419a1.158,1.158,0,0,0-.543.223Zm0,0" transform="translate(-159.578 -155.539)" fill="#26333b"/>
        <path id="パス_28508" data-name="パス 28508" d="M-363.792,158.813c-.128.048-.208.4-.208.925,0,.829.016.861,1.021,1.787a31.233,31.233,0,0,0,13.624,7.147c1.26.3,1.627.208,1.627-.462,0-.287-.256-.431-1.866-.957-5.552-1.819-11.422-5.344-13.209-7.9-.431-.638-.575-.718-.989-.543Zm0,0" transform="translate(364 -158.223)" fill="#26333b"/>
      </g>
    </g>
  </g>
</svg>
