<svg id="icon_mail" xmlns="http://www.w3.org/2000/svg" xmlns:xlink="http://www.w3.org/1999/xlink" width="48" height="48" viewBox="0 0 48 48">
  <defs>
    <clipPath id="clip-path">
      <rect id="長方形_1858" data-name="長方形 1858" width="48" height="48" fill="#26333b"/>
    </clipPath>
  </defs>
  <g id="グループ_5369" data-name="グループ 5369" clip-path="url(#clip-path)">
    <path id="パス_29128" data-name="パス 29128" d="M.982,41.25l-.463-.829-.1-.842.4-.841-.65-.849.149-.842.324-.834a52.761,52.761,0,0,1,.111-6.778,12.244,12.244,0,0,0,.225-3.024l-.218-.793.209-.788.386-.786-.618-.8.789-.779-.855-.81.878-.909.017-.953-.318-1.019c.01-.97.232-1.076.989-1.76.25-.226,1.2-1.465,1.3-1.5l1.1-.446.629-.6.388-.763.664-.571c1.257-1.08,2.069-2.675,3.3-3.852.511-.488,1.367-.644,1.948-1.081a19.9,19.9,0,0,0,2.278-2.407,10.356,10.356,0,0,1,1.588-1.466,5.282,5.282,0,0,0,.823-.615c.178-.186.3-.405.479-.593.667-.71,1.91-.84,2.663-1.485A5.735,5.735,0,0,1,21.979.163L22.787,0l.865.044L24.468.5l.909.28.965.191.895.322.748.555.624.724,1.046.1a13.853,13.853,0,0,0,1.587,1.048l2,1.44,1.266.912,1.554,1.115,1.175.842a6.737,6.737,0,0,1,1.332,1.139c.922,1.132,1.554,1.241,2.811,1.966l.5.71.352.8.76.62c1.713,1.4,2.619,3.552,4.121,5.141l-.008.8-.732.8.254.811-.439.811.394.806-.146.811-.243.816.751.787-.671.829c-.1.126.341.816.37,1.025.165,1.193-.023,2.388.2,3.579a5.468,5.468,0,0,1,.155,1.845l.178.8.3.8-.72.839.754.779-.1.813.079.807-.514.82L48,38.569l-.528.816.108.806a20.018,20.018,0,0,0-.264,4.524c-1.194.878.958,1.587-1.5,1.623-.434.006-3.609.424-3.691.383l-.985-.5-.947.378-.966-.134-.957.214-.967-.2-.951.608-.975-.839-.96.1c-.287.269-.64.506-.954.751-1.156-.6-3.15.122-4.5.091a34.723,34.723,0,0,0-6.065.028l-.992-.456-.944.622-1.007-.309a42.515,42.515,0,0,0-5.015.483c-1.047.2-1.295-.146-2.342-.252-.791-.079-1.61.248-2.418.173-.3-.027-.585-.1-.883-.123a6.1,6.1,0,0,0-1.459.175A20.917,20.917,0,0,1,4.465,48c-.428-.02-.8-.318-1.227-.349l-.984-.072-1.1.191-.276-.881-.339-.775-.109-.8.146-.826-.19-.794.628-.843L0,42.089Zm42.95-20.2-1.211.731-.685.582-1,.265-.321.954-.825.44-.93.333-.679.588-.766.5-.593.671-1.186.1-.353.9-.778.494-.828.455-.679.616a10.888,10.888,0,0,0-2.972,2.831,1.692,1.692,0,0,1-.347.4c-.306.23-.82.307-.928.641-.029.09-.022.186-.059.273-.107.253-.493.3-.8.376s-.612.388-.391.581c-1.627.513-2.159,3.065-4.265,2.161-1.462-.628-2.53-1.678-4.01-2.24l-.641-.577-.71-.511-.948-.3-.19-.963-.488-.694-1.215-.105-.7-.529c-.507-.43-1.01-.948-1.5-1.4C11.249,27.041,9.516,26.338,7.712,25l-.487-.791-.954-.177-1.139.16-.677-.538L3.7,23.186l-.814-.1-.311.71-.269.794.129.794.2.787.178.786-.152.792.085.787.2.794.033.813-.257.8-.471.8a10.649,10.649,0,0,1,.255,1.21c.024,1.6-.293,3.045.184,4.483l.261.825.019.825.1.823.093.824-.219.847.43.8-.231.853-.249.853.072.829.4.717.852.034a11.652,11.652,0,0,0,3.165.1,6.712,6.712,0,0,0,.842-.159c1.2-.224,2.442.231,3.636-.061.826-.2,1-.547,1.921-.594l.987.573.948-.253.976.342.943-.357a14.386,14.386,0,0,1,2.011.074c1.139-.038,2.348-.009,3.485-.106,1.772-.151,3.571.052,5.348.024,3.446-.054,6.887-.228,10.327-.4a18.05,18.05,0,0,1,4.689-.076l.952-.144.686-.519-.039-.609.066-.823.362-.837-.107-.815.045-.822-.214-.809-.444-.8.575-.846-.468-.8.13-.826-.283-.806.206-.829-.755-.784.948-.863L45,32.042l-.929-.776.346-.835-.246-.807.6-.846-.292-.8-.673-.786.628-.847-.667-.786.634-.847-.9-.775.271-.83-.19-.809Zm-5.887-.331-.582-.932-.274-.837-.079-.989L35.891,18l-.963-.185-1.014-.262-.927.1-.927.007-.907.238-.971-.529-.887.509L28.37,17.8l-.9-.19c-.835,0-1.583-.285-2.4-.351-1.638-.132-3.434.068-5.086.088a11.522,11.522,0,0,1-2.438-.143,3.769,3.769,0,0,0-.784-.122,3.07,3.07,0,0,0-.562.077c-1.473.288-2.488-.587-3.973-.182-1.221.333-1.419.98-2.615.608a1.75,1.75,0,0,0-.352,1.623,13.588,13.588,0,0,1-.374,2.72c-.138,1.581.806,1.726,2.007,2.433,1.236.729,2.083,1.937,3.26,2.758,1.5,1.044,2.936,2.179,4.457,3.192.836.557,1.926.852,2.436,1.691l.658.613.889.3.929.2.567-.037.439-.077.612-.594.5-.685.592-.6.8-.442.95-.329.3-.828L29.1,29.1l-.045-1.076,1.3-.076.245-.856.986-.242.39-.786L32.5,25.4l.7-.49.66-.529.654-.524.857-.346.337-.817.779-.578.769-.629Zm2.479-.261.826-.82c.329-.264,2.687-2.078,2.66-2.121a8.992,8.992,0,0,0-2.44-2.458l-.785-.492c-.144-.091-.579-1.572-.846-1.879a12.2,12.2,0,0,0-2.2-1.825,28.114,28.114,0,0,0-4.946-3.03,2.373,2.373,0,0,1-.472-.231A2.231,2.231,0,0,1,32,7.295c-.15-.16-.317-.309-.483-.457l-.276-.246a11.772,11.772,0,0,0-1.3-1.055,6.459,6.459,0,0,0-1.159-.61C28,4.61,27.352,3.649,26.628,3.443l-.957-.271-1.132-.018-.583-.8-1.051-.233-.978.339-.931.3c-1.084.868-1.969,2.228-3.155,2.919a13.059,13.059,0,0,1-1.279.527,6.488,6.488,0,0,0-1.984,1.577c-.7.734-1.223,1.591-1.954,2.307a13.238,13.238,0,0,1-2.173,1.4c-1.592,1.083-2.183,2.942-3.956,3.9l-.835.45-.541.683-.455.733-.427.734-.648.612v.258l.3.044.76.428.582.623.451.767L6.7,20.89l.373-.846-.829-.876,1.063-.7-.229-.92.738-.689-.146-.906.089-.572.552-.157.951-.139.956-.108.984.182.935-.347.977.23.968.257.954-.007.952-.324.957.1.953.246c1.969-.2,3.918.062,5.882-.022,1.227-.052,2.47.034,3.681.089.025,0,1.856.187,1.745.226l.93-.325.929.147.921.246,1-.6.981.608.984-.212.994-.155L37.008,15l.857.708.971.16.377.737.518.723.023.848.293.808.455.759Z" fill="#26333b"/>
  </g>
</svg>
