<svg xmlns="http://www.w3.org/2000/svg" width="53.536" height="48" viewBox="0 0 53.536 48">
  <g id="icon" transform="translate(-93.167 -11.854)">
    <g id="グループ_4585" data-name="グループ 4585" transform="translate(114.5 47.567)">
      <g id="グループ_4583" data-name="グループ 4583" transform="translate(0.367 0.49)">
        <path id="パス_27963" data-name="パス 27963" d="M113.5,43.915l-.353-.177-.462.016-.23-.4-.463-.012-.2-.412.326.216.218.408.463,0,.242.395Z" transform="translate(-111.792 -42.929)" fill="#26333b"/>
      </g>
      <g id="グループ_4584" data-name="グループ 4584">
        <path id="パス_27964" data-name="パス 27964" d="M113.313,44.711l-.384-.388-.481.006-.246-.41-.479-.022-.163-.317-.082-.263.323-.057-.058-.326.326-.062-.016-.364.308.412h.444l.214.392.446-.025.177.285.122.249-.31.106.107.313-.32.131Z" transform="translate(-111.478 -42.508)" fill="#26333b"/>
      </g>
    </g>
    <g id="グループ_4588" data-name="グループ 4588" transform="translate(110.286 42.053)">
      <g id="グループ_4586" data-name="グループ 4586" transform="translate(0.568 0.19)">
        <path id="パス_27965" data-name="パス 27965" d="M108.838,39.9l.1-.454-.335-.326.128-.447-.313-.345-.072-.394.3.353-.143.439.323.333-.115.449.345.319.065.768.567.525.242.732.661.4.433.712-.6-.552-.309-.708-.621-.462-.162-.754Z" transform="translate(-108.348 -37.938)" fill="#26333b"/>
      </g>
      <g id="グループ_4587" data-name="グループ 4587">
        <path id="パス_27966" data-name="パス 27966" d="M110.723,43.43l-.483-.756-.7-.45-.275-.784-.594-.577-.086-.822-.339-.3.117-.438-.322-.318.142-.43-.3-.333.227-.053-.232.027.227-.054-.232.026.228-.052-.233.022.226-.06-.233.02.227-.056-.14-.116.267.192.189-.267.27.192.195-.268.213.187.221.244-.147.422.319.316-.12.432.338.3.044.712.54.47.21.682.622.357.285.561.048.242-.327.014.019.325-.343.033Z" transform="translate(-107.861 -37.775)" fill="#26333b"/>
      </g>
    </g>
    <g id="グループ_4591" data-name="グループ 4591" transform="translate(110.123 40.242)">
      <g id="グループ_4589" data-name="グループ 4589" transform="translate(0.584 0.121)">
        <path id="パス_27967" data-name="パス 27967" d="M108.6,38.166l-.054-.366-.274-.347.2-.391-.249-.364,0-.375.235.373-.217.381.262.354-.189.4Z" transform="translate(-108.223 -36.324)" fill="#26333b"/>
      </g>
      <g id="グループ_4590" data-name="グループ 4590">
        <path id="パス_27968" data-name="パス 27968" d="M107.956,38.408l.1-.492-.274-.342.2-.388-.252-.358.226-.371-.233-.025.233-.022-.233-.027.233-.021-.119-.141.23.236.233-.23.232.236.238-.23.229.236.121-.094-.233.018.233.025-.233.018.233.022-.227.333.25.318-.2.351.27.3-.134.252-.139.247-.265-.193-.194.268-.292-.186Z" transform="translate(-107.721 -36.22)" fill="#26333b"/>
      </g>
    </g>
    <g id="グループ_4594" data-name="グループ 4594" transform="translate(123.967 30.387)">
      <g id="グループ_4592" data-name="グループ 4592" transform="translate(0.225 0.523)">
        <path id="パス_27969" data-name="パス 27969" d="M119.8,28.211l.229.3.349-.143.214.31.356-.126.2.321-.278-.1-.208-.316-.353.134-.221-.305Z" transform="translate(-119.797 -28.211)" fill="#26333b"/>
      </g>
      <g id="グループ_4593" data-name="グループ 4593">
        <path id="パス_27970" data-name="パス 27970" d="M121.1,29.463l-.316-.286-.344.13-.2-.308-.336.146-.123-.2-.174-.233.281-.168-.17-.284.282-.173-.15-.327.36.26.361-.139.226.314.37-.122.142.226.145.246-.3.134.136.3-.307.163Z" transform="translate(-119.604 -27.762)" fill="#26333b"/>
      </g>
    </g>
    <g id="グループ_4597" data-name="グループ 4597" transform="translate(119.549 49.512)">
      <g id="グループ_4595" data-name="グループ 4595" transform="translate(0.164 0.565)">
        <path id="パス_27971" data-name="パス 27971" d="M116.6,44.7l-.119-.006-.145.223-.108-.244-.157.217-.118-.016.146-.215.105.246.151-.22.111.242Z" transform="translate(-115.952 -44.662)" fill="#26333b"/>
      </g>
      <g id="グループ_4596" data-name="グループ 4596">
        <path id="パス_27972" data-name="パス 27972" d="M116.711,45.511l-.245-.151-.156.222-.118-.245-.167.216-.013-.142-.2-.234.262-.2-.2-.265.263-.2-.194-.285.218.167.146-.218.1.243.134-.224-.007.137.222.219-.243.22.223.245-.241.252Z" transform="translate(-115.812 -44.178)" fill="#26333b"/>
      </g>
    </g>
    <g id="グループ_4600" data-name="グループ 4600" transform="translate(93.167 11.854)">
      <g id="グループ_4598" data-name="グループ 4598" transform="translate(0.584 0.583)">
        <path id="パス_27973" data-name="パス 27973" d="M145.473,50.035l.172-2.7-.283-2.689.186-2.7-.281-2.689.175-2.7-.259-2.766.237-2.772-.28-2.766.055-2.779-.624-2.706.164-.334-.306-.212.092-.362-.357-.1-.086-.36-.346.115-.239-.275-.3.205-.24-.27-.339.132-.167-.4-.4-.175.075-.433-.332-.282.093-.429-.453-.395-.079-.593-.492-.345-.089-.591-.468-.375-.022-.527-.452-.271-.079-.518-.463-.248-.07-.523-.516-.35-.158-.6-.548-.3-.218-.584-.573-.241-.344-.478-.591.1-.531-.266-.548.235-.541-.241-.591.2-.565-.263-.588.206-.571-.252-.583.223-1.165-.238-1.166.235-1.167-.224-1.165.242-1.167-.225-.647.295-.708-.012-.424.566-.607.358-.113.7-.541.651-.121.838-.553.64-.139.835-.567.628-.13.744-.56.51-.161.736-.557.511-.121.743-.47.093-.374.305-.437-.221-.433.22-.425-.238-.514.263-.541-.2-.513.263-.542-.2-.511.266-1.068-.161-1.036.31-1.071-.148L111,22.01l-1.074-.126-.446.254-.4-.3-.5-.04-.055-.5-.361-.353.05-.65-.456-.464-.15-.635L107,18.977l-.475-.442-.366.181-.324-.246-.33.239-.345-.221-.33.234-.525-.234-.518.25-.539-.2-.514.263-.536-.206-.647.373-.708.237-.186.729-.458.6.055.755-.309.216.092.365L99.682,22l-.017.379-.353-.054-.811.369-.88-.147-.845.282-.874-.2-.842.274-.115-.226-.076.241-.136-.213-.035.249-.181-.177-.058.334-.329.084.135.315-.275.2.205.275-.344,1.657.16,1.683L93.741,29l.233,1.675-.2,1.68.257,2.182-.27,2.186.175,2.2L93.668,41.1l.249,2.183-.193,1.73.256,1.72-.209,1.722.273,1.715L93.881,51.9l.3,1.24L94.024,54.4l.325,1.226-.121,1.268.365,1.221-.142.422.387.191.2.38.411-.16.373.235,1.865-.309,1.883.163,1.868-.292,1.882.186,1.872-.26,3.521.211,3.518-.242,3.52.23,3.518-.24,3.52.217,3.022-.261,3.027.195,3.021-.275,3.028.189,3.021-.273,1.171.232,1.173-.22,1.169.24,1.165-.253,1.181.165.722-.39.8-.209.287-.769.445-.687-.2-.8.155-1.153-.312-1.121.158-1.153-.294-1.125ZM124.687,14.591l.363-.068.129-.343.352.115.221-.295.313.193,1.919-.346,1.946.14,1.93-.282,1.934.248,1.947-.132.115.243.167-.213.089.255.2-.181.022.268.227-.127-.064.252.248-.077-.1.24.255-.054.453,1.047.774.833.334,1.087.742.86.375,1.073.411.278-.008.5.405.3-.021.51.247.468-3.751-.233-3.748.233-3.746-.233-3.749.233-3.7-.223.422-1.276.786-1.242.363-1.425.8-1.229Zm-21.659,5.3.439.232.438-.233.438.233.438-.234.438.233.158-.233.147.239.181-.214.1.259.224-.168.054.3.295-.055-.051.3.3.035-.127.274.283.1-.176.243.264.143-.2.224.254.161-.228.051.233.021-.233.007.216.09L106.7,21.8l.137.188L106.7,21.8l.045.23-.072-.223v.234l-.684-.155-.629.312-.678-.163-.643.273-.657-.237-.381.214-.359-.255-.384.21-.352-.255-.466.164.195-.651-.1-.626.5-.375.37-.5Zm41.129,34.248-.244,1.007.125,1.03-.74.638-.916.431-1.015-.209-2.493.23-2.494-.207-2.486.282-2.5-.165-2.483.313-.848-.2-.833.262-.849-.2-.833.263-.85-.2-1.424.282-1.433-.193-1.42.261-1.43-.217-1.43.239-3.453-.254-3.449.192-3.446-.254-3.439.278-3.447-.076-.736.242-.75-.206-.727.271-.755-.189-.73.275-.092-.23-.09.231L96.4,57.82l-.149.2.048-.24-.23.092.16-.19-.248-.013.211-.136-.243-.057-.153-4.153-.446-4.131.144-4.155-.242-4.149.261-4.149L95.3,34.51l.27-2.226L95.4,30.044l.319-2.219-.107-2.239.278-.46-.108-.527.463-.239.339-.395.513.168,3.725-.442,3.751,0,3.721-.471,3.75,0,3.722-.46,2.859.108,2.837-.283,2.839.226,2.842-.237,2.846.2,1.574-.264,1.589.214,1.59-.226,1.576.282,1.6-.113.982.214.968-.313,1,.186,1.01-.15.736.637.311.073-.146.285.271.17-.209.245.245.207-.09,2.278.425,2.239-.037,2.278.384,2.245-.172,2.275.372,2.186-.13,2.209.308,2.191-.178,2.207.277,2.195-.223,1.525.216,1.526-.263,1.519.2,1.527Z" transform="translate(-93.668 -12.354)" fill="#26333b"/>
      </g>
      <g id="グループ_4599" data-name="グループ 4599">
        <path id="パス_27974" data-name="パス 27974" d="M95.71,59.854l-.481-.276-.552.051-.246-.494-.446-.322.112-.549-.366-1.229.12-1.273-.324-1.233.155-1.271-.3-1.247.186-1.053L93.3,49.922l.209-1.049-.249-1.04L93.48,46.8l-.242-.678.224-.682-.245-.677.219-.689-.252-.68.214-1.082-.232-1.082.248-1.078-.209-1.089.261-1.075-.2-1.111.257-1.106L93.3,34.654l.232-1.1-.256-1.1.2-1.693-.233-1.688.27-1.682-.158-1.7.345-1.668-.19-.4.313-.305-.061-.435.41-.149.171-.4.226.156.073-.264.19.2.122-.249.151.223.21-.245.234.223.213-.243.234.224.216-.241.629.206.606-.266.638.183.586-.3.656.121-.034-.305.283-.028-.139-.248.277-.069-.177-.224.435-.785.1-.9.692-.569.6-.664.9.054.158-.241.181.225.156-.242.183.223.156-.242.375.211.353-.25.374.219.363-.24.362.235.1-.232.1.233.1-.235.111.23.1-.237.256.225.25-.237.248.242.278-.207.212.274.771.052.432.641.621.457.1.772.429.631-.141.346.333.122.141.32.3-.213.3.212L111,21.28l1.075.137,1.035-.318,1.078.155,1.046-.3.542.2.514-.266.542.2.514-.263.541.2.09-.238.1.233.107-.231.1.237.123-.228.206.239.213-.23.22.23.2-.249.312.126-.045-.447.375-.216-.027-.435.388-.205-.014-.438.37-.172-.033-.408.368-.178L120.9,18l.362-.195.144-.825.555-.623.127-.83.544-.64.115-.841.587-.6.351-.76.793-.256.689-.471.824.153.35-.235.354.231.359-.235.363.23.359-.235.813.226.81-.239.811.23.812-.233.81.238.562-.224.551.252.567-.209.545.262.571-.2.01.234.04-.231.01.233.042-.231.012.234.126-.227.114.235.12-.233.125.232.12-.235.506.234.525-.2.459.32.56-.031.281.483.594.261.236.6.565.319.176.624.531.373-.1.267.287.007-.1.269h.285l-.093.269.373.123-.01.394.369.142-.037.393.357.178-.1.318.32.094-.078.324.324.08-.068.327.366.144-.033.394.361.161-.057.39.347.193-.176.188.256.022-.185.179.256.035-.19.176.277.108-.16.248.284.065-.087.278.276-.08.007.249.137-.21.055.243.12-.221.077.241.216-.213.154.257.238-.186.113.282.276-.127.178.421.425.158-.024.458.345.3-.142.432.548,1.982-.044,2.056.326,2.03-.2,2.047.232,2.042-.234.748.233.748-.231.751.241.743-.219.747.262,1.279-.206,1.29.256,1.282-.21,1.29.254,1.282-.209,1.412.257,1.4-.205,1.413.262,1.4-.2,1.413.116-.119v.233l.117-.12-.2.861.274.842-.182.871.289.839-.174.862.252.26-.214.292.253.268-.213.3.252.268-.273.96-.078.995-.77.626-.71.693-1-.016-.77.284-.8-.205-.785.242-.791-.235-.785.225-.388-.238-.394.23-.389-.235-.39.233-.394-.231-1.125.247-1.132-.218-1.125.249-1.132-.218-1.127.249-1.9-.205-1.892.259-1.9-.209-1.893.254-1.9-.217-1.637.242-1.639-.226-1.637.237-1.638-.231-1.638.235-1.882-.232-1.879.237-1.882-.227-1.88.242-1.882-.219-1.868.261-1.872-.188-1.863.292L97.8,59.541l-1.873.309-.048-.231-.031.233L95.8,59.62l-.04.234Zm8.917-40.47-.292-.23-.282.241-.3-.219-.277.248-.3-.214-.161.243-.189-.223-.161.242-.186-.224-.162.241-.6-.091-.266.542-.46.391.051.609-.359.5.092.477-.395.289-.048.488-.467.128-.3.383-.689-.115-.624.311-.676-.178-.645.269-.665-.205-.211.241-.23-.224-.209.242-.23-.223-.2.245-.066-.228-.035.237L95,23.348l-.014.238-.123-.205.086.255-.26.048.2.172-.249.1.219.157-.343,1.643.16,1.671-.269,1.657.233,1.663-.2,1.667.256,1.111-.232,1.122.218,1.122-.257,1.118.2,1.125-.261,1.061.209,1.078-.248,1.07.232,1.065-.214,1.07.252.682-.219.694.245.683L94.4,46.1l.242.679-.219,1.035.249,1.024-.21,1.039.266,1.025-.188,1.047.3,1.235-.156,1.255.324,1.222-.121,1.257.363,1.212-.2.242.283.033.113.271.213-.221.211.226.059-.235.078.23.061-.235.078.231-.038-.174.09-.075-.153.186.056-.234-.177.163.085-.226-.294.04.089-.283L95.525,58l.179-.235-.256-.141L95.3,53.6l-.446-4,.137-4.021-.249-4.014L95,37.556l-.232-.148L95,37.264l-.232-.147.234-.15-.232-.154.257-2.238-.195-2.246L95.13,30.1l-.147-2.24.358-2.214-.157-.676.416-.542.241-.638.682-.062.609-.325,2.259.11,2.232-.363,2.259.1,2.231-.374,2.259.09,1.476-.327,1.5.137,1.476-.326,1.505.141,1.476-.322,1.772.146,1.75-.288,1.763.2,1.756-.243,1.757.231,1.088-.233,1.089.231,1.083-.239,1.094.221,1.088-.253,1.6.2,1.6-.252,1.6.241,1.607-.183,1.575.353.281-.221.276.225.253-.249.284.212.26-.255.828.17.807-.261.795.287.847,0,.492.669.351.127-.107.357.292.23L143.5,24l.249.274-.182.941.295.913-.16.947.311.911-.149.944.35,1.314-.125,1.356.322,1.322-.172,1.35.255,1.334-.093,2.2L144.731,40l-.158,2.209.287,2.19-.188,2.2.243.9-.234.908.223.911-.249.905.213.908-.246.614.221.623-.243.615.225.621-.221.562-.013.172-.112-.233-.115.233-.12-.233-.121.233h.114l.113-.233.114.233.121-.233.12.234h-.114l-.112-.233-.115.233-.12-.233-.09.228.082.006.115-.231.111.235.125-.231.016.174.217.576-.249.622.171.647-.384.535-.157.641-.591.128-.46.389-.584-.155-.551.261-.567-.228-2.49.231-2.49-.207-2.484.282-2.491-.165-2.477.312-.843-.2-.832.262-.849-.2-.835.263-.852-.2-.2.24-.211-.225-.195.239-.209-.226-.2.007,1.709.217,1.7-.253,1.709.211,1.7-.257,1.711.207,1.127-.249,1.132.218,1.127-.249,1.132.218,1.128-.247.4.231.395-.233.4.235.4-.23.395.238.763-.225.764.235.764-.241.775.206.75-.282.649.1.4-.507.534-.365-.068-.649.245-.6-.25-.259.213-.292-.252-.266.213-.3-.252-.267.172-.873-.289-.847.182-.878L145,51l.2-.875-.117-.113v.233l-.116-.113.2-1.416-.262-1.405.205-1.414-.257-1.406.209-1.413-.254-1.28.211-1.289-.257-1.279.206-1.29-.262-1.278.219-.754-.241-.747.231-.754-.233-.755.234-.758-.232-2,.2-2-.322-1.985.051-2.01-.537-1.936.188-.235L144,22.606l.155-.26-.292-.056.019-.3-.177.179-.036-.247-.126.217-.071-.242-.123.223-.149-.248-.205.209-.13-.263-.239.171-.078-.284-.439,0-.1-.426-.395-.188.066-.433-.334-.276.2-.15-.248-.013.195-.154h-.248l.185-.165-.331-.156.075-.355-.342-.126.051-.361-.35-.118.056-.348-.338-.1.065-.346-.333-.118.087-.34-.338-.14.057-.359-.35-.107.033-.362-.355-.1.087-.28-.294-.01.09-.278-.292-.019.1-.277-.5-.325-.142-.579-.529-.274-.2-.563-.553-.221-.162-.361-.379.144-.3-.263-.337.225-.34-.231-.134.234-.141-.232-.139.232-.128-.235-.141.227-.012-.233-.037.231-.013-.234-.04.232-.014-.234-.559.2-.534-.261-.557.209-.539-.252-.55.224-.807-.238-.807.233-.807-.23-.805.239-.809-.226-.354.235-.354-.231-.358.237-.362-.231-.36.235-.558-.183-.437.381-.569.108-.163.559-.454.366-.117.846-.552.657-.133.842-.562.636-.15.835-.368.209.036.422-.376.193.026.422-.379.185.015.436-.384.2.027.431-.376.21.048.428-.468.217-.311.411-.5-.139-.456.253-.463-.246-.1.23-.077-.237-.091.231-.085-.234-.068.237-.539-.2-.511.263-.541-.2-.511.266-.542-.2-1.037.3-1.065-.155-1.03.317-1.065-.137-1.017.337-.629-.216-.651.1-.394-.521-.535-.37.016-.663-.358-.4.035-.536-.446-.287-.184-.5-.528.021-.151-.261-.207.219-.189-.237-.19.237-.206-.227-.112.237-.125-.23-.114.234-.118-.232-.115.233-.051-.234-.058.232-.051-.234-.056.233Zm2.909,38.978-1.007-.231-1,.242-1.005-.216-1,.259-1.011-.2.555-.013.553.223.545-.242.55.225.545-.239,1.021.225,1.017-.24,1.021.228,1.017-.238,1.022.23-.572,0-.564-.238-.566.228-.562-.234Zm16.29-34.886-1.59-.23-1.586.247-1.59-.2-1.581.287-1.6-.153-1.475.322-1.5-.141-1.474.326-1.5-.137-1.474.327-2.263-.09-2.233.374-2.263-.1-2.235.363-2.261-.11-.295.26-.382-.089.055.384-.275.269.207.334-.357,2.205.147,2.225L96,32.369,96.2,34.6l-.256,2.224.232.148-.233.144.232.147-.234.15.232.155-.256,3.981.248,3.987-.139,3.993.444,3.969.14,3.991.231-.037-.227.051.23-.037-.231.031.1-.125.2.213.153-.25.2.213.158-.252.207.212.543-.266.567.2.548-.256.569.217.555-.238,2.388.11,2.374-.3,2.38.217,2.383-.22,2.379.26,1.067-.22,1.057.245,1.067-.224,1.061.239,1.079-.231,1.431.228,1.42-.249,1.428.205,1.414-.273,1.428.184.827-.263.849.2.833-.263.853.2.837-.263,2.5.154,2.491-.3,2.5.185,2.5-.26,2.5.234.379-.237.387.221.36-.26.414.168.223-.35.361-.294-.179-.467.252-.429-.227-.449.234-.445h0l-.233,0,.233,0-.233,0,.237-.622-.225-.627.243-.62-.221-.628.246-.619-.213-.9.248-.892-.223-.9.234-.9-.242-.9.189-2.195-.288-2.188.16-2.2-.336-2.183.094-2.2-.255-1.32.174-1.337-.322-1.313.126-1.349-.348-1.294.149-.952-.312-.917.16-.959-.3-.926.182-.954-.24-.136.219-.174-.253-.118.188-.206-.27-.022-.395-.423-.6.174-.58-.231-.569.264-.6-.186-.3.259-.332-.209-.3.249-.317-.228-.326.216-1.53-.348-1.566.184-1.56-.24-1.557.25-1.561-.2-1.107.254-1.108-.221-1.109.24-1.1-.232-1.1.233-.156-.233-.157.233-.156-.233-.155.233Zm-20-.5-.077-.233-.08.232-.075-.234-.085.23-.07-.235-.206.224-.181-.243-.207.221-.179-.245-.207.22-.162-.243-.19.221-.161-.242-.185.223-.161-.241-.1.228-.085-.237-.107.228-.092-.237-.183.2.179-.2-.242-.064.219-.126-.245-.072.219-.13L100.9,21.8l.26-.425-.133-.481.382-.316.061-.493.411-.068.168-.38.407.086.291-.3.366.209.436-.234.432.233.44-.233.442.232.442-.233.2.234.212-.221.172.256.254-.181.115.289.358-.066.072.357.36.054-.038.363.332.151-.143.289.283.154-.183.268.263.183-.2.248.241.1-.24.1.2.167-.26.021.128.228-.253-.071.04.259L107,22.421l-.044.257-.162-.21-.146.25-.2-.212-.141.252-.2-.211-.139.253-.45-.179-.4.278-.447-.192-.416.259Zm-1.533-1.4-.045.16.085-.228.057.238.085-.228.057.237.2-.22.175.243.2-.221.178.242.2-.224.465.241.458-.252.484.195.435-.283.5.174.059-.241.117.22.059-.242.118.22-.015-.2.188-.026-.245-.022.205-.134h-.245l.192-.15-.254,0,.143-.211-.246.063.085-.238-.2.147-.033-.252-.137.216-.089-.24-.117.231-.111-.233-.436.233-.431-.232-.44.233-.443-.233-.442.234-.165-.225-.108.254-.218-.171-.013.274-.266-.072.1.255-.271.027.175.212-.257.093Zm38.4.49-3.923-.233-3.924.233-3.924-.233-3.931.233-3.915-.232.1-.459.443-.438.015-.623.443-.44.016-.624.63-.88.205-1.061.641-.876.221-1.056.657-.849-.1-.167v.233l-.106-.168.43-.19.2-.425.472.047.334-.332.435.175,1.936-.347,1.962.14,1.946-.283,1.95.249,1.962-.129.167.249.219-.2.132.268.256-.157.069.292.263-.1-.023.283.281-.05-.071.274.281-.022.217.691.57.442.154.707.541.482.121.706.415.271.009.5.421.267.026.5.431.249.084.612.468.395.023.614.4.471-.216.522.172.17-.236-.052.172.171-.239-.049.129.219-.13-.216-.066.234-.071-.233v.209Zm-17.852-1.4,3.388.233,3.4-.233,3.4.233,3.4-.233,3.405.233-.216-.291.1-.33-.32-.12.093-.332-.318-.1-.047-.511-.433-.274-.026-.515-.425-.287-.012-.507-.515-.456-.117-.679-.531-.433-.157-.666-.567-.382.14-.2-.226.091.126-.21-.217.113.082-.227-.169.181-.026-.246-.123.218-.064-.241-.1.227-1.89-.333-1.908.218-1.912-.185-1.892.323-1.917-.121-.158.252-.224-.195-.112.273-.255-.153v.252l-.651.839-.216,1.044-.631.856-.2,1.049-.624.866L123.3,20l-.3.112.125.3-.3.1Z" transform="translate(-93.167 -11.854)" fill="#26333b"/>
      </g>
    </g>
    <g id="グループ_4603" data-name="グループ 4603" transform="translate(108.514 28.654)">
      <g id="グループ_4601" data-name="グループ 4601" transform="translate(0.583 0.58)">
        <path id="パス_27975" data-name="パス 27975" d="M123.527,27.694l-.86-.47-.979.058-.915-.35-.969.146-.93-.306-.567.214-.569-.21-.534.289-.587-.148-.511.327-1.41.168-1.156.827-1.291.592-.938,1.07-1.2.765-.847,1.261-1.026,1.118-.432,1.455-.67,1.363-.019,1.518-.281.9.262.9-.12.933.422.84.058.938,1.25,1.974,1.306,1.936L112,47.031l1.967,1.264,2.272.569,2.056.622,2.118-.347,2.111-.39,1.772-1.217,1.837-1.117.725-.972,1-.679.579-1.061.833-.88.256-1.181.657-1.462.037-1.6.311-1.569-.327-1.566.02-1.6-.781-1.763-.878-1.715-1.605-1.073L125.4,28.161Zm5.568,10.332-.253.174.205.23-.259.165.2.234-.263.157.153.431-.313.331.127.437-.333.311.1.439-.344.268.082.426-.359.239.052.43-.372.206.04.4-.37.151.007.4-.379.111-.031.393-.806.507-.51.8-.859.41L124,46.4l-.91.271-.732.6-.945.085-.845.431-.94-.133-.922.225-.119-.226-.111.238-.123-.232-.126.232-.117-.238-.139.226-.111-.241-.151.22-.1-.247-.163.214-.239-.274-.32.176-.226-.29-.333.155-.213-.3-.442.1-.283-.351-.449.072-.263-.369-.454.044-.252-.387-.461.016-.231-.4-.464-.012-.2-.416-.4.006-.118-.379-.4-.015-.1-.383-.393-.036-.365-.682-.659-.4-.243-.734-.567-.524-.065-.768-.343-.315.113-.453-.323-.333.142-.444-.3-.348.176-.4-.274-.347.2-.39-.249-.363.232-.37-.23-.185.24-.17-.221-.192.246-.158L108.5,37l.33-.65-.075-.723.429-.59.043-.726.517-.513-.026-.418.383-.169.007-.419.395-.139.041-.419.416-.121.08-.424.423-.09.112-.418.431-.063.326-.55.622-.154.377-.515.635-.1.425-.482h.546l.363-.405.545.044.394-.375.536.093.1-.264.2.192.1-.261.2.2.107-.256.336.181.268-.27.322.2.282-.255.309.219.587-.234.572.266.609-.168.541.326.623-.1.228.3.35-.142.213.31.357-.126.2.32.659.012.47.465.655.064.435.5.651.11.036.3.288-.086.014.3.292-.066-.009.3.428.083.079.429.412.14.022.435.391.191.135.79.486.638-.028.8.364.715-.156.789.25.39-.23.4.224.407-.255.389Z" transform="translate(-106.84 -26.772)" fill="#26333b"/>
      </g>
      <g id="グループ_4602" data-name="グループ 4602">
        <path id="パス_27976" data-name="パス 27976" d="M119.009,50.175l-.579-.25-.606.177-.543-.322-.622.1-.5-.382-2.37-.6-2.054-1.321-2.062-1.308-1.368-2.02L107,42.182l-.073-.988-.433-.892.113-.984-.266-.957.283-.951.033-1.6.7-1.444.472-1.532,1.074-1.188.905-1.322,1.244-.809.991-1.108,1.349-.62,1.22-.847,1.473-.182.538-.332.619.144.565-.291.6.21.6-.212.045.238.082-.227.048.237.086-.227.051.238.927-.16.885.322.936-.108.852.4.941.013-.035.227v-.233l-.036.228,2,.518,1.666,1.21,1.691,1.174.936,1.827.813,1.885-.012,1.653.326,1.622-.318,1.625-.045,1.653-.671,1.518-.28,1.241-.859.936-.613,1.113-1.045.725-.769,1.011-1.453.861-1.293,1.087-1.618.479-1.55.663ZM118.44,27.65,118,27.431l-.416.269-.463-.176-.4.3-.467-.151-1.216.6-1.3.391-.974.947-1.18.669-.837,1.07-1.129.883-.591,1.307-.816,1.179-.2,1.421-.461,1.358.186.869-.205.864.336.824-.045.887.485.744.788,2.089,1.6,1.554,1.632,1.519,2.088.793,2.014.969,2.025.142,2.025.114,1.861-.809,1.884-.758,1.46-1.417.994-.586.631-.961.9-.714.412-1.073.663-.939.193-1.536.486-1.469-.157-1.537.139-1.534-.438-1.481-.305-1.776L128,30.938l-1.22-1.326-1.684-.651-1.595-.852-.889,0-.8-.387-.882.118-.832-.315-.874.164-.047-.237-.083.227-.047-.238-.087.226-.051-.238-.108.227-.08-.238-.1.23-.087-.235Zm.875,20.915-.111-.234-.115.231-.1-.237-.123.228-.108-.24-.11.242-.121-.23-.112.234-.119-.234-.132.23-.128-.241-.157.223-.119-.246-.168.216-.112-.249-.33.184-.249-.285-.346.161-.235-.3-.36.14-.315-.347-.458.083-.292-.368-.465.052-.277-.388-.479.021-.261-.4-.478-.007-.235-.418-.47-.033-.142-.386-.409-.015-.119-.39-.408-.037-.093-.394-.734-.393-.345-.754-.655-.514-.189-.805-.516-.647.1-.471-.339-.344.125-.465-.317-.362.155-.451-.289-.357.188-.419-.263-.374.216-.4-.237-.389.238-.185-.225-.2.243-.175-.217-.207.25-.163-.125-.763.39-.666,0-.772.493-.6.122-.762.388-.2,0-.438.4-.174.037-.437.416-.142.079-.444.433-.12.112-.437.442-.089.144-.43.634-.2.376-.55.649-.136.428-.514.664-.082.369-.431.566.014.4-.4.562.061.435-.363.216.186.107-.263.209.193.112-.261.2.2.274-.281.345.189.291-.264.334.209.308-.248.619.232.631-.2.588.3.649-.128.556.36.355-.148.234.309.365-.13.221.32.375-.113.506.453.678.048.467.49.676.1.437.523.3-.084.042.31.308-.064.02.312.31-.044.135.449.446.14.073.463.425.2.016.47.577.628.071.85.437.732-.086.85.313.8-.214.43.237.417-.242.416.209.433-.269.4.117-.1v.233l.115-.1-.254.183.205.237-.26.175.2.242-.266.167.15.446-.318.348.123.454-.339.329.1.459-.35.283.075.445-.367.259.043.449-.382.225.027.421-.383.171-.009.422-.4.133-.049.415-.835.537-.541.828-.891.436-.645.747-.944.29-.687.588-.9.084-.786.446-.9-.1Zm-.558-1.414.871.243.843-.318.9.038.746-.507.887-.163.637-.651.853-.325.527-.742.8-.438.444-.8.367-.071-.009-.372.359-.108-.042-.372.354-.147-.047-.411.357-.206-.077-.407.343-.233-.1-.407.337-.281-.119-.423.319-.3-.144-.416.3-.324-.2-.227.26-.154-.2-.223.255-.161-.211-.217.233.012h-.233l.232.012-.2-.4.254-.37-.224-.389.228-.386-.249-.368.162-.735-.353-.664.042-.751-.465-.588-.11-.741-.373-.16v-.405l-.388-.111-.051-.4-.4-.057.023-.285-.275.08,0-.287-.27.1-.019-.287-.634-.1-.414-.488-.641-.056-.446-.454-.637,0-.189-.317-.345.13-.2-.308-.336.146-.211-.295-.593.108-.51-.32-.578.17-.542-.263-.555.234-.294-.219-.264.253-.305-.2-.25.268-.316-.184-.1.255-.188-.2-.094.259-.2-.195-.087.262-.513-.1-.373.368-.52-.054-.341.4-.524-.012-.4.471-.61.08-.358.5-.6.137-.3.534-.414.047-.1.405-.409.076-.068.41-.4.1-.026.4-.383.121.006.4-.372.15.038.4-.5.47-.026.684-.414.544.084.679-.323.6.216.189-.246.149.224.181-.24.158.228.175-.231.354.248.34-.2.369.271.324-.178.386.3.336-.147.422.319.316-.121.432.339.3.044.713.539.47.21.683.622.357.324.641.379.024.083.373.383.006.1.368.386-.013.189.405h.444l.214.393.446-.026.242.382.436-.052.252.363.432-.078.271.346.415-.111.2.3.317-.16.207.285.306-.177.218.27.151-.216.093.246.14-.221.1.24.128-.226.1.237.113-.231.112.231.1-.237Z" transform="translate(-106.34 -26.274)" fill="#26333b"/>
      </g>
    </g>
    <g id="グループ_4606" data-name="グループ 4606" transform="translate(118.117 49.237)">
      <g id="グループ_4604" data-name="グループ 4604" transform="translate(0.247 0.517)">
        <path id="パス_27977" data-name="パス 27977" d="M116.127,44.922l-.239-.274-.321.175-.226-.29-.333.155-.213-.3.273.078.218.3.327-.165.235.283Z" transform="translate(-114.795 -44.385)" fill="#26333b"/>
      </g>
      <g id="グループ_4605" data-name="グループ 4605">
        <path id="パス_27978" data-name="パス 27978" d="M116.2,45.516l-.372-.22-.338.172-.244-.294-.35.151-.15-.213-.161-.237.289-.153-.156-.292.291-.159-.136-.33.322.258.318-.159.208.286.306-.178.122.18.2.218-.263.2.2.265-.265.225Z" transform="translate(-114.583 -43.942)" fill="#26333b"/>
      </g>
    </g>
    <g id="グループ_4609" data-name="グループ 4609" transform="translate(128.788 32.829)">
      <g id="グループ_4607" data-name="グループ 4607" transform="translate(0.398 0.46)">
        <path id="パス_27979" data-name="パス 27979" d="M124.083,30.252l.108.422.421.112.05.433.4.166.2.319-.392-.191-.022-.435-.412-.14-.079-.428Z" transform="translate(-124.083 -30.252)" fill="#26333b"/>
      </g>
      <g id="グループ_4608" data-name="グループ 4608">
        <path id="パス_27980" data-name="パス 27980" d="M124.721,32.234l-.086-.462-.382-.137-.026-.4-.394-.084-.044-.276-.049-.28.327-.019-.025-.324.333-.026.032-.367.251.47.447.14.074.462.425.2.015.353-.039.272-.316-.087-.088.319-.339-.071Z" transform="translate(-123.742 -29.858)" fill="#26333b"/>
      </g>
    </g>
    <g id="グループ_4612" data-name="グループ 4612" transform="translate(130.563 38.317)">
      <g id="グループ_4610" data-name="グループ 4610" transform="translate(0.592 0.154)">
        <path id="パス_27981" data-name="パス 27981" d="M125.97,36.717l.035-.4-.21-.414.242-.4-.237-.4-.018-.4.251.4-.229.4.224.407-.255.389Z" transform="translate(-125.773 -34.7)" fill="#26333b"/>
      </g>
      <g id="グループ_4611" data-name="グループ 4611">
        <path id="パス_27982" data-name="パス 27982" d="M126.549,36.9l-.247-.252-.253.208-.209-.256-.258.207-.173-.246-.143-.15.25-.229-.22-.258.241-.238-.23-.247.232-.139-.235-.133.229-.144-.239-.126.139-.028.191-.243.244.218.22-.247.25.218.245-.246-.125.271.239.141-.228.158.236.148-.232.153.23.272-.241.262.219.281-.252.253Z" transform="translate(-125.266 -34.568)" fill="#26333b"/>
      </g>
    </g>
    <g id="グループ_4615" data-name="グループ 4615" transform="translate(130.058 41.255)">
      <g id="グループ_4613" data-name="グループ 4613" transform="translate(0.556 0.193)">
        <path id="パス_27983" data-name="パス 27983" d="M125.676,37.255l-.075.382.14.434-.323.32.114.441-.121.371-.1-.441.333-.309-.128-.438.314-.33Z" transform="translate(-125.31 -37.255)" fill="#26333b"/>
      </g>
      <g id="グループ_4614" data-name="グループ 4614">
        <path id="パス_27984" data-name="パス 27984" d="M125.953,39.5l-.2-.3-.293.146-.146-.3-.3.144-.1-.267-.081-.307.328-.293-.132-.42.31-.313-.079-.5.241.266.268-.188.19.271.273-.187.136.245.111.337-.318.348.123.454-.338.328Z" transform="translate(-124.832 -37.09)" fill="#26333b"/>
      </g>
    </g>
    <g id="グループ_4618" data-name="グループ 4618" transform="translate(120.223 48.837)">
      <g id="グループ_4616" data-name="グループ 4616" transform="translate(0.132 0.501)">
        <path id="パス_27985" data-name="パス 27985" d="M116.5,45.042l.125,0,.126-.232.125.232.112-.237.118.226.922-.225.939.133.846-.431.944-.085.841-.4-.931.184-.792.524-.947-.023-.891.33-.921-.24-.12.24-.127-.229-.118.234-.12-.234Z" transform="translate(-116.503 -44.028)" fill="#26333b"/>
      </g>
      <g id="グループ_4617" data-name="グループ 4617">
        <path id="パス_27986" data-name="パス 27986" d="M117.656,45.705l-.11-.234-.116.231-.1-.236-.123.228-.108-.24-.11.242-.121-.229-.112.234-.119-.234-.242.129.24-.241-.224-.239.242-.226-.224-.244.239-.209V44.3l.108.234.106-.234.116.229.105-.24.871.245.843-.318.9.038.746-.507.812-.151.23.031-.1.313.316.1-.094.318.321.2-.94.225-.738.521-.9,0-.827.363Z" transform="translate(-116.39 -43.598)" fill="#26333b"/>
      </g>
    </g>
    <g id="グループ_4621" data-name="グループ 4621" transform="translate(129.423 43.056)">
      <g id="グループ_4619" data-name="グループ 4619" transform="translate(0.52 0.266)">
        <path id="パス_27987" data-name="パス 27987" d="M125.286,38.864l-.124.343.082.426-.359.24.053.429-.168.319-.037-.429.366-.224-.068-.426.35-.251Z" transform="translate(-124.733 -38.864)" fill="#26333b"/>
      </g>
      <g id="グループ_4620" data-name="グループ 4620">
        <path id="パス_27988" data-name="パス 27988" d="M125.25,41l-.143-.329-.314.093-.093-.317-.319.09-.055-.283-.04-.288.357-.206-.077-.407.343-.232-.008-.484.2.3.293-.146.147.3.3-.144.1.265.065.324-.359.274.06.445-.377.246Z" transform="translate(-124.287 -38.635)" fill="#26333b"/>
      </g>
    </g>
    <g id="グループ_4624" data-name="グループ 4624" transform="translate(116.266 48.53)">
      <g id="グループ_4622" data-name="グループ 4622" transform="translate(0.309 0.514)">
        <path id="パス_27989" data-name="パス 27989" d="M114.981,44.709l-.3-.341-.443.087-.275-.361-.45.058-.257-.378.35.164.266.37.448-.072.288.352Z" transform="translate(-113.259 -43.775)" fill="#26333b"/>
      </g>
      <g id="グループ_4623" data-name="グループ 4623">
        <path id="パス_27990" data-name="パス 27990" d="M114.969,45.313l-.429-.319-.457.082-.291-.367-.465.052-.212-.293-.121-.245.31-.106L113.2,43.8l.312-.111-.071-.357.358.358.438-.064.259.354.43-.092.191.243.159.232-.29.152.155.293-.3.179Z" transform="translate(-112.994 -43.334)" fill="#26333b"/>
      </g>
    </g>
    <g id="グループ_4627" data-name="グループ 4627" transform="translate(119.589 30.046)">
      <g id="グループ_4625" data-name="グループ 4625" transform="translate(0.193 0.544)">
        <path id="パス_27991" data-name="パス 27991" d="M116.012,28.323l.3-.049.267-.271.322.2.282-.255.3-.014-.288.246-.316-.21-.274.263-.328-.191Z" transform="translate(-116.012 -27.935)" fill="#26333b"/>
      </g>
      <g id="グループ_4626" data-name="グループ 4626">
        <path id="パス_27992" data-name="パス 27992" d="M116.026,28.92l.173-.308-.27-.186.188-.272-.271-.191.186-.225.181-.194.344.189.291-.265.334.208.414-.183-.213.285.241.222-.225.243.241.228-.218.2-.167.169-.3-.211-.258.261-.312-.193Z" transform="translate(-115.846 -27.469)" fill="#26333b"/>
      </g>
    </g>
    <g id="グループ_4630" data-name="グループ 4630" transform="translate(129.872 34.398)">
      <g id="グループ_4628" data-name="グループ 4628" transform="translate(0.499 0.357)">
        <path id="パス_27993" data-name="パス 27993" d="M125.1,31.511l.129.776.486.639-.028.8.363.716-.139.843-.092-.811.1-.8L125.493,33l-.049-.8Z" transform="translate(-125.101 -31.511)" fill="#26333b"/>
      </g>
      <g id="グループ_4629" data-name="グループ 4629">
        <path id="パス_27994" data-name="パス 27994" d="M125.422,35.4l.124-.814-.353-.664.042-.751-.465-.588-.1-.654.027-.245.316.087.087-.319.32.084.183-.329.225.89.507.687-.012.853.373.77-.129.768-.126.2-.244-.218-.22.247-.266-.216Z" transform="translate(-124.672 -31.204)" fill="#26333b"/>
      </g>
    </g>
    <g id="グループ_4633" data-name="グループ 4633" transform="translate(113.886 30.489)">
      <g id="グループ_4631" data-name="グループ 4631" transform="translate(0.234 0.558)">
        <path id="パス_27995" data-name="パス 27995" d="M116.07,28.42l-.536-.092-.4.375-.541-.046-.365.407h-.546l-.425.483-.634.095-.382.518-.621.152-.473.371.613-.184.354-.534.627-.122.4-.5.639-.069.349-.421.544.023.382-.392.539.069Z" transform="translate(-111.152 -28.328)" fill="#26333b"/>
      </g>
      <g id="グループ_4632" data-name="グループ 4632">
        <path id="パス_27996" data-name="パス 27996" d="M111.609,31.414l-.034-.365-.326-.028.034-.324-.332-.035L111,30.4l.3-.48.645-.17.4-.53.659-.11.449-.495.568-.009.385-.416.567.036.417-.382.457.063.243.1-.169.281.284.17-.167.286.281.237-.595-.023-.373.368-.519-.054-.342.4-.524-.011-.4.47-.61.081-.359.5-.6.137Z" transform="translate(-110.951 -27.849)" fill="#26333b"/>
      </g>
    </g>
    <g id="グループ_4636" data-name="グループ 4636" transform="translate(111.482 34.281)">
      <g id="グループ_4634" data-name="グループ 4634" transform="translate(0.321 0.565)">
        <path id="パス_27997" data-name="パス 27997" d="M109.163,32.891l.377-.185-.01-.419.39-.154.023-.418.4-.126-.217.268-.4.14-.007.42-.384.17Z" transform="translate(-109.163 -31.589)" fill="#26333b"/>
      </g>
      <g id="グループ_4635" data-name="グループ 4635">
        <path id="パス_27998" data-name="パス 27998" d="M109.812,33.426l-.136-.329-.314.092-.093-.318-.319.09-.052-.28-.011-.318.4-.188.02-.438.41-.157.167-.476.076.351.326-.03.023.325.333-.024,0,.293-.009.275-.383.122.006.4-.372.151Z" transform="translate(-108.887 -31.104)" fill="#26333b"/>
      </g>
    </g>
    <g id="グループ_4639" data-name="グループ 4639" transform="translate(110.129 39.297)">
      <g id="グループ_4637" data-name="グループ 4637" transform="translate(0.582 0.159)">
        <path id="パス_27999" data-name="パス 27999" d="M108.455,36.462l0-.183-.226-.189.243-.165-.218-.2.018-.185.214.206-.246.159.222.192-.24.17Z" transform="translate(-108.226 -35.546)" fill="#26333b"/>
      </g>
      <g id="グループ_4638" data-name="グループ 4638">
        <path id="パス_28000" data-name="パス 28000" d="M109.029,36.6l-.253-.234-.234.229-.231-.237-.239.229-.2-.232-.144-.082.241-.181-.221-.2.247-.17-.116-.312.233.255.254-.207.209.257.259-.206.183.251.139.067-.245.148.223.181-.24.159Z" transform="translate(-107.726 -35.409)" fill="#26333b"/>
      </g>
    </g>
    <g id="グループ_4642" data-name="グループ 4642" transform="translate(115.088 34.206)">
      <g id="グループ_4640" data-name="グループ 4640" transform="translate(0.583 0.587)">
        <path id="パス_28001" data-name="パス 28001" d="M112.482,37.853l.454-1.629.437-1.635,1.2-1.2,1.194-1.2,1.653-.347.6-.306.633.228.652-.167.572.354.672-.04.38.435.559.139.182.548.5.291.094.572.749,1.5-.205,1.685-.084,1.7-.846,1.468-.885,1.441-1.063.355-.981.542-1.111-.149-1.117.1-.994-.523-1.117-.28-.73-.888-.847-.776-.181-1.135Zm8.915-1.135.175-.853-.419-.764-.139-.863-.711-.494-.621-.606-.853.1-.841-.165-.743.435-.854.1-.612.6-.853.374-.373.85L114,36.18l.126.92-.114.923.463.669.15.8.663.47.466.665.806.078.743.373.81-.185.821.136.652-.508.751-.346.132-.591.475-.374.021-.607.414-.444-.075-.6.262-.121-.205-.206.25-.146-.22-.192Z" transform="translate(-112.482 -31.544)" fill="#26333b"/>
      </g>
      <g id="グループ_4641" data-name="グループ 4641">
        <path id="パス_28002" data-name="パス 28002" d="M118.054,43.338l-.5-.253-.531.172-.456-.324-.551.1-.411-.38-1.244-.344-.838-.979-.931-.89-.232-1.266-.381-1.231.117.115v-.233l.117.115.027-1.848.931-1.6.927-1.6,1.6-.925,1.652-.831.715.147.69-.238.664.3.725-.091.6.424.638.036.343.536.578.264.169.614.52.366.4,1.827.29,1.854-.559,1.8-.489,1.815-1.356,1.275-.464.581-.736.093-.6.437-.736-.1Zm-4.674-5.41-.113,1.005.559.84.39.933.913.433.793.634,1.007.048.947.353.965-.295,1.007-.058.733-.7,1.1-1.018.334-1.488.507-1.439-.236-1.5-.241-1.5-.443-.253-.07-.506-.469-.191-.2-.465-.506.01-.481-.388-.607.112-.544-.291-.57.235-.594-.162L116.218,33l-1.34.737-.722,1.351-.8,1.307.022,1.529-.117.118v-.233Zm4.743,3.864-.324-.242-.344.205-.3-.275-.365.174-.287-.3-.926-.118L115,40.5l-.749-.559-.22-.911-.506-.788.1-1.067-.108-1.066.61-.878.461-.966.967-.465.7-.65.946-.134.843-.451.94.172.953-.072.763.664.83.581.227.991.467.9-.161,1.005h0l.233,0-.239.192.218.214-.253.174.2.228-.266.143.061.651-.433.494-.045.656-.5.421-.163.635-.586.26-.372.52-.64,0-.538.348Zm.7-7.89-.594-.183-.51.357-.621-.028-.428.456-.62.086-.456.649-.65.449-.073.784-.312.723.33.719-.023.69.5.48.2.662.645.238.51.463.7-.1.651.284.643-.287.7,0,.363-.6.478-.278.042-.555.422-.363-.042-.555.36-.425-.2-.189.253-.112-.216-.174.242-.135-.228-.162.117.118v-.233l.117.119-.275-.675.079-.726-.479-.548-.23-.691-.7-.157-.082-.263-.192.2-.117-.252-.168.221Z" transform="translate(-111.982 -31.04)" fill="#26333b"/>
      </g>
    </g>
  </g>
</svg>
