<svg xmlns="http://www.w3.org/2000/svg" width="57.466" height="49.024" viewBox="0 0 57.466 49.024">
  <path id="icon_nyuen" d="M3246.77,3085.249c.869-.5,1.164-.058,2.079-.268a8.688,8.688,0,0,1,2.027-.437c.647,0,1.287.13,1.935.126a17.031,17.031,0,0,0,2.615-.723,8.637,8.637,0,0,1,1.037-.061,11.308,11.308,0,0,0,3.695-.445l.749-.38.909.192v-.966c0,.261.661-1.237.659-1.232.2-.524.612-1,.829-1.56a3.434,3.434,0,0,0,.136-.647c.294-1.651,2.29-4.005,3.628-5a10.681,10.681,0,0,1,4.005-1.7c3.323-.744,8.425-.347,10.794,2.361,1.648,1.884,2.375,4.385,3.973,6.244l.3.75.289.755.692.421.756.1.861.346.838-.27.833-.437.847.024.834-.222.84-.03.838-.051.883.348.889.216.724-.388a9.362,9.362,0,0,1,3.022.789.6.6,0,0,1,.085.329c.108,1.72.318,3.431.528,5.142.705,5.752,1.654,11.426,2.228,17.2a22.41,22.41,0,0,0,.593,3.6,2.461,2.461,0,0,1,.042,1.763l.01.811-.08.817-.278.828.046.8.292.869-.665.6-.24.758-.606.526-.63.662-.852.149-.79.482-.9-.47-.793.26a23.349,23.349,0,0,1-2.733.221c-.941.165-2.924.785-3.758.056l-.811-.709-.81.469-.812.4-.811,0-.809-.259c-.745-.538-1.21.063-1.9.078-1.263.027-2.848-.259-4.237-.219-3.377.1-6.749.337-10.121.538-1.1.066-2.147.232-3.226.37-.142.018-1.455.209-1.553.189l-.821-.172-.835-.463-.813-.067a11.061,11.061,0,0,0-1.558.6,8.344,8.344,0,0,1-3.289.38l-.823-.124-.814.1-.837-.506-.819-.111-.812.076-.8.59-.816.144-.82-.191-.817-.034-.67-.568-.929.509-.81-.335.169-1.113-.414-.55-.15-.706.445-.662a11.482,11.482,0,0,1-.856-1.068,17.461,17.461,0,0,1,.206-2.708c.011-2.179.037-4.361-.09-6.538q-.239-4.1-.71-8.188c-.172-1.493.464-3.77-.393-4.895l.473-.865-.3-.817-.061-.832-.436-.811.6-.871-.263-.82.5-.865-.165-.825Zm14.863.391c-.47-.073-1.327-.233-1.323-.234a7.049,7.049,0,0,1-.862.427c-.365.09-.755-.051-1.124.058-.244.072-.454.237-.7.3a2.719,2.719,0,0,1-1.041-.068c-1.084-.145-1.615.489-2.582.6-.716.083-1.449,0-2.168.043-.192.012-.949.156-1.065.131l-.82-.177-.861-.29-.583.681.048.789-.3.769c-.036.092.473,1.355.5,1.641.061.759-.1,1.517-.064,2.274a27.684,27.684,0,0,1,.2,5.069c-.267,2.056.4,4.227.477,6.3.087,2.222.172,4.488.31,6.7a7.693,7.693,0,0,1,.041,1.849c-.049.311-.714.82-.391,1.262l.6.819-.414.818.821.833-.1.819.21.74.914.44.776-.754.811.075.821.422.8-.259.791-.532.83.749.8-.216.809.053.811.063.788-.479.812.127.826.34.793-.285.775-.456.8.005.787-.235.8-.036.8-.043.832.375.825.267.772-.412.824.255.754-.643.8-.022.838.454.762-.556c.385-.281,1.572.09,1.993.113a100.847,100.847,0,0,0,11.169-.269c1.387-.075,2.85.188,4.16.126.254-.012,1.423-.7,1.689-.416l.848.876.767-.8.816.125.774-.433.852.47.759-.369.767-.206.827.172.783-.137.8-.155.9-.2.56-.72v-.935l.618-.683-.14-.846-.017-.8-.367-.782.039-.829-.386-.806.515-.857-.248-.813a30.792,30.792,0,0,0-.829-6.3c-.377-1.915-.426-3.867-.728-5.792-.5-3.184-.736-6.379-1.263-9.557-.255-1.543-.133-1.418-1.538-1.3-2.566.218-5.1,1.015-7.708.594l-.84-.24-.849.25-.772-.263-.041.862.232.744a3.692,3.692,0,0,1,1.021,2.329,4.787,4.787,0,0,1-.29,2.293l-.536.655-.619.742-1.045-.022c-1.015,0-2.317.178-3.067-.6-1.48-1.543-1-5.215.265-6.811-.915-.038-1.693-.247-2.156.654a3.382,3.382,0,0,1-.815-.193l-.827-.471-.792.237-.772.607c-1.216,0-1.885-.526-3.217-.06a1.7,1.7,0,0,1-1.234.052,11.241,11.241,0,0,0-2.278.212,7,7,0,0,1-1.306-.327,4.946,4.946,0,0,1-.82-.355c-.416.838-1.165.379-1.827.776.855-.512.935,4.046.858,4.58l-.514.72-.526.7-1.22-.194-.559.551-.79.678-.81-.635-.774-.266c-1.434-.492-.892-3.169-.517-4.071a5.827,5.827,0,0,0,.756-2.413A2.735,2.735,0,0,1,3261.633,3085.64Zm20.338-2.649-.573-.654.026-.953-.7-.527-.292-.941c-1.127-.053-.667-.327-1.476-.781a8.464,8.464,0,0,0-3.583-.619c-1.558-.035-3.338-.144-4.711.686-1.437.869-3.145,2.481-3.336,4.261a10.427,10.427,0,0,1,2.375-.325c.964-.062,1.484.464,2.384.458.228,0,.45-.071.678-.076.444-.01.874.221,1.316.17a3.921,3.921,0,0,0,.59-.16c.816-.227,1.7.024,2.529-.125.757-.135,1.426-.349,2.151-.545.233-.062.807-.265,1.028-.108l.825.586Zm.517-4.1a3.515,3.515,0,0,1,1.089,1.911c-.415-4.25-3.949-6.138-7.681-7.046a10.439,10.439,0,0,0-5.864.506c-2.281.95-3.556,2.76-4.755,4.794-.519.88-1.311,3.421-1.055,4.412.253.068.49-.138.671-.327,1.808-1.886,2.646-4.875,5.308-5.873a15.67,15.67,0,0,1,4.756-.715,2.4,2.4,0,0,1,.6.014c.163.031.317.1.48.123a3.1,3.1,0,0,0,.725-.016,7.274,7.274,0,0,1,.806,0l1.662.07C3280.358,3076.8,3281.767,3078.145,3282.488,3078.9Zm1.9,11.454c.508.044,1.039-.021,1.059-.377l.052-.877.53-.854-.732-.733.143-1.089-1.4-.49-.823.176c.3-.064-.769,2.072-.771,2.3a2.116,2.116,0,0,0,1.069,1.737A2.522,2.522,0,0,0,3284.383,3090.349Zm-20.615-3.754c-1.132.013-1.488,2.066-1.259,2.857.144.5.165,1.583.942,1.51.523-.049,1.113-1.124,1.272-1.562C3264.991,3088.666,3264.957,3086.582,3263.768,3086.6Z" transform="translate(-3245.897 -3071.301)" fill="#26333b" stroke="#26333b" stroke-width="1"/>
</svg>
