<svg xmlns="http://www.w3.org/2000/svg" width="20" height="26" viewBox="0 0 20 26">
  <path id="icon_map" d="M19.7,9.845l-.137-.552.336-.564c.437-.734-.7-2.17-.95-2.854A7.679,7.679,0,0,0,16.254,2,12.845,12.845,0,0,0,10.623.015a20.384,20.384,0,0,0-4,.293C5.234.513,5,1.042,4.182,1.713l-.5.407-.75.213-.422.474-.653.338-.377.506-.419.487-.087.608-.531.464.173.642-.559.489.222.612-.122.56-.157.563.071.572A6.171,6.171,0,0,0,.3,11.673c.4.753.674,1.2.13,2.049.668.39.761,1.635,1.129,2.258.626,1.058.952,2.239,1.642,3.242q1.244,1.808,2.652,3.542C6.929,24.09,7.7,25.243,9.469,26l.691-.312.254-.631.8-.222.411-.512.184-.538.8-.178.057-.583.46-.383.527-.342.183-.532.258-.526.793-.212.137-.587.763-.259,0-.638.562-.372-.062-.639.851-.27.064-.579.51-.42.233-.516v-.581c0-.241.24-.466.311-.689a9.736,9.736,0,0,1,.292-1.206c.113-.247.441-.477.514-.712.14-.45-.134-.578.222-1.031l.39-.5.005-.551.229-.524-.158-.563ZM13.073,8.7l-.021.579-.3.489-.157.542-.37.466-.525.37-.4.447-.558.333-.643.242-.756.058-.674-.268-.752-.124-.445-.482L7.07,10.88l-.283-.515-.244-.546-.421-.5L6,8.738l-.119-.578L6.088,7.6,6.2,7.024l.489-.436.4-.38.456-.34.417-.4L8.573,5.3l.576-.2L9.8,5.044l.676.043.623.218.642.208.571.321.374.469.114.5.293.443.064.492.085.494Z" transform="translate(0 0)" fill="#373b3e"/>
</svg>
