<svg id="icon_Instagram" xmlns="http://www.w3.org/2000/svg" width="49.426" height="48" viewBox="0 0 49.426 48">
  <path id="パス_28421" data-name="パス 28421" d="M58.352,35.57a46.443,46.443,0,0,1-.117-5.1,38.521,38.521,0,0,0-.22-5.907c-.147-1.045-.391-2.1-.628-3.123a24.437,24.437,0,0,1-.809-5.244c0-.2-.127-.342-.433-.655-.089-.091-.178-.181-.261-.275a17.571,17.571,0,0,0-4.816-3.529,1.713,1.713,0,0,1-.756-1.083l-.006-.015a14.742,14.742,0,0,1-8.115-.365c-1.443,1.645-3.572,1.874-6,.642a5.4,5.4,0,0,0-3.649-.18,8.751,8.751,0,0,1-2.8.2,5.355,5.355,0,0,0-1.99.255,10.7,10.7,0,0,1-1.425.289c-1.268.141-2.545.194-3.781.246-1.383.057-2.815.116-4.2.3a4.277,4.277,0,0,0-.858.263,2.755,2.755,0,0,1-2.929-.12,1.546,1.546,0,0,0-1.109-.447c-.623.076-1.258.9-1.874,1.7-.958,1.244-.993,2.713-1.031,4.27a15.1,15.1,0,0,1-.218,2.614,2.665,2.665,0,0,1,.528,1.046,6.6,6.6,0,0,1-.284,3.75c-.37,1.332-.689,2.482.007,3.61l.315.512-.509.464a.8.8,0,0,0-.1.091,7.468,7.468,0,0,0-.624,4c.014.257.022.509.03.758a5.52,5.52,0,0,0,.675,2.99c.781,1.28.609,2.861.442,4.391a13.334,13.334,0,0,0-.123,2.077c.05.9.033,1.807.018,2.688a17.64,17.64,0,0,0,.408,5.178c.555,1.973,2.756,4.549,4.441,4.629l.356.017a7.452,7.452,0,0,1,4.444,1.179,1.645,1.645,0,0,1,.787-.856,1.362,1.362,0,0,1,.583-.129,2.363,2.363,0,0,1,1.326.5c.314.219.723.568,1.083.877.082.07.159.137.231.2,1.719-1.66,3.518-.907,5-.257a1.6,1.6,0,0,1,1.5-1.074,1.47,1.47,0,0,0,.3-.054,6.007,6.007,0,0,1,2.182-.3,5.084,5.084,0,0,0,1.907-.263,5.51,5.51,0,0,1,2.586-.176,4.34,4.34,0,0,0,2.688-.3,8.219,8.219,0,0,1,1.691-.493,17.792,17.792,0,0,0,1.877-.518,1.82,1.82,0,0,1,1.972-.3,4.424,4.424,0,0,0,2,.42,7.718,7.718,0,0,1,5.137-.578c-.034-.018.093-.169.178-.27.064-.076.129-.154.2-.229a14.52,14.52,0,0,0,1.446-2.006,10.864,10.864,0,0,1,2.509-3.031.594.594,0,0,0,.075-.325l.011-.224a14,14,0,0,1,.416-2.308,6.472,6.472,0,0,0,.152-3.84l-.148-.4.286-.32c1.1-1.235.746-2.64.375-4.129A12.189,12.189,0,0,1,58.352,35.57Zm-2.919,4.863a6.407,6.407,0,0,1-.282,3.76,8.9,8.9,0,0,0-.389,1.717A4.668,4.668,0,0,1,52.383,49c-.558.341-1.978,1.086-3.119.625a.37.37,0,0,0-.276.138,2.3,2.3,0,0,1-.387.321,6.249,6.249,0,0,1-5.042.538,2,2,0,0,1-.883-.539c-.056-.052-.131-.119-.192-.168a2.057,2.057,0,0,0-.271.387.937.937,0,0,1-.856.553,1.117,1.117,0,0,1-.931-.669c-.128.488-.347.959-.893,1.072a1.281,1.281,0,0,1-1.168-.479,1.075,1.075,0,0,1-.907.526,13.523,13.523,0,0,0-3.236.637,11.24,11.24,0,0,1-4.839.61A5.938,5.938,0,0,1,27.7,51.93l-.107-.052a2.6,2.6,0,0,1-2.088.952,6.578,6.578,0,0,1-1.464-.213c-.189-.043-.373-.086-.552-.117a5.059,5.059,0,0,1-.958-.291c-.645-.246-.969-.37-1.624.119-1.095.82-3.794-.117-4.323-.315-1.131-.42-2.875-1.577-1.854-4.607a2.241,2.241,0,0,1-.076-.288,2.01,2.01,0,0,1,.556-2.222,7.486,7.486,0,0,1-1.163-3.027,6.927,6.927,0,0,0-.818-2.355,1.348,1.348,0,0,1,.063-1.564c.607-.53.528-1.069.326-2.054a3.935,3.935,0,0,1-.01-2.245,5.528,5.528,0,0,0-.271-3.841l-.168-.542A2.155,2.155,0,0,1,13.2,27.9c.964-2.248.781-4.7.6-7.074-.032-.416-.063-.83-.088-1.24a9.758,9.758,0,0,1,.614-3.723c.1-.32.2-.642.288-.972a2.326,2.326,0,0,1,1.533-1.39,4.665,4.665,0,0,1,3.7-.055,1.833,1.833,0,0,0,1.755.181,8.414,8.414,0,0,1,3.783-.428,61.457,61.457,0,0,0,6.678.306c.646.006,1.294.011,1.94.023l1.369.02a42.183,42.183,0,0,1,7.908.6l.477.1a11.551,11.551,0,0,0,5.388.236,5.318,5.318,0,0,1,3.879.877c1.082.874,1.249,3.309,1.1,4.639a10.269,10.269,0,0,0,.483,3.772,13.939,13.939,0,0,1,.56,3.258,23.55,23.55,0,0,0,.413,3.476c.387,2.3.787,4.672-.087,7.221A4.951,4.951,0,0,0,55.434,40.433Z" transform="translate(-9.63 -10.276)" fill="#26333b"/>
  <path id="パス_28422" data-name="パス 28422" d="M26.9,44.172c-1.279-.21-1.574-1.386-2.182-2.245-1.78-2.514-3.9-4.9-4.9-7.8-.668-1.945-.156-4.157.231-6.326.556-3.122,2.887-4.5,4.629-6.544.771-.906,2.176-1.058,2.509-2.352,1.068,1.441,2.076-.306,2.99-.08,2.3.571,5.178-.772,6.854,1.955,1.976-.566,1.4,3.093,3.59,2.172-.041,1.665,1.171,2.881,1.569,4.387a3.91,3.91,0,0,0,.669,1.926l-.023-.032c-.264,1.648-.128,3.531-.91,4.879-.739,1.274-1.162,2.237-.656,3.609.062.166-.486.326-.821.3l-.189-.281c-.2.155-.144.3.022.432a3.785,3.785,0,0,1,.036.864c-1.923.5-3.046,2.432-5.038,2.8-1.331.246-2.817.17-3.471,1.82-.177.444-.568.36-1.058-.028-.822-.651-1.938-.525-2.97-.578-.938-.048-.834.587-.915,1.143ZM38.318,30.786c1.5-3.571-1.19-5.432-3-7.57-1.244-1.473-3.4-.5-5.009-1.352-.186-.1-2.687.254-2.48,2.2,0,.025-.264.146-.34.1-2.166-1.191-2.371,1.374-2.661,1.964a12.167,12.167,0,0,0-1.552,6.582c.243,2.725,1.272,4.241,3.977,4.4.555.032,1.148.266,1.657.315,1.013.1,2.363,1.133,2.872.432.822-1.136,3.3.278,2.981-2.126.129-.014.307-.091.379-.034,1.058.846,1.118.211,1.1-.692a1.133,1.133,0,0,1,.681-1.1C38.573,33.356,38.158,31.872,38.318,30.786Z" transform="translate(-8.596 -9.382)" fill="#26333b"/>
  <path id="パス_28423" data-name="パス 28423" d="M41.112,19.8c.517-2.782,2.8-3.926,4.657-2.369,1.605,1.349,1.526,4.976-.273,5.968a2.34,2.34,0,0,1-2.108-.541,9.355,9.355,0,0,0-2.236-2.067C40.622,20.518,41.127,20.11,41.112,19.8Z" transform="translate(-6.353 -9.6)" fill="#26333b"/>
</svg>
