<svg xmlns="http://www.w3.org/2000/svg" width="13.512" height="24" viewBox="0 0 13.512 24">
  <path id="パス_28427" data-name="パス 28427" d="M1.513.873,1.187.992l-.133.684,0,.7.083.694.024.688.093.686-.147.689.194.683.057.687-.323.689.2.7L1.3,8.6l-.171.7.107.71-.372.681.01.7.216.722-.149.694-.055.7.037.709.046.7-.111.69-.424.658.32.733-.346.664.163.718-.262.673-.031.7-.11.689L0,21.131l.007.7.077.706.285.731L.521,24l.436-.205.616-.059.6-.206.476-.569.582-.443.543-.489.593-.432.479-.56.516-.518.46-.582.643-.376.573-.454.487-.553.668-.316.438-.585.62-.371.609-.383.574-.423.37-.672.577-.421.738-.218.4-.638.67-.441.322-.756-.184-.787-.4-.692-.592-.41L12,10.825l-.409-.558-.283-.652-.488-.5-.448-.529-.664-.366-.08-.807-.487-.5-.612-.4-.274-.693-.494-.511L7.156,4.9l-.37-.619-.6-.414-.287-.7L5.37,2.7,4.7,2.345l-.345-.926-.7-.425L3.137.45,2.492,0,1.847.347ZM1.605,21.93l.262-.837.1-.716-.007-.722L1.9,18.93l.011-.721-.045-.724.2-.71-.135-.731v-.722l.372-.7-.162-.732-.032-.723.189-.709-.1-.727.374-.7-.014-.722-.225-.736.137-.712.041-.719L2.462,7.42,2.4,6.7l.091-.715.4-.7-.348-.742.319-.7L2.7,3.036h.583l.575.535.53.592.468.644.555.561.551.5.56.5L6.9,7l.429.6.321.676.334.665.533.521.391.623.433.593.364.641.5.547.45.582.192.879-.489.739-.533.478-.441.571-.649.358-.405.61-.6.407-.588.417-.551.456-.332.694-.552.456-.725.266-.361.666-.663.388-.565.5-.575.489-.633.42Z" transform="translate(13.512 24) rotate(180)" fill="#26333b"/>
</svg>
