<svg xmlns="http://www.w3.org/2000/svg" width="48.243" height="48" viewBox="0 0 48.243 48">
  <path id="パス_27369" data-name="パス 27369" d="M58.842,26.146l-.46-.114-.22.433-.45.182.071.481-.262.4.241.894-.241.9.241.9-.241.9.15,1.02-3.626-.237-3.6.241-3.6-.241-3.6.241-3.6-.241-4.931-.331L30.141,29.7l-4.322-2.4L22.35,23.769,19.135,20l.226-.334-.241-.278.241-.284-.241-.284.241-.285-.383-1.238-.218-1.278-.938-.893-.9-.929L15.64,14.15l-1.286.043-.9.93-.936.891L12.3,17.292l-.383,1.238.241,7.8-.241,7.792.241,7.8-.241,7.805.241,7.805-.091,1.293.665,1.11.552,1.173,1.169.54,1.191.5,1.054-.514,1.1-.381.6-1,.716-.919-.038-1.205,1.719-2.353,1.549-2.449,2.137-1.957,2-2.1,2.372-1.489.555,2.236.712,2.321L31.779,54.1l1.862,1.545,2.4.265.954.241.959-.241.96.241.964-.241.962.241,2.423-.776,2.2-1.279,1.3-2.2,1.107-2.3.053-2.559.241-.593-.241-.6.241-.6-.241-.6.156-.484,1.882-.238,1.916.237,1.92-.244,1.924.238,1.973-.233-.171,1,.241.9-.241.9.241.9-.241.9.263.4-.07.48.45.182.22.432.457-.112.458.112.219-.433.45-.18-.07-.481.263-.4-.241-4.2.241-4.2-.241-4.2.241-4.2-.241-4.206.215-.449-.374-.31-.078-.48-.485-.036ZM16.96,57.528l-.262.4.069.48-.449.182-.22.433-.457-.112-.458.112-.219-.433-.45-.182.07-.48-.262-.4.241-7.8-.241-7.793.241-7.8-.241-7.805.241-7.805-.213-.449.374-.309.078-.479.484-.037.356-.346.356.348.484.037.078.479.374.309-.213.448.241,7.8-.241,7.793.241,7.8-.241,7.806Zm2.161-4.291.241-5.755-.241-5.755.241-5.761L19.12,30.2l.237-5.738,3.188,3.382,3.583,3.135,4.3,2.039,4.464,1.643,4.751.243.236.241.237-.241.242.241.243-.241.124.144.238,1.175-.241,1.2.241,1.207-.241,1.21.238,1.233-.365-.144-.248.241-.253-.241-.255.241-.259-.239-4.8,1.023-4.657,1.536L26.09,46.287l-3.821,3.08-2.932,3.94.023-.07h0l-.12.12Zm26.641-6.209-.431,1.659-.366,1.676L43.779,51.6l-1.242,1.175-1.7.135-.954.241-.959-.241-.96.241L37,52.908l-.962.241-1.6-.594-1.513-.788-.8-1.515-.813-1.51.045-1.715-.241-.137.241-.135-.241-.138.241-.144-.195-.241,1.715-.516,1.569-.816,1.754-.224,1.678-.553,1.762.063,1.19-.242,1.2.238,1.2-.243,1.2.239,1.256-.231-.173.7.241.594-.241.594.239.585Zm-2.566-5.863.166-1.31-.241-1.2.241-1.207-.241-1.21.167-1.1,2.831-.231L49,35.144l2.879-.241,2.884.241,2.929-.231-.166,1.3.241,1.2-.241,1.2.241,1.2-.167,1.094-2.831.237-2.879-.235-2.878.245-2.886-.235Z" transform="translate(-11.919 -14.15)" fill="#fff"/>
</svg>
