<svg xmlns="http://www.w3.org/2000/svg" width="71.63" height="48.5" viewBox="0 0 71.63 48.5">
  <g id="icon_kodawari" transform="translate(5.631 76.241)">
    <path id="パス_28500" data-name="パス 28500" d="M44.454-51.878a.988.988,0,0,0-.369-.037,2.3,2.3,0,0,1-1.329-.379c-.45-.2-.857-.369-1.291-.511a.553.553,0,0,0-.491.147l-.014.016a.547.547,0,0,0-.056.522,2.768,2.768,0,0,0,.679.8,3,3,0,0,0,.684.32,2.4,2.4,0,0,1,.765.389.423.423,0,0,0,.278.06h1.253v.019h.149a3.549,3.549,0,0,0,.731-.075,3.109,3.109,0,0,0,1-.462,5.794,5.794,0,0,1,.872-.655.736.736,0,0,0,.174-.964.668.668,0,0,0-.041-.054.559.559,0,0,0-.382-.2.538.538,0,0,0-.4.126,9.077,9.077,0,0,1-1.02.622,2.453,2.453,0,0,1-.883.342A.8.8,0,0,1,44.454-51.878Z" transform="translate(1.915 0.955)" fill="#fff" stroke="#fff" stroke-width="0.5"/>
    <path id="パス_28501" data-name="パス 28501" d="M43.308-54.913a1.779,1.779,0,0,1,.363.137,1.2,1.2,0,0,0,.388.089.464.464,0,0,0,.391-.2.633.633,0,0,0-.1-.786,1.3,1.3,0,0,0-.426-.307c-.107-.057-.213-.1-.326-.148l-.017-.007a2.051,2.051,0,0,0,.2-.362c.06-.231.1-.469.143-.7.017-.1.034-.2.056-.318a1.141,1.141,0,0,1,.09-.386,5.113,5.113,0,0,0,.568-1.349.468.468,0,0,0,.04-.266.859.859,0,0,0-.236-.42l-.044-.026a.489.489,0,0,0-.467.109,3.324,3.324,0,0,0-.473.7,6.8,6.8,0,0,1-.349.907,5.366,5.366,0,0,0-.663,1.269,1.793,1.793,0,0,0-.1,1.057C42.448-55.6,42.629-54.984,43.308-54.913Z" transform="translate(1.975 0.663)" fill="#fff" stroke="#fff" stroke-width="0.5"/>
    <path id="パス_28502" data-name="パス 28502" d="M40.532-58.217c.022,0,.045,0,.067,0l.166-.017c.454-.042.712-.148.837-.346s.11-.468-.044-.885a.218.218,0,0,1-.008-.035.511.511,0,0,0-.017-.06c-.209-.6-.518-.764-1.1-.575a1.7,1.7,0,0,0-.551.381.767.767,0,0,0-.2,1A.944.944,0,0,0,40.532-58.217Z" transform="translate(1.862 0.654)" fill="#fff" stroke="#fff" stroke-width="0.5"/>
    <path id="パス_28503" data-name="パス 28503" d="M47.757-58.025h.006a1.136,1.136,0,0,0,1.081-1.088v-.014l0-.012a.97.97,0,0,0-.947-.762h-.036c-.88.015-1.147.249-1.138,1.025A1.079,1.079,0,0,0,47.757-58.025Z" transform="translate(2.158 0.666)" fill="#fff" stroke="#fff" stroke-width="0.5"/>
    <path id="パス_28504" data-name="パス 28504" d="M13.947-52.787a1.5,1.5,0,0,0,.127.117,1.064,1.064,0,0,1,.13.122,1.34,1.34,0,0,0,.9.51,1.388,1.388,0,0,0,.495-.053.712.712,0,0,1,.706.085.135.135,0,0,0,.066.025l0,.067.128-.036c.064-.019.129-.035.195-.054a4.418,4.418,0,0,0,.431-.128c.119-.045.234-.1.35-.149.132-.059.257-.116.385-.16a2.29,2.29,0,0,0,1.358-1.13.609.609,0,0,0-.133-.741.569.569,0,0,0-.736-.041l0,0a4.754,4.754,0,0,0-.408.367,1.347,1.347,0,0,1-.205.15c-.053.031-.109.059-.166.087s-.132.067-.2.105-.1.064-.148.1a.842.842,0,0,1-.632.216.617.617,0,0,0-.335.066.484.484,0,0,1-.54-.05.618.618,0,0,0-.448-.14c-.25.058-.376-.071-.551-.246l-.064-.064a1.607,1.607,0,0,0-.511-.273,1.079,1.079,0,0,0-.333-.062.513.513,0,0,0-.3.049l-.03.023a.341.341,0,0,0-.084.285,1.516,1.516,0,0,0,.16.509A2.791,2.791,0,0,0,13.947-52.787Z" transform="translate(0.778 0.891)" fill="#fff" stroke="#fff" stroke-width="0.5"/>
    <path id="パス_28505" data-name="パス 28505" d="M14.892-56.058a.811.811,0,0,0,.646.409l.02.022.029.03a1.024,1.024,0,0,0,.7.272,1.017,1.017,0,0,0,.394-.078.533.533,0,0,0,.059-.031.487.487,0,0,0,.218-.3.478.478,0,0,0-.056-.36.977.977,0,0,0-.8-.532,1.237,1.237,0,0,1-.227-.068l.149-.259c.171-.3.326-.568.486-.836a.842.842,0,0,0,.1-.642.466.466,0,0,0-.228-.3.452.452,0,0,0-.372-.024.811.811,0,0,0-.448.463,1.883,1.883,0,0,1-.225.347c-.059.082-.123.162-.185.242-.085.109-.17.218-.25.332a1,1,0,0,0-.082.159.562.562,0,0,1-.082.145.591.591,0,0,0,.012.835C14.8-56.177,14.845-56.117,14.892-56.058Z" transform="translate(0.826 0.713)" fill="#fff" stroke="#fff" stroke-width="0.5"/>
    <path id="パス_28506" data-name="パス 28506" d="M11.75-56.4h.02L11.8-56.4a1.308,1.308,0,0,0,.859-1.1,1.378,1.378,0,0,0-.526-.933.378.378,0,0,0-.271-.065l-.012,0a1.912,1.912,0,0,1-.257.047,1.047,1.047,0,0,0-.657.265,1.52,1.52,0,0,0-.391,1.121.522.522,0,0,0,.059.133A1.478,1.478,0,0,0,11.75-56.4Z" transform="translate(0.66 0.724)" fill="#fff" stroke="#fff" stroke-width="0.5"/>
    <path id="パス_28507" data-name="パス 28507" d="M19.4-57.64c.027.039.052.082.077.125a.741.741,0,0,0,.238.286,1.112,1.112,0,0,0,.645.207,1.059,1.059,0,0,0,.48-.112.864.864,0,0,0,.557-.7.921.921,0,0,0-.434-.875l-.008-.005a1.258,1.258,0,0,0-.573-.135h-.014a1.89,1.89,0,0,0-.4.08l-.03,0a.6.6,0,0,0-.4.232.6.6,0,0,0-.118.442c.008.079.014.158.019.236l0,.055-.115.066Z" transform="translate(1.023 0.71)" fill="#fff" stroke="#fff" stroke-width="0.5"/>
    <path id="パス_28508" data-name="パス 28508" d="M65.667-28.737l-.032-.2a12.1,12.1,0,0,1-.36-1.978,7.572,7.572,0,0,1-.243-1.8,2.005,2.005,0,0,0-.327-1.378.889.889,0,0,0-.028-.17l-.033-.121c-.084-.305-.172-.621-.274-.933a6.3,6.3,0,0,0-.333-.8,1.081,1.081,0,0,0-.567-.623.852.852,0,0,1-.485-.6,7.181,7.181,0,0,0-.391-.807,1,1,0,0,0-.75-.593c-.017,0-.04-.017-.16-.19-.041-.059-.081-.117-.126-.174a3,3,0,0,0-.989-.757l-.029-.017a3.694,3.694,0,0,1-.513-.326l-.272-.111-.173.008c-.147.011-.253-.057-.486-.218l-.052-.035c-.111-.077-.23-.156-.34-.218a3.484,3.484,0,0,0-.725-.328c-.428-.13-.858-.251-1.288-.371l-.9-.261c-.164-.053-.311-.1-.462-.134-.221-.053-.444-.1-.674-.148-.308-.065-.626-.132-.864-.193a12.345,12.345,0,0,0-2.254-.655c-.074-.02-.145-.044-.308-.1-.124-.028-.25-.048-.375-.068l-.61-.1.132-1.081a1.993,1.993,0,0,0,1.1-.261.974.974,0,0,1,.987-.09.845.845,0,0,0,.578-.012l.078-.019a.842.842,0,0,0,.233-.1.68.68,0,0,1,.178-.08.9.9,0,0,0,.633-.527,2.73,2.73,0,0,1,.139-.238c.049-.079.1-.157.141-.24l.028-.054a.617.617,0,0,0,.109-.377,3.968,3.968,0,0,1,.1-1.374,1.759,1.759,0,0,0,0-.7,1.117,1.117,0,0,1,.049-.633,2.184,2.184,0,0,0,.095-.909,1.9,1.9,0,0,1,.157-1.482.635.635,0,0,0,.075-.3,7.418,7.418,0,0,1,.128-1.871.5.5,0,0,0-.02-.3c-.008-.033-.018-.068-.024-.1a.945.945,0,0,0-.027-.11.287.287,0,0,1-.02-.142,2.863,2.863,0,0,0,.032-1.242.52.52,0,0,1,.157-.361.357.357,0,0,1,.245-.125h.009a1.521,1.521,0,0,0,.926-.378,2.011,2.011,0,0,0,.654-.885,3.53,3.53,0,0,1,.28-.5l.025-.035-.048-.285c-.048-.3-.1-.6-.171-.911a1.841,1.841,0,0,0-.22-.457,1.6,1.6,0,0,0-.265-.408l-.061-.049c.159-.17.321-.342.473-.513a.946.946,0,0,0,.205-.475,3.2,3.2,0,0,1,.218-.655,1.536,1.536,0,0,0,.277-1.032,1.712,1.712,0,0,0,.331-.98,13.22,13.22,0,0,0,.29-1.776,1.935,1.935,0,0,0,.546-1.261,1.583,1.583,0,0,0,.092-.154l.275-.57a4.39,4.39,0,0,0,.234-1.929,4.563,4.563,0,0,0-.145-1.061,1.218,1.218,0,0,0-.526-.776,3.262,3.262,0,0,0-1.7-.458c-.162.015-.326.026-.491.037-.232.017-.473.033-.715.061a1.2,1.2,0,0,0-.754-.262c-.015-.295-.03-.579-.051-.849a1.184,1.184,0,0,0-.05-1.21,3.051,3.051,0,0,0-.2-.34c-.153-.233-.155-.263-.139-.317a.786.786,0,0,0-.234-.758,1.787,1.787,0,0,0-1.555-.769,3.519,3.519,0,0,1-1.463-.156,1.717,1.717,0,0,0-.647.039,4.37,4.37,0,0,1-1.874.1.818.818,0,0,0-.534.008c-.573.033-1.146.064-1.669.091a5.736,5.736,0,0,0-.674.028c-.153.028-.3.067-.454.107l-.037.01a2.986,2.986,0,0,1-.424.092,9.3,9.3,0,0,1-1.142,0,1.2,1.2,0,0,0-.926.266,8.86,8.86,0,0,0-1.746.07,7.459,7.459,0,0,0-.831.073,2.317,2.317,0,0,0-1.436.648,2.559,2.559,0,0,0-.687,1.369,1.968,1.968,0,0,1-.09.336,1.734,1.734,0,0,0-.195,1.462v.005l-.023.012-.008.052c-.043.292-.091.584-.143.9v0a2.828,2.828,0,0,0-1.092.642,1.542,1.542,0,0,1-.355.118,2.847,2.847,0,0,0-.569.234c-.136.084-.268.178-.4.271l-.046.033c-.135.1-.263.188-.327.228a1.79,1.79,0,0,0-1.162,1.9,1.793,1.793,0,0,1,0,.238v.026a1.672,1.672,0,0,0,.307,1.155l.006.025a10.674,10.674,0,0,1,.222,2,1.022,1.022,0,0,0,.116.611l.05.115c.049.094.092.193.1.219.151.7.295,1.4.437,2.1l.149.722a1.338,1.338,0,0,0-.281.6,3.708,3.708,0,0,1-.259.684,1.336,1.336,0,0,0-.137.567,1.641,1.641,0,0,0,.959,1.409,3.972,3.972,0,0,0,.525.174c.1.028.2.055.3.089a1.561,1.561,0,0,1,.3.132c.133.08.263.166.417.265l.2.129a.994.994,0,0,1,.033.315,8.64,8.64,0,0,0-.094,1.911c.013.337,0,.684,0,1.019-.006.3-.014.6-.005.916a3.481,3.481,0,0,0,.16.633,1.523,1.523,0,0,1,.043.375,3.247,3.247,0,0,0-.092,1.049,6.033,6.033,0,0,1,.123,2.087,2.2,2.2,0,0,0,.294,1.21,2.473,2.473,0,0,0,.585.75,3.078,3.078,0,0,0,2.185.527,1.352,1.352,0,0,1,.305.025c.09.013.181.025.277.029.071,0,.142,0,.213,0,.1,0,.2,0,.3,0a2.493,2.493,0,0,0,.029.565.723.723,0,0,1,.022.434,2.7,2.7,0,0,0-.018.466,1.489,1.489,0,0,1-.074.493.846.846,0,0,0-.071.228l-.452.116a13.659,13.659,0,0,0-1.516.378,4.994,4.994,0,0,1-1.693.37,1.271,1.271,0,0,0-.789.157,3.626,3.626,0,0,1-1.473.5l-.116.027a10.393,10.393,0,0,0-1.7.751,7.133,7.133,0,0,1-1.283.629,1.142,1.142,0,0,0-.468.26,12.187,12.187,0,0,0-.977.849c-.066-.14-.131-.283-.2-.433a1.17,1.17,0,0,0-.323-.366L30.7-39.36a4.211,4.211,0,0,1-.649-.8,3.193,3.193,0,0,0-1.4-1.391,4.157,4.157,0,0,1-.463-.358,2.993,2.993,0,0,0-.395-.329c-.639-.379-1.3-.764-1.969-1.143-.159-.093-.328-.172-.476-.241l-.439-.215a.806.806,0,0,0-.31-.323c-.411-.24-.838-.471-1.26-.682a3.286,3.286,0,0,0-.978-.405,1.969,1.969,0,0,1-1.024-.468q-.006-.087-.012-.181c-.014-.182-.027-.371-.024-.543a3.354,3.354,0,0,0,.011-1.021l.052-.009a3.054,3.054,0,0,0,.364-.137c.053-.023.106-.046.154-.065a1.231,1.231,0,0,0,.128-.056.536.536,0,0,1,.122-.049h0a1.048,1.048,0,0,0,.951-.2,2.383,2.383,0,0,1,.323-.174,4.611,4.611,0,0,1,.7-.346,1.468,1.468,0,0,0,.77-.4.5.5,0,0,1,.29-.129.755.755,0,0,0,.608-.367c.087-.123.173-.247.259-.371a14.368,14.368,0,0,1,.876-1.178,4.5,4.5,0,0,0,.758-1.434.78.78,0,0,0,.03-.3.753.753,0,0,1,.007-.2,12.954,12.954,0,0,0,.558-1.738c.006-.044.015-.086.022-.128a.686.686,0,0,0-.049-.54c.251-.173.513-.334.779-.481a2.932,2.932,0,0,1,.467-.164,1.934,1.934,0,0,0,.851-.413c.032-.029.065-.058.1-.086a.735.735,0,0,0,.334-.556,1.383,1.383,0,0,1,.2-.832.571.571,0,0,0,.016-.43c-.008-.04-.016-.078-.026-.135a1.749,1.749,0,0,0-.095-.21,1.323,1.323,0,0,0-.7-.849,1.953,1.953,0,0,0-.044-.705l-.041-.11a.377.377,0,0,1,0-.323,1.646,1.646,0,0,0,.025-1.208,1.649,1.649,0,0,0-.2-1.4,1.434,1.434,0,0,0-.249-1.418,1.591,1.591,0,0,0-.218-1.143l-.4-.882a1.034,1.034,0,0,0-.37-.573c-.006,0-.026-.018-.02-.089a1.009,1.009,0,0,0-.162-.589l-.073-.1c-.208-.29-.444-.619-.743-.975a4.172,4.172,0,0,1-.906-1.315,1.112,1.112,0,0,0-.265-.357c-.091-.1-.183-.2-.275-.3l-.187-.208c-.058-.069-.116-.135-.18-.2-.173-.165-.348-.326-.524-.487l-.173-.166a.923.923,0,0,0-.463-.329,2.9,2.9,0,0,1-.948-.559l-.094-.068a.849.849,0,0,0-.48-.159.782.782,0,0,1-.2-.123,2.442,2.442,0,0,0-.326-.22c-.175-.095-.348-.211-.516-.323l-.036-.025c-.123-.082-.247-.165-.395-.255a.946.946,0,0,0-.7-.086c-.059.017-.13-.012-.332-.108a2.225,2.225,0,0,0-.3-.127,4.051,4.051,0,0,0-1.687-.379,1.665,1.665,0,0,1-.619-.079,4.042,4.042,0,0,0-.955-.1,2.6,2.6,0,0,1-.441.023,1.519,1.519,0,0,0-.8,0,1.286,1.286,0,0,0-.227,0c-.208.016-.425.031-.636.061a.634.634,0,0,0-.273.1,1.617,1.617,0,0,0-.947.109,2.272,2.272,0,0,1-.222.073.687.687,0,0,0-.672.125c-.084.051-.166.11-.246.17-.175.131-.195.132-.319.118l-.3.024-.1.089a12.932,12.932,0,0,0-1.7.888c-.077.067-.16.127-.255.2l-.227.17a10.1,10.1,0,0,1-.826.642,1.715,1.715,0,0,0-.449.429c-.021.025-.072.089-.094.108a.72.72,0,0,0-.524.162,13.377,13.377,0,0,0-1.473,1.006,4.083,4.083,0,0,1-.592.5,1.056,1.056,0,0,0-.491.371,10.016,10.016,0,0,0-.588,1.035,3.228,3.228,0,0,1-.176.37,1.739,1.739,0,0,0-.467,1.18A.581.581,0,0,1,4-66.764a5.3,5.3,0,0,0-.3.7l-.029.148a.666.666,0,0,1-.159.395,1.275,1.275,0,0,0-.423,1.187,2.618,2.618,0,0,1-.146,1.152,2.2,2.2,0,0,0-.188,1.436,1.017,1.017,0,0,1-.065.56,1.835,1.835,0,0,0-.025,1.221,3.691,3.691,0,0,1,.112.557.827.827,0,0,0,.135.494.952.952,0,0,1,.154.549l-.007.247L3.03-58.1c-.043.022-.085.045-.127.071a.887.887,0,0,0-.4.837,1.18,1.18,0,0,1-.034.443.658.658,0,0,0,.124.692c.056.062.116.122.175.181l.028.029-.142.329c-.086.2-.173.4-.256.612a1.318,1.318,0,0,1-.159.238,1.552,1.552,0,0,0-.4,1.2,1.362,1.362,0,0,0,.117,1.258.632.632,0,0,1,.076.243,1.572,1.572,0,0,0,.092.833A2.4,2.4,0,0,0,.844-50.1a1.4,1.4,0,0,0-.652.808l-.01.024a1.165,1.165,0,0,1-.094.2,3.441,3.441,0,0,0-.268.695,1.371,1.371,0,0,0-.1.562c.061.509.139,1.068.228,1.654a1.012,1.012,0,0,0,.267.614l.12.1c.02.013.031.034.033.022a1.071,1.071,0,0,0,.017.183,2.207,2.207,0,0,0-.844,1.011,2.854,2.854,0,0,1-.244.493,2.1,2.1,0,0,0-.553,1.56c0,.084-.005.168-.012.247a1.066,1.066,0,0,0,.341.785,1.2,1.2,0,0,0,.09.112,1.265,1.265,0,0,0,.343.589,1.124,1.124,0,0,0-.1.169,1.169,1.169,0,0,1-.514.563,1.59,1.59,0,0,0-.573.351.716.716,0,0,1-.6.223.963.963,0,0,0-.287.075l-.21.064c-.082.025-.165.051-.246.073l-.08-.031a3,3,0,0,0-.6-.125,1.236,1.236,0,0,0-.271.034l-.167.017c-.135.012-.278.026-.407.05a.844.844,0,0,0-.724.829l-.068.205a1.144,1.144,0,0,0,.158.874,1,1,0,0,0,.585.43c.095.11.186.224.277.336s.2.253.283.345a1.186,1.186,0,0,0,.428.348c.549.237,1.049.451,1.638.662a2.366,2.366,0,0,0,.644.053l.116-.005c.1.014.2.03.3.047l.555.1.224-.342a3.43,3.43,0,0,0,.253-.464.6.6,0,0,1,.334-.373,1.472,1.472,0,0,0,.945-.554c.039-.059.112-.129.353-.152a1.448,1.448,0,0,0,.68-.367,2.1,2.1,0,0,0,.269-.278c.029-.034.061-.073.072-.083.217-.146.452-.279.687-.412l.039-.022c-.108.191-.216.38-.322.571l-.257.459a5.158,5.158,0,0,0-.354.647,5.919,5.919,0,0,1-.287.757,4.61,4.61,0,0,0-.594,1.555,2.249,2.249,0,0,1-.2.583A1.48,1.48,0,0,0,1.2-31.966a6.2,6.2,0,0,0-.382.829,9.318,9.318,0,0,0-.428,1.413,3.69,3.69,0,0,0-.171,1.1l-.005.631H65.063l.665-.075Zm-63.238-3.5a.25.25,0,0,1,.051-.254l.067-.1A3.4,3.4,0,0,0,2.9-33.595a3.508,3.508,0,0,1,.463-1.187,5.6,5.6,0,0,0,.346-.888c.076-.15.159-.3.267-.466l.292-.519c.185-.332.372-.664.568-1a.95.95,0,0,1,.187-.234,3.869,3.869,0,0,0,.773-.785,11.675,11.675,0,0,0,1.484-1.419c.166-.171.359-.371.547-.561.307-.277.613-.554.9-.815.3-.169.588-.359.885-.564a.326.326,0,0,0,.047-.023,1.878,1.878,0,0,0,.686.075c.042,0,.074,0,.121,0a2.836,2.836,0,0,1,.548.7,1.483,1.483,0,0,0,.805,1.274,3.962,3.962,0,0,0,.961.448.7.7,0,0,0,.382.2,5.29,5.29,0,0,0,3.109-.35,3.428,3.428,0,0,0,1.156-.87,3.116,3.116,0,0,0,1.946,1.042,1.491,1.491,0,0,0,2.133,0,2.626,2.626,0,0,0,1.468-.712A1.932,1.932,0,0,0,23.5-41.5a7.11,7.11,0,0,1,.69-.881,2.914,2.914,0,0,0,.639-.109l.005,0c.124.058.253.119.374.188.654.373,1.306.751,1.9,1.1a2.057,2.057,0,0,1,.226.2,5.059,5.059,0,0,0,.7.535,2.094,2.094,0,0,1,.932.925,5.192,5.192,0,0,0,.826,1.036,1.221,1.221,0,0,0,.162.154c.169.378.35.757.554,1.16l.409.8.609-.665A12.058,12.058,0,0,1,32.98-38.4l.1-.065A8.266,8.266,0,0,0,34.6-39.2a9.4,9.4,0,0,1,1.4-.624,4.853,4.853,0,0,0,1.906-.664l.006,0,.019.021h.048a6.011,6.011,0,0,0,2.183-.438,12.856,12.856,0,0,1,1.363-.333l.244-.061a2.265,2.265,0,0,0,.924.133,2.911,2.911,0,0,1,.409.238,2.371,2.371,0,0,0,1.136.475,13.431,13.431,0,0,0,3.121.047,5.92,5.92,0,0,0,2.447-.858,1.575,1.575,0,0,0,1.1-.477,2.933,2.933,0,0,0,.352.109,11.617,11.617,0,0,1,2.131.621c.343.093.7.168,1.011.232.212.045.425.09.636.14.124.029.244.069.368.109l.99.286c.408.115.814.228,1.206.347a2.355,2.355,0,0,1,.475.219c.083.047.161.1.262.169a2.189,2.189,0,0,0,1.13.46,5.329,5.329,0,0,0,.495.3,1.954,1.954,0,0,1,.606.431l.089.123a1.506,1.506,0,0,0,.845.677l0,0c.108.194.219.414.3.594a2.059,2.059,0,0,0,1.077,1.3l.05.1a4.928,4.928,0,0,1,.255.612c.09.275.169.559.245.835l.029.1a.766.766,0,0,0,.171.53.839.839,0,0,1,.159.653,8.082,8.082,0,0,0,.259,2.1,12.184,12.184,0,0,0,.226,1.458H1.555c.014-.05.028-.1.045-.156a8.873,8.873,0,0,1,.392-1.3,5.506,5.506,0,0,1,.3-.669A1,1,0,0,0,2.428-32.236ZM-1.63-36.153c-.447-.166-.924-.365-1.455-.61-.093-.109-.182-.221-.272-.332-.106-.132-.213-.265-.342-.412a1.608,1.608,0,0,0-.367-.281l.287-.052c.052.008.1.019.143.026l.056.011a.747.747,0,0,0,.6.15c.215-.048.427-.112.629-.176l.143-.067h.029a1.8,1.8,0,0,0,1.372-.582.5.5,0,0,1,.156-.076A2.616,2.616,0,0,0,.567-39.747a1.937,1.937,0,0,0,.191-.177.865.865,0,0,0,.318-.659.924.924,0,0,0-.7-.784.845.845,0,0,0-.265-.487C.081-41.893.05-41.932-.01-42L0-42.133a1,1,0,0,1,.247-.794,3.523,3.523,0,0,0,.46-.844.974.974,0,0,1,.428-.466,1.191,1.191,0,0,0,.492-.658,1.045,1.045,0,0,0-.005-.569,1.328,1.328,0,0,0-.437-.911c-.07-.477-.149-1.024-.2-1.552l.032-.091a2.44,2.44,0,0,1,.156-.441,2.268,2.268,0,0,0,.179-.373.333.333,0,0,1,.136-.186.773.773,0,0,0,.385-.373A1.2,1.2,0,0,1,2.7-50a6.247,6.247,0,0,0,.652-.287l.547-.4-.363-.568a2.025,2.025,0,0,0-.182-.257.375.375,0,0,1-.073-.325,1.845,1.845,0,0,0-.255-1.033.214.214,0,0,1-.033-.121l.213-.337-.114-.305c-.014-.04-.02-.056.154-.287a2.2,2.2,0,0,0,.325-.537c.054-.136.111-.271.169-.4.045-.007.089-.015.132-.024a3.938,3.938,0,0,0,.922.449.866.866,0,0,0,.283.083,1.077,1.077,0,0,0,1.166-.129,1.449,1.449,0,0,0,.291.649,1.438,1.438,0,0,0,.428,1.02.349.349,0,0,1,.077.168,5.934,5.934,0,0,0,.915,1.706.849.849,0,0,1,.09.143,2.783,2.783,0,0,0,1.285,1.437,5.358,5.358,0,0,0,.879.506,5.367,5.367,0,0,1,.528.259,1.056,1.056,0,0,0-.012.718,1.357,1.357,0,0,0-.119.426.886.886,0,0,1-.2.421,3.635,3.635,0,0,1-.642.787.775.775,0,0,0-.373.6.766.766,0,0,0,.269.633.951.951,0,0,1,.284.791,1.773,1.773,0,0,0,.053.34,11.048,11.048,0,0,1-.975.76,4.09,4.09,0,0,0-.955.595,5.225,5.225,0,0,0-1.093.963l-.564.508c-.263.237-.526.475-.757.7a4.679,4.679,0,0,0-.593.642c-.085.022-.192.047-.336.08a4.571,4.571,0,0,0-1.067.316c-.1.055-.2.109-.306.162-.122.062-.244.125-.362.193l-.146.082c-.255.145-.519.295-.778.47a1.755,1.755,0,0,0-.346.338,1,1,0,0,1-.128.13.549.549,0,0,1-.049.043l-.022.019a1.512,1.512,0,0,0-1.123.635.189.189,0,0,1-.132.064l-.126.025A1.837,1.837,0,0,0-1.007-36.14l-.04-.006a1.162,1.162,0,0,0-.158-.01c-.046,0-.1,0-.175.005A2.238,2.238,0,0,1-1.63-36.153ZM3.985-61.987a1.058,1.058,0,0,1,.1-.693,3.945,3.945,0,0,0,.236-1.85c0-.008-.007-.035.051-.089a1.891,1.891,0,0,0,.533-1.109,3.981,3.981,0,0,1,.2-.454,1.868,1.868,0,0,0,.208-.718.689.689,0,0,1,.205-.483,3.207,3.207,0,0,0,.334-.629,5.618,5.618,0,0,1,.461-.779,1.268,1.268,0,0,0,.287-.165,5.51,5.51,0,0,0,.607-.539,12.576,12.576,0,0,1,1.253-.847,1.31,1.31,0,0,0,.99-.588.809.809,0,0,1,.148-.155,11.2,11.2,0,0,0,.937-.723l.171-.127a2.237,2.237,0,0,0,.266-.207,12.785,12.785,0,0,1,1.441-.738,1.5,1.5,0,0,0,1-.388l.058-.043a1.864,1.864,0,0,0,.74-.14,1.2,1.2,0,0,1,.247-.068,1.239,1.239,0,0,0,.726-.079c.176-.025.352-.039.61-.054a.89.89,0,0,0,.4-.039.27.27,0,0,1,.181,0l.144.027a3.272,3.272,0,0,0,.683-.019,2.663,2.663,0,0,1,.542.055,2.649,2.649,0,0,0,.982.123,2.945,2.945,0,0,1,1.193.291,1.885,1.885,0,0,1,.19.081l.031.016a1.685,1.685,0,0,0,1.055.219c.066.042.13.085.195.128l.036.025c.193.129.411.276.636.4a.982.982,0,0,1,.135.094l.025.019a1.569,1.569,0,0,0,.8.374,4.062,4.062,0,0,0,1.2.693l.018.02a2.243,2.243,0,0,0,.188.186c.191.175.381.35.568.528a1.2,1.2,0,0,1,.089.1l.256.282c.076.082.153.165.231.253l.073.073a5.219,5.219,0,0,0,1.11,1.609c.2.249.389.5.645.858a1.3,1.3,0,0,0,.449.995l0,.009a1.792,1.792,0,0,0,.078.21l.295.637c.029.068.062.133.105.219.133.261.124.28.1.328l-.048.14a.93.93,0,0,0,.209.811l.089.083c.1.075.061.21.009.324a1.154,1.154,0,0,0,.161.978.453.453,0,0,1,.028.483.908.908,0,0,0,.051.66.4.4,0,0,1,.012.307,1.594,1.594,0,0,0-.021,1.272l-.008,0a1.31,1.31,0,0,0-.4.279,3.41,3.41,0,0,0-.2-.482.9.9,0,0,0-1.067-.584l-.052.016a1.748,1.748,0,0,0-1.238-.034c-.032.011-.066.006-.059.013a1.227,1.227,0,0,0-1.026-.286,2.289,2.289,0,0,1-.4-.18,1.56,1.56,0,0,0-.377-.733l-.02-.024a1.181,1.181,0,0,1-.094-.129.8.8,0,0,0-.545-.374.765.765,0,0,1-.514-.43,5.45,5.45,0,0,0-.457-.638,1.41,1.41,0,0,0-.423-.894.522.522,0,0,1-.06-.277,1.63,1.63,0,0,0-.5-1.166A.88.88,0,0,0,20.612-66a.883.883,0,0,0-.62.671,2.077,2.077,0,0,0-.016,1.089,2.852,2.852,0,0,1,.069.312,1.633,1.633,0,0,0,.448,1,.822.822,0,0,1,.2.385,2.05,2.05,0,0,0,.661,1.113,5.218,5.218,0,0,1,.437.46c.064.067.13.132.2.2a1.2,1.2,0,0,1-.474.08,1.237,1.237,0,0,0-.26-.017,2.81,2.81,0,0,1-1.359-.21,1,1,0,0,0-.033-.247v-.261l-.039.147a1.059,1.059,0,0,0-.7-.58.2.2,0,0,1-.105-.068,1.069,1.069,0,0,0-.978-.453,3.856,3.856,0,0,0-.915-.988c-.125-.278-.241-.568-.337-.838a1.172,1.172,0,0,0-.4-.761,4.177,4.177,0,0,0-.284-.986.827.827,0,0,0-.845-.639.847.847,0,0,0-.832.815c0,.074-.006.148-.012.223l0,.028a1.848,1.848,0,0,0,.2,1.2.809.809,0,0,0,.12.7,1.348,1.348,0,0,1,.139.307,1.958,1.958,0,0,0,.43.765,1.483,1.483,0,0,1,.255.416,3.9,3.9,0,0,0,1.3,1.355,1.288,1.288,0,0,0-.366.032,2.179,2.179,0,0,1-.621.079,2.048,2.048,0,0,1-1.053-.233,3.688,3.688,0,0,0-.877-.3,2.905,2.905,0,0,1-1.229-.592,2.179,2.179,0,0,0-.523-.332.588.588,0,0,1-.342-.347.984.984,0,0,0-.6-.676,4.549,4.549,0,0,1-.459-.921,1.426,1.426,0,0,0-.291-.536,3.066,3.066,0,0,0-.183-.695,1.85,1.85,0,0,0,.5-1.748,1.008,1.008,0,0,0-.95-.756.921.921,0,0,0-1,.665,2.236,2.236,0,0,0-.082,1.152l-.148.156c-.134.143-.261.277-.338.35a1.612,1.612,0,0,0-.771,1.361c-.072.075-.14.153-.207.232l-.03.036c-.049.056-.094.11-.119.135a.906.906,0,0,0-.331.885c0,.015.006.041-.051.131a6.57,6.57,0,0,0-.562,1.438,3.637,3.637,0,0,0-.151,1.4,2.261,2.261,0,0,1-.153.789,3.919,3.919,0,0,0-.108,1.093.765.765,0,0,1-.027.234c-.2-.184-.435-.376-.718-.594a1.024,1.024,0,0,0-.8-.565,2.292,2.292,0,0,0-.231-.585,1.021,1.021,0,0,0-.012-.136,5.45,5.45,0,0,0-.156-.72.6.6,0,0,1,0-.395A2.24,2.24,0,0,0,3.985-61.987Zm-.077,4.82a1.82,1.82,0,0,0,.391-.155,6.387,6.387,0,0,1,.719.575,1.136,1.136,0,0,0,.547.318,1.136,1.136,0,0,0,.278.034,1.106,1.106,0,0,0,1.082-.8,2.233,2.233,0,0,0,.132-.829,2.8,2.8,0,0,1,.05-.679,3.329,3.329,0,0,0,.209-1.216,2.562,2.562,0,0,1,.106-1.008,5.523,5.523,0,0,1,.428-1.131,1.333,1.333,0,0,0,.229-.813c.065-.068.127-.14.187-.211l.035-.042c.044-.053.084-.1.107-.124a.983.983,0,0,0,.359-.841.433.433,0,0,1,.247-.381c.067-.055.132-.114.2-.18a2.482,2.482,0,0,1,.058.294,1.36,1.36,0,0,0,.27.549.316.316,0,0,1,.056.12,5.594,5.594,0,0,0,.59,1.2,1.181,1.181,0,0,0,.5.5,1.83,1.83,0,0,0,.994,1.012,1.009,1.009,0,0,1,.217.143,4.2,4.2,0,0,0,1.776.858,2.486,2.486,0,0,1,.576.195,3.212,3.212,0,0,0,1.63.366,3.348,3.348,0,0,0,.9-.118.628.628,0,0,1,.086.019l.037.008a1.673,1.673,0,0,0,.48.053,3.613,3.613,0,0,0,.829-.186l.048-.016a2.624,2.624,0,0,1,.472-.116l.384-.105a1.348,1.348,0,0,0,.406.155,3.59,3.59,0,0,0,1.749.263l.107.018a2.411,2.411,0,0,0,1.441-.35,1.72,1.72,0,0,0,.606-.448l.021.016a3.537,3.537,0,0,0,.966.521.967.967,0,0,0,.659.065l.023.022a1.323,1.323,0,0,0,1.266.2.484.484,0,0,1,.326,0,1.05,1.05,0,0,0,.558.114,2.479,2.479,0,0,1,.119.361,1.952,1.952,0,0,0,.249.659.949.949,0,0,0,.942.6,1.569,1.569,0,0,0,1.031-.462l.017-.018a.685.685,0,0,1,.015.075c.043.335.012.4-.269.548a1.214,1.214,0,0,0-.38.3,2.983,2.983,0,0,1-1.166.975.707.707,0,0,0-.463.585,6.2,6.2,0,0,1-.367,1.141,1.78,1.78,0,0,0-.124.741.89.89,0,0,1-.195.785,3.374,3.374,0,0,0-.686,1.125,1.528,1.528,0,0,1-.31.455c-.066.064-.139.122-.21.181a1.486,1.486,0,0,0-.434.47,2,2,0,0,1-.52.628,3.98,3.98,0,0,1-1.525.784,4.215,4.215,0,0,0-1.047.335,2.158,2.158,0,0,1-1.321.275,1.6,1.6,0,0,0-.665.153.67.67,0,0,0-.393.807,3.357,3.357,0,0,1-.056,1.684,1.166,1.166,0,0,0-.019.586c.008.04.018.1.028.169l-.006,0c-.406.336-.782.714-1.147,1.079-.247.249-.5.505-.764.746l-.033.03c-.315.287-.313.286-.614.031a11.114,11.114,0,0,0-1.665-1.279.777.777,0,0,1-.366-.73,10.7,10.7,0,0,0-.107-2.149c-.02-.078-.095-.143-.25-.211A.709.709,0,0,0,14-48.268c-.348-.054-.7-.125-1.041-.194-.159-.031-.317-.064-.484-.093a1.285,1.285,0,0,0-.342-.161.884.884,0,0,0-.5-.8A6.464,6.464,0,0,0,10.708-50a5.119,5.119,0,0,1-.738-.429,1.664,1.664,0,0,1-.783-.866,2.157,2.157,0,0,0-.247-.41,4.656,4.656,0,0,1-.707-1.291,1.548,1.548,0,0,0-.383-.695.245.245,0,0,1-.07-.205.949.949,0,0,0-.26-.7.243.243,0,0,1-.051-.187.94.94,0,0,0-.934-1,1.4,1.4,0,0,0-1.006.261c-.064-.023-.14-.043-.265-.075a3.2,3.2,0,0,1-.906-.477l-.262-.2a5.306,5.306,0,0,0-.306-.627c-.056-.08-.08-.147-.067-.183S3.8-57.145,3.908-57.167ZM19.575-45.321h.008l.015.015h0Zm-7.342,3.656a3.96,3.96,0,0,0-.758-1.055,5.89,5.89,0,0,1,1.235-.645h0a3.244,3.244,0,0,0,.576-.3c.48-.359.652-.342,1.033.115A6.006,6.006,0,0,0,15.5-42.5c.152.106.312.2.468.3s.341.206.506.325c-.2.194-.371.355-.556.514-.11.094-.232.181-.35.267l-.145.106a.161.161,0,0,1-.023.012l-.025.015a5.464,5.464,0,0,1-.805.176l-.026,0a.708.708,0,0,1-.11-.021,6.506,6.506,0,0,0-.978-.2,2.553,2.553,0,0,1-1.01-.36l-.032-.021-.083-.05.005-.02Zm1.153-3.975a1.39,1.39,0,0,0-.023.377c-.3.042-.368.1-.675.386a1.658,1.658,0,0,1-.337.2l-.05.027c-.158.087-.322.179-.486.256a3.355,3.355,0,0,0-.562.35q-.012-.034-.025-.066c-.017-.041-.028-.082-.036-.108l0-.017a2.134,2.134,0,0,0-.361-1.311,4.373,4.373,0,0,0,.6-.769,2.013,2.013,0,0,0,.418-.983.225.225,0,0,1,.05-.116l.021-.037.019.009a3.23,3.23,0,0,0,.4.193,6.659,6.659,0,0,0,.833.166c.124.02.249.039.372.061l.011,0A2.3,2.3,0,0,0,13.386-45.64Zm8.959,3.627-.108.171.005.066a13.055,13.055,0,0,0-1.241.6.576.576,0,0,1-.455.137,3.25,3.25,0,0,1-1.2-.274c-.248-.18-.518-.4-.8-.642,0-.068.034-.169.248-.333a4.705,4.705,0,0,0,1.157-1.291,5.371,5.371,0,0,1,.42-.534.42.42,0,0,1,.043-.06.388.388,0,0,1,.266-.132.4.4,0,0,1,.291.1,9.382,9.382,0,0,0,2.214,1.1A8.376,8.376,0,0,0,22.346-42.013Zm16.575-8.341a1.515,1.515,0,0,1-.134-.978,5.584,5.584,0,0,0,.069-.928,22.141,22.141,0,0,0-.13-2.462c-.036-.4-.073-.795-.1-1.193A1.42,1.42,0,0,0,37.5-57.19a2.791,2.791,0,0,1-.648-.209,1.257,1.257,0,0,1-.69-.8.966.966,0,0,1,.271-.8l.046-.053.207.1.234-.079a1.711,1.711,0,0,0,.6-.33.3.3,0,0,1,.338.011,1.712,1.712,0,0,0,1.456.242,1.709,1.709,0,0,0,.881-1.19,1.96,1.96,0,0,0,.067-.81.921.921,0,0,1,.092-.506,11.318,11.318,0,0,0,.6-2.568c.09-.548.211-1.1.331-1.629l.011-.052c.15-.667.3-1.356.409-2.14a.5.5,0,0,1,.07.007c.491.03.976.012,1.445-.005l.248-.01c.649-.02,1.3-.015,1.81-.008a14.477,14.477,0,0,1,.062,2.813,2,2,0,0,0,.006.675,1.4,1.4,0,0,0,1.377,1.241h.069a8.446,8.446,0,0,1,.934.045,3.016,3.016,0,0,0,1.234.1,11.292,11.292,0,0,1,2.08-.123,8.008,8.008,0,0,1-.065,1.059c-.029.288-.064.615-.064.849a1.939,1.939,0,0,0-.02.446,1.931,1.931,0,0,0,.67,1.332,1.821,1.821,0,0,0,1.323.456,1.573,1.573,0,0,1,.221.031,1.384,1.384,0,0,0,.174.028,6.324,6.324,0,0,0,1.8.125l.251-.018.089-.1.119.054.036.016c.376.166.609.273.65.395s-.082.348-.294.718a.592.592,0,0,1-.055.1c-.079.081-.15.171-.222.259a1.066,1.066,0,0,1-.873.543c-.03,0-.067,0-.1.006a.751.751,0,0,0-.646.835,11.652,11.652,0,0,1-.337,2.8,4.971,4.971,0,0,0-.1.722,4.012,4.012,0,0,1-.1.726,5.764,5.764,0,0,0-.149,1.051,6.532,6.532,0,0,1-.1.845,8.125,8.125,0,0,0-.114,1.582,8.158,8.158,0,0,1-.093,1.46.832.832,0,0,1-.619.713,4.769,4.769,0,0,1-.675.16,13.431,13.431,0,0,0-2.115.421c-.134.045-.545.178-.554.548a13.484,13.484,0,0,1-.258,1.335l0,.016v.016a6.372,6.372,0,0,0,.269,1.439,4.677,4.677,0,0,1-1.855.643,12.486,12.486,0,0,1-2.862-.048,1.441,1.441,0,0,1-.579-.28A3.907,3.907,0,0,0,43.2-42.3c.005-.053.009-.112.013-.18.015-.391.005-.786-.005-1.17-.011-.442-.024-.9,0-1.335a.979.979,0,0,0,.016-.2.976.976,0,0,0-.973-.956h-.039a13.745,13.745,0,0,1-2.048-.153h-.007a1.9,1.9,0,0,1-.876-.3.435.435,0,0,1-.251-.4,9.954,9.954,0,0,1,.061-1.491A2.758,2.758,0,0,0,38.921-50.353Zm-3.595-16.68a.583.583,0,0,1,.429-.606,5.515,5.515,0,0,0,.593-.383c.109-.078.219-.156.291-.2a1.768,1.768,0,0,1,.252-.107,2.586,2.586,0,0,0,.743-.281l.131-.1a1.56,1.56,0,0,1,.9-.455l.459-.061.154-.944c.048-.292.093-.567.121-.779a1.41,1.41,0,0,0,0-.706.483.483,0,0,1,.07-.425l.057-.1a2.955,2.955,0,0,0,.2-.682,1.3,1.3,0,0,1,.334-.688,1.1,1.1,0,0,1,.693-.294,7.967,7.967,0,0,1,.805-.071,7.9,7.9,0,0,1,1.618-.065.893.893,0,0,0,.795-.269c.032,0,.081,0,.133,0a9.736,9.736,0,0,0,1.257,0,4.382,4.382,0,0,0,.682-.14l.041-.01c.106-.028.207-.055.267-.068a3.627,3.627,0,0,1,.514-.016c.575-.028,1.152-.059,1.723-.093a1.077,1.077,0,0,0,.224-.037,5.622,5.622,0,0,0,2.434-.11c.022-.006.045-.009.064-.014l.036-.006a4.452,4.452,0,0,0,1.814.173c.129-.012.195.019.41.254a1.711,1.711,0,0,0,.361,1.046,2.284,2.284,0,0,1,.163.293,1.052,1.052,0,0,0-.118.554c.015.356.032.712.051,1.082l.024.456-.072.6.588,0a.814.814,0,0,0,.526-.018.283.283,0,0,1,.275.059.879.879,0,0,0,.568.154l.109,0c.425-.016.864-.032,1.242-.069a1.594,1.594,0,0,1,.951.3,3.634,3.634,0,0,1,.106.827,3.238,3.238,0,0,1-.136,1.359l-.268.533a.944.944,0,0,0-.2.573.684.684,0,0,1-.205.505,1.111,1.111,0,0,0-.316.647,14.375,14.375,0,0,1-.3,1.766l-.018.092,0,.069a.5.5,0,0,1-.172.394l-.323.284.149.4a.3.3,0,0,1-.049.294l-.061.1a4.086,4.086,0,0,0-.328.939l-.014.052c-.107.119-.217.237-.327.354a2.2,2.2,0,0,0-1.022.5,5.649,5.649,0,0,1-1.273-.12l-.16-.027a2.6,2.6,0,0,0-.466-.05A.674.674,0,0,1,52.138-61a1.227,1.227,0,0,1,.016-.244c.006-.278.035-.561.066-.844a8.664,8.664,0,0,0,.068-1.288,1.226,1.226,0,0,0-.343-.927,1.008,1.008,0,0,0-.83-.206,11.338,11.338,0,0,0-2.323.127,2.052,2.052,0,0,1-.808-.08,8.61,8.61,0,0,0-1.243-.074.1.1,0,0,1-.082-.023.227.227,0,0,1-.077-.156,1.029,1.029,0,0,1,0-.345,15.83,15.83,0,0,0-.14-3.667l-.08-.52-.525-.009c-.728-.014-1.576-.027-2.41,0l-.227.008c-.446.018-.906.035-1.247.024a1.2,1.2,0,0,0-.919.152,1.209,1.209,0,0,0-.543.761.706.706,0,0,0-.028.208c-.094.659-.243,1.325-.387,1.969-.127.571-.259,1.16-.361,1.784a10.245,10.245,0,0,1-.518,2.267,2.09,2.09,0,0,0-.176,1.131.754.754,0,0,1-.027.313,1.2,1.2,0,0,1-.151.369.981.981,0,0,1-.327-.137,1.542,1.542,0,0,0-1.758.061c-.048-.032-.1-.067-.16-.1l-.04-.194c-.145-.7-.288-1.409-.459-2.181a2.8,2.8,0,0,0-.171-.4l-.06-.14a11.252,11.252,0,0,0-.228-2.253.769.769,0,0,0-.249-.6c-.043-.04-.056-.08-.05-.369A3.08,3.08,0,0,0,35.326-67.034ZM22.045-73.707Z" fill="#fff" stroke="#fff" stroke-width="0.5"/>
  </g>
</svg>
