<svg xmlns="http://www.w3.org/2000/svg" width="60.554" height="48" viewBox="0 0 60.554 48">
  <g id="icon_annai" transform="translate(-6.75 -11.901)">
    <path id="パス_27397" data-name="パス 27397" d="M55.072,27.415a.411.411,0,0,1-.028-.043h.029v-.1h.032v-.327h.032v-.119l.034-.011V26.65l.065-.192h.032l.077-.23.089-.042v-.067l.066-.031v-.021h.032v-.719h.032v-.111l.046-.021.088-.293h.064v-.066H55.8v-.11l.065-.035v-.063l.049-.025.023-.093h.06v-.1h.032v-.1h.032v-.1h.034v-.119l.032-.011v-.1h.032V23.9l.066-.033v-.051h.043l-.041-.5.011-.035a.744.744,0,0,0,.052-.392.585.585,0,0,0-.019-.064l-.011-.031.064-.189h.066v-.066H56.4l.032-.261h.047v-.119l.034-.012v-.119l.032-.011v-.066h.032v-.1h.034v-.49h.032v-.143l.066-.035.038-.149h.06v-.1h.016l.1-.653h.049v-.111l.066-.033v-.073l.083-.057.023-.085h.059v-.1h.034V19.76h.014l.032-.2H57.3l.028-.082a1.951,1.951,0,0,0-.137-1l-.02-.043-.043-.018a2.123,2.123,0,0,0-.215-.066c-.044-.013-.088-.024-.122-.036l-.037,0-.011-.033h-.69v-.02l-.9-.09v.055l-.228.018a1.027,1.027,0,0,0-.09-.072v-.076h.032V18h.044l-.054-.63h-.036a.751.751,0,0,1,.022-.162l.156-.116v-.038h.041l-.008-.127a1.217,1.217,0,0,0-.186-.524c-.03-.057-.061-.112-.086-.17l-.031-.072h-.024v-.032h-.3l-.131-.039V16.02L54.2,16a.219.219,0,0,1-.043-.014V15.9l-.722-.032v-.038h-.1V15.8h-.1v-.02l-.262-.031V15.7h-.066v-.033h-.1v-.018l-.263-.033V15.6l-.132-.033V15.52l-.426-.066V15.4h-.461v-.032h-.1V15.34h-.1v-.033h-.163v-.041L50.7,15.3v-.024h-.154l-.066-.1H50.43l-.034-.066h-.512v-.032H49.74l-.032-.066h-.02v-.033h-.065v-.032h-.532a2.485,2.485,0,0,0-.868-.061,2.412,2.412,0,0,1-.539.045v-.05h-.242l-.031-.064h-.076l-.059-.086-.118-.024v-.049l-.787-.032v-.038h-.12l-.012-.032h-.12l-.011-.032h-.46V14.49h-.46v-.018l-.263-.033v-.047h-.066V14.36h-.1v-.032h-.65l-.018.031-.02,0a1.526,1.526,0,0,0-.646-.056l-.088.024-.187,0v-.033h-.1v-.032h-.12l-.1-.029a.394.394,0,0,0-.274.032l-.066,0-.131-.039v-.06h-.12l-.012-.032h-.755V14.1h-.2l-.169-.049-.038-.082h-.023v-.025l-.558-.032v-.041h-.1l-.131-.038v-.06h-.1l-.1-.03a.176.176,0,0,0-.148.035l-.281.019v-.024h-.23v-.032h-.43l-.041-.013a.713.713,0,0,0-.316-.051.86.86,0,0,0-.176.039.625.625,0,0,1-.154.037v-.044h-.244l-.023-.044-.062-.021v-.066H37.9l-.194-.064v-.048l-.2-.032v-.051h-.12l-.1-.029a.207.207,0,0,0-.174.029h-.373l-.784-.038v.032l-.35-.02v-.039h-.1v-.032h-.526v-.033h-.065v-.032h-.1v-.032h-.484l-.053-.079-.252-.085v-.06l-1-.044v.038h-.12v-.032h-.1V12.89h-.1v-.033h-.163v-.032h-.361v-.033h-.1l-.132-.038v-.06h-.1v-.026l-.689-.032v-.039h-.112l-.024-.048-.095-.024v-.059h-.69v-.032h-.12l-.011-.033h-.1l-.084-.027a2,2,0,0,0-.708.027h-.335v.033h-.143l-.032,0a4.5,4.5,0,0,1-.8.044v-.049h-.493V12.4h-.12l-.011-.032h-.1v-.033h-.1V12.3h-.121l-.011-.033H26.8v-.032h-.163V12.2H26.31V12.17h-.1v-.032h-.12l-.012-.032H24.992a4.47,4.47,0,0,0-.509-.1,4.311,4.311,0,0,1-.493-.094,1.475,1.475,0,0,0-.6.068l-.079.029-.328.041v.02h-.023V12.04H22.9V12l-.482.044H22.14v-.017l-.4-.056-.043.051a1.211,1.211,0,0,1-.142.119h-.07l-.032.025a.345.345,0,0,0-.1.19c-.006.024-.012.053,0,.045l-.466.427v.053L20.845,13l-.031,0-.037-.012a1.7,1.7,0,0,0-.664-.131l-.085.025-.1,0v.059l-.131.033-.1.006v.048l-.126.018-.074.031-.018.036-.076.019-.022.044h-.112v.023l-.427-.032v.068l-.1.045-.014.026h-.11v.033h-.066v.037l-.061.061H18.4l-.034.064h-.038l-.488.448-.032.128-.236.2-.026.266H17.5v.119l-.032.011v.066h-.032v.1l-.052.18-.145.109-.024.079a.77.77,0,0,0-.03.365.8.8,0,0,1-.011.278.714.714,0,0,0-.029.387l.028.082v.055l.066.031v.066l.065.032v.11h.034v.3l.163.13v.129h.038l.061.061v.135h.1a.183.183,0,0,0,.1.057v.041h.144l.013.027.028.018c.026.018.05.031.072.043.048.026.059.031.071.068l-.013.012c-.136.024-.29.05-.408.082h-.334v.066l-.055.018-.066.1a.133.133,0,0,0-.03,0,.378.378,0,0,0-.168.023l-.06.024h-.036l-.031.064h-.056l-.066.1h-.074l-.032.066H16.64l-.116.156-.107.054v.073l-.1.067v.055l-.067.031v.075l-.163.14v.057l-.09.062-.037.284-.11.154h-.095l-.024.088a.353.353,0,0,1-.014.043h-.089v.119l-.06.076H15.53v.066H15.5v.111l-.054.047-.019.07H15.4l-.028.079a.5.5,0,0,0,.025.352.445.445,0,0,1,.034.143.508.508,0,0,1-.04.171.791.791,0,0,0-.06.288l0,.069.047.036a.208.208,0,0,0,.064.088l.032.026h.042l.031.045.012.074h-.078l.134.4.042.02v.049l.164.13v.081l.088.044.029.085.146.117v.066l.193.152.185.209a.511.511,0,0,0-.079.029l-.044.021h-.091v.032h-.065v.033h-.02l-.032.064h-.112v.033h-.1v.032h-.1v.032H15.76v.048l-.03.007-.029.057-.2.039V23.2a.593.593,0,0,0-.341.064l-.206.235-.364.289-.023.142h-.053V24h-.032v.111l-.066.031v.055h-.032v.064h-.032v.066h-.034v.066h-.032v.653H14.25v.1l-.026.075a2.549,2.549,0,0,0-.066.765l.029.079h.024l.032.131h.04l.072.211.038.059.024.012.019.075.043.021v.111h.067l.026.078.062.016a.891.891,0,0,1,.27.139l.064.041-.239.142h-.1l-.034.064-.142.051-.025.049-.139.049-.024.048h-.21v.059l-.131.032v.029l-.437.086-.187.22h-.068l-.132.162h-.071l-.074.332-.08.042V28.4l-.1.066v.064l-.1.066-.026.093a1.043,1.043,0,0,0,.06.414v.331h.032v.228h.034v.165h.032v.13h.043l.032.392H12.9v.019l.065.033v.064l.065.033v.055l.1.066v.076l.11.055L13.46,31H13.5l.064.042v.067l-.164.032-.426.011V31.2l-.263.031v.019h-.1v.033h-.163v.06l-.132.032-.076.1h-.065l-.066.1h-.074L12,31.642l-.18.2h-.084L11.7,31.9l-.139.048-.046.092-.2.17-.062.19-.119.079-.065.205h-.042l-.066.294h-.024l-.026.082a.579.579,0,0,0,.083.5.519.519,0,0,1,.047.094.943.943,0,0,1-.083.341l-.014.047a.5.5,0,0,0-.022.156c0,.042,0,.042-.017.057l-.04.042.012.094a.258.258,0,0,0,.049.146l.011.07.066.033.06.177.006.208.007.042a1.549,1.549,0,0,0,.514.481l-.173.107h-.091l-.118.158-.107.054v.063l-.066.035v.063l-.2.216h-.074l-.066.1h-.066l-.067.1-.127.054-.248.777-.006.245-.113.339-.15.111v.267H9.882v.119l-.032.011v.111l-.067.06a.714.714,0,0,0-.124.156H9.576l.054.632h.035l.029.287.058.027V39.7l.1.066v.076l.091.043a.888.888,0,0,1-.038.468c-.031.047-.067.054-.172.066a.767.767,0,0,0-.236.056l-.05.021H9.4l-.034.064H9.306l-.034.064H9.208l-.056.11-.178.147-.49.919-.013,1.081-.014.035a.509.509,0,0,0-.047.343,1.917,1.917,0,0,0,.5,1l-.079.094H8.748l-.034.064-.088.037-.064.036-.017.032-.4.036v.023H8.011v.059l-.132.032v.021l-.03.008-.032.064-.19.064-.053.078H7.486v.119l-.1.067v.055l-.065.033-.066.215H7.2l-.032.327H7.124v.1H7.092v.119l-.018.011-.032.229H6.994v.066H6.96v.064H6.928v.066H6.9v.066H6.862v.064H6.829v.066H6.75l.175.524c-.006.026-.016.056-.024.081a.648.648,0,0,0-.035.364l.026.086,0,.131h.032v.066H6.96v.13h.034v.294h.032v.066h.066l.025.076.062.017a.328.328,0,0,1,.134.09.608.608,0,0,0,.163.117l.042.122V48.8h.032v.064h.032v.066h.038l.06.061v.076l.455.324a.175.175,0,0,1-.02.078l-.106.053v.064l-.066.033v.019H7.921l-.034.457H7.847v.144l-.066.033V50.3H7.748v.074l-.025.069a.577.577,0,0,0,.023.34l-.108.561H7.584v.066H7.538l.013.131a.649.649,0,0,0,.118.314l.017.026.029.016v.143h.066l.065.2v.2h.032v.1h.034v.064h.032l.221.185.046.092.095.024v.059h.12l.012.02.3.032v.045h.1v.033H8.9v.032H9v.033h.152l.25.148a2.255,2.255,0,0,1,0,.295,2.973,2.973,0,0,0,0,.427.546.546,0,0,0,.022.105.377.377,0,0,1,.014.059l-.031.085a1.584,1.584,0,0,0-.032.627l.026.084h.019l.025.155.054.027v.111h.046l.048.054.047.066.155.025v.051h.658V55.5H10.6v.032h.121l.011.032h.1V55.6h.12l.012.032h.328l.086.027a.675.675,0,0,0,.346-.027h.224v.029l1.313.036a.665.665,0,0,0,.106-.021c.02-.006.04-.012.059-.016V55.7h.166v.032h.12l.011.032h.12l.011.033h.1v.032h.1v.033h.066v.032h.066v.032h.067l.2.066v.066h.1l.1.03a.465.465,0,0,0,.229-.037A.756.756,0,0,1,15,56.013v.044h.154l.066.1h.055l.032.066h.054v.025l.558.032.2.072V56.4l.624.066v.045h.12l.011.032h.066v.032h.1v.033h.1v.032h.1v.032h.623v.029l.82.037.3-.023v.024h.16l.1.13.006.032H19.8l.328.076v.055h.1v.032h.1V57.1h.163v.021l.194.016.028-.037h.306l.194.066v.066h.1v.026l.793.039.026-.008.133.021v.051h.065V57.4h.1v.026l.592.033v.038h.1l.132.039v.07l.394-.033v.023H23.8v.032h.328v.033h.1v.032h.1v.043l.821-.066v.023h.1l.2.064v.066h.066v.033h.1v.032h.065v.032h.1v.033h.1v.032h.1v.032h.12l.011.033h.2v.032h.12l.011.032h.1v.033h.164v.023l1.093.085v-.042h.352l.185.051.208.242v.032h.361l.085.027a1.079,1.079,0,0,0,.505,0l.077-.03V58.5a.539.539,0,0,1,.154-.041v.024l.169.041.041.082h.02v.032h.065v.033h.12l.012.032h.437v-.032h.109l.036-.006c.016,0,.038-.013.064-.024A.724.724,0,0,1,31,58.586l.041.085h.066l.026.051.125.025v.026l.09.024a.72.72,0,0,0,.336-.06l.286.031h.7V58.8h.2v.033h.065v.032h.112l.034.066h.052v.032h.066V59h.1v.033h.821v.032h.1l.132.039v.059h.12l.011.023.361.032.2.075v.066h.756l.089.029a.347.347,0,0,0,.226-.017c.018-.006.034-.011.025-.012l.437.033h.175v.032h.1v.033H36.9v.014l.2.032v.018l.084.027a.749.749,0,0,0,.643-.153.967.967,0,0,1,.193-.1v.032h.1v.032h.065v.033h.067l.2.064v.066h.12l.011.033h.3l.451.1.028-.007c.018,0,.042-.013.07-.023a1.132,1.132,0,0,1,.108-.036l.2.049.03.062.1.024v.023l.078.029a.688.688,0,0,0,.386-.025h.706l.085-.021a.968.968,0,0,1,.32-.063v.051h.144l.032.066h.058l.014.012a.335.335,0,0,0,.192.081.226.226,0,0,0,.1.026.362.362,0,0,0,.218-.1c.024-.018.059-.048.05-.048h.306v.032h.395v.032h.666v-.032h.023v.026l.832.047V59.78l.2-.064h.022l.034-.067.076-.02.032-.064.149-.05.059-.037.013-.025.074-.019.023-.043H45.2l.066-.1h.074l.034-.064H45.4l.036-.053a.447.447,0,0,0,.064-.256l0-.051h.053v-.119l.065-.208h.066v-.153l.1-.067.034-.008v-.066h.032v-.1l.04-.131h.059v-.11l.066-.035v-.041l.024-.006.031-.332h.016l.034-.13h.06v-.1h.032v-.2h.032v-.1h.034v-.1l.065-.193H46.4V56.61l.1-.291h.066l.079-.425h.025l.034-.131h.059V55.4H46.8v-.119l.032-.011v-.1h.032v-.1l.065-.195H47v-.066h.032V54.75l.04-.13H47.1l.044-.215.095-.07.032-.037a.582.582,0,0,0,.038-.339c0-.042-.007-.085-.007-.123h.05v-.143l.066-.032.157-.5a.708.708,0,0,0,.025-.213.306.306,0,0,1,.019-.14l.028-.033v-.47l.065-.044a1.29,1.29,0,0,0,.323-.472l.006-.571.047-.2h.053V50.96h.02l.032-.294h.037l.036-.534.071-.035v-.074l.065-.081v-.049l.079-.054.03-.088.22-.195h.032V49.1l.054-.236.078-.037v-.043l.022-.048a.565.565,0,0,0,.041-.162l0-.03h.064v-.064h.034v-.066h.025l.032-.522.04-.1h.066v-.032h.023l.052-.109.174-.139.022-.08h.068l-.085-1.023h-.006l.035-.136.145-.109.032-.006V45.8h.034v-.111l.048-.025.024-.092h.024l.029-.081a.391.391,0,0,0-.077-.35.475.475,0,0,1-.062-.124h.047V44.9l.066-.035v-.018h.032l.047-.261h.031l.032-.164h.054v-.066h.034v-.1h.032V44.2h.032v-.066h.034v-.067l.065-.195h.066v-.1h.032V43.7l.026-.072a.539.539,0,0,0-.032-.4c-.011-.031-.02-.059-.028-.081h.034v-.1l.04-.131h.059V42.5l.065-.195h.067v-.1h.016l.072-.5.076-.038v-.019h.034v-.064h.032v-.1h.041l-.032-.459.056-.455a.322.322,0,0,0-.026-.1.135.135,0,0,1-.014-.064L51,40.114l.118-.079.022-.084h.071l-.034-.361H51.2v-.064l.048-.164.083-.047V39.3h.034v-.1h.032v-.066h.032v-.119L51.461,39V38.84h.032v-.261h.032v-.119L51.6,38.4l.052-.153h.067v-.459l.065-.2h.054l.032-.294.078-.2H52l.065-.294h.056v-.066h.032v-.111l.066-.033v-.019h.023l.041-.49,0-.144.066-.033v-.051h.032v-.1H52.4l.072-.464.077-.037v-.075l.131-.1v-.053l.053-.026.024-.124h.055v-.064h.032v-.1h.034v-.1l.038-.131h.06v-.453l.131-.1v-.051l.048-.025.03-.118.074-.048.025-.155h.052v-.193l.15-.119.03-.117.062-.03.02-.063h.055l.038-.382.126-.094.022-.111h.044l.038-.419.2-.168v-.331l.065-.193h.059l.032-.49H54.3l.034-.229h.049v-.066h.028l.036-.861.068-.033v-.02h.032v-.119l.066-.081v-.041l.049-.025.032-.13.073-.037.032-.26.074-.037V28.83l.066-.032v-.054h.034v-.685h.032v-.111l.048-.023.024-.1H55.1l.028-.08A.345.345,0,0,0,55.072,27.415ZM10.91,52.139V52.1l-.492-.032v-.041l-.46-.08V51.9H9.847l-.014-.027-.028-.018a1.4,1.4,0,0,0-.133-.076c-.118-.062-.176-.1-.205-.2v-.094H9.5v-.345a1.171,1.171,0,0,1,.032-.189.841.841,0,0,0,.029-.4l-.024-.088,0-.26H9.51l.012-.121h.022l.04-.2.08-.039.03-.183a.234.234,0,0,0-.016-.13H9.7V49.4l.19-.168.026-.2h.047l.047-.261h.024l.034-.13h.06v-.1h.032v-.369h-.028l.022-.447h.038l.048-.261h.052V47.2h.032v-.111l.066-.032v-.066l.065-.031v-.021h.018l.032-.229h.049v-.119l.032-.011v-.119l.032-.012V45.9h.034v-.209l.065-.033v-.041l.022-.048a.743.743,0,0,0,.049-.178l0-.017a.293.293,0,0,0,.041.017.747.747,0,0,0,.154.289l.032.024h.04l.143.1v.129h.032V46h.034v.1h.032v.02l.066.032v.11h.032v.066h.067a.366.366,0,0,1-.058.279l-.042.036v.234l-.008.01c-.019.026-.032.031-.042.03a.352.352,0,0,0-.172.031l-.056.024h-.036l-.034.064h-.052l-.1.131h-.071l-.066.1-.086.021-.022.043H10.54v.066h-.034l0,.27a.26.26,0,0,0-.024.215l.026.079v.021l.066.033v.064l.065.033v.111h.044l.032.326h.034l.052.057.05.074h.017v.033h.4l.2.064v.03l.079.029a.812.812,0,0,0,.548-.1l.053-.023h.314v-.088l.1-.066v-.044l.066-.1q.029-.018.058-.032a.5.5,0,0,0,.143-.1h.109l.018-.1a.562.562,0,0,1,.269-.439l.058-.032.042-.878h-.053l-.034-.261H13.21v-.1h-.06l-.031-.13h-.041l-.049-.146L12.8,46a.471.471,0,0,1,0-.107.387.387,0,0,0-.035-.244l-.018-.031-.03-.014V45.55l-.1-.066v-.051l-.066-.064v-.136H12.52v-.064h-.032v-.019l-.065-.033-.052-.139L12.3,44.94a.5.5,0,0,1-.007-.082l.131-.033V44.8l.188-.026.028-.055h.049l.139-.172.4-.066.112-.153L13.7,44l.038-.067h.1V43.9H13.9v-.032H14v-.033h.2v-.032l.078-.1.119-.075V43.61h.032v-.074l.025-.07a1.9,1.9,0,0,0-.066-.768l-.025-.069v-.14h-.037l-.023-.48h.028v-.5h-.032v-.359h-.055l-.025-.125L14.161,41v-.111h-.032v-.1H14.07l-.032-.13h-.022l-.008-.031-.043-.021v-.033l-.026-.032a.509.509,0,0,0-.238-.125l-.031-.011v-.073H13.6l-.193-.064v-.049l-.238-.038-.036-.076h-.022v-.023l-.329-.031v-.019l-.169-.042-.026-.053-.1-.049-.055-.164.018-.209.049-.025.022-.062h.019L12.8,38.9l.044-.79a.283.283,0,0,0-.022-.068A.35.35,0,0,1,12.808,38l.106-.069.034-.011V37.86h.032v-.1h.034v-.1h.014l.041-.245.108-.072v-.055l.066-.033v-.074l.132-.1v-.061l.155-.143c.091,0,.2,0,.229.031l.023.024.032.008c.118.031.2.173.25.293l.032.07h0c0,.048-.016.1-.024.146a.5.5,0,0,0-.019.178l.016.1h.016v.153l-.04.131h-.059v.1h-.034V38.4l-.052.2-.079.039v.073l-.066.012-.256.29-.138.091v.056l-.052.024-.025.127h-.054v.118a.842.842,0,0,0,.516.7l.272.074v.027l.634.209v-.078h.088l.032-.066h.041l.136-.135v-.049l.083-.068.035-.041.178-.061v-.038l.146-.049.17-.2.11-.053v-.023H15.7v-.064h.034v-.719a.538.538,0,0,1,.052-.088.65.65,0,0,0,.11-.236l.014-.07-.058-.047a.221.221,0,0,1-.035-.038.625.625,0,0,0-.041-.048.838.838,0,0,1,.095-.209c.016-.026.031-.053.046-.08h.091l-.083-.817h.019l-.06-.534-.185-.134v-.061l-.354-.315-.168-.208h-.049l-.023-.044-.062-.021v-.066h-.12l-.174-.2H14.7l-.058-.081-.731-.209-.137-.2.012-.063.065-.031.023-.093h.059V34.69h.032v-.1H14v-.1h.032v-.1h.032v-.1H14.1v-.1h.032v-.119l.032-.012V34h.034v-.119l.032-.012v-.19c.012-.023.028-.045.043-.069a.412.412,0,0,0,.1-.308.252.252,0,0,0-.077-.131c0-.091.019-.1.076-.118a.689.689,0,0,0,.17-.088l.221-.3.06-.014a.389.389,0,0,1,.419.025c.032.016.066.03.1.045l.047.01.142.1a1.534,1.534,0,0,1-.156.671l-.347.315a.307.307,0,0,0-.046.107l-.05.043.056.386H14.95l.07.406.316.105.043.087h.074l.068.1h.055l.034.066h.019v.033h.1l.131.038v.023l.079.029a1.317,1.317,0,0,0,.562-.027.42.42,0,0,0,.337-.293.722.722,0,0,1,.052-.1l.163-.122v-.078l.018-.013a.294.294,0,0,0,.136-.178.455.455,0,0,0,.043-.259c0-.029,0-.056,0-.076l.043-.49h-.043v-.1h-.032v-.066h-.047a1.5,1.5,0,0,1,.023-.219h.056v-.78l-.065-.033v-.064l-.065-.033-.06-.178-.006-.2h-.032V31.87h-.034l-.131-.1V31.61h-.066l-.034-.068-.065-.017-.034-.051-.036-.017-.05-.011-.011-.032h-.12l-.012-.024-.46-.033v-.041h-.1l-.084-.027a.483.483,0,0,0-.27,0,.264.264,0,0,0-.055.014l-.042-.019a.108.108,0,0,1-.047-.02l-.01-.007-.007-.023a.225.225,0,0,1-.011-.146.6.6,0,0,0,.026-.35l-.026-.073V30.6h-.032v-.066h-.067a.2.2,0,0,0-.02-.043.4.4,0,0,1,.1-.129l.037-.036.1-.07.018-.072h.049l.032-.392.076-.2H15.7v-.1h.034v-.487l.163-.13V28.83l.044-.02.022-.066h.066v-.11l.029-.016.018-.027a.618.618,0,0,0,.061-.141.2.2,0,0,1,.054-.1,1.5,1.5,0,0,1,.562-.036l.086,0a.784.784,0,0,0,.182.129l0,.01a.441.441,0,0,1,.014.049h-.035v.468h.032v.189a1.855,1.855,0,0,1-.229.1,1.615,1.615,0,0,0-.168.073l-.032.018h-.03l-.3.337v.045a.9.9,0,0,0,.08.447l.018.035v.048l.066.033v.111H16.5l.034.261h.018v.066h.032l.1.075V30.9H16.8l.277.337.772-.122.019-.075a.126.126,0,0,1,.02-.05c.008-.016.017-.03.025-.049l.094-.032.02-.053a.39.39,0,0,0,.024-.118H18.1v-.119l.034-.012v-.1h.032v-.066h.017l.04-.273.222-.125.054-.189h.062v-.111l.043-.02.088-.261h.032l.028-.082a1.559,1.559,0,0,0-.036-.638l-.024-.056V28.6H18.66v-.131H18.6l-.031-.131-.007-.1h-.034v-.064H18.5v-.1H18.43l-.065-.195-.1-.076v-.088h-.12l-.139-.164h-.058l-.34-.358v-.033h-.065v-.033h-.1V27.1h-.158l-.1-.131H17l-.134-.044h0c0-.014-.01-.029-.013-.042h.036v-.066h.034v-.111l.037-.019.018-.038a.56.56,0,0,0-.095-.527l.037-.012.038-.079.127-.087v-.055l.066-.033.024-.093a.953.953,0,0,0,.028-.41,1.681,1.681,0,0,1-.006-.2h.053V25.04l.066-.035v-.018h.032v-.066h.032v-.1h.034v-.066l.182-.638.179-.142v-.134l.011-.027c.032-.084.035-.091.116-.118h0a1.064,1.064,0,0,1,.3.179l.066.048.071.427-.035.173-.079.039v.019H18.19v.1l-.029.09a.671.671,0,0,0,.072.338l.028.066a1.676,1.676,0,0,1-.076.25l-.022.059a.428.428,0,0,0-.018.154c0,.029,0,.038.008.033l-.292.319H17.8l-.113.115a.75.75,0,0,0-.1.27.458.458,0,0,1-.078.2l-.04.036v.369h.1a.16.16,0,0,0,.036.027v.07h.1v.033h.11l.026.051.125.025v.049l.887.039.378-.34.1-.119h.128v-.093l.131-.1v-.06l.12-.1.024-.027a.552.552,0,0,0,.066-.357c0-.038,0-.076,0-.111h.054V25.9h.032v-.1H19.9l.034-.457h.041v-.119l.032-.012v-.064h.034V25.04l.065-.035.025-.1a.644.644,0,0,0-.025-.386v-.56h-.032v-.02l-.066-.032V23.8h-.032v-.064H19.94v-.1h-.034v-.2h-.032V23.39l-.065-.032v-.112h-.032V23.18h-.032v-.1H19.71v-.066h-.032l-.274-.228-.274-.053-.172-.2-.026-.023a.4.4,0,0,0-.256-.042l-.05,0v-.047h-.1l-.108-.036a.764.764,0,0,1-.007-.149h.054v-.589l.014-.024a.993.993,0,0,1,.3-.2l.061-.033h.154v-.078l.066-.035v-.073l.089-.06.065-.449.06-.03.032-.13.067-.035.058-.254h.03l.032-.131h.05l.037-.486,0,0h.167l.031.064h.056a.431.431,0,0,0,.055.084l.035.045.034.133.006.457H20v.1h.032v.131h.034v.064h.049c0,.042-.006.088-.011.135a.526.526,0,0,0,.037.355.273.273,0,0,0,.2.211c.016.006.031.011.046.018l.032.063.029.018a.982.982,0,0,0,.528.082l.053,0,.034-.041a.222.222,0,0,1,.076-.05.594.594,0,0,0,.1-.063l.029-.023.03-.092.1-.066.062-.187.089-.044V21h.032v-.327h.032v-.7h-.007a.507.507,0,0,0,0-.244l-.026-.082v-.1h-.059l-.034-.13-.006-.1H21.45V19.26H21.4l-.058-.31-.088-.059V18.8h-.11l-.032-.066h-.076l-.091-.113-.086-.027-.043-.087h-.066l-.028-.055-.228-.037-.2-.15a2.793,2.793,0,0,0-.067-.283.567.567,0,0,0,.054-.064L20.3,17.9h.092l.053-.107.175-.14.02-.079h.049l.037-.468.071-.036v-.019h.032l.054-.3.066-.053.018-.072h.049l.032-.358h.044v-.112l.065-.032v-.066l.066-.032v-.185l.065-.193h.066v-.1l.037-.049a.984.984,0,0,0,.023.161l.025.087,0,.294H21.5l.046.1.026.013v.033l.026.032a.332.332,0,0,0,.124.088l.032.053.064,0c.05,0,.1.008.16.013a1.262,1.262,0,0,0,.542-.02l.073-.026H22.7v-.045l.055-.049.062-.045.025-.122h.06l-.038-.861.044-.488h-.071l-.034-.131L22.8,14.57l-.065-.033v-.111h-.037l-.061-.061V14.3l-.306-.271-.04-.2.061-.013.065-.1h.121v-.1l.034-.032a.3.3,0,0,1,.138-.1l.049-.026a.577.577,0,0,1,.235,0,.952.952,0,0,0,.308,0,4.043,4.043,0,0,1,.691-.007c.134.006.26.011.361.011h.275v.032h.1v.033h.1v.032h.1v.033h.066v.032h.1l.084.027a.485.485,0,0,0,.349-.045l.032-.013.53.027.032.069h.077l.066.1.011.032H27.56l.032.066h.074l.068.082.038.033a.443.443,0,0,0,.292.026.852.852,0,0,1,.127-.012H29.33v-.032h.1v-.059l.132-.033V13.87a2.5,2.5,0,0,1,.384.074v.066h.065v.033h.1v.032h.066v.039l.624-.032v.026h.1v.032h.12l.011.032h.361v.033h.2v.032h.3l.328.109.044.087h.065l.031.066h.022v.03l1.117.032V14.6h.065v.033h.1v.032l.23.043v.055h.1l.083.026a.763.763,0,0,0,.45-.049l1.109-.01v.032h.1l.131.039v.059h.066v.02l.329.033v.05l.689-.033v.027H37l.634.2.581-.057.164.056v.066h.066v.032h.2v.032h.919l.3.075v.056h.1v.033h.1v.032h.1v.032h.1v.038l.821-.033v.029h.112l.032.064h.02v.033H41.3v.021l.362.033v.043h.83v-.033h.1v-.032h.811l.3.074v.03l.131.033v.059h.12l.086.091.089.018v.055h.514a1.977,1.977,0,0,1,.21.014,1.191,1.191,0,0,0,.482-.02L45.42,16v-.02a1.075,1.075,0,0,1,.374.11,1.212,1.212,0,0,0,.157.066.818.818,0,0,0,.55-.09l.092-.041a.486.486,0,0,1,.054.038.371.371,0,0,0,.1.062l.443.1v-.079a2.686,2.686,0,0,1,.778.084V16.3h.12l.011.016.427.066v.049h.066v.033h.661a2.327,2.327,0,0,0,.608.064h.306v.033h.066v.032h.112l.031.066h.054v.032h.1v.038l.656-.032v.026h.12l.058.084.085.021v.059h.263v.033l.263.047v.051h.69v.032h.1v.032h.12l.011.033h.164v.032h.1v.033h.12l.031.044.013.152h.032v.1h.034v.1h.038a.706.706,0,0,1-.089.185.657.657,0,0,0-.082.177l-.024.314H53.19v.1l-.04.13H53.1l-.032.784-.07.2h-.067v.119l-.032.011v.121l-.032.011v.229h-.034l0,.227a.17.17,0,0,0-.032.141.648.648,0,0,0,.026.087l.014.035-.011.143-.065.035v.018h-.017l-.032.224-.049,0v.067l-.1.293H52.5v.064l-.04.131h-.018l-.031.072a1.648,1.648,0,0,0-.076.628V22.3H52.3v.1l-.038.13H52.2v.066h-.032v.1H52.14l-.054.3-.078.038v.02h-.032v.064h-.032v.1h-.028l-.034.751-.044.13h-.025l-.078.232-.073.037-.025.124h-.054v.066H51.55v.457l-.078.326h-.054v.1h-.034v.1h-.02l-.032.294h-.046v.067h-.032v.1h-.032v.064h-.034v.066h-.032v.067l-.065.195h-.048L51,26.627l-.109.072-.025.01-.034.556h-.04v.064h-.032v.1h-.034v.066H50.7v.1h-.032v.119l-.041.012.032.522-.044.2-.079.038v.076l-.032.011v.111l-.066.032v.074l-.061.076h-.037v.066H50.3V29h-.032v.158l-.131.1V29.3l-.03.014-.018.029a.465.465,0,0,0-.058.191l0,.014h-.05l-.04.753.006.02a.491.491,0,0,0,.026.07.725.725,0,0,1,.049.168h-.048v.119l-.158.135-.026.269-.077.2h-.067v.066h-.032v.066h-.034v.064h-.022l-.031.327H49.48v.119l-.032.011v.1h-.032v.1h-.034v.229h-.032v.1h-.032v.066h-.034v.143l-.065.033v.051h-.046l.044.438a1.379,1.379,0,0,0-.014.349c0,.079.006.16,0,.226h-.052v.164H49.12v.393h-.034v.119l-.1.066v.041l-.017.032a1.068,1.068,0,0,0-.109.579l.024.088H48.9a2.123,2.123,0,0,1-.107.511h-.068v.119l-.128.546h.084l.014.066.032.069.044.021.04.2.013.1-.067.032v.074l-.054.07-.029.117-.1.066-.03.122-.083.041v.066L48.4,37.5v.066l-.048.024-.031.119-.118.1v.079l-.023.02h0l-.11.056V38.5h-.032v.066H48v.1H47.97v.164h-.032v.162H47.9v.119l-.032.012v.119l-.024.011-.04.482L47.6,40.2l-.092.045v.067l-.066.033v.064l-.066.033v.041l-.022.049a.55.55,0,0,0,.006.417.659.659,0,0,1,.037.166h-.02l-.065.193-.067,0v.066h-.032v.1h-.038l.034.817-.07.294h-.03l-.034.13H47.04l-.066.327h-.055v.111l-.055.029-.028.187h-.048v.2h-.034v.425h-.032v.066H46.69v.1l-.04.13h-.059V44.4l-.132.1v.051l-.042.021-.067.2-.088.044V44.9l-.083.057-.022.084h-.049l-.032.327h-.044v.164H46v.1h-.018l-.031.228H45.9v.46l-.065.193H45.77v.187l-.1.066v.055l-.066.033v.019h-.018l-.1.751h-.048v.1l-.043.164h-.055l-.077.392h-.044l-.037.444-.1.069v.055l-.066.032v.02h-.032v.327a.629.629,0,0,1-.328.338l-.066.033v.346h-.034v.1h-.032v.1H44.49v.121l-.034.011,0,.457-.08.425h-.053v.119l-.132.1v.051l-.066.032v.019H44.1V51.9h-.032v.066h-.034v.111l-.058.029-.029.285H43.9v.11l-.048.025-.024.093h-.032l-.034.13h-.04l-.041.238-.077.038V53.1l-.164.14-.024,0-.034.457H43.34v.119l-.04.142h-.059v.111l-.066.032v.066l-.066.032v.066l-.065.033v.073L43,54.4l-.031.032a.59.59,0,0,0-.056.1.124.124,0,0,1-.043.063l-.054.035-.007.855a.431.431,0,0,0-.022.254l.012.039a1.428,1.428,0,0,1,.065.332h-.048v.1l-.04.13h-.059v.1h-.032v.232l-.055.082-.095.031-.085.112h-.126v.033h-.066v.032h-.164v.033h-.164v.032h-.1v.032h-.2V57.1l-.029,0a.416.416,0,0,0-.215.026h-1.52l-.065-.043v-.087l-.131-.043-.038-.072-.092-.023V56.8l-.624-.033v-.038h-.155l-.065-.1h-.056l-.034-.066h-.577v-.023l-.394-.032-.088-.038a.493.493,0,0,0-.323.038l-.017.007V56.5h-.066v-.032h-.112L37,56.406h-.282l-.178-.05-.068-.1-.149-.024v-.051h-.4v.038l-.482.023-.246-.05-.072-.109h-.055l-.035-.064-.215-.064v-.067h-.1v-.016l-.23-.033v-.049h-.12l-.012-.029-1.116-.032v-.037h-.12l-.011-.032H33l-.032-.066H32.9l-.023-.049-.1-.023v-.024l-.08-.029a.5.5,0,0,0-.329.033.625.625,0,0,1-.181.044v-.051h-.066v-.033h-.1v-.023l-.361-.032V55.36H31.5v-.032h-.2V55.3h-.7v.033c-.012,0-.025-.007-.041-.012h-.007a.357.357,0,0,0-.113-.154.678.678,0,0,0-.451-.067c-.055,0-.1,0-.146,0l-1-.059v-.02l-.6-.109v.066l-.187.014v-.024h-.217l-.149-.048-.042-.082h-.065l-.031-.066h-.054V54.74h-.2v-.033h-.23v-.032h-.12l-.011-.032h-.12l-.012-.033h-.12l-.011-.029-1.15-.033v-.036H25.4l-.208-.064v-.066H23.945l-1.136-.193a.9.9,0,0,0-.6.072.844.844,0,0,1-.286.074H21.91v-.051h-.1V54.25h-.065v-.017l-.226-.032,0-.049h-.7v.024l-.187-.016V54.12h-.647l-.108-.068V53.98l-.1-.067v-.087h-.1v-.033h-.263V53.76h-.4a1.431,1.431,0,0,0-.361-.016c-.078,0-.157.006-.224,0v-.051h-.164v-.042l-.46.033v-.025h-.361v-.014l-.2-.032v-.051h-.066v-.014l-.2-.032v-.025l-.131-.032V53.4h-.1v-.033H16.69v-.02l-1.04-.105-.5-.14v-.061H15.08v-.017l-.229-.033v-.048h-.427v-.032h-.066v-.033h-.11l-.029-.056L14.03,52.8v-.037l-.329-.032v-.044h-.1v-.033h-.1v-.032h-.12l-.011-.032h-.427l-.157-.045-.046-.068-.094-.024v-.059h-.722v-.033h-.1v-.032h-.065V52.3l-.329-.032v-.044h-.1v-.032h-.1v-.021Z" transform="translate(0 0)" fill="#fff"/>
    <path id="パス_27398" data-name="パス 27398" d="M59.213,27.88a1.1,1.1,0,0,1-.016-.354l.028-.034V27.1h-.088l-.053-.078L59.029,27v-.1H59v-.3h-.032v-.164h-.055a.537.537,0,0,1,0-.121L59,26.275l.028-.019a.393.393,0,0,0,.066-.089.222.222,0,0,1,.025-.036l.048-.036v-.061a1.09,1.09,0,0,0-.076-.4l-.03-.074-.022-.032.008-.018a.365.365,0,0,0,.048-.286l-.023-.09-.006-.319h.034v-.4l.011-.036a.9.9,0,0,0,.05-.506l-.024-.089,0-.262h-.032v-.3h-.034v-.176l-.006-.036a.662.662,0,0,0-.7-.544h-.028l-.86.394-.032.1-.286.263v.054l-.65.6-.092.166h-.065l-.032.065h-.145v.034H56.14l-.032.067-.085.035-.04.018a1.609,1.609,0,0,0-.24.414l-.008.022-.032,0v.066h-.034v.12l-.215.262-.025.006a.241.241,0,0,0-.167.095l-.166.572-.067.034L55,25.987l-.06.03-.023.064h-.066v.066h-.032v.11l-.043.024-.022.062h-.032l-.382.416-.156.078-.1.3-.218.109V27.3H53.83v.066H53.8v.066l-.064.194-.049,0-.072.433-.078.041v.064l-.066.032v.076l-.1.066V28.4l-.1.068v.055l-.066.032v.02h-.019l-.066.59h-.046v.164h-.034v.1h-.016l-.034.226-.049,0v.395h-.032V30.2l-.066.034v.074l-.1.067v.042h-.025l-.032.524-.073.2h-.038l-.043.168-.083.042v.065l-.066.034v.074l-.1.066v.056l-.066.032v.02h-.014l-.132.821h-.05v.065h-.032v.1l-.04.131h-.059v.066h-.032v.066h-.034v.068l-.07.208-.049.012-.029.2h-.03l-.034.2h-.052V33.7h-.032v.1l-.074.3H51.4v.066h-.018l-.065.492h-.048v.12l-.1.068v.055l-.048.025-.024.092h-.07l.035.42-.036.138H51l-.034.132h-.059v.361h-.032v.068l-.224.671-.006.278-.028.085a.858.858,0,0,0-.025.218.572.572,0,0,1-.018.168l-.028.032v.3l-.066.032v.074l-.328.307v.054l-.084.068-.028.03a.44.44,0,0,0-.06.2v.012h-.058v.263h-.032v.265l-.077.23-.088.043v.02h-.034v.065H49.66v.066h-.046l.034.328-.061.767h.041v.022h-.034v.112l-.065.031v.054H49.5v.1h-.032v.065h-.032V41.2l-.048.025-.032.126-.084.047v.052h-.032v.07l-.066.193H49.1l-.029.985,0,.084-.032.014v.112l-.066.034v.019h-.032v.066h-.034v.065h-.034v.318l-.1.066v.056l-.065.03v.023h-.034v.065h-.032v.1H48.61v.36h-.034v.066h-.032v.493h-.032v.161l-.164.131-.034,0v.164H48.3l-.032.262h-.048v.1h-.032v.1h-.018l-.034.263H48.1l-.034.2h-.024l-.034.131h-.06v.1H47.92v.1h-.032v.1h-.034v.1h-.032v.1h-.032v.112l-.05.024-.023.094h-.059v.067l-.065.2h-.024l-.031.071a1.03,1.03,0,0,0-.077.49v.13h-.032v.12l-.034.011v.164h-.032v.12l-.032.012v.12l-.034.011v.1h-.04l.032.492h-.025v.112l-.034.025a.871.871,0,0,0-.065.084.43.43,0,0,1-.056.072l-.054.046.058.29.053.026.049.138.049.025.048.131.083.056v.121h.089l.053.079.433.145.214.006v.032h.12l.011.034h.263v.032h.112l.122.245.095.024v.059h.066v.034h.067l.2.065v.066h.1v.034H49.4v.032h.112l.025.048.094.024v.052l.526.034.131.047V51.3l1-.174V51.1a1.149,1.149,0,0,1,.326.054l.152.19h.571v-.034l.1-.022.024-.047.074-.019.023-.043h.112v-.067l.064-.022.022-.043h.067l.042-.088.085-.028.118-.148h.04l.028-.016a1.178,1.178,0,0,0,.1-.068,1.009,1.009,0,0,1,.091-.061l.056-.03.05-.557h-.032l.011-.121h.043V49.81l.049-.149.083-.042.038-.15h.041l.034-.2h.047l.032-.788h.038v-.12l.118-.094.019-.082h.06v-.1h.032v-.066l.04-.131h.059v-.1h.032v-.144l.052-.025.025-.127H54.3v-.066h.016l.067-.458h.048v-.066h.032V46.8l.066-.032V46.7l.066-.031v-.022h.034v-.066h.032v-.1h.024l.032-.426h.02l.041-.2.079-.037v-.022h.032v-.23h.034v-.12l.032-.011v-.1l.026-.077a.635.635,0,0,0-.025-.434.2.2,0,0,1,.007-.061c.014-.012.031-.026.054-.049l.023-.03h.065l.034-.065h.046l.224-.672.046-.181h.059v-.12l.1-.067V42.6h-.05a1.5,1.5,0,0,1,0-.22h.028l.043-.178.095-.062.062-.19.088-.044.04-.15h.059v-.887h.034v-.12l.131-.1v-.05l.066-.032v-.066l.065-.032v-.066l.066-.032v-.022h.036l-.036-1.2a1.008,1.008,0,0,1,.1-.346,1.73,1.73,0,0,0,.062-.17l.059-.494.074-.037v-.019h.032V38.01H56.7v-.12l.028-.1a1.559,1.559,0,0,0,.006-.541v-.218l.1-.065v-.065l.1-.067v-.064l.082-.056.067-.238.245-.21.026-.082a.506.506,0,0,0-.03-.3,1.056,1.056,0,0,1-.041-.173h.044v-.1h.034v-.065h.014l.042-.254.239-.205h.032V34.54l.1-.066.024-.01.034-.46h.041v-.1h.034l.077-.395h.067l-.032-.3h.019v-.155l.1-.066.112-.534h.053v-.1h.032V32.3h.034v-.112l.066-.032v-.066l.059-.031.03-.383h.042v-.066H58.6v-.065h.034v-.066h.032V31.41H58.7v-.065h.034v-.066h.032v-.066H58.8v-.066h.034l.03-.16a.311.311,0,0,0-.032-.175.656.656,0,0,1-.04-.125h.023l.032-.2h.025l.034-.132h.059v-.1h.024l.034-.458h.041v-.164h.034v-.164h.032v-.3h.034v-.395h.032v-.3l.028-.088A1.39,1.39,0,0,0,59.213,27.88Z" transform="translate(8.061 1.874)" fill="#fff"/>
  </g>
</svg>
