<svg xmlns="http://www.w3.org/2000/svg" width="58.218" height="48" viewBox="0 0 58.218 48">
  <g id="icon_en" transform="translate(-2857.256 -760.967)">
    <path id="パス_27382" data-name="パス 27382" d="M2894.871,761.3l-1.034-.09v.079l-1.353-.014a5.365,5.365,0,0,1-1.751.062v-.08l-.876.071v-.08a4.36,4.36,0,0,0-1.114-.011v.08l-.159,0v.08l-1.431-.094v.079c-.6.157-.913-.35-1.43-.173v.08l-.319.077v.079a2.932,2.932,0,0,1-1.193-.092l-1.354.066v.08l-1.353-.014v.08l-1.353-.014v.079l-.955-.01v.08l-.159,0v.08l-.239,0v.08l-2.387-.024v.08a3.815,3.815,0,0,1-1.673.142,8.135,8.135,0,0,0-2.068-.1v.08l-.239,0v.08l-.4,0v.08l-.954-.089a6.051,6.051,0,0,1-1.593.143c-.225.264-.62.4-.724.788h-.08q.038.239.075.478h.08a4.1,4.1,0,0,1-.018,1.751c.026.411.192.494.391.72l.158.081q0,.239,0,.477l.392.561a13.123,13.123,0,0,0,2.945-.05,8.136,8.136,0,0,0-.333,1.429l.158.081q-.007.716-.014,1.432l-.33,1.111c.24.45-.094,1.266.061,1.831a9.927,9.927,0,0,1,.058,2.149,3.769,3.769,0,0,1-.012,1.193h-.079q-.005.557-.011,1.114h-.08q0,.279-.006.557h-.08c0,.053,0,.106,0,.159h-.08q0,.119,0,.239h-.079q0,.08,0,.159h-.08l-.162.237a11.115,11.115,0,0,0-2.227-.1l-.478,0v.08l-1.114-.011v.08l-1.353-.014c0,.027,0,.053,0,.08h-.159v.08l-1.034-.01v-.079l-.239,0c0-.027,0-.053,0-.08l-.875-.009c0-.026,0-.053,0-.079l-.8.071v-.079l-1.591-.1v.08l-.159,0v.08l-1.831-.019v.08l-.159,0-.081.158-.159,0v.08l-.8.072v.08l-.159,0-.162.237-.479.154v.08l-.24.157.075.4h.079q-.085.6-.171,1.192h-.08q-.041.159-.083.317h-.079q0,.279-.006.557h.079q-.006.557-.011,1.114h.08q0,.2,0,.4h.08c.095.389-.359,1.309-.177,1.749l.158.081,0,.239h.08c.025.106.051.213.076.319h.08q0,.159,0,.318h.08l0,.159c.021.036.111.071.158.161a3.538,3.538,0,0,0,1.272.092v-.08a.793.793,0,0,1,.4-.076q0,.517-.01,1.035h-.079l-.084.477h.079q0,.358-.007.716h.08l-.01.955c0,.02.105.026.078.16h-.08c0,.08,0,.159,0,.239h-.08c0,.053,0,.106,0,.159h-.079q.035.438.071.876h.079q-.005.557-.011,1.114h-.08l0,.318h-.079l0,.159h-.08l0,.239h-.079l.067,1.274h.079l0,.239h.08l-.01.955h.08a1.057,1.057,0,0,1-.167.715,3.123,3.123,0,0,0,.147,1.2l-.092,1.272h-.08v.159h-.08l-.009.875h-.079l0,.239h-.079a3.013,3.013,0,0,0,.15.956q-.007.676-.014,1.353h.08a3.963,3.963,0,0,1-.176,1.67q0,.239,0,.477h.08c.121.46-.034,1.142.064,1.513q0,.4-.008.8h-.08c0,.053,0,.106,0,.159l-.16.078c-.064.184.16.416.234.48l-.008.8c.014.029.941.54,1.029.567.292.092.489-.108.638-.153l1.672-.063,3.821-.121v.08l.636.006v.08l.239,0v.08l1.113.091v-.08l.239,0v-.08l.239,0v-.079l1.831-.061v.08c.413.118.663-.132.957-.15l.954.089a1.535,1.535,0,0,1,.717-.072v.08l1.91.019s-.01-.08.16-.078.158.081.158.081a4.1,4.1,0,0,0,1.592-.064l1.114.011v-.08l.4,0c0-.026,0-.053,0-.08l2.149-.058c.111.019.265.141.477.084v-.08l.318,0v-.08l.875.009c.114-.035.406-.265.56-.233v.079l.159,0v.08l1.193.091a9.257,9.257,0,0,0,2.307.1v-.08l.477,0c.131-.041.368-.264.638-.153l.078.16a9.335,9.335,0,0,0,2.068.1v-.079l.239,0v-.079l.159,0v-.08l.4,0v-.08a1.845,1.845,0,0,1,.953.169,4.42,4.42,0,0,0,1.832-.141l1.353.014v.08l.318,0v-.079l.956-.07a5.493,5.493,0,0,1,1.991-.139v.08l.239,0v.08l1.432.014v-.08l.478,0v.08l.636.006v.08l.318,0v.079l.478,0c0,.027,0,.053,0,.08l1.354-.066,2.069.021v-.08l.239,0v-.08l1.193.012v-.08l.318,0v-.079l2.308.023v-.08l1.671.017v-.079l.319-.076v-.08c.294-.1.675.1.876-.071.324-.093.1-.049.241-.236l.16-.078v-.159h.08l.02-1.989h.08l.083-.4h-.08q-.074-.558-.148-1.116h.08q.024-2.387.048-4.774-.03-.916-.061-1.831h.08l.092-1.272h-.08l-.076-.4a5.659,5.659,0,0,1,.259-1.987q0-.318.006-.637h-.08q.005-.517.01-1.035a2.523,2.523,0,0,1-.07-.956h.08c0-.159,0-.318,0-.478h.08c.2-.673-.318-1.056-.142-1.673a13.663,13.663,0,0,0,.1-1.909c.017-.184.157-.37.086-.636a1.794,1.794,0,0,1-.153-.638,13.8,13.8,0,0,0,.1-1.909q.042-.318.086-.636h-.08q0-.2,0-.4h-.08q0-.239,0-.477h-.08q0-.159,0-.318h.079q.011-1.074.022-2.149h-.08c0-.079,0-.159,0-.239h-.079l-.076-.319h-.08l0-.239h-.08c-.058-.209.128-.586.166-.714q.007-.676.013-1.353h-.079c0-.053,0-.106,0-.159l-.158-.081q-.031-.8-.063-1.592h.08l.083-.318h.079l.011-1.114h-.079q0-.119,0-.239h-.08q0-.318.007-.637h.079l.009-.875h.08q0-.279.006-.557h.08l-.077-.24q.008-.836.017-1.671.006-.636.013-1.273h.079q0-.159,0-.318h.08l0-.239h.079c0-.212,0-.424.006-.636h-.079c.028-.106.055-.212.083-.318.472.012,1.358.07,1.593-.143.313-.078.336-.225.482-.473h.08l.083-.318h.079q0-.159,0-.318a6.511,6.511,0,0,0,.019-1.83q0-.279.006-.557c.034-.094.272-.362.244-.555h-.08l.008-.8h-.08a1.041,1.041,0,0,1-.235-.4l-.954-.089c-.183.005-.306.145-.558.074A2.737,2.737,0,0,0,2912.3,761v.079l-.8-.008v.079l-1.035.069v-.08h-.08l-.956.07v-.079l-1.91-.019a5.671,5.671,0,0,0-1.83-.1v.079l-1.352-.093v.08l-1.432-.014v.08l-.239,0v.08l-.238-.082-.8.072a3.028,3.028,0,0,0-1.431-.173v.08l-.239,0c0,.026,0,.053,0,.08l-1.194-.012v.08l-1.194-.012C2896.68,761.24,2895.642,761.244,2894.871,761.3Zm-34.378,23.61c0,.027,0,.053,0,.08-.327,0-1.012.076-1.193-.092h-.08q-.076-.359-.152-.718h.08q0-.159,0-.318h-.08c0-.08,0-.159,0-.239h-.08l.169-1.033h.08q0-.318.006-.637h.08V781.8h.08c.11-.32-.124-.558-.152-.718l.246-.714.4-.075v.079l.8.008v-.08l.478,0v-.08l.557.006c0-.027,0-.053,0-.08l.159,0v-.08l1.114.011c0-.027,0-.053,0-.08l.318,0v.08l.478,0v.08l.239,0v.08l2.068.1v-.08l.239,0v-.08l.159,0v-.079l.954.089v.08c.236.068.506-.123.638-.153a.211.211,0,0,1,.238.082l.4,0v-.079l.955.01c0,.026,0,.053,0,.08l.239,0v.079a1.631,1.631,0,0,0,.8-.151l.636.006c.538,0,1.26.049,1.514-.224l1.909.1a2.39,2.39,0,0,1,.956-.07v.08l.239,0v.08l.4,0v.08l1.274-.067a1.549,1.549,0,0,0,.716.087c0-.026,0-.053,0-.08l.239,0v-.08l.318,0v.08a.977.977,0,0,0,.8-.151c.4.028.457.18.713.326q.029,1.035.059,2.07h-.08q0,.239,0,.477h-.08c0,.136.151.463.072.717a3.555,3.555,0,0,0-.248.953c-.091.067-.012-.011-.081.079a7.433,7.433,0,0,1-1.195.068l-.636-.006v.08l-.239,0v.08l-.239,0v.079a2.765,2.765,0,0,1-1.431-.173l-.557-.006v-.079l-.4.075v.08l-.8-.008v-.08l-.318,0v-.08h-.08v.08l-.478,0c0,.026,0,.053,0,.079a3.256,3.256,0,0,1-1.59-.175L2871,784.7v-.079l-1.67-.1v.08l-1.353-.014c-.021,0-.027.1-.16.078a5.325,5.325,0,0,0-2.228-.022,8.375,8.375,0,0,0-2.068-.1c0,.027,0,.053,0,.08l-.557-.005v.079l-.318,0v.079l-.557-.005v.08l-.319.076V785Zm11.395,14.439q0,.119,0,.239h.08l-.083.4h-.08q0,.358-.007.716h-.079q-.005.517-.01,1.035h.079q-.005.557-.011,1.114h.08c0,.079,0,.159,0,.239h.08a2.457,2.457,0,0,1-.167.794q-.005.557-.011,1.114h.079l-.082.238c-.114.767.073,1.113-.413,1.508v.08l-1.274.067v-.079c-.328,0-1.013.076-1.193-.092-.23-.264-.026-.883-.146-1.275h-.079l0-.239h-.08q0-.2,0-.4h-.079c0-.106,0-.212,0-.318h.08q.006-.6.012-1.194a9.329,9.329,0,0,0-.059-2.07q.048-.8.1-1.591c.007-.626-.193-2.078.1-2.386a1.949,1.949,0,0,1,.17-1.113c.932,0,1.688-.218,2.628-.212.037.359.149.343.233.559q0,.159,0,.318h.08q0,.119,0,.239h.08l0,.159h.08c0,.08,0,.159,0,.239h.08l-.088.795h-.079c0,.053,0,.106,0,.159h-.079l-.01.955Zm39.274-27.7h.079v.159h.079q-.1,1.591-.191,3.181h-.079l0,.159-.16.078c-.078.208.266.628.149,1.036h-.08a3.514,3.514,0,0,0,.068,1.194q-.044.4-.088.8l.077.24h-.08c0,.053,0,.106,0,.159h-.08q0,.12,0,.239h-.08a4.079,4.079,0,0,0,.22,1.833,5.628,5.628,0,0,1-.017,1.671q0,.318-.007.637h.08a1.024,1.024,0,0,1,.074.558h-.079q.038.2.076.4h.08q0,.358-.007.716h-.08q0,.119,0,.239h-.079q0,.08,0,.159h-.08a4.461,4.461,0,0,0,.064,1.513q-.042.318-.086.636-.011,1.034-.021,2.069a12.155,12.155,0,0,0-.021,2.069,5.346,5.346,0,0,1-.1,1.75q0,.4-.008.8h.079c-.028.159-.056.318-.084.477h-.079q-.012,1.154-.023,2.308h.079q.037.239.075.478h-.08l-.083.4h.079c0,.08,0,.159,0,.239h.08l-.088.795q-.012,1.154-.023,2.308a7.213,7.213,0,0,1-.26,2.067q0,.318-.006.637h.079a6.845,6.845,0,0,1-.184,2.465l-.719.231-.795-.088c0,.027,0,.053,0,.08l-.318,0v.079l-1.353-.014v.08l-.956.07v.08l-.4,0c0,.026,0,.053,0,.08-.476.126-.733-.359-1.272-.172v.08l-.319.076c0,.027,0,.053,0,.08-.44.154-.913-.214-1.192-.171a21.659,21.659,0,0,1-3.1.048l-1.194-.012v-.08l-.318-.083v-.079l-.239,0v-.08h-.079v.079l-1.353-.014a4.177,4.177,0,0,1-.638.153,8.518,8.518,0,0,0-3.422.045l-2.227-.181a3.965,3.965,0,0,1-1.116.148l-.875-.009v.08l-.159,0v.08l-.875-.009-1.194.068v.08c-.575.16-.96-.344-1.351-.252v.08l-.239,0v.08a.2.2,0,0,1-.238-.082l-1.114-.011a1.455,1.455,0,0,0-.715-.087v.08l-.239,0v.079l-.239,0c-.109.027.032.075-.08.079a6.679,6.679,0,0,0-1.589-.255v.08l-.239,0c0,.027,0,.053,0,.079l-.795-.088c0,.027,0,.053,0,.08l-.717.072v.08l-.557-.006v.08l-3.581-.036c-.387,0-1.049.08-1.192-.171v-.159h-.079c.027-.106.055-.212.083-.318h.08c0-.08,0-.159,0-.239h.079q.011-1.034.021-2.069c-.013-.178-.146-.311-.074-.558h.08q.045-.636.092-1.272h-.079a.211.211,0,0,1,.082-.238q.006-.6.012-1.194.016-1.592.032-3.183.006-.6.012-1.194h-.08l0-.318h-.079c-.125-.439.138-.816-.148-1.116v-.159h-.079a1.707,1.707,0,0,0-.316-.242v-.08l-.159,0a2.125,2.125,0,0,0-1.113-.091c-.156.047-.339.235-.638.153v-.08a3.212,3.212,0,0,0-1.114-.011v.08l-.319,0c0-.027,0-.053,0-.08l-.8.072v.08l-.238,0v.08l-.159,0v.08l-.159,0-.162.237-.319.077-.322.395-.16.078v.159h-.08c-.111.175.032.11-.162.237l.07.956h-.08l-.008.8-.01.955a2.527,2.527,0,0,0-.171,1.192h.08q-.006.6-.012,1.193a1.027,1.027,0,0,1,.152.718h-.08q0,.159,0,.318h-.08q.031.876.062,1.751h.08c.092.34-.147.562-.167.715-.015.112.055-.03.079.08q0,.159,0,.318c.087.265.456.906.3,1.356-.112.332-.291.3-.326.792-.091.067-.012-.011-.081.079l-.8-.088v.08l-.318,0v-.08l-.4,0V807l-2.865.051c-.39.005-1.283.346-1.514.144l-.238-.082q.008-.8.016-1.592a.869.869,0,0,1-.075-.478c.11-.4-.036-1.139.1-1.591a1.722,1.722,0,0,0,.088-.795,7.619,7.619,0,0,1,.033-3.342,2.389,2.389,0,0,0-.072-.8c-.1-.644.078-1.458-.06-1.99a2.93,2.93,0,0,1,.169-1.033l.01-.955h.08q0-.279.006-.557h.079q0-.239,0-.477h.079q.006-.557.011-1.114h.08c0-.053,0-.106,0-.159h.08q.049-.915.1-1.829h-.08c-.119-.464.291-.707.17-1.112h-.08l0-.159h-.08q-.035-.438-.071-.876h.08q0-.119,0-.239h.08q0-.478.01-.955h.079q0-.239,0-.477l.081-.079.8-.072c0-.026,0-.053,0-.08l.159,0c0-.026,0-.053,0-.079l1.035.01,1.75.017v-.08l.4,0c0-.027,0-.053,0-.079l.319-.077V786a1.379,1.379,0,0,1,.953.169v.08a5.494,5.494,0,0,0,1.751-.062.21.21,0,0,1,.238.082l1.353.014,2.705.027.956-.07v.08l.4,0a17.728,17.728,0,0,1,2.15-.058c.135.022.135-.072.16-.078l.4,0v-.08l1.273.013c.354-.014.659-.294,1.116-.148,0,.027,0,.053,0,.08l.239,0v.079c.3.095.681-.084.875.088.461.008.612.062.8-.231l0-.159.32-.235c0-.08,0-.159,0-.239h.08l.018-1.751h.08q0-.239,0-.478h.08q.042-.278.085-.556h-.079c0-.053,0-.106,0-.159H2882l0-.318h.08q.006-.6.012-1.194h-.08q0-.358.007-.716h-.08q0-.239,0-.477h-.08c0-.106,0-.212,0-.318l-.392-.641c-.309-.069-.962-.422-1.35-.332v.08l-.637-.006c0-.026,0-.053,0-.079a.211.211,0,0,0-.24.077l-.955-.01a9.1,9.1,0,0,1-2.309.057c0-.027,0-.053,0-.08l-.318,0v.079l-1.353-.014-.553-.4q.043-.278.085-.556h.08q-.075-.438-.15-.877h-.08q0-.159,0-.318h.079a1.568,1.568,0,0,0-.072-.717q.007-.677.014-1.353h.079q-.036-.4-.072-.8h-.08q.006-.6.012-1.194h-.08c-.154-.58.166-.969.175-1.51a11,11,0,0,1,.1-2.386,1.129,1.129,0,0,0-.073-.717,1.532,1.532,0,0,1,.085-.556,4.722,4.722,0,0,0,.56-.233l1.114.011,1.592.016c0-.027,0-.053,0-.08l.4,0v-.08l.4.084,1.592-.064v-.079l1.829.1v-.08l.557.006v.08l2.705.027a2.8,2.8,0,0,1,.718-.152v.08l.477,0v-.08l.4,0c0-.026,0-.053,0-.08l.636.006v-.079l1.033.169a16.581,16.581,0,0,1,3.821-.121,17.581,17.581,0,0,0,4.14-.118,1.722,1.722,0,0,1,.795.088,4.258,4.258,0,0,0,1.354-.066l2.784.107a4.208,4.208,0,0,1,1.434-.145c.178.017.308.152.556.085,0-.026,0-.053,0-.08l.319,0v-.08l1.91.019v.08l.239,0c0,.027,0,.053,0,.08l.318,0c0,.027,0,.053,0,.08.678.21,1.365-.2,1.833-.22.362-.014,1.056.117,1.274-.067a5.587,5.587,0,0,1,2.145.419l.076.4h.079q0,.358-.007.716h.08q0,.2,0,.4h.079l-.018,1.751h.08l0,.239h.08c0,.08,0,.159,0,.239h.08C2911.466,770.98,2911.093,771.4,2911.161,771.651ZM2899.87,762.7v-.08a1.1,1.1,0,0,1,.556.085,5.489,5.489,0,0,0,1.354-.066l2.069.021c.269,0,.649.053.8-.071a10.955,10.955,0,0,1,2.466.1l1.751-.062,1.114.011a1.454,1.454,0,0,0,.874.168v-.079l.637.006v-.08l1.512.015v.08l.159,0v.079c.3.082.247.177.394.4l.158.081q0,.119,0,.239h.08c-.026.856-.422.736-.729,1.187a5.547,5.547,0,0,1-1.909-.019v-.079l-.239,0v-.08a1.929,1.929,0,0,0-1.116.148l-.955-.01v.08l-1.432-.014s-.009.066-.16.078l-.875-.009v.08l-2.305-.262q0,.04,0,.08l-.478,0c0,.026,0,.053,0,.08l-1.671-.017v.079l-2.071.138v-.079l-1.274.067a16.249,16.249,0,0,0-2.625-.185c-.2-.02-.576-.189-.875-.089v.08l-.159,0v.08l-.319,0v.079l-1.671-.017-.8-.008-.078-.16a1.783,1.783,0,0,0-.954-.089v.08l-.4,0v.08l-.318,0v.08l-.955-.01-1.831-.018v.08h-.08v-.08l-1.272-.092v.08l-.557-.006c0,.027,0,.053,0,.08l-.8-.008v.08l-.239,0v.08l-1.83-.018-3.979.04a3.526,3.526,0,0,1-1.673.142v-.079l-.8.072v-.08a4.438,4.438,0,0,0-1.673.142c-.135.02-.135-.076-.158-.081l-.4,0v-.08a.209.209,0,0,0-.24.077l-.716-.007v.08l-.239,0c0,.027,0,.053,0,.08l-1.194.068c-.281,0-.722.048-.875-.089l-.238-.082a1.9,1.9,0,0,1-.073-.717c.019-.111.077.034.081-.079h-.08c.067-.5.362-.468.565-.79l.8-.072v.08l.4,0c.184-.053.5-.308.8-.231v.08l.477,0a5.523,5.523,0,0,0,1.592.016,7.965,7.965,0,0,0,1.672-.063l2.069.021v-.079l.319,0v-.08l.955.01v-.08l.239,0v-.08l.159,0v-.079c.239-.078.385.071.556.085l1.115-.068v-.079l1.034.01v.08h.08V763.1l2.228.022,1.034.01v-.079l.239,0v-.08l.239,0V762.9l2.387.024.876-.071c0,.027,0,.053,0,.079l.557.006c0-.027,0-.053,0-.08l.876-.071a11.823,11.823,0,0,0,3.025-.049l2.467.025Z" transform="translate(0 0)" fill="#fff" fill-rule="evenodd"/>
    <path id="パス_27383" data-name="パス 27383" d="M3196.017,834.573h-.079c0-.053,0-.106,0-.159h-.079c-.025-.159-.05-.319-.075-.478h-.079c-.105-.438-.725-.575-1.268-.57v.08l-.239,0-.081.158-.239,0v.08l-1.194-.012v.08l-.239,0-.161.237-.159,0v.08l-.8-.008v.08l-.159,0v.08l-.238,0v.08l-.479.154v.08l-.24.157a4.466,4.466,0,0,1-.166.635h-.08q.037.279.074.558a.135.135,0,0,0-.081.158h.079l0,.239h.08l0,.159h.08c0,.08,0,.159,0,.239h.08q0,.358-.007.716h.079c0,.08,0,.159,0,.239h.08c.1.326-.065.493.152.718.309.477.853.083,1.43.253v.08l2.068.1c0-.027,0-.053,0-.08l.239,0v-.08l.239,0v-.08l.239,0v-.08l.239,0v-.08l.239,0v-.08l.319-.076v-.08l.481-.393V837.6c.154-.171.087-.725.09-1.034A6.36,6.36,0,0,0,3196.017,834.573Zm-1.618,2.61c-.158.117-.077-.079-.24.157l-.957.15v.08a3.1,3.1,0,0,1-1.272-.092,1.661,1.661,0,0,0-.231-.719h-.08c0-.053,0-.106,0-.159h-.08q0-.159,0-.318h-.08q0-.159,0-.318h.079c.264-.353.261-.15.64-.312v-.08l.159,0v-.08l.239,0v-.08l.319-.076v-.08l.239,0v-.08l.637.006c.18.067.3.258.554.324l.077.24h.08l.075.478h.08C3194.649,836.7,3194.669,836.982,3194.4,837.183Z" transform="translate(-288.289 -62.733)" fill="#fff" fill-rule="evenodd"/>
    <path id="パス_27384" data-name="パス 27384" d="M3134.971,843.2l.239,0v-.08l.239,0v-.08l.239,0v-.08l.159,0v-.08l.4-.076.081-.158.481-.393.083-.4h.08q-.033-.756-.064-1.513h-.08q.007-.6.012-1.194l-.389-.879-.953-.169v.08l-.558.074c0,.027,0,.053,0,.08l-.954-.089v.08l-1.273-.013v.08l-.159,0c0,.027,0,.053,0,.08l-.718.152q-.04.119-.082.238h.08q0,.159,0,.318h-.08l-.084.477h-.08l0,.239h-.08v.159h-.08c-.029.133.211.513.232.639s-.076.137-.081.158q-.005.517-.011,1.034h-.079c0,.053,0,.106,0,.159h-.08l.231.8a.64.64,0,0,1,.317.162v.08l.238.082.078.16.159,0v.08l.876-.071,1.353.014v-.08l.319,0Zm-.383-1.436c-.386.118-1.008-.158-1.274.067a1.013,1.013,0,0,1-.4-.084c0-.425-.042-.782-.069-1.115.1-.084.084-.141.162-.237h.08l0-.159.239-.077.081-.158.319-.076v-.08l.4,0v-.08c.214-.076.483-.02.638-.153.255.071.279.207.474.323q0,.2,0,.4h.08a4.067,4.067,0,0,1-.091,1.193A4.916,4.916,0,0,0,3134.587,841.766Z" transform="translate(-237.554 -66.85)" fill="#fff" fill-rule="evenodd"/>
    <path id="パス_27385" data-name="パス 27385" d="M3065.606,846.646v.079l1.83.019.322-.395.481-.393,0-.159.16-.078q.042-.159.083-.318h.08l0-.159h.08q0-.2,0-.4h.08c.151-.493-.149-1.016.173-1.351a7.079,7.079,0,0,0-.06-1.99l-2.546-.026c-.185.159-.553-.059-.8.072v.079c-.824-.009-.792.19-1.278.465-.044.2-.21.335-.165.555h.08c0,.106,0,.212,0,.318h.08l-.008.8c0,.02.1.027.078.16h-.079c0,.186,0,.371-.006.557h-.08l0,.159h-.079q-.047.716-.094,1.432l.549.8A9.229,9.229,0,0,1,3065.606,846.646Zm-.212-2.628.006-.557c.077-.229.289-.361.4-.553l.4-.076c0-.027,0-.053,0-.08.343-.081.558.277.876-.071l.239,0v.08h.08q-.043.318-.086.636h-.08c-.025.133.074.14.078.16l-.013,1.273a1.745,1.745,0,0,0-.322.395c-.314-.011-.94-.088-1.115.068a1.247,1.247,0,0,1-.477-.084q.046-.6.091-1.193Z" transform="translate(-179.098 -69.767)" fill="#fff" fill-rule="evenodd"/>
    <path id="パス_27386" data-name="パス 27386" d="M3174.137,976.362q.01-.915.019-1.83h-.079v-.159H3174q0-.159,0-.318h-.08l0-.318h-.08l-.236-.321a4.6,4.6,0,0,1-1.351-.173l-.557-.006a1.465,1.465,0,0,0-.715-.087v.079l-.239,0v.08l-1.671-.017c0,.027,0,.053,0,.08l-.24.077v.08h-.08c0,.053,0,.106,0,.159a1.349,1.349,0,0,1-.639.232c-.032.159-.081.158-.081.158q0,.2,0,.4h-.08l.068,1.115c0,.17-.087.258-.083.318h.08q-.005.477-.01.955s-.1,0-.081.158h.08q0,.2,0,.4h-.08c0,.106,0,.212,0,.318a1.464,1.464,0,0,1,.072.717h-.079c0,.053,0,.106,0,.159h-.079a1.282,1.282,0,0,0,.385,1.277l.477.084v.08l.476.164v.08l1.751-.062c.789.01,1.4.3,1.99-.06l.081-.158.159,0,.082-.238h.079l.162-.237.159,0v-.08l.4-.314c0-.053,0-.106,0-.159.243-.269.052-.932.173-1.351h.08l-.067-1.274Zm-1.747-.336h.079q-.006.6-.012,1.194h-.08c0,.132,0,.265,0,.4h-.08q0,.239,0,.477h.08c-.03.7-.817.942-1.44.781-.364-.094-.7.146-.875-.009-.315-.1-.1-.024-.237-.241h-.08c0-.053,0-.106,0-.159l-.158-.081a3.165,3.165,0,0,0-.236-.321c.028-.185.057-.371.085-.556h.08q0-.079,0-.159h.08a7.833,7.833,0,0,0,.017-1.671q0-.239,0-.477h-.08q0-.159,0-.318h.079v-.08l.557.005v-.079l.319-.076v-.08c.257-.091.543.071.717-.072l.556.085v.08l.159,0v.08l.158.081v.159l.237.162.077.239h.079A1.251,1.251,0,0,0,3172.39,976.026Z" transform="translate(-269.075 -183.841)" fill="#fff" fill-rule="evenodd"/>
    <path id="パス_27387" data-name="パス 27387" d="M3088.962,982.963a1.739,1.739,0,0,0,.088-.8c-.036-.13-.213-.508-.152-.718h.08q0-.119,0-.239h.08q-.036-.438-.071-.876l.082-.238h-.08q0-.159,0-.318h-.08c0-.053,0-.106,0-.159h-.08c0-.08,0-.159,0-.239h-.08l0-.159c-.022-.037-.11-.07-.157-.161l-1.193-.092v.08l-.557-.006-.716-.087v.079l-.716-.007-.161.237-.159,0v.08l-.4,0v.079l-.239,0v.08l-.239,0v.08l-.24.157q.036.4.072.8h-.079v.08q0,.2,0,.4h-.079l-.01.955h-.08c0,.133,0,.265,0,.4h-.08l-.164.476h.08q.032.716.065,1.433h.079c.026.106.051.213.077.319l.158.081v.159h.08l.148,1.116.556.085v.08l.159,0v.079c.327.114.549-.13.8-.151l2.07-.059v-.08l.159,0v-.08l.239,0v-.08l.4-.076a2.856,2.856,0,0,0,.417-1.906A1.755,1.755,0,0,1,3088.962,982.963Zm-1.5-1.129-.011,1.114c.03.108.061-.031.079.08a2.521,2.521,0,0,1-.01,1.035c-.022.342-.052.269-.164.476a4.936,4.936,0,0,1-1.59-.1,2.136,2.136,0,0,1-.716-.087,10.78,10.78,0,0,1,.027-2.705q0-.239,0-.478h.08l0-.159.16-.078,0-.159h.08l.082-.238a2.4,2.4,0,0,0,1.039-.467l.4.083.078.16.318,0v.079l.238.082.075.478h-.079q0,.159,0,.318l-.16.078q0,.239,0,.477Z" transform="translate(-196.092 -188.893)" fill="#fff" fill-rule="evenodd"/>
  </g>
</svg>
