<svg xmlns="http://www.w3.org/2000/svg" width="72.761" height="48.515" viewBox="0 0 72.761 48.515">
  <g id="icon_seikatu" transform="translate(0.25 0.25)">
    <g id="グループ_4901" data-name="グループ 4901" transform="translate(43.024)">
      <g id="グループ_4900" data-name="グループ 4900">
        <g id="グループ_4896" data-name="グループ 4896">
          <path id="パス_28509" data-name="パス 28509" d="M65.426,30.644l-.072-.4-.259-.312.014-.4-.16-.368.141-.375L64.98,28.7l.129-.049L65,28.571l.13-.055-.11-.09.144-.046-.077-.124.144-.019-.059-.132.144.011-.063-.11.117.049-.063-.111.119.048-.075-.087.167-.268-.069-.314.17-.28-.067-.321.17-.282-.089.043.049-.11-.06.1.047-.111-.1.041.179-.539-.13-.55.054-.562-.224-.517-.008-.563-.159-.146.076-.2-.156-.148.081-.2-.152-.152-.814-3.07L62.611,17.08l-2.09-2.392L57.81,13.034l-2.952-1.17-.433.035-.386-.193-.427.054-.394-.177-.427.071.041-.134-.129.02.069-.111-.125.039.049-.122-1.232-.761-1.27-.7-1.439-.146H47.309l-1.29.647-.669.344-.425.622-.511.55-.207.726-.327.651-.668.542-.788.4-.617.632-.74.484-.544.7L40,16.4l-.327.54-.483.408-.246.581-.395.493-.282.953-.477.869-.22.969-.412.9-.138.98-.122-.011.113.047-.12-.013.111.049-.123.008.149,1.148-.089,1.159.15,1.155-.09,1.165.15,1.158-.11.072.129.04-.108.082.129.045-.106.094.12-.039-.071.1.1-.064-.067.1.123-.036-.078.212.166.135-.043.212.188.1-.013.17-.006.218-.2.152.045.244-.175.187.07.247-.223.669.057.7-.143.7.162.691.084.692.111.006-.123.019.118.041-.123.022.113.014-.07.087.1-.077-.054.11.1-.076-.049.114.138-.007-.063.13.148.019-.064.137.146.018-.02.215.19.094-.011.209.2.059.06.2.071-.1-.048.111.07-.1-.039.116.076-.1.079.179.194-.039.1.173.189-.059.125.155.318-.02.177.261.283.137.055.313.239.211-.057.155.162.029-.011.164.158-.041.071.146.067-.082-.106.059.112-.047-.107.055.112-.043.185.607.456.439.331.539.551.313.449.448.483.131.385.32.492.073.419.278.538.06-.409.106-.277.259-.373.06-.25.286-.367.1-.826.829-.854.8-.483,1.065-.484,1.065L40.278,46.6l-.055,1.946.353,1.911.357,1.911.917,1.7,1.129,1.568,1.214.752,1.237.712,1.407.267,1.4.321,1.433-.06.356.117.354-.13.361.1.354-.142.378.091,2.1-.489,2.065-.633,1.793-1.2,1.692-1.341,1.189-1.8.846-1.521.308-1.713.2-1.728-.385-1.7-.468-1.676-.546-.767-.449-.823-.741-.57-.694-.626-.9-.261.167-.04.084-.156.162.071.083-.156.16.075,1.017-.539,1.046-.481.773-.851.767-.856.351-1.094.288-.407.135-.477.409-.277.335-.36.492-.045.374-.254.438-.107.264-.366.386-.236.164-.424.428-.556.058-.7.124-.687-.274-.644ZM46.705,11.524l.714-.19.692-.256.727.126.739.019.621.272-.839.159-.905,0-.856.295-.9.118-.822.406.182-.218.07-.264.258-.083.111-.247Zm-6.834,7.492.361-.415.211-.508.437-.332.277-.475.462-.3.313-.477.493-.283.351-.449.511-.243.392-.427-.04.188.119.135-.12.134.123.134-.116.143.38,1.572.487,1.543,1,1.276,1.07,1.213,1.43.756.6.385.71.1.666.264L50.7,22.9l.7.147.957-.17.971-.026.907-.355.945-.217.805-.539.538-.206.359-.448.468-.331.182-.539.248-.511-.252-.664-.326-.632-.607-.374-.495-.526-.651-.321-.953-.824-1.116-.579-1.063-.67-1.232-.167-1.226.153-.332.368-.427.253-.188.46-.331.371-.051.495-.207.384.084.426-.1.425.211.378.06.428.6.5.621.473.78.094.75.229.782-.059.208.131.217-.114.218.12.206-.126.214.108.195-.166.254-.013.059-.248.2-.161-.1-.236.067-.248-.218-.135L53.553,19l-.255.022-.217-.136-.167.13-.171-.116-.173.12-.17-.125L52.21,19l-.483-.155-.5.069-.469-.2-.51-.034-.3-.38-.177-.128.094-.2-.118-.184.143-.168-.075-.209.2-.2,0-.278.238-.141.081-.265.271-.047.892-.129.8.474.856.371.7.622.828.443.274.345.415.153.264.348.406.17.183.351L56.2,19.9l-.274.117-.131.271-.3.066-.174.252-1.312.461-1.317.45L51.3,21.5l-1.391-.04L48.638,20.9l-1.166-.6-.845-1L45.8,18.28l-.379-1.254-.335-1.266.11-.306-.122-.3.131-.3-.1-.31.126-.233,1.719-.834,1.888-.323,1.9-.278,1.905.214,1.91.188,2.621,1.067,2.414,1.48,1.852,2.143,1.545,2.373.723,2.738.154.17-.077.218.161.165-.072.22.162.164-.023.421.2.369-.055.416.148.392-.138.392.083.075-.117-.047.075.1-.12-.035.082.1L64,26.282l.071.179-.138.135.125.146-.087.172.124,0-.1.072.124-.014-.1.081.13.007-.128.032.111.065-.126.026.111.069L64,27.259l-.045.291-.229.194.014.3-.191.229.054.3-.1-.066.022.12-.065-.1.026.119-.071-.1-.012.144-.135-.048.025.141-.142-.017.036.15-.06-.108-.01.122-.029-.118-.013.123-.083-.085.116.065-.118.048.122.036L63,29.047l.123.045-.137.084.114.1-.113.1.137.067-.077.135.168.051,0,.176.174-.016.059.166.2-.049-.029.3.213.188.026.28.253.128.091.255.241.264-.06.363.126.348-.159.336.03.371-.221.233L64.1,33.3l-.285.152-.165.28-.324.018-.122.156-.174-.093-.144.136-.167-.11-.155.128-.024-.119-.013.12-.02-.119-.017.122-.028-.119-.278.162-.321.006-.16.278-.278.161-.032.323-.171.089.051.185-.171.088.049.185-.171.088-.025.35-.244.254-.019.35-.238.26-.008.351-.238.236-.064.329-.292.166-.148.3-.326.078-.927.669-1.059.421-.988.57L55.29,40l-1.088.338-.379-.034-.252.279-.313.2v.375L53.1,41.5l.117.194-.116.193.134.179-.1.2.149.167-.124.072.119.069-.118.072.126.058-.11.075.058.971-.351.9-.493.82-.929.241-.942.223-.343-.114-.349.1-.319-.162-.357.024-.223-.27-.273-.2.028-.345-.161-.306.1-.335L48.492,44l.116-.159-.128-.153.112-.164-.131-.153.1-.144.046-.223.223-.108-.007-.247.183-.167-.081-.236.131-.513-.219-.469-.179-.486-.485-.185-.438-.285-1-.168-.9-.439-.971-.258-.858-.525-.941-.351-.326-.345-.431-.2-.215-.421-.349-.321-.082-.467-.158-.065.046-.168-.168-.024-.016-.17-.159.06.059-.108-.12.029.1-.071-.124.016.1-.076-.306-.4-.184-.472-.454-.213-.409-.3-.509.045-.048-.136-.148,0,.064-.141-.15-.047.075-.14-.164-.089.054-.183-.173-.083.029-.191-.187-.055-.088-.448L38.381,33l.077-.446-.029-.452.338-.3-.053-.119.12.049-.052-.117.1.072-.037-.124.212-.01.069-.206.217-.019.071-.213.225-.029-.011-.147.142.04-.01-.148.147.035-.028-.1.016-.1-.132.063-.016-.147-.14.06-.019-.15-.082.091.046-.113-.088.084.049-.112-.108.007.168-.028-.057-.152.149-.061-.1-.128.123-.107-.16-.19,0-.248-.241-.065-.143-.2-.233.085-.023-.12-.016.122-.024-.119-.017.12-.018-.12-.028.12-.019-.122-.028.119-.018-.122-.061.1.088-.1-.129-.016.108-.076L38.6,29.11l.112-.076-.131-.059.1-.1-.14-.035.079-.117-.148-.034.093-1.069-.148-1.067.093-1.075L38.362,24.4l.093-1.075.122-.9.392-.832.2-.9.451-.8ZM59.279,44.571l.361,1.372.336,1.378-.183,1.406-.227,1.4-.709,1.229-1,1.54L56.4,54.015,54.88,55.044l-1.764.515-1.787.431-1.515-.048L48.3,56l-1.468-.363-1.455-.394L44.2,54.308l-1.116-1.226-.533-1.568L42.07,49.92l-.058-1.663-.17-1.661.212-.822.165-.833.54-.653.474-.7.724-.431.326-.349.465-.107.38-.285.477-.013.436-.176.037.122.046-.118.026.124.057-.111-.007.123.022-.117v.12l.022-.117.27.307.289.289-.042.41.153.389-.1.409.146.582-.052.6.262.544.149.586.472.379.421.449.6.122.561.247.615-.067.611.116,1.457-.326,1.4-.513.858-1.208.557-1.378,0-1.5.12-.017-.12-.011.12-.016-.12-.022.11.013.164-.248.314,0,.253-.188.306.083.295-.12.746.268.756.254.516.613.574.558Z" transform="translate(-36.885 -9.745)" fill="#fff" stroke="#fff" stroke-width="0.5"/>
        </g>
        <g id="グループ_4897" data-name="グループ 4897" transform="translate(10.892 25.97)">
          <path id="パス_28510" data-name="パス 28510" d="M48.983,34.017l.36.131.349-.142.371.065.317-.2h.376l.408-.326.485-.192.272-.444.388-.348.111-.51.159-.116-.1-.166.093-.173-.177-.079-.045-.189-.115.114-.147-.064-.03.159L51.89,31.5l-.01.159-.14-.022.067.126-.141.021.075.123-.142,0-.721.906-1.087.374-1.145.07-.951-.651-.864-.769.079-.1-.123.029.084-.095-.123.028.08-.1-.187-.05-.03-.191-.18.052-.161-.1-.07.181h-.168l.046.161-.144.086.124.113-.078.148.476.626.38.686.681.383.681.379Z" transform="translate(-45.935 -31.324)" fill="#fff" stroke="#fff" stroke-width="0.5"/>
        </g>
        <g id="グループ_4898" data-name="グループ 4898" transform="translate(18.019 21.994)">
          <path id="パス_28511" data-name="パス 28511" d="M53.026,30.309l.394.057.282-.288.363-.177.1-.388.2-.35-.19-.313-.078-.357-.334-.152-.246-.272-.363.043-.357-.089-.282.234-.346.119-.1.353-.213.3.134.38.034.4.338.22.261.308Z" transform="translate(-51.858 -28.021)" fill="#fff" stroke="#fff" stroke-width="0.5"/>
        </g>
        <g id="グループ_4899" data-name="グループ 4899" transform="translate(7.986 22)">
          <path id="パス_28512" data-name="パス 28512" d="M44.805,30.289l.361.039.239-.273.325-.161.055-.358.174-.318-.177-.358-.069-.392-.356-.176-.3-.265-.391.08-.361-.049-.243.269-.321.166-.045.36-.179.316.169.361.074.392.358.176.293.27Z" transform="translate(-43.521 -28.026)" fill="#fff" stroke="#fff" stroke-width="0.5"/>
        </g>
      </g>
    </g>
    <g id="グループ_4903" data-name="グループ 4903" transform="translate(0 0.025)">
      <path id="パス_28513" data-name="パス 28513" d="M21.866,38.21h-.009l.026.015h0Z" transform="translate(3.081 -3.978)" fill="#fff" stroke="#fff" stroke-width="0.5"/>
      <path id="パス_28515" data-name="パス 28515" d="M25.734,22.473a.915.915,0,0,1,.629.432,1.364,1.364,0,0,0,.108.149l.024.028a1.8,1.8,0,0,1,.434.846,2.565,2.565,0,0,0,.466.209,1.615,1.615,0,0,1,.185-.012,11.192,11.192,0,0,0,1.586-2.347,1.855,1.855,0,0,0-.534-2.449c-1.392-.789-3.06.072-3.912,2.053v0a6.3,6.3,0,0,1,.42.588A.887.887,0,0,0,25.734,22.473Z" transform="translate(3.663 -7.879)" fill="#fff" stroke="#fff" stroke-width="0.5"/>
      <path id="パス_28516" data-name="パス 28516" d="M24.227,10.954h0Z" transform="translate(3.563 -9.524)" fill="#fff" stroke="#fff" stroke-width="0.5"/>
      <path id="パス_28519" data-name="パス 28519" d="M25.984,24.124a4.1,4.1,0,0,1-.349-.225l-.024-.018a1.9,1.9,0,0,1-.261.241c.113.036.229.07.335.116Z" transform="translate(3.792 -6.893)" fill="#fff" stroke="#fff" stroke-width="0.5"/>
      <path id="パス_28520" data-name="パス 28520" d="M18.234,29.266A1.081,1.081,0,0,1,19.8,29.8a.376.376,0,0,0,.595.116,2.529,2.529,0,0,0,.335-.556,3.266,3.266,0,0,0-.106-.5c-.455-1.163-1.513-1.359-2.676-.469a.784.784,0,0,0-.233.605A.36.36,0,0,0,18.234,29.266Z" transform="translate(2.237 -6.089)" fill="#fff" stroke="#fff" stroke-width="0.5"/>
      <path id="パス_28521" data-name="パス 28521" d="M17.305,32.227a1.756,1.756,0,0,0,.148.135,1.307,1.307,0,0,1,.149.141,1.553,1.553,0,0,0,1.043.59,1.629,1.629,0,0,0,.572-.061.825.825,0,0,1,.817.1.159.159,0,0,0,.075.029l0,.077.148-.043.226-.061c.164-.042.333-.088.5-.148.137-.052.271-.112.4-.172.153-.07.3-.135.445-.187a2.644,2.644,0,0,0,1.569-1.3.706.706,0,0,0-.154-.858.66.66,0,0,0-.851-.047l0,0a5.7,5.7,0,0,0-.472.424,1.48,1.48,0,0,1-.237.173c-.061.037-.126.07-.191.1s-.153.077-.226.122c-.058.035-.114.073-.171.111a.973.973,0,0,1-.731.25.706.706,0,0,0-.386.076.557.557,0,0,1-.625-.059.718.718,0,0,0-.519-.16c-.289.067-.433-.082-.635-.285l-.075-.072a1.844,1.844,0,0,0-.591-.315,1.212,1.212,0,0,0-.384-.072.576.576,0,0,0-.343.057l-.034.026a.391.391,0,0,0-.1.33,1.769,1.769,0,0,0,.185.588A3.334,3.334,0,0,0,17.305,32.227Z" transform="translate(2.026 -5.591)" fill="#fff" stroke="#fff" stroke-width="0.5"/>
      <path id="パス_28522" data-name="パス 28522" d="M15.345,26.252l-.016,0a2.21,2.21,0,0,1-.3.054,1.2,1.2,0,0,0-.759.306,1.762,1.762,0,0,0-.451,1.295.641.641,0,0,0,.069.154,1.713,1.713,0,0,0,1.32.617h.023l.039-.007a1.508,1.508,0,0,0,.993-1.27,1.592,1.592,0,0,0-.608-1.077A.442.442,0,0,0,15.345,26.252Z" transform="translate(1.446 -6.412)" fill="#fff" stroke="#fff" stroke-width="0.5"/>
      <path id="パス_28523" data-name="パス 28523" d="M22.681,27.3c.031.045.06.094.089.144a.856.856,0,0,0,.276.331,1.286,1.286,0,0,0,.746.239,1.239,1.239,0,0,0,.554-.13,1,1,0,0,0,.644-.808,1.068,1.068,0,0,0-.5-1.012l-.01,0a1.452,1.452,0,0,0-.661-.156H23.8a2.185,2.185,0,0,0-.46.093l-.035,0a.694.694,0,0,0-.595.779c.008.09.014.183.02.273l0,.064-.132.076Z" transform="translate(3.233 -6.482)" fill="#fff" stroke="#fff" stroke-width="0.5"/>
      <path id="パス_28525" data-name="パス 28525" d="M25.845,24.487a4.1,4.1,0,0,0,.349.225l.939-.355c.193-.195.351-.421.53-.629a1.615,1.615,0,0,0-.185.012,2.565,2.565,0,0,1-.466-.209,1.8,1.8,0,0,0-.434-.846l-.024-.028a1.364,1.364,0,0,1-.108-.149.915.915,0,0,0-.629-.432.887.887,0,0,1-.595-.5,6.3,6.3,0,0,0-.42-.588,4.345,4.345,0,0,0-.367,2.864c.167.588.658.711,1.126.856a1.9,1.9,0,0,0,.261-.241Z" transform="translate(3.582 -7.482)" fill="#fff" stroke="#fff" stroke-width="0.5"/>
      <path id="パス_28526" data-name="パス 28526" d="M40.4,55.618l-1.9-4.29a1.353,1.353,0,0,0-.373-.422l-.022-.018a4.914,4.914,0,0,1-.75-.921,3.693,3.693,0,0,0-1.616-1.609,4.673,4.673,0,0,1-.534-.413,3.557,3.557,0,0,0-.457-.38c-.739-.438-1.5-.883-2.275-1.321-.185-.107-.38-.2-.55-.278l-.509-.248a.932.932,0,0,0-.359-.373c-.475-.278-.969-.545-1.456-.788a3.832,3.832,0,0,0-1.13-.469,2.278,2.278,0,0,1-1.183-.539c0-.067-.008-.138-.014-.209-.014-.211-.031-.43-.028-.627a3.92,3.92,0,0,0,.014-1.181c.018,0,.037,0,.059-.01a3.27,3.27,0,0,0,.421-.16c.061-.026.123-.053.178-.075a1.194,1.194,0,0,0,.148-.064.642.642,0,0,1,.141-.057h0a1.211,1.211,0,0,0,1.1-.233,2.511,2.511,0,0,1,.373-.2,5.329,5.329,0,0,1,.811-.4,1.706,1.706,0,0,0,.889-.46.575.575,0,0,1,.336-.149.876.876,0,0,0,.7-.424q.15-.213.3-.428a16.6,16.6,0,0,1,1.012-1.361,5.2,5.2,0,0,0,.876-1.657.881.881,0,0,0,.035-.348.814.814,0,0,1,.01-.231,15.1,15.1,0,0,0,.644-2.01c.007-.051.017-.1.025-.148a.785.785,0,0,0-.057-.623c.29-.2.595-.388.9-.557a3.311,3.311,0,0,1,.539-.188,2.235,2.235,0,0,0,.983-.478l.113-.1a.856.856,0,0,0,.388-.643,1.6,1.6,0,0,1,.233-.962.663.663,0,0,0,.018-.5c-.01-.046-.018-.09-.03-.155a1.938,1.938,0,0,0-.11-.244,1.53,1.53,0,0,0-.811-.98,2.256,2.256,0,0,0-.051-.815l-.047-.128a.436.436,0,0,1,0-.373,1.9,1.9,0,0,0,.029-1.4,1.905,1.905,0,0,0-.235-1.623,1.654,1.654,0,0,0-.288-1.639,1.838,1.838,0,0,0-.252-1.321l-.465-1.021a1.2,1.2,0,0,0-.428-.661c-.007,0-.03-.022-.023-.1a1.155,1.155,0,0,0-.188-.681l-.084-.117c-.241-.335-.513-.715-.857-1.128a4.786,4.786,0,0,1-1.048-1.519,1.285,1.285,0,0,0-.306-.413c-.1-.118-.212-.232-.318-.345l-.217-.239a2.893,2.893,0,0,0-.208-.23q-.3-.285-.605-.564l-.2-.19a1.078,1.078,0,0,0-.534-.381,3.331,3.331,0,0,1-1.1-.645l-.108-.078a.981.981,0,0,0-.555-.184.886.886,0,0,1-.229-.143,2.942,2.942,0,0,0-.377-.254c-.2-.108-.4-.243-.6-.373l-.042-.029c-.142-.094-.284-.189-.456-.294a1.087,1.087,0,0,0-.808-.1c-.069.018-.149-.014-.384-.125a2.419,2.419,0,0,0-.343-.147,4.616,4.616,0,0,0-1.551-.392c-.135-.013-.259-.043-.4-.047a1.878,1.878,0,0,1-.716-.091,4.671,4.671,0,0,0-1.1-.111,2.889,2.889,0,0,1-.509.026,2.056,2.056,0,0,0-.259-.034,1.762,1.762,0,0,0-.668.037,1.76,1.76,0,0,0-.262,0c-.241.018-.491.037-.735.072a.717.717,0,0,0-.315.114,1.859,1.859,0,0,0-1.094.126,2.293,2.293,0,0,1-.255.083.8.8,0,0,0-.777.146c-.1.059-.191.128-.284.2-.2.152-.225.153-.368.136l-.349.028-.12.1a15.179,15.179,0,0,0-1.96,1.028c-.089.077-.184.146-.295.225l-.262.2a11.623,11.623,0,0,1-.953.743,1.989,1.989,0,0,0-.52.5c-.024.029-.083.1-.108.125a.829.829,0,0,0-.605.188,15.332,15.332,0,0,0-1.7,1.163,4.872,4.872,0,0,1-.685.581A1.226,1.226,0,0,0,8.755,16a11.576,11.576,0,0,0-.68,1.2,3.41,3.41,0,0,1-.2.426,2.015,2.015,0,0,0-.539,1.365.693.693,0,0,1-.081.237,5.97,5.97,0,0,0-.344.806l-.032.171a.778.778,0,0,1-.185.456A1.475,1.475,0,0,0,6.2,22.023a3.033,3.033,0,0,1-.168,1.332,2.543,2.543,0,0,0-.218,1.658,1.178,1.178,0,0,1-.075.649,2.117,2.117,0,0,0-.029,1.409,4.469,4.469,0,0,1,.131.645.947.947,0,0,0,.156.57,1.1,1.1,0,0,1,.177.633l-.007.286-.041.02a1.613,1.613,0,0,0-.147.082,1.023,1.023,0,0,0-.457.966,1.344,1.344,0,0,1-.04.513.761.761,0,0,0,.143.8c.066.071.134.14.2.209l.032.032s1.182,1.129,1.232,1.119a4.52,4.52,0,0,0,1.065.517.986.986,0,0,0,.327.1,1.245,1.245,0,0,0,1.348-.149,1.7,1.7,0,0,0,.336.75,1.664,1.664,0,0,0,.495,1.178.4.4,0,0,1,.089.194,6.857,6.857,0,0,0,1.058,1.971,1.007,1.007,0,0,1,.1.164A3.212,3.212,0,0,0,13.4,39.333a6.384,6.384,0,0,0,1.016.585,6.2,6.2,0,0,1,.61.3c-.1.28,1.364,1.321,1.364,1.321l.022.011a3.909,3.909,0,0,0,.467.223,7.917,7.917,0,0,0,.963.191c.143.022.288.045.43.07l.013,0A2.659,2.659,0,0,0,18.1,43.63a1.656,1.656,0,0,0-.026.436c-.343.048-.425.114-.78.446a1.916,1.916,0,0,1-.39.231l-.058.031c-.183.1-.372.207-.562.295a3.961,3.961,0,0,0-.65.406q-.014-.042-.029-.076a17.809,17.809,0,0,0-2.555,1.148,4.727,4.727,0,0,0-1.1.688,6.048,6.048,0,0,0-1.264,1.112l-.652.587c-.3.274-.608.549-.875.805a5.4,5.4,0,0,0-.685.74A16.271,16.271,0,0,0,6.616,52.7l.045-.025c-.125.219-.249.438-.372.659l-.3.531a6.119,6.119,0,0,0-.409.747,6.909,6.909,0,0,1-.332.875c-.025.042-.039.088-.064.13H6.76a4.757,4.757,0,0,0,.158-.467,6.076,6.076,0,0,1,.309-.538l.336-.6c.215-.384.43-.768.656-1.153a1.128,1.128,0,0,1,.217-.272,4.5,4.5,0,0,0,.894-.906,13.611,13.611,0,0,0,1.714-1.64l.632-.649c.355-.32.709-.641,1.046-.942.351-.195.68-.415,1.024-.652a.443.443,0,0,0,.053-.028,2.173,2.173,0,0,0,.793.088c.048,0,.085,0,.14,0a3.227,3.227,0,0,1,.633.8,1.716,1.716,0,0,0,.93,1.472,4.578,4.578,0,0,0,1.111.517.811.811,0,0,0,.442.231,6.111,6.111,0,0,0,3.592-.4,3.961,3.961,0,0,0,1.336-1,3.612,3.612,0,0,0,2.249,1.2,1.725,1.725,0,0,0,2.465,0,3.05,3.05,0,0,0,1.7-.823,2.238,2.238,0,0,0,.6-1.435,8.437,8.437,0,0,1,.8-1.019,3.3,3.3,0,0,0,.739-.125l.006,0c.144.067.292.137.432.218.756.431,1.509.868,2.194,1.268a2.377,2.377,0,0,1,.261.226,5.821,5.821,0,0,0,.814.617,2.422,2.422,0,0,1,1.077,1.07,6,6,0,0,0,.954,1.2,1.493,1.493,0,0,0,.188.178c.195.437.4.875.641,1.339l.472.93,1.1,1.295H6.76c-.07.181-.152.371-.242.558a4.585,4.585,0,0,0-.32.645H40.931ZM28.1,11.2ZM21.016,48.573c-.126.108-.268.209-.4.307L20.445,49a.118.118,0,0,1-.026.016l-.029.017a6.3,6.3,0,0,1-.929.2l-.031,0a.609.609,0,0,1-.128-.024,7.671,7.671,0,0,0-1.13-.227A2.955,2.955,0,0,1,17,48.567l-.037-.024c-.031-.019-.063-.04-.1-.059l.006-.022-.113-.239A4.545,4.545,0,0,0,15.887,47a6.837,6.837,0,0,1,1.427-.745h0a3.831,3.831,0,0,0,.666-.343c.555-.416.755-.4,1.194.132a6.9,6.9,0,0,0,1.358,1.207c.176.124.361.237.54.345.195.119.395.239.585.377C21.433,48.2,21.231,48.389,21.016,48.573Zm1.94-2.515-.039.035c-.363.331-.362.33-.71.035a12.906,12.906,0,0,0-1.923-1.477.9.9,0,0,1-.424-.844,12.275,12.275,0,0,0-.124-2.484c-.022-.091-.11-.165-.289-.244a.817.817,0,0,0-.649-.486c-.4-.064-.81-.144-1.2-.224-.184-.037-.366-.073-.56-.107a1.432,1.432,0,0,0-.395-.187,1.025,1.025,0,0,0-.58-.923A7.783,7.783,0,0,0,15,38.6a5.744,5.744,0,0,1-.853-.5,1.914,1.914,0,0,1-.906-1,2.341,2.341,0,0,0-.285-.474,5.446,5.446,0,0,1-.817-1.492,1.789,1.789,0,0,0-.443-.8.282.282,0,0,1-.079-.237,1.105,1.105,0,0,0-.3-.808.276.276,0,0,1-.059-.215,1.086,1.086,0,0,0-1.08-1.152,1.607,1.607,0,0,0-1.163.3c-.073-.026-.161-.049-.306-.088a3.709,3.709,0,0,1-1.047-.55l-.3-.23A5.955,5.955,0,0,0,7,30.629c-.065-.093-.093-.17-.076-.212s.093-.083.214-.108a2.1,2.1,0,0,0,.451-.179,7.381,7.381,0,0,1,.83.664,1.32,1.32,0,0,0,.953.407,1.278,1.278,0,0,0,1.25-.924,2.575,2.575,0,0,0,.153-.957,3.177,3.177,0,0,1,.059-.785,3.872,3.872,0,0,0,.241-1.406,2.98,2.98,0,0,1,.123-1.165,6.356,6.356,0,0,1,.495-1.307,1.533,1.533,0,0,0,.265-.94c.076-.079.147-.162.217-.244l.041-.048c.051-.061.1-.118.124-.144a1.133,1.133,0,0,0,.415-.971.5.5,0,0,1,.286-.44c.076-.064.152-.131.232-.208a2.9,2.9,0,0,1,.067.338,1.592,1.592,0,0,0,.312.635.381.381,0,0,1,.066.138,6.406,6.406,0,0,0,.681,1.383,1.365,1.365,0,0,0,.582.573,2.119,2.119,0,0,0,1.148,1.17,1.065,1.065,0,0,1,.25.164,4.857,4.857,0,0,0,2.052.993,2.873,2.873,0,0,1,.666.225,3.712,3.712,0,0,0,1.883.422,3.863,3.863,0,0,0,1.046-.136.56.56,0,0,1,.1.022l.043.01a1.989,1.989,0,0,0,.555.061,4.176,4.176,0,0,0,.958-.215l.057-.018a3.046,3.046,0,0,1,.544-.135l.444-.12a1.557,1.557,0,0,0,.471.178,4.143,4.143,0,0,0,2.019.306l.124.02a2.786,2.786,0,0,0,1.666-.4,2,2,0,0,0,.44-.277c-.468-.144-.959-.267-1.126-.856a4.345,4.345,0,0,1,.367-2.864c-.039-.049-.066-.1-.107-.149a1.637,1.637,0,0,0-.49-1.033.605.605,0,0,1-.07-.32,1.883,1.883,0,0,0-.58-1.349.979.979,0,0,0-1.717.454,2.4,2.4,0,0,0-.018,1.259,3.036,3.036,0,0,1,.079.361,1.884,1.884,0,0,0,.519,1.159.948.948,0,0,1,.233.445,2.368,2.368,0,0,0,.764,1.285,6.24,6.24,0,0,1,.507.533c.072.077.15.153.23.226a1.43,1.43,0,0,1-.548.093,1.424,1.424,0,0,0-.3-.019,3.241,3.241,0,0,1-1.569-.243,1.217,1.217,0,0,0-.04-.285v-.3l-.045.171a1.225,1.225,0,0,0-.812-.672.23.23,0,0,1-.123-.077,1.234,1.234,0,0,0-1.13-.524,4.451,4.451,0,0,0-1.057-1.142c-.146-.321-.279-.656-.391-.97a1.349,1.349,0,0,0-.467-.879,4.684,4.684,0,0,0-.329-1.14.956.956,0,0,0-.976-.74.981.981,0,0,0-.962.944c0,.084-.007.171-.014.258l0,.032a2.137,2.137,0,0,0,.231,1.388.935.935,0,0,0,.138.809,1.557,1.557,0,0,1,.16.355,2.266,2.266,0,0,0,.5.883,1.7,1.7,0,0,1,.295.481,4.51,4.51,0,0,0,1.506,1.566,1.53,1.53,0,0,0-.422.036,2.463,2.463,0,0,1-.717.093,2.378,2.378,0,0,1-1.217-.27,4.262,4.262,0,0,0-1.013-.348,3.357,3.357,0,0,1-1.42-.684,2.482,2.482,0,0,0-.6-.384.687.687,0,0,1-.395-.4,1.133,1.133,0,0,0-.688-.781,5.326,5.326,0,0,1-.532-1.064,1.647,1.647,0,0,0-.336-.62,3.605,3.605,0,0,0-.211-.8,2.14,2.14,0,0,0,.573-2.019,1.167,1.167,0,0,0-1.1-.875,1.064,1.064,0,0,0-1.16.77,2.57,2.57,0,0,0-.1,1.331l-.172.181c-.155.165-.3.32-.391.4a1.863,1.863,0,0,0-.891,1.573c-.083.085-.161.177-.239.268l-.035.041c-.055.066-.107.129-.137.158a1.045,1.045,0,0,0-.383,1.022c0,.018.007.048-.059.153a7.592,7.592,0,0,0-.65,1.662A4.2,4.2,0,0,0,9.639,27.2a2.587,2.587,0,0,1-.177.913,4.524,4.524,0,0,0-.125,1.264.883.883,0,0,1-.03.271c-.236-.213-.5-.434-.83-.686a1.181,1.181,0,0,0-.923-.653,2.679,2.679,0,0,0-.268-.676,1.224,1.224,0,0,0-.014-.159,6.135,6.135,0,0,0-.181-.83.7.7,0,0,1,0-.456,2.589,2.589,0,0,0,.144-1.444,1.233,1.233,0,0,1,.12-.8A4.552,4.552,0,0,0,7.627,21.8c0-.01-.01-.041.058-.1a2.183,2.183,0,0,0,.616-1.28,4.714,4.714,0,0,1,.229-.526,2.146,2.146,0,0,0,.241-.828.8.8,0,0,1,.237-.558,3.739,3.739,0,0,0,.386-.727,6.54,6.54,0,0,1,.533-.9,1.5,1.5,0,0,0,.333-.19,6.6,6.6,0,0,0,.7-.623,14.179,14.179,0,0,1,1.447-.978,1.513,1.513,0,0,0,1.144-.68,1.021,1.021,0,0,1,.171-.181,12.674,12.674,0,0,0,1.083-.834l.2-.147a2.722,2.722,0,0,0,.307-.239,14.575,14.575,0,0,1,1.666-.853,1.731,1.731,0,0,0,1.154-.45l.067-.049a2.177,2.177,0,0,0,.856-.16,1.384,1.384,0,0,1,.285-.078,1.423,1.423,0,0,0,.839-.093c.2-.029.407-.045.705-.061a1.029,1.029,0,0,0,.457-.045.32.32,0,0,1,.209,0l.167.032a3.682,3.682,0,0,0,.788-.023,2.991,2.991,0,0,1,.626.065,3.064,3.064,0,0,0,1.135.142,3.417,3.417,0,0,1,1.379.335,1.943,1.943,0,0,1,.219.1l.036.017a1.955,1.955,0,0,0,1.219.254c.076.048.15.1.225.148l.042.029c.224.149.477.318.735.459a1.038,1.038,0,0,1,.156.108l.029.022a1.814,1.814,0,0,0,.921.432,4.721,4.721,0,0,0,1.389.8l.02.022a2.746,2.746,0,0,0,.218.217c.22.2.44.4.656.61a1.384,1.384,0,0,1,.1.117l.3.326c.089.1.177.189.267.291l.084.085a6.046,6.046,0,0,0,1.283,1.859c.236.286.45.58.745.99a1.5,1.5,0,0,0,.519,1.149l0,.012a2.051,2.051,0,0,0,.09.242l.341.738c.034.078.072.154.122.253.154.3.144.324.117.379l-.055.161a1.075,1.075,0,0,0,.242.937l.1.1c.113.085.071.242.011.374a1.334,1.334,0,0,0,.187,1.13.521.521,0,0,1,.032.558,1.049,1.049,0,0,0,.059.763.457.457,0,0,1,.014.355,1.847,1.847,0,0,0-.024,1.469l-.01,0a1.558,1.558,0,0,0-.462.323,3.925,3.925,0,0,0-.227-.556,1.042,1.042,0,0,0-1.234-.676l-.06.019a2.017,2.017,0,0,0-1.43-.041c-.039.014-.076.008-.07.016a1.411,1.411,0,0,0-1-.343c-.178.208-.337.434-.53.629L30.087,27a3.932,3.932,0,0,0,.767.375,1.112,1.112,0,0,0,.762.076l.026.024a1.527,1.527,0,0,0,1.463.23.559.559,0,0,1,.377,0,1.213,1.213,0,0,0,.645.131,2.864,2.864,0,0,1,.137.418,2.255,2.255,0,0,0,.289.762,1.1,1.1,0,0,0,1.088.7,1.809,1.809,0,0,0,1.191-.536l.019-.019a.582.582,0,0,1,.017.087c.049.386.014.457-.309.633a1.393,1.393,0,0,0-.44.35,3.436,3.436,0,0,1-1.348,1.125.82.82,0,0,0-.536.678,7.165,7.165,0,0,1-.424,1.319,2.053,2.053,0,0,0-.143.857,1.026,1.026,0,0,1-.225.906,3.881,3.881,0,0,0-.792,1.3,1.793,1.793,0,0,1-.36.526c-.076.073-.16.141-.243.208a1.716,1.716,0,0,0-.5.544,2.318,2.318,0,0,1-.6.726,4.6,4.6,0,0,1-1.762.906,4.918,4.918,0,0,0-1.209.386,2.477,2.477,0,0,1-1.526.318,1.858,1.858,0,0,0-.769.178.772.772,0,0,0-.453.931,3.9,3.9,0,0,1-.066,1.947,1.347,1.347,0,0,0-.022.678c.01.046.02.116.032.195l-.007,0c-.469.388-.9.824-1.325,1.247C23.554,45.484,23.258,45.78,22.956,46.058Zm2.318-2.045h0L25.249,44h.008Zm3.175,3.809-.125.2.006.076a15.085,15.085,0,0,0-1.435.69.665.665,0,0,1-.526.159,3.733,3.733,0,0,1-1.392-.318c-.286-.207-.6-.456-.927-.74-.006-.079.039-.195.285-.386a5.415,5.415,0,0,0,1.337-1.491,6.06,6.06,0,0,1,.486-.619.388.388,0,0,1,.049-.07.446.446,0,0,1,.306-.152.462.462,0,0,1,.336.118,10.958,10.958,0,0,0,2.559,1.276A9.68,9.68,0,0,0,28.449,47.822Z" transform="translate(-0.311 -9.765)" fill="#fff" stroke="#fff" stroke-width="0.5"/>
      <path id="パス_28527" data-name="パス 28527" d="M6.6,48.424c.09-.188.172-.378.242-.558H5.269a5.34,5.34,0,0,0-.492,1.2h1.5A4.585,4.585,0,0,1,6.6,48.424Z" transform="translate(-0.394 -2.013)" fill="#fff" stroke="#fff" stroke-width="0.5"/>
      <g id="グループ_4902" data-name="グループ 4902" transform="translate(0 24.075)">
        <path id="パス_28528" data-name="パス 28528" d="M4.233,39.189a3.883,3.883,0,0,1-2.74-1.4,1.3,1.3,0,0,1-.356-.977A1.4,1.4,0,0,1,1.606,35.8a3.349,3.349,0,0,1,.714-.469l.385-.188c.692-.337,1.383-.673,2.089-.97A6.362,6.362,0,0,0,6.843,32.9a5.378,5.378,0,0,1,.6-.478,3.722,3.722,0,0,0,.445-.353c.026-.026,3-2.469,3.958-2.291h0c.426.1.77.507,1.247,1.114l.063.079.226.026.173.676c.061.242.123.483.193.722a3.07,3.07,0,0,1-.395,2.536,6.656,6.656,0,0,1-4.045,3.188c-.8.206-1.613.38-2.421.554-.626.135-1.253.27-1.875.42A3.342,3.342,0,0,1,4.233,39.189ZM2.618,36.858c.793.776,1.341.992,2.051.82.634-.153,1.271-.289,1.909-.426.792-.171,1.584-.341,2.367-.54a5.276,5.276,0,0,0,3.17-2.55,1.6,1.6,0,0,0,.232-1.356c-.073-.255-.14-.513-.2-.77-.061-.071-.125-.152-.2-.244-.089-.113-.258-.329-.4-.483A20.649,20.649,0,0,0,8.912,33.1a4.972,4.972,0,0,1-.622.5,3.708,3.708,0,0,0-.432.341,7.851,7.851,0,0,1-2.5,1.571c-.682.289-1.351.614-2.018.939l-.389.188A1.847,1.847,0,0,0,2.618,36.858Zm8.765-5.713Z" transform="translate(-1.135 -29.77)" fill="#fff" stroke="#fff" stroke-width="0.5"/>
        <path id="パス_28529" data-name="パス 28529" d="M37.553,39.189a3.36,3.36,0,0,1-.777-.1c-.621-.149-1.247-.284-1.873-.419-.81-.174-1.621-.349-2.424-.555a6.66,6.66,0,0,1-4.045-3.188,3.07,3.07,0,0,1-.395-2.536c.075-.254.14-.511.2-.769L28.405,31l.227-.026.061-.081c.477-.608.822-1.013,1.248-1.113h0c.956-.175,3.933,2.265,3.958,2.291a3.756,3.756,0,0,0,.445.354,5,5,0,0,1,.6.478,6.38,6.38,0,0,0,2.049,1.273c.705.3,1.395.633,2.084.969l.391.19a3.3,3.3,0,0,1,.714.471,1.4,1.4,0,0,1,.469,1.01,1.309,1.309,0,0,1-.357.978A3.882,3.882,0,0,1,37.553,39.189Zm-7.909-7.155c-.066.258-.131.515-.206.77a1.609,1.609,0,0,0,.232,1.356,5.283,5.283,0,0,0,3.17,2.55c.785.2,1.577.369,2.37.54.637.137,1.273.273,1.906.426.714.171,1.259-.043,2.053-.821a1.964,1.964,0,0,0-.338-.213l-.392-.19c-.667-.324-1.332-.649-2.015-.936a7.839,7.839,0,0,1-2.5-1.571,3.708,3.708,0,0,0-.432-.341,5.093,5.093,0,0,1-.623-.5,20.649,20.649,0,0,0-2.637-1.794c-.138.154-.307.369-.395.483C29.769,31.883,29.7,31.964,29.643,32.035Zm.758-.889-.294-.658h0Z" transform="translate(4.315 -29.77)" fill="#fff" stroke="#fff" stroke-width="0.5"/>
      </g>
    </g>
  </g>
</svg>
