<svg xmlns="http://www.w3.org/2000/svg" width="42.519" height="48" viewBox="0 0 42.519 48">
  <g id="icon_dl" transform="translate(-14.284 -12)">
    <path id="パス_28007" data-name="パス 28007" d="M24.912,12.487a15.816,15.816,0,0,1,3.824-.271l.9-.01.649-.006,3.847-.041,4.594-.048a20.6,20.6,0,0,1,2.826-.071c.728.095,1.294.008,2.012.042.4.019.83.13,1.211.156.173.012.328-.158.54-.088.14.048.328.319.42.334l.6.092.623.552.642.524.491.75.8.283c.228.08.454.56.677.689.695.4,1.247.407,1.8,1.118l1.12,1.43a1.519,1.519,0,0,0,.271.29c.56.424.506.9.931,1.442a17.769,17.769,0,0,1,1.28,1.51,15.269,15.269,0,0,1,1.705,2.5c.3.894-.079,2.454-.116,3.4-.019.481.078.96.07,1.441-.011.636-.035,1.229,0,1.843s-.2,1.1-.215,1.7c-.036,1.339.132,2.7.13,4.042s-.054,2.7-.106,4.046c-.137,3.617-.878,7.757,0,11.288l.222.863-.12.878-.286.878.106.871-.227.862-.236.842c.38.649.746,2.056.06,2.712a1.03,1.03,0,0,1-.744.184q-4.045-.058-8.086.257a15.1,15.1,0,0,1-2.579.12c-1.152-.1-2.344.205-3.42-.212l-.851.084-.859.23-.83-.358c-3.577.587-7.23.114-10.837.091-1.3-.008-2.6.006-3.9.055a6.994,6.994,0,0,1-2.722-.106l-.838-.234-.824.066-.824.037a6.126,6.126,0,0,1-2.89.307.559.559,0,0,1-.268-.04c-.174-.089-.2-.32-.211-.515l-.114-2.777c-.143-3.506.046-7.021-.106-10.56a16.452,16.452,0,0,1-.014-1.7c.034-.556.3-1.063.33-1.591.037-.608-.206-1.288-.23-1.907-.054-1.426-.09-2.852-.124-4.279-.026-1.178-.342-2.142-.374-3.328a16.127,16.127,0,0,1-.234-1.976,6.6,6.6,0,0,0,.164-1.156,9.621,9.621,0,0,0-.27-1.016c-.11-.571.211-.869.092-1.468a11.4,11.4,0,0,1,.042-3.589,3.458,3.458,0,0,0,.04-.458c0-.164-.032-.326-.05-.488a12.416,12.416,0,0,1,.06-1.945c.052-1.162-.116-2.345-.175-3.5a26.394,26.394,0,0,1,.541-4.081A1.425,1.425,0,0,1,15,12.949a1.15,1.15,0,0,1,1.126-.452,8.36,8.36,0,0,0,1.273.138c.547-.043,1.049-.366,1.6-.366a3.9,3.9,0,0,1,.886.167,8.952,8.952,0,0,0,2.892.074,2.093,2.093,0,0,1,1.439.208A5.71,5.71,0,0,1,24.912,12.487ZM44.04,15.252l-.517.158-.852-.188-.853-.212-.842.1-.86-.432-.846-.04-.841.151c-.282.052-.611-.119-.88-.041-.68.2-1.25.67-2.027.437-.143-.043-.331-.3-.473-.271l-.839.16-.852-.179-.838.246c-1.117.474-2.2-.029-3.379.017l-.842.109-.844.032c-.932.617-2.62.312-3.7.336-.924.02-2.125.492-3.041.145l-.851-.323-.835.244-.851-.218-.828.491-.721-.034.215.833-.156.925.1.934-.145.918-.109.92-.406.859.235.845.238.841a7.727,7.727,0,0,1,.115,3.287c-.126.8-.56,1.356-.5,2.161a20.9,20.9,0,0,0,.289,3.233,6.25,6.25,0,0,1,.368,1.516l-.306.858.418.84.121.847.112.832-.479.838-.079.83-.041.83a2.829,2.829,0,0,1,.457,2.036l-.217,1.817a6.678,6.678,0,0,0-.1,2.082c.182.826.779,1.022.535,1.877-.089.312-.335.4-.328.805,0,.268.263.5.275.769.04.816-.814,1.507-.378,2.374l.424.845.156.847,0,.85.206.845-.128.852c-.113.808-.334,1.565-.38,2.386a56.929,56.929,0,0,0,7.126-.016s1.61-.164,1.358-.307l.863.49.844-.186.863.3.853.032.834-.348.827-.413.85.007.846-.052.877.46.823-.425.833-.342.869.218.868.253.851-.156.846-.3.869.286.85-.209.852-.121.852-.151.877.517.848-.247.842-.409c.064-.031.482.377.557.41.548.245.256.047.911-.026,1.432-.157,2.869-.272,4.31-.287a18.494,18.494,0,0,0,3.811.035l.344-.874a16.3,16.3,0,0,1-.023-3.544l-.017-.887-.012-.888-.408-.9-.056-.886.677-.87.131-.886-.059-.889-.205-.859-.055-.859-.257-.859.332-.86-.132-.858-.282-.858.235-.86.34-.862-.653-.854.046-.86.418-.862.127-.86-.57-.854.052-.859.22-.862.011-.859.144-.86-.205-.858.376-.862-.127-.858-.524-.856.353-.862-.278-.857a3.509,3.509,0,0,0,.23-1.508.184.184,0,0,0-.018-.116.174.174,0,0,0-.125-.059c-.581-.085-1.172.095-1.756.029-.224-.025-.444-.086-.668-.1a10.128,10.128,0,0,0-1.148.15c-.581.043-1.109-.058-1.674.04-.48.083-.514.359-.98.049-.173-.114-.757.292-1,.323a3.521,3.521,0,0,1-.73-.076l-1.028.1-.116-1.092-.418-.707c.248-.722.1-.815-.006-1.486a18.946,18.946,0,0,1,.048-2.621L44.5,18.21l-.114-.823.33-.82-.128-.824ZM52.564,21.8c-.77-.618-1.225-1.568-2.016-2.191l-.3-.912-.571-.624-.7-.484c-.247-.17-.391-.5-.634-.65-.6-.37-1.254-.455-1.811-1.075.046.907-.052,1.754-.077,2.621-.028.98.265,2.028.263,3.035,0,.206-.233.979.316,1.1l.866.2.806-.046c.293-.016.6-.407.893-.467a11.48,11.48,0,0,1,2.963.168c.181.022.426,0,.461-.175.029-.146-.12-.259-.244-.342C52.7,21.9,52.631,21.851,52.564,21.8Z" transform="translate(0 0)" fill="#fff"/>
    <path id="パス_28008" data-name="パス 28008" d="M43.267,41.657l-.029,1.268-.117.557-.576.013-.878-.087-.857.2-.859.191-.871.018-.872-.01-.858.23-.867.068-.882-.157-.873-.009-.872.025-.833.427-.878-.053-.871.041-.878.01-.858.156-.8.086-.8.088-.8.306-.8-.357L25.56,44.6l-.784-.141-.614-.478-.3-.662-.324-.764.109-.421.452-.147.878-.064.883.03.879-.018.888.21.868-.3.885.156.877-.07.881.045.875-.134.878-.033.862-.148.876.169.86-.186.874.11.865-.071.86-.16.876.115.867-.218.873-.03.859-.288.844.287Z" transform="translate(1.852 5.822)" fill="#fff"/>
    <path id="パス_28009" data-name="パス 28009" d="M41.536,24.787l-.559.534-.851.345-.922-.089-.87.305-.9-.26-.854-.063-.847.292-.852.064-.853-.023-.855-.252-.85.315-.855-.283-.852.049-.852.112-.853-.188-.852.25-.853.006-.853.012-.853-.168-.853.013-.851.262-1.032-.361-.333-1.019.66-.6.833-.209.907-.382.935.068.923.117.9.39.921-.219.909.277.921-.247.914.1.917-.195.914.2.916.079.877-.04h.878l.862-.239.871-.092.87-.139.887.232.872-.054.876-.064.885-.048.037.6Z" transform="translate(1.63 2.29)" fill="#fff"/>
    <path id="パス_28010" data-name="パス 28010" d="M42.551,28.358l.045.91-.337.949-1,.16-.884.211-.917-.1-.876.339-.926-.3-.8.326-.824-.195-.809.11-.816-.06-.812.038-.811.076-.808.17-.813.031-.808.154-.916-.282-.9.085-.9.155-.9.123-.905-.077-.905.171-.968-.367-.906-.441L23.28,29.1l.922.229.89-.115.862.073.854-.186.861.029.861.05.863.1.857-.1.853-.222.861.044.859-.032.858-.037.866.105.859-.048.849-.191.783-.187.8-.078.79-.143.783-.193.789-.218.825.238.813-.175Z" transform="translate(1.756 3.195)" fill="#fff"/>
    <path id="パス_28011" data-name="パス 28011" d="M26.039,35.125l.841-.237.853.225.843-.142.847-.012.85.094.841-.192.847.01.851.093.835-.279.855.152.837-.2h.848l.848,0,.85.02.841-.12.853.023.756-.149.707.173.707.5.048.869-.49.367-.577.5-.837-.1-.835-.005-.836-.2-.837.106-.84-.133-.832.226-.835.042-.832.109-.84-.081-.842-.076-.83.14L30.7,36.9l-.831.12-.834.071-.843-.078-.837.022-.828.183-.846-.129-.825.189-.84-.07-.283.02-.263-.286-.16-1.011.3-.619.6-.341.915.1Z" transform="translate(1.805 4.482)" fill="#fff"/>
  </g>
</svg>
