<svg xmlns="http://www.w3.org/2000/svg" width="48.243" height="48" viewBox="0 0 48.243 48">
  <g id="icon" transform="translate(-7.875 -8.12)">
    <g id="グループ_4499" data-name="グループ 4499">
      <g id="パス_3" data-name="パス 3">
        <path id="パス_27428" data-name="パス 27428" d="M54.8,20.117,54.339,20l-.221.433-.45.182.071.48-.261.4.24.893-.24.9.24.9-.24.9.149,1.02L50,25.88l-3.6.241-3.6-.241-3.6.241-3.6-.241-4.931-.331L26.1,23.665l-4.322-2.4-3.469-3.528-3.215-3.773.225-.335-.24-.277.24-.284-.24-.285.24-.284-.382-1.239-.218-1.277-.937-.892-.9-.929L11.6,8.12l-1.286.044-.9.93-.936.891-.218,1.277L7.875,12.5l.241,7.8-.241,7.8.241,7.8-.241,7.8.241,7.8-.092,1.293.665,1.11.553,1.173,1.169.541,1.191.5,1.053-.514,1.1-.381.6-1,.716-.92L15.031,52.1l1.718-2.353L18.3,47.3l2.136-1.958,2-2.1,2.373-1.489.555,2.236.711,2.321,1.663,1.76L29.6,49.614l2.4.265.954.241.959-.241.96.241.963-.241.964.241,2.422-.777,2.2-1.278,1.295-2.2,1.107-2.3L43.875,41l.241-.593-.241-.6.241-.6-.241-.6.157-.483,1.882-.239,1.919.238,1.919-.244,1.923.237,1.972-.233-.171,1,.241.9-.241.9.241.9-.241.9.263.4-.069.48.45.182.219.433.457-.113.458.113.22-.433.45-.182-.069-.48.263-.4-.241-4.2.241-4.2-.241-4.2.241-4.2-.241-4.2.215-.449-.374-.311-.078-.479-.485-.037ZM12.916,51.5l-.263.4.069.481-.449.181-.22.433-.457-.113-.458.112-.219-.432-.45-.182.07-.48-.263-.4.24-7.8-.24-7.8.24-7.8-.24-7.8.24-7.8-.212-.449.374-.309.078-.478.484-.038.356-.346.356.347.484.037.078.479.374.309-.213.448.241,7.8-.241,7.8.241,7.8-.241,7.8Zm2.16-4.291.24-5.758-.24-5.755.24-5.759-.24-5.764.237-5.737L18.5,21.815l3.582,3.135,4.3,2.04,4.465,1.643,4.75.243.236.241.237-.241.242.241.242-.241.125.144.238,1.181-.241,1.2.241,1.205-.241,1.209.239,1.232-.365-.144-.248.24-.253-.24-.254.24-.26-.24-4.8,1.023-4.657,1.536-4.035,2.792-3.821,3.08-2.931,3.94.022-.07h0l-.12.12ZM41.717,41l-.431,1.66-.365,1.675-1.185,1.235-1.241,1.175-1.7.135-.954.241-.959-.241-.961.241-.963-.241L32,47.119l-1.6-.6-1.514-.787-.8-1.515-.813-1.509L27.317,41l-.24-.138.24-.138-.24-.137.24-.144-.194-.239,1.716-.515,1.568-.817,1.754-.223,1.679-.554,1.762.063,1.2-.242,1.2.238,1.2-.242,1.2.238,1.254-.23-.173.7.24.594-.24.6.239.584ZM39.15,35.135l.167-1.316-.241-1.2.241-1.205L39.076,30.2l.167-1.1,2.831-.231,2.878.24,2.878-.24,2.884.24,2.929-.231-.166,1.31.24,1.2-.24,1.2.24,1.2-.167,1.092-2.83.237-2.879-.235-2.878.246L42.077,34.9Z" fill="#26333b"/>
      </g>
    </g>
  </g>
</svg>
