<svg xmlns="http://www.w3.org/2000/svg" width="66.053" height="48.498" viewBox="0 0 66.053 48.498">
  <path id="icon_naiyou" d="M1033.352,2574.089v.084h.028v.253h.028v.084h.028v.112h.028l-.028.365h.028l.028.449h-.028v.084h-.028v.141h-.028a.7.7,0,0,1,.028.14,2.466,2.466,0,0,0,0,.59c.03.12.078.085.168.141v.028l.084.028c.017.079.082.121.056.225a.557.557,0,0,0-.028.253h.028v.168c-.023.08-.122.3-.084.421h.028l.028.169h.028v.056l.056.028.056.169h.028l.028.14.056.028.028.112h.028c.07.19-.088.467-.056.59H1034l.056.337h.028l.056.168h.028v.056h.028v.056h.028v.056h.028v.056h.028v.056h.028v.056h.028q.014.211.028.421h.028v.112h.028v.084l.056.028.028.112.084.056v.056l.084.056v.056h.028l-.028.281h.028v.168h.028v.028h-.028l-.056.337h.028v.056l.112.084v.056h.028q.014.365.028.73h-.028v.225l.084.056v.056l.056.028v.056h.028v.084h.028v.14h.028v.084h.028v.084h.028l.084.786h-.028v.393h.028v.056l.056.028v.056l.056.028.028.14h.028v.309h.028v.168h.028v.281h.028v.253l.084.056v.056l.056.028q.028.407.056.814l.056.028v.056l.056.028v.056l.056.028v.337a.074.074,0,0,1,.028.084.511.511,0,0,0-.028.253h.028v.056l.056.028.056.168h.028v.225h-.028l.028.253h.028v.084h.028v.056h.028l.028.281.168.505v.309h.028v.14h.028v.112h.028v.253h.028v.112h.028v.169h.028l-.028.084v.786h.028l.028.168.056.028v.056l.056.028.084.253v.393h.028v.421c0,.008-.037.008-.028.056h.028v.112h.028v.169h.028v.084h.028v.084h.028v.084h.028v.056h.028v.084h.028v.084h.028v.056l.084.056v.056H1037v.337h.028l.028.169h.028v.056h.028l.028.2h.028v.112h.028v.758l.056.028v.056l.056.028v.056h.028v.084l.056.028v.084h.028c.04.127-.058.191-.084.253l-.028.281c.035.03.029.05.056.084h.028v.056l.084.028.056.084h.056a2.585,2.585,0,0,1,.056.618l-.028.309h.028v.056l.084.056v.056h.028l.028.084.056.028v.084h.028l-.028.393h.028v.112h.028v.056h.028l.028.365.112.084v.056l.056.028a1.421,1.421,0,0,0,.112.141c-.008.149-.183.486-.112.646l.056.028v.056l.084.056v.337h.028v.056l.112.084v.056h.028v.393h.028v.056l.112.084v.056h.028l-.056.449h.028l.056.168h.028v.056h.028v.112h.028v.056h.028v.056h.028l.084.112h.056l.225.253h.056l.028.056h.084v.028c.123.041.194-.028.281.056.1.074.013.06.056.169h.028v.056h.028v.056l.056.028.169.2h.056l.056.084c.139.076.315-.068.505,0v.028a.643.643,0,0,0,.365.084v-.028h.112v-.028h.337v-.028h.056l.14-.2h.056v-.028h.281v-.028l.168-.056v-.028h.225v.028c.048.007.047-.026.056-.028h.14v-.028l.168-.028v-.028l.112-.028v-.028h.084v-.028h.056v-.028l.168-.028.084-.113h.056v-.028l.7.028a1.041,1.041,0,0,0,.449-.112v-.028h.056V2602l.477.028V2602l.112-.028.112-.14h.056l.056-.084h.056l.028-.056h.056v-.028l.365.028v-.028l.168-.056v-.028h.337l.028-.056h.056l.028-.056h.056l.056-.084.225-.056.056-.084h.056l.056-.084h.084v-.028H1047v-.028l.393.028v-.028h.084v-.028h.084v-.028l.2-.028v-.028h.056v-.028h.056v-.028l.562.028v-.028h.112v-.028h.084v-.028l.112-.028v-.028h.056l.028-.056h.056v-.028h.253v-.028h.2v-.028h.112v-.028h.225v-.028h.056v-.028h.084v-.028h.056v-.028l.2-.028v-.028h.084v-.028h.112v-.028c.178-.054.421.076.534.056v-.028c.073-.018.145.008.2-.028l.056-.112h.056v-.028h.534v.028h.028v-.028h.084l.028-.056.168-.056v-.028H1052v-.028l.505.028v-.028l.14-.028.028-.056h.056v-.028l.421.056a.741.741,0,0,0,.309-.056h.169v-.028h.225v-.028h.533v-.028h.2v-.028h.112v-.028h.477v-.028h.337v-.028h.168v-.028h.056v-.028h.056l.028-.056h.084v-.028c.192-.063.432.051.59.028l.253-.084.505.056v.028l.421-.056v-.028c.021,0,.178.028.253.028a3.59,3.59,0,0,1,.814.028v.028a.968.968,0,0,0,.449-.14l.028-.056h.59v.028l.449-.028v-.028h.14v.028h.2v.028a1.123,1.123,0,0,0,.421-.028h.421v-.028a.074.074,0,0,1,.084.028c.166.041.4-.009.533.028l.618-.028v-.028l.421.056v.028c.1.029.3-.064.365-.084l.59.028v.028l.477-.028v-.028h.421c.008,0,.009.036.056.028v-.028h.225v-.028a.7.7,0,0,1,.562.168.367.367,0,0,0,.225-.056l.028-.056.112-.028v-.028h.056v-.028c.149-.053.243.092.365.056v-.028h.056v-.028l.2-.028v-.028h.562v-.028l.169-.028v-.028h.056v-.028l.169-.028v-.028l.112-.028v-.028c.047-.012.14.06.225.028.143-.054.276-.4.505-.337v.028l.14.028.365-.421c.146.015.2.094.281.168v.028h.056v.028a.526.526,0,0,0,.309-.084v-.028h.084v-.028H1070v-.028l.168-.056v-.028h.056v-.028l.112-.028.225-.253.141-.028v-.028l.337.028v-.028h.084l.056-.084h.056l.028-.056h.056v-.028l.168-.056v-.028l.365-.028v-.028l.112-.028.056-.084h.056v-.028h.225v-.028h.056l.084-.113h.056l.028-.056h.084v-.028h.056v-.028h.225v-.028h.084v-.028l.281-.028v-.028h.084v-.028h.112v-.028l.225-.028v-.028l.112-.028v-.028l.112-.028.028-.056h.056l.028-.056h.056l.056-.084.112-.028v-.028l.084-.028.028-.056.168-.028.084-.112.421-.113.028-.056h.056l.112-.14h.056v-.028l.393.028v-.028h.056v-.028h.084v-.028h.056v-.028l.141-.028v-.028h.084v-.028h.365v-.028l.168-.056v-.028h.056v-.028h.084v-.028h.084v-.028h.056l.056-.084h.056l.028-.056h.056l.028-.056h.056l.028-.056h.056v-.028c.177-.067.439.11.562.084v-.028h.084l.028-.056H1078l.056-.084h.056l.056-.084.112-.028v-.028h.056l.028-.056h.084v-.028h.225v-.028h.141v-.028l.168-.028v-.028l.2.028v-.028l.225-.028v-.028h.14v-.028l.169-.056v-.028h.084v-.028c.133-.043.286.028.393-.028l.028-.056h.056l.056-.084h.056v-.028h.393v.028a.577.577,0,0,0,.253-.056l.449.028v-.028l.2-.028v-.028h.056v-.028h.786a1.735,1.735,0,0,0,.562.028v-.028l.14-.028.028-.056h.056l.028-.056h.056v-.028h.169c.193-.053.516.063.674-.112h.2v.028h.056l.028.056h.056l.028.056h.056v.028c.038.026.049.021.112.028.022.015,0,.036.056.028v-.028h.084v-.028h.056v-.028l.253-.056v-.028h.056v-.028h.056v-.028c.071-.025.132.022.168.028a.447.447,0,0,0,.281-.056h.224v-.028l.141-.028.084-.113.421.028v-.028h.168v-.028h.534a1.108,1.108,0,0,1,.309-.056v.028a.582.582,0,0,0,.281-.056l.309-.028v-.028h.084V2594h.084v-.028h.084v-.028h.056v-.028h.084v-.028a.806.806,0,0,1,.505.084h.112a.071.071,0,0,0,.084.028v-.028h.112v-.028h.056v-.028l.168-.028v-.028h.084v-.028h.084v-.028h.084v-.028h.084v-.028l.7-.028v.028h.2v-.028l.2-.028v-.028l.112-.028v-.028l.281-.028v-.028h.084v-.028c.172-.054.275.095.393.056v-.028l.168-.056v-.028l.477.028v-.028h.169v-.028h.112v-.028H1093v-.028h.056v-.028l.168-.028v-.028c.178-.056.269.106.449.056v-.028h.2v-.028h.281a.862.862,0,0,1,.281-.056v.028h.084v.028h.112v.028s.234-.022.253-.028v-.028h.2v-.028c.04,0-.011.022.028.028h.168v.028h.281l.169-.14.028-.056.112-.028.056-.084h.056v-.028c.1-.039.241.047.309.056s.084-.028.084-.028h.618a1.118,1.118,0,0,0,.421.028v-.028h.084l.477-.421v-.056H1098l.028-.112h.028v-.084h.028v-.084l.056-.028v-.056h.028v-.056h.028q-.014-.379-.028-.758h-.028l-.028-.365a.5.5,0,0,0,.028-.253h-.028v-.056h-.028v-.084h-.028v-.281h-.028v-.168H1098v-.337h-.028v-.112h-.028v-.113h-.028v-.084h-.028v-.141h-.028v-.309h-.028v-.843h-.028v-.084h-.028v-.084h-.028v-.084h-.028v-.393h-.028v-.169h-.028v-.252h-.028l-.056-.169h-.028v-.112h-.028c-.019-.081.074-.273.028-.393h-.028v-.056l-.169-.14-.028-.084-.084-.056q-.014-.183-.028-.365h-.028l-.056-.168h-.028v-.084h-.028q-.014-.224-.028-.449a.366.366,0,0,1-.056-.253h.028q.014-.224.028-.449h-.028v-.084l-.056-.028v-.056h-.028v-.056h-.028q-.014-.2-.028-.393h-.028v-.084h-.028v-.084h-.028v-.112h-.028l-.028-.309h-.028v-.084h-.028v-.056h-.028l.028-.449h-.028v-.084h-.028v-.112h-.028l-.028-.253h-.028v-.056h-.028v-.056l-.056-.028-.028-.14h-.028c-.043-.137.089-.289.056-.393h-.028v-.056l-.056-.028v-.056l-.084-.056-.028-.309h-.028v-.056l-.056-.028v-.056l-.056-.028-.028-.112h-.028l-.056-.169h-.028q-.014-.393-.028-.786h-.028v-.056l-.084-.056v-.056l-.056-.028-.028-.168h-.028v-.084h-.028v-.056h-.028v-.112h-.028v-.337l-.084-.056v-.056l-.056-.028v-.112h-.028l.028-.309a1.328,1.328,0,0,1-.056-.281h.028v-.2h-.028v-.056h-.028v-.056l-.056-.028-.028-.365h-.028v-.056h-.028v-.084h-.028l-.056-.337h-.028l-.028-.112h-.028l-.028-.14h-.028v-.056h-.028v-.421h-.028l-.056-.168h-.028v-.253h-.028l-.028-.112h-.028v-.056l-.084-.056c-.034-.072.02-.221.028-.253l-.028-.505c-.061-.2-.189-.387-.253-.59-.054-.174.086-.269.056-.449l-.112-.337v-.478l-.084-.253h-.028v-.056h-.028v-.113h-.028c-.009-.049.026-.046.028-.056v-.112h.028v-.056l.056-.028.028-.337-.056-.028v-.056l-.056-.056v-.056h-.028v-.056h-.028v-.056l-.056-.028c-.039-.064-.028-.147-.056-.225h-.028v-1.123h-.028v-.084l-.056-.028v-.056l-.056-.028v-.056h-.028v-.674h-.028v-.14h-.028l-.028-.112h-.028a.5.5,0,0,1,.028-.253l-.056-.59h-.028v-.112h-.028v-.056h-.028v-.084h-.028c-.043-.133.017-.265-.056-.365l-.084-.028-.056-.084h-.028l-.028-.281h-.028v-.112h-.028v-.084h-.028v-.14h-.028v-.337h-.028v-.084h-.028v-.084h-.028v-.168h-.028l-.028-.253h-.028c-.05-.165.065-.292,0-.421l-.084-.056-.028-.112H1093c-.079-.214.128-.49.056-.73h-.028l-.028-.2h-.028v-.056h-.028v-.084h-.028v-.056h-.028v-.084h-.028q-.014-.182-.028-.365h-.028v-.112h-.028l-.028-.112h-.028a.437.437,0,0,1,.056-.253l.056-.028v-.393h-.028v-.056l-.056-.028v-.056l-.056-.028-.028-.112h-.028v-.056h-.028v-.056h-.028v-.056h-.028l-.028-.112-.056-.028a1.052,1.052,0,0,0-.084-.112.969.969,0,0,1,.028-.2l.14-.028v-.028c.192-.054.09-.132.141-.309h.028q-.014-.407-.028-.814v-.225h.028v-.2h.028a.879.879,0,0,0-.084-.505l.028-.506h-.028v-.112h-.028v-.056l-.084-.056c-.039-.061-.029-.149-.056-.225h-.028v-.2a1.112,1.112,0,0,1-.056-.281v-.253h-.028l-.028-.14-.056-.028v-.056l-.056-.028-.056-.168-.14-.112-.028-.056h-.056l-.028-.056h-.056l-.225-.281h-.449v.028h-.084v.028h-.084v.028l-.449-.028v.028c-.116.03-.27-.064-.337-.084h-.505v-.028l-.477.056v.028l-.169.056v.028h-.14v-.028c-.214-.057-.153-.262-.253-.421l-.056-.028-.028-.112-.056-.028v-.056l-.056-.028v-.056h-.028l-.028-.253-.084-.056-.028-.084h-.028c-.118-.175-.214-.394-.449-.449a1.34,1.34,0,0,0-.225-.59v-.028h-.084v-.028h-.028v.028c-.189.043-.336-.053-.477,0h-.084l-.028.056a.407.407,0,0,1-.421.14v-.028h-.056l-.028-.056h-.056l-.028-.056h-.084v-.028h-1.32l-.534-.028v.028h-.168l-.028.056-.253.084v.028l-.393-.084v-.028h-.141a2.152,2.152,0,0,0-.618-.056,1.641,1.641,0,0,0-.505.028v.028a.839.839,0,0,1-.534.112v-.028h-.112v-.028c-.073-.036-.237-.158-.365-.112v.028h-.056v.028l-.112.028v.028h-.056v.028h-.112v.028h-.9v.028h-.168v.028h-.253v.028h-.112v.028h-.14v.028l-.562.028v.028l-.169.056v.028h-.084v.028h-.674v-.028h-.14v.028h-.084v.028h-.084v.028h-.281v.028l-.112.028-.028.056-.112.028-.028.056h-.056v.028l-.618.028v.028h-.2v.028h-.2v.028h-.141v.028h-.084v.028h-.084v.028l-.421.028V2556h-.084l-.028.056h-.056v.028h-.281v.028h-.056l-.056.084h-.056v.028l-.421.028v.028l-.112.028v.028h-.056l-.028.056-.168.056-.028.056h-.084v.028h-.056v.028h-.112v.028h-.112v.028l-.225.028v.028h-.056v.028h-.084v.028H1073v.028l-.168.056v.028h-.084v.028h-.084v.028h-.056v.028h-.056v.028h-.056l-.028.056h-.056v.028h-.786v.028h-.056l-.028.056h-.084v.028h-.056v.028h-.169v.028c-.213.063-.459-.057-.646,0h-.14v.028h-.084l-.028.056h-.056v.028l-.253.028v.028l-.168.056v.028h-.084v.028l-.281.028v.028h-.056v.028l-.169.056v.028h-.14v.028h-.056l-.056.084-.14.028v.028h-.056v.028h-.056v.028l-.169.056v.028h-.365V2558h-.056l-.056.084h-.056l-.056.084h-.056v.028l-.168.056v.028h-.393v.028h-.056l-.112.14h-.056l-.028.056h-.056l-.028.056-.253.028v.028h-.084v.028h-.056v.028h-.084v.028l-.309.028v.028h-.112v.028h-.084v.028h-.084v.028h-.084v.028l-.337.056v.028h-.056l-.028.056h-.056l-.112.14h-.056l-.028.056-.14.028-.028.056-.168.056-.028.056h-.056l-.028.056h-.056l-.028.056-.112.028-.056.084h-.056l-.056.056h-.056v.028h-.056v.028h-.056l-.056.084-.168.056-.028.056h-.056v.028h-.056v.028h-.056l-.056.056h-.056l-.112.14h-.056l-.056.084-.253.084c-.024.064,0,.192-.028.281h-.028l-.028.112a.5.5,0,0,0-.2.14v.028h-.056l-.056.084h-.056l-.028.056h-.084v.028h-.225v-.028h-.842v-.028c-.149-.053-.346-.087-.449.028h-.14l-.056-.084h-.056l-.112-.14h-.056v-.028h-.309v-.028h-.056v-.028l-.168-.056v-.028h-.056v-.028h-.084v-.028l-.477-.028v.028h-.449v-.028h-.084l-.028-.056h-.056v-.028h-.225l-.028.056c-.033.019-.308.1-.393.056v-.028c-.269.008-.411.044-.505-.141h-.505v-.028h-.084v-.028h-.084v-.028h-.112v-.028h-.562v-.028h-.2v-.028h-.141v-.028h-.14v-.028h-.084v-.028h-.112v-.028l-.646.028c-.044.014-.145.079-.225.056v-.028l-.168-.028v-.028h-.084v-.028h-.056v-.028h-.084v-.028c-.107-.03-.343.14-.421.168h-.168v.028h-.169v.028c-.235.067-.362-.122-.59-.056v.028h-.14v.028h-.084v.028h-.14v.028h-.14v.028h-.14v.028h-.365v-.028l-1.1-.028v.028h-.084v.028h-.056v.028l-.534.028v.028h-.084v.028h-.112v.028l-.618.056v.028l-.281.028v.028l-.112.028v.028c-.1.034-.252-.042-.309-.056a.575.575,0,0,0-.253.056h-.9v-.028h-.169v.028h-.2v.028h-.112v.028h-.084v.028h-.084v.028H1047v.028l-.365.056h-.225v.028h-.112V2561h-.056v.028h-.084v.028l-.421.028v.028h-.084l-.028.056-.253.084h-.169c-.063.02-.289.121-.393.084v-.028h-.056v-.028h-.056l-.028-.056-.169-.028v-.028a.537.537,0,0,0-.253.084l-.028.056h-.056v.028h-.056v.028h-.056l-.056.056h-.056l-.056.084h-.056l-.084.112h-.056l-.028.056-.253.084v.028h-.056v.028h-.056v.028h-.056v.028h-.056v.028h-.056v.028l-.112.028v.028h-.056v.028l-.169.028v.028l-.112.028v.028l-.421.028-.028.056h-.056l-.056.084-.168.14-.028.056h-.056l-.028.056-.112.028v.028l-.674.028v.028h-.084l-.028.056-.112.028v.028l-.112.028v.028h-.084v.028h-.056v.028h-.084v.028h-.056v.028l-.365.028V2563l-.169.056v.028h-.365v.028l-.253.056v.028l-.112.028v.028h-.084v.028h-.309v.028h-.112v.028c-.115.035-.2-.036-.253,0h-.112l-.028.056h-.056v.028l-.112.084v.056l-.112.084-.028.056h-.056l-.056.084-.112.028-.028.056-.112.028v.028h-.056l-.028.056-.449.14c-.04.149-.1.115-.225.169v.028h-.084l-.028.056h-.056l-.056.084h-.056l-.028.056-.112.028-.028.056-.112.028v.028h-.112v.028h-.112v.028h-.056v.028h-.056l-.028.056h-.056l-.028.056-.168.14v.056l-.084.056v.056l-.365.281c-.066.072-.079.146-.168.2l-.084.871h-.028v.084h-.028l-.084.225h.028v.084l.056.028v.056l.056.028v.056h.028l.028.281h.028v.112h.028l.028.113h.028a.623.623,0,0,1-.028.309V2568h-.028c-.041.16-.187.2-.337.253v.028h-.421c-.008,0-.008-.039-.056-.028v.028l-.14.028-.028.056-.2.056v.028h-.056l-.056.056h-.056l-.028.056-.2.028v.028h-.056v.028l-.084.028v.056l-.056.028v.028h-.056l-.168.2-.112.028-.028.056h-.056l-.028.056-.2.168v.421h.028l.028.2h.028v.056h.028l.028.168h.028v.056h.028v.084h.028v.056h.028v.084h.028l-.028.421h.028V2571h.028v.141h.028v.59h-.028v.168h.028l-.028.478.056.028v.056h.028l.028.112h.028v.225h-.028l.056.59h.028v.056h.028l.056.168h.028v.309h.028V2574h.028v.084Zm55.827-15.782a2.717,2.717,0,0,0,.73-.028,1.461,1.461,0,0,0,.59.028.343.343,0,0,1,.281.056c.109.032.037.007.084.084h.028v.056h.028v.084h.028v.309h.028v.056l.056.028v.084h.028v.056h.028v.112h.028v.084h.028v.084h.028v.084h.028v.113h.028v.112h.028l.028.112.056.028v.056l.056.028v.618c-.011.036-.094.171-.084.225h.028l.056.253h.028l-.028.365a3.525,3.525,0,0,1,0,1.151l.056.421c0,.054-.028.056-.028.056v.59h-.028l-.028.365h.028l.084.253.056.028v.056h.028c.047.125-.036.27-.056.337a.627.627,0,0,0,.056.365v.224l.141.113c.086.154-.062.406,0,.618h.028v.14h.028v.084h.028v.169h.028v.084h.028v.084h.028v.084h.028v.281h.028v.112h.028v.084h.028q.028.351.056.7h.028l.028.169h.028l.028.112h.028v.309h.028l.028.113h.028v.112h.028q.014.183.028.365h.028v.056l.056.028v.056l.056.028v.056h.028c.058.139-.021.353.028.505h.028v.084h.028v.056h.028v.084h.028v.365l.028.309h.028v.506c.046.151.123.294.168.449v.506h.028v.084h.028v.056h.028v.084h.028q.014.393.028.786h-.028v.421c.039.128.1.286.14.421v.337h.028q-.014.407-.028.814h.028v.056l.084.056.028.2h.028v.056l.056.028v.056h.028l.056.169h.028v.365h.028v.084h.028l.028.112h.028l.028.225h.028v.758h.028l.028.14.168.14.084.253h.028v.056h.028v.084h.028l.028.113h.028v.421h.028v.506h.028v.112h.028v.14c.041.128.1.3.14.421l.028.2.056.028.028.112.084.056.028.337h.028v.112h.028v.056h.028l.028.168h.028v.056h.028v.477h.028l.028.112.056.028v.056l.056.056v.056h.028v.056h.028v.056h.028l-.056.365h.028v.084l.056.028v.056h.028l.028.309h.028v.084h.028v.084h.028v.14h.028v.112h.028v.112h.028v.084h.028v.112l.056.028v.056h.028v.056h.028v.337h.028l.056.169h.028q.014.309.028.618h.028l.028.309h.028l.028.112h.028c.08.22-.153.345-.112.506h.028l.028.14.084.056v.056l.056.028.028.112h.028v.225h.028v.084h.028v.056h.028l.056.169h.028l-.028.281h.028v.056l.056.028v.056l.084.056v.084h.028v.421h.028v.084h.028l.028.112h.028c.063.173-.065.33,0,.505h.028v.056h.028l.028.168h.028v.056h.028v.113h.028c.055.179-.04.475.028.646h.028v.056h.028l.056.168h.028v.618h.028v.927a.829.829,0,0,1,.056.449h-.028v.084h-.028v.2h-.028l-.028.112-.056.028v.056l-.056.028-.168.2-1.011-.028v.028l-.449.028h-.281v.028l-.365.028v.028h-.028v-.028h-.309c-.008,0-.008-.037-.056-.028v.028a.963.963,0,0,1-.73-.141.339.339,0,0,0-.281.141l-.028.056h-.056v.028h-.056v.028h-.084v.028h-.056v.028h-.084v.028h-.534v.028h-.14v.028h-.14v.028h-.084v.028l-.365-.028v.028h-.112v.028h-.084v.028h-.112v.028l-.225.028v.028h-.084v.028c-.09.027-.227-.042-.281-.056l-.393.028v.028l-.168.028v.028h-.056v.028l-.141.028-.028.056-.14.028v.028l-.365-.084c-.01,0-.006-.039-.056-.028v.028l-.169.028v.028h-.056v.028h-.141v.028l-.309.028v.028h-.533v.028h-.112v.028h-.477v.028h-.084v.028l-.112.028v.028l-.281-.028-.028-.056a1.794,1.794,0,0,0-.562-.028v.028l-.169.056v.028h-.056v.028h-.112v.028h-.084v.028h-.056v.028h-.056l-.056.084-.168-.028h-.449v-.028h-.169a1.624,1.624,0,0,0-.225-.056v.028l-.168.056v.028l-.14.028-.028.056h-.056v.028a.5.5,0,0,1-.253-.028l-.365.028c-.039-.007-.095-.05-.168-.028v.028l-.225.028v.028h-.084v.028h-.2v.028h-.084v.028h-.056v.028h-.084v.028h-.87v.028l-.281.028v.028l-.112.028v.028h-.084v.028h-.758v.028h-.084v.028h-.084v.028l-.477.028v.028h-.112l-.112.14-.112.028v.028h-.309v.028h-.084v.028h-.056v.028h-.084v.028h-.056v.028h-.168v.028h-.084v.028h-.084v.028l-.618.084v.028h-.084v.028h-.084v.028h-.084v.028h-.084v.028h-.14v.028h-.112v.028h-.084v.028h-.084v.028h-.084v.028h-.056l-.028.056-.253.084v.028c-.022,0-.1-.053-.169-.028v.028h-.056l-.056.084h-.112v.028l-.253.028-.028.056h-.056v.028l-.112.028v.028l-.253.028v.028l-.112.028-.028.056h-.056v.028h-.084v.028h-.084v.028h-.084v.028h-.084v.028h-.056v.028l-.14.028v.028h-.225v.028h-.056l-.056.084-.084.028-.028.056h-.084v.028h-.056v.028l-.168.028v.028l-.253.028v.028h-.056v.028l-.169.028v.028h-.056v.028h-.056l-.028.056h-.056l-.056.056h-.056v.028h-.056l-.028.056-.14.028v.028h-.2v.028h-.112v.028h-.168v.028l-.112.028v.028l-.281.084-.028.056h-.056v.028l-.169-.028-.028.056-.112.028-.028.056h-.084l-.028.056h-.084v.028h-.056v.028h-.056l-.028.056h-.056l-.028.056h-.056v.028c-.034-.006-.051-.05-.112-.028v.028l-.225.084-.028-.084.562-.281.028-.056.084-.028v-.028h.056l.056-.056h.056v-.028h.056l.028-.056h.056l.028-.056h.056l.056-.056h.056v-.028l.112-.028v-.028l.112-.028v-.028h.084v-.028l.112-.028v-.028l.14-.028v-.028h.084v-.028h.056l.028-.056.112-.028.028-.056.141-.028.168-.2.168-.056.028-.056h.056l.056-.084h.056l.028-.056.112-.028v-.028l.168-.056v-.028h.084v-.028h.112v-.028h.056v-.028l.169-.028v-.028h.056v-.028h.084v-.028h.084v-.028h.084v-.028h.056v-.028h.056l.028-.056h.056l.084-.112h.056l.028-.056.084-.028v-.028h.056v-.028l.112-.028v-.028h.084v-.028h.084v-.028h.056v-.028c.221-.1.589-.055.814-.14h.084v-.028h.056l.028-.056.253-.028.59-.253.253-.028v-.028h.056v-.028l.168-.056v-.028l.534-.028v-.028h.056l.056-.084h.056v-.028l.477-.112v-.028h.084v-.028h.056v-.028l.112-.028v-.028h.084v-.028l.505-.056v-.028h.112v-.028h.112v-.028h.112v-.028h.084v-.028h.112v-.028h.056v-.028l.168-.028v-.028l.281-.028v-.028h.056l.112-.14.112-.028v-.028l.393.028v-.028h.056v-.028h.056v-.028h.112v-.028h.421v-.028h.056l.028-.056.14-.028v-.028c.135-.046.239.045.365,0v-.028h.056v-.028l.14-.028v-.028l.112-.028v-.028l.337-.028.028-.056h.056v-.028l.112-.028v-.028h.112v-.028h.112v-.028l.281-.028v-.028h.112v-.028h.168v-.028h.056v-.028l.253-.084v-.028h.112v-.028l.59-.028c.061.018.171.094.281.056v-.028h.056v-.028h.084v-.028h.056v-.028h.112v-.028l.281-.028.028-.056h.056v-.028l.112-.028v-.028a.85.85,0,0,1,.505.084l.281.028c.049-.056.065-.024.112-.056l.168-.225h.225v.028h.056l.028.056a.539.539,0,0,0,.309.028v-.028h.056l.028-.056h.056l.028-.056.309-.112h.084v-.028l.112-.028v-.028c.126-.049.2.05.337,0v-.028l.112-.028v-.028h.421v-.028h.084v-.028l.112-.028v-.028h.056v-.028l.253-.084v-.028h.056v-.028l.59.028v-.028h.084v-.028h.056v-.028h.084v-.028h.056v-.028h.112v-.028h.393a3.78,3.78,0,0,0,.927-.056.555.555,0,0,1,.253.028h.112v-.028h.365v.028l.281-.084v.028h.084l.028.056h.056l.028.056h.084v.028a1.2,1.2,0,0,0,.646-.084c.109-.029.084-.063.14-.14l.112-.084c.044-.059-.028-.028.056-.084a.988.988,0,0,1,.056-.253.385.385,0,0,0-.028-.2c-.032-.192.016-.437-.028-.59v-.225h-.028l-.028-.112-.056-.028v-.056h-.028v-.365h-.028v-.084l-.084-.056v-.056h-.028l-.028-.309h-.028v-.084h-.028l-.056-.168h-.028v-.225h-.028v-.084h-.028v-.056h-.028l.028-.449h-.028v-.084h-.028v-.112h-.028l-.028-.112h-.028v-.056h-.028l-.028-.084-.056-.028c-.052-.115.03-.428-.028-.562h-.028l-.028-.113h-.028v-.056l-.056-.028v-.056l-.14-.112v-.478a1.073,1.073,0,0,0-.084-.421h-.028l.028-.281h-.028l-.028-.112h-.028v-.056l-.056-.028v-.056l-.084-.056v-.084h-.028a.07.07,0,0,1,.028-.084v-.141l.056-.028a.445.445,0,0,0,.028-.224h-.028l-.028-.113h-.028v-.112h-.028v-.73h-.028l-.028-.112h-.028v-.084h-.028v-.056h-.028v-.084h-.028v-.084h-.028v-.112h-.028v-.365h.028l.028-.112h.028v-.421h-.028l-.028-.253h-.028v-.056h-.028v-.084h-.028v-.618h-.028l-.028-.112-.056-.028-.028-.14H1093l-.056-.421h.028v-.168h-.028v-.112h-.028V2579h-.028v-.084h-.028q-.014-.393-.028-.786h-.028v-.056l-.084-.056-.028-.113h-.028v-.309h-.028l-.056-.168h-.028v-.084h-.028v-.618h.028v-.112h-.028v-.084l-.084-.056-.028-.112h-.028v-.393h-.028v-.168h-.028v-.084h-.028v-.674h-.028v-.084h-.028v-.112h-.028v-.646h-.028v-.084h-.028v-.084h-.028v-.084h-.028v-.056h-.028v-.084h-.028v-.056h-.028v-.056h-.028l-.056-.168h-.028v-.2h-.028v-.2h.028v-.393h-.028v-.056h-.028v-.056l-.056-.028v-.084h-.028q.014-.183.028-.365h-.028v-.225h-.028v-.281h-.028c-.046-.162.013-.417-.028-.562v-.337h-.028v-.112h-.028v-.112h-.028v-.449h-.028v-.112h-.028v-.056h-.028v-.084h-.028v-.14h-.028v-.112h-.028v-.169h-.028v-.168h.028l-.028-.253h-.028l-.056-.168h-.028v-.168h-.028v-.14h-.028v-.281h-.028v-.168h-.028v-.084h-.028v-.112h-.028v-.421h-.028l-.028-.113h-.028v-.056l-.056-.028v-.309h-.028l-.056-.168h-.028v-.084h-.028v-.2h-.028v-.056l-.14-.113c-.04-.083.024-.2.028-.253l-.028-.59v-.281h-.028v-.056h-.028a2.161,2.161,0,0,1-.056-.225h-.028l-.056-.393h-.028v-.056h-.028v-.056l-.056-.028v-.056h-.028v-.253h-.028v-.056l-.056-.028v-.084h-.028q-.028-.393-.056-.786h-.028v-.056h-.028V2563l-.056-.028v-.084h-.028v-.421l-.056-.028v-.056l-.056-.028-.028-.168h-.028l.028-.393h-.028v-.084h-.028l-.056-.168h-.028v-.365h-.028V2561h-.028v-.309h-.028v-.084h-.028v-.056h-.028l-.056-.281h-.028v-.084h-.028v-.084h-.028l-.056-.674v-.309l-.056-.028v-.056l-.084-.056v-.112h-.028c-.055-.175.04-.277-.084-.393A.441.441,0,0,1,1089.179,2558.307Zm-25.864,4.661a2.293,2.293,0,0,1,.028-.59c.113-.053.2-.139.309-.2.041-.023.114-.021.14-.056l.056-.253h.028l.056-.169h.028v-.056l.14-.112.028-.056.084-.028.225-.253.14-.112.028-.084.253-.056.056-.084.14-.112.028-.084h.056l.084-.113h.056l.028-.056h.084v-.028h.056v-.028h.056l.028-.056h.056v-.028h.056v-.028l.253-.056v-.028h.056l.028-.056.112-.028.056-.084.112-.028.028-.056h.056v-.028h.084v-.028h.056v-.028l.169-.056v-.028l.421-.056v-.028h.056l.028-.056h.056l.028-.056h.056l.056-.084.112-.028.028-.056h.056v-.028a1.106,1.106,0,0,1,.421-.028v.028h.225v-.028h.084v-.028h.056l.028-.056.168-.056v-.028h.141v-.028h.056v-.028h.056l.056-.084h.056l.028-.056h.056l.056-.084h.056v-.028h.393a1.256,1.256,0,0,0,.309-.309l.7-.028v-.028l.141-.028.028-.056h.084v-.028h.056v-.028c.11-.038.2.039.253.056a1.486,1.486,0,0,0,.365,0l.056-.084a1,1,0,0,1,.365-.253h.309v-.028h.028a.078.078,0,0,0,.084.028v-.028h.2v-.028h.084v-.028h.056v-.028l.253-.028v-.028h.421v-.028h.112v-.028h.168v-.028h.169v-.028l.112-.028.056-.084h.056l.028-.056h.056v-.028h.168v-.028h.112v-.028h.281l.141-.168h.056l.028-.056.225-.028v-.028h.084l.028-.056h.084v-.028l.393-.028v-.028h.084v-.028h.056v-.028l.169-.028v-.028l.309-.028v-.028h.056l.056-.084h.056v-.028l1.123-.028h.393v-.028H1078l.028-.056.112-.028v-.028h.449l.112-.14h.056v-.028l.421.028v-.028l.253-.028v-.028h.056v-.028l.168-.028v-.028h.365v-.028h.056v-.028h.056l.028-.056.365.028v.028a.891.891,0,0,0,.505-.084c.255-.077.43.132.618-.084l.225.028.028.056h.084v.028c.074.019.207-.07.253-.084h.281v.028c.207.057.4-.068.59,0v.028l.168.056v.028a1.572,1.572,0,0,0,.477-.112.981.981,0,0,1,.505.056h.14v.028h.056v.028c.107.032.238-.089.309-.112h.393v.028l.871.028h.028v-.028h.281v-.028h.225a.683.683,0,0,1,.2.112l.028.056.14.028c.043.032.055.144.084.2h.028v.056l.056.028.084.253c.043.112.129.338.028.449.01.258.074.143.2.253l.112.14.056.028v.056l.112.084v.056l.056.028.028.113h.028l-.028.168h-.028v.141h-.028v.028h.028v.14h.028v.056h.028v.112h.028v.309l.084.056v.056h.028l.056.421h.028v.084h.028l-.028.533h.028v.056h.028l.028.113.056.028v.056h.028l.028.113h.028v.112h.028v.2a.673.673,0,0,1,.056.393h-.028a1.011,1.011,0,0,0-.028.393h.028v.056h.028v.056h.028v.056h.028v.084h.028v.084h.028v.281h.028v.056l.056.028v.084h.028v.309h.028v.2h.028v.449h.028l.028.225h.028v.084h.028v.084h.028v.084h.028v.084h.028v.056h.028v.084h.028l.056.674h.028v.112h.028v.084h.028v.084h.028v.112h.028c.046.148-.021.342.028.477h.028v.084h.028l.056.168h.028l.028.112.056.028v.056h.028q.028.365.056.73c-.005.061-.055.111-.028.2h.028v.084h.028l.028.112h.028l.028.393h.028v.056h.028v.084h.028l.056.168h.028v.281h.028v.056l.112.084v.309h.028v.112h.028v.309h.028v.281h.028v.14h.028v.112h.028v.112h.028l-.028.365h.028v.084h.028l.056.168h.028v.618h.028l.028.2.056.028v.056l.056.028v.056h.028a.487.487,0,0,1-.028.253q.014.337.028.674h.028v.084h.028l.028.225h.028v.393h.028v.2h.028v.281h.028v.084h.028v.056h.028l.028.168h.028q-.014.351-.028.7h.028l.028.112.056.028v.056h.028l.028.758c-.006.038-.047.071-.028.14h.028l.028.2h.028v.056h.028v.365h.028l.028.168h.028v.084h.028v.084H1091v.084h.028v.084h.028v.112h.028a1.859,1.859,0,0,1-.056.618H1091v.168h.028l.028.112h.028v.056l.112.084v.056l.056.028.028.281h.028v.084h.028v.112h.028q.014.519.028,1.039v.393h.028l.028.112.056.028v.056l.056.028q.014.309.028.618l.084.056v.056h.028v.14h-.028l.028.59h.028l.056.168h.028v.056h.028l.028.337h.028v.056h.028v.056l.056.028c.043.107-.066.146-.084.2a.432.432,0,0,0,.028.225h.028l.028.337h.028v.056l.056.028v.056l.056.028.028.112h.028q.014.281.028.562a1.574,1.574,0,0,0-.056.225h.028l.028.168.084.056v.056h.028v.646h.028l-.028.59h.028v.2h.028V2586h.028l.028.168h.028v.056h.028v.393h.028v.056l.084.056v.056h.028c.043.108-.017.2.056.281.072.122.253.146.393.2.017.04.01.063.028.112h.028v.281h.028v.168h.028v.112h.028v.084h.028v.14h.028v.113h.028v.112h.028v.112h.028v.084h.028v.084h.028l.028.337h-.028l-.028.084a3.08,3.08,0,0,1-.646.084h-.534v.028h-.056l-.028.056-.112.028v.028h-.253v-.028a.074.074,0,0,0-.084.028h-.505v.028l-.112.028-.056.084h-.056v.028h-.618v.028l-.14.028-.056.084h-.056v.028l-.477-.028v.028h-.056l-.084.112h-.084v.028h-.084v.028h-.084v.028h-.084v.028c-.161.051-.315-.089-.421-.056v.028h-.056l-.028.056-.225.028v.028h-.084v.028h-.056v.028l-.141.028v.028h-.084v.028h-.225v.028c-.047.008-.049-.027-.056-.028h-.505v.028h-.056v.028h-.084v.028h-.084v.028h-.112v.028h-.112v.028l-.646.028v.028h-.141v.028l-.112.028v.028h-.309v.028l-.253.028v.028l-.337-.056v.028l-.168.056v.028l-.112.028-.056.084c-.111.073-.217.012-.337.056v.028l-.168.056v.028h-.084v.028h-.169v.028h-.14v.028h-.281v.028h-.056v.028l-.281.028v.028h-.309v.028h-.112l-.028.056h-.056l-.028.056-.309.028v.028h-.112v.028h-.112v.028l-.168.056v.028h-.253v.028h-.056l-.056.084-.14.028v.028a.072.072,0,0,1-.084-.028h-.393v.028l-.14.028-.056.084h-.056v.028h-.169v.028l-.112.028v.028h-.056l-.028.056-.112.028-.028.056h-.056l-.028.056h-.056v.028h-.281v.028h-.056l-.028.056h-.056l-.056.056h-.056v.028h-.056v.028h-.056l-.028.056h-.056v.028h-.056v.028h-.112v.028h-.056l-.056.084h-.056l-.056.084-.141.028v.028l-.59.056h-.253v.028h-.112v.028h-.056v.028l-.169.056v.028l-.168.056v.028h-.084v.028h-.337v.028h-.056l-.056.084-.112.028v.028l-.59.084v.028h-.084v.028l-.169.056v.028h-.056v.028l-.168.056v.028h-.056v.028l-.505.112v.028h-.056l-.056.084h-.056v.028h-.084v.028l-.14.028-.028.056h-.056l-.056.084h-.393v.028l-.112.028-.028.056-.112.028v.028l-.393-.028v.028c-.091.044-.016-.019-.084.056h-.028v.056l-.112.084v.028h-.056l-.028.056h-.056l-.14.168h-.084v.028h-.056l-.028.056h-.056l-.028.056-.253.084-.056.084h-.056l-.028.056h-.056v.028h-.056v.028h-.084v.028h-.056v.028h-.084v.028l-.168.056v.028h-.056v.028h-.084v.028l-.112.028-.028.056h-.056v.028h-.056v.028h-.056v.028h-.056l-.056.056h-.056l-.056.084h-.056v.028h-.056v.028l-.281.084-.028.056-.168.14-.028.084h-.056l-.056.084h-.056l-.028.056h-.056l-.084.112h-.056l-.028.056h-.056l-.281.309h-.056l-.056.084-.084.028-.028.056h-.056l-.028.056h-.056l-.056.084h-.056v.028c-.057.032-.062,0-.112.056-.161,0-.121-.009-.2-.084l-.084-.056c-.064-.112.013-.311-.028-.449h-.028v-.14h-.028a.669.669,0,0,1-.084-.393h.028v-.084l.056-.028c.033-.053,0-.07.056-.112a.3.3,0,0,0-.084-.2l-.056-.028-.028-.169h-.028v-.084h-.028q.014-.323.028-.646h-.028v-.084h-.028v-.056h-.028v-.056l-.056-.028v-.056l-.084-.056-.028-.14h-.028a.513.513,0,0,1,.028-.253v-1.011h-.028v-.084h-.028l-.028-.112h-.028l-.028-.168h-.028l-.028-.337h-.028l-.028-.169h-.028v-.056h-.028l-.056-.7h.028v-.309a.373.373,0,0,1-.028-.281h.028c.047-.169-.074-.226-.112-.309l-.056-.281h-.028l-.028-.112-.084-.056c-.057-.123.1-.274.14-.309a.748.748,0,0,1,.028-.112h-.028c-.026-.094-.024-.134-.056-.225h-.028l.028-.365h-.028l-.028-.421h-.028v-.365h-.028l-.056-.168h-.028v-.14h-.028l-.028-.281h-.028l.028-.421h-.028v-.084h-.028l-.028-.112h-.028v-.056h-.028v-.084c-.082-.2-.132-.481-.2-.7v-.562h-.028v-.056h-.028v-.056l-.056-.028v-.084h-.028l-.056-.169h-.028v-.337h-.028v-.084h-.028v-.843h-.028v-.056l-.112-.084-.028-.393h.028v-.14h-.028v-.084h-.028v-.084h-.028v-.2h-.028c-.008-.047.027-.05.028-.056v-.449h-.028l-.028-.281v-.421h-.028v-.113h-.028v-.14h-.028v-.225h-.028l-.028-.112h-.028v-.14h-.028v-.112h-.028v-.14h-.028c-.008-.047.027-.05.028-.056l-.028-.337h-.028v-.084h-.028v-.056h-.028v-.056l-.056-.028-.028-.112h-.028v-.056h-.028v-.225h.028l-.028-.59h-.028v-.084h-.028v-.056h-.028l-.056-.168h-.028v-.309h-.028v-.113h-.028l-.056-.168h-.028v-.477h-.028v-.112h-.028v-.084h-.028v-.084h-.028l-.056-.337h-.028v-.056h-.028l-.056-.168h-.028v-.814h-.028v-.14h-.028v-.056h-.028l-.028-.112h-.028v-.056h-.028l-.028-.562h-.028l-.056-.168h-.028q-.014-.407-.028-.814h-.028l-.028-.112-.056-.028v-.056l-.056-.028-.141-.168.056-.281h.028v-.393l.028-.084h-.028l-.056-.253h-.028v-.253h-.028v-.084H1065l-.028-.112h-.028v-.084h-.028v-.056h-.028v-.056l-.056-.028v-.056l-.084-.056q.014-.379.028-.758c0-.008.037-.008.028-.056h-.028v-.14l-.056-.028v-.056l-.112-.084v-.084h-.028v-.281l-.084-.253h-.028v-.056h-.028v-.478h-.028l-.028-.112-.056-.028-.028-.14h-.028l.028-1.039h-.028l-.028-.14-.056-.028v-.056l-.056-.028v-.281h-.028v-.084h-.028v-.084h-.028v-.084h-.028l-.028-.253h-.028l-.028-.674h-.028v-.084h-.028v-.14c-.064-.2-.108-.469-.169-.674l-.028-.506h-.028v-.084h-.028v-.056h-.028v-.056l-.056-.028-.028-.112h-.028v-.337h-.028l-.056-.168h-.028l-.028-.225h-.028a2.655,2.655,0,0,1,.028-.7A.391.391,0,0,0,1063.316,2562.968Zm-26.931,3.089h.056l.028-.084.084-.056v-.056l.056-.028v-.056h.028l.084-.112h.056l.028-.056.084-.028v-.028h.056l.056-.084.084-.028.028-.056.309-.112v-.028h.056l.028-.056h.056v-.028l.421-.028v-.028a.253.253,0,0,1,.112-.056c.027-.1.094-.118.14-.2a.848.848,0,0,0,.618-.225l.056-.084h.112v-.028l.2-.028v-.028l.534-.028c.008,0,.008.038.056.028v-.028l.169-.028v-.028l.168-.056v-.028l.337.028v-.028l.2-.028v-.028h.168v-.028h.084l.028-.056h.056v-.028h.056v-.028l.309-.028.028-.056h.056l.028-.056h.056v-.028l.365-.028.028-.056.084-.028.084-.113.421-.14.028-.056h.056l.028-.056h.056l.028-.056h.056l.028-.056h.056v-.028h.365v-.028h.084l.028-.056h.056v-.028h.056v-.028h.056v-.028h.084v-.028h.084v-.028h.084v-.028h.056l.028-.056.14-.028v-.028l.449-.028v-.028l.112-.028.169-.2h.056v-.028h.056v-.028h.084v-.028h.056v-.028l.168-.028v-.028h.449v-.028h.084v-.028l.168-.056v-.028h.169c.128-.04.286-.1.421-.14h.225v-.028c.047-.008.049.027.056.028h.169a.9.9,0,0,0,.477.056l.449-.14.056-.084h.225v-.028l.674.028v-.028l.225-.028.028-.056.112-.028.028-.056.337.028a1.483,1.483,0,0,0,.505-.056h.421v-.028h.084v-.028h.056v-.028h.168v-.028h.2v-.028h.225v-.028h.168v-.028l.421.028v-.028l.337-.028v-.028h.112v-.028l.281-.028.225-.028v.028h.084v.028l.112.028v.028h.309v.028a.9.9,0,0,0,.534-.084l.028-.056.112-.028v-.028h1.91v.028h.056l.028.056h.056l.028.056h.056l.028.056h.169v-.028l.618-.028v.028l.281.056v.028h.056v.028h.084v.028l1.1.028v.028h.309v.028h.337v.028h.337v.028l.337.028.112.14h.983v.028h.056v.028h.056l.028.056.59-.028v.028h.084v.028l.112.028v.028h.084v.028h.084v.028l.084.028c.039.207.056.453.112.646v.2h.028v.084h.028v.084h.028a.417.417,0,0,1-.056.309h-.028l-.028.169c0,.012-.036.005-.028.056h.028v.2h.028l.056.168h.028v.056h.028v.084h.028c.053.163-.051.294,0,.421h.028v.056l.056.028v.084h.028v.2h.028l.028.112h.028v.056l.056.028v.084h.028v.112h-.028q-.014.267-.028.533h.028v.2h.028v.168h.028v.084h.028v.084h.028v.168h.028v.056h.028l.028.168h.028v.112h.028v.056h.028v.056h.028l.056.168h.028v.309h.028a.519.519,0,0,1-.056.477.262.262,0,0,0,.084.225l.056.028v.056h.028v.786h.028v.112h.028v.084h.028v.112h.028v.14c.008.039.03-.011.028.028h-.028c-.038.2,0,.383.14.421a2.025,2.025,0,0,1,.056.59l-.028.281h.028l.028.225h.028v.084h.028v.168c.084.285.08.679.168.955q.014.309.028.618h.028l.028.112.084.056.028.112h.028c.045.128-.124.374-.056.562h.028V2574h.028v.056h.028v.056h.028v.084h.028v.084h.028q.014.534.028,1.067h.028l.028.14.084.056v.056l.056.028.084.253h.028v.646h.028v.084h.028v.084h.028v.084h.028l.056.281h.028v.056h.028l-.028.309h.028v.112h.028v.084h.028l.028.281h.028v.056h.028v.084h.028v.056h.028v.084h.028v.084h.028v.112h.028c.045.132-.017.383.028.506h.028l.028.112.056.028v.056h.028v.056h.028v.084h.028v.084h.028l.028.253h.028l-.056.562H1065l.028.14.056.028v.056h.028l.028.646h.028l.028.112.056.028v.056l.056.028v.056h.028v.112h.028v.562h-.028v.14h.028v.084h.028v.056h.028l.028.2h.028v.084h.028v.084h.028v.084h.028v.112h.028v.337h-.028v.225h-.028v.112h-.028v.168h-.028v.112h.028c.008.056-.057.133-.028.225h.028v.084h.028l.028.112h.028v.084h.028v.337l.056.028v.056h.028v.056h.028v.2h-.028v.028h.028v.113h.028v.056h.028c.009.159.019.318.028.477h.028l.056.281h.028v.084h.028l.028.225.056.028.028.169h.028q.014.295.028.59h.028v.056h.028l.084.7v.2h.028v.084h.028l.028.112h.028v.112a1.6,1.6,0,0,1,.056.674h-.028v.168h-.028c.008.306.154.182.225.393v.309h.028v.309c0,.008.036.009.028.056h-.028v.2h.028v.112h.028v.084h.028v.112h.028v.253h.028v.14h.028v.112h.028v.14h.028l-.028.253h.028q.014.337.028.674a.668.668,0,0,0-.028.309h.028v.084h.028l.028.225h.028v.309h.028v.112h.028v.2h.028v.2l.169.449-.028.477h.028v.056l.056.028v.056l.056.028a.538.538,0,0,1-.028.281.734.734,0,0,0,.056.393l.056.028c.056.119-.055.243,0,.393h.028l.056.168h.028c.039.109-.04.2-.056.253l.028.281h.028v.225h.028a1.2,1.2,0,0,1-.028.449v.112h-.028c-.093.129-.249.146-.421.2v.028l-.253-.084v-.028h-.281v.028l-.421-.028h-.253v-.028h-.225v-.028h-.112v-.028l-.112-.028v-.028h-.084v-.028h-.14v-.028l-.674.028v-.028h-.056l-.028-.056h-.056l-.028-.056-.112-.028v-.028c-.118-.042-.245.037-.309.056h-.337v.028a1.355,1.355,0,0,1-.646-.084h-.449v-.028l-.168-.028V2597h-.056v-.028l-.337-.056v-.028h-.056v-.028h-.084v-.028h-.056v-.028l-.14-.028v-.028h-.112v-.028h-.112v-.028h-.084v-.028h-.112v-.028h-.281l-.028-.056h-.056v-.028l-.112-.028v-.028h-.084v-.028c-.086-.042-.145-.038-.2-.112l-.2.028v.028h-.056v.028h-.309c-.12-.006-.238-.112-.393-.056v.028l-.112.028v.028h-.084v.028h-.084v.028h-.2v.028h-.084v.028l-.112.028v.028c-.2.071-.412-.1-.534-.14h-.393v-.028h-.112v-.028h-.14v-.028a1.178,1.178,0,0,0-.449.056v.028l-.449.028v.028l-.14.028-.028.056h-.14v.028l-.309-.028h-.9v-.028l-.169-.056v-.028l-.2-.028v-.028h-.112v-.028l-.168.028-.674.028h-.14a.564.564,0,0,0-.337-.056v.028h-.141v.028h-.168v.028h-.084v.028h-.056v.028l-.2.028v.028h-.225v-.028s-.235.022-.253.028v.028h-.112v.028h-.084v.028H1052v.028h-.112v.028l-.225.028v.028h-.056v.028h-.056v.028l-.168.056v.028h-.365V2597h-.084v.028l-.112.028v.028h-.084v.028h-.421v.028h-.141v.028h-.112v.028H1050v.028h-.084v.028c-.208.067-.348-.129-.505-.084v.028h-.084v.028l-.112.028v.028h-.253v.028l-.112.028-.028.056h-.056v.028h-.112v.028h-.562v.028h-.084l-.028.056h-.056v.028l-.393.028c-.161.047-.374.094-.534.14l-.449-.028v.028h-.112v.028h-.084v.028h-.056v.028h-.084v.028l-.112.028v.028h-.084v.028l-.112.028v.028l-.674-.028a1.028,1.028,0,0,1-.477.056.63.63,0,0,0-.365-.056c-.212.061-.519.079-.73.14h-.309v.028h-.14v.028h-.112v.028h-.169v.028c-.1.029-.216-.026-.281.028-.1,0-.283.022-.337-.028h-.028v-.168h-.028l-.028-.112-.056-.028-.056-.168h-.028v-.309h-.028v-.084h-.028v-.084H1042v-.14h-.028v-.393h-.028q.014-.225.028-.449h-.028v-.084h-.028l-.028-.112h-.028v-.056h-.028v-.056l-.056-.056v-.056l-.056-.028v-.056l-.056-.028-.028-.112-.169-.14V2593.8h-.028l-.056-.168h-.028v-.112h-.028v-.393l-.056-.028v-.056l-.056-.028v-.056h-.028l-.028-.478h-.028v-.056h-.028l-.028-.168h-.028c-.027-.079.008-.137-.028-.2l-.056-.028v-.056l-.084-.056v-.056h-.028l.028-.281h-.028v-.112h-.028l.028-.337h-.028v-.112h-.028v-.084h-.028l.028-.449h-.028v-.056h-.028l-.028-.225h-.028v-.084h-.028v-.056h-.028l-.056-.59h-.028v-.056h-.028l-.028-.14-.056-.028v-.168h.028a.426.426,0,0,0-.056-.281v-.169h-.028l-.028-.112-.056-.028-.028-.112h-.028v-.112h-.028l.028-.253h-.028v-.337a.072.072,0,0,0,.028-.084h-.028v-.112l-.056-.028v-.056h-.028v-.056h-.028l-.028-.309h-.028v-.056h-.028l-.028-.2h-.028q-.014-.182-.028-.365h-.028v-.084h-.028v-.056h-.028v-.084h-.028q-.014-.59-.028-1.18h-.028v-.112l-.056-.028v-.056l-.084-.056c-.06-.108.017-.3-.028-.421h-.028l-.056-.168h-.028v-.084h-.028l.028-.478h-.028v-.056l-.056-.028v-.056l-.056-.028v-.056l-.056-.028v-.056l-.056-.028v-.056l-.056-.028-.028-.281h-.028l-.028-.112h-.028v-.056h-.028l-.056-.281h-.028v-.056l-.056-.028-.028-.112h-.028l.028-.842h-.028l-.056-.169h-.028v-.084h-.028v-.084h-.028v-.056h-.028l-.028-.14h-.028l-.028-.084-.056-.028v-.309h-.028v-.056h-.028v-.112c-.046-.136-.071-.333-.112-.478v-.449h.028v-.14h.028v-.028h-.028l-.028-.14-.14-.112v-.056h-.028l.028-.337h-.028v-.14h-.028v-.084h-.028v-.112h-.028v-.253a1.388,1.388,0,0,0-.056-.393v-.112h-.028v-.056l-.056-.028v-.056l-.056-.028q-.014-.421-.028-.843h-.028v-.112h-.028v-.112h-.028v-.112h-.028v-.2h-.028v-.253h-.028v-.113h-.028v-.084h-.028v-.112h-.028v-.253h-.028v-.112h-.028v-.253h-.028l-.056-.168h-.028v-.056h-.028v-.056h-.028l-.028-.843h-.028v-.14h-.028v-.084h-.028v-.084h-.028a.915.915,0,0,1-.112-.449h.028v-.14h.028v-.056h.028v-.084h.028c.043-.141-.074-.231-.056-.337h.028v-.309h-.028v-.084h-.028v-.056h-.028v-.084h-.028l-.028-.393h-.028v-.056h-.028l-.056-.169h-.028l.028-.253q-.014-.463-.028-.927h-.028v-.2h-.028v-.056h-.028v-.084h-.028v-.056h-.028v-.084h-.028l.028-.337h-.028l-.028-.112-.056-.028v-.056h-.028q-.014-.422-.028-.843h-.028l-.028-.253h-.028v-.112h-.028v-.112h-.028v-.084h-.028v-.084l-.112-.084v-.056h-.028v-.449h-.028a1.345,1.345,0,0,1-.112-.533Zm-2.415,3.594c.029-.107.062-.087.14-.14l.028-.056h.056v-.028h.056v-.028h.084v-.028c.1-.031.195.039.253.056a.68.68,0,0,0,.505-.112h.2c.008,0,.089.169.056.225h-.028c-.047.157-.044.024-.14.084v.028h-.028v.028h.225l.028.056a.312.312,0,0,1,.112.393v.309c-.006.036-.05.073-.028.14h.028v.056h.028v.056h.028v.084h.028l.028.365h.028v.084h.028v.084h.028v.983l.112.337.056.028c.068.152-.092.344-.056.477h.028v.113h.028v.056h.028l.028.168h.028c.039.134-.12.419-.056.618h.028v.084h.028l.028.112h.028v.084h.028q.014.323.028.646h.028v.084h.028v.056h.028l.028.2h.028c.056.191-.135.354-.084.534h.028V2576h.028v.084h.028v.084h.028l.056.365h.028v.056h.028v.084h.028c.069.22-.162.338-.084.562h.028v.056h.028l.028.225h.028l.056.168h.028v.056h.028v.084h.028v.477h.028l.028.112h.028v.056l.056.028v.112h.028v.365h.028l.056.169h.028v.084h.028v.084h.028v.084h.028v.084h.028l.028.112H1037v.056h.028l.028.168h.028l.028.112h.028v.056h.028l.056.253h.028v.084h.028l-.028.2a.873.873,0,0,1,.056.281h-.028v.281h.028v.084h.028v.084h.028v.478h.028l.056.337h.028v.056h.028v.056h.028q-.014.281-.028.562h.028v.084h.028l.028.112h.028l.028.421h.028l.028.112.112.084v.056l.056.028.028.112h.028l.028.393c-.016.054-.107.2-.056.309l.14.112v.056h.028c.055.121-.02.4.028.506l.056.028v.056l.084.056.028.112h.028l-.028.225h.028v.084h.028v.056h.028v.056l.056.028v.084h.028l-.028.618a.515.515,0,0,0-.028.253h.028v.084h.028v.112h.028v.337h.028v.056l.056.028v.056h.028v.056h.028l.056.168h.028v.084h.028v.168h.028q-.014.421-.028.843h.028v.056l.084.056.028.112h.028l.028.309h.028v.084h.028l.028.112h.028v.393l.056.028.028.084.112.084.168.449q-.014.421-.028.843h-.028a.583.583,0,0,0,.056.281l.084.056.028.14h.028c.068.208-.1.365-.056.534h.028l.028.2h.028l.028.112h.028v.084h.028v.084h.028v.14h.028v.7h.028l.028.2h.028v.056h.028l.028.365h.028l.028.113h.028v.084h.028l.028.337h.028l.028.112.056.028.028.112.056.028.028.112.056.028v.056h.028q.014.421.028.842c-.006.039-.049.094-.028.168h.028v.112h.028l.056.169h.028l.056.365h.028l.028.112h.028l.028.168h.028a1.477,1.477,0,0,1-.028.506h-.028v.056l-.056.028c-.05.123.09.249.112.309v.421l.225.281h.056l.028.056h.056l.2.14.028.2h.028l.056.168h.028l.028.112.084.056v.056h.028l.056.084.14.028v.028a1.251,1.251,0,0,0,.534-.112v-.028h.056v-.028h.421v-.028h.056l.028-.056h.056l.028-.056h.056v-.028h.168v-.028h.084v-.028h.084v-.028h.084v-.028h.168v-.028h.421s0-.037.056-.028v.028h.225c.078.023.239.123.365.084v-.028h.084v-.028h.084v-.028h.084v-.028h.253v-.028l.168-.056v-.028h.056v-.028h.084v-.028h.056v-.028a1.677,1.677,0,0,1,.449,0v.028h.281a.49.49,0,0,0,.253.028v-.028h.056l.028-.056h.056l.028-.056h.056l.028-.056h.056v-.028h.112v-.028h.365l.562-.028v-.028l.309-.028.028-.056h.056v-.028h.337c.032-.017.035-.115.056-.14h.028v-.028h.084v-.028l.365-.028v-.028l.59-.056v.028h.337v-.028h.253v-.028h.2v-.028h.365v-.028h.084v-.028h.056v-.028h.084l.028-.056.253-.028v-.028h.056l.028-.056h.056v-.028l.9.028.393-.2.309.028v-.028h.112v-.028l.112-.028v-.028l.309-.028v-.028l.14.028a.538.538,0,0,1,.253-.028c.031.01.154.1.2.084l.084-.112.477.028v-.028a2.515,2.515,0,0,1,.814-.056v.028h.112v.028a1.082,1.082,0,0,0,.59-.084h.281v-.028a.875.875,0,0,1,.505.084h.2v.028h.393l.646.028.281-.028v.028h.112v.028l.168.056v.028c.125.044.269-.063.337-.084h.449a.638.638,0,0,0,.365.056.535.535,0,0,1,.253-.028c.136.038.38-.015.534.028v.028h.7v.028h.309v.028h.7v.028h.281v.028h.056v.028a.071.071,0,0,0,.084-.028h.309l.618.028.309-.028v.028h.112v.028h.449v.028h.056l.028.056h.843v.028h.028l-.028.084h.14c.024.032,0,0,.028.028l-.028.084-.618-.028v-.028h-.674v-.028l-1.123.028-1.151.056v-.028h-.253l-.365-.028v.028h-.028c-.158.026-.434-.014-.505,0h-.758v.028h-.084v.028l-.421-.028v-.028h-.337v.028h-.421v.028h-.084v.028h-.112v.028h-.337a.073.073,0,0,0-.084-.028v.028h-.7v.028h-.169v.028l-.309-.028h-.225v-.028l-.309.028h-.842v.028l-.112.028-.028.056-.112.028v.028l-.478.028v-.028h-.225v.028h-.084v.028h-.056v.028h-.056l-.028.056-.112.028v.028h-.2v.028h-.2v.028h-.337a2.871,2.871,0,0,0-.646.028c-.1.03-.288-.037-.337-.028v.028h-.309v.028h-.112V2599h-.056v.028h-.141v.028h-.2v.028l-.337-.028v.028h-.056v.028h-.056v.028h-.056v.028h-.084v.028h-.056v.028l-.112.028v.028h-.084v.028h-.477v.028h-.253v.028h-.141v.028h-.14v.028h-.477v.028l-.505.028-.056.084h-.056l-.028.056h-.056l-.028.056h-.084v.028l-.112.028v.028h-.084v.028h-.449l-.028.056h-.056l-.028.056h-.056v.028h-.112v.028h-.169v.028h-.253v.028h-.112v.028h-.084v.028h-.168v.028c-.213.063-.45-.056-.618,0h-.112l-.028.056-.112.028v.028l-.168.056v.028h-.084v.028l-.112.028v.028h-.084v.028c-.133.044-.283-.019-.393.028v.028h-.056v.028h-.084v.028h-.056v.028h-.084v.028h-.056v.028l-.168.056v.028l-.168.028v.028h-.056l-.028.056h-.056v.028l-.112.028v.028h-.112v.028h-.225v.028h-.056v.028l-.337.028a.586.586,0,0,0-.281-.028v.028h-.084v.028l-.169.056v.028h-.056v.028l-.421.056v.028h-.084v.028l-.112.028v.028h-.056v.028h-.056v.028h-.084v.028h-.084v.028h-.084v.028l-.59.084v.028l-.168.056v.028l-.168.028v.028h-.056v.028l-.562.056-.253-.225-.028-.112-.056-.028v-.084h-.028v-.056h-.028v-.084h-.028v-.084h-.028v-.056h-.028v-.056l-.056-.028-.028-.14h-.028v-.056h-.028v-.056h-.028v-.056h-.028l-.056-.168h-.028l-.028-.2h-.028l-.028-.112h-.028v-.141h-.028l-.028-.112-.056-.028-.084-.253a.077.077,0,0,1,.028-.084v-.112h-.028v-.477l-.056-.028v-.056l-.056-.028v-.084h-.028v-.618c-.038-.125-.1-.294-.14-.421v-.393h-.028v-.056l-.056-.028v-.056l-.056-.028v-.393h-.028v-.084l-.14-.112v-.056h-.028v-.281h-.028v-.056l-.084-.056-.028-.225h-.028v-.14h-.028v-.14h-.028q-.014-.379-.028-.758h-.028v-.112h-.028l-.056-.337h-.028v-.056h-.028v-.084h-.028v-.59h-.028v-.112h-.028v-.084h-.028v-.084h-.028l-.028-.253h-.028l-.028-.225h-.028v-.056l-.056-.028-.028-.14h-.028l.028-.337h-.028v-.056h-.028v-.056l-.056-.028v-.084h-.028v-.112h.028s-.023-.237-.028-.253h-.028v-.084h-.028v-.056h-.028v-.112h-.028q-.014-.407-.028-.814v-.281h-.028v-.056l-.056-.028v-.056l-.056-.028v-.056h-.028l-.028-.2h-.028l-.028-.169h-.028v-.056h-.028v-.112h-.028v-.9h-.028v-.084h-.028v-.084h-.028q.014-.168.028-.337h-.028l-.028-.113h-.028v-.084h-.028v-.056h-.028l-.028-.2h-.028v-.056l-.056-.028v-.646h-.028v-.084l-.056-.028v-.056h-.028l-.028-.112h-.028l-.028-.365h-.028v-.056l-.084-.056v-.056h-.028l-.056-.168h-.028l-.028-.112h-.028l-.056-.309h-.028v-.056h-.028q.014-.365.028-.73h-.028v-.14h-.028l-.028-.253-.056-.028a.624.624,0,0,1-.056-.225h-.028v-.028h.028v-.112a.553.553,0,0,0,.056-.337h-.028v-.113h-.028l-.028-.2h-.028v-.056h-.028l-.056-.168h-.028v-.084h-.028v-.533h-.028v-.084h-.028v-.084h-.028v-.084h-.028l-.028-.281h-.028v-.393h-.028v-.084h-.028v-.056h-.028l-.028-.225h-.028v-.084h-.028l-.028-.14h-.028v-.056h-.028l-.028-.168h-.028v-.421h-.028v-.056h-.028v-.084h-.028l-.028-.2h-.028v-.056h-.028v-.056l-.056-.028v-.056l-.056-.028v-.084h-.028v-.253h-.028v-.084h-.028v-.084h-.028l-.028-.112h-.028v-.056l-.056-.028-.028-.112h-.028v-.113h-.028c-.027-.089.037-.18.028-.225h-.028v-.112h-.028v-.056h-.028v-.056h-.028v-.056h-.028v-.056l-.056-.028v-.056h-.028c-.039-.063.011-.037-.056-.084v-.14h.028v-.056l.056-.028q.014-.183.028-.365h-.028v-.084h-.028v-.056h-.028v-.056l-.056-.028v-.056h-.028l-.056-.309h-.028l-.056-.168h-.028v-.113h-.028l.028-.2v-1.067h-.028v-.112h-.028v-.084h-.028v-.056h-.028v-.084h-.028l-.028-.084-.056-.028q.014-.211.028-.421a2.938,2.938,0,0,0-.056-.758v-.421h-.028l-.028-.281h-.028v-.056h-.028v-.056l-.056-.028-.028-.14h-.028v-.786h-.028v-.084h-.028v-.056l-.056-.028v-.084h-.028v-.2h-.028l-.028-.112-.084-.056v-.056H1034a1.589,1.589,0,0,1-.028-.533v-.59h-.028v-.112h-.028v-.112h-.028A.6.6,0,0,1,1033.97,2569.652Z" transform="translate(-1032.4 -2554.687)" fill="#26333b" stroke="#26333b" stroke-width="0.5" fill-rule="evenodd"/>
</svg>
