<svg xmlns="http://www.w3.org/2000/svg" width="49.204" height="48" viewBox="0 0 49.204 48">
  <g id="icon_oneday" transform="translate(-3545.977 -1299.639)">
    <path id="パス_29000" data-name="パス 29000" d="M3594.99,1324.314l-.333,1,.489,1.085-.776.931.5,1.135-.713.9-.132,1.026-.688.848-.316.959-.2,1.025.031,1.183-1.122.541-.154,1.133-1.064.487-.4.994-1.054.41-.53.807.135,1.212-.914.463-.231,1.065-1.277.2-.075,1.251-.724.685-1.122.194-.759.583-.774.579-1.019.051-.675,1-.939.428-1.071-.635-1.023.392-.978.587-1.056,0-1.024.231-1.047.117-1.078-.064-1.031.229-1.058.036-1.062-.093-1.04.18-1.052.173-1.016-.608-1.113.571-.994-.295-.961-.4-.931-.439-1.047-.044-.831-.668-.9-.439-1.147.025-.815-.638-1-.349-.7-.788-.937-.48-.864-.592-.1-1.338-1.256-.24-.485-.957-.9-.594-.462-.964-.412-.986-.559-.86-.95-.6-.412-.964-.184-1.075-.5-.882-.9-.717-.3-1-.527-.922-.031-1.071-.427-.972.373-1.118-.195-.933.456-.939.421-.95.3-.985-.5-1.207.627-.891-.108-1.1,1.068-.761-.465-1.21.864-.81.3-.98.391-.949-.174-1.151.936-.746.057-1.078.216-1.027.924-.7.083-1.135,1.076-.514.4-.968.7-.741.336-1.164,1.047-.379.963-.417.956-.38.873-.531.751-.942,1.189.315.738-.95,1.066.089,1.086.064.759-.758,1.073.018.609-1.123.973-.234.977-.208,1.076.2.956-.139.953-.152.938-.366.985.011.952-.787,1.009.536.983-.456.95.229.935.311.927.134.941-.012.955.007.848.447.871.482.9.421,1.2.033.349,1.216.923.472.755.684,1.056.375.42,1.028.573.863.991.462.353,1.055,1.227.284.12,1.225.676.756.563.8.248.98,1.268.486.075,1.065.468.9-.153,1.08.829.836.2.991.041,1.013-.01,1.012.007,1.006-.22,1.033.192.983.725.892Zm-3.609.528.285-1.04-.64-1.011.536-1.1-.833-.925.291-1.11-.383-.979.087-1.114-.379-.985-.6-.893-.932-.718.165-1.234-.944-.658-.1-1.178-.9-.634-.362-1.114-.739-.571-1.24-.126-.3-1.011-.99-.355-.063-1.267-1.226-.051-.72-.649-.366-1.068-.808-.562-.91-.392-.885-.664-1.093.57-1.016.058-.888-.891-1.028.185-1.012.395-.973-.158-.965.127-.965.091-1.008.015-.9.414-.929.355-1.078.328-.981.534-1,.522-1.23-.2-.87.978-1,.181-1.017.165-1.016.213-.8.681-1.058.193-.9.516-.5,1.036-.857.544-.522.889-.809.624-.387.946-.365.923-1.221.541.343,1.22-.558.877.031,1.118-.5,1-.6.933-.4.94.151,1.091-.374.941-.523.95-.046,1.027.5,1.02-.049,1,.3.968-.1,1.021.416.93-.307,1.124.512.9.2,1.009.287.992.449.924,1.2.472.235,1.033.909.571-.006,1.294,1.259.224.288,1.124.764.67.75.692,1.135.137.526,1.056,1.056.183.99.24.744.862,1.11-.156.836.838.961-.049.9.273,1.064-.351.829.55.919.307.99.1.989-.246.917-.744,1.1.5.894-.846,1.073.262,1.084.258.918-.611,1.09.191.79-1.036,1-.149,1-.188,1.128.122.989-.312,1.016-.568.688-.914.8-.739.079-1.29,1.081-.521.265-1.121.826-.715.9-.626.71-.721.508-.881.406-.929.671-.772.543-.866.31-.971-.335-1.127.93-.828-.137-1.038.015-1Z" fill="#26333b"/>
    <path id="パス_29001" data-name="パス 29001" d="M3621.02,1357.892l.984-.056.97.2.975-.013.975-.02.974.159.977-.093.977-.007.955-.321.981.053,1.006.051.951.2.716.65.311.94.154,1.015-.492.912-.926.48-1.021.279-1.05-.013-1.054.117-1.037-.233-1.047-.026-1.03-.25-1.061.2-1.037-.174-1.07.123-1.056.222-1.119-.145-1,.344-.891-.546-.686-.7-.482-.864-.075-.994.082-1.013.038-1.014-.077-1.016.04-1.014-.108-1.015.229-1.015-.063-1.015-.266-1.012.273-1.019-.116-1.013.046-1.017-.2-1.009.142-1.115-.053-1.1.595-.9,1.028-.4,1.014-.026.529.83.106.936.233.964.181,1.036-.271,1.065.2,1.034-.024,1.049.383,1.019-.109,1.056.036,1.046.25,1.03-.155,1.06.279,1.029Z" transform="translate(-50.685 -31.579)" fill="#26333b"/>
  </g>
</svg>
