<svg xmlns="http://www.w3.org/2000/svg" width="41.21" height="48" viewBox="0 0 41.21 48">
  <path id="icon_kihonhoushin" d="M5470.208,964.792c-2.672-2.331-5.656-4.316-8.38-6.594-2.123-1.745-1.993-1.413-.829-3.747a80.593,80.593,0,0,1,5.488-9.456c1.943-2.095,1.8-4.882-1.546-4.811-10.883-1.65-21.886-.064-32.8-1.16-4.729-.632-.761,10.976-1.226,13.964.939,13.841.606,18.059,1.408,31.913-.087,1.06.407,2.117,1.587,2.1,3.605-.327-.141-10.936.3-15.18,5.242-.543,10.124-1.266,15.3-1.822C5452.307,968.82,5475.57,970.162,5470.208,964.792Zm-26.531-22.147c.812-1.041,1.944-.38,3.229-.489l-12.687,16.529C5433.479,952.507,5440.506,947.465,5443.677,942.645Zm-10.878.926c.086-1.552.1-1.551,2.281-1.252-.642,1.09-1.032,2.088-2.043,2.62A1.683,1.683,0,0,1,5432.8,943.571Zm.6,8.841c-.667-4.168.22-2.648,1.849-5.611.388-.826,4.077-5.513,4.814-4.64.459.381-.167.976-.432,1.427A53.8,53.8,0,0,1,5433.4,952.412Zm.85,12.923a2.118,2.118,0,0,1,.347-2.024q5.31-7.3,10.542-14.666c1.589-2.243,3.854-3.91,5.26-6.3.835-.863,2.488-.278,3.525-.466.423,1.553-1.585,2.66-2.356,3.857C5445.148,951.587,5440.918,960.094,5434.253,965.334Zm3.408,2.174c5.753-8.513,12.708-16.578,19.639-24.32.6-.763.555-.8,2.144-.478-2.814,5.179-6.993,9.41-10.41,14.179C5447.546,958.549,5439.213,968.869,5437.661,967.509Zm8.874-.695c-.593.788-1.429.459-2.274.183,3.337-3.75,28.428-38.331,15.3-15.845C5456.226,956.961,5450.647,961.415,5446.535,966.814Zm4.044-.021c.222-2.531,4.268-5.664,6.525-7.895a4.336,4.336,0,0,1-1.424,2.875C5453.973,963.315,5452.566,965.839,5450.579,966.792Zm4.839-.553c.694-.821,5.566-7.348,5.695-4.475C5459.511,963.782,5458.6,966.714,5455.418,966.24Zm6.313-.519a7.223,7.223,0,0,1,2.191-2.4,6.134,6.134,0,0,1,1.852,1.846A5.293,5.293,0,0,1,5461.732,965.721Z" transform="translate(-5429.797 -938.999)" fill="#26333b"/>
</svg>
