<svg xmlns="http://www.w3.org/2000/svg" width="46.1" height="48" viewBox="0 0 46.1 48">
  <g id="icon_ryoukin" transform="translate(-4884.471 -4231.668)">
    <path id="パス_29093" data-name="パス 29093" d="M4903.73,4279.6a6.844,6.844,0,0,1-2.389-.078,27.865,27.865,0,0,1-5.05-1.566,39.49,39.49,0,0,1-4.292-2.477l-1.458-2.167-1.89-1.8-1.323-2.108-.717-2.4-.736-2.335-.684-2.348-.722-2.382.1-2.484c.209-5.421-.391-11.83,3.032-16.452,1.71-2.31,4.761-4.371,7.182-5.878a22.461,22.461,0,0,1,10.334-3.421,19.618,19.618,0,0,1,9.129,1.607c2.764,1.217,4.734,3.327,7.224,4.918l1.833,1.723a29.053,29.053,0,0,1,6.738,13.5l.508,2.368c-.126,2.254.334,5.015-.444,7.145l-.535,2.454-.884,2.377-1.315,2.17a22.118,22.118,0,0,1-10.424,7.967,31.347,31.347,0,0,1-3.6,1.142,30.418,30.418,0,0,1-3.94.29l-1,.066a26.735,26.735,0,0,1-2.765.051A13.572,13.572,0,0,0,4903.73,4279.6Zm1.141-2.807c.239-.037.478-.088.719-.119,2.532-.319,5.007-.075,7.541-.7,1.188-.295,2.385-.731,3.532-1.11a11.227,11.227,0,0,0,3.625-1.871l1.841-2.064,1.8-2.017,1.863-2.03,1.3-2.447.7-2.687-.067-2.762-.011-2.751-.89-2.435c-.409-3.24-1.405-7.267-3.74-9.617-1.314-1.324-2.139-2.878-3.43-4.2-1.619-1.654-3.706-2.712-5.605-3.995a12.086,12.086,0,0,0-5.169-1.7,10.7,10.7,0,0,0-5.9.384c-3.21,1.309-6.208,2.169-9.17,4.2a9.775,9.775,0,0,0-2.637,2.411c-1.336,1.946-2.942,4.2-3.264,6.6-.438,4.3-1.04,7.838-.21,12.126l.471,2.56.749,2.468,1.025,2.375a18,18,0,0,0,6.8,7.989l2.611.825,2.692.291a19.024,19.024,0,0,0,2.4.326A3.473,3.473,0,0,0,4904.871,4276.793Z" fill="#26333b"/>
    <path id="パス_29094" data-name="パス 29094" d="M4932.622,4287.759c-.032-.164-.066-.328-.106-.493a.438.438,0,0,0-.125-.255.433.433,0,0,0-.259-.065,23.176,23.176,0,0,0-4.015.241,1.583,1.583,0,0,1-.93-.005c-.427-.208-.491-.78-.5-1.254q-.007-.561-.014-1.122a.756.756,0,0,1,.057-.366c.123-.234.436-.272.7-.281.342-.013,5.288-.3,5.29-.2,0,0-.058-2.33-.058-2.33l-.346-2.157c-1.034.073-2.068.157-3.1.217-.827.048-1.984.315-2.748-.1a1.476,1.476,0,0,1-.008-2.607,4.015,4.015,0,0,1,1.735-.52c.405-.048.812-.081,1.219-.113l1.876-.148a6.6,6.6,0,0,1-1.424-2.12l-.952-1.967c-.21-.666-1.205-2.1-.96-2.69a2.111,2.111,0,0,1,.932-.9,1.846,1.846,0,0,1,1.134-.366c1.273.153,1.935,2.118,2.386,3.057.622,1.292,1.123,2.345,2.578,2.831-.021-.007,2-3.272,2.258-3.609a13.013,13.013,0,0,1,1.664-2.214,2.087,2.087,0,0,1,1.569-.528,1.629,1.629,0,0,1,1.129.7,1.114,1.114,0,0,1,.208.694c-.106,1.354-3.006,3.549-3.969,4.637l-1.637,1.986a8.1,8.1,0,0,1,2.267.1c1.286.1,2.522.085,3.823.12a1.116,1.116,0,0,1,.706.185,1.087,1.087,0,0,1,.286.773,6.489,6.489,0,0,1-.03,1.655,10.475,10.475,0,0,1-2.226.256c-.66-.057-1.335-.225-2-.23l-3.059-.02.245,2.756-.157,2.66,2.451-.125,2.441-.468c.449.021,1.592-.234,1.864.206.149.241.035.549-.013.828-.056.326-.014.663-.069.988-.26,1.537-4.688,1.116-5.878,1.189a1.017,1.017,0,0,0-.571.152,1.006,1.006,0,0,0-.287.727c-.152,1.507.149,2.932-.188,4.392a10.319,10.319,0,0,1-.537,2.215l-2.082.505-.25-2.229.021-2.337C4932.844,4289.243,4932.767,4288.5,4932.622,4287.759Z" transform="translate(-28.107 -24.556)" fill="#26333b"/>
  </g>
</svg>
