<svg id="icon_kengaku" xmlns="http://www.w3.org/2000/svg" width="48" height="48" viewBox="0 0 48 48">
  <g id="グループ_5351" data-name="グループ 5351" transform="translate(0.001 0)">
    <path id="パス_27415" data-name="パス 27415" d="M-62.292,58.6c-.029-1.254-.045-2.508-.137-3.76-.032-.448-.444-1.1-.288-1.546l.46-1.3.153-1.316V49.353l-.39-1.32.07-1.236.414-1.234-.191-1.236-.306-1.236.16-1.236.025-1.236a18.377,18.377,0,0,1,.777-8.756l.155-1.336c-.034-1.936-.255-3.59.7-5.426a1.321,1.321,0,0,1,.36-.474,7.336,7.336,0,0,1,3.568-.412l1.406-.24,1.412-.182,1.415-.11,1.421-.024,1.417-.1,1.426.24,1.421.122,1.408-.56,1.417-.194,1.426.332,1.419-.062,1.424.392,1.412-.5,1.421.066,1.419-.024,1.421.18,1.417-.168h1.421l1.408-.392,1.529.274-.439,1.866.083.918-1.205.134c-2.613.294-5.068.262-7.706.31-4.359.076-8.575-.564-12.945-.058-.36.042-1.018.336-1.329.326l-1.647-.056-1.665.044-1.59.686-.471,1.138-.311,1.148-.4,1.116-.358,1.14-.191,1.174-.3,1.2-.106,1.22-.279,1.208.273,1.248-.381,1.2.144,1.236.009,1.22a6.668,6.668,0,0,1-.151,1.282,28.96,28.96,0,0,0-.212,3.554,20.482,20.482,0,0,0,.07,3.8,9.38,9.38,0,0,1,.3,1.8l-.277,1.416.336,1.252-.16,1.28-.207,1.282a21.351,21.351,0,0,0,.351,3.24l1.622.382c3.609.852,7.19.144,10.832.3.755.032,1.511.066,2.262.144.41.042.82.1,1.232.128a20.3,20.3,0,0,0,3.9-.026c.453-.068.937-.454,1.392-.454l1.469.16,1.412-.446,1.5.486a12.735,12.735,0,0,1,3.16-.308c.881.018,1.761.012,2.642.008l6.118-.04c.293,0,.218-3.832.079-4.448l-.034-1.41-.435-1.386.543-1.44-.189-1.358-.464-1.352.277-1.36c-.678-3.254-.27-6.562.068-9.846a.413.413,0,0,1,.083-.25.535.535,0,0,1,.374-.122c1.248-.084,1.813-.162,2.653.646l.228,1.246c.2,1.594-.2,3.43,0,5.108a20.726,20.726,0,0,0-.092,4.95l.2,1.234-.079,1.23L-18.5,53.6l-.248,1.23.46,1.234-.324,1.274a13.493,13.493,0,0,1,.09,5.768,1.053,1.053,0,0,1-.336.712,1.387,1.387,0,0,1-.617.194c-4.6.682-9.307-.366-13.923.354l-1.46.114-1.469.02-1.471.008-1.424.416-1.239-.25-1.21.044-1.216.22-1.514.07-1.507-.258-1.514.086-1.509-.452c-1.487.446-3.081.012-4.539-.006l-1.385-.018a45.67,45.67,0,0,1-5.557-.16,1.97,1.97,0,0,1-1.122-.272,1.444,1.444,0,0,1-.453-.992A34.661,34.661,0,0,1-62.292,58.6Z" transform="translate(62.752 -17.009)" fill="#26333b"/>
    <path id="パス_27416" data-name="パス 27416" d="M-44.3,52.422c-.61-.684,1.62-4.642,1.876-5.174l.7-1.168.774-1.13.334-1.25.788-1.044.566-1.142.084-1.366.654-1.1.42-1.212.9-.99.732-1.066.41-1.216.512-1.17.384-1.226.578-1.14.614-1.122.082-1.364.556-1.148a30.183,30.183,0,0,1,1.522-3.174c.844-1.3.946-3.008,1.922-4.212,1.592-.088,3.378,1.092,4.642,1.978a1.355,1.355,0,0,1,.38,1.27l-.6,1.13-.18,1.272-.9,1.024-.464,1.262-.028,1.5L-28.108,30.5l-.28,1.264-.388,1.26-.734,1.084-.986.916-.654,1.128-.536,1.2-.588,1.166-.586,1.132-.568,1.14-.192,1.316c-.52.778-1.024,1.468-1.582,2.21-.516.69-.04,1.712-.522,2.416l-.734,1.066a14.06,14.06,0,0,0-1.44,3.976,12.4,12.4,0,0,1-1.036,1.892l-.58,1.136-.23,1.29-.914.982-.592,1.13-.744,1.028-.842,1.128-1.394-.332-1.3.076-1.316-.456-.8-1.12-.806-.982-.416-1.27-.928-.884-.642-1.1-.822-.964-.566-1.16-.9-.9-.732-1.034-.664-1.088-.832-.958-.882-.918-.682-1.072-.916-.886-.25-.83.132-1.212,1-.788.8-1.044,1.138-.608,1.25.076,1.336.718a27.047,27.047,0,0,0,2.408,3.622,18.808,18.808,0,0,1,1.808,2.812c.2.314,1.2.79,1.282,1.046l.416,1.322.886.96Z" transform="translate(72.814 -20)" fill="#26333b"/>
  </g>
</svg>
