<svg id="icon_Instagram" xmlns="http://www.w3.org/2000/svg" width="24.713" height="24" viewBox="0 0 24.713 24">
  <path id="パス_28421" data-name="パス 28421" d="M33.991,22.923a23.22,23.22,0,0,1-.059-2.549,19.26,19.26,0,0,0-.11-2.954c-.073-.523-.2-1.051-.314-1.562a12.218,12.218,0,0,1-.4-2.622c0-.1-.064-.171-.217-.328-.045-.045-.089-.091-.13-.138a8.785,8.785,0,0,0-2.408-1.764.856.856,0,0,1-.378-.541l0-.008a7.371,7.371,0,0,1-4.057-.182,2.316,2.316,0,0,1-3,.321,2.7,2.7,0,0,0-1.825-.09,4.376,4.376,0,0,1-1.4.1,2.678,2.678,0,0,0-.995.128,5.351,5.351,0,0,1-.713.145c-.634.071-1.273.1-1.89.123-.692.029-1.407.058-2.1.151a2.139,2.139,0,0,0-.429.131,1.377,1.377,0,0,1-1.464-.06A.773.773,0,0,0,11.538,11c-.312.038-.629.45-.937.849a3.412,3.412,0,0,0-.515,2.135,7.552,7.552,0,0,1-.109,1.307,1.333,1.333,0,0,1,.264.523,3.3,3.3,0,0,1-.142,1.875,2.134,2.134,0,0,0,0,1.805l.157.256L10,19.981a.4.4,0,0,0-.048.045,3.734,3.734,0,0,0-.312,2c.007.129.011.255.015.379A2.76,2.76,0,0,0,10,23.9a3.442,3.442,0,0,1,.221,2.2,6.667,6.667,0,0,0-.061,1.038c.025.449.017.9.009,1.344a8.82,8.82,0,0,0,.2,2.589c.277.987,1.378,2.275,2.221,2.314l.178.008a3.726,3.726,0,0,1,2.222.589.823.823,0,0,1,.393-.428.681.681,0,0,1,.292-.065,1.181,1.181,0,0,1,.663.251c.157.109.361.284.541.439l.115.1a2.03,2.03,0,0,1,2.5-.129.8.8,0,0,1,.751-.537.735.735,0,0,0,.149-.027,3,3,0,0,1,1.091-.152,2.542,2.542,0,0,0,.953-.131,2.755,2.755,0,0,1,1.293-.088,2.17,2.17,0,0,0,1.344-.152,4.109,4.109,0,0,1,.846-.246,8.9,8.9,0,0,0,.938-.259.91.91,0,0,1,.986-.149,2.212,2.212,0,0,0,1,.21,3.859,3.859,0,0,1,2.569-.289c-.017-.009.046-.085.089-.135s.065-.077.1-.114a7.26,7.26,0,0,0,.723-1,5.432,5.432,0,0,1,1.254-1.516.3.3,0,0,0,.038-.162l.006-.112a7,7,0,0,1,.208-1.154,3.236,3.236,0,0,0,.076-1.92l-.074-.2.143-.16c.548-.618.373-1.32.187-2.064A6.094,6.094,0,0,1,33.991,22.923Zm-1.459,2.432a3.2,3.2,0,0,1-.141,1.88,4.451,4.451,0,0,0-.194.858,2.334,2.334,0,0,1-1.19,1.547,1.94,1.94,0,0,1-1.559.313.185.185,0,0,0-.138.069,1.148,1.148,0,0,1-.193.161,3.125,3.125,0,0,1-2.521.269,1,1,0,0,1-.441-.27c-.028-.026-.066-.06-.1-.084a1.029,1.029,0,0,0-.135.193.468.468,0,0,1-.428.277.559.559,0,0,1-.466-.335c-.064.244-.173.479-.446.536a.64.64,0,0,1-.584-.24.538.538,0,0,1-.454.263,6.762,6.762,0,0,0-1.618.319,5.62,5.62,0,0,1-2.419.3,2.969,2.969,0,0,1-.843-.313l-.054-.026a1.3,1.3,0,0,1-1.044.476,3.289,3.289,0,0,1-.732-.107c-.094-.022-.187-.043-.276-.059a2.529,2.529,0,0,1-.479-.145c-.323-.123-.484-.185-.812.06-.547.41-1.9-.059-2.161-.157a1.608,1.608,0,0,1-.927-2.3,1.12,1.12,0,0,1-.038-.144,1,1,0,0,1,.278-1.111,3.743,3.743,0,0,1-.582-1.514,3.463,3.463,0,0,0-.409-1.178.674.674,0,0,1,.031-.782c.3-.265.264-.535.163-1.027a1.967,1.967,0,0,1,0-1.122,2.764,2.764,0,0,0-.135-1.921l-.084-.271a1.077,1.077,0,0,1,.019-.683,7.42,7.42,0,0,0,.3-3.537c-.016-.208-.031-.415-.044-.62a4.879,4.879,0,0,1,.307-1.862c.05-.16.1-.321.144-.486a1.163,1.163,0,0,1,.767-.695,2.332,2.332,0,0,1,1.849-.028.916.916,0,0,0,.878.091,4.207,4.207,0,0,1,1.891-.214,30.728,30.728,0,0,0,3.339.153c.323,0,.647.006.97.012l.684.01a21.091,21.091,0,0,1,3.954.3l.239.049a5.775,5.775,0,0,0,2.694.118,2.659,2.659,0,0,1,1.939.439,3.031,3.031,0,0,1,.551,2.319,5.135,5.135,0,0,0,.241,1.886,6.97,6.97,0,0,1,.28,1.629,11.775,11.775,0,0,0,.207,1.738A7.025,7.025,0,0,1,32.566,24,2.475,2.475,0,0,0,32.532,25.354Z" transform="translate(-9.63 -10.276)" fill="#26333b"/>
  <path id="パス_28422" data-name="パス 28422" d="M23.2,31.488c-.64-.1-.787-.693-1.091-1.122a16.333,16.333,0,0,1-2.448-3.9,6.476,6.476,0,0,1,.115-3.163c.278-1.561,1.443-2.249,2.314-3.272.386-.453,1.088-.529,1.254-1.176.534.72,1.038-.153,1.495-.04,1.151.286,2.589-.386,3.427.978.988-.283.7,1.547,1.8,1.086-.02.832.586,1.441.784,2.194a1.955,1.955,0,0,0,.335.963l-.012-.016a7.319,7.319,0,0,1-.455,2.439,1.921,1.921,0,0,0-.328,1.8c.031.083-.243.163-.41.15l-.094-.14c-.1.077-.072.148.011.216a1.892,1.892,0,0,1,.018.432c-.962.251-1.523,1.216-2.519,1.4-.666.123-1.409.085-1.736.91-.088.222-.284.18-.529-.014a2.491,2.491,0,0,0-1.485-.289c-.469-.024-.417.293-.457.572Zm5.707-6.693c.752-1.785-.595-2.716-1.5-3.785-.622-.736-1.7-.249-2.5-.676-.093-.05-1.343.127-1.24,1.1,0,.013-.132.073-.17.052-1.083-.6-1.185.687-1.331.982a6.084,6.084,0,0,0-.776,3.291c.122,1.363.636,2.121,1.989,2.2.277.016.574.133.829.157.507.048,1.182.567,1.436.216.411-.568,1.649.139,1.49-1.063.065-.007.154-.045.189-.017.529.423.559.106.548-.346a.567.567,0,0,1,.34-.552C29.039,26.08,28.831,25.338,28.911,24.795Z" transform="translate(-14.05 -14.093)" fill="#26333b"/>
  <path id="パス_28423" data-name="パス 28423" d="M41.011,18.267c.259-1.391,1.4-1.963,2.328-1.184a2.061,2.061,0,0,1-.136,2.984,1.17,1.17,0,0,1-1.054-.271,4.678,4.678,0,0,0-1.118-1.034C40.765,18.625,41.018,18.421,41.011,18.267Z" transform="translate(-23.631 -13.166)" fill="#26333b"/>
</svg>
