<svg id="icon_contact" xmlns="http://www.w3.org/2000/svg" width="23.419" height="20" viewBox="0 0 23.419 20">
  <path id="パス_28430" data-name="パス 28430" d="M42.491,37.738l.337-1.232L42.415,35.3l.33-1.235-.426-1.207.313-1.239-.406-.491.335-.542-.417-.486.325-.549-.421-.473.332-.447-.411-.379.336-.449-.408-.385.342-.442-.391-.278.36-.319-.383-.293.366-.32-.382-.3.365-.395-.386-.376.357-.406-.4-.366.34-.421-.375,0,.37-.06-.376,0,.371-.062-.376,0,.316-.506-.489-.326.042-.589-.582.062-.377-.452-1.5.3-1.466-.44-1.5.317-1.473-.417-1.49.351-.607-.366-.59.4-.624-.339-.58.415-.623-.326.007.374-.051-.371.007.375-.053-.371.006.375-.3-.352-.246.395-.3-.353-.249.392-.3-.356-.4.4-.448-.35-.407.4-.447-.352-.409.4-.125-.368-.086.379-.126-.368-.094.38-.133-.368-.432.4-.471-.35-.431.4-.472-.347-.427.4-.194-.362-.136.387-.2-.357-.129.389-.2-.354,0,.377-.081-.368,0,.376-.085-.367-.006.377-.27-.346-.191.4L22,22l-.2.391-.249-.362-.523.427-.657-.166-.172.644-.562.356.285.619-.409.829.354.858-.383.841.373.842-.368.843.386,1.17-.362,1.177.388,1.168-.359,1.177.389,1.167-.359,1.138.387,1.13-.36,1.137.386,1.129-.362,1.135.4.384-.22.516.547.083.214.509.47-.314.429.381.444-.365.425.384.449-.361.433.387.54-.358.521.388.542-.363.528.383.543-.37.526.37.517-.385.532.357.511-.4.546.345.542-.408.592.335.542-.415.595.329.531-.417.578.33.522-.415L33,40.9l.529-.411.575.339,1.317-.448,1.354.306,1.321-.436,1.357.318,1.33-.425.679.286.435-.581.7-.193-.119-.722.418-.6-.38-.1.367-.14-.38-.1.325-.253Zm-17.57,1.783-.051-.383-.136.362-.059-.382-.125.365-.068-.379-.161.364-.112-.383-.161.365-.117-.383-.169.364-.269-.394-.321.354L22.894,39l-.311.364-.295-.378-.089.374-.094-.374-.082.376-.1-.371-.065.379L21.786,39l-.064.373L21.7,39l-.121.357.128-.338-.326.154.344-.154-.377.018.364-.1-.378-.034.371-.073-.377-.032.37-.074-.376-.036.37-.079-.271.18.166-.335-.167.334.166-.335-.272.178.339-.7-.4-.654.347-.687-.4-.657.357-.678-.4-1.553.35-1.566-.4-1.552.354-1.559-.393-1.558.371-.4-.375-.394.375-.394-.37-.4.377-.368-.022-.132-.2.322.282-.251-.2.324.28-.254-.094.407.379-.175-.092.406.377-.177-.091.407.3-.239-.167.345.3-.238-.162.349.3-.236.14.589.608.008.138.594.61.02.123.6.446-.1-.062.455.452-.08-.078.453.452-.074-.069.463.465-.065-.057.467.465-.077-.037.469.69.1.21.665.695.09.218.662.688.078.021.5.494-.08.019.5.494-.078.017.5.645.007.346.549.519-.368.624.12.193-.623.538.021.04-.537.539.023.042-.536.544.019.18-.657.677-.1.181-.662.679-.107.175-.664,1.094-.5.585-1.053,1.09-.51.573-1.055,1.086-.513-.228-.3.326.193-.257-.279.339.168-.015-.313-.284.249.379.048-.367.108.38.049-.368.108.4.292-.348.349.4.291-.347.35.4.29-.309.823.435.768-.315.828.426.778-.33.821.429,1.349-.339,1.375.394,1.357-.367,1.37.374,1.37-.374-.014.369.061-.372-.039.368.068-.3-.157-.071.393-.282-.333-.184.4-.26-.354-.211.387-.057-.373-.028.376-.062-.371-.02.376-.074-.369-1,.442-1.053-.309-1.008.436-1.055-.313-1,.432-.57-.341-.53.406-.573-.341-.532.406-.576-.341-.444.4-.49-.344-.442.4-.491-.342-.44.4-.714-.328-.669.418-.719-.33-.673.415-.711-.334-.142.376-.138-.379-.177.362-.11-.387ZM39.518,23.8v.374l-.187-.187ZM39.3,23.8l-.618.138-.062.634L38,24.7l-.085.631-.629.1-.437.924-.95.368-.452.916L34.489,28l-.463.918-.586.022-.088.58-.585.023-.085.581-.585.026.108.408-.4-.139.117.4-.4-.134.122.4-.332-.2.185.339-.332-.2.18.346-.336-.2.007.278.24-.286-.239.287.225-.3-.227.3-.217-.649-.683-.06-.226-.65-.684-.056-.234-.653-.54.057-.084-.538-.541.055-.079-.536-.538.054.167-.349-.324.21.192-.335-.336.19.209-.325-.345.177.2-.332-.338.192.185-.341-.329.206-.024-.52-.52.04-.031-.527-.527.035-.032-.527-.61-.036-.115-.6-.609-.036-.113-.6-.607-.037.073-.439-.431.11.08-.438-.432.1.014-.123,3.274-.79,3.395.157,3.366-.489,3.381.36,3.413-.166-.225.106.24.295-.324-.2.278.132Z" transform="translate(-19.479 -21.31)" fill="#26333b"/>
</svg>
