<svg xmlns="http://www.w3.org/2000/svg" width="23.105" height="3.995" viewBox="0 0 23.105 3.995">
  <path id="パス_28010" data-name="パス 28010" d="M46.114,28.428l.054,1.077-.4,1.122-1.185.19-1.045.249-1.084-.114-1.036.4-1.095-.361-.941.386-.974-.23-.957.13-.965-.071-.961.045-.959.09-.956.2-.961.036-.956.182-1.084-.334-1.065.1-1.06.183-1.064.146-1.071-.091-1.071.2-1.145-.434-1.072-.521L23.32,29.3l1.091.271,1.052-.136,1.02.086,1.01-.22,1.018.034,1.018.059,1.02.116,1.013-.122,1.008-.263,1.019.052,1.016-.038L35.62,29.1l1.024.125,1.016-.057,1-.226.927-.221.945-.093.935-.169.927-.228.933-.258.975.281.962-.207Z" transform="translate(-23.062 -27.973)" fill="#26333b"/>
</svg>
