<svg id="icon_home" xmlns="http://www.w3.org/2000/svg" width="32.383" height="39.999" viewBox="0 0 32.383 39.999">
  <path id="パス_28016" data-name="パス 28016" d="M440.639-52.066c-.609-.677-3.145-.423-3.767-.355a1.491,1.491,0,0,1-.8-.047c-1.018-.478,1.143-3.193,1.477-3.759a26.681,26.681,0,0,1,2.119-3c.834-1.048,1.707-2.067,2.489-3.156a19.983,19.983,0,0,1,1.214-1.9c.25-.275.609-.414.789-.74.119-.213-.057-.528.046-.762a37.5,37.5,0,0,1,2.829-4.349c.911-1.439,1.391-2.77,2.875-3.806a1.5,1.5,0,0,1,.831-.334,1.39,1.39,0,0,1,1,.583,12.64,12.64,0,0,0,2.14,1.754c.12.1,1.171.866,1.218.944l.336.67.674.329.453.553.544.466.2.778a8.4,8.4,0,0,0,.98,1.117,27.577,27.577,0,0,1,1.772,2.708,12.343,12.343,0,0,0,2.15,2.568,14.344,14.344,0,0,1,1.719,2.625c.671.99,1.421,1.9,2.129,2.859.564.765,1.339,1.374,1.881,2.146,1,1.419-1.284,1.325-2.07,1.444-.54.082-1.252-.15-1.685.269-.079.078-.047.21-.013.316.7,2.179.019,4.642.512,6.893a12.9,12.9,0,0,1,.021,3.28c-.036.99.445,1.968.311,2.859a16.814,16.814,0,0,0,.236,2.7c-.288,1.042-.528,1.615-1.771,1.333a1.585,1.585,0,0,0-.3-.054,1.444,1.444,0,0,0-.306.041c-3.136.619-6.539.161-9.722.157-1.7,0-11.842,1.538-11.906-.061l-.212-5.288c-.075-1.877.038-3.741-.049-5.615a8.931,8.931,0,0,1-.187-1.024l.158-.694-.118-.678.135-.692.034-.686-.4-.664.017-.685.153-.691A.5.5,0,0,0,440.639-52.066ZM450.6-71.92a1.145,1.145,0,0,0-.292.1,2.675,2.675,0,0,0-1.027,1.156l-.3.617-.6.41-.294.622-.139.728-.288.627-.656.374-.376.566-.323.6-.629.393-.2.686-.265.642a23.4,23.4,0,0,1-2.715,3.921c-.569.742-1.17,1.46-1.712,2.222a35.247,35.247,0,0,0-2.222,3.753,1,1,0,0,0-.173.74c.188.609,6.239.129,7.048.172a9.243,9.243,0,0,0,4-.352l.688.292.68-.043.675-.179.686.146.668-.317.69.21.668-.277.682.026.675-.112.7.334.672-.16.7.3.685.022.646-.511c.233-.185,1.51.092,1.773.1,1.324.043,2.661-.02,3.986-.029.331,0,.785-.141.73-.468-.279-1.615-1.782-2.58-2.626-3.84l-.382-.57-.554-.444-.3-.629c-.483-1-1.841-1.378-2.409-2.3a12.217,12.217,0,0,1-.752-1.433,3.844,3.844,0,0,0-.466-.875,5.622,5.622,0,0,0-.6-.572c-1.1-1.01-1.535-2.1-2.687-2.988-.623-.478-.831-1.12-1.382-1.674C452.542-70.667,451.656-72.127,450.6-71.92Zm-7.873,20.429-.034.013c-.894.352-.487,1.045-.359,1.73l-.225.761.149.74.337.73.153.657-.293.681.046.663.11.659-.26.679.256.651.179.656.145.657-.461.69a2.5,2.5,0,0,1,.35,1.618c-.065.723-.664,3.949.579,3.784a2.129,2.129,0,0,1,.7-.075c.279.058.526.314.8.245.111-.027.2-.1.313-.133.261-.068.534.147.794.078.12-.032.224-.123.347-.124a.846.846,0,0,1,.256.072c.716.229,1.716-.211,2.468-.248l.944-.047c.431-.021.862-.042,1.294-.059,3.363-.126,6.727-.334,10.1-.414.084,0,2.654-.031,2.147-.832-.4-.64-.181-1.778-.25-2.523-.163-1.762.027-3.6-.035-5.378q-.087-2.553-.365-5.094c-.059-.542-.37-1.031-.378-1.557-.349.04-.7.073-1.053.086l-.508.019c-.149.006-.325,0-.406-.127-.26.032-.523.045-.785.058l-2.027.1a3.893,3.893,0,0,1-.843-.02,15.376,15.376,0,0,0-3.3.27c-1.246.068-2.5.06-3.74.158a46.231,46.231,0,0,1-5.99.089A2.91,2.91,0,0,0,442.722-51.491Z" transform="translate(-435.805 74.278)" fill="#fff"/>
  <path id="パス_28017" data-name="パス 28017" d="M457.019-48.435l-.124-.17-.207-.1-.7.123-.71-.094-.692.169-.709-.046-.694.124-.7-.005-.692.157-.714.066-.713-.17-.716.124-.514.476-.265.606.053.71-.106.708-.06.708.019.709-.005.71-.037.708-.027.709.1.709-.046.709.083.709-.083.71.058.008.58.166.611-.151.633.067.62-.062.6-.167.683-.1.685-.087.694.036.69,0,.685-.081.689-.048.681-.137.382-.037-.04-.368.042-.674.071-.674.059-.675-.082-.675,0-.675-.005-.675.024-.676-.054-.674-.112-.671.1-.679-.017-.675Zm-3.7,1.372.647-.155.661-.011.663-.094.516.327.173.348-.1.57.044.507-.657-.034-.662.117-.668.056-.659-.195-.032.023-.162-.02.009-.8Zm-1.526,6.327.055.119-.147,0-.627.114-.631-.123-.646.12.011-.707-.082-.68.093-.68-.046-.692.012-.689.188-.056.1-.052.609-.186.621.057.623-.038-.021.759-.068.679.009.682-.014.681Zm.267-4.7.06.122-.746-.014-.748.135-.752-.109,0-.509.084-.611-.088-.6.079-.081.049-.118.715-.122.726.141.679-.046.178.573-.083.628Zm3.732,4.309.052.074-.07-.029-.684.118-.688-.121-.686.12-.6-.078-.026-.642.1-.635-.07-.643-.028-.643.176-.569.636-.026.69-.178.7.05.749-.066-.059.706-.073.639-.01.641-.038.641Z" transform="translate(-435.805 74.278)" fill="#fff"/>
</svg>
