<svg id="icon_contact" xmlns="http://www.w3.org/2000/svg" width="28.103" height="24" viewBox="0 0 28.103 24">
  <path id="パス_28430" data-name="パス 28430" d="M47.094,41.024l.4-1.478L47,38.1l.4-1.481-.511-1.449.376-1.487-.487-.589.4-.651-.5-.584.389-.659-.505-.568.4-.536-.493-.455.4-.539-.489-.462.411-.531-.469-.333.432-.383-.46-.351.439-.384-.458-.361.438-.474-.464-.451.429-.487-.477-.439.409-.505-.45,0,.444-.072-.451,0,.446-.074-.451-.006.379-.607-.587-.392.051-.707-.7.074-.452-.542-1.8.361-1.759-.529-1.8.38-1.768-.5-1.788.421-.728-.439-.708.477-.749-.407-.7.5-.747-.392.009.449-.062-.446.008.45-.064-.446.007.45-.366-.422-.3.474-.362-.423-.3.47-.356-.428-.485.477-.538-.42-.488.476-.536-.422-.49.475-.15-.442-.1.455-.152-.441-.112.456-.159-.442-.518.477-.566-.42-.517.478-.567-.416-.513.481-.232-.434-.163.465-.242-.429-.155.467-.245-.425,0,.452-.1-.441-.006.451-.1-.44-.007.452-.324-.415-.229.476-.321-.421-.244.469-.3-.434-.627.513-.789-.2-.206.773-.674.428.342.743-.49.994.424,1.029-.46,1.009.448,1.01-.442,1.011.464,1.4-.434,1.412.466,1.4-.431,1.413.467,1.4-.431,1.366.465,1.356-.432,1.365.464,1.355-.434,1.362.48.461-.264.619.657.1.257.611.565-.377.515.457.533-.438.51.461.539-.433.52.465.648-.43.625.466.651-.435.634.459.652-.444.631.444.621-.462.639.429.613-.476.655.414.651-.489.71.4.65-.5.714.4.637-.5.694.4.626-.5.7.4.635-.493.69.406,1.58-.538,1.625.367,1.586-.523,1.628.382,1.6-.51.815.343.522-.7.841-.231-.143-.866.5-.723-.456-.123.44-.168-.456-.118.389-.3ZM26.01,43.163l-.061-.459-.163.434-.071-.458-.15.438-.082-.455-.193.437-.135-.459-.193.438-.14-.46-.2.437-.323-.472-.385.425-.334-.468-.374.437-.354-.453-.107.449-.112-.449-.1.451-.12-.446-.079.455-.085-.447-.076.448-.026-.452L22,42.961l.154-.405-.392.185.413-.185-.452.021.437-.12-.453-.04.446-.088-.452-.038.444-.089-.451-.043.444-.094-.325.215.2-.4-.2.4.2-.4-.327.213.406-.837L21.6,40.47l.416-.825-.475-.789.429-.814-.483-1.864.42-1.879-.475-1.863.425-1.871-.471-1.87.446-.477-.45-.472.45-.472-.444-.478.452-.441-.026-.158-.238.386.339-.3-.235.388.336-.305-.112.488.455-.21-.11.487.452-.212-.109.488.36-.287-.2.414.36-.286-.194.419.365-.283.168.707.729.01.166.713.732.024.147.716.535-.123-.074.545.542-.1-.093.543.542-.089-.083.556.558-.077-.068.56.558-.092-.045.563.828.119.253.8.834.108.261.795.826.093.025.6.593-.1.022.6.593-.093.02.6.774.009.415.659.623-.442.749.144.231-.747.645.025.048-.644.646.028.051-.643.653.022.217-.789.813-.119.218-.795.815-.128.21-.8,1.313-.6.7-1.264,1.309-.612.688-1.266,1.3-.616L44,26.426l.392.231-.309-.334.407.2-.018-.376-.341.3.455.057-.44.129.456.058-.441.129.477.35-.417.419.477.349-.416.42.479.348-.37.988.522.921-.378.993.511.934-.4.985.515,1.618L44.76,36.8l.472,1.628-.44,1.644.449,1.644-.449-.017.443.073-.447-.047.442.082-.36-.189-.085.471-.338-.4-.221.476-.312-.425-.254.465-.068-.448-.034.451-.074-.446-.024.451-.089-.443-1.2.531-1.264-.37-1.21.523-1.266-.376-1.2.518-.683-.41-.636.487-.688-.41-.639.487-.691-.41-.533.483-.588-.413-.531.484-.589-.411-.529.485-.856-.394-.8.5-.863-.4-.808.5-.853-.4-.171.451-.166-.455-.212.434-.132-.465Zm17.517-18.87v.449l-.224-.224Zm-.259.01-.742.166-.074.761-.749.154-.1.758-.755.114-.524,1.109-1.14.441-.542,1.1-1.148.43-.556,1.1-.7.026-.105.7-.7.028-.1.7-.7.031.13.489-.477-.167.14.486-.479-.16.146.485-.4-.241.222.407-.4-.24.215.415-.4-.237.008.333.288-.343-.287.345.27-.359-.273.357-.26-.779-.819-.072-.272-.78-.82-.067L30.871,31l-.648.068-.1-.645-.649.066-.1-.643-.645.065.2-.419-.388.253.23-.4-.4.228.251-.389-.414.212.241-.4-.405.23.222-.41-.4.247-.029-.624-.624.048-.037-.632-.633.042-.038-.633-.732-.043-.138-.718-.731-.043-.136-.718-.728-.045.088-.526-.517.132.1-.525L23.2,24.9l.017-.147,3.929-.948L31.216,24l4.039-.587,4.057.432,4.1-.2-.27.127.288.354-.388-.239.333.158Z" transform="translate(-19.479 -21.31)" fill="#fff"/>
</svg>
