<svg id="icon_ichiji" xmlns="http://www.w3.org/2000/svg" xmlns:xlink="http://www.w3.org/1999/xlink" width="28.305" height="24" viewBox="0 0 28.305 24">
  <defs>
    <clipPath id="clip-path">
      <rect id="長方形_1872" data-name="長方形 1872" width="28.305" height="24" fill="#fff"/>
    </clipPath>
  </defs>
  <g id="グループ_5393" data-name="グループ 5393" clip-path="url(#clip-path)">
    <path id="パス_29321" data-name="パス 29321" d="M25.652,9.292l-.181-.158-.093.106-.07-.122-.208.119a5.08,5.08,0,0,0-.775.618,6.846,6.846,0,0,1-.905.723c-1.085.659-4.615,1.921-6.24,1.279a1.117,1.117,0,0,1-.73-.774,5.274,5.274,0,0,1,.231-2.675,7.845,7.845,0,0,0,.344-2.1,6.426,6.426,0,0,0-2.15-4.77A6.613,6.613,0,0,0,9.7.051,7.739,7.739,0,0,0,3.755,4.014a9.161,9.161,0,0,1-1.1.17C1.7,4.295.608,4.42.194,5.339A1.889,1.889,0,0,0,.155,6.922,4.392,4.392,0,0,0,2.788,8.895a13.836,13.836,0,0,0-1.283,7.9c.436,1.564,2.357,3.595,3.464,4.667,1.771,1.716,4.506,2.083,7.636,2.359,1.361.119,2.747.18,4.122.18.841,0,1.686-.022,2.517-.067a10.724,10.724,0,0,0,4.329-1.528,14.377,14.377,0,0,1,2.026-.945l.171-.057.091-.155a7.273,7.273,0,0,1,.753-.982,6.13,6.13,0,0,0,1.29-2,9.053,9.053,0,0,0-2.251-8.979M1.84,6.13a6.759,6.759,0,0,1,1.409-.34c0,.011,0,.022-.007.032a7.235,7.235,0,0,0-.2,1.185A1.338,1.338,0,0,1,1.84,6.13m2.938.577A5.487,5.487,0,0,1,9.7,1.9a5.253,5.253,0,0,1,4.121,1.092A4.69,4.69,0,0,1,15.4,6.444a10.782,10.782,0,0,1-.279,2.326c-.352,1.839-.75,3.915,1.494,4.817l0,.008.226.077c3,1.023,6.677-.821,8.451-2.322a7.367,7.367,0,0,1,1.26,5.17,4.8,4.8,0,0,1-2.025,3.527,15,15,0,0,1-5.029,2.042c-3.382.4-10.38-.093-12.182-1.059-1.337-.716-3.969-3.563-4.2-5.1a9.9,9.9,0,0,1,.317-4.34,5.006,5.006,0,0,1,.564-1.063A5.3,5.3,0,0,0,4.77,8.872a4.561,4.561,0,0,0,.038-1.507l-.24.021.24-.023a3.986,3.986,0,0,1-.03-.656" transform="translate(0 0)" fill="#fff"/>
    <path id="パス_29322" data-name="パス 29322" d="M14.03,10.572c.043,0,.087,0,.13,0a2.074,2.074,0,0,0,1.809-1.42,1.628,1.628,0,0,0-.889-1.814l-.187-.071A1.978,1.978,0,0,0,12.649,9.04c-.022.079-.04.148-.06.2l-.065.176.072.173a1.5,1.5,0,0,0,1.433.98" transform="translate(-6.512 -3.761)" fill="#fff"/>
  </g>
</svg>
