<svg id="icon_suport" xmlns="http://www.w3.org/2000/svg" xmlns:xlink="http://www.w3.org/1999/xlink" width="28.223" height="24" viewBox="0 0 28.223 24">
  <defs>
    <clipPath id="clip-path">
      <rect id="長方形_1873" data-name="長方形 1873" width="28.223" height="24" fill="#fff"/>
    </clipPath>
  </defs>
  <g id="グループ_5394" data-name="グループ 5394" clip-path="url(#clip-path)">
    <path id="パス_29323" data-name="パス 29323" d="M11.513,23.757l.253.136.263-.185.253.136c.292-.052.582-.522.857-.681l.321.01.467-.565a2.98,2.98,0,0,0,1.422-.214l.068-.127.448.078.4-.438.253.136.068-.127a1.942,1.942,0,0,0,1.3-.6c.658.139.39-.038.847-.36l.127.068.2-.38.127.068.2-.38.126.068.136-.253.127.068.136-.253.321.01.136-.253.389-.117.136-.253.126.068.136-.253.321.01.273-.506.126.068.136-.253.126.068.2-.38.321.01.136-.253.126.068.2-.38.127.068.136-.253.126.068.136-.253.321.01.2-.38.127.068.2-.38.127.068L25,16l.126.068.341-.633.127.068.136-.253.321.01.136-.253.127.068.614-1.139.126.068a.38.38,0,0,0,.078-.448l.75-1.392-.127-.068.214-.7-.126-.068.136-.253-.127-.068.341-.633-.185-.263.136-.253-.127-.068.2-.38-.185-.263.136-.253-.185-.263.2-.38-.127-.068.146-.574c-.451-.436-.381-.8-.409-1.363l-.127-.068.136-.253a11.232,11.232,0,0,0-1.294-1.84l.068-.126L25.314,3.6l-.652.3-.38-.2-.068.127-.253-.136-.068.126-.7-.214-.068.126-.38-.2-.068.127-.253-.136-.068.126L22.1,3.5l-.068.126-.321-.01-.136.253-.643-.02L20.8,4.1l-1.49.34L19.17,4.7l-.389.117-.253-.136a2.56,2.56,0,0,0-.983.613L17.1,5.212,15.9,6.526l-.321-.01-.136.253L15.314,6.7l-.74,1.071c-.07.055-.173-.085-.458.243-.3-.287-.242-.317-.3-.652l-.126-.068.2-.38-.185-.263c-.043-.428.166-.044-.048-.516l.068-.127-.633-.341.068-.127-.253-.136.068-.127-.312-.331.156-.9a3.654,3.654,0,0,1-.993-1.188l.068-.127L10.828,2,10.9,1.87,9.124.916A.379.379,0,0,0,8.813.585L8.744.711,7.859.234,7.6.419,6.515,0A2.13,2.13,0,0,1,5.6.486L5.473.418l-.662.623L4.558.9c-.566.8-.922.443-1.441.856l-.867,1-.321-.01-.536.691-.126-.068L1.2,3.5l.127.068L.779,4.584l.127.068-.331.312L.7,5.032.01,6.618l.127.068L0,6.94.185,7.2l-.156.9.185.263-.136.253L.2,8.683l-.136.253L.194,9l-.136.253.117.389L.038,9.9l.243.458-.068.126.253.136.224,1.1.565.467q0,.161-.01.321l.253.136-.068.127.38.2-.068.126.253.136q-.005.161-.01.321l.438.4q0,.161-.01.321l.438.4-.068.126.253.136-.068.127.253.136-.068.127.253.136-.068.126.38.2.048.516.633.341-.068.127.253.136-.068.127.253.136q0,.161-.01.321l.38.2-.068.127.438.4-.068.127.691.536q0,.161-.01.321l.253.136-.068.127.253.136.117.389.253.136.049.516,1.519.818-.068.127.253.136.107.711.195-.058.75.73-.068.126.574.146-.068.126.886.477.458-.243m.517-2.171c-.118.056-.311-.041-.516.048-.54-.344-.474-.458-.681-.857l.068-.126-1.713-.76.068-.127-.38-.2q.005-.161.01-.321l-.759-.409-.107-.711-.564-.467.068-.126-.253-.136q0-.161.01-.321L6.657,16.4l.068-.127-.38-.2.068-.127-.253-.136.068-.127-.38-.2.068-.127-.253-.136.068-.127-.38-.2.068-.127-.38-.2-.048-.516L4.36,13.7l-.048-.516-.38-.2L4,12.851l-.253-.136.068-.127-.253-.136q0-.161.01-.321l-.253-.136-.107-.711c-.158-.284-.622-.289-.818-.6l.078-.448-.243-.458.136-.253L2,8.673l.156-.9-.185-.263.2-.38a4.219,4.219,0,0,1,.7-1.908s.156.092.263-.185a.407.407,0,0,1,.078-.448l.127.068L3.9,3.65,4.411,3.6l.2-.38.127.068.4-.438c.294.06.1.076.321.01a2.468,2.468,0,0,0,.857-.681,2.118,2.118,0,0,0,.964.029l.068-.127a9.967,9.967,0,0,1,2.463,1.49L9.8,3.9l.38.2-.068.126.633.341-.068.126.243.458-.136.253.127.068a3.046,3.046,0,0,0,.915,1.636,2.764,2.764,0,0,0,.087,1.353l.253.136q0,.161-.01.321l.127.068.039.837c.207.695.525.416.214,1.422l.38.2-.068.127a1.257,1.257,0,0,0,1.022.224L15.1,9.524l.126.068.4-.438.127.068.341-.633.127.068.136-.253.126.068.136-.253.321.01.273-.506.711-.107.536-.691.321.01.331-.311.906-.165.4-.438.516-.048L21,5.845l.253.136.847-.36.574.146.058.195.458-.243a5.723,5.723,0,0,0,1.548-.146A1.7,1.7,0,0,1,25.79,6.957l.185.263c0,.676-.552.391.1,1.032a1.165,1.165,0,0,0-.02.643l.126.068-.136.253.127.068-.136.253.185.263-.136.253.127.068-.283.827.185.263-.74,1.071.185.263c-.069.6-.728,1.042-1,1.256l-.126-.068-.945,1.45-.126-.068-.136.253-.321-.01-.341.633-.127-.068-.4.438-.127-.068-.2.38-.127-.068-.273.506-.321-.01-.136.253-.126-.068-.136.253-.389.117-.136.253-.516.049-.409.759L19,18.647l-.331.311-.516.049-.2.38-.127-.068-.136.253L17.56,19.5l-.136.253-.321-.01-1.042.418-.448-.078-1.12.866c-.306.13-.617-.165-.9-.156l-.068.126-1.1.224-.4.438" fill="#fff" fill-rule="evenodd"/>
  </g>
</svg>
