<svg id="icon_suport" xmlns="http://www.w3.org/2000/svg" xmlns:xlink="http://www.w3.org/1999/xlink" width="56.447" height="48" viewBox="0 0 56.447 48">
  <defs>
    <clipPath id="clip-path">
      <rect id="長方形_1873" data-name="長方形 1873" width="56.447" height="48" fill="#26333b"/>
    </clipPath>
  </defs>
  <g id="グループ_5394" data-name="グループ 5394" clip-path="url(#clip-path)">
    <path id="パス_29323" data-name="パス 29323" d="M23.026,47.513l.506.273.526-.37.506.273c.584-.1,1.164-1.044,1.714-1.363l.642.02.935-1.129A5.961,5.961,0,0,0,30.7,44.79l.136-.253.9.156.8-.876.506.273.136-.253a3.884,3.884,0,0,0,2.61-1.207c1.315.277.779-.076,1.694-.72l.253.136.409-.759.253.136.409-.759.253.136.273-.506.253.136.273-.506.643.019.273-.506.779-.233.273-.506.253.136.273-.506.643.02.546-1.012.253.136.273-.506.253.136.409-.759.643.02.273-.506.253.136.409-.759.253.136.273-.506.253.136.273-.506.643.019.409-.759.253.136.409-.759.253.136L50,32l.253.136.682-1.266.253.136.273-.506.643.02.273-.506.253.136,1.227-2.278.253.136a.76.76,0,0,0,.156-.9l1.5-2.784L55.51,24.2l.429-1.4-.253-.136.273-.506-.253-.136.682-1.265-.37-.526.273-.506-.253-.136.409-.759-.37-.526.273-.506-.37-.526.409-.759-.253-.136.292-1.149c-.9-.871-.761-1.6-.817-2.726l-.253-.136.273-.506A22.464,22.464,0,0,0,53.042,8.17l.136-.253L50.628,7.2l-1.3.6-.759-.409-.136.253-.506-.273-.136.253-1.4-.429-.136.253-.759-.409-.136.253-.506-.273-.136.253L44.2,7l-.136.253-.643-.019-.273.506L41.866,7.7l-.273.506-2.979.681-.273.506-.779.233-.506-.273a5.119,5.119,0,0,0-1.967,1.226l-.9-.156-2.4,2.628-.642-.02-.273.506-.253-.136-1.48,2.141c-.141.111-.346-.169-.915.487-.6-.575-.485-.634-.6-1.3l-.253-.136.409-.759-.37-.526c-.086-.856.331-.088-.1-1.032l.136-.253-1.265-.682.136-.253-.506-.273.136-.253-.623-.662L25.646,8.1A7.308,7.308,0,0,1,23.66,5.728l.136-.253-2.141-1.48.136-.253L18.248,1.832a.759.759,0,0,0-.623-.662l-.136.253L15.717.468l-.526.37L13.03,0A4.26,4.26,0,0,1,11.2.973L10.947.837,9.622,2.083,9.116,1.81C7.983,3.4,7.272,2.7,6.234,3.522L4.5,5.528l-.643-.02L2.786,6.89l-.253-.136L2.4,7.007l.253.136L1.559,9.168l.253.136-.662.623.253.136L.019,13.237l.253.136L0,13.88l.37.526L.058,16.2l.37.526-.273.506.253.136-.273.506.253.136-.273.506.234.779L.076,19.8l.487.915-.136.253.506.273.447,2.2,1.129.935q-.01.322-.02.643L3,25.291l-.136.253.759.409-.136.253.506.273q-.01.321-.02.643l.876.8q-.01.321-.02.643l.876.8-.136.253.506.273-.136.253.506.273-.136.253.506.273-.136.253.759.409.1,1.032,1.266.682-.136.253.506.273-.136.253.506.273q-.01.321-.02.643l.759.409-.136.253.876.8-.136.253,1.382,1.071q-.01.321-.02.643l.506.273-.136.253.506.273.233.779.506.273.1,1.032,3.037,1.636-.136.253.506.273.214,1.422.389-.117,1.5,1.461-.136.253,1.149.293-.136.253L22.11,48l.915-.487m1.033-4.342c-.236.111-.621-.082-1.032.1-1.079-.687-.947-.915-1.363-1.714L21.8,41.3l-3.426-1.52.136-.253-.759-.409q.01-.321.02-.642l-1.519-.818q-.107-.711-.214-1.422L14.909,35.3l.136-.253-.506-.273q.01-.321.02-.643L13.313,32.81l.136-.253-.759-.409.136-.253-.506-.273.136-.253-.759-.409.136-.253-.506-.273.136-.253-.759-.409.136-.253-.759-.409-.1-1.032L8.719,27.4l-.1-1.032-.759-.409L8,25.7l-.506-.273.136-.253L7.123,24.9q.01-.321.02-.643l-.506-.273-.214-1.422c-.315-.569-1.245-.578-1.635-1.208l.156-.9-.487-.915.273-.506-.72-1.694.312-1.791-.37-.526.409-.759a8.438,8.438,0,0,1,1.4-3.816s.312.183.526-.37a.815.815,0,0,1,.156-.9l.253.136L7.791,7.3l1.032-.1.409-.759.253.136.8-.876c.587.12.2.153.643.02A4.935,4.935,0,0,0,12.64,4.362a4.235,4.235,0,0,0,1.928.059l.136-.253c.809.046,4.673,2.622,4.925,2.98l-.019.643.759.409-.136.253,1.266.682-.136.253.487.915-.273.506.253.136a6.091,6.091,0,0,0,1.829,3.272,5.527,5.527,0,0,0,.174,2.707l.506.273q-.01.321-.02.643l.253.136q.039.837.078,1.674c.414,1.389,1.05.831.428,2.843l.759.409-.136.253a2.514,2.514,0,0,0,2.044.448L30.2,19.048l.253.136.8-.876.253.136.682-1.265.253.136.273-.506.253.136.273-.506.643.02.546-1.012,1.422-.214,1.071-1.382.643.02.662-.623,1.811-.331.8-.876,1.032-.1L42,11.691l.506.273,1.694-.72,1.149.292.117.389.915-.486a11.445,11.445,0,0,0,3.1-.291,3.4,3.4,0,0,1,2.1,2.766l.37.526c.009,1.352-1.1.782.194,2.064a2.331,2.331,0,0,0-.039,1.285l.253.136-.273.506.253.136-.273.506.37.526-.273.506.253.136L51.851,21.9l.37.526-1.48,2.142.37.526C50.972,26.3,49.654,27.174,49.1,27.6l-.253-.136-1.89,2.9-.253-.136-.273.506-.643-.02-.682,1.265-.253-.136-.8.876-.253-.136-.409.759-.253-.136L42.6,34.22l-.643-.02-.273.506-.253-.136-.273.506-.779.233-.273.506-1.032.1-.818,1.519L38,37.295l-.662.623-1.032.1-.409.759-.253-.136-.273.506-.253-.136-.273.506-.643-.02-2.084.837-.9-.156-2.24,1.732c-.613.26-1.234-.331-1.791-.312l-.136.253-2.2.447-.8.876" fill="#26333b" fill-rule="evenodd"/>
  </g>
</svg>
