<svg xmlns="http://www.w3.org/2000/svg" width="40.6" height="48.595" viewBox="0 0 40.6 48.595">
  <g id="icon_mokuhyou" transform="translate(-628.793 -2571.846)">
    <path id="パス_28998" data-name="パス 28998" d="M665.891,2614.661c.151.063.139.527.837.335v-.168h.5l.168-.335,1.172-.168v-.167c.282-.191.233-.1.335-.5h.167l-.167-.67h-.167v-.335l-.335-.167v-.335l-.5-.335v-.335l-.335-.167-.167-.5h-.168v-.5l-.335-.167-.167-.67-.335-.167v-.335h-.167v-.335h-.167v-.5l-.5-.335-.167-.837-.5-.335-.168-.67-.67-.5v-.335h-.168c-.229-.371.07-.231-.335-.5a1.724,1.724,0,0,1,.67-1.507l.335-.167v-.335h.167c.285-.447-.161-.321.5-.5a2.062,2.062,0,0,1,.5-.837h.168l.335-1.675h.167l.168-.67h.167l.167-1.173.335-.167v-.837h.168v-.5h.167v-1.34h.167v-.67h.168v-2.512h.167v-.837H667.9v-2.01h-.168v-1h-.167l-.335-2.68h-.167v-.335H666.9v-.5h-.167v-.5h-.167v-.335l-.5-.335-.168-1.005-.335-.167-.167-.67-.335-.167v-.5l-.5-.335-.168-.67-.335-.167-1.005-1.173-.5-.167-.67-1.005h-.335v-.167l-.5-.335v-.335h-.168l-.67-.838h-.67l-.167-.335h-.5l-.168-.335h-.335l-.167-.335h-.335v-.167h-.5v-.167h-.335v-.167h-.5v-.167h-.67v-.167h-.5l-.167-.335h-1.005v-.167h-.67v-.167h-.335v-.167h-.67v-.167l-2.01-.167a11.253,11.253,0,0,0-3.685-.167v.167h-.67v.167l-1.34.167v.167h-.335v.167h-.5v.167h-.837v.167h-.5v.167h-.5l-.335.5-1.507.5v.167h-.335l-.168.335h-.335v.167h-.335v.167h-.5v.167a6.332,6.332,0,0,1-1.34.5c-.244.854-.484.407-.837.838v.335l-.67.335v.335l-.5.335-.167.5-1.172.837-.167.837h-.168l-.335,1h-.168v.335l-.5.335v.335l-.335.167V2583h-.167v.335h-.168v.5h-.167l-.168.67h-.167v1h-.167v.335h-.168v.67h-.167v1h-.168v2.177a2.622,2.622,0,0,0-.335,1.507h.167l-.167,1.675h.167v1.005h.167v.335h.168v1.173h.167v.335h.168l-.168.5h.168v.335h.167l.167,2.177h.168l.167.67.5.335.335,1,.5.335.335,1,.335.167v.335c.3.428.647.281.837,1.005h.168a1.355,1.355,0,0,1-.335.67H634.4v.335l-.335.167v.167l-.335.167v.335l-.5.335v.335l-.335.167-.168.67-.335.168-.168.67-.5.335v.335l-.335.167-.335,1-.335.168v.335l-.67.5v.5l-.335.167c-.274.422-.258.729-.67,1v.67h.168l.167.5c.747.017,2.425.217,2.847-.167.689-.017,2.13-.182,2.512.167.318.359-.034.971.168,1.508h.167v.335l.335.168.168,1.842h.167v.5l.5.335v.335l.335.335c.14.256.12.666.335.837h.335l.168.335h.5v.167h.335v-.167l1.172-1.005v-.335l.5-.335v-.335l.335-.167v-.335l.5-.335v-.5h.167l.167-.67.5-.335v-.335h.167V2615l.335-.335v-.335l.67-.5v-.335l1-.837.168-.67.335-.167a4.96,4.96,0,0,0,1.005-1.34h.335c.108-.4.047-.314.335-.5v-.167l1.005.167v.167h1v.167c1.111.313,2.66-.3,3.685-.335l.167,1.172.335.167v.67h.167v.335h.168l.167.837.67.5q.083.586.167,1.172h.167v.335h.168v.67l.335.167.168.5.5.167a4.549,4.549,0,0,0,.67,1.508l.335.167.168,1.005.335.167v.335c.066.1.225.127.335.335a4.425,4.425,0,0,0,1.507-.335c.107-.474.37-.923.5-1.34v-1h.168v-.335l.335-.167.167-1,.335-.167v-.67l.5-.335v-.335h.168v-.335h.167l.167-.5a4.468,4.468,0,0,1,1.675.335v.167h1.005v.167h.67v.168h.67v.167Zm-22.611-4.02h-.167v.335l-.335.167v.335l-.335.167v.335l-.335.335v.335l-.837.67v.335l-.335.167-.167.67-.335.167-.167.67-.5.335V2616l-.335.167v.335l-.335.167a2.769,2.769,0,0,0-.67,1.172h-.5a14.052,14.052,0,0,1-1.508-5.862h-.167v-.167h-3.182v.167l-1.842.168c.22-.926.954-1.32,1.34-2.01v-.5l.335-.167v-.335l.5-.335.167-.837h.168v-.335l.5-.335v-.335l.5-.335a5.349,5.349,0,0,0,1.172-2.01c.923.13.519.322,1.005.67h.335l.168.335a3.363,3.363,0,0,0,1.34,1c.185.667.469.555,1,.838v.167h.5v.167h.335l.167.335h.335v.167l1.005.335v.167h1.172l.167.335.67.167C644.009,2610.026,643.649,2610.2,643.28,2610.641Zm8.542-2.177v.167h-.335v.167h-3.015v-.167l-1.507-.167v-.168h-.335v-.167h-.67v-.167h-1.172l-.167-.335h-.5v-.167h-.335v-.167h-.67l-2.01-.67-1-1.172h-.335l-.5-.67-.67-.167-.335-.67h-.335v-.168h-.335l-.167-.335-.67-.168-1.172-1.34h-.168l-.168-.837-.67-.5v-.335l-.5-.335v-.335l-.335-.335v-.335h-.168v-.335l-.5-.335-.167-.67h-.168l-.335-2.68h-.168v-.5h-.167v-1.34h-.168a8.8,8.8,0,0,1,.335-3.685v-1.675l.335-.167v-1h.167v-.5h.168v-.5h.167v-.67h.168l.167-.837.335-.168v-.335l.335-.167V2583h.167v-.335l.335-.335V2582l.335-.167v-.335l.5-.335.335-1,.5-.335v-.335h.167l.335-.5h.335c.183-.691.508-.646,1.005-1l.5-.67h.335l.168-.335h.335l.335-.335h.335v-.167h.335l.168-.335.67-.167v-.167h.335v-.168h.335v-.167h.335l.335-.335h.335l.168-.335.67-.167v-.167l1.675-.167v-.167h.5v-.167h.5v-.167h3.685v.167l1.172.167v.167h.67v-.167l.837.167v.167h.837l.335.5,1,.167v.167h.335l.168.335,1.675.168.167.335h.335l.5.67.67.167.67.837.67.167.335.5h.167l.167.5h.335l1.172,1.34h.335v.168l.67.5.5,1.507.5.335v.335h.168l.167,1,.67.335.167,1.675.335.167.168,2.177a12.972,12.972,0,0,1-.168,6.532v1.508h-.168l-.167,1h-.167v.335h-.168v.5h-.167v.335h-.167l-.168.837-.335.168c-.2.425.048.831-.167,1.172h-.167l-.335.5h-.335l-.168.67-.67.5-1.507,1.675c-.426.392-.444-.09-.67.67-.568.129-.769.388-1.34.5-.2.759-.725.83-1.34,1.172v.167h-.335v.167h-.5v.168h-.5v.167h-.335v.167h-.837v.167l-.67.167v.168c-.474.094-.543-.646-1.172-.335l-.335.67C652.677,2608.518,652.221,2608.315,651.822,2608.464Zm12.227,4.355v-.167h-.335l-.168-.335h-1v-.167h-1v-.168H661.2v-.167h-.67v-.168c-.856.09-.693.4-1.005,1.005h-.167v.5l-.335.167-.168.837h-.5l-1,3.015c-.87-.1-.989-.569-1.34-1.172h-.168v-.335h-.167v-.335h-.167V2615h-.168v-.5h-.167v-.335H655v-.5l-.335-.167-.168-.5h-.167l-.168-.67a6.487,6.487,0,0,1-1-2.345,10.886,10.886,0,0,0,3.015-1.173l2.01-.335v-.335l1.005-.335.335-.5h.335l1.172-1.34c.282-.257.429-.127.67-.5.945.1.744.468,1.172,1h.167v.167c.39.33.323-.185.5.5a2.286,2.286,0,0,1,.335,1.34c1.225.141.482.351.837,1l.5.335v.335l.335.167v.335h.167v.5h.168l.168.67h.167a1.164,1.164,0,0,1,.335.837h-.335v.335Z" transform="translate(0 0)" fill="#26333b" stroke="#26333b" stroke-width="0.5" fill-rule="evenodd"/>
    <path id="パス_28999" data-name="パス 28999" d="M683.074,2624.794h.335l.168-.335h.67v-.168h.335v-.167l1-.167v-.167h.335l.335-.5h.335l.335-.5h.335l.67-.838h.167l.168-.335h.335l1.172-1.34.5-.335v-.335l.335-.167v-.335l.5-.335v-.335l.335-.168.335-1,.335-.167v-.335l.335-.168.335-1h.167v-.335h.168l.335-1h.167l.168-1.34h.167v-.335h.167a17.6,17.6,0,0,0-.167-4.355l-.167-3.35h-.168v-.335l-.335-.167-.335-1.507-.335-.167-.168-1.005-.5-.335-.168-1.34h-.167a1.536,1.536,0,0,1-.335-.67h-.335l-.167-.5-1.507-1.34v-.335a2.17,2.17,0,0,1-1-.5v-.167h-.335l-.335-.5h-.5v-.167h-.335l-.167-.335h-.5l-.335-.5-.5-.167v-.167h-1.005c-.306-.1-1.265-.586-1.675-.5v.167H681.4v-.167h-.67v-.167h-.5v-.168h-.5v-.167h-1v-.168l-2.512.335v.168h-.335v.167l-2.01.335v.167l-.67.167v.167h-1l-.335.5-.837.167-.168.335-.837.167c-.093.06-.474.862-.67,1h-.335l-1,1.172-.5.335-.167.5-1,.837-.168.837h-.167v.335l-.335.168v.335h-.167l-.167,1.173h-.168v.335l-.335.167v.335h-.167v1.172l-.335.167v1.172h-.167v.5h-.168a21.116,21.116,0,0,0,.168,5.025v1h.167v.5h.167v1.005h.168v1h.167l.335,1h.168v.335l.837.67.168.67h.168l.167.67,1,.837.168.335.67.167c.328.262.059.635.67,1v.335a1.8,1.8,0,0,1,1.172.5l.167.335.67.167v.168h.67l.335.5.837.167v.167h.335v.167h.335v.167l1,.335v.167l1.172.167v.168h.335v.167h.67v.167h1.842v.168l.67.167v.168H681.9v-.168h.335v-.167h.837Zm-2.68-1v-.167h-1v-.167h-.335v-.167h-1v-.167l-2.01-.167v-.167H675.7l-.167-.335H675.2v-.168h-.5v-.167h-.335l-.167-.335-.67-.167v-.168l-.67-.167v-.167h-.5v-.168h-.335l-.167-.335h-.335v-.167l-1-.335-.5-.837h-.335l-.335-.5-.67-.167-.335-.5h-.167v-.335l-.335-.167-.168-.837H667.5v-.335l-.335-.167-.168-.5-.5-.335-.168-.67-.335-.167v-1.005h-.168l-.167-.837h-.167l.167-1h-.167v-2.345h-.167l.167-1.173h.167v-1.34h.167v-.837h.168v-1.173h.167v-.335h.168l.168-.837.335-.167v-.335H667v-1l.335-.167v-.335h.167v-.335l.335-.335v-.335l.837-.67.168-.67.5-.335v-.335l1.172-.838.67-.837h.67v-.167h.335v-.167h.67l.167-.335,1.507-.5v-.167l1.005.167.167-.335h.5a8.143,8.143,0,0,1,4.857.167l2.01.167v.167h.5v.167l.67.168v.167h.5v.167l.5.167v.335a2.266,2.266,0,0,1,1.34.5h.335l.167.335h.335l.5.67a6.339,6.339,0,0,1,1.005.67c.2.2.28.487.5.67v.335l.5.167a4.923,4.923,0,0,1,.168,1.172h.5l.67,1.843.335.167v.67h.167v.335h.168v.67l.335.168q.084.921.167,1.842h-.167v1.34h.167l.168,1.508h-.168v1.172h-.167v.335h-.168a.462.462,0,0,0,.168.5l-.335,1.842h-.168l-.167.67-.335.167v.335h-.168v.335h-.168v.5l-.335.167v.335l-.5.335v.335l-.335.167-.167.67-.335.167v.335H689.1l-.167.5-.335.167v.335l-.5.335v.167h-.335l-.167.335-.5.167-.67.837h-.335l-.168.335h-.167l-.335.5h-1l-.5.67A9.024,9.024,0,0,1,680.394,2623.789Z" transform="translate(-29.745 -18.172)" fill="#26333b" stroke="#26333b" stroke-width="0.5" fill-rule="evenodd"/>
  </g>
</svg>
